<svg width="364" height="614" viewBox="0 0 364 614" fill="none" xmlns="http://www.w3.org/2000/svg">
<g clip-path="url(#clip0_22:454)">
<path d="M238.063 62.8187C236.707 63.2251 235.614 63.6419 235.631 63.7126C235.717 64.066 243.705 72.002 244.153 72.1547C244.697 72.3963 248.961 71.3547 252.583 70.1328L255.28 69.2493L255.248 64.6879C255.233 62.1822 255.192 59.7204 255.186 59.2352L255.19 58.3353L247.851 60.2404C243.843 61.257 239.42 62.4123 238.063 62.8187Z" fill="#131313"/>
<path d="M257.324 59.2742C257.233 63.7908 257.429 68.8737 257.666 68.9281C257.798 69.0083 260.325 68.6532 263.248 68.2387L268.575 67.4241L272.836 61.3273C275.201 58.0156 277.053 55.2036 276.965 55.1502C276.877 55.0967 273.153 55.5945 268.689 56.2732C264.216 56.9164 259.849 57.5339 258.969 57.5991C257.366 57.7658 257.375 57.8011 257.324 59.2742Z" fill="#131313"/>
<path d="M223.47 67.7325C215.766 70.7381 214.716 71.1817 215.182 71.4051C215.647 71.6285 230.433 76.518 231.189 76.7079C231.786 76.8615 233.258 76.4646 236.51 75.2581C238.969 74.3202 241.182 73.4426 241.412 73.3117C242.056 72.8921 233.385 64.2991 232.451 64.4522C232.055 64.5116 228.01 65.9868 223.47 67.7325Z" fill="#131313"/>
<path d="M275.751 60.8773C272.784 65.0852 271.507 67.1948 271.867 67.2941C272.184 67.3666 274.419 67.3449 276.892 67.2276L281.327 67.0429L289.318 61.2334C293.732 58.0577 297.696 55.1792 298.111 54.8906C298.561 54.5934 298.818 54.2685 298.73 54.215C298.598 54.1348 294.771 54.2086 290.177 54.357C285.583 54.5055 281.465 54.6128 281.016 54.61C280.417 54.6064 279.125 56.1954 275.751 60.8773Z" fill="#131313"/>
<path d="M203.649 76.469C196.204 80.385 195.684 80.6994 195.947 80.8598C196.473 81.1806 219.986 82.6648 220.938 82.4324C221.854 82.2086 228.698 78.7389 228.938 78.3434C228.991 78.2555 228.376 78.0312 227.603 77.7706C226.838 77.5454 222.973 76.2426 218.993 74.9302C215.04 73.574 211.507 72.5643 211.199 72.6772C210.882 72.7546 207.495 74.4809 203.649 76.469Z" fill="#131313"/>
<path d="M293.861 60.5728C289.093 63.9846 285.12 66.9777 285.013 67.1535C284.872 67.3379 286.665 67.6488 288.961 67.8745L293.173 68.306L305.792 62.4894C320.968 55.5238 320.297 55.8373 319.498 55.6207C318.54 55.3678 303.429 54.0407 302.971 54.1526C302.733 54.2482 298.619 57.1257 293.861 60.5728Z" fill="#131313"/>
<path d="M184.723 87.6469C181.157 90.1661 178.428 92.2933 178.639 92.3916C178.814 92.4986 186.314 91.8649 195.258 91.0283L211.569 89.4778L214.642 87.2292C216.328 86.0307 217.662 84.9184 217.636 84.8124C217.62 84.5917 192.049 82.7862 191.538 82.986C191.326 83.0376 188.263 85.1717 184.723 87.6469Z" fill="#131313"/>
<path d="M319.746 53.4258C322.797 53.8414 329.897 54.0169 330.444 53.6585C330.93 53.3527 320.647 52.6813 318.648 52.9074C317.301 53.0491 317.424 53.094 319.746 53.4258Z" fill="#131313"/>
<path d="M175.085 89.9259C172.123 91.2489 169.149 92.9865 165.804 95.3394C161.019 98.6804 159.103 100.16 160.637 99.4104C161.034 99.2011 163.636 97.9288 166.44 96.5696C169.201 95.1836 172.032 93.7804 172.72 93.3876C174.096 92.602 180.902 87.9057 181.062 87.642C181.337 87.2379 179.177 88.0276 175.085 89.9259Z" fill="#131313"/>
<path d="M245.744 74.5377C246.003 75.598 257.505 94.0983 257.56 93.5605C257.616 92.8726 255.622 73.248 255.398 72.3291C255.268 71.799 254.643 71.8393 250.415 72.8722C246.821 73.7502 245.657 74.1843 245.744 74.5377Z" fill="#131313"/>
<path d="M257.444 71.2303C257.461 71.301 258.001 76.2625 258.607 82.2567C259.212 88.2509 259.752 93.2125 259.84 93.2659C259.928 93.3194 261.65 88.1422 263.712 81.7585C266.132 74.2388 267.251 70.1078 266.935 70.0353C266.689 69.9456 265.008 70.0942 263.211 70.3832C261.415 70.6722 259.363 70.9861 258.694 70.9997C257.999 71.0572 257.427 71.1596 257.444 71.2303Z" fill="#131313"/>
<path d="M237.786 76.968C235.944 77.6802 234.392 78.3589 234.339 78.4468C234.286 78.5347 238.827 82.1444 244.43 86.4309C250.067 90.7089 254.671 94.116 254.663 93.9306C254.699 93.7721 252.202 89.5132 249.129 84.4215C246.064 79.3652 243.549 75.1857 243.532 75.115C243.472 74.8676 241.224 75.6038 237.786 76.968Z" fill="#131313"/>
<path d="M266.476 80.0722C264.654 85.7605 263.029 90.8765 262.841 91.4841L262.467 92.5493L263.396 91.461C265.156 89.3455 278.894 70.0725 278.905 69.6579C278.933 69.314 271.533 69.2866 270.158 69.6223C269.947 69.6739 268.297 74.3839 266.476 80.0722Z" fill="#131313"/>
<path d="M310.154 62.7717C303.047 66.0809 297.244 68.9217 297.287 69.0985C297.33 69.2752 298.718 69.76 300.388 70.176C302.735 70.7638 303.878 70.859 305.323 70.5061C308.071 69.8346 337.686 60.9896 339.079 60.4246C340.234 59.9552 339.865 59.8206 332.825 58.0573C328.018 56.8723 324.923 56.28 324.227 56.4875C323.628 56.6338 317.297 59.4538 310.154 62.7717Z" fill="#131313"/>
<path d="M227.515 81.5375C225.565 82.5755 224.056 83.5809 224.161 83.7051C224.37 84.1034 251.166 94.7477 251.299 94.528C251.459 94.2643 232.029 79.5358 231.562 79.6124C231.307 79.6373 229.499 80.4909 227.515 81.5375Z" fill="#131313"/>
<path d="M169.196 100.054C166.324 102.815 163.893 105.245 163.751 105.429C163.485 105.868 172.231 104.069 190.64 99.9463L204.081 96.8873L206.539 94.4144C207.848 93.046 208.803 91.9137 208.575 91.8947C208.39 91.9024 200.978 92.5895 192.113 93.4442C183.284 94.2904 175.652 94.9938 175.238 94.9825C174.684 95.0055 172.617 96.7839 169.196 100.054Z" fill="#131313"/>
<path d="M335.315 56.4762C340.946 58.2838 345.264 58.8395 356.261 59.2241C362.472 59.4295 367.663 59.5847 367.839 59.5416C367.98 59.5072 364.43 58.5769 359.982 57.4911L351.879 55.5008L343.475 55.6437C338.82 55.6947 334.781 55.8201 334.499 55.889C334.182 55.9664 334.55 56.251 335.315 56.4762Z" fill="#131313"/>
<path d="M274.447 79.8471C270.338 85.495 266.813 90.4759 266.565 90.8361C266.325 91.2317 270.309 87.974 275.424 83.5409C289.233 71.5911 290.788 70.1625 290.102 70.1054C286.347 69.7119 282.494 69.3797 282.212 69.4486C282.036 69.4916 278.548 74.1639 274.447 79.8471Z" fill="#131313"/>
<path d="M158.343 102.855C153.351 105.348 148.632 107.736 147.882 108.182C146.515 109.003 134.186 120.591 134.493 120.778C134.756 120.939 157.73 107.836 159.081 106.794C160.45 105.673 167.725 98.6155 167.673 98.4035C167.647 98.2974 167.559 98.244 167.533 98.2879C167.462 98.3051 163.335 100.362 158.343 102.855Z" fill="#131313"/>
<path d="M217.791 87.4333C216.21 88.6059 214.938 89.6657 214.973 89.807C215.033 90.0544 247.896 96.0333 247.994 95.8222C248.091 95.6111 221.69 85.2073 221.188 85.2925C220.933 85.3174 219.415 86.2874 217.791 87.4333Z" fill="#131313"/>
<path d="M292.074 71.9084C291.305 72.583 286.04 77.1651 280.394 82.0273C271.401 89.8422 269.015 91.998 270.63 90.9668C270.851 90.8005 277.716 86.6516 285.851 81.7429C294.022 76.8256 300.746 72.7111 300.799 72.6232C300.888 72.5267 299.236 72.0314 297.214 71.5515L293.479 70.6288L292.074 71.9084Z" fill="#131313"/>
<path d="M209.602 94.2654C208.117 95.8268 207.355 96.8367 207.698 96.8653C209.044 97.0234 244.043 97.6865 244.123 97.5547C244.203 97.4228 214.03 91.9103 212.579 91.7779C212.307 91.7321 210.981 92.8798 209.602 94.2654Z" fill="#131313"/>
<path d="M325.491 66.7032C315.613 69.678 307.462 72.231 307.356 72.4068C307.117 72.8023 312.956 75.3082 313.696 75.1274C314.049 75.0414 323.709 73.3181 335.157 71.2704C346.579 69.2667 356.434 67.421 356.98 67.2126C357.914 66.9095 357.555 66.6603 352.831 64.5935C346.298 61.6952 344.321 60.9421 343.845 61.1333C343.607 61.2289 335.369 63.7284 325.491 66.7032Z" fill="#131313"/>
<path d="M351.13 61.4514C351.148 61.5221 353.79 62.7116 356.969 64.1072L362.765 66.5864L379.634 68.2331C388.921 69.1101 396.67 69.8014 396.882 69.7497C397.34 69.6378 379.978 62.3064 378.976 62.1768C378.017 62.0739 351.58 61.1542 351.298 61.223C351.193 61.2489 351.104 61.3454 351.13 61.4514Z" fill="#131313"/>
<path d="M156.352 114.427C152.366 120.12 152.287 120.252 153.44 120.082C154.127 119.99 164.552 116.506 176.653 112.389L198.606 104.892L200.413 102.353L202.22 99.8142L199.34 100.255C197.764 100.528 189.185 102.399 180.236 104.436C171.286 106.472 163.165 108.231 162.223 108.349L160.445 108.559L156.352 114.427Z" fill="#131313"/>
<path d="M288.558 82.5793C280.616 87.3657 274.289 91.2708 274.448 91.3071C274.87 91.3537 309.431 76.6189 309.617 76.3112C309.697 76.1794 309.662 76.038 309.583 76.0199C309.46 75.975 308.231 75.3764 306.8 74.7148C305.369 74.0532 303.946 73.577 303.593 73.6631C303.285 73.7759 296.491 77.7576 288.558 82.5793Z" fill="#131313"/>
<path d="M141.142 119.566L127.299 127.555L125.324 130.172C121.411 135.397 115.857 143.233 115.989 143.313C116.077 143.367 123.323 138.638 132.131 132.816C140.949 127.029 148.177 122.229 148.248 122.212C148.459 122.161 155.298 112.25 155.45 111.801C155.646 111.229 156.37 110.828 141.142 119.566Z" fill="#131313"/>
<path d="M203.214 101.893L201.477 104.414L203.009 104.265C206.125 104.028 240.521 100.082 241.006 99.9264C241.737 99.7102 206.562 98.9402 205.681 99.1554C205.258 99.2587 204.144 100.505 203.214 101.893Z" fill="#131313"/>
<path d="M293.921 85.4266C284.893 89.28 277.777 92.404 278.147 92.3886C278.93 92.3845 309.494 83.757 314.164 82.2415L317.143 81.2891L314.916 79.5111C312.979 77.9994 312.478 77.7846 311.5 78.061C310.875 78.2513 302.984 81.5646 293.921 85.4266Z" fill="#131313"/>
<path d="M316.998 78.5535C317.971 79.327 319.19 80.1902 319.761 80.3878C320.428 80.6741 328.939 80.2054 346.217 78.9432C360.23 77.9169 371.955 77.0002 372.307 76.9141C373.082 76.7247 362.604 68.9853 361.425 68.8987C360.695 68.8149 318.672 76.2345 316.143 76.8896C315.297 77.0962 315.306 77.1316 316.998 78.5535Z" fill="#131313"/>
<path d="M173.259 115.765C160.542 120.108 150.072 123.714 150.036 123.723C149.842 123.845 145.412 135.976 145.535 136.02C145.965 136.252 196.079 112.887 196.222 112.402C197.651 108.009 197.759 107.383 197.063 107.59C196.719 107.712 186.003 111.379 173.259 115.765Z" fill="#131313"/>
<path d="M199.493 109.131C199.064 110.435 198.733 111.676 198.776 111.853C198.837 112.101 202.818 111.278 209.513 109.642C215.362 108.213 224.584 106.073 230.002 104.862C235.427 103.686 239.761 102.627 239.586 102.52C239.41 102.414 201.635 106.436 200.507 106.711C200.402 106.737 199.921 107.828 199.493 109.131Z" fill="#131313"/>
<path d="M295.255 89.8197C286.85 92.2476 279.889 94.3226 279.809 94.4545C279.765 94.5777 289.116 93.1172 300.607 91.2462C312.134 89.3667 321.627 87.7217 321.707 87.5899C321.787 87.458 321.237 86.4313 320.477 85.3062L319.114 83.2422L314.832 84.3631C312.472 84.9398 303.67 87.4271 295.255 89.8197Z" fill="#131313"/>
<path d="M130.664 136.283C122.022 142.027 114.246 147.185 113.417 147.762C111.978 148.75 111.569 149.524 108.206 157.611C106.212 162.443 104.645 166.421 104.733 166.474C104.908 166.581 141.485 138.546 142.254 137.721C142.466 137.519 143.525 134.976 144.603 132.053C146.982 125.742 147 125.663 146.621 125.793C146.489 125.863 139.278 130.583 130.664 136.283Z" fill="#131313"/>
<path d="M322.897 85.1271C323.666 86.2876 324.585 87.2989 324.946 87.3982C325.789 87.6415 382.711 89.3909 382.993 89.1721C383.249 88.9972 376.254 79.6204 375.552 79.1926C375.166 78.9873 323.745 82.4855 322.265 82.8471C321.525 83.0278 321.534 83.0632 322.897 85.1271Z" fill="#131313"/>
<path d="M198.183 114.62C198.085 114.831 198.061 116.11 198.055 117.46C198.106 119.657 198.158 119.869 198.687 119.74C200.237 119.362 239.213 105.121 239.346 104.901C239.426 104.77 232.106 106.445 223.05 108.658C214.03 110.861 204.737 113.019 202.456 113.464C199.99 113.917 198.237 114.382 198.183 114.62Z" fill="#131313"/>
<path d="M170.002 127.197C156.148 133.615 144.693 138.997 144.595 139.208C144.276 139.736 143.633 151.316 143.896 151.476C144.115 151.61 182.84 128.854 193.015 122.661L196.103 120.783L195.999 118.524C195.906 115.85 195.812 115.311 195.441 115.477C195.301 115.511 183.828 120.823 170.002 127.197Z" fill="#131313"/>
<path d="M300.197 96.1407C311.726 95.6463 321.882 95.1876 322.797 95.1138L324.443 94.9738L323.804 92.3585L323.174 89.7784L320.797 90.1345C317.222 90.6333 279.921 96.7495 279.542 96.8795C279.374 96.9579 288.659 96.5998 300.197 96.1407Z" fill="#131313"/>
<path d="M218.032 115.015C207.473 118.867 198.808 122.07 198.72 122.167C198.569 122.466 200.641 127.128 200.923 127.059C201.275 126.973 239.429 107.84 239.879 107.543C240.833 106.86 235.457 108.698 218.032 115.015Z" fill="#131313"/>
<path d="M279.072 99.5404C280.347 99.7158 323.385 103.022 323.439 102.934C323.802 102.283 324.247 97.5305 323.957 97.4141C323.562 97.1734 279.998 99.052 279.17 99.3293C278.888 99.3982 278.844 99.5214 279.072 99.5404Z" fill="#131313"/>
<path d="M222.061 118.823C211.195 124.324 202.26 128.866 202.181 128.998C202.092 129.095 202.914 130.167 204.026 131.356C205.348 132.793 206.172 133.416 206.543 133.251C207.107 132.963 239.66 111.078 242.07 109.329C244.392 107.675 241.517 109.052 222.061 118.823Z" fill="#131313"/>
<path d="M276.316 101.712C276.913 102.015 319.168 111.13 319.555 111.036C320.154 110.889 322.749 105.462 322.319 105.23C321.968 105.016 276.916 101.415 276.423 101.536C276.247 101.579 276.193 101.667 276.316 101.712Z" fill="#131313"/>
<path d="M325.365 89.879C325.046 90.4064 326.423 95.126 326.924 95.1908C327.196 95.2366 341.072 97.165 357.735 99.4986C374.442 101.859 388.257 103.69 388.504 103.63C388.821 103.552 388.744 103.084 388.335 102.023C388.014 101.165 387.155 98.5662 386.427 96.1973C385.681 93.7577 384.907 91.8121 384.618 91.6956C384.363 91.5705 372.108 91.0812 357.363 90.6385C342.653 90.1872 329.448 89.7804 328.049 89.7101C326.659 89.6751 325.445 89.7472 325.365 89.879Z" fill="#131313"/>
<path d="M227.026 122.03C216.875 128.929 208.498 134.683 208.418 134.815C208.312 134.991 209.592 135.952 211.224 136.976L214.242 138.785L229.442 124.885C237.81 117.261 245.074 110.618 245.586 110.118C247.946 108.006 244.301 110.357 227.026 122.03Z" fill="#131313"/>
<path d="M261.32 106.2C264.756 131.576 266.265 142.032 266.528 142.192C267.063 142.548 277.628 139.33 277.516 138.871C277.404 138.412 261.881 106.662 261.496 106.157C261.365 105.926 261.295 105.944 261.32 106.2Z" fill="#131313"/>
<path d="M232.928 124.483C220.247 136.158 216.649 139.621 217.079 139.853C217.386 140.04 219.231 140.713 221.138 141.333L224.626 142.466L236.922 126.466C249.59 110.001 250.299 109.079 249.682 109.305C249.506 109.348 241.959 116.21 232.928 124.483Z" fill="#131313"/>
<path d="M240.616 125.077C233.595 134.245 227.69 142.017 227.477 142.368C227.185 142.852 227.949 143.077 231.712 143.656C234.236 144.051 236.469 144.329 236.681 144.277C236.884 144.19 240.633 136.458 245.024 127.071C252.898 110.242 253.788 108.227 253.549 108.322C253.479 108.339 247.663 115.865 240.616 125.077Z" fill="#131313"/>
<path d="M247.871 125.889C243.214 135.866 239.453 144.162 239.523 144.295C239.732 144.693 250.018 144.615 250.223 144.228C250.515 143.744 256.684 107.857 256.508 107.75C256.429 107.732 252.555 115.869 247.871 125.889Z" fill="#131313"/>
<path d="M255.739 125.54C253.976 135.745 252.59 144.136 252.713 144.181C252.976 144.341 263.973 142.891 264.071 142.68C264.222 142.381 259.344 107.281 259.125 107.148C258.993 107.068 257.476 115.378 255.739 125.54Z" fill="#131313"/>
<path d="M266.56 105.181C266.638 105.499 292.01 132.783 292.536 133.104C292.764 133.273 294.74 132.341 297.457 130.778L302.018 128.203L300.422 127.17C298.246 125.754 268.421 106.225 267.359 105.548C266.868 105.218 266.534 105.075 266.56 105.181Z" fill="#131313"/>
<path d="M274.678 104.022C278.138 105.499 312.961 119.35 313.137 119.307C313.419 119.239 318.375 113.234 318.208 113.163C317.901 112.975 273.81 103.373 273.598 103.424C273.493 103.45 273.975 103.744 274.678 104.022Z" fill="#131313"/>
<path d="M264.074 106.313C264.238 106.985 279.143 137.275 279.606 137.948L280.113 138.648L285.252 136.606C288.082 135.503 290.418 134.52 290.471 134.433C290.587 134.292 265.066 106.707 264.4 106.271C264.172 106.102 264.031 106.136 264.074 106.313Z" fill="#131313"/>
<path d="M272.766 106.587C274.45 107.674 282.091 112.661 289.731 117.648C297.407 122.626 303.855 126.706 304.067 126.655C304.631 126.517 311.246 121.193 311.15 120.954C311.063 120.751 270.821 104.74 270.205 104.666C269.941 104.655 271.125 105.527 272.766 106.587Z" fill="#131313"/>
<path d="M170.054 138.719L143.866 154.255L144.724 157.154C146.941 164.702 147.636 166.63 148.2 166.342C148.87 166.029 198.328 128.816 198.611 128.448C198.824 128.096 197.023 123.63 196.549 123.371C196.374 123.264 184.472 130.179 170.054 138.719Z" fill="#131313"/>
<path d="M122.487 155.695C111.898 163.862 103.12 170.725 102.987 170.945C102.695 171.429 100.62 189.837 100.848 190.006C101.067 190.14 140.92 153.963 141.31 153.269C141.656 152.697 142.245 141.505 141.965 141.124C141.852 140.965 133.083 147.563 122.487 155.695Z" fill="#131313"/>
<path d="M325.975 100.479C325.757 102.031 325.671 103.362 325.759 103.416C326.321 103.728 388.543 119.838 388.623 119.706C388.791 119.327 389.333 107.023 389.212 106.528C389.134 106.21 378.152 104.511 358.121 101.69C341.115 99.3274 326.984 97.4239 326.772 97.4756C326.526 97.5358 326.185 98.8924 325.975 100.479Z" fill="#131313"/>
<path d="M174.253 149.491C160.505 159.853 149.123 168.439 148.929 168.561C148.646 168.78 156.822 179.778 157.428 179.967C157.718 180.084 203.405 136.152 203.964 135.229C204.203 134.834 203.828 134.214 202.322 132.634C201.254 131.472 200.097 130.556 199.806 130.59C199.516 130.623 188.002 139.129 174.253 149.491Z" fill="#131313"/>
<path d="M96.8018 167.026L86.8196 179.202L82.7635 188.582C80.5571 193.765 78.795 198.016 78.8828 198.069C78.9705 198.123 83.9893 191.766 89.983 183.897L100.952 169.645L103.808 162.693C106.603 155.943 107.075 154.666 106.846 154.797C106.811 154.806 102.253 160.301 96.8018 167.026Z" fill="#131313"/>
<path d="M323.448 108.624C322.204 111.175 321.972 111.906 322.446 112.165C323.007 112.477 380.838 136.139 381.884 136.445C382.411 136.616 387.902 123.477 387.713 122.4C387.653 122.002 379.033 119.576 359.567 114.482C344.126 110.427 330.047 106.75 328.254 106.289L325.02 105.431L323.448 108.624Z" fill="#131313"/>
<path d="M182.551 158.999C169.778 171.37 159.409 181.655 159.496 181.859C159.906 182.62 172.544 191.405 172.897 191.169C173.374 190.828 210.959 142.921 211.872 141.462L212.572 140.354L209.361 138.367C207.606 137.298 206.088 136.433 205.982 136.459C205.885 136.52 195.332 146.663 182.551 158.999Z" fill="#131313"/>
<path d="M121.352 174.436C110.227 184.532 100.975 193.122 100.806 193.5C100.566 194.046 101.09 196.651 102.791 203.614L105.088 213.015L125.544 190.678L146.036 168.331L144.952 164.963C142.619 157.706 142.019 156.017 141.808 156.069C141.667 156.103 132.486 164.376 121.352 174.436Z" fill="#131313"/>
<path d="M318.015 116.955C316.591 118.614 315.422 120.098 315.395 120.292C315.394 120.442 327.695 127.998 342.744 137.018C367.645 151.983 370.155 153.392 370.598 152.76C370.881 152.391 373.325 149.097 376.061 145.47C378.788 141.808 380.985 138.725 380.95 138.583C380.899 138.371 321.557 114.03 320.906 113.964C320.713 113.937 319.44 115.297 318.015 116.955Z" fill="#131313"/>
<path d="M194.887 166.697C183.964 180.676 175.093 192.206 175.136 192.382C175.197 192.63 183.751 196.158 191.12 198.964L193.14 199.744L208.227 172.239C216.516 157.106 223.244 144.601 223.201 144.425C223.166 144.283 221.673 143.674 219.854 143.107C218.071 142.532 216.191 141.868 215.664 141.697C214.768 141.391 213.839 142.48 194.887 166.697Z" fill="#131313"/>
<path d="M309.971 124.837C307.966 126.413 306.235 127.885 306.137 128.096C305.942 128.368 349.238 166.816 351.72 168.569C352.396 169.041 352.961 168.603 360.382 162.146C364.755 158.344 368.395 155.208 368.457 155.155C368.51 155.067 345.11 140.897 322.314 127.215L313.565 121.974L309.971 124.837Z" fill="#131313"/>
<path d="M88.0806 189.868C81.5829 198.271 75.9609 205.674 75.5266 206.342C74.8529 207.406 74.0653 212.13 71.7245 229.143C71.5693 230.342 71.6018 230.933 71.8491 230.723C72.5653 229.986 97.4765 193.939 97.9561 192.998C98.4097 191.951 100.401 174.424 100.049 174.51C99.9077 174.544 94.5345 181.437 88.0806 189.868Z" fill="#131313"/>
<path d="M210.486 172.473C202.259 187.554 195.549 199.979 195.592 200.156C195.661 200.439 217.507 204.577 217.632 204.322C217.65 204.243 221.828 191.237 226.856 175.44C231.955 159.476 235.834 146.619 235.623 146.52C235.228 146.28 226.11 144.874 225.687 144.978C225.582 145.003 218.749 157.384 210.486 172.473Z" fill="#131313"/>
<path d="M298.531 132.576C296.237 133.885 294.357 135.056 294.304 135.144C294.224 135.276 329.165 182.468 329.665 182.833C329.717 182.895 334.393 180.18 340.058 176.774C346.958 172.616 350.242 170.466 350.058 170.174C349.927 169.943 339.544 160.758 326.995 149.741C308.846 133.838 304.017 129.812 303.418 129.959C303.004 130.097 300.79 131.275 298.531 132.576Z" fill="#131313"/>
<path d="M237.727 148.254C233.441 161.435 220.063 203.729 220.079 204.099C220.068 204.514 223.367 204.719 232.306 204.932C239.027 205.088 244.624 205.069 244.73 204.893C244.89 204.63 249.92 148.646 249.865 147.349C249.849 146.828 247.765 146.701 239.344 146.623C238.412 146.626 238.2 146.828 237.727 148.254Z" fill="#131313"/>
<path d="M126.582 192.634C115.491 204.706 106.363 214.876 106.248 215.166C106.007 215.862 117.24 233.416 117.839 233.27C118.051 233.218 126.728 221.661 137.106 207.59C151.513 188.004 155.871 181.846 155.583 181.429C154.631 179.827 147.309 170.642 147.01 170.64C146.825 170.648 137.628 180.535 126.582 192.634Z" fill="#131313"/>
<path d="M286.061 138.544C283.619 139.552 281.459 140.492 281.229 140.623C280.85 140.903 303.122 193.25 303.771 193.616C304.087 193.838 327.088 184.362 327.389 183.914C327.496 183.738 319.679 172.989 309.973 160.004C293.692 138.14 292.292 136.385 291.438 136.556C290.936 136.641 288.503 137.535 286.061 138.544Z" fill="#131313"/>
<path d="M251.852 149.522C251.73 151.012 250.587 164.062 249.305 178.532C248.059 192.994 247.079 204.881 247.167 204.934C247.518 205.148 272.98 201.924 273.175 201.652C273.352 201.309 264.665 145.268 264.402 145.108C264.139 144.947 254.974 146.1 253.423 146.479C252.084 146.806 252.084 146.806 251.852 149.522Z" fill="#131313"/>
<path d="M266.674 144.928C266.608 145.88 275.44 200.987 275.659 201.12C275.966 201.308 297.038 196.01 299.515 195.143L301.542 194.423L290.314 168.178C284.142 153.769 279.033 141.871 278.99 141.695C278.955 141.553 276.172 142.083 272.79 142.91C268.244 144.02 266.693 144.549 266.674 144.928Z" fill="#131313"/>
<path d="M84.7919 215.838C77.3064 226.618 71.1302 235.879 71.1015 236.373C71.0175 237.405 75.1842 260.88 75.4999 261.103C75.6229 261.148 81.8917 250.89 89.4122 238.266L103.114 215.332L102.358 211.322C101.303 205.475 99.0247 195.995 98.7075 196.072C98.5313 196.115 92.3041 205.014 84.7919 215.838Z" fill="#131313"/>
<path d="M139.038 208.466C128.996 222.08 120.459 233.753 120.033 234.457L119.289 235.687L128.869 243.571C134.146 247.9 138.555 251.429 138.731 251.386C139.154 251.283 171.23 194.123 171.224 193.488C171.192 192.896 158.345 183.563 157.693 183.648C157.482 183.699 149.079 194.853 139.038 208.466Z" fill="#131313"/>
<path d="M65.7239 231.02L60.4587 244.928L58.8607 255.505C58.0064 261.332 57.3504 266.136 57.4381 266.189C57.6575 266.323 68.0518 237.493 68.5542 235.422C69.048 233.317 71.3228 217.256 71.1121 217.158C71.0596 217.096 68.6283 223.345 65.7239 231.02Z" fill="#131313"/>
<path d="M157.049 223.504C147.99 239.612 140.774 252.872 140.985 252.971C142.415 253.782 167.273 265.05 167.484 264.998C167.731 264.938 191.972 202.763 192.073 201.952C192.109 201.794 188.184 200.094 183.318 198.211C178.478 196.285 174.307 194.645 174.008 194.493C173.639 194.359 168.45 203.229 157.049 223.504Z" fill="#131313"/>
<path d="M90.2003 241.033C80.0907 257.885 76.1608 264.725 76.414 265.15C76.606 265.477 79.6687 270.983 83.2199 277.419C86.8063 283.846 89.8352 289.061 89.9761 289.027C90.1523 288.984 96.1476 276.995 103.369 262.385L116.472 235.776L112.803 230.081C110.768 226.946 108.182 222.933 107.073 221.144C105.937 219.399 104.845 217.831 104.669 217.724C104.485 217.582 97.9775 228.085 90.2003 241.033Z" fill="#131313"/>
<path d="M362.162 163.322C357.957 167.046 354.369 170.245 354.236 170.464C353.97 170.904 399.427 221.557 399.859 221.339C400.697 220.947 423.015 199.353 422.876 199.088C422.518 198.389 370.773 156.537 370.333 156.57C370.078 156.595 366.412 159.625 362.162 163.322Z" fill="#131313"/>
<path d="M181.882 234.216C175.176 251.547 169.856 265.842 170.04 265.984C170.646 266.323 202.949 273.375 203.02 273.208C203.065 273.085 206.241 258.115 210.048 239.919C213.999 221.09 216.802 206.735 216.583 206.601C216.013 206.254 195.098 202.412 194.569 202.541C194.322 202.601 188.624 216.877 181.882 234.216Z" fill="#131313"/>
<path d="M62.506 258.959C58.7714 269.197 55.7292 278.142 55.6645 278.795C55.5446 279.985 59.4651 307.191 59.7808 307.414C59.8685 307.467 60.0095 307.433 60.0274 307.353C60.1432 307.063 72.7511 267.729 73.2874 265.951C73.6986 264.577 73.538 263.155 71.7209 252.813C70.5717 246.427 69.5851 241.013 69.4455 240.748C69.3146 240.517 66.1968 248.695 62.506 258.959Z" fill="#131313"/>
<path d="M341.451 178.344C335.83 181.777 331.188 184.634 331.135 184.722C330.993 184.906 366.679 242.029 367.091 242.34C367.574 242.634 397.916 223.163 397.689 222.694C397.384 222.056 352.092 171.925 351.89 172.012C351.792 172.073 347.107 174.903 341.451 178.344Z" fill="#131313"/>
<path d="M218.773 208.687C217.408 214.564 205.238 273.115 205.316 273.433C205.359 273.61 205.965 273.799 206.686 273.848C207.399 273.861 215.783 274.247 225.336 274.685C234.855 275.131 242.747 275.338 242.853 275.162C243.066 274.81 244.791 208.811 244.584 207.962C244.497 207.609 244.129 207.324 243.751 207.304C243.372 207.284 237.926 207.154 231.627 207.045C225.354 206.892 219.987 206.78 219.714 206.735C219.442 206.689 219.051 207.533 218.773 208.687Z" fill="#131313"/>
<path d="M316.129 191.009C309.966 193.601 304.835 195.828 304.763 195.995C304.577 196.303 328.631 259.001 329.026 259.242C329.245 259.376 364.777 244.029 364.99 243.677C365.158 243.449 330.522 187.718 329.419 186.414C329.157 186.104 328.594 185.942 328.145 186.089C327.687 186.201 322.291 188.418 316.129 191.009Z" fill="#131313"/>
<path d="M104.67 264.501C97.4306 279.191 91.5575 291.374 91.6093 291.586C91.7216 292.046 114.613 313.456 115.036 313.503C115.414 313.523 137.706 254.221 137.524 253.629C137.315 253.081 118.531 237.633 118.144 237.728C117.967 237.771 111.91 249.812 104.67 264.501Z" fill="#131313"/>
<path d="M246.836 208.161C246.655 211.089 245.197 274.515 245.301 274.939C245.37 275.221 245.536 275.443 245.677 275.409C245.853 275.365 254.534 274.368 265.045 273.224C275.557 272.079 284.369 271.012 284.678 270.9C285.11 270.682 284.308 265.41 279.528 237.44C276.376 219.184 273.753 204.17 273.63 204.125C273.411 203.991 249.218 206.905 247.879 207.233C247.244 207.388 246.873 207.703 246.836 208.161Z" fill="#131313"/>
<path d="M282.88 201.791L275.919 203.716L276.038 204.661C276.43 207.486 287.337 270.475 287.424 270.528C287.635 270.627 326.549 260.259 326.691 260.074C326.77 259.943 321.399 245.75 314.766 228.532C308.124 211.279 302.665 197.032 302.665 196.882C302.596 196.6 294.853 198.529 282.88 201.791Z" fill="#131313"/>
<path d="M68.1456 288.929C64.3421 300.719 61.0828 310.916 60.9211 311.629C60.5984 312.907 60.7811 313.349 67.9123 327.561C71.9311 335.605 75.3233 342.155 75.429 342.129C75.7462 342.051 88.7168 292.892 88.6678 292.08C88.6267 291.453 76.1851 268.801 75.4062 267.905C75.1962 267.656 72.2797 276.047 68.1456 288.929Z" fill="#131313"/>
<path d="M138.133 258.873C133.278 271.557 117.213 314.469 117.158 314.857C117.112 315.28 150.448 333.128 150.581 332.758C151.195 331.298 166.706 267.773 166.549 267.436C166.348 267.074 142.037 255.597 140.183 255.039C139.858 254.931 139.113 256.312 138.133 258.873Z" fill="#131313"/>
<path d="M54.5329 294.801C54.4261 296.962 54.0975 303.259 53.8163 308.833L53.294 318.923L54.9783 331.32C55.8967 338.137 56.7151 343.779 56.8028 343.833C57.0135 343.931 58.2805 313.81 58.1386 312.159C57.9557 309.882 55.1222 291.099 54.9467 290.992C54.8589 290.939 54.6837 292.667 54.5329 294.801Z" fill="#131313"/>
<path d="M160.726 300.918C156.199 318.914 152.593 333.653 152.68 333.706C153.514 334.214 194.38 344.829 194.548 344.601C194.779 344.17 202.574 276.575 202.436 276.01C202.341 275.621 169.952 267.916 169.177 268.105C169.036 268.14 165.219 282.929 160.726 300.918Z" fill="#131313"/>
<path d="M83.9765 318.731C80.3847 332.304 77.3478 343.87 77.2133 344.39C77.0157 345.262 78.2499 346.646 90.0013 358.831C97.1906 366.25 103.119 372.329 103.26 372.295C103.515 372.27 114.395 316.843 114.248 316.242C114.136 315.782 92.2436 295.101 91.0943 294.371C90.6556 294.104 89.1267 299.308 83.9765 318.731Z" fill="#131313"/>
<path d="M204.586 277.02C203.626 284.858 196.891 343.954 196.897 344.589C196.929 345.33 197.254 345.438 199.488 345.567C200.851 345.646 211.644 346.417 223.466 347.274C235.288 348.131 244.964 348.764 245.009 348.641C245.302 348.007 242.937 277.951 242.594 277.772C242.287 277.585 210.416 275.97 205.427 275.878C204.943 275.884 204.687 276.209 204.586 277.02Z" fill="#131313"/>
<path d="M60.1127 319.018C60.1265 319.838 59.7421 328.658 59.291 338.581L58.5029 356.601L65.699 371.996C69.6718 380.463 73.0526 387.577 73.254 387.79C73.6654 388.251 74.7893 347.304 74.4181 345.784C74.1072 344.512 60.9705 318.097 60.4793 317.767C60.2952 317.625 60.1342 318.188 60.1127 319.018Z" fill="#131313"/>
<path d="M347.908 253.542C337.275 258.162 330.027 261.506 329.982 261.779C329.944 262.238 352.275 326.593 352.98 328.106C353.207 328.575 353.646 328.842 353.998 328.756C354.35 328.67 364.693 324.084 376.967 318.539C395.167 310.347 399.276 308.37 399.164 307.91C398.862 306.673 366.458 245.715 366.124 245.722C365.939 245.73 357.731 249.27 347.908 253.542Z" fill="#131313"/>
<path d="M245.126 278.352C245.177 282.534 247.217 348.663 247.314 348.751C247.516 348.814 298.345 343.813 298.46 343.672C298.601 343.488 285.695 273.385 285.511 273.243C285.388 273.198 276.831 274.09 266.469 275.235C256.099 276.346 247.075 277.314 246.38 277.371C245.315 277.444 245.13 277.602 245.126 278.352Z" fill="#131313"/>
<path d="M305.889 267.852C296.066 270.439 287.968 272.754 287.906 272.957C287.736 273.485 300.566 342.97 300.829 343.131C301.18 343.344 350.851 330.087 351.037 329.779C351.197 329.515 329.501 266.84 328.101 263.4L327.552 262.073L325.632 262.617C324.618 262.902 315.712 265.265 305.889 267.852Z" fill="#131313"/>
<path d="M110.748 345.934L105.231 374.247L113.602 379.168C139.891 394.618 143.007 396.366 143.15 395.882C143.553 394.323 149.978 335.639 149.769 335.241C149.533 334.736 117.005 317.44 116.547 317.552C116.406 317.587 113.812 330.355 110.748 345.934Z" fill="#131313"/>
<path d="M76.6756 348.603C76.7102 348.745 76.4525 358.695 76.1412 370.718C75.8212 382.706 75.7477 392.798 75.9663 393.082C77.0675 394.686 102.919 423.013 103.043 422.758C103.256 422.407 103.057 376.352 102.85 375.504C102.764 375.15 97.1079 369.116 90.2689 362.061C79.0166 350.391 76.503 347.896 76.6756 348.603Z" fill="#131313"/>
<path d="M148.729 365.982C146.857 382.468 145.349 396.319 145.383 396.761C145.45 397.493 148.463 398.518 169.243 404.864C182.352 408.852 193.072 412.076 193.125 411.988C193.232 411.812 194.481 347.839 194.377 347.415C194.308 347.132 152.821 335.807 152.292 335.936C152.187 335.962 150.601 349.495 148.729 365.982Z" fill="#131313"/>
<path d="M64.5711 379.911C67.9419 392.945 68.585 394.66 74.9797 408.303L80.1984 419.425L76.819 406.356L73.4131 393.331L67.8369 381.51C64.7877 374.989 62.2082 369.627 62.0766 369.547C61.9537 369.502 63.0847 374.132 64.5711 379.911Z" fill="#131313"/>
<path d="M196.68 347.825C196.475 348.512 195.287 412.433 195.498 412.531C195.77 412.727 249.939 417.883 250.362 417.78C250.855 417.659 251.022 419.566 247.961 383.648C246.401 365.341 245.05 351.252 244.831 351.118C244.611 350.984 233.916 350.152 221.1 349.2C208.258 348.293 197.544 347.539 197.271 347.494C197.043 347.475 196.743 347.623 196.68 347.825Z" fill="#131313"/>
<path d="M105.162 377.635C105.108 378.023 105.127 388.954 105.199 401.933L105.282 425.507L109.116 427.904C111.23 429.222 120.109 434.843 128.855 440.384C137.602 445.925 144.875 450.478 145.025 450.479C145.148 450.524 144.752 439.123 144.14 425.153C143.493 411.192 143.01 399.587 143.02 399.322C143.075 398.934 105.853 376.793 105.395 376.905C105.289 376.93 105.182 377.256 105.162 377.635Z" fill="#131313"/>
<path d="M376.86 320.85C364.559 326.439 354.4 331.168 354.294 331.344C354.116 331.687 374.117 395.675 374.433 395.897C374.643 395.995 426.9 371.619 427.068 371.391C427.113 371.268 408.918 329.497 401.936 313.6C400.769 310.964 400.358 310.353 399.873 310.509C399.565 310.622 389.204 315.287 376.86 320.85Z" fill="#131313"/>
<path d="M247.397 351.54C247.317 353.657 252.958 417.558 253.221 417.718C253.484 417.878 306.792 413.395 311.106 412.865L312.083 412.739L305.569 379.5C302.003 361.233 298.967 346.208 298.791 346.101C298.616 345.994 287.472 346.993 273.977 348.305C260.525 349.644 249.029 350.729 248.439 350.761C247.665 350.801 247.409 350.975 247.397 351.54Z" fill="#131313"/>
<path d="M78.3286 403.366C79.1315 406.653 81.1633 414.359 82.8238 420.545L85.842 431.829L89.0188 435.51C95.8098 443.439 111.836 461.658 112.239 461.934C112.643 462.21 108.478 445.775 104.688 432.094L103.105 426.376L90.4291 412.395C83.4698 404.695 77.552 398.2 77.2981 397.925C77.0442 397.65 77.4213 399.805 78.3286 403.366Z" fill="#131313"/>
<path d="M320.544 340.225C309.998 343.063 301.32 345.445 301.24 345.577C301.08 345.841 314.031 412.151 314.285 412.276C314.469 412.418 372.096 397.029 372.229 396.81C372.291 396.757 367.852 382.411 362.399 364.98C356.902 347.522 352.377 332.973 352.291 332.619C352.101 331.842 351.326 332.031 320.544 340.225Z" fill="#131313"/>
<path d="M145.163 400.296C145.107 400.984 147.351 449.91 147.495 451.111C147.579 451.914 150.214 452.918 172.801 460.546C189.572 466.224 198.068 468.905 198.14 468.588C198.301 467.874 193.315 414.45 193.061 414.325C192.762 414.173 145.913 399.851 145.561 399.787C145.368 399.76 145.199 399.988 145.163 400.296Z" fill="#131313"/>
<path d="M110.138 444.771C112.472 453.713 114.737 462.223 115.197 463.646L116.064 466.281L135.547 479.236L155.064 492.183L152.519 481.307C151.13 475.317 148.919 466.569 147.612 461.832L145.259 453.269L129.485 443.265C120.826 437.778 111.991 432.183 109.842 430.873L105.937 428.494L110.138 444.771Z" fill="#131313"/>
<path d="M197.929 441.899C199.33 456.65 200.504 468.947 200.617 469.256C200.712 469.645 209.321 470.8 229.917 473.184C245.932 475.002 259.115 476.388 259.23 476.248C259.434 475.861 251.176 420.352 250.869 420.165C250.527 419.986 196.393 414.822 195.873 414.986C195.556 415.064 196.196 423.184 197.929 441.899Z" fill="#131313"/>
<path d="M96.3614 447.835C96.5887 448.154 98.6249 451.14 100.827 454.497C103.894 459.104 106.998 463.101 113.667 470.835C118.48 476.476 122.655 481.186 122.883 481.355C123.331 481.657 117.6 472.721 114.803 468.76C113.081 466.297 96.4793 447.095 96.1621 447.173C96.0564 447.198 96.1694 447.508 96.3614 447.835Z" fill="#131313"/>
<path d="M253.373 421.089C253.403 422.28 261.535 476.509 261.702 476.581C262 476.733 324.074 471.755 324.207 471.536C324.358 471.236 312.645 415.186 312.381 415.026C312.206 414.919 254.575 419.897 253.765 420.095C253.554 420.146 253.367 420.604 253.373 421.089Z" fill="#131313"/>
<path d="M341.445 407.289C326.934 411.171 314.979 414.503 314.872 414.679C314.686 414.987 326.346 471.125 326.61 471.285C326.943 471.429 387.875 454.896 388.026 454.597C388.097 454.429 384.768 441.872 380.606 426.672L373.028 399.011L370.412 399.613C368.994 399.922 355.946 403.372 341.445 407.289Z" fill="#131313"/>
<path d="M150.503 464.496C151.868 469.93 154.158 478.846 155.629 484.254L158.258 494.098L183.355 503.135C197.119 508.125 208.486 512.164 208.557 512.147C208.663 512.121 206.514 503.021 203.803 491.923C199.97 476.231 198.75 471.697 198.32 471.465C197.565 471.126 148.359 454.495 148.183 454.539C148.077 454.564 149.13 459.026 150.503 464.496Z" fill="#131313"/>
<path d="M119.191 471.284C119.242 471.496 131.01 489.557 133.815 493.703C134.182 494.287 141.821 499.724 150.741 505.822C159.661 511.92 167.766 517.43 168.713 518.098C169.695 518.757 170.424 519.14 170.407 518.92C170.278 518.39 157.145 496.73 156.419 495.896C155.85 495.248 119.562 470.968 119.245 471.046C119.174 471.063 119.165 471.178 119.191 471.284Z" fill="#131313"/>
<path d="M205.403 490.221C207.839 500.038 210.198 509.237 210.676 510.581L211.509 513.074L240.282 516.831C256.093 518.886 269.222 520.51 269.469 520.449C269.856 520.355 268.882 516.061 264.771 499.538L259.571 478.711L230.937 475.37C215.178 473.527 201.986 472.106 201.634 472.192C201.026 472.303 201.25 473.372 205.403 490.221Z" fill="#131313"/>
<path d="M160.081 497.436C160.184 497.86 174.679 521.734 175.187 522.284C175.651 522.807 222.178 540.092 222.329 539.793C222.383 539.705 219.549 534.067 216.017 527.253L209.599 514.888L185.311 506.103C171.959 501.275 160.794 497.299 160.521 497.253C160.214 497.216 160.046 497.294 160.081 497.436Z" fill="#131313"/>
<path d="M266.229 496.186C268.445 505.869 270.689 515.358 271.234 517.285L272.203 520.793L303.256 518.6C320.288 517.398 334.346 516.248 334.417 516.081C334.523 515.905 332.412 506.347 329.747 494.826L324.9 473.913L324.011 473.943C323.518 473.914 309.778 474.986 293.476 476.272C277.21 477.549 263.496 478.577 263.021 478.618L262.194 478.596L266.229 496.186Z" fill="#131313"/>
<path d="M356.906 465.382C340.616 469.774 327.216 473.459 327.163 473.547C327.012 473.846 336.575 515.591 336.838 515.751C337.321 516.045 397.856 499.572 397.902 499.149C397.975 498.531 388.955 457.328 388.692 457.018C388.552 456.902 388.033 456.917 387.478 457.09C386.923 457.263 373.161 460.999 356.906 465.382Z" fill="#131313"/>
<path d="M212.716 516.336C219.744 529.974 225.519 540.773 225.826 540.96C226.572 541.415 280.599 548.74 280.636 548.432C280.726 547.885 270.652 523.156 270.275 522.986C269.88 522.745 213.143 515.333 212.65 515.453C212.474 515.496 212.498 515.902 212.716 516.336Z" fill="#131313"/>
<path d="M184.922 529.119C185.79 529.768 188.86 531.939 191.807 533.916L197.14 537.557L216.262 544.758C226.793 548.739 235.322 551.861 235.209 551.702C235.095 551.542 232.702 549.543 229.871 547.276L224.76 543.169L205.391 536.028C194.754 532.072 185.443 528.654 184.705 528.385L183.397 527.918L184.922 529.119Z" fill="#131313"/>
<path d="M272.984 523.224C273.174 524.002 283.212 548.739 283.397 548.882C283.572 548.989 342.007 545.163 342.122 545.022C342.263 544.838 335.336 518.928 335.056 518.697C334.907 518.546 321.044 519.423 304.312 520.627C287.579 521.831 273.664 522.796 273.391 522.75C273.083 522.713 272.915 522.941 272.984 523.224Z" fill="#131313"/>
<path d="M367.028 510.024C353.372 513.734 341.082 517.074 339.716 517.445L337.214 518.056L340.664 531.108C342.522 538.257 344.246 544.24 344.43 544.382C344.781 544.596 396.477 530.919 400.223 529.592L402.047 528.959L400.365 516.112C399.457 509.03 398.623 502.867 398.476 502.416C398.234 501.427 401.652 500.592 367.028 510.024Z" fill="#131313"/>
<path d="M229.147 544.007C229.252 544.131 232.232 546.549 235.765 549.394L242.199 554.488L266.381 557.944C279.693 559.86 290.659 561.339 290.703 561.215C290.757 561.127 288.805 558.795 286.381 556.054L281.952 551.069L255.581 547.362C241.054 545.368 229.148 543.707 229.078 543.724C229.007 543.742 229.033 543.848 229.147 544.007Z" fill="#131313"/>
<path d="M285.199 551.062C285.013 551.37 293.09 560.745 294.012 561.306C294.582 561.654 301.816 561.309 320.529 560.109C334.717 559.19 346.38 558.325 346.486 558.15C346.672 557.842 343.087 547.445 342.745 547.266C342.657 547.213 329.895 548.009 314.395 549.061C298.93 550.105 286.027 550.935 285.798 550.916C285.525 550.87 285.252 550.974 285.199 551.062Z" fill="#131313"/>
<path d="M369.906 539.994C356.391 543.67 345.273 546.761 345.193 546.893C345.068 547.148 348.829 557.802 349.136 557.989C349.399 558.15 355.989 556.39 378.957 550.142C394.216 545.965 400.384 544.159 400.588 543.772C400.775 543.464 401.147 540.864 401.416 537.989C401.685 535.115 401.926 532.434 401.981 532.047C402.108 531.192 403.861 530.726 369.906 539.994Z" fill="#131313"/>
<path d="M170.212 389.209L196.687 342.208C208.096 321.952 193.46 296.91 170.212 296.91C146.965 296.91 132.328 321.952 143.737 342.208L170.212 389.209Z" fill="#FF5000"/>
<ellipse cx="169.903" cy="329.486" rx="12.6686" ry="12.6686" fill="white"/>
<path d="M119.25 186.954L127.861 171.666C131.572 165.078 126.812 156.932 119.25 156.932C111.688 156.932 106.928 165.078 110.639 171.666L119.25 186.954Z" fill="#FF5000"/>
<ellipse cx="119.149" cy="167.528" rx="4.12061" ry="4.12061" fill="white"/>
<path d="M319.826 312.207L335.269 284.789C341.925 272.973 333.387 258.365 319.826 258.365C306.265 258.365 297.727 272.973 304.382 284.789L319.826 312.207Z" fill="#FF5000"/>
<ellipse cx="319.645" cy="277.368" rx="7.39002" ry="7.39002" fill="white"/>
</g>
<defs>
<clipPath id="clip0_22:454">
<rect width="507.739" height="507.739" fill="white" transform="translate(0.819092 120.494) rotate(-13.728)"/>
</clipPath>
</defs>
</svg>
