<svg width="68" height="25" viewBox="0 0 68 25" fill="none" xmlns="http://www.w3.org/2000/svg">
<path fill-rule="evenodd" clip-rule="evenodd" d="M23.5473 1.56901C23.5473 1.18542 23.2379 0.873962 22.8568 0.873962H1.22031C0.839219 0.873962 0.529785 1.18542 0.529785 1.56901V23.3472C0.529785 23.7308 0.839219 24.0423 1.22031 24.0423H22.8568C23.2379 24.0423 23.5473 23.7308 23.5473 23.3472V1.56901Z" fill="#7E4DD2"/>
<path fill-rule="evenodd" clip-rule="evenodd" d="M23.5473 1.56901C23.5473 1.18542 23.2379 0.873962 22.8568 0.873962H9.96698L0.529785 17.3267V23.3472C0.529785 23.7308 0.839219 24.0423 1.22031 24.0423H22.8568C23.2379 24.0423 23.5473 23.7308 23.5473 23.3472V1.56901Z" fill="#7140C2"/>
<path d="M23.8409 24.3363L15.3788 24.3382L10.4896 15.8146H23.8534C23.8501 18.6537 23.8441 21.4973 23.8409 24.3363ZM15.0302 24.3379H1.68443L8.36112 12.711L15.0302 24.3379ZM1.34332 24.3379H0.241026L0.237305 18.2458L5.36868 9.29713H9.97218C7.09659 14.3103 4.21891 19.3248 1.34332 24.338V24.3379ZM13.0413 9.29847C13.4839 9.30403 13.9061 9.54834 14.1333 9.93306C14.4859 10.5419 14.8335 11.1535 15.1836 11.7638C15.3962 12.1388 15.4121 12.6207 15.2038 13.0134C15.1988 13.0228 15.1937 13.0322 15.1883 13.0416C14.8411 13.6535 14.4884 14.2621 14.1383 14.8723C13.9206 15.2487 13.5081 15.4969 13.0733 15.5115C13.0627 15.5119 13.0415 15.5115 13.0415 15.5115H11.0558C10.6217 15.5096 10.2009 15.2805 9.97101 14.9087C9.96522 14.8996 9.95974 14.8904 9.95422 14.8811C9.60178 14.2723 9.25423 13.6606 8.90413 13.0504C8.68937 12.6721 8.679 12.1868 8.88366 11.8007C8.88871 11.7913 8.89403 11.7819 8.89908 11.7725C9.24641 11.1607 9.59928 10.552 9.94911 9.94178C10.1666 9.56632 10.5796 9.31372 11.0141 9.29916C11.025 9.29879 11.0356 9.29863 11.0461 9.29847C11.7114 9.29563 12.3763 9.29563 13.0413 9.29847ZM23.8503 0.570435V15.5115H14.1201L22.6903 0.570435H23.8503ZM15.7265 12.1034L9.74355 1.67267L10.3759 0.570435H22.3418L15.7265 12.1034ZM13.5974 8.9961L5.54357 8.99482L9.56935 1.97626C10.9113 4.31578 12.2554 6.65664 13.5974 8.9961Z" fill="#58328A"/>
<path fill-rule="evenodd" clip-rule="evenodd" d="M1.16622 24.0423H0.533238L0.529785 18.3299L5.5361 9.60195H9.44908L1.16622 24.0423ZM23.5476 16.1187V24.0423L15.5453 24.0423L11.0005 16.1187H23.5476ZM14.5095 24.0423H2.1951L8.35575 13.3139L14.5095 24.0423ZM23.5476 15.2152H14.6308L22.8568 0.873962H23.5473L23.5476 15.2152ZM13.0276 9.58564C13.3685 9.58708 13.6947 9.78874 13.871 10.0876C13.8728 10.0906 13.8763 10.0967 13.8763 10.0967L14.9109 11.9007C14.9109 11.9007 14.9169 11.9108 14.9197 11.9156C15.0888 12.2134 15.0953 12.5886 14.9263 12.8919C14.5795 13.5027 14.2273 14.1106 13.8779 14.7199C13.7062 15.0162 13.3812 15.2096 13.0359 15.2139C12.3769 15.2167 11.0557 15.2152 11.0539 15.2152C10.713 15.2137 10.3815 15.0307 10.2052 14.7318C10.2013 14.7253 10.1937 14.7121 10.1937 14.7121C10.1937 14.7121 9.15883 12.908 9.15653 12.9038C8.98735 12.606 8.98758 12.2213 9.15653 11.9181L9.16413 11.9047C9.16413 11.9047 9.85672 10.6949 10.2036 10.09C10.3753 9.79367 10.7008 9.58979 11.046 9.58543C11.0518 9.58541 11.0633 9.58516 11.0633 9.58516L13.0159 9.58564H13.0276ZM10.5424 0.873962H21.821L15.7214 11.5081L10.0821 1.67654L10.5424 0.873962ZM13.0743 8.69906H6.054L9.56417 2.57943L13.0743 8.69906Z" fill="url(#paint0_radial)"/>
<path fill-rule="evenodd" clip-rule="evenodd" d="M0.621474 25L0 24.9801L0.00736719 19.2488L5.54239 9.59886H9.45538L0.621474 25ZM15.0337 24.9421L1.72517 24.8686L8.36204 13.3108L15.0337 24.9421ZM24.0437 24.9076L16.0184 24.8529L11.0068 16.1156H24.074L24.0437 24.9076ZM5.70191 9.87688L0.283347 19.3235L0.276441 24.7109L0.464956 24.7169L8.97707 9.87688H5.70191ZM2.20232 24.5934L14.5538 24.6615L8.36204 13.8666L2.20232 24.5934ZM11.4851 16.3937L16.1786 24.576L23.7684 24.6277L23.7967 16.3937H11.4851ZM13.0222 9.58255H13.0339L13.0381 9.58258L13.042 9.58262L13.0459 9.58269L13.05 9.58276L13.0579 9.58299L13.0618 9.58313L13.0659 9.58327L13.0737 9.58364L13.0779 9.58385L13.0818 9.58406L13.0896 9.58457L13.0938 9.58485L13.0977 9.58515L13.1055 9.5858L13.1096 9.58614L13.1175 9.58689L13.1253 9.58772L13.1294 9.58816L13.1334 9.5886L13.1412 9.58957L13.149 9.59059L13.1568 9.59171L13.1607 9.59228L13.1686 9.59349L13.1764 9.59476L13.1842 9.59608L13.192 9.5975L13.1999 9.59898L13.2077 9.60051L13.2155 9.60213L13.2231 9.6038L13.2309 9.60554L13.2388 9.60734L13.2464 9.60922L13.2542 9.61117L13.2618 9.61316L13.2694 9.61524L13.277 9.61738L13.2848 9.61955L13.2924 9.62182L13.3 9.62414L13.3076 9.62653L13.315 9.62898L13.3226 9.63151L13.3301 9.63408L13.3375 9.63672L13.3451 9.63941L13.3525 9.64217L13.3598 9.64499L13.3674 9.64789L13.3748 9.65083L13.3822 9.65384L13.3895 9.6569L13.3967 9.66003L13.404 9.6632L13.4114 9.66645L13.4185 9.66976L13.4259 9.67312L13.433 9.67652L13.4402 9.68L13.4473 9.68354L13.4544 9.68714L13.4616 9.69077L13.4687 9.69448L13.4756 9.69826L13.4828 9.70208L13.4897 9.70595L13.4966 9.70986L13.5035 9.71385L13.5104 9.7179L13.5173 9.722L13.5242 9.72615L13.5309 9.73034L13.5378 9.73461L13.5444 9.73892L13.5511 9.74327L13.5578 9.7477L13.5645 9.75217L13.5711 9.75669L13.5776 9.76127L13.5843 9.76588L13.5907 9.77056L13.5972 9.77531L13.6036 9.78009L13.61 9.78491L13.6165 9.78979L13.6227 9.79473L13.6291 9.79971L13.6354 9.80474L13.6416 9.80981L13.6478 9.81495L13.654 9.82012L13.66 9.82536L13.6662 9.83062L13.6722 9.83595L13.6782 9.84132L13.6842 9.84672L13.6901 9.85219L13.6959 9.8577L13.7019 9.86326L13.7076 9.86884L13.7134 9.8745L13.7191 9.8802L13.7247 9.88592L13.7304 9.89171L13.7359 9.89755L13.7415 9.90341L13.747 9.90932L13.7523 9.91527L13.7578 9.92127L13.7631 9.92732L13.7684 9.93341L13.7737 9.93953L13.779 9.94572L13.7843 9.95193L13.7894 9.95818L13.7944 9.96448L13.7995 9.97081L13.8043 9.97718L13.8094 9.9836L13.8142 9.99006L13.819 9.99655L13.8287 10.0097L13.8333 10.0163L13.8379 10.0229L13.8425 10.0296L13.8471 10.0364L13.8515 10.0431L13.8559 10.0499L13.8602 10.0568L13.8646 10.0636L13.869 10.0706L13.8731 10.0775L13.8773 10.0845L13.8826 10.0936L14.9172 11.8976L14.926 11.9125L14.9299 11.9195L14.9338 11.9266L14.9375 11.9336L14.9411 11.9407L14.9451 11.9478L14.9485 11.9549L14.9522 11.9621L14.9556 11.9693L14.9591 11.9765L14.9626 11.9837L14.9658 11.9909L14.9692 11.9982L14.9725 12.0055L14.9754 12.0128L14.9787 12.0202L14.9817 12.0276L14.9846 12.0349L14.9876 12.0424L14.9932 12.0572L14.9987 12.0722L15.0012 12.0797L15.0038 12.0872L15.0088 12.1023L15.0111 12.1099L15.0134 12.1175L15.0157 12.1251L15.0178 12.1328L15.0201 12.1404L15.0222 12.1481L15.024 12.1557L15.0261 12.1634L15.0316 12.1866L15.0332 12.1943L15.0348 12.2021L15.0364 12.2098L15.0381 12.2176L15.0394 12.2254L15.0422 12.241L15.0433 12.2488L15.0447 12.2567L15.0459 12.2645L15.0468 12.2723L15.0479 12.2802L15.0489 12.2881L15.0498 12.2959L15.0507 12.3038L15.0514 12.3117L15.0521 12.3196L15.0528 12.3274L15.0535 12.3353L15.0549 12.359L15.0553 12.367L15.0555 12.3749L15.056 12.3907V12.4224L15.0558 12.4303V12.4382L15.0553 12.4461L15.0551 12.4541L15.0546 12.462L15.0542 12.4699L15.0532 12.4857L15.0512 12.5094L15.0503 12.5173L15.0484 12.533L15.0475 12.5409L15.0463 12.5488L15.044 12.5645L15.0427 12.5723L15.0415 12.5801L15.0401 12.588L15.0385 12.5958L15.0371 12.6036L15.0355 12.6114L15.0339 12.6192L15.0321 12.6269L15.0305 12.6347L15.0286 12.6425L15.0268 12.6502L15.0226 12.6656L15.0185 12.681L15.0162 12.6887L15.0141 12.6963L15.0116 12.704L15.0093 12.7116L15.0042 12.7268L15.0017 12.7344L14.9992 12.7419L14.9964 12.7495L14.9936 12.757L14.9906 12.7645L14.9879 12.772L14.9849 12.7794L14.9819 12.7869L14.9787 12.7943L14.9757 12.8017L14.9722 12.8091L14.969 12.8165L14.9658 12.8238L14.9623 12.8311L14.9589 12.8384L14.9552 12.8457L14.9517 12.8529L14.9481 12.8601L14.9441 12.8673L14.9405 12.8745L14.9326 12.8888L14.9002 12.946L14.8675 13.0032L14.835 13.0605L14.8024 13.1177L14.7043 13.2892L14.6389 13.4035L14.6062 13.4607L14.5406 13.5749L14.475 13.6891L14.4094 13.8033L14.3436 13.9175L14.278 14.0317L14.1466 14.26L14.081 14.3742L13.9498 14.6026L13.8842 14.7168L13.88 14.7237L13.8759 14.7306L13.8718 14.7375L13.8676 14.7443L13.8635 14.7511L13.8591 14.7578L13.8547 14.7645L13.8501 14.7711L13.8457 14.7778L13.8411 14.7844L13.8365 14.7909L13.8319 14.7974L13.8273 14.8038L13.8225 14.8103L13.8177 14.8166L13.8128 14.8229L13.808 14.8292L13.8029 14.8355L13.7981 14.8417L13.793 14.8479L13.788 14.854L13.7827 14.86L13.7776 14.8661L13.7723 14.8721L13.767 14.878L13.7617 14.8839L13.7564 14.8898L13.7509 14.8956L13.7454 14.9014L13.7399 14.9071L13.7343 14.9128L13.7288 14.9184L13.7231 14.924L13.7173 14.9295L13.7118 14.935L13.7058 14.9405L13.7 14.9459L13.6943 14.9513L13.6883 14.9566L13.6823 14.9618L13.6763 14.9671L13.6703 14.9722L13.6644 14.9773L13.6581 14.9824L13.6522 14.9874L13.646 14.9924L13.6397 14.9973L13.6333 15.0022L13.6271 15.007L13.6206 15.0118L13.6144 15.0165L13.608 15.0212L13.6015 15.0259L13.5951 15.0304L13.5886 15.0349L13.582 15.0394L13.5753 15.0438L13.5688 15.0482L13.5622 15.0525L13.5555 15.0568L13.5486 15.061L13.5419 15.0652L13.5352 15.0693L13.5283 15.0733L13.5214 15.0773L13.5145 15.0813L13.5076 15.0852L13.5007 15.089L13.4938 15.0928L13.4867 15.0965L13.4798 15.1002L13.4726 15.1038L13.4655 15.1074L13.4584 15.1109L13.4512 15.1143L13.4441 15.1177L13.437 15.1211L13.4296 15.1244L13.4224 15.1276L13.4151 15.1308L13.4077 15.1339L13.4004 15.1369L13.393 15.1399L13.3856 15.1429L13.3783 15.1457L13.3709 15.1486L13.3635 15.1513L13.3559 15.154L13.3483 15.1567L13.341 15.1593L13.3334 15.1618L13.3258 15.1642L13.3182 15.1667L13.3106 15.169L13.303 15.1713L13.2954 15.1735L13.2876 15.1757L13.28 15.1777L13.2721 15.1798L13.2645 15.1818L13.2567 15.1837L13.2489 15.1855L13.2413 15.1873L13.2335 15.189L13.2257 15.1907L13.2178 15.1923L13.21 15.1938L13.2022 15.1953L13.1941 15.1967L13.1863 15.198L13.1785 15.1993L13.1704 15.2005L13.1626 15.2017L13.1545 15.2027L13.1467 15.2038L13.1386 15.2047L13.1306 15.2056L13.1228 15.2064L13.1147 15.2071L13.1066 15.2078L13.0986 15.2084L13.0905 15.209L13.0825 15.2095L13.0744 15.2099L13.0664 15.2102L13.0583 15.2105L13.0503 15.2107L13.0422 15.2108L12.9784 15.2111L12.9112 15.2113L12.841 15.2115L12.7678 15.2117L12.6923 15.2119L12.6148 15.212L12.5354 15.2121L12.4548 15.2122L12.2909 15.2124L12.1259 15.2125L11.9629 15.2125H11.8048L11.6542 15.2125L11.5143 15.2124L11.3879 15.2124L11.2779 15.2123L11.1189 15.2122L11.0602 15.2121L11.0521 15.212L11.0443 15.2119L11.0362 15.2117L11.0282 15.2114L11.0203 15.2111L11.0123 15.2107L11.0045 15.2102L10.9964 15.2097L10.9886 15.2091L10.9805 15.2084L10.9727 15.2077L10.9646 15.2069L10.9568 15.2061L10.949 15.2052L10.9409 15.2042L10.9331 15.2032L10.9253 15.2021L10.9175 15.2009L10.9094 15.1997L10.9016 15.1984L10.8937 15.197L10.8859 15.1956L10.8783 15.1941L10.8705 15.1926L10.8627 15.191L10.8548 15.1893L10.847 15.1875L10.8394 15.1858L10.8316 15.1839L10.824 15.182L10.8162 15.18L10.8086 15.178L10.801 15.1759L10.7934 15.1737L10.7858 15.1715L10.778 15.1692L10.7704 15.1669L10.763 15.1645L10.7554 15.1621L10.7478 15.1595L10.7404 15.157L10.7328 15.1543L10.7253 15.1516L10.7179 15.1489L10.7105 15.1461L10.7032 15.1432L10.6958 15.1403L10.6884 15.1373L10.6811 15.1343L10.6737 15.1312L10.6666 15.128L10.6592 15.1248L10.6521 15.1216L10.6447 15.1182L10.6376 15.1149L10.6304 15.1114L10.6233 15.1079L10.6162 15.1044L10.609 15.1008L10.6021 15.0971L10.595 15.0934L10.5881 15.0896L10.5812 15.0858L10.5743 15.0819L10.5674 15.078L10.5604 15.074L10.5535 15.07L10.5466 15.0659L10.54 15.0617L10.5333 15.0576L10.5264 15.0533L10.5197 15.049L10.5133 15.0446L10.5066 15.0402L10.4999 15.0357L10.4935 15.0312L10.487 15.0266L10.4803 15.022L10.4741 15.0174L10.4677 15.0126L10.4612 15.0079L10.455 15.003L10.4486 14.9981L10.4424 14.9932L10.4362 14.9882L10.4299 14.9832L10.424 14.9781L10.4177 14.973L10.4118 14.9678L10.4058 14.9626L10.3998 14.9573L10.3938 14.9519L10.3878 14.9466L10.3821 14.9412L10.3763 14.9357L10.3706 14.9301L10.3648 14.9246L10.359 14.9189L10.3535 14.9133L10.348 14.9076L10.3425 14.9018L10.3369 14.896L10.3314 14.8901L10.3261 14.8842L10.3206 14.8783L10.3153 14.8723L10.31 14.8662L10.305 14.8601L10.2997 14.8539L10.2946 14.8478L10.2895 14.8415L10.2845 14.8353L10.2796 14.8289L10.2746 14.8226L10.2697 14.8161L10.2649 14.8097L10.2603 14.8032L10.2555 14.7966L10.2509 14.79L10.2463 14.7834L10.2417 14.7767L10.2394 14.7734L10.2373 14.77L10.235 14.7666L10.2327 14.7632L10.2306 14.7598L10.2283 14.7564L10.2262 14.753L10.2239 14.7496L10.2219 14.7461L10.2198 14.7427L10.2156 14.7357L10.2133 14.7322L10.2115 14.7287L10.2 14.7091L9.16282 12.9007L9.16075 12.8972L9.15891 12.8937L9.15707 12.8902L9.155 12.8867L9.15132 12.8796L9.1474 12.8725L9.14372 12.8654L9.14027 12.8583L9.13658 12.8511L9.13313 12.8439L9.12968 12.8366L9.12622 12.8294L9.11978 12.8148L9.11656 12.8074L9.11334 12.8001L9.11034 12.7927L9.10735 12.7853L9.10436 12.7778L9.1016 12.7704L9.0986 12.7629L9.09584 12.7554L9.09331 12.7479L9.09055 12.7403L9.08802 12.7327L9.08549 12.7251L9.08318 12.7175L9.08065 12.7099L9.07605 12.6945L9.0719 12.6792L9.06776 12.6637L9.06569 12.6559L9.06201 12.6404L9.06039 12.6325L9.05855 12.6247L9.05694 12.6169L9.05533 12.6091L9.05395 12.6012L9.05234 12.5933L9.05096 12.5854L9.04981 12.5775L9.04843 12.5696L9.04612 12.5538L9.04497 12.5458L9.04313 12.5299L9.04129 12.514L9.0406 12.506L9.03968 12.498L9.03922 12.49L9.03853 12.482L9.03761 12.466L9.03715 12.458L9.03692 12.45L9.03669 12.442L9.03623 12.4259V12.4179L9.036 12.4099L9.03623 12.4018V12.3938L9.03646 12.3858L9.03692 12.3697L9.03715 12.3617L9.03761 12.3537L9.03807 12.3456L9.03853 12.3376L9.0406 12.3136L9.04129 12.3056L9.04497 12.2736L9.04728 12.2577L9.04843 12.2497L9.05119 12.2338L9.05395 12.218L9.05556 12.2101L9.05694 12.2022L9.05878 12.1943L9.06039 12.1864L9.06408 12.1707L9.06776 12.155L9.06983 12.1472L9.07398 12.1316L9.07628 12.1239L9.08088 12.1084L9.08318 12.1007L9.08825 12.0853L9.09331 12.07L9.09883 12.0548L9.1016 12.0473L9.10758 12.0322L9.11057 12.0247L9.11357 12.0172L9.11656 12.0097L9.123 11.9948L9.12645 11.9874L9.12968 11.9801L9.13313 11.9727L9.13658 11.9654L9.14027 11.9581L9.14395 11.9509L9.14763 11.9436L9.15132 11.9364L9.155 11.9292L9.15891 11.9221L9.16282 11.915L9.17042 11.9016L9.28413 11.7031L9.40796 11.4869L9.56011 11.2211L9.72859 10.9269L9.90123 10.6257L10.0658 10.3386L10.1411 10.207L10.2099 10.0869L10.214 10.08L10.2182 10.0731L10.2223 10.0662L10.2265 10.0594L10.2308 10.0526L10.2352 10.0459L10.2396 10.0392L10.244 10.0325L10.2483 10.0258L10.2529 10.0192L10.2621 10.0061L10.267 9.99961L10.2716 9.99314L10.2764 9.98672L10.2812 9.98033L10.2863 9.97401L10.2911 9.96768L10.2962 9.96142L10.3013 9.95519L10.3063 9.94901L10.3114 9.94287L10.3167 9.93675L10.3218 9.93068L10.3273 9.92466L10.3326 9.91868L10.3379 9.91275L10.3434 9.90684L10.3487 9.90098L10.3542 9.89516L10.36 9.8894L10.3655 9.88367L10.371 9.878L10.3768 9.87234L10.3825 9.86676L10.3883 9.8612L10.3943 9.85571L10.4 9.85024L10.406 9.84482L10.4118 9.83947L10.418 9.83414L10.424 9.82886L10.4299 9.82362L10.4362 9.81845L10.4421 9.81331L10.4484 9.80821L10.4546 9.80319L10.4608 9.79818L10.4672 9.79325L10.4734 9.78836L10.4799 9.78352L10.4863 9.77872L10.4928 9.77397L10.4992 9.76927L10.5057 9.76463L10.5123 9.76002L10.519 9.75548L10.5255 9.75099L10.5321 9.74656L10.5388 9.74216L10.5457 9.73783L10.5524 9.73354L10.5593 9.72933L10.566 9.72513L10.5729 9.72101L10.5798 9.71693L10.5867 9.71292L10.5936 9.70896L10.6007 9.70504L10.6076 9.7012L10.6148 9.6974L10.6217 9.69367L10.6288 9.68999L10.6359 9.68635L10.6431 9.68278L10.6502 9.67926L10.6576 9.67581L10.6647 9.6724L10.6721 9.66906L10.6792 9.66577L10.6866 9.66255L10.694 9.65938L10.7013 9.65628L10.7087 9.65322L10.716 9.65023L10.7236 9.64729L10.731 9.64441L10.7386 9.64161L10.746 9.63888L10.7536 9.63619L10.7612 9.63355L10.7688 9.63098L10.7764 9.62847L10.7839 9.62604L10.7915 9.62365L10.7991 9.62136L10.8067 9.61909L10.8146 9.61691L10.8222 9.61478L10.83 9.61272L10.8378 9.61073L10.8454 9.6088L10.8532 9.60693L10.8611 9.60514L10.8689 9.6034L10.8767 9.60174L10.8845 9.60014L10.8924 9.59859L10.9004 9.59713L10.9082 9.59571L10.9161 9.59439L10.9241 9.59312L10.928 9.59252L10.9359 9.59136L10.94 9.5908L10.9478 9.58974L10.952 9.58923L10.9559 9.58874L10.9598 9.58828L10.9639 9.58781L10.9718 9.58698L10.9759 9.58656L10.9837 9.58582L10.9879 9.58547L10.9918 9.58515L10.9959 9.58485L10.9999 9.58455L11.004 9.58427L11.0079 9.58401L11.0121 9.58376L11.016 9.58355L11.0201 9.58334L11.024 9.58316L11.0282 9.58299L11.0321 9.58283L11.0362 9.58269L11.0401 9.58258L11.0443 9.58248L11.0482 9.58241L11.0523 9.58234L11.0576 9.5823L11.0632 9.58221L11.0696 9.58207L13.0222 9.58255ZM24.0287 15.2121H14.6371L23.3373 0.0442283L24.0533 0L24.0287 15.2121ZM11.0684 9.86016L11.0613 9.8603L11.0558 9.86034L11.0503 9.86043L11.0473 9.8605L11.039 9.86078L11.0362 9.8609L11.0335 9.86104L11.0305 9.86118L11.0249 9.8615L11.0194 9.86187L11.0164 9.86208L11.0137 9.86231L11.0109 9.86252L11.0026 9.86328L10.9996 9.86356L10.9941 9.86416L10.9886 9.86481L10.9858 9.86516L10.9828 9.86551L10.9773 9.86625L10.9718 9.86704L10.969 9.86748L10.9665 9.86785L10.9605 9.86877L10.955 9.86973L10.9494 9.87072L10.9439 9.87174L10.9384 9.87283L10.9326 9.87396L10.9271 9.87515L10.9216 9.87637L10.9161 9.87767L10.9105 9.87899L10.905 9.88036L10.8995 9.88177L10.894 9.88326L10.8884 9.88476L10.8832 9.88634L10.8776 9.88794L10.8721 9.8896L10.8666 9.89129L10.8611 9.89306L10.8558 9.89484L10.8502 9.89669L10.8449 9.89857L10.8394 9.90052L10.8339 9.90249L10.8286 9.90452L10.8233 9.90659L10.8178 9.90869L10.8125 9.91087L10.8072 9.91307L10.7966 9.91761L10.7913 9.91995L10.786 9.92234L10.7807 9.92477L10.7754 9.92725L10.7701 9.92978L10.7648 9.93233L10.7598 9.93492L10.7545 9.93756L10.7494 9.94025L10.7441 9.94298L10.7391 9.94576L10.734 9.94857L10.7289 9.95142L10.7236 9.95431L10.7186 9.95725L10.7135 9.96022L10.7087 9.96326L10.7036 9.96631L10.6986 9.9694L10.6937 9.97255L10.6887 9.97572L10.6838 9.97894L10.679 9.98221L10.6742 9.9855L10.6693 9.98883L10.6645 9.99219L10.6548 9.99905L10.6502 10.0025L10.6454 10.0061L10.6408 10.0096L10.6362 10.0132L10.6316 10.0168L10.627 10.0205L10.6224 10.0242L10.6178 10.0279L10.6132 10.0317L10.6088 10.0355L10.6042 10.0394L10.5998 10.0432L10.5954 10.0471L10.5867 10.0551L10.5825 10.0591L10.5782 10.0631L10.574 10.0672L10.5697 10.0713L10.5614 10.0796L10.5575 10.0838L10.5533 10.088L10.5492 10.0922L10.5453 10.0965L10.5413 10.1009L10.5374 10.1052L10.5296 10.1139L10.5257 10.1183L10.522 10.1228L10.5183 10.1273L10.5144 10.1318L10.511 10.1363L10.5073 10.1409L10.5036 10.1455L10.5001 10.1501L10.4965 10.1547L10.4896 10.1641L10.4863 10.1688L10.4829 10.1735L10.4797 10.1782L10.4762 10.183L10.473 10.1878L10.4698 10.1926L10.4668 10.1975L10.4635 10.2023L10.4606 10.2072L10.4576 10.2121L10.4546 10.217L10.4516 10.222L10.4486 10.2269L10.3805 10.3459L10.305 10.4775L10.1404 10.7646L9.96798 11.0658L9.79949 11.3599L9.64734 11.6257L9.52351 11.842L9.41003 12.04L9.40359 12.0515L9.40106 12.0561L9.39553 12.0662L9.393 12.0714L9.39024 12.0766L9.38771 12.0818L9.38264 12.0922L9.38011 12.0975L9.37781 12.1028L9.37528 12.1081L9.37297 12.1134L9.37067 12.1187L9.3686 12.1241L9.3663 12.1295L9.36423 12.1349L9.36193 12.1403L9.35985 12.1458L9.35801 12.1512L9.35594 12.1567L9.3541 12.1622L9.35203 12.1677L9.35019 12.1733L9.34834 12.1788L9.34673 12.1844L9.34489 12.19L9.34328 12.1955L9.34167 12.2012L9.34006 12.2068L9.33684 12.2181L9.33546 12.2238L9.33407 12.2295L9.33269 12.2352L9.33131 12.2409L9.33016 12.2466L9.32878 12.2524L9.32648 12.2639L9.32533 12.2696L9.32441 12.2754L9.32326 12.2812L9.32233 12.287L9.32142 12.2928L9.32049 12.2986L9.31957 12.3044L9.31888 12.3103L9.31819 12.3161L9.3175 12.322L9.31612 12.3336L9.31566 12.3395L9.31497 12.3454L9.31451 12.3512L9.31405 12.3571L9.31382 12.363L9.31336 12.3688L9.31313 12.3747L9.3129 12.3806L9.31267 12.3865L9.31244 12.3923V12.4041L9.31221 12.4099L9.31244 12.4158V12.4276L9.31267 12.4334L9.3129 12.4393L9.31336 12.451L9.31382 12.4568L9.31405 12.4627L9.31497 12.4744L9.31543 12.4801L9.31681 12.4918L9.31727 12.4976L9.31796 12.5034L9.31888 12.5091L9.31957 12.5149L9.32049 12.5207L9.32119 12.5264L9.3221 12.5322L9.32326 12.5379L9.32418 12.5436L9.32533 12.5493L9.32625 12.555L9.32855 12.5663L9.32993 12.572L9.33108 12.5776L9.33246 12.5833L9.33384 12.5889L9.33523 12.5944L9.33661 12.6L9.33822 12.6056L9.3396 12.6111L9.34282 12.6221L9.34466 12.6276L9.34627 12.6331L9.34811 12.6385L9.34973 12.644L9.35157 12.6494L9.35364 12.6548L9.35548 12.6601L9.35732 12.6655L9.36147 12.6761L9.36354 12.6814L9.36561 12.6866L9.36791 12.6919L9.36998 12.6971L9.37228 12.7023L9.37458 12.7075L9.37689 12.7126L9.37942 12.7177L9.38172 12.7228L9.38425 12.7279L9.38678 12.733L9.39185 12.743L9.39461 12.7482L9.39576 12.7504L9.39852 12.7553L9.40129 12.7603L9.40243 12.7624L10.4389 14.5696L10.4493 14.5875L10.4502 14.5892L10.4518 14.5917L10.4532 14.5941L10.4548 14.5965L10.4562 14.599L10.4578 14.6014L10.4592 14.6038L10.4608 14.6062L10.464 14.611L10.4654 14.6134L10.467 14.6158L10.4686 14.6182L10.47 14.6203L10.4734 14.6253L10.4767 14.6299L10.4799 14.6346L10.4833 14.6392L10.4866 14.6438L10.49 14.6484L10.4935 14.653L10.4969 14.6575L10.5006 14.662L10.5041 14.6664L10.5077 14.6709L10.5114 14.6753L10.5188 14.684L10.5225 14.6883L10.5262 14.6925L10.5301 14.6968L10.534 14.701L10.5379 14.7052L10.5418 14.7094L10.5457 14.7135L10.5496 14.7176L10.5538 14.7216L10.5577 14.7257L10.5618 14.7297L10.566 14.7336L10.5701 14.7376L10.5745 14.7415L10.5786 14.7453L10.583 14.7492L10.5871 14.753L10.5915 14.7568L10.5959 14.7605L10.6003 14.7642L10.6046 14.7679L10.6092 14.7715L10.6136 14.7751L10.6182 14.7787L10.6226 14.7822L10.6272 14.7857L10.6318 14.7891L10.6366 14.7926L10.6412 14.7959L10.6458 14.7993L10.6507 14.8026L10.6553 14.8059L10.6601 14.8091L10.6649 14.8123L10.6698 14.8155L10.6746 14.8186L10.6795 14.8217L10.6843 14.8248L10.6893 14.8278L10.6942 14.8308L10.6992 14.8337L10.7043 14.8366L10.7094 14.8395L10.7142 14.8423L10.7193 14.8451L10.7246 14.8478L10.7296 14.8505L10.7347 14.8532L10.7398 14.8558L10.745 14.8584L10.7503 14.8609L10.7554 14.8634L10.7607 14.8659L10.766 14.8683L10.7766 14.8731L10.7819 14.8754L10.7872 14.8776L10.7925 14.8798L10.7978 14.882L10.8033 14.8841L10.8086 14.8862L10.8141 14.8883L10.8194 14.8903L10.8249 14.8922L10.8304 14.8941L10.8357 14.896L10.8413 14.8978L10.8468 14.8996L10.8523 14.9014L10.8578 14.9031L10.8634 14.9047L10.8689 14.9063L10.8744 14.9079L10.8799 14.9094L10.8857 14.9109L10.8912 14.9123L10.8967 14.9137L10.9025 14.9151L10.908 14.9164L10.9135 14.9176L10.9193 14.9188L10.9248 14.92L10.9306 14.9211L10.9361 14.9222L10.9418 14.9232L10.9474 14.9242L10.9531 14.9251L10.9589 14.926L10.9644 14.9269L10.9702 14.9276L10.9759 14.9284L10.9814 14.9291L10.9872 14.9298L10.9929 14.9304L10.9987 14.9309L11.0042 14.9315L11.01 14.9319L11.0157 14.9324L11.0215 14.9327L11.027 14.9331L11.0328 14.9333L11.0385 14.9336L11.0443 14.9338L11.05 14.9339L11.0556 14.934L11.0615 14.9341L11.1191 14.9341L11.2781 14.9342L11.3882 14.9343L11.5143 14.9344L11.6542 14.9345L11.8048 14.9345H11.9629L12.1259 14.9344L12.2907 14.9343L12.4546 14.9342L12.5351 14.9341L12.6143 14.934L12.6919 14.9338L12.7674 14.9337L12.8403 14.9335L12.9105 14.9333L12.9775 14.9331L13.0392 14.9328L13.0445 14.9327L13.0503 14.9326L13.056 14.9324L13.0618 14.9322L13.0675 14.9319L13.073 14.9315L13.0788 14.9311L13.0846 14.9307L13.0903 14.9302L13.0961 14.9297L13.1016 14.9291L13.1073 14.9285L13.1131 14.9278L13.1188 14.9271L13.1244 14.9263L13.1301 14.9255L13.1359 14.9246L13.1414 14.9237L13.1472 14.9227L13.1527 14.9217L13.1584 14.9207L13.164 14.9196L13.1697 14.9184L13.1752 14.9172L13.1808 14.916L13.1865 14.9147L13.192 14.9134L13.1976 14.912L13.2031 14.9106L13.2088 14.9091L13.2144 14.9076L13.2199 14.9061L13.2254 14.9045L13.2309 14.9028L13.2365 14.9011L13.2418 14.8994L13.2473 14.8976L13.2528 14.8958L13.2581 14.8939L13.2636 14.892L13.2689 14.89L13.2744 14.888L13.2797 14.886L13.2853 14.8839L13.2959 14.8796L13.3011 14.8774L13.3064 14.8751L13.3117 14.8728L13.317 14.8705L13.3223 14.8681L13.3276 14.8657L13.3327 14.8632L13.338 14.8607L13.343 14.8581L13.3483 14.8555L13.3534 14.8529L13.3585 14.8502L13.3638 14.8475L13.3688 14.8448L13.3739 14.842L13.3787 14.8392L13.3888 14.8334L13.3937 14.8304L13.3987 14.8274L13.4036 14.8244L13.4086 14.8214L13.4135 14.8182L13.4183 14.8151L13.4231 14.8119L13.4277 14.8087L13.4374 14.8022L13.442 14.7989L13.4466 14.7955L13.4515 14.7921L13.4561 14.7886L13.4607 14.7852L13.4653 14.7817L13.4696 14.7781L13.4742 14.7746L13.4788 14.7709L13.4832 14.7673L13.4876 14.7636L13.492 14.7599L13.4963 14.7562L13.5007 14.7524L13.5051 14.7486L13.5095 14.7447L13.5136 14.7408L13.5177 14.7369L13.5219 14.733L13.526 14.729L13.5343 14.721L13.5385 14.7169L13.5424 14.7128L13.5463 14.7087L13.5502 14.7045L13.5541 14.7003L13.558 14.6961L13.5619 14.6919L13.5656 14.6876L13.5695 14.6833L13.5732 14.6789L13.5769 14.6746L13.5806 14.6702L13.5843 14.6658L13.5877 14.6613L13.5912 14.6568L13.5949 14.6523L13.5983 14.6478L13.6018 14.6433L13.605 14.6387L13.6084 14.6341L13.6117 14.6294L13.6149 14.6248L13.6183 14.6201L13.6213 14.6154L13.6245 14.6106L13.6278 14.6059L13.6308 14.6011L13.6338 14.5963L13.6367 14.5915L13.6397 14.5866L13.6427 14.5817L13.6455 14.5768L13.7106 14.4634L13.7762 14.3492L13.8418 14.2349L13.9077 14.1207L14.0391 13.8923L14.1047 13.7782L14.1703 13.6641L14.2359 13.55L14.3015 13.4358L14.3669 13.3217L14.3995 13.2646L14.4322 13.2076L14.4649 13.1505L14.5303 13.0363L14.5627 12.9792L14.5954 12.9221L14.6279 12.865L14.6603 12.8079L14.6921 12.7522L14.6946 12.7477L14.6974 12.7426L14.6999 12.7376L14.7027 12.7324L14.7103 12.717L14.7128 12.7118L14.7153 12.7066L14.7176 12.7014L14.7223 12.6909L14.7246 12.6857L14.7266 12.6804L14.7289 12.6751L14.731 12.6698L14.7331 12.6644L14.7351 12.6591L14.737 12.6537L14.7391 12.6483L14.7409 12.6429L14.7446 12.6321L14.7462 12.6267L14.748 12.6212L14.7496 12.6158L14.7545 12.5993L14.7559 12.5938L14.7586 12.5827L14.76 12.5772L14.7614 12.5716L14.7628 12.5661L14.7639 12.5604L14.7651 12.5549L14.7662 12.5493L14.7674 12.5437L14.7683 12.5381L14.7701 12.5268L14.772 12.5155L14.7729 12.5098L14.7736 12.5041L14.7743 12.4985L14.775 12.4928L14.7757 12.4871L14.7763 12.4814L14.7768 12.4758L14.7777 12.4643L14.7782 12.4586L14.7786 12.4529L14.7789 12.4472L14.7798 12.4243V12.3957L14.7796 12.3899V12.3842L14.7793 12.3785L14.7791 12.3727L14.7786 12.367L14.7784 12.3613L14.778 12.3556L14.7775 12.3499L14.7766 12.3384L14.7759 12.3327L14.7754 12.327L14.774 12.3157L14.7733 12.31L14.7724 12.3043L14.7715 12.2986L14.7708 12.2929L14.7699 12.2872L14.7687 12.2816L14.7678 12.276L14.7655 12.2647L14.7646 12.2591L14.7632 12.2535L14.7621 12.2478L14.7607 12.2423L14.7595 12.2367L14.7582 12.2311L14.7568 12.2255L14.7552 12.22L14.7538 12.2145L14.7489 12.1979L14.7473 12.1925L14.7457 12.187L14.7439 12.1815L14.7384 12.1652L14.7363 12.1598L14.7344 12.1544L14.7303 12.1437L14.7282 12.1384L14.7262 12.1331L14.7239 12.1278L14.7218 12.1225L14.7195 12.1172L14.7172 12.112L14.7149 12.1068L14.7124 12.1016L14.7101 12.0964L14.7075 12.0912L14.7025 12.0809L14.6997 12.0758L14.6972 12.0707L14.6916 12.0606L14.6889 12.0556L14.6861 12.0506L14.6781 12.0366L13.6436 10.2331L13.6395 10.226L13.6367 10.2214L13.6338 10.2164L13.6308 10.2114L13.6275 10.2064L13.6243 10.2014L13.6179 10.1915L13.6144 10.1866L13.6112 10.1817L13.6043 10.172L13.6008 10.1672L13.5974 10.1625L13.5939 10.1577L13.5902 10.153L13.5868 10.1483L13.5831 10.1436L13.5794 10.139L13.5757 10.1344L13.5718 10.1298L13.5682 10.1252L13.5642 10.1207L13.5603 10.1162L13.5525 10.1073L13.5486 10.1028L13.5444 10.0985L13.5405 10.0941L13.5364 10.0898L13.5322 10.0855L13.5281 10.0813L13.524 10.077L13.5198 10.0728L13.5154 10.0687L13.5113 10.0645L13.5069 10.0604L13.5025 10.0564L13.4938 10.0484L13.4894 10.0444L13.4851 10.0405L13.4805 10.0366L13.4761 10.0328L13.4715 10.029L13.4669 10.0252L13.4623 10.0214L13.4577 10.0177L13.4531 10.0141L13.4485 10.0104L13.4436 10.0068L13.439 10.0033L13.4342 9.99977L13.4294 9.99627L13.4248 9.99284L13.4199 9.98944L13.4151 9.98608L13.4103 9.98276L13.4054 9.97947L13.4004 9.97623L13.3955 9.97303L13.3905 9.96988L13.3856 9.96675L13.3806 9.96367L13.3755 9.96064L13.3707 9.95765L13.3605 9.95176L13.3552 9.94889L13.3451 9.94328L13.34 9.94055L13.335 9.93786L13.3297 9.9352L13.3246 9.93258L13.3193 9.93001L13.314 9.92751L13.309 9.925L13.3037 9.92257L13.2984 9.92019L13.2931 9.91785L13.288 9.91555L13.2827 9.91328L13.2774 9.91108L13.2721 9.90893L13.2666 9.90679L13.2613 9.90471L13.256 9.90269L13.2507 9.9007L13.2454 9.89878L13.2399 9.89688L13.2346 9.89505L13.2291 9.89324L13.2238 9.8915L13.2185 9.88981L13.213 9.88814L13.2077 9.88652L13.2022 9.88497L13.1969 9.88346L13.1914 9.882L13.1858 9.88057L13.1805 9.8792L13.175 9.87788L13.1695 9.87661L13.1642 9.87538L13.1587 9.8742L13.1531 9.87308L13.1479 9.872L13.1423 9.87095L13.1368 9.86998L13.1313 9.86903L13.1258 9.86815L13.12 9.86727L13.1177 9.8669L13.1149 9.86653L13.1122 9.86613L13.1011 9.86474L13.0986 9.86444L13.0931 9.86384L13.0903 9.86356L13.082 9.8628L13.0793 9.86257L13.0765 9.86236L13.074 9.86215L13.0684 9.86178L13.0629 9.86145L13.0602 9.86131L13.0574 9.8612L13.0546 9.86106L13.0519 9.86097L13.0493 9.86087L13.0466 9.86078L13.0438 9.86071L13.0383 9.86062L13.0355 9.8606L13.033 9.86057H13.0222L11.0726 9.86009L11.0684 9.86016ZM23.5023 0.312587L15.1156 14.9341H23.7529L23.7767 0.295651L23.5023 0.312587ZM15.7277 11.505L10.0884 1.67345L10.9872 0.106644L22.2946 0.056438L15.7277 11.505ZM11.1469 0.383945L10.4074 1.67345L15.7277 10.949L21.8149 0.336589L11.1469 0.383945ZM13.0806 8.69597H6.06029L9.57046 2.57634L13.0806 8.69597ZM6.53882 8.41795H12.6023L9.57046 3.13238L6.53882 8.41795Z" fill="url(#paint1_linear)"/>
<path d="M33.7685 11.1395H30.6362V21.1384H32.5752V17.8058H33.7685C36.692 17.8058 38.1984 16.7846 38.1984 14.4577C38.1984 12.1307 36.692 11.1395 33.7685 11.1395ZM33.7089 16.2593H32.5752V12.6859H33.7089C35.3496 12.6859 36.2296 13.0766 36.2296 14.4577C36.2296 15.8386 35.3496 16.2593 33.7089 16.2593ZM39.362 21.1384H41.2265V17.0399C41.2265 15.5988 41.8976 14.9682 42.8522 14.9682C43.6725 14.9682 44.0903 15.4634 44.0903 16.5292V21.1384H45.9543V16.274C45.9543 14.3377 44.9252 13.4363 43.4488 13.4363C42.4047 13.4363 41.6738 13.9323 41.2711 14.8028H41.2265V10.6743H39.362V21.1384ZM50.8468 21.3485C53.0997 21.3485 54.5612 19.8174 54.5612 17.4004C54.5612 14.9829 53.0997 13.4365 50.8468 13.4365C48.6099 13.4365 47.1331 15.0582 47.1331 17.4004C47.1331 19.8174 48.5801 21.3485 50.8468 21.3485ZM50.8468 19.9074C49.7879 19.9074 49.0423 19.0215 49.0423 17.4004C49.0423 15.764 49.7879 14.8776 50.8468 14.8776C51.9209 14.8776 52.6521 15.764 52.6521 17.4004C52.6521 19.0215 51.9209 19.9074 50.8468 19.9074ZM59.1848 19.9227C58.4842 19.9227 58.2153 19.5168 58.2153 18.6017V15.0283H59.8861V13.6618H58.2153V11.2595L56.3511 11.6348V13.6618H55.0684V15.0283H56.3511V18.7815C56.3511 20.5534 57.0968 21.3185 58.7073 21.3185C59.2145 21.3185 59.7371 21.2437 60.1543 21.0032V19.652C59.9158 19.8019 59.5728 19.9227 59.1848 19.9227ZM64.2858 21.3485C66.5387 21.3485 68.0002 19.8174 68.0002 17.4004C68.0002 14.9829 66.5387 13.4365 64.2858 13.4365C62.0489 13.4365 60.572 15.0582 60.572 17.4004C60.572 19.8174 62.019 21.3485 64.2858 21.3485ZM64.2858 19.9074C63.227 19.9074 62.4813 19.0215 62.4813 17.4004C62.4813 15.764 63.227 14.8776 64.2858 14.8776C65.3599 14.8776 66.091 15.764 66.091 17.4004C66.091 19.0215 65.3599 19.9074 64.2858 19.9074Z" fill="black"/>
<path fill-rule="evenodd" clip-rule="evenodd" d="M40.2288 1.43623H37.382V3.8178H39.0108V4.37357H37.382V7.36099H36.7887V0.873962H40.2288V1.43623ZM55.0656 7.36099H54.4657V0.873962H55.0656V7.36099ZM46.6996 7.36099H46.099V0.873962H46.6996V7.36099ZM44.8839 1.43625H42.0371V3.8178H43.6659V4.37357H42.0371V7.36099H41.4438V0.873962H44.8839V1.43623V1.43625ZM60.3096 1.43625H58.5983V7.36099H57.9978V1.43625H56.277V0.873962H60.3096V1.43625ZM48.5093 7.36099H47.916V0.873962H48.5547L52.6457 6.34418V0.873962H53.2462V7.36099H52.661L48.5093 1.79434V7.36099ZM64.1723 7.36099H63.5652V5.77454L60.7854 0.873962H61.47L63.8687 5.07894L66.2675 0.873962H66.952L64.1723 5.77454V7.36099ZM36.2581 7.36099H35.6189L33.1231 1.69944C32.9669 2.06156 31.4476 5.53911 31.2855 5.90749C31.6037 5.90749 34.3272 5.93474 34.4834 5.93555L34.7314 6.48126C34.1886 6.47788 31.7541 6.46994 31.0331 6.46994C30.9674 6.6095 30.6908 7.2279 30.6367 7.36099H29.9976L32.8531 0.873962H33.4025L36.2581 7.36099Z" fill="black"/>
<defs>
<radialGradient id="paint0_radial" cx="0" cy="0" r="1" gradientUnits="userSpaceOnUse" gradientTransform="translate(18.123 -3.48032) scale(27.3435 27.5226)">
<stop stop-color="#F9A6FF"/>
<stop offset="1" stop-color="#EA73FF"/>
</radialGradient>
<linearGradient id="paint1_linear" x1="881.705" y1="0.870897" x2="881.705" y2="24.0392" gradientUnits="userSpaceOnUse">
<stop stop-color="#F7B3FF"/>
<stop offset="1" stop-color="#EE8AFF"/>
</linearGradient>
</defs>
</svg>
