<svg width="77" height="11" viewBox="0 0 77 11" fill="none" xmlns="http://www.w3.org/2000/svg">
<path d="M0.351751 1.08658C0.30107 1.08592 0.250861 1.09638 0.204648 1.11723C0.158435 1.13807 0.117339 1.16878 0.0842448 1.20722C0.0511507 1.24566 0.026861 1.29088 0.013081 1.33971C-0.000698998 1.38855 -0.00363517 1.43981 0.0044786 1.48991L1.47865 10.4501C1.49702 10.5597 1.55338 10.6594 1.63785 10.7316C1.72232 10.8037 1.82948 10.8438 1.94052 10.8447H9.01272C9.09595 10.8458 9.17681 10.8169 9.24055 10.7633C9.30429 10.7097 9.34668 10.6349 9.35999 10.5526L10.8376 1.49338C10.8457 1.44329 10.8428 1.39203 10.829 1.34319C10.8152 1.29436 10.791 1.24913 10.7579 1.2107C10.7248 1.17226 10.6837 1.14154 10.6375 1.1207C10.5912 1.09986 10.541 1.0894 10.4904 1.09005L0.351751 1.08658ZM6.55924 7.56245H4.30197L3.69077 4.36711H7.10619L6.55924 7.56245Z" fill="#2684FF"/>
<path d="M10.3654 4.36713H7.10625L6.5593 7.56247H4.30203L1.63672 10.7317C1.7212 10.8049 1.8289 10.8455 1.94058 10.8465H9.01451C9.09775 10.8475 9.17861 10.8186 9.24235 10.765C9.30609 10.7114 9.34847 10.6367 9.36179 10.5544L10.3654 4.36713Z" fill="url(#paint0_linear)"/>
<path d="M20.2975 0.794495C22.3447 0.794495 23.3379 1.80456 23.3379 3.42657C23.3379 4.64351 22.7875 5.38411 21.6571 5.66053C23.1399 5.90565 23.8727 6.71579 23.8727 8.13961C23.8727 9.74598 22.7875 10.8482 20.5423 10.8482H16.4011V0.794495H20.2975ZM17.7763 2.11053V5.10769H20.1135C21.4123 5.10769 21.9471 4.51138 21.9471 3.54305C21.9471 2.57471 21.3671 2.10532 20.1135 2.10532L17.7763 2.11053ZM17.7763 6.33332V9.4626H20.5875C21.9019 9.4626 22.4975 8.98799 22.4975 7.97793C22.4975 6.90702 21.9314 6.32637 20.558 6.32637L17.7763 6.33332Z" fill="#253858"/>
<path d="M26.1194 0.259026C26.2421 0.250239 26.3652 0.267957 26.4804 0.310979C26.5956 0.354001 26.7002 0.421321 26.7872 0.508377C26.8741 0.595432 26.9414 0.700187 26.9843 0.81554C27.0273 0.930893 27.045 1.05415 27.0362 1.17695C27.0362 1.4204 26.9396 1.65387 26.7677 1.82602C26.5958 1.99816 26.3626 2.09487 26.1194 2.09487C25.8763 2.09487 25.6431 1.99816 25.4712 1.82602C25.2992 1.65387 25.2026 1.4204 25.2026 1.17695C25.1939 1.05415 25.2115 0.930893 25.2545 0.81554C25.2975 0.700187 25.3647 0.595432 25.4517 0.508377C25.5386 0.421321 25.6432 0.354001 25.7585 0.310979C25.8737 0.267957 25.9968 0.250239 26.1194 0.259026ZM25.4475 3.19533H26.7619V10.8447H25.4475V3.19533Z" fill="#253858"/>
<path d="M31.78 9.56169C32.0578 9.55339 32.3341 9.51728 32.6048 9.45391V10.723C32.3168 10.8054 32.0187 10.8464 31.7192 10.8447C30.0836 10.8447 29.2883 9.88157 29.2883 8.45775V4.41924H28.0503V3.2023H29.2883V1.57507H30.5645V3.19708H32.5961V4.41403H30.5645V8.4282C30.5645 9.10099 30.9622 9.56169 31.78 9.56169Z" fill="#253858"/>
<path d="M38.0222 10.9977C36.9074 10.9977 36.0514 10.4935 35.5913 9.4991V10.8447H34.2769V0H35.6V4.57223C36.0896 3.56216 37.0064 3.04236 38.1819 3.04236C40.2135 3.04236 41.2379 4.77041 41.2379 7.02002C41.231 9.17748 40.1614 10.9977 38.0222 10.9977ZM37.8225 4.26625C36.6418 4.26625 35.6 5.01728 35.6 6.71405V7.32599C35.6 9.0245 36.5619 9.77379 37.6836 9.77379C39.1664 9.77379 39.9304 8.79502 39.9304 7.02002C39.9166 5.18417 39.1838 4.26625 37.8225 4.26625Z" fill="#253858"/>
<path d="M42.6062 3.19537H43.9206V7.82323C43.9206 9.20012 44.471 9.81206 45.723 9.81206C46.9384 9.81206 47.7858 9.00193 47.7858 7.45641V3.19537H49.1002V10.8447H47.7858V9.59128C47.5517 10.0255 47.2026 10.3868 46.7768 10.6352C46.351 10.8837 45.865 11.0097 45.3722 10.9995C43.615 10.9995 42.6062 9.78251 42.6062 7.67894V3.19537Z" fill="#253858"/>
<path d="M56.4798 10.6465C56.0214 10.8916 55.3182 10.9942 54.615 10.9942C51.8958 10.9942 50.6213 9.34265 50.6213 6.99569C50.6213 4.68523 51.8889 3.03367 54.615 3.03367C55.2432 3.01582 55.8668 3.145 56.4364 3.41092V4.62786C55.8936 4.37372 55.299 4.24991 54.7 4.26626C52.7137 4.26626 51.9045 5.52145 51.9045 7.00438C51.9045 8.48731 52.7362 9.73555 54.7382 9.73555C55.3289 9.75117 55.9175 9.65806 56.4746 9.46086L56.4798 10.6465Z" fill="#253858"/>
<path d="M57.9783 10.8447V0H59.2927V6.78011L62.5779 3.20056H64.2899L60.6974 6.95396L64.441 10.8447H62.6526L59.291 7.26515V10.8447H57.9783Z" fill="#253858"/>
<path d="M68.7958 10.9977C65.9377 10.9977 64.6858 9.34615 64.6858 6.99919C64.6858 4.68874 65.969 3.03717 68.2922 3.03717C70.645 3.03717 71.5913 4.67483 71.5913 6.99919V7.59549H66.0141C66.1982 8.89588 67.0386 9.73731 68.8409 9.73731C69.6335 9.73658 70.4199 9.59654 71.1642 9.32355V10.5405C70.5373 10.876 69.5754 10.9977 68.7958 10.9977ZM66.0002 6.47764H70.263C70.1866 5.05556 69.5441 4.24368 68.2314 4.24368C66.8389 4.23673 66.1374 5.139 66.0002 6.47069V6.47764Z" fill="#253858"/>
<path d="M76.1753 9.56169C76.4531 9.55339 76.7294 9.51728 77 9.45391V10.723C76.7121 10.8054 76.4139 10.8464 76.1145 10.8447C74.4788 10.8447 73.6836 9.88157 73.6836 8.45775V4.41924H72.4456V3.2023H73.6836V1.57507H74.9667V3.19708H76.9983V4.41403H74.9667V8.4282C74.9685 9.10099 75.3626 9.56169 76.1753 9.56169Z" fill="#253858"/>
<defs>
<linearGradient id="paint0_linear" x1="11.119" y1="5.26071" x2="5.72779" y2="9.46492" gradientUnits="userSpaceOnUse">
<stop offset="0.18" stop-color="#0052CC"/>
<stop offset="1" stop-color="#2684FF"/>
</linearGradient>
</defs>
</svg>
