<svg width="88" height="32" viewBox="0 0 88 32" fill="none" xmlns="http://www.w3.org/2000/svg">
<path d="M43.9985 16.3368V17.413C43.2991 17.8043 42.4917 18 41.5762 18C40.8323 18 40.2013 17.8467 39.6832 17.5402C39.165 17.2336 38.755 16.8113 38.453 16.2732C38.151 15.7352 38 15.153 38 14.5269C38 13.5323 38.3449 12.6958 39.0347 12.0175C39.7277 11.3392 40.5812 11 41.5953 11C42.2946 11 43.0718 11.1875 43.927 11.5625V12.6143C43.1481 12.1577 42.3868 11.9294 41.643 11.9294C40.88 11.9294 40.2459 12.1773 39.7404 12.673C39.2382 13.1654 38.987 13.7834 38.987 14.5269C38.987 15.277 39.235 15.8933 39.7309 16.376C40.2268 16.8586 40.861 17.0999 41.6334 17.0999C42.4408 17.0999 43.2292 16.8456 43.9985 16.3368Z" fill="black"/>
<path d="M45.181 11.0881H46.1347V17.9217H45.181V11.0881Z" fill="black"/>
<path d="M52.9056 11.0881H53.8116V17.9217H52.9914L48.5379 12.6632V17.9217H47.6414V11.0881H48.4139L52.9056 16.3906V11.0881Z" fill="black"/>
<path d="M55.242 11.0881H59.0185V11.9588H56.1957V14.0426H58.9231V14.9182H56.1957V17.0412H59.1091V17.912H55.242V11.0881Z" fill="black"/>
<path d="M65.427 11.0881H66.3139V17.9217H65.3555V12.6045L63.3052 15.246H63.1287L61.0593 12.6045V17.9217H60.1057V11.0881H61.0021L63.2193 13.8959L65.427 11.0881Z" fill="black"/>
<path d="M69.8806 11.0489H70.5529L73.5331 17.9217H72.5556L71.6687 15.8966H68.8364L67.9971 17.9217H67.0196L69.8806 11.0489ZM71.2777 15.0259L70.2048 12.5507L69.2083 15.0259H71.2777Z" fill="black"/>
<path d="M79.7175 11H80.1085V14.8351H80.8524V15.6667H80.1085V17.9217H79.1787V15.6667H76.3607V15.246L79.7175 11ZM79.1787 14.8351V12.8539L77.6386 14.8351H79.1787Z" fill="black"/>
<path d="M81.8776 17.912V11.0881H84.1234C85.0294 11.0881 85.7462 11.2283 86.2739 11.5087C86.8016 11.7859 87.2212 12.1952 87.5327 12.7365C87.8442 13.2779 88 13.8682 88 14.5073C88 14.9639 87.9142 15.4009 87.7425 15.8183C87.5709 16.2357 87.3261 16.6026 87.0082 16.9189C86.684 17.2451 86.3073 17.4913 85.8781 17.6576C85.627 17.7587 85.3965 17.8272 85.1867 17.863C84.9769 17.8956 84.5764 17.912 83.9851 17.912H81.8776ZM84.0233 11.9588H82.8312V17.0412H84.0519C84.5287 17.0412 84.899 17.0086 85.1629 16.9434C85.4267 16.8749 85.6461 16.7901 85.8209 16.689C85.9989 16.5847 86.161 16.4575 86.3073 16.3075C86.7777 15.8183 87.013 15.2003 87.013 14.4535C87.013 13.7198 86.7714 13.1214 86.2882 12.6583C86.1102 12.4854 85.9051 12.3436 85.6731 12.2327C85.4442 12.1218 85.2265 12.0485 85.0198 12.0126C84.8132 11.9767 84.481 11.9588 84.0233 11.9588Z" fill="black"/>
<path d="M22.2275 3.9745L13.1949 2.79041L6.25965 6.85007L3.87988 12.0937L7.37608 20.213L13.6347 24.7124L21.5171 24.7801L25.712 20.8558L27.2846 14.9985L26.8284 9.42118L25.9489 7.28987L22.2275 3.9745Z" fill="#020518"/>
<path d="M21.2217 2.55106C21.2217 2.55106 25.8338 3.41936 27.8637 8.89986L26.3639 9.24946L20.7255 3.47577L21.2217 2.55106Z" fill="#020518"/>
<path d="M13.9625 9.14696C11.3987 10.5791 9.92911 15.8911 13.3809 18.4129C16.826 20.9127 21.285 19.7046 22.9114 14.7543C24.5378 9.80394 26.0875 9.63871 26.0875 9.63871L26.6729 9.06589C25.2024 4.85415 21.5219 3.65169 21.5219 3.65169C20.8816 6.56191 16.5186 7.7292 13.9625 9.14696Z" fill="url(#paint0_linear)"/>
<path d="M2.82812 18.8063C2.82812 18.8063 5.5684 25.8767 13.5861 27.6359C21.6039 29.3951 28.3361 17.2838 28.3361 17.2838C28.3356 17.2845 28.3351 17.2851 28.3346 17.2856C27.8342 17.8507 27.2734 18.3674 26.7004 18.857C25.4588 19.9179 24.0903 20.8479 22.607 21.5373C21.8557 21.8866 21.0826 22.1931 20.2749 22.3843C17.7675 22.9777 15.1025 22.5134 12.8886 21.2127C12.0689 20.731 11.3166 20.1356 10.6572 19.4508C8.95671 17.6844 7.88953 15.294 7.72989 12.8454C7.65833 11.7479 7.74026 10.6396 7.9583 9.56204C8.02426 9.2362 8.10243 8.91235 8.19746 8.59363C8.20736 8.5604 8.27068 8.26029 8.30863 8.25122C3.20025 9.46911 2.82812 18.8063 2.82812 18.8063Z" fill="black"/>
<g filter="url(#filter0_d)">
<path d="M21.5204 3.6479C21.5204 3.6479 22.0683 2.60196 20.9974 1.87978C19.9266 1.15761 10.7191 -0.993098 5.15008 6.04646C3.70809 7.86928 2.68353 10.0113 2.24605 12.2982C1.84736 14.3822 1.93747 16.5483 2.4852 18.5971C3.02562 20.6184 4.00172 22.5338 5.3648 24.1243C6.9232 25.9426 8.97726 27.3286 11.224 28.1481C11.8595 28.3799 12.5116 28.5665 13.174 28.7045C15.7081 29.2326 18.3856 29.0489 20.8255 28.1851C21.2553 28.033 21.6749 27.8474 22.0843 27.6468C23.934 26.7406 25.5404 25.3942 26.8066 23.7737C27.1211 23.3712 27.415 22.9527 27.6887 22.5213C29.701 19.3491 30.892 14.8024 28.8244 9.65813C28.8244 9.65813 28.2434 8.26154 26.5383 9.11406C25.7912 9.48757 25.0057 13.1411 24.8755 14.9502C24.7453 16.7592 23.3148 24.3003 16.9701 26.4193C10.6254 28.5382 3.43242 23.6449 4.37681 15.8565C5.32115 8.06812 13.6325 6.4234 17.6574 5.72672C21.6823 5.03 21.5204 3.6479 21.5204 3.6479Z" fill="white"/>
</g>
<path d="M13.7107 6.3015C11.3936 6.91002 7.74248 8.38452 5.37859 11.8952C3.03812 15.3825 4.13814 19.6188 4.13814 19.6188C4.13814 19.6188 4.4424 21.7486 6.94671 24.5104C9.45102 27.2488 15.8171 28.6062 19.8427 25.353C23.845 22.0997 24.5705 17.9103 25.062 15.3123C25.5301 12.7144 25.811 11.1697 26.1854 10.1399C26.5365 9.11007 27.2855 8.87602 27.2855 8.87602C25.4365 8.759 25.3663 12.3867 24.5003 16.5762C23.6577 20.7422 20.3811 27.6466 13.149 26.9211C5.8935 26.219 4.13814 19.455 4.13814 17.7932C4.13814 7.02704 16.0278 6.16107 18.7895 5.52914C21.5747 4.89721 21.5279 3.65676 21.5279 3.65676C20.3811 5.20147 16.0278 5.69297 13.7107 6.3015Z" fill="url(#paint1_linear)"/>
<defs>
<filter id="filter0_d" x="0" y="0" width="31.9046" height="32" filterUnits="userSpaceOnUse" color-interpolation-filters="sRGB">
<feFlood flood-opacity="0" result="BackgroundImageFix"/>
<feColorMatrix in="SourceAlpha" type="matrix" values="0 0 0 0 0 0 0 0 0 0 0 0 0 0 0 0 0 0 127 0" result="hardAlpha"/>
<feOffset dy="1"/>
<feGaussianBlur stdDeviation="1"/>
<feColorMatrix type="matrix" values="0 0 0 0 0 0 0 0 0 0 0 0 0 0 0 0 0 0 0.25 0"/>
<feBlend mode="normal" in2="BackgroundImageFix" result="effect1_dropShadow"/>
<feBlend mode="normal" in="SourceGraphic" in2="effect1_dropShadow" result="shape"/>
</filter>
<linearGradient id="paint0_linear" x1="22.4864" y1="4.37373" x2="14.7731" y2="18.7178" gradientUnits="userSpaceOnUse">
<stop stop-color="#FDFDFE"/>
<stop offset="0.15" stop-color="#6472EB"/>
<stop offset="0.52" stop-color="#2D39A1"/>
<stop offset="1" stop-color="#6070D7"/>
</linearGradient>
<linearGradient id="paint1_linear" x1="3.88069" y1="15.4535" x2="27.2855" y2="15.4535" gradientUnits="userSpaceOnUse">
<stop stop-color="#D4D6E5"/>
<stop offset="0.53" stop-color="#CED0E1"/>
<stop offset="1" stop-color="#F3F3F8"/>
</linearGradient>
</defs>
</svg>
