<svg width="67" height="21" viewBox="0 0 67 21" fill="none" xmlns="http://www.w3.org/2000/svg">
<path d="M6.80584 4.26648C6.99915 3.76664 7.26495 3.30648 7.65963 2.93358C9.23833 1.41821 11.848 1.79904 12.9193 3.70317C13.7247 5.14714 14.5785 6.55936 15.4081 7.98746L19.5643 15.1121C20.7161 17.1035 19.4677 19.6185 17.1802 19.9597C15.7787 20.166 14.4658 19.5312 13.7408 18.2936L10.0841 12.0417C10.0599 11.9941 10.0277 11.9544 9.99546 11.9147C9.86659 11.8116 9.8102 11.6608 9.72966 11.526L7.03942 6.93226C6.7253 6.39275 6.58031 5.80565 6.59642 5.1868C6.62059 4.86945 6.66086 4.55209 6.80584 4.26648" fill="#3C8BD9"/>
<path d="M6.80585 4.26654C6.73335 4.55216 6.66892 4.83778 6.65281 5.13927C6.62864 5.80571 6.79779 6.42455 7.13608 7.00373L9.78604 11.5181C9.86659 11.653 9.93103 11.7879 10.0116 11.9148L8.55369 14.3822L6.51588 17.8414C6.48366 17.8414 6.47561 17.8255 6.46755 17.8017C6.4595 17.7383 6.48366 17.6827 6.49977 17.6193C6.83001 16.4292 6.55615 15.374 5.72653 14.4695C5.21909 13.9221 4.57472 13.6126 3.8337 13.5095C2.86715 13.3746 2.01336 13.6206 1.24818 14.2156C1.11125 14.3188 1.02265 14.4695 0.861558 14.5488C0.82934 14.5488 0.81323 14.533 0.805176 14.5092L1.95698 12.5336L6.74946 4.35381C6.76557 4.32208 6.78974 4.29828 6.80585 4.26654" fill="#FABC04"/>
<path d="M0.837499 14.5328L1.29661 14.1282C3.25388 12.6049 6.1938 13.7077 6.62069 16.1196C6.7254 16.6988 6.66902 17.2542 6.49182 17.8095C6.48377 17.8571 6.47571 17.8968 6.4596 17.9444C6.38711 18.0714 6.32267 18.2062 6.24213 18.3332C5.52527 19.4995 4.47012 20.0786 3.08473 19.9914C1.49798 19.8803 0.249514 18.7061 0.03204 17.151C-0.0726696 16.3973 0.0803676 15.6912 0.475042 15.0406C0.555588 14.8978 0.652243 14.7709 0.740844 14.6281C0.781117 14.5963 0.765008 14.5328 0.837499 14.5328" fill="#34A852"/>
<path d="M6.45963 17.9445C6.42742 17.889 6.45963 17.8493 6.49185 17.8096L6.52407 17.8414L6.45963 17.9445Z" fill="#E1C025"/>
<path d="M35.6459 0C33.1097 0 31 2.08397 31 4.64886C31 7.21375 33.1097 9.27481 35.6459 9.27481C37.015 9.27481 38.0249 8.8168 38.8329 7.96947C39.6633 7.12214 39.9102 5.9542 39.9102 5.01527C39.9102 4.71756 39.8878 4.44275 39.8429 4.21374H35.6459V5.47328H38.6309C38.5411 6.18321 38.3167 6.70992 37.9576 7.07634C37.5312 7.51145 36.8354 8.01527 35.6459 8.01527C33.8055 8.01527 32.3691 6.50382 32.3691 4.64886C32.3691 2.7939 33.8055 1.28244 35.6459 1.28244C36.6334 1.28244 37.3741 1.67176 37.8903 2.19847L38.7656 1.30535C38.0249 0.572522 37.0374 0 35.6459 0V0ZM43.2544 3.32061C41.6608 3.32061 40.3367 4.58016 40.3367 6.34352C40.3367 8.08397 41.6384 9.36641 43.2544 9.36641C44.8703 9.36641 46.1721 8.08397 46.1721 6.34352C46.1721 4.60306 44.8479 3.32061 43.2544 3.32061ZM43.2544 8.17558C42.3791 8.17558 41.616 7.41985 41.616 6.34352C41.616 5.26718 42.3791 4.51145 43.2544 4.51145C44.1297 4.51145 44.8928 5.24428 44.8928 6.34352C44.8928 7.41985 44.1297 8.17558 43.2544 8.17558ZM49.5835 3.32061C47.9676 3.32061 46.6658 4.58016 46.6658 6.34352C46.6658 8.08397 47.9676 9.36641 49.5835 9.36641C51.1771 9.36641 52.5012 8.08397 52.5012 6.34352C52.5012 4.60306 51.1995 3.32061 49.5835 3.32061ZM49.5835 8.17558C48.7082 8.17558 47.9451 7.41985 47.9451 6.34352C47.9451 5.26718 48.7082 4.51145 49.5835 4.51145C50.4589 4.51145 51.2219 5.24428 51.2219 6.34352C51.2219 7.41985 50.4813 8.17558 49.5835 8.17558ZM55.8903 3.32061C54.4314 3.32061 53.1072 4.62596 53.1072 6.32061C53.1072 7.99237 54.4314 9.29771 55.8903 9.29771C56.586 9.29771 57.1247 8.9771 57.4165 8.61069H57.4613V9.0458C57.4613 10.1908 56.8778 10.8092 55.9127 10.8092C55.1272 10.8092 54.6559 10.2366 54.4539 9.75573L53.3317 10.2366C53.6459 11.0382 54.4988 12 55.9127 12C57.4165 12 58.6733 11.084 58.6733 8.8855V3.52672H57.4613V4.00763H57.4165C57.1247 3.64122 56.586 3.32061 55.8903 3.32061V3.32061ZM56.0025 8.12977C55.1272 8.12977 54.3865 7.37405 54.3865 6.32061C54.3865 5.26718 55.1272 4.48855 56.0025 4.48855C56.8778 4.48855 57.5511 5.26718 57.5511 6.32061C57.5511 7.37405 56.8778 8.12977 56.0025 8.12977ZM59.616 0.366414H60.8953V9.20611H59.616V0.366414ZM64.3292 3.32061C62.803 3.32061 61.5237 4.53435 61.5237 6.34352C61.5237 8.03817 62.7806 9.36641 64.4638 9.36641C65.8329 9.36641 66.6185 8.51909 66.9327 8.03817L65.9227 7.35115C65.586 7.85496 65.1147 8.17558 64.4638 8.17558C63.7905 8.17558 63.3192 7.87787 63.0274 7.25955L67 5.58779L66.8653 5.24427C66.6185 4.58015 65.8554 3.32061 64.3292 3.32061V3.32061ZM62.803 6.25191C62.7581 5.08397 63.7007 4.48855 64.3516 4.48855C64.8678 4.48855 65.3167 4.74046 65.4514 5.12977L62.803 6.25191Z" fill="#757575"/>
<path d="M31 20.7994L34.2833 12H35.5519L38.8352 20.7994H37.5915L36.7458 18.4178H33.0894L32.2437 20.7994H31ZM33.4625 17.3649H36.3727L34.9549 13.4039H34.9051L33.4625 17.3649ZM39.9793 20.0724C39.4321 19.4457 39.1585 18.6936 39.1585 17.7911C39.1585 16.9137 39.4321 16.1616 39.9793 15.5097C40.5514 14.883 41.1981 14.5822 41.9941 14.5822C42.4418 14.5822 42.8398 14.6825 43.188 14.8579C43.5611 15.0585 43.8347 15.2841 44.0337 15.61H44.0835L44.0337 14.7827V12H45.153V20.7994H44.0835V19.9722H44.0337C43.8347 20.273 43.5611 20.5237 43.188 20.7242C42.8149 20.9248 42.4169 21 41.9941 21C41.1981 21 40.5266 20.6992 39.9793 20.0724ZM43.5114 19.3705C43.8845 18.9694 44.0586 18.4429 44.0586 17.7911C44.0586 17.1643 43.8845 16.6379 43.5114 16.2368C43.1631 15.8357 42.7154 15.6351 42.1682 15.6351C41.621 15.6351 41.1733 15.8357 40.825 16.2368C40.4519 16.6379 40.2778 17.1643 40.2778 17.7911C40.2778 18.4178 40.4519 18.9443 40.825 19.3454C41.1981 19.7465 41.6459 19.9471 42.1682 19.9471C42.7154 19.9721 43.1631 19.7716 43.5114 19.3705ZM50.3267 20.4485C49.879 20.7994 49.3069 21 48.6104 21C48.0135 21 47.4911 20.8496 47.0185 20.5237C46.5708 20.1978 46.2475 19.7967 46.0485 19.2702L47.0434 18.844C47.1926 19.195 47.3916 19.4958 47.6901 19.6964C47.9637 19.8969 48.2871 19.9972 48.6104 19.9972C48.9587 19.9972 49.2572 19.922 49.5059 19.7716C49.7546 19.6212 49.8541 19.4206 49.8541 19.2201C49.8541 18.844 49.5556 18.5432 48.9835 18.3677L47.9637 18.117C46.7947 17.8162 46.2226 17.2646 46.2226 16.4123C46.2226 15.8607 46.4464 15.4345 46.8942 15.0836C47.3419 14.7577 47.914 14.5822 48.5856 14.5822C49.0907 14.5787 49.588 14.7084 50.0282 14.9582C50.4511 15.2089 50.7496 15.5599 50.9237 15.9861L49.9287 16.4123C49.8044 16.1616 49.6303 15.961 49.3815 15.8106C49.1328 15.6602 48.8343 15.585 48.5109 15.585C48.2125 15.585 47.9637 15.6602 47.715 15.8106C47.4911 15.961 47.3668 16.1365 47.3668 16.3621C47.3668 16.7131 47.6901 16.9638 48.3368 17.0891L49.2323 17.3148C50.4262 17.6156 50.9983 18.2173 50.9983 19.1198C51.0232 19.6462 50.7744 20.0975 50.3267 20.4485Z" fill="#757575"/>
</svg>
