<svg width="79" height="19" viewBox="0 0 79 19" fill="none" xmlns="http://www.w3.org/2000/svg">
<g clip-path="url(#clip0)">
<path fill-rule="evenodd" clip-rule="evenodd" d="M17.8435 4.22538C17.8501 4.25028 17.8535 4.27596 17.8536 4.30175V8.31075C17.8536 8.36221 17.8402 8.41275 17.8148 8.45727C17.7894 8.5018 17.753 8.53873 17.709 8.56433L14.3978 10.5016V14.3414C14.3978 14.4459 14.3432 14.5424 14.254 14.595L7.34221 18.6383C7.32639 18.6475 7.30913 18.6533 7.29187 18.6595C7.2854 18.6617 7.27928 18.6658 7.27245 18.6676C7.22413 18.6805 7.17335 18.6805 7.12503 18.6676C7.11712 18.6654 7.10993 18.661 7.10238 18.6581C7.08656 18.6522 7.07002 18.6471 7.05492 18.6383L0.144543 14.595C0.100643 14.5694 0.0641672 14.5324 0.0387909 14.4879C0.0134146 14.4434 3.47836e-05 14.3929 0 14.3414L0 2.31442C0 2.28811 0.0035956 2.26254 0.0100677 2.23769C0.012225 2.22929 0.0172589 2.22161 0.0201353 2.21321C0.0255287 2.19786 0.0305626 2.18215 0.0384729 2.1679C0.0438663 2.1584 0.0517766 2.15073 0.0582486 2.14196C0.0665185 2.13027 0.0740693 2.11821 0.0837774 2.10798C0.0920472 2.09958 0.102834 2.09336 0.112183 2.08606C0.12261 2.07729 0.131958 2.06779 0.143824 2.06084H0.144183L3.59955 0.0391712C3.6433 0.0135871 3.6929 0.00012207 3.74337 0.00012207C3.79385 0.00012207 3.84345 0.0135871 3.8872 0.0391712L7.34257 2.06084H7.34328C7.35479 2.06815 7.3645 2.07729 7.37493 2.08569C7.38427 2.093 7.3947 2.09958 7.40297 2.10761C7.41304 2.11821 7.42023 2.13027 7.42886 2.14196C7.43497 2.15073 7.44324 2.1584 7.44828 2.1679C7.45655 2.18252 7.46122 2.19786 7.46697 2.21321C7.46985 2.22161 7.47488 2.22929 7.47704 2.23806C7.48366 2.26296 7.48705 2.28863 7.48711 2.31442V9.82637L10.3665 8.14158V4.30138C10.3665 4.27581 10.3701 4.24986 10.3765 4.22538C10.379 4.21661 10.3837 4.20894 10.3866 4.20054C10.3923 4.18519 10.3974 4.16948 10.4053 4.15523C10.4107 4.14573 10.4186 4.13806 10.4247 4.12929C10.4333 4.1176 10.4405 4.10554 10.4506 4.09531C10.4589 4.0869 10.4693 4.08069 10.4786 4.07338C10.4894 4.06461 10.4988 4.05511 10.5103 4.04817H10.5106L13.9664 2.0265C14.0101 2.00088 14.0597 1.98739 14.1102 1.98739C14.1607 1.98739 14.2103 2.00088 14.254 2.0265L17.7094 4.04817C17.7216 4.05548 17.731 4.06461 17.7417 4.07302C17.7507 4.08033 17.7612 4.0869 17.7694 4.09494C17.7795 4.10554 17.7867 4.1176 17.7953 4.12929C17.8018 4.13806 17.8097 4.14573 17.8147 4.15523C17.823 4.16948 17.8277 4.18519 17.8334 4.20054C17.8367 4.20894 17.8413 4.21661 17.8435 4.22538V4.22538ZM17.2776 8.14158V4.80781L16.0684 5.51519L14.3978 6.4926V9.82637L17.2779 8.14158H17.2776ZM13.8222 14.1723V10.8363L12.179 11.7899L7.48675 14.5113V17.8787L13.8222 14.1723ZM0.576014 2.82048V14.1723L6.91073 17.8783V14.5117L3.60135 12.6084L3.60027 12.6077L3.59883 12.6069C3.58768 12.6004 3.57834 12.5909 3.56791 12.5828C3.55892 12.5755 3.54849 12.5697 3.54058 12.5616L3.53986 12.5605C3.53052 12.5514 3.52404 12.5401 3.51613 12.5298C3.50894 12.52 3.50031 12.5116 3.49456 12.5013L3.4942 12.5003C3.48773 12.4893 3.48377 12.4761 3.4791 12.4637C3.47442 12.4528 3.46831 12.4425 3.46543 12.4308V12.4305C3.46184 12.4166 3.46112 12.402 3.45968 12.3877C3.45824 12.3768 3.45537 12.3658 3.45537 12.3548V12.3541V4.50527L1.78521 3.5275L0.576014 2.82084V2.82048ZM3.74373 0.630364L0.864741 2.31442L3.74301 3.99848L6.62165 2.31406L3.74301 0.630364H3.74373ZM5.24094 11.1403L6.91109 10.1633V2.82048L5.7019 3.52786L4.03138 4.50527V11.848L5.24094 11.1403ZM14.1102 2.61769L11.2316 4.30175L14.1102 5.98581L16.9885 4.30138L14.1102 2.61769V2.61769ZM13.8222 6.4926L12.1517 5.51519L10.9425 4.80781V8.14158L12.6126 9.11861L13.8222 9.82637V6.4926ZM7.19838 14.0053L11.4207 11.5557L13.5313 10.3317L10.6548 8.64873L7.34293 10.5864L4.32442 12.3523L7.19838 14.0053V14.0053Z" fill="#FF2D20"/>
</g>
<g clip-path="url(#clip1)">
<path fill-rule="evenodd" clip-rule="evenodd" d="M29.1457 2.90289V13.4347H32.9514V15.2517H27.1191V2.90289H29.1457V2.90289ZM40.1046 8.14228V7.03088H42.0252V15.2521H40.105V14.1403C39.8462 14.552 39.4797 14.8756 39.0037 15.1104C38.5281 15.3458 38.0493 15.4632 37.5677 15.4632C36.9447 15.4632 36.3751 15.349 35.8584 15.1196C35.3548 14.8998 34.9019 14.5784 34.5279 14.1754C34.1574 13.7747 33.8648 13.3082 33.6653 12.7999C33.4573 12.2718 33.3524 11.7087 33.3563 11.141C33.3563 10.5652 33.459 10.015 33.6648 9.49131C33.8631 8.97956 34.1559 8.5098 34.5279 8.10663C34.902 7.70397 35.3549 7.38274 35.8584 7.16295C36.3751 6.93354 36.9447 6.81929 37.5677 6.81929C38.0493 6.81929 38.5281 6.93674 39.0037 7.17209C39.4793 7.40744 39.8462 7.73053 40.105 8.14228H40.1046ZM39.9284 12.1469C40.0467 11.825 40.1065 11.4845 40.105 11.1415C40.105 10.7882 40.0457 10.4533 39.9284 10.1361C39.8183 9.83074 39.651 9.54922 39.4355 9.30668C39.2203 9.0688 38.9595 8.8767 38.6686 8.74185C38.3692 8.60109 38.0374 8.53026 37.6736 8.53026C37.3089 8.53026 36.9799 8.60109 36.6864 8.74185C36.3991 8.87834 36.1416 9.07029 35.9287 9.30668C35.7139 9.54797 35.5494 9.82982 35.4449 10.1357C35.332 10.4587 35.2752 10.7988 35.2769 11.141C35.2769 11.4938 35.3326 11.8293 35.4444 12.1464C35.5558 12.4645 35.7174 12.7405 35.9292 12.9759C36.142 13.2123 36.3995 13.4043 36.6868 13.5407C36.9799 13.6819 37.3089 13.7523 37.6732 13.7523C38.0374 13.7523 38.3692 13.6819 38.6686 13.5407C38.9596 13.406 39.2204 13.2138 39.4355 12.9759C39.651 12.7335 39.8183 12.4521 39.9284 12.1469V12.1469ZM43.5406 15.2517V7.03088H48.7562V8.92327H45.4608V15.2526H43.5406V15.2517ZM55.7159 8.14228V7.03088H57.6365V15.2521H55.7159V14.1403C55.4575 14.552 55.0905 14.8756 54.6145 15.1104C54.1389 15.3458 53.6606 15.4632 53.1786 15.4632C52.556 15.4632 51.9864 15.349 51.4697 15.1196C50.9661 14.8998 50.5132 14.5784 50.1392 14.1754C49.7685 13.7747 49.4758 13.3082 49.2761 12.7999C49.0683 12.2718 48.9635 11.7087 48.9675 11.141C48.9675 10.5652 49.0702 10.015 49.2761 9.49131C49.4742 8.9796 49.7669 8.50984 50.1387 8.10663C50.513 7.70392 50.966 7.38268 51.4697 7.16295C51.9864 6.93354 52.556 6.81929 53.1786 6.81929C53.6601 6.81929 54.1389 6.93674 54.6145 7.17209C55.0905 7.40744 55.4575 7.73053 55.7159 8.14228V8.14228ZM55.5397 12.1469C55.6578 11.8249 55.7175 11.4845 55.7159 11.1415C55.7159 10.7882 55.6565 10.4533 55.5397 10.1361C55.4296 9.83074 55.2623 9.54922 55.0467 9.30668C54.8316 9.0688 54.5708 8.8767 54.2799 8.74185C53.9805 8.60109 53.6482 8.53026 53.2845 8.53026C52.9202 8.53026 52.5911 8.60109 52.2977 8.74185C52.0104 8.87834 51.7529 9.07029 51.54 9.30668C51.325 9.54793 51.1603 9.82978 51.0557 10.1357C50.943 10.4588 50.8863 10.7988 50.8882 11.141C50.8882 11.4938 50.9434 11.8293 51.0557 12.1464C51.1671 12.4645 51.3287 12.7405 51.54 12.9759C51.7528 13.2123 52.0103 13.4043 52.2977 13.5407C52.5911 13.6819 52.9202 13.7523 53.2845 13.7523C53.6482 13.7523 53.9805 13.6819 54.2799 13.5407C54.5709 13.406 54.8317 13.2138 55.0467 12.9759C55.2623 12.7335 55.4296 12.4521 55.5397 12.1469V12.1469ZM65.336 7.03088H67.2813L64.1297 15.2521H61.7152L58.5631 7.03088H60.5084L62.9224 13.3264L65.336 7.03088ZM71.4705 6.81929C74.0853 6.81929 75.8686 9.13988 75.5336 11.8558H69.1623C69.1623 12.565 69.8775 13.936 71.5759 13.936C73.0365 13.936 74.0155 12.6496 74.016 12.6486L75.3136 13.654C74.1534 14.8938 73.2035 15.4637 71.716 15.4637C69.0582 15.4637 67.2567 13.7802 67.2567 11.1415C67.2567 8.75464 69.1185 6.81929 71.47 6.81929H71.4705ZM69.1673 10.4268H73.77C73.7558 10.2686 73.5061 8.34655 71.4549 8.34655C69.4033 8.34655 69.1819 10.2686 69.1673 10.4268ZM76.7842 15.2517V2.90289H78.7049V15.2517H76.7842Z" fill="#FF2D20"/>
</g>
<defs>
<clipPath id="clip0">
<rect width="17.978" height="19" fill="white"/>
</clipPath>
<clipPath id="clip1">
<rect width="52.033" height="13.2527" fill="white" transform="translate(26.967 2.48383)"/>
</clipPath>
</defs>
</svg>
