<svg width="166" height="49" viewBox="0 0 166 49" fill="none" xmlns="http://www.w3.org/2000/svg">
<path d="M3.38867 49H2.54309L0 41H1.23976L3.00085 46.5256L4.69201 41H5.47401L7.16517 46.5256L8.9199 41H10.1597L7.62293 49H6.77099L5.07983 43.6667L3.38867 49Z" fill="#262626"/>
<path d="M21.4846 47.8589V49H15.9533V41H21.3574V42.1411H17.1867V44.2992H21.0268V45.4465H17.1867V47.8589H21.4846Z" fill="#262626"/>
<path d="M32.5488 44.7457C32.765 44.8656 32.9599 45.0186 33.1337 45.2047C33.2821 45.3659 33.4156 45.5685 33.5343 45.8124C33.6572 46.0563 33.7186 46.3561 33.7186 46.7116C33.7186 47.0176 33.6529 47.309 33.5216 47.586C33.3944 47.8589 33.2121 48.1008 32.9748 48.3116C32.7417 48.5183 32.4662 48.6858 32.1483 48.814C31.8346 48.938 31.4913 49 31.1183 49H27.7996V41H31.0547C31.3769 41 31.6799 41.0599 31.9639 41.1798C32.2521 41.2956 32.5022 41.4548 32.7141 41.6574C32.926 41.8599 33.0913 42.0956 33.21 42.3643C33.3329 42.6289 33.3944 42.9142 33.3944 43.2202C33.3944 43.4724 33.3478 43.6956 33.2545 43.8899C33.1655 44.0801 33.0702 44.2372 32.9684 44.3612C32.8455 44.5142 32.7056 44.6424 32.5488 44.7457ZM29.033 44.2992H31.0547C31.3854 44.2992 31.663 44.1917 31.8876 43.9767C32.1123 43.7618 32.2246 43.5096 32.2246 43.2202C32.2246 42.9307 32.1101 42.6786 31.8813 42.4636C31.6566 42.2486 31.3811 42.1411 31.0547 42.1411H29.033V44.2992ZM31.1183 47.8589C31.3091 47.8589 31.4892 47.8258 31.6587 47.7597C31.8283 47.6894 31.9724 47.5984 32.0911 47.4868C32.214 47.3711 32.3093 47.2367 32.3772 47.0837C32.4492 46.9307 32.4852 46.7654 32.4852 46.5876C32.4852 46.4098 32.4492 46.2444 32.3772 46.0915C32.3093 45.9385 32.214 45.8062 32.0911 45.6946C31.9724 45.5788 31.8283 45.4879 31.6587 45.4217C31.4892 45.3514 31.3091 45.3163 31.1183 45.3163H29.033V47.8589H31.1183Z" fill="#262626"/>
<path d="M47.7219 49H46.4186L49.5466 41H50.5829L53.7109 49H52.4076L51.6892 47.1581H48.434L47.7219 49ZM51.2378 46.0171L50.0616 42.8419L48.8918 46.0171H51.2378Z" fill="#262626"/>
<path d="M64.5145 47.8589V49H59.3711V41H60.6045V47.8589H64.5145Z" fill="#262626"/>
<path d="M69.0112 41H75.1973V42.1411H72.7178V49H71.4844V42.1411H69.0112V41Z" fill="#262626"/>
<path d="M86.5858 47.8589V49H81.0545V41H86.4586V42.1411H82.2879V44.2992H86.128V45.4465H82.2879V47.8589H86.5858Z" fill="#262626"/>
<path d="M95.5647 45.8248H94.1342V49H92.9008V41H96.1559C96.495 41 96.815 41.0641 97.116 41.1922C97.4211 41.3163 97.6839 41.4879 97.9043 41.707C98.1247 41.922 98.3006 42.1783 98.432 42.476C98.5634 42.7695 98.6291 43.0817 98.6291 43.4124C98.6291 43.8796 98.5337 44.2599 98.343 44.5535C98.1523 44.8429 97.9425 45.0724 97.7136 45.2419C97.4466 45.4444 97.1435 45.5974 96.8044 45.7008L98.8198 49H97.4529L95.5647 45.8248ZM94.1342 44.6837H96.1559C96.3212 44.6837 96.4759 44.6506 96.62 44.5845C96.7684 44.5142 96.8977 44.4233 97.0079 44.3116C97.1223 44.1959 97.2134 44.0615 97.2813 43.9085C97.3533 43.7556 97.3893 43.5902 97.3893 43.4124C97.3893 43.2346 97.3533 43.0693 97.2813 42.9163C97.2134 42.7633 97.1223 42.631 97.0079 42.5194C96.8977 42.4036 96.7684 42.3127 96.62 42.2465C96.4759 42.1762 96.3212 42.1411 96.1559 42.1411H94.1342V44.6837Z" fill="#262626"/>
<path d="M111.124 41V49H110.081L106.108 43.2822V49H104.874V41H105.91L109.884 46.7116V41H111.124Z" fill="#262626"/>
<path d="M118.087 49H116.784L119.912 41H120.948L124.076 49H122.773L122.055 47.1581H118.799L118.087 49ZM121.603 46.0171L120.427 42.8419L119.257 46.0171H121.603Z" fill="#262626"/>
<path d="M128.433 41H134.619V42.1411H132.14V49H130.906V42.1411H128.433V41Z" fill="#262626"/>
<path d="M141.71 49H140.476V41H141.71V49Z" fill="#262626"/>
<path d="M147.504 41H148.807L151.089 47.1581L153.365 41H154.669L151.674 49H150.504L147.504 41Z" fill="#262626"/>
<path d="M166 47.8589V49H160.469V41H165.873V42.1411H161.702V44.2992H165.542V45.4465H161.702V47.8589H166Z" fill="#262626"/>
<path fill-rule="evenodd" clip-rule="evenodd" d="M75.2755 24H80.5027L83.4572 21.0673L86.4116 24H91.6185L83.4469 15.8888L75.2755 24ZM60 6.52233L68.8054 23.3979L74.1355 18.3634L67.7634 8.50741L60 6.52233ZM107 6.51972L98.1947 23.3953L92.8646 18.3608L99.2368 8.5048L107 6.51972ZM83.4501 0L74.6649 11.7646L77.0095 15.6218L83.4501 9.42268L89.8905 15.6218L92.2351 11.7646L83.4501 0Z" fill="#262626"/>
</svg>
