<svg width="90" height="90" viewBox="0 0 90 90" fill="none" xmlns="http://www.w3.org/2000/svg">
<path fill-rule="evenodd" clip-rule="evenodd" d="M88.5 1.5H1.5V88.5H88.5V1.5ZM0 0V90H90V0H0Z" fill="#FF5000"/>
<path d="M47.5826 51.7809C49.0283 52.3529 50.3483 53.1134 51.5363 54.0594C52.7243 55.0023 53.7394 56.1023 54.5849 57.3469C56.3092 59.8582 57.2378 62.8303 57.25 65.8766V67.25H54.5V65.8734C54.5059 64.248 54.1879 62.6377 53.5647 61.1365C52.9414 59.6353 52.0254 58.2733 50.87 57.13C49.736 56.012 48.4023 55.1166 46.9383 54.49C45.4167 53.8381 43.7788 53.5013 42.1235 53.5C40.498 53.4941 38.8877 53.8121 37.3865 54.4353C35.8853 55.0586 34.5233 55.9746 33.38 57.13C32.2624 58.2644 31.367 59.5979 30.74 61.0617C30.0926 62.5514 29.7658 64.1574 29.75 65.8734V67.25H27.0001V65.8734C26.992 62.825 27.9225 59.848 29.6652 57.3469C31.401 54.8426 33.8382 52.9073 36.6706 51.784C36.0272 51.3419 35.4412 50.8214 34.9263 50.2346C34.4175 49.6569 33.9777 49.022 33.6158 48.3426C33.2552 47.6638 32.9807 46.9427 32.7986 46.196C32.6129 45.4353 32.5128 44.6563 32.5 43.8734C32.5 42.544 32.7515 41.2963 33.2543 40.1366C34.2376 37.8389 36.0675 36.0078 38.3646 35.0231C39.5497 34.5187 40.8238 34.2568 42.1118 34.253C43.3998 34.2492 44.6754 34.5036 45.8635 35.0011C48.1617 35.9852 49.9929 37.8163 50.9769 40.1146C51.7907 42.0283 51.9638 44.1538 51.4703 46.174C51.2817 46.9189 51.0052 47.6354 50.6343 48.3237C50.2658 49.005 49.8265 49.6455 49.3237 50.2346C48.8209 50.8223 48.2395 51.3346 47.5826 51.7809ZM42.1235 50.75C43.0695 50.75 43.9589 50.5709 44.7886 50.2157C46.4337 49.5167 47.743 48.2062 48.4406 46.5606C48.8146 45.7151 49 44.8194 49 43.8766C49.0041 42.9766 48.8273 42.085 48.4801 41.2546C48.133 40.4243 47.6226 39.6722 46.9792 39.0429C46.3428 38.4223 45.601 37.92 44.7886 37.5594C43.9503 37.185 43.0416 36.9943 42.1235 37C41.1806 37 40.2912 37.1791 39.4615 37.5343C37.8073 38.2398 36.4898 39.5573 35.7843 41.2114C35.4292 42.0411 35.25 42.9306 35.25 43.8766C35.25 44.8194 35.4292 45.7089 35.7843 46.5386C36.1458 47.3683 36.6329 48.1006 37.2489 48.7291C37.8866 49.3735 38.6465 49.8842 39.4841 50.2312C40.3216 50.5782 41.22 50.7546 42.1266 50.75H42.1235ZM71 23.25V45.25H65.5L57.25 53.5V45.25H54.5V42.5H60V46.8623L64.3623 42.5H68.25V26H40.75V30.9406C40.2891 30.9988 39.83 31.0711 39.3735 31.1574C38.9053 31.2463 38.4458 31.3756 38 31.544V23.25H71Z" fill="#FF5000"/>
</svg>
