<svg width="56" height="56" viewBox="0 0 56 56" fill="none" xmlns="http://www.w3.org/2000/svg">
<path fill-rule="evenodd" clip-rule="evenodd" d="M71.5 -15.5H-15.5V71.5H71.5V-15.5ZM-17 -17V73H73V-17H-17Z" fill="#FF5000"/>
<path d="M28 2.82979L7 9.82979V30.8298C7 42.429 28 51.8298 28 51.8298C28 51.8298 49 42.429 49 30.8298V9.82979L28 2.82979ZM46.4681 30.8298C46.4681 40.2525 28 49.3723 28 49.3723C28 49.3723 9.53192 40.2525 9.53192 30.8298V11.8404L28 5.3617L46.4681 11.8404V30.8298Z" fill="#FF5000"/>
<path d="M36.3404 18L38.0997 19.8596L25.8229 32.8481L23.8298 30.6384L36.3404 18Z" fill="#FF5000"/>
<path d="M19.0638 27.1088L20.8511 25.1489L27.4043 31.175L25.4484 33.2205L19.0638 27.1088Z" fill="#FF5000"/>
</svg>
