<svg width="90" height="90" viewBox="0 0 90 90" fill="none" xmlns="http://www.w3.org/2000/svg">
<path fill-rule="evenodd" clip-rule="evenodd" d="M88.5001 1.5H1.50009V88.5H88.5001V1.5ZM9.15527e-05 0V90H90.0001V0H9.15527e-05Z" fill="#FF5000"/>
<path d="M62.9338 47.2616L58.3392 40.3045C60.2731 38.1291 66.867 37.2227 66.867 37.2227C67.9845 37.0711 69.1111 36.6602 70.1466 35.9763C73.4318 33.8078 74.5516 29.7129 72.6481 26.8307C70.7447 23.9486 66.539 23.3709 63.254 25.5404C62.2185 26.2242 61.3994 27.0999 60.8208 28.0683C60.8208 28.0683 57.3981 33.7758 54.6377 34.7011L50.0432 27.7442L45.1839 30.9535L58.0741 50.4716L62.9338 47.2616Z" fill="#FF5000"/>
<path d="M56.4587 49.674L45.2826 32.7513L44.1732 33.484L55.3493 50.4067L56.4587 49.674Z" fill="#FF5000"/>
<path d="M32.5771 66.0553C29.1575 66.0553 25.9424 64.7236 23.5243 62.3055C21.1063 59.8875 19.7746 56.6724 19.7746 53.2528C19.7746 49.8332 21.1063 46.6181 23.5243 44.2001C25.9424 41.782 29.1575 40.4503 32.5771 40.4503C35.9967 40.4503 39.2117 41.782 41.6298 44.2001C44.0478 46.6181 45.3795 49.8332 45.3795 53.2528C45.3795 56.6724 44.0478 59.8875 41.6298 62.3055C39.2117 64.7236 35.9967 66.0553 32.5771 66.0553ZM32.5771 42.4507C26.6208 42.4507 21.775 47.2966 21.775 53.2528C21.775 59.209 26.6208 64.0549 32.5771 64.0549C38.5333 64.0549 43.3792 59.209 43.3792 53.2528C43.3792 47.2966 38.5333 42.4507 32.5771 42.4507ZM37.8461 58.5218L36.4315 57.1072C34.3061 59.2327 30.848 59.2327 28.7226 57.1072C26.5972 54.9818 26.5972 51.5237 28.7226 49.3983C30.848 47.2729 34.3061 47.2729 36.4315 49.3983L37.8461 47.9838C34.9406 45.0785 30.2133 45.0785 27.3081 47.9838C24.4028 50.8892 24.4028 55.6165 27.3081 58.5218C28.7607 59.9744 30.6689 60.7007 32.5771 60.7007C34.4851 60.7007 36.3934 59.9744 37.8461 58.5218Z" fill="#FF5000"/>
</svg>
