<svg width="100" height="83" viewBox="0 0 100 83" fill="none" xmlns="http://www.w3.org/2000/svg">
<g clip-path="url(#clip0_289:2)">
<path d="M79.6899 44.3484L71.4356 31.8499C74.9099 27.9418 86.756 26.3133 86.756 26.3133L86.7551 26.3119C88.7628 26.0396 90.7877 25.3027 92.6479 24.0742C98.5499 20.1784 100.562 12.8218 97.142 7.6439C93.7224 2.46602 86.1669 1.42817 80.2651 5.32579C78.4049 6.55431 76.9334 8.1275 75.8939 9.86728L75.893 9.86592C75.893 9.86592 69.7449 20.1208 64.7857 21.7832L56.5317 9.28502L47.8017 15.0505L70.9594 50.1154L79.6904 44.3492L79.6899 44.3484V44.3484Z" fill="black"/>
<path d="M68.0573 48.6828L47.9792 18.2808L45.986 19.5971L66.0642 49.9991L68.0573 48.6828Z" fill="black"/>
<path d="M25.1533 78.1118C19.0098 78.1118 13.2339 75.7194 8.88979 71.3753C4.5457 67.0312 2.15326 61.2552 2.15326 55.1118C2.15326 48.9684 4.5457 43.1924 8.88979 38.8483C13.2339 34.5043 19.0098 32.1118 25.1533 32.1118C31.2967 32.1118 37.0726 34.5043 41.4167 38.8483C45.7608 43.1924 48.1533 48.9684 48.1533 55.1118C48.1533 61.2552 45.7608 67.0312 41.4167 71.3753C37.0726 75.7194 31.2967 78.1118 25.1533 78.1118ZM25.1533 35.7056C14.4527 35.7056 5.74701 44.4113 5.74701 55.1118C5.74701 65.8123 14.4527 74.5181 25.1533 74.5181C35.8538 74.5181 44.5595 65.8123 44.5595 55.1118C44.5595 44.4113 35.8538 35.7056 25.1533 35.7056ZM34.6191 64.5777L32.0779 62.0365C28.2595 65.8548 22.047 65.8548 18.2286 62.0365C14.4103 58.2181 14.4103 52.0055 18.2286 48.1872C22.047 44.3688 28.2595 44.3688 32.0779 48.1872L34.6191 45.6459C29.3994 40.4266 20.9067 40.4266 15.6874 45.6459C10.468 50.8656 10.468 59.3583 15.6874 64.5777C18.2971 67.1874 21.7252 68.4922 25.1533 68.4922C28.581 68.4922 32.0095 67.1874 34.6191 64.5777Z" fill="black"/>
</g>
<defs>
<clipPath id="clip0_289:2">
<rect width="100" height="83" fill="white"/>
</clipPath>
</defs>
</svg>
