<svg width="97" height="99" viewBox="0 0 97 99" fill="none" xmlns="http://www.w3.org/2000/svg">
<path fill-rule="evenodd" clip-rule="evenodd" d="M96.9453 22.3964C96.9813 22.5284 96.9997 22.6645 97 22.8012V44.0513C97 44.324 96.9274 44.5919 96.7895 44.8279C96.6516 45.0639 96.4533 45.2597 96.2147 45.3954L78.2247 55.664V76.0174C78.2247 76.5713 77.9278 77.0826 77.4433 77.3615L39.8908 98.7937C39.8049 98.8421 39.7111 98.8731 39.6174 98.906C39.5822 98.9176 39.549 98.9389 39.5119 98.9486C39.2494 99.0171 38.9734 99.0171 38.7109 98.9486C38.6679 98.937 38.6289 98.9137 38.5878 98.8982C38.5019 98.8672 38.412 98.8401 38.33 98.7937L0.785314 77.3615C0.546804 77.2257 0.348626 77.0299 0.210754 76.7939C0.0728827 76.5579 0.000188982 76.2901 0 76.0174L0 12.2672C0 12.1277 0.0195352 11.9921 0.0546985 11.8604C0.0664196 11.8159 0.0937689 11.7752 0.109397 11.7307C0.1387 11.6493 0.166049 11.5661 0.209026 11.4905C0.238329 11.4402 0.281307 11.3995 0.31647 11.353C0.361401 11.291 0.402425 11.2271 0.45517 11.1729C0.500101 11.1283 0.558706 11.0954 0.609498 11.0567C0.66615 11.0102 0.716941 10.9599 0.781407 10.9231H0.783361L19.5567 0.206983C19.7944 0.0713729 20.0638 0 20.3381 0C20.6123 0 20.8818 0.0713729 21.1195 0.206983L39.8928 10.9231H39.8967C39.9592 10.9618 40.012 11.0102 40.0686 11.0548C40.1194 11.0935 40.1761 11.1283 40.221 11.171C40.2757 11.2271 40.3148 11.291 40.3616 11.353C40.3949 11.3995 40.4398 11.4402 40.4671 11.4905C40.5121 11.568 40.5375 11.6493 40.5687 11.7307C40.5843 11.7752 40.6117 11.8159 40.6234 11.8624C40.6594 11.9944 40.6778 12.1304 40.6781 12.2672V52.0849L56.3219 43.1545V22.7992C56.3219 22.6637 56.3414 22.5262 56.3766 22.3964C56.3903 22.3499 56.4157 22.3092 56.4313 22.2647C56.4625 22.1833 56.4899 22.1001 56.5329 22.0245C56.5622 21.9742 56.6051 21.9335 56.6384 21.887C56.6852 21.8251 56.7243 21.7611 56.779 21.7069C56.8239 21.6624 56.8806 21.6294 56.9314 21.5907C56.99 21.5442 57.0408 21.4939 57.1033 21.4571H57.1053L75.8805 10.741C76.1182 10.6052 76.3876 10.5337 76.6619 10.5337C76.9362 10.5337 77.2057 10.6052 77.4433 10.741L96.2166 21.4571C96.2831 21.4958 96.3338 21.5442 96.3925 21.5888C96.4413 21.6275 96.4979 21.6624 96.5429 21.705C96.5976 21.7611 96.6367 21.8251 96.6835 21.887C96.7187 21.9335 96.7617 21.9742 96.789 22.0245C96.834 22.1001 96.8593 22.1833 96.8906 22.2647C96.9082 22.3092 96.9336 22.3499 96.9453 22.3964ZM93.8705 43.1545V25.4836L87.3008 29.2331L78.2247 34.414V52.0849L93.8724 43.1545H93.8705ZM75.0972 75.1207V57.4381L66.1696 62.493L40.6762 76.918V94.7671L75.0972 75.1207ZM3.12954 14.9496V75.1207L37.5466 94.7652V76.9199L19.5664 66.8314L19.5606 66.8275L19.5528 66.8236C19.4922 66.7888 19.4414 66.7384 19.3848 66.6958C19.3359 66.6571 19.2793 66.6261 19.2363 66.5835L19.2324 66.5777C19.1816 66.5292 19.1464 66.4692 19.1035 66.415C19.0644 66.3627 19.0175 66.3181 18.9862 66.2639L18.9843 66.2581C18.9491 66.2 18.9276 66.1303 18.9022 66.0644C18.8768 66.0063 18.8436 65.9521 18.828 65.8901V65.8882C18.8085 65.8146 18.8046 65.7371 18.7968 65.6616C18.7889 65.6035 18.7733 65.5454 18.7733 65.4873V65.4834V23.8799L9.69922 18.6972L3.12954 14.9515V14.9496ZM20.34 3.34065L4.69821 12.2672L20.3361 21.1937L35.976 12.2652L20.3361 3.34065H20.34ZM28.4745 59.0495L37.5486 53.8706V14.9496L30.9789 18.6991L21.9028 23.8799V62.801L28.4745 59.0495ZM76.6619 13.8747L61.0221 22.8012L76.6619 31.7277L92.2998 22.7992L76.6619 13.8747ZM75.0972 34.414L66.0211 29.2331L59.4514 25.4836V43.1545L68.5255 48.3334L75.0972 52.0849V34.414ZM39.1094 74.2356L62.0496 61.2516L73.5168 54.7635L57.8886 45.8428L39.8948 56.1134L23.495 65.4737L39.1094 74.2356Z" fill="#FF5000"/>
</svg>
