<svg width="100" height="100" viewBox="0 0 100 100" fill="none" xmlns="http://www.w3.org/2000/svg">
<path d="M52.4197 44.1912V78.7222H45.9561V41.7683L52.4197 44.1912Z" fill="#FF5000"/>
<path d="M26.5972 40.9699C26.5972 32.14 31.4286 27.3267 37.0925 27.3267C42.7563 27.3267 43.5561 28.1397 49.9872 31.3432C56.4182 34.5467 58.0504 35.3598 61.2823 35.3598C64.5141 35.3598 66.1137 32.9206 66.1137 28.1235H71.7449C72.561 37.7502 66.9135 41.7667 61.2496 41.7667C55.5858 41.7667 53.9862 40.9536 48.3549 37.7502C42.7237 34.5467 41.0915 33.7336 37.8596 33.7336C34.6278 33.7336 33.0282 36.1728 32.2284 41.7667L26.5972 40.9699Z" fill="#FF5000"/>
<path d="M49.9874 99.6006C40.1008 99.6006 30.4363 96.6799 22.2159 91.2077C13.9955 85.7356 7.58851 77.9579 3.80508 68.8581C0.0216589 59.7583 -0.968257 49.7451 0.960515 40.0848C2.88929 30.4244 7.65012 21.5509 14.641 14.5862C21.6318 7.62149 30.5387 2.87848 40.2353 0.956921C49.9319 -0.964634 59.9827 0.0215778 69.1167 3.79084C78.2507 7.56011 86.0577 13.9431 91.5503 22.1328C97.043 30.3224 99.9747 39.9507 99.9747 49.8003C99.9596 63.0035 94.6882 75.6617 85.3171 84.9978C75.9459 94.3339 63.2402 99.5855 49.9874 99.6006ZM49.9874 3.25229C40.74 3.25229 31.7003 5.98419 24.0114 11.1025C16.3225 16.2209 10.3297 23.4957 6.79091 32.0072C3.2521 40.5187 2.32618 49.8845 4.13025 58.9203C5.93432 67.956 10.3874 76.2559 16.9262 82.7703C23.4651 89.2847 31.7961 93.721 40.8658 95.5184C49.9355 97.3157 59.3365 96.3932 67.8799 92.8677C76.4234 89.3421 83.7256 83.3717 88.8632 75.7116C94.0007 68.0515 96.7429 59.0456 96.7429 49.8328C96.7342 37.4816 91.8055 25.6386 83.039 16.9049C74.2725 8.17125 62.3851 3.2609 49.9874 3.25229Z" fill="#FF5000"/>
</svg>
