<svg width="772" height="138" viewBox="0 0 772 138" fill="none" xmlns="http://www.w3.org/2000/svg">
<path fill-rule="evenodd" clip-rule="evenodd" d="M143.389 135.76H124.656L150.52 100.555L125.797 66.591H144.91L160.124 87.4847L172.812 70.1687H165.329V1H181.018V45.8404L210.306 1H225.996V70.1687H217.433V93.0182H245.77V70.1687H239.711V1H255.971V27.4272H284.308V1H300.568V65.8596C302.549 65.5843 304.607 65.4462 306.74 65.4462C309.363 65.4462 311.876 65.6598 314.278 66.0862V1H330.539V55.7625H355.547V1H371.808V55.7625H380.746V66.591H390.425V1H406.114V45.8404L435.402 1H451.092V65.4462C451.139 65.4462 451.186 65.4462 451.233 65.4462C456.144 65.4462 460.668 66.1945 464.807 67.6902V1H523.763V66.591H537.424V1H553.684V23.9926H560.151C564.589 23.9926 568.709 24.3425 572.512 25.0421C576.379 25.6781 579.707 26.8548 582.497 28.5721C585.286 30.2894 587.473 32.6745 589.058 35.7275C590.643 38.7168 591.435 42.533 591.435 47.1761C591.435 51.8191 590.643 55.6353 589.058 58.6247C587.473 61.614 585.286 63.9674 582.497 65.6847C579.707 67.402 576.379 68.5786 572.512 69.2147C570.988 69.4691 569.413 69.6738 567.786 69.8258V111.431L597.074 66.591H599.613V1H615.873V70.1687H612.764V135.76H597.074V90.9193L567.786 135.76H552.097V70.1687H544.792V80.9018H512.176V135.76H495.915V66.591H507.502V15.4062H481.067V70.1687H470.256C472.776 71.5869 475.024 73.2883 477.002 75.2729C480.172 78.3894 482.612 82.142 484.324 86.5307C486.099 90.9193 486.987 95.8168 486.987 101.223C486.987 106.629 486.099 111.527 484.324 115.915C482.612 120.304 480.172 124.057 477.002 127.173C473.896 130.29 470.124 132.707 465.686 134.424C461.312 136.141 456.494 137 451.233 137C445.908 137 441.058 136.141 436.684 134.424C432.31 132.707 428.538 130.29 425.368 127.173C422.262 124.057 419.821 120.304 418.046 115.915C416.335 111.527 415.479 106.629 415.479 101.223C415.479 95.8168 416.335 90.9193 418.046 86.5307C419.821 82.142 422.262 78.3894 425.368 75.2729C428.224 72.4654 431.569 70.2254 435.402 68.5528V25.3283L406.502 69.5754V135.76H390.241V80.9972H380.746V84.0024H373.385L372.935 95.2125C372.745 100.555 372.238 105.675 371.414 110.573C370.653 115.47 369.385 119.795 367.61 123.548C365.898 127.237 363.616 130.194 360.763 132.421C357.911 134.647 354.298 135.76 349.923 135.76H345.074V121.354H347.166C349.384 121.354 351.128 120.463 352.396 118.682C353.727 116.901 354.741 114.548 355.438 111.622C356.136 108.696 356.611 105.357 356.865 101.605C357.118 97.7885 357.308 93.8769 357.435 89.8699L357.999 70.1687H325.763C328.283 71.5869 330.532 73.2883 332.51 75.2729C335.679 78.3894 338.12 82.142 339.832 86.5307C341.607 90.9193 342.494 95.8168 342.494 101.223C342.494 106.629 341.607 111.527 339.832 115.915C338.12 120.304 335.679 124.057 332.51 127.173C329.404 130.29 325.632 132.707 321.194 134.424C316.82 136.141 312.002 137 306.74 137C301.415 137 296.566 136.141 292.192 134.424C287.817 132.707 284.046 130.29 280.876 127.173C277.77 124.057 275.329 120.304 273.554 115.915C271.842 111.527 270.987 106.629 270.987 101.223C270.987 95.8168 271.842 90.9193 273.554 86.5307C275.329 82.142 277.77 78.3894 280.876 75.2729C282.895 73.2873 285.159 71.5859 287.667 70.1687H284.308V41.8334H255.971V66.591H262.03V135.76H245.77V107.424H217.433V135.76H201.173V66.591H210.306V25.3283L183.355 66.591H194.262L169.443 100.269L195.403 135.76H176.29L159.839 113.34L143.389 135.76ZM642.168 135.76H626.478V66.591H642.168V111.431L671.456 66.591H687.145V135.76H671.456V90.9193L642.168 135.76ZM39.4164 135.76H23.0609V80.9018H1V66.591H27.8005V1H86.7564V66.591H100.419V1H126.949C131.386 1 135.507 1.31802 139.311 1.95405C143.178 2.59009 146.506 3.76675 149.295 5.48404C152.084 7.13773 154.271 9.42745 155.856 12.3532C157.441 15.279 158.233 18.9998 158.233 23.5156C158.233 28.0951 157.441 31.8477 155.856 34.7734C154.271 37.6992 152.084 40.0207 149.295 41.738C146.506 43.3917 143.178 44.5683 139.311 45.268C135.508 45.904 131.387 46.222 126.949 46.222H116.679V66.591H121.808V80.9018H85.1983V93.0182H119.811V107.424H85.1983V121.354H121.808V135.76H68.9379V66.591H70.496V15.4062H44.061V66.591H61.5724V80.9018H39.4164V135.76ZM288.198 101.223C288.198 104.912 288.673 108.156 289.624 110.954C290.638 113.689 291.97 116.011 293.618 117.919C295.33 119.763 297.295 121.163 299.514 122.117C301.796 123.071 304.205 123.548 306.74 123.548C309.276 123.548 311.653 123.071 313.872 122.117C316.154 121.163 318.12 119.763 319.768 117.919C321.479 116.011 322.811 113.689 323.762 110.954C324.776 108.156 325.283 104.912 325.283 101.223C325.283 97.5341 324.776 94.3221 323.762 91.5872C322.811 88.7886 321.479 86.4671 319.768 84.6226C318.12 82.7145 316.154 81.2834 313.872 80.3293C311.653 79.3753 309.276 78.8983 306.74 78.8983C304.205 78.8983 301.796 79.3753 299.514 80.3293C297.295 81.2834 295.33 82.7145 293.618 84.6226C291.97 86.4671 290.638 88.7886 289.624 91.5872C288.673 94.3221 288.198 97.5341 288.198 101.223ZM432.69 101.223C432.69 104.912 433.166 108.156 434.117 110.954C435.131 113.689 436.462 116.011 438.11 117.919C439.822 119.763 441.787 121.163 444.006 122.117C446.288 123.071 448.697 123.548 451.233 123.548C453.768 123.548 456.146 123.071 458.365 122.117C460.647 121.163 462.612 119.763 464.26 117.919C465.972 116.011 467.303 113.689 468.254 110.954C469.268 108.156 469.775 104.912 469.775 101.223C469.775 97.5341 469.268 94.3221 468.254 91.5872C467.303 88.7886 465.972 86.4671 464.26 84.6226C462.612 82.7145 460.647 81.2834 458.365 80.3293C456.146 79.3753 453.768 78.8983 451.233 78.8983C448.697 78.8983 446.288 79.3753 444.006 80.3293C441.787 81.2834 439.822 82.7145 438.11 84.6226C436.462 86.4671 435.131 88.7886 434.117 91.5872C433.166 94.3221 432.69 97.5341 432.69 101.223ZM726.022 70.1687H710.332V1H726.022V45.8404L755.31 1H771V70.1687H755.31V25.3283L726.022 70.1687ZM560.626 37.731H553.684V56.4304H560.626C562.528 56.4304 564.303 56.3032 565.951 56.0487C567.599 55.7943 569.026 55.3491 570.23 54.7131C571.498 54.0134 572.481 53.0594 573.178 51.8509C573.875 50.6425 574.224 49.0842 574.224 47.1761C574.224 45.2044 573.875 43.6143 573.178 42.4058C572.481 41.1974 571.498 40.2433 570.23 39.5437C569.026 38.844 567.599 38.367 565.951 38.1126C564.303 37.8582 562.529 37.731 560.626 37.731ZM127.424 14.7383H116.679V32.4837H127.424C129.326 32.4837 131.101 32.3565 132.749 32.1021C134.398 31.8477 135.824 31.4024 137.028 30.7664C138.296 30.0668 139.279 29.1445 139.976 27.9996C140.673 26.8548 141.022 25.3601 141.022 23.5156C141.022 21.7347 140.673 20.2718 139.976 19.127C139.279 17.9821 138.296 17.0917 137.028 16.4556C135.824 15.756 134.398 15.3108 132.749 15.12C131.102 14.8655 129.327 14.7383 127.424 14.7383Z" stroke="#262626" stroke-width="0.75" stroke-miterlimit="1.41421" stroke-linejoin="round"/>
</svg>
