<svg width="595" height="151" viewBox="0 0 595 151" fill="none" xmlns="http://www.w3.org/2000/svg">
<path d="M120.89 70.34L121 70.62H121.41L120.89 70.34ZM120.89 70.34L121 70.62H121.41L120.89 70.34ZM411.89 67L382.33 112.11V67H366.48V136.62H382.32L411.88 91.5V136.62H427.72V67H411.89ZM441.58 67V136.62H458V81.5H484.68V136.62H501.1V67H441.58ZM567 101.94C565.502 98.9713 563.21 96.4757 560.38 94.73C557.282 92.9059 553.858 91.7035 550.3 91.19C546.181 90.4575 542.004 90.1027 537.82 90.13H531.3V67H514.88V136.62H537.88C542.06 136.63 546.235 136.296 550.36 135.62C553.92 135.108 557.345 133.902 560.44 132.07C563.249 130.343 565.537 127.885 567.06 124.96C568.789 121.374 569.613 117.418 569.46 113.44C569.592 109.463 568.747 105.515 567 101.94ZM551 118.16C550.285 119.379 549.247 120.375 548 121.04C546.648 121.732 545.186 122.185 543.68 122.38C541.903 122.649 540.107 122.779 538.31 122.77H531.31V103.95H538.31C540.107 103.943 541.902 104.07 543.68 104.33C545.197 104.538 546.662 105.027 548 105.77C549.245 106.438 550.282 107.434 551 108.65C551.742 110.137 552.087 111.79 552 113.45C552.083 115.08 551.738 116.704 551 118.16ZM577.69 67V136.62H594.1V67H577.69Z" stroke="#262626" stroke-width="0.75" stroke-miterlimit="10"/>
<path d="M347.68 122.09V67H331.27V122.09H306V67H305.64V1H289.82L260.25 46.11V1H244.41V70.62H259.34V93.62H230.74V67H230.57V1H214.15V56.09H196.15V1H179.68V56.09H161.68V1H145.23V67H139.23V136.62H155.07L184.62 91.5V136.62H200.47V70.62H214.32V136.62H230.74V108.08H259.34V136.62H275.76V67H262.61L289.82 25.47V67H289.6V136.62H341.25V150.54H356.7V122.09H347.68ZM155.07 112.09V70.62H182.27L155.07 112.09Z" stroke="#262626" stroke-width="0.75" stroke-miterlimit="10"/>
<path d="M123 71.5C122.464 71.1654 121.91 70.8616 121.34 70.59H121L120.92 70.34C118.404 69.1778 115.739 68.3733 113 67.95C108.875 67.2743 104.7 66.9399 100.52 66.95H86.93L89.87 58.16H116.75L120.89 70.29L121.38 70.54H138.83L112.53 1H94.53L68.27 70.62H73.68V136.62H90.11V112.5H100.48C104.66 112.51 108.835 112.176 112.96 111.5C116.489 110.933 119.889 109.741 123 107.98C125.793 106.28 128.079 103.863 129.62 100.98C131.369 97.4563 132.207 93.551 132.06 89.62C132.207 85.7321 131.382 81.8689 129.66 78.38C128.115 75.5177 125.811 73.1371 123 71.5ZM103.41 18.38L112.33 44.86H94.33L103.41 18.38ZM113.62 94.16C112.89 95.3411 111.853 96.302 110.62 96.94C109.264 97.6247 107.804 98.0808 106.3 98.29C104.522 98.5502 102.727 98.6772 100.93 98.67H90.11V80.81H101C102.797 80.8009 104.593 80.9313 106.37 81.2C107.887 81.3449 109.357 81.801 110.69 82.54C111.928 83.1291 112.97 84.0632 113.69 85.23C114.418 86.5741 114.761 88.0934 114.68 89.62C114.756 91.2025 114.389 92.7748 113.62 94.16Z" stroke="#262626" stroke-width="0.75" stroke-miterlimit="10"/>
<path d="M45.41 1V27.62H16.8V1H0.380005V136.62H16.8V81.5H43.49V136.62H59.9V70.62H61.82V1H45.41ZM16.8 67V42.08H45.41V67H16.8Z" stroke="#262626" stroke-width="0.75" stroke-miterlimit="10"/>
</svg>
