<svg width="635" height="140" viewBox="0 0 635 140" fill="none" xmlns="http://www.w3.org/2000/svg">
<path d="M540.32 70V139.6H556.73V70H540.32ZM618.32 1L588.75 46.12V1H572.91V70.6H588.75L618.32 25.48V70.6H634.16V1H618.32Z" stroke="#262626" stroke-width="0.75" stroke-miterlimit="10"/>
<path d="M529.66 104.94C528.157 101.977 525.867 99.4858 523.04 97.74C519.941 95.9168 516.518 94.7113 512.96 94.19C508.838 93.4827 504.662 93.1481 500.48 93.19H493.95V70.6H497.2V1H480.79V70H477.53V139.6H500.48C504.66 139.61 508.835 139.276 512.96 138.6C516.533 138.102 519.975 136.91 523.09 135.09C525.9 133.363 528.187 130.905 529.71 127.98C531.439 124.394 532.263 120.438 532.11 116.46C532.245 112.478 531.404 108.523 529.66 104.94ZM513.66 121.17C512.945 122.389 511.907 123.385 510.66 124.05C509.306 124.737 507.845 125.19 506.34 125.39C504.563 125.659 502.767 125.789 500.97 125.78H493.97V106.96H500.97C502.767 106.953 504.562 107.08 506.34 107.34C507.857 107.548 509.322 108.037 510.66 108.78C511.907 109.445 512.945 110.441 513.66 111.66C514.421 113.142 514.783 114.796 514.71 116.46C514.767 118.097 514.395 119.721 513.63 121.17H513.66Z" stroke="#262626" stroke-width="0.75" stroke-miterlimit="10"/>
<path d="M461.35 74.51C458.253 72.6824 454.829 71.4766 451.27 70.96C449.86 70.73 448.41 70.53 446.92 70.39C449.101 70.2503 451.274 69.9999 453.43 69.64C456.989 69.1234 460.413 67.9176 463.51 66.09C466.305 64.3572 468.578 61.9004 470.09 58.98C471.819 55.3937 472.643 51.4384 472.49 47.46C472.641 43.4818 471.817 39.5271 470.09 35.94C468.587 32.9771 466.297 30.4858 463.47 28.74C460.371 26.9168 456.948 25.7113 453.39 25.19C449.27 24.466 445.093 24.1146 440.91 24.14H434.38V1H418V70H412V139.6H428.42V115.5H438.79C442.97 115.51 447.145 115.176 451.27 114.5C454.815 113.928 458.229 112.726 461.35 110.95C464.14 109.247 466.425 106.831 467.97 103.95C469.698 100.435 470.523 96.5441 470.37 92.63C470.517 88.7421 469.692 84.8789 467.97 81.39C466.433 78.5351 464.144 76.1557 461.35 74.51ZM434.42 37.96H441.42C443.217 37.9528 445.012 38.0798 446.79 38.34C448.3 38.5507 449.758 39.0389 451.09 39.78C452.335 40.4475 453.372 41.4437 454.09 42.66C454.851 44.1417 455.213 45.796 455.14 47.46C455.206 49.0947 454.844 50.7183 454.09 52.17C453.372 53.3863 452.335 54.3825 451.09 55.05C449.736 55.7371 448.275 56.1902 446.77 56.39C444.993 56.6587 443.197 56.7891 441.4 56.78H434.4L434.42 37.96ZM451.94 97.17C451.204 98.3458 450.168 99.3051 448.94 99.95C447.585 100.636 446.125 101.092 444.62 101.3C442.842 101.56 441.047 101.687 439.25 101.68H428.42V83.82H439.27C441.067 83.8109 442.863 83.9413 444.64 84.21C446.161 84.368 447.632 84.8414 448.96 85.6C450.196 86.1929 451.236 87.1261 451.96 88.29C452.693 89.6435 453.039 91.1728 452.96 92.71C453.029 94.2615 452.676 95.8027 451.94 97.17Z" stroke="#262626" stroke-width="0.75" stroke-miterlimit="10"/>
<path d="M371.3 54.54H357.19V65.39H371.3V54.54Z" stroke="#262626" stroke-width="0.75" stroke-miterlimit="10"/>
<path d="M388.19 15.41V54.54H393.37V65.4H388.19V70.01H401.16V84.41H364.19V96.6H399.13V111.1H364.19V125.1H401.16V139.6H347.77V70.01H371.68V15.41H349.41V1.01H410.56V15.41H388.19Z" stroke="#262626" stroke-width="0.75" stroke-miterlimit="10"/>
<path d="M325.59 1V27.6H296.98V1H280.57V70H272.5V139.6H288.92V111.09H317.53V139.6H333.94V70.6H342.01V1H325.59ZM317.53 96.6H288.92V70.6H296.98V42.09H325.59V70H317.53V96.6Z" stroke="#262626" stroke-width="0.75" stroke-miterlimit="10"/>
<path d="M232.75 15.41V27.59H267.7V42.1H232.75V56.11H269.72V70.6H265.06V84.41H242.69V139.6H226.18V84.41H203.9V70.01H216.34V1.01H269.72V15.41H232.75Z" stroke="#262626" stroke-width="0.75" stroke-miterlimit="10"/>
<path d="M202.5 70.6V1H186.66L157.09 46.12V1H141.25V70.6H143.88V139.6H160.29V115.5H170.66C174.84 115.51 179.015 115.176 183.14 114.5C186.686 113.932 190.1 112.729 193.22 110.95C196.013 109.248 198.302 106.831 199.85 103.95C201.57 100.432 202.391 96.5428 202.24 92.63C202.385 88.7434 201.564 84.8814 199.85 81.39C198.314 78.5234 196.021 76.1332 193.22 74.48C190.124 72.6494 186.7 71.4433 183.14 70.93C179.015 70.254 174.84 69.9195 170.66 69.93H157.48L186.66 25.41V70.6H202.5ZM160.29 83.82H171.14C172.941 83.8114 174.739 83.9418 176.52 84.21C178.04 84.372 179.511 84.8452 180.84 85.6C182.078 86.1891 183.12 87.1232 183.84 88.29C184.598 89.6358 184.965 91.1667 184.9 92.71C184.971 94.2824 184.604 95.8436 183.84 97.22C183.107 98.3989 182.071 99.3591 180.84 100C179.484 100.683 178.024 101.139 176.52 101.35C174.739 101.61 172.94 101.737 171.14 101.73H160.29V83.82Z" stroke="#262626" stroke-width="0.75" stroke-miterlimit="10"/>
<path d="M111.41 70.6H127.41V1H78.53L77.85 24.42C77.73 28.42 77.53 32.42 77.28 36.23C77.0761 39.6237 76.5945 42.995 75.84 46.31C75.3047 48.8622 74.2606 51.2803 72.77 53.42C72.1872 54.2756 71.3975 54.97 70.4744 55.4385C69.5513 55.9071 68.5247 56.1346 67.49 56.1H65.37V70.6H70.27C74.1925 70.7551 78.0508 69.5701 81.21 67.24C84.1845 64.8564 86.5439 61.7941 88.09 58.31C89.9897 54.1669 91.283 49.7718 91.93 45.26C92.7919 40.1467 93.3164 34.9822 93.5 29.8L94.09 15.5H110.98V70H93.09L66.92 139.6H84.39L88.52 127.22H115.4L119.63 139.6H137.48L111.41 70.6ZM93.03 113.87L102.03 87.38L110.96 113.87H93.03Z" stroke="#262626" stroke-width="0.75" stroke-miterlimit="10"/>
<path d="M34.79 33.54L59.95 1H40.95L17.51 33.16H17.42V1H1V139.6H17.42V84.5H44.09V139.6H60.52V70.6H61L34.79 33.54ZM17.42 70V36.9H17.51L40.99 70H17.42Z" stroke="#262626" stroke-width="0.75" stroke-miterlimit="10"/>
</svg>
