<svg width="363" height="142" viewBox="0 0 363 142" fill="none" xmlns="http://www.w3.org/2000/svg">
<path d="M345.88 70V139.6H362.3V70H345.88Z" stroke="#262626" stroke-width="0.75" stroke-miterlimit="10"/>
<path d="M335.22 104.94C333.72 101.975 331.429 99.483 328.6 97.74C325.501 95.9168 322.078 94.7113 318.52 94.19C314.398 93.4827 310.222 93.1481 306.04 93.19H299.51V70.6H306.28V1H290.44L260.87 46.12V1H245.03V69C243.92 68.9 242.78 68.85 241.62 68.85C238.109 68.8225 234.607 69.2187 231.19 70.03V1H214.77V56.1H196.77V1H180.31V54.54H175C174.925 55.0775 174.777 55.6023 174.56 56.1H162.26V1H145.85V70H139.22L113.15 1H95.09L68.89 70.6H70.89V139.6H124.26V125.1H87.26V111.1H122.26V96.6H87.26V84.4H124.26V70.6H135.09V139.6H150.93L180.49 94.48V139.6H196.33V70.6H229.09C228.35 70.82 227.62 71.07 226.9 71.34C222.708 72.9024 218.906 75.3594 215.76 78.54C212.627 81.7787 210.208 85.6384 208.66 89.87C207 94.6525 206.188 99.6881 206.26 104.75C206.188 109.874 207 114.972 208.66 119.82C210.137 124.043 212.492 127.904 215.57 131.15C218.638 134.331 222.375 136.79 226.51 138.35C231.175 140.084 236.123 140.932 241.1 140.85C245.245 140.893 249.369 140.244 253.3 138.93C256.931 137.668 260.315 135.783 263.3 133.36C266.175 130.938 268.581 128.01 270.4 124.72C272.344 121.32 273.646 117.591 274.24 113.72H258.14C257.729 116.064 256.881 118.309 255.64 120.34C253.611 123.594 250.374 125.91 246.64 126.78C244.871 127.157 243.068 127.348 241.26 127.35C238.852 127.366 236.467 126.875 234.26 125.91C232.099 124.912 230.194 123.435 228.69 121.59C227.052 119.466 225.818 117.06 225.05 114.49C224.103 111.345 223.648 108.074 223.7 104.79C223.652 101.602 224.107 98.426 225.05 95.38C225.818 92.8103 227.052 90.4037 228.69 88.28C230.194 86.4354 232.099 84.958 234.26 83.96C236.386 82.9183 238.723 82.3778 241.09 82.38C242.981 82.3756 244.861 82.6692 246.66 83.25C248.461 83.7322 250.157 84.5462 251.66 85.65C253.179 86.7897 254.451 88.2252 255.4 89.87C256.55 91.7566 257.333 93.8431 257.71 96.02H273.83C273.308 92.172 272.106 88.4474 270.28 85.02C268.544 81.7577 266.198 78.8587 263.37 76.48C260.525 73.993 257.233 72.069 253.67 70.81L252.91 70.55H260.91L290.48 25.43V70H283.09V139.6H306.09C310.27 139.61 314.445 139.276 318.57 138.6C322.129 138.083 325.553 136.878 328.65 135.05C331.462 133.326 333.75 130.867 335.27 127.94C336.999 124.354 337.823 120.398 337.67 116.42C337.798 112.451 336.958 108.511 335.22 104.94ZM104.03 18.38L112.95 44.87H94.95L104.03 18.38ZM86.56 70L90.49 58.22H117.37L121.37 70H86.56ZM150.91 115.12V70.6H180.09L150.91 115.12ZM319.19 121.12C318.476 122.34 317.438 123.337 316.19 124C314.835 124.684 313.375 125.137 311.87 125.34C310.089 125.608 308.291 125.739 306.49 125.73H299.49V106.96H306.49C308.29 106.953 310.089 107.08 311.87 107.34C313.386 107.551 314.85 108.04 316.19 108.78C317.438 109.443 318.476 110.44 319.19 111.66C319.959 113.139 320.325 114.795 320.25 116.46C320.318 118.096 319.953 119.721 319.19 121.17V121.12Z" stroke="#262626" stroke-width="0.75" stroke-miterlimit="10"/>
<path d="M62.44 70.6V1H46.03V27.6H17.42V1H1V139.6H17.42V105.9H17.51L41.42 139.6H61L34.79 102.54L59.49 70.6H62.44ZM17.51 102.16H17.42V42.09H46.03V70H40.94L17.51 102.16Z" stroke="#262626" stroke-width="0.75" stroke-miterlimit="10"/>
</svg>
