<svg xmlns="http://www.w3.org/2000/svg" fill="none" viewBox="0 0 124 124"><path fill="#FFD503" fill-rule="evenodd" d="M62.027 80.155 50.24 60.113 62.027 35.86v.001L76.09 6.982l33.02-6.997-47.083 80.17ZM14.88-.015 47.916 7.07 61 33.765l-11.976 24.28L14.88-.014Z" clip-rule="evenodd"/><path fill="#000" fill-rule="evenodd" d="M122.451 98.513c-.849 0-1.54-.697-1.54-1.55 0-.855.691-1.551 1.54-1.551.851 0 1.542.696 1.542 1.55 0 .854-.691 1.55-1.542 1.55Zm0-2.935a1.38 1.38 0 0 0-1.373 1.384 1.38 1.38 0 0 0 1.373 1.384 1.38 1.38 0 0 0 1.375-1.384 1.38 1.38 0 0 0-1.375-1.384Zm.77 2.22h-.342l-.412-.58h-.358v.58h-.29v-1.664h.737c.386 0 .613.21.613.53 0 .274-.163.436-.394.504l.446.63Zm-.347-1.121c0-.18-.128-.276-.342-.276h-.423v.559h.425c.207 0 .34-.11.34-.283Zm-9.476 14.807h-2.967v-5.628l-6.278-10.45h3.173l4.679 7.832 4.725-7.833h2.922l-6.254 10.406v5.673Zm-13.398 0-5.639-6.73-2.534 2.619v4.111H88.86V95.405h2.967v8.246l7.898-8.246h3.333l-6.71 7.19 7.122 8.889H100Zm-8.3 6.985h.774v5.454h-.635l-3.253-4.068v4.068h-.774v-5.454h.635l3.254 4.067v-4.067Zm-5.366-11.533c0 2.572-2.078 4.778-6.46 4.778-2.488 0-4.977-.781-6.3-1.929l1.027-2.321c1.278 1.034 3.31 1.769 5.273 1.769 2.489 0 3.538-.896 3.538-2.091 0-3.467-9.497-1.194-9.497-7.165 0-2.597 2.055-4.8 6.438-4.8 1.917 0 3.927.504 5.32 1.423l-.987 2.293c-1.437-.85-2.963-1.237-4.355-1.237-2.465 0-3.47.965-3.47 2.183 0 3.422 9.473 1.195 9.473 7.097Zm-8.587 12.21h-1.859v4.777h-.767v-4.777h-1.859v-.677h4.485v.677ZM67.36 97.931v13.553h-2.967V97.931h-5.297v-2.526h13.56l-1.083 2.526H67.36Zm-6.571 23.607v-3.069h.75v3.101c0 1.583-.86 2.415-2.293 2.415-1.425 0-2.292-.832-2.292-2.415v-3.101h.774v3.069c0 1.209.551 1.754 1.527 1.754.976 0 1.534-.545 1.534-1.754Zm-10.977-9.824c-4.954 0-8.605-3.515-8.605-8.27 0-4.754 3.651-8.268 8.605-8.268 4.953 0 8.606 3.492 8.606 8.268 0 4.778-3.653 8.27-8.606 8.27Zm0-13.92c-3.219 0-5.616 2.367-5.616 5.65 0 3.285 2.397 5.651 5.616 5.651s5.615-2.366 5.615-5.651c0-3.283-2.396-5.65-5.615-5.65Zm-6.843 20.675h.775v5.454h-.635l-3.254-4.068v4.068h-.775v-5.454h.635l3.254 4.067v-4.067Zm-4-11.533c0 2.572-2.078 4.778-6.46 4.778-2.489 0-4.977-.781-6.3-1.929l1.027-2.321c1.278 1.034 3.309 1.769 5.273 1.769 2.488 0 3.537-.896 3.537-2.091 0-3.467-9.496-1.194-9.496-7.165 0-2.597 2.055-4.8 6.438-4.8 1.916 0 3.926.504 5.319 1.423l-.986 2.293c-1.437-.85-2.963-1.237-4.357-1.237-2.464 0-3.47.965-3.47 2.183 0 3.422 9.475 1.195 9.475 7.097Zm-16.237 16.356c.597 0 1.109-.211 1.527-.654l.503.49c-.496.562-1.224.857-2.068.857-1.642 0-2.866-1.177-2.866-2.79s1.224-2.79 2.875-2.79c.835 0 1.563.288 2.06.849l-.504.491c-.418-.443-.93-.646-1.527-.646-1.223 0-2.129.889-2.129 2.096 0 1.209.906 2.097 2.13 2.097Zm-2.93-27.887h2.966v16.079h-2.967V95.405ZM6.976 111.484-.007 95.405H3.21l5.32 12.405 5.362-12.405h2.968L9.9 111.484H6.977Zm24.634 6.921c1.65 0 2.874 1.185 2.874 2.79 0 1.606-1.223 2.79-2.874 2.79-1.665 0-2.889-1.192-2.889-2.79 0-1.597 1.224-2.79 2.89-2.79Zm0 4.887c1.2 0 2.1-.888 2.1-2.097 0-1.207-.9-2.096-2.1-2.096-1.215 0-2.114.889-2.114 2.096 0 1.209.9 2.097 2.114 2.097Zm18.75.031c.936 0 1.34-.366 1.34-.842 0-1.332-3.284-.491-3.284-2.517 0-.842.65-1.559 2.075-1.559.635 0 1.294.171 1.742.483l-.255.624a2.796 2.796 0 0 0-1.486-.445c-.923 0-1.317.39-1.317.866 0 1.332 3.284.499 3.284 2.502 0 .834-.667 1.55-2.099 1.55-.83 0-1.643-.28-2.077-.686l.287-.607c.403.367 1.092.631 1.79.631Zm16.95-.078h2.937v.678h-3.711v-5.454h.775v4.776Zm15.465.678H82v-5.454h.775v5.454Zm17.198-5.518c.861 0 1.589.288 2.083.841l-.479.484c-.449-.437-.96-.631-1.573-.631-1.254 0-2.16.88-2.16 2.096 0 1.201.906 2.097 2.153 2.097.456 0 .883-.102 1.27-.351v-1.777h.744v2.128c-.542.46-1.294.693-2.052.693-1.666 0-2.89-1.177-2.89-2.79s1.224-2.79 2.904-2.79Z" clip-rule="evenodd"/></svg>