<svg xmlns="http://www.w3.org/2000/svg" width="191" height="190" fill="none" viewBox="0 0 191 190"><path fill="#000" fill-rule="evenodd" d="M189.5.5h-18v18.25h18V.5zm.5 18.25V0H0v190h190v-18.75h.25v-.5H190v-18.5h.25v-.5H190v-18.5h.25v-.5H190v-18.5h.25v-.5H190v-18.5h.25v-.5H190v-18.5h.25v-.5H190v-18.5h.25v-.5H190v-18.5h.25v-.5H190v-18.5h.25v-.5H190zm-.5.5h-18v18.5h18v-18.5zm0 19h-18v18.5h18v-18.5zm0 19h-18v18.5h18v-18.5zm0 19h-18v18.5h18v-18.5zm0 19h-18v18.5h18v-18.5zm0 19h-18v18.5h18v-18.5zm0 19h-18v18.5h18v-18.5zm0 19h-18v18.5h18v-18.5zm0 19h-18v18.25h18v-18.25zm-18.5-.5v-18.5h-18.5v18.5H171zm-18.5.5H171v18.25h-18.5v-18.25zm-.5-.5v-18.5h-18.5v18.5H152zm-18.5.5H152v18.25h-18.5v-18.25zm-.5-.5v-18.5h-18.5v18.5H133zm-18.5.5H133v18.25h-18.5v-18.25zm-.5-.5v-18.5H95.5v18.5H114zm-18.5.5H114v18.25H95.5v-18.25zm-.5-.5v-18.5H76.5v18.5H95zm-18.5.5H95v18.25H76.5v-18.25zm-.5-.5v-18.5H57.5v18.5H76zm-18.5.5H76v18.25H57.5v-18.25zm-.5-.5v-18.5H38.5v18.5H57zm-18.5.5H57v18.25H38.5v-18.25zm-.5-.5v-18.5H19.5v18.5H38zm-18.5.5H38v18.25H19.5v-18.25zm-.5-.5v-18.5H.5v18.5H19zm-18.5.5H19v18.25H.5v-18.25zm0-19.5H19v-18.5H.5v18.5zm0-19H19v-18.5H.5v18.5zm0-19H19v-18.5H.5v18.5zm0-19H19v-18.5H.5v18.5zm0-19H19v-18.5H.5v18.5zm0-19H19v-18.5H.5v18.5zm0-19H19v-18.5H.5v18.5zm0-19H19V.5H.5v18.25zm19 .5v18.5H38v-18.5H19.5zm18.5-.5H19.5V.5H38v18.25zm.5.5v18.5H57v-18.5H38.5zm18.5-.5H38.5V.5H57v18.25zm.5.5v18.5H76v-18.5H57.5zm18.5-.5H57.5V.5H76v18.25zm.5.5v18.5H95v-18.5H76.5zm18.5-.5H76.5V.5H95v18.25zm.5.5v18.5H114v-18.5H95.5zm18.5-.5H95.5V.5H114v18.25zm.5.5v18.5H133v-18.5h-18.5zm18.5-.5h-18.5V.5H133v18.25zm.5.5v18.5H152v-18.5h-18.5zm18.5-.5h-18.5V.5H152v18.25zm.5.5v18.5H171v-18.5h-18.5zm18.5-.5h-18.5V.5H171v18.25zm0 19.5h-18.5v18.5H171v-18.5zm0 19h-18.5v18.5H171v-18.5zm0 19h-18.5v18.5H171v-18.5zm0 19h-18.5v18.5H171v-18.5zm0 19h-18.5v18.5H171v-18.5zm0 19h-18.5v18.5H171v-18.5zm-19 18.5v-18.5h-18.5v18.5H152zm-19 0v-18.5h-18.5v18.5H133zm-19 0v-18.5H95.5v18.5H114zm-19 0v-18.5H76.5v18.5H95zm-19 0v-18.5H57.5v18.5H76zm-19 0v-18.5H38.5v18.5H57zm-19 0v-18.5H19.5v18.5H38zm-18.5-19H38v-18.5H19.5v18.5zm0-19H38v-18.5H19.5v18.5zm0-19H38v-18.5H19.5v18.5zm0-19H38v-18.5H19.5v18.5zm0-19H38v-18.5H19.5v18.5zm19-18.5v18.5H57v-18.5H38.5zm19 0v18.5H76v-18.5H57.5zm19 0v18.5H95v-18.5H76.5zm19 0v18.5H114v-18.5H95.5zm19 0v18.5H133v-18.5h-18.5zm19 0v18.5H152v-18.5h-18.5zm18.5 19h-18.5v18.5H152v-18.5zm0 19h-18.5v18.5H152v-18.5zm0 19h-18.5v18.5H152v-18.5zm0 19h-18.5v18.5H152v-18.5zm-19 18.5v-18.5h-18.5v18.5H133zm-19 0v-18.5H95.5v18.5H114zm-19 0v-18.5H76.5v18.5H95zm-19 0v-18.5H57.5v18.5H76zm-19 0v-18.5H38.5v18.5H57zm-18.5-19H57v-18.5H38.5v18.5zm0-19H57v-18.5H38.5v18.5zm0-19H57v-18.5H38.5v18.5zm19-18.5v18.5H76v-18.5H57.5zm19 0v18.5H95v-18.5H76.5zm19 0v18.5H114v-18.5H95.5zm19 0v18.5H133v-18.5h-18.5zm18.5 19h-18.5v18.5H133v-18.5zm0 19h-18.5v18.5H133v-18.5zm-19 18.5v-18.5H95.5v18.5H114zm-19 0v-18.5H76.5v18.5H95zm-19 0v-18.5H57.5v18.5H76zm-18.5-19H76v-18.5H57.5v18.5zm19-18.5v18.5H95v-18.5H76.5zm19 0v18.5H114v-18.5H95.5z" clip-rule="evenodd" opacity=".3"/></svg>