<svg width="112" height="51" viewBox="0 0 112 51" fill="none" xmlns="http://www.w3.org/2000/svg">
<g clip-path="url(#clip0)">
<path d="M44.3991 42.2391C48.3793 37.7534 50.8039 31.8567 50.8039 25.402C50.8039 18.6862 48.1796 12.5757 43.9086 8.02877V8.02789C43.9051 8.02264 43.8998 8.02089 43.8972 8.01651C39.4484 3.28736 33.2152 0.260151 26.2823 0.0227742L26.2814 0.0218982L25.7865 0.0087593C25.6586 0.00437965 25.5307 0 25.402 0C25.2732 0 25.1453 0.00437965 25.0174 0.0087593L24.5243 0.0218982L24.5234 0.0227742C17.5904 0.260151 11.3573 3.28736 6.90846 8.01651C6.90495 8.02089 6.8997 8.02264 6.89707 8.02789C6.89707 8.02789 6.89707 8.02877 6.89619 8.02965C2.62429 12.5757 0 18.6862 0 25.402C0 31.8567 2.42457 37.7534 6.4048 42.2391C6.41005 42.247 6.41005 42.2557 6.41618 42.2636C6.43195 42.2855 6.45472 42.296 6.47137 42.3162C10.9439 47.316 17.3609 50.5368 24.5225 50.782L24.5234 50.7829L25.0165 50.796C25.1453 50.7995 25.2732 50.8039 25.402 50.8039C25.5307 50.8039 25.6586 50.7995 25.7865 50.7952L26.2796 50.782L26.2805 50.7811C33.45 50.535 39.8741 47.3081 44.3466 42.2978C44.3579 42.2829 44.3763 42.2785 44.3869 42.2627C44.3939 42.2557 44.3939 42.247 44.3991 42.2391ZM1.77376 26.2779H12.2875C12.3865 29.991 13.1118 33.5989 14.4029 36.9791C11.9118 37.8804 9.53011 39.0892 7.29824 40.5976C4.01614 36.6936 1.97347 31.7174 1.77376 26.2779ZM7.7765 9.65537C9.95582 11.0726 12.2762 12.2078 14.6963 13.0557C13.2143 16.6532 12.3944 20.5318 12.2875 24.526H1.77376C1.9831 18.8264 4.21497 13.6365 7.7765 9.65537ZM49.0302 24.526H38.5164C38.4095 20.5318 37.5896 16.6532 36.1076 13.0557C38.5278 12.2078 40.8481 11.0726 43.0274 9.65537C46.5889 13.6365 48.8208 18.8264 49.0302 24.526ZM24.526 13.1065C21.9937 13.0347 19.5078 12.6572 17.106 11.9827C18.8815 8.3406 21.3884 5.05324 24.526 2.31596V13.1065ZM24.526 14.8584V24.526H14.0394C14.1471 20.7175 14.946 17.0237 16.3746 13.5988C19.0077 14.3617 21.7414 14.7839 24.526 14.8584ZM26.2779 14.8584C29.0625 14.7839 31.7962 14.3626 34.4302 13.5988C35.8588 17.0237 36.6576 20.7175 36.7654 24.526H26.2779V14.8584ZM26.2779 13.1065V2.31596C29.4155 5.05324 31.9224 8.3406 33.6979 11.9827C31.2961 12.6572 28.8102 13.0347 26.2779 13.1065ZM35.3954 11.4502C33.7128 7.92453 31.3775 4.7125 28.4861 1.95945C33.6155 2.63042 38.2308 4.94988 41.7853 8.36951C39.7672 9.65012 37.6264 10.6802 35.3954 11.4502ZM15.4085 11.4502C13.1775 10.6802 11.0367 9.65012 9.01945 8.36951C12.5731 4.94988 17.1892 2.63042 22.3187 1.95945C19.4264 4.7125 17.0911 7.92453 15.4085 11.4502ZM14.0394 26.2779H24.526V35.0705C21.6293 35.1475 18.7913 35.5995 16.0637 36.4203C14.8312 33.2188 14.1384 29.7982 14.0394 26.2779ZM24.526 36.8223V48.488C21.1677 45.558 18.5347 41.9982 16.7443 38.0495C19.2556 37.3093 21.8641 36.8977 24.526 36.8223ZM26.2779 48.488V36.8223C28.9398 36.8968 31.5484 37.3093 34.0596 38.0486C32.2692 41.9982 29.6362 45.558 26.2779 48.488ZM26.2779 35.0705V26.2779H36.7645C36.6655 29.7982 35.9727 33.2188 34.7394 36.4212C32.0126 35.5995 29.1746 35.1475 26.2779 35.0705ZM38.5164 26.2779H49.0302C48.8304 31.7174 46.7887 36.6936 43.5057 40.5976C41.2738 39.0892 38.8921 37.8804 36.401 36.9791C37.693 33.5989 38.4174 29.991 38.5164 26.2779ZM8.48863 41.9097C10.5611 40.5328 12.7675 39.4256 15.073 38.5978C16.7767 42.4169 19.2223 45.897 22.3178 48.8445C16.93 48.1393 12.108 45.6167 8.48863 41.9097ZM28.4861 48.8445C31.5816 45.8978 34.0272 42.4178 35.7309 38.5978C38.0364 39.4256 40.242 40.5328 42.3153 41.9097C38.6959 45.6167 33.8739 48.1393 28.4861 48.8445Z" fill="white"/>
</g>
<g clip-path="url(#clip1)">
<mask id="mask0" mask-type="alpha" maskUnits="userSpaceOnUse" x="63" y="0" width="26" height="51">
<path d="M63.1422 0C66.4781 -3.97794e-08 69.7812 0.657041 72.8631 1.93361C75.945 3.21018 78.7453 5.08127 81.1041 7.44006C83.4629 9.79885 85.334 12.5991 86.6106 15.681C87.8871 18.763 88.5442 22.0661 88.5442 25.402C88.5442 28.7378 87.8871 32.041 86.6106 35.1229C85.334 38.2048 83.4629 41.0051 81.1041 43.3639C78.7453 45.7226 75.945 47.5937 72.8631 48.8703C69.7812 50.1469 66.4781 50.8039 63.1422 50.8039L63.1422 25.402V0Z" fill="#C4C4C4"/>
</mask>
<g mask="url(#mask0)">
<path d="M42.6934 42.2391C38.7132 37.7534 36.2886 31.8567 36.2886 25.402C36.2886 18.6862 38.9129 12.5757 43.1839 8.02877V8.02789C43.1874 8.02264 43.1927 8.02089 43.1953 8.01651C47.6442 3.28736 53.8773 0.260151 60.8103 0.0227742L60.8111 0.0218982L61.306 0.0087593C61.4339 0.00437965 61.5618 0 61.6906 0C61.8193 0 61.9472 0.00437965 62.0751 0.0087593L62.5683 0.0218982L62.5691 0.0227742C69.5021 0.260151 75.7352 3.28736 80.1841 8.01651C80.1876 8.02089 80.1928 8.02264 80.1955 8.02789C80.1955 8.02789 80.1955 8.02877 80.1963 8.02965C84.4682 12.5757 87.0925 18.6862 87.0925 25.402C87.0925 31.8567 84.668 37.7534 80.6877 42.2391C80.6825 42.247 80.6825 42.2557 80.6763 42.2636C80.6606 42.2855 80.6378 42.296 80.6212 42.3162C76.1487 47.316 69.7316 50.5368 62.57 50.782L62.5691 50.7829L62.076 50.796C61.9472 50.7995 61.8193 50.8039 61.6906 50.8039C61.5618 50.8039 61.4339 50.7995 61.306 50.7952L60.8129 50.782L60.812 50.7811C53.6425 50.535 47.2185 47.3081 42.746 42.2978C42.7346 42.2829 42.7162 42.2785 42.7057 42.2627C42.6987 42.2557 42.6987 42.247 42.6934 42.2391ZM85.3188 26.2779H74.805C74.706 29.991 73.9807 33.5989 72.6896 36.9791C75.1808 37.8804 77.5624 39.0892 79.7943 40.5976C83.0764 36.6936 85.1191 31.7174 85.3188 26.2779ZM79.316 9.65537C77.1367 11.0726 74.8164 12.2078 72.3962 13.0557C73.8783 16.6532 74.6981 20.5318 74.805 24.526H85.3188C85.1094 18.8264 82.8776 13.6365 79.316 9.65537ZM38.0624 24.526H48.5762C48.683 20.5318 49.5029 16.6532 50.985 13.0557C48.5648 12.2078 46.2444 11.0726 44.0651 9.65537C40.5036 13.6365 38.2717 18.8264 38.0624 24.526ZM62.5665 13.1065C65.0988 13.0347 67.5847 12.6572 69.9865 11.9827C68.211 8.3406 65.7041 5.05324 62.5665 2.31596V13.1065ZM62.5665 14.8584V24.526H73.0531C72.9454 20.7175 72.1465 17.0237 70.7179 13.5988C68.0849 14.3617 65.3511 14.7839 62.5665 14.8584ZM60.8146 14.8584C58.0301 14.7839 55.2963 14.3626 52.6624 13.5988C51.2337 17.0237 50.4349 20.7175 50.3271 24.526H60.8146V14.8584ZM60.8146 13.1065V2.31596C57.6771 5.05324 55.1702 8.3406 53.3946 11.9827C55.7964 12.6572 58.2823 13.0347 60.8146 13.1065ZM51.6971 11.4502C53.3798 7.92453 55.715 4.7125 58.6064 1.95945C53.477 2.63042 48.8617 4.94988 45.3072 8.36951C47.3253 9.65012 49.4661 10.6802 51.6971 11.4502ZM71.6841 11.4502C73.915 10.6802 76.0558 9.65012 78.0731 8.36951C74.5194 4.94988 69.9033 2.63042 64.7738 1.95945C67.6662 4.7125 70.0014 7.92453 71.6841 11.4502ZM73.0531 26.2779H62.5665V35.0705C65.4632 35.1475 68.3012 35.5995 71.0289 36.4203C72.2613 33.2188 72.9542 29.7982 73.0531 26.2779ZM62.5665 36.8223V48.488C65.9248 45.558 68.5579 41.9982 70.3483 38.0495C67.837 37.3093 65.2285 36.8977 62.5665 36.8223ZM60.8146 48.488V36.8223C58.1527 36.8968 55.5442 37.3093 53.0329 38.0486C54.8233 41.9982 57.4563 45.558 60.8146 48.488ZM60.8146 35.0705V26.2779H50.328C50.427 29.7982 51.1199 33.2188 52.3532 36.4212C55.0799 35.5995 57.9179 35.1475 60.8146 35.0705ZM48.5762 26.2779H38.0624C38.2621 31.7174 40.3039 36.6936 43.5869 40.5976C45.8187 39.0892 48.2004 37.8804 50.6915 36.9791C49.3995 33.5989 48.6751 29.991 48.5762 26.2779ZM78.6039 41.9097C76.5314 40.5328 74.325 39.4256 72.0195 38.5978C70.3159 42.4169 67.8703 45.897 64.7747 48.8445C70.1626 48.1393 74.9846 45.6167 78.6039 41.9097ZM58.6064 48.8445C55.5109 45.8978 53.0653 42.4178 51.3616 38.5978C49.0562 39.4256 46.8506 40.5328 44.7773 41.9097C48.3966 45.6167 53.2186 48.1393 58.6064 48.8445Z" fill="white"/>
</g>
</g>
<g clip-path="url(#clip2)">
<mask id="mask1" mask-type="alpha" maskUnits="userSpaceOnUse" x="100" y="0" width="26" height="51">
<path d="M100.156 0C103.492 -3.97794e-08 106.795 0.657041 109.877 1.93361C112.959 3.21018 115.759 5.08127 118.118 7.44006C120.477 9.79885 122.348 12.5991 123.625 15.681C124.901 18.763 125.558 22.0661 125.558 25.402C125.558 28.7378 124.901 32.041 123.625 35.1229C122.348 38.2048 120.477 41.0051 118.118 43.3639C115.759 45.7226 112.959 47.5937 109.877 48.8703C106.795 50.1469 103.492 50.8039 100.156 50.8039L100.156 25.402V0Z" fill="#C4C4C4"/>
</mask>
<g mask="url(#mask1)">
<path d="M66.6439 42.2391C62.6636 37.7534 60.2391 31.8567 60.2391 25.402C60.2391 18.6862 62.8633 12.5757 67.1344 8.02877V8.02789C67.1379 8.02264 67.1431 8.02089 67.1458 8.01651C71.5946 3.28736 77.8277 0.260151 84.7607 0.0227742L84.7616 0.0218982L85.2565 0.0087593C85.3844 0.00437965 85.5123 0 85.641 0C85.7698 0 85.8977 0.00437965 86.0255 0.0087593L86.5187 0.0218982L86.5196 0.0227742C93.4526 0.260151 99.6857 3.28736 104.135 8.01651C104.138 8.02089 104.143 8.02264 104.146 8.02789C104.146 8.02789 104.146 8.02877 104.147 8.02965C108.419 12.5757 111.043 18.6862 111.043 25.402C111.043 31.8567 108.618 37.7534 104.638 42.2391C104.633 42.247 104.633 42.2557 104.627 42.2636C104.611 42.2855 104.588 42.296 104.572 42.3162C100.099 47.316 93.682 50.5368 86.5204 50.782L86.5196 50.7829L86.0264 50.796C85.8977 50.7995 85.7698 50.8039 85.641 50.8039C85.5123 50.8039 85.3844 50.7995 85.2565 50.7952L84.7633 50.782L84.7625 50.7811C77.593 50.535 71.1689 47.3081 66.6964 42.2978C66.685 42.2829 66.6666 42.2785 66.6561 42.2627C66.6491 42.2557 66.6491 42.247 66.6439 42.2391ZM109.269 26.2779H98.7554C98.6564 29.991 97.9312 33.5989 96.6401 36.9791C99.1312 37.8804 101.513 39.0892 103.745 40.5976C107.027 36.6936 109.069 31.7174 109.269 26.2779ZM103.266 9.65537C101.087 11.0726 98.7668 12.2078 96.3466 13.0557C97.8287 16.6532 98.6486 20.5318 98.7554 24.526H109.269C109.06 18.8264 106.828 13.6365 103.266 9.65537ZM62.0128 24.526H72.5266C72.6335 20.5318 73.4533 16.6532 74.9354 13.0557C72.5152 12.2078 70.1949 11.0726 68.0156 9.65537C64.454 13.6365 62.2222 18.8264 62.0128 24.526ZM86.5169 13.1065C89.0493 13.0347 91.5351 12.6572 93.9369 11.9827C92.1614 8.3406 89.6545 5.05324 86.5169 2.31596V13.1065ZM86.5169 14.8584V24.526H97.0036C96.8958 20.7175 96.097 17.0237 94.6683 13.5988C92.0353 14.3617 89.3015 14.7839 86.5169 14.8584ZM84.7651 14.8584C81.9805 14.7839 79.2467 14.3626 76.6128 13.5988C75.1842 17.0237 74.3853 20.7175 74.2776 24.526H84.7651V14.8584ZM84.7651 13.1065V2.31596C81.6275 5.05324 79.1206 8.3406 77.3451 11.9827C79.7469 12.6572 82.2328 13.0347 84.7651 13.1065ZM75.6475 11.4502C77.3302 7.92453 79.6654 4.7125 82.5569 1.95945C77.4274 2.63042 72.8121 4.94988 69.2576 8.36951C71.2758 9.65012 73.4165 10.6802 75.6475 11.4502ZM95.6345 11.4502C97.8655 10.6802 100.006 9.65012 102.024 8.36951C98.4699 4.94988 93.8537 2.63042 88.7243 1.95945C91.6166 4.7125 93.9518 7.92453 95.6345 11.4502ZM97.0036 26.2779H86.5169V35.0705C89.4136 35.1475 92.2517 35.5995 94.9793 36.4203C96.2117 33.2188 96.9046 29.7982 97.0036 26.2779ZM86.5169 36.8223V48.488C89.8753 45.558 92.5083 41.9982 94.2987 38.0495C91.7874 37.3093 89.1789 36.8977 86.5169 36.8223ZM84.7651 48.488V36.8223C82.1031 36.8968 79.4946 37.3093 76.9833 38.0486C78.7737 41.9982 81.4068 45.558 84.7651 48.488ZM84.7651 35.0705V26.2779H74.2785C74.3774 29.7982 75.0703 33.2188 76.3036 36.4212C79.0304 35.5995 81.8684 35.1475 84.7651 35.0705ZM72.5266 26.2779H62.0128C62.2125 31.7174 64.2543 36.6936 67.5373 40.5976C69.7692 39.0892 72.1508 37.8804 74.642 36.9791C73.35 33.5989 72.6256 29.991 72.5266 26.2779ZM102.554 41.9097C100.482 40.5328 98.2754 39.4256 95.97 38.5978C94.2663 42.4169 91.8207 45.897 88.7252 48.8445C94.113 48.1393 98.935 45.6167 102.554 41.9097ZM82.5569 48.8445C79.4613 45.8978 77.0157 42.4178 75.312 38.5978C73.0066 39.4256 70.801 40.5328 68.7277 41.9097C72.347 45.6167 77.169 48.1393 82.5569 48.8445Z" fill="white"/>
</g>
</g>
<defs>
<clipPath id="clip0">
<rect width="50.8039" height="50.8039" fill="white"/>
</clipPath>
<clipPath id="clip1">
<rect width="50.8039" height="50.8039" fill="white" transform="matrix(-1 0 0 1 87.0925 0)"/>
</clipPath>
<clipPath id="clip2">
<rect width="50.8039" height="50.8039" fill="white" transform="matrix(-1 0 0 1 111.043 0)"/>
</clipPath>
</defs>
</svg>
