<svg width="149" height="170" viewBox="0 0 149 170" fill="none" xmlns="http://www.w3.org/2000/svg">
<path fill-rule="evenodd" clip-rule="evenodd" d="M54.5647 45.2516L40.9236 52.3593L62.2467 93.2828L75.8878 86.1751L82.9954 99.8162L123.919 78.493L116.811 64.8519L75.8878 86.175L54.5647 45.2516ZM82.9955 99.8162L69.3543 106.924L90.6775 147.847L104.319 140.74L82.9955 99.8162ZM21.3231 114.606L28.4308 128.247L69.3543 106.924L62.2466 93.2827L21.3231 114.606Z" fill="#262626"/>
<path fill-rule="evenodd" clip-rule="evenodd" d="M108.163 9.54321L102.059 12.7239L111.601 31.0372L117.706 27.8565L108.163 9.54321ZM120.886 33.9609L114.782 37.1416L124.324 55.4549L130.428 52.2742L120.886 33.9609ZM120.885 33.9537L117.704 27.8493L136.018 18.3071L139.198 24.4116L120.885 33.9537ZM93.2877 40.5793L96.4684 46.6837L114.782 37.1416L111.601 31.0372L93.2877 40.5793Z" fill="#262626"/>
</svg>
