<svg xmlns="http://www.w3.org/2000/svg" fill-rule="evenodd" clip-rule="evenodd" viewBox="0 0 128 128"><g opacity=".3"><path fill="#dfdddf" fill-rule="nonzero" d="M16.137 106.421C6.109 95.119 0 80.263 0 64c0-16.92 6.612-32.316 17.373-43.772v-.002c.004-.007.01-.011.015-.015.005-.004.01-.008.013-.013C28.61 8.282 44.314.655 61.782.057l.002-.002 1.247-.033C63.353.011 63.676 0 64 0c.324 0 .646.011.969.022l1.242.033.002.002c17.468.598 33.172 8.225 44.381 20.141l.013.011c.006.005.012.01.016.017l.002.005C121.388 31.684 128 47.08 128 64c0 16.263-6.109 31.119-16.137 42.421-.006.009-.009.019-.012.029a.125.125 0 01-.016.033.423.423 0 01-.075.072.451.451 0 00-.064.06c-11.269 12.597-27.437 20.712-45.48 21.33l-.003.002-1.242.033-.165.005c-.269.008-.537.015-.806.015-.324 0-.647-.011-.969-.022l-1.242-.033-.002-.002c-18.064-.62-34.249-8.751-45.518-21.374-.013-.018-.031-.03-.049-.042-.019-.013-.038-.026-.052-.046a.09.09 0 01-.019-.034.123.123 0 00-.012-.026zm107.394-40.214H97.042a81.579 81.579 0 01-5.33 26.962 81.393 81.393 0 0117.9 9.116c8.269-9.836 13.416-22.373 13.919-36.078zm-15.124-41.88a81.216 81.216 0 01-17.434 8.567c3.734 9.064 5.799 18.836 6.069 28.899h26.489c-.527-14.36-6.151-27.436-15.124-37.466zM4.469 61.793h26.489c.27-10.063 2.335-19.835 6.069-28.899a81.216 81.216 0 01-17.434-8.567C10.62 34.357 4.996 47.433 4.469 61.793zm61.738-28.771a77.112 77.112 0 0018.694-2.832c-4.473-9.176-10.789-17.458-18.694-24.355v27.187zm0 4.414v24.357h26.421c-.272-9.595-2.284-18.902-5.884-27.531a81.565 81.565 0 01-20.537 3.174zm-4.414 0c-7.016-.188-13.903-1.249-20.54-3.174-3.599 8.629-5.612 17.936-5.883 27.531h26.423V37.436zm0-4.414V5.835c-7.905 6.897-14.221 15.179-18.694 24.355a77.112 77.112 0 0018.694 2.832zm-22.972-4.173c4.24-8.883 10.123-16.976 17.408-23.912-12.923 1.69-24.551 7.534-33.507 16.15a76.82 76.82 0 0016.099 7.762zm50.358 0a76.734 76.734 0 0016.097-7.762c-8.954-8.616-20.584-14.46-33.508-16.15 7.288 6.936 13.171 15.029 17.411 23.912zm3.449 37.358H66.207V88.36c7.298.194 14.448 1.333 21.321 3.401a77.076 77.076 0 005.1-25.554zM66.207 92.774v29.391c8.461-7.382 15.095-16.351 19.606-26.3a76.902 76.902 0 00-19.606-3.091zm-4.414 29.391V92.774a76.9 76.9 0 00-19.606 3.089c4.511 9.951 11.145 18.92 19.606 26.302zm0-33.805V66.207H35.372a77.074 77.074 0 005.102 25.556c6.871-2.07 14.021-3.209 21.319-3.403zM30.958 66.207H4.469c.503 13.705 5.647 26.242 13.919 36.078a81.393 81.393 0 0117.9-9.116 81.528 81.528 0 01-5.33-26.962zm75.655 39.384a76.92 76.92 0 00-16.589-8.344 81.443 81.443 0 01-18.253 25.816c13.574-1.776 25.723-8.132 34.842-17.472zm-50.384 17.472a81.399 81.399 0 01-18.253-25.816 76.966 76.966 0 00-16.589 8.344c9.119 9.34 21.268 15.696 34.842 17.472z"/><path fill="none" stroke="#131313" stroke-width=".36" d="M16.137 106.421C6.109 95.119 0 80.263 0 64c0-16.92 6.612-32.316 17.373-43.772v-.002c.004-.007.01-.011.015-.015.005-.004.01-.008.013-.013C28.61 8.282 44.314.655 61.782.057l.002-.002 1.247-.033C63.353.011 63.676 0 64 0c.324 0 .646.011.969.022h0l1.242.033.002.002c17.468.598 33.172 8.225 44.381 20.141l.013.011c.006.005.012.01.016.017l.002.005C121.388 31.684 128 47.08 128 64c0 16.263-6.109 31.119-16.137 42.421-.006.009-.009.019-.012.029a.125.125 0 01-.016.033.423.423 0 01-.075.072.451.451 0 00-.064.06c-11.269 12.597-27.437 20.712-45.48 21.33l-.003.002-1.242.033-.165.005c-.269.008-.537.015-.806.015-.324 0-.647-.011-.969-.022l-1.242-.033-.002-.002c-18.064-.62-34.249-8.751-45.518-21.374-.013-.018-.031-.03-.049-.042-.019-.013-.038-.026-.052-.046a.09.09 0 01-.019-.034.123.123 0 00-.012-.026zm107.394-40.214H97.042a81.579 81.579 0 01-5.33 26.962 81.393 81.393 0 0117.9 9.116c8.269-9.836 13.416-22.373 13.919-36.078zm-15.124-41.88a81.216 81.216 0 01-17.434 8.567c3.734 9.064 5.799 18.836 6.069 28.899h26.489c-.527-14.36-6.151-27.436-15.124-37.466zM4.469 61.793h26.489c.27-10.063 2.335-19.835 6.069-28.899a81.216 81.216 0 01-17.434-8.567C10.62 34.357 4.996 47.433 4.469 61.793zm61.738-28.771a77.112 77.112 0 0018.694-2.832c-4.473-9.176-10.789-17.458-18.694-24.355v27.187zm0 4.414v24.357h26.421c-.272-9.595-2.284-18.902-5.884-27.531a81.565 81.565 0 01-20.537 3.174zm-4.414 0c-7.016-.188-13.903-1.249-20.54-3.174-3.599 8.629-5.612 17.936-5.883 27.531h26.423V37.436zm0-4.414V5.835c-7.905 6.897-14.221 15.179-18.694 24.355a77.112 77.112 0 0018.694 2.832zm-22.972-4.173c4.24-8.883 10.123-16.976 17.408-23.912-12.923 1.69-24.551 7.534-33.507 16.15a76.82 76.82 0 0016.099 7.762zm50.358 0a76.734 76.734 0 0016.097-7.762c-8.954-8.616-20.584-14.46-33.508-16.15 7.288 6.936 13.171 15.029 17.411 23.912zm3.449 37.358H66.207V88.36c7.298.194 14.448 1.333 21.321 3.401a77.076 77.076 0 005.1-25.554zM66.207 92.774v29.391c8.461-7.382 15.095-16.351 19.606-26.3a76.902 76.902 0 00-19.606-3.091zm-4.414 29.391V92.774a76.9 76.9 0 00-19.606 3.089c4.511 9.951 11.145 18.92 19.606 26.302zm0-33.805V66.207H35.372a77.074 77.074 0 005.102 25.556c6.871-2.07 14.021-3.209 21.319-3.403zM30.958 66.207H4.469c.503 13.705 5.647 26.242 13.919 36.078a81.393 81.393 0 0117.9-9.116 81.528 81.528 0 01-5.33-26.962zm75.655 39.384a76.92 76.92 0 00-16.589-8.344 81.443 81.443 0 01-18.253 25.816c13.574-1.776 25.723-8.132 34.842-17.472zm-50.384 17.472a81.399 81.399 0 01-18.253-25.816 76.966 76.966 0 00-16.589 8.344c9.119 9.34 21.268 15.696 34.842 17.472z"/></g></svg>