<svg xmlns="http://www.w3.org/2000/svg" fill-rule="evenodd" clip-rule="evenodd" viewBox="0 0 105 156"><path fill="none" stroke="#262626" stroke-opacity=".2" stroke-width=".22" d="M27.244 154.154l-.001-.002c-.208-.14-10.803-7.772-18.593-21.203-7.788-13.425-12.771-32.644-1.772-55.98 6.18-13.097 11.331-22.904 15.497-30.78v-.001c5.144-9.761 8.685-16.481 10.673-22.829 1.99-6.355 2.424-12.335 1.365-20.62a2.003 2.003 0 01.169-1.083v-.001a1.964 1.964 0 012.619-.96v.001h.002c.176.079 9.377 4.483 18.932 13.896 9.553 9.412 19.455 23.827 21.049 43.932 1.251 15.982.601 26.944-.665 34.385l.207.075a73.767 73.767 0 009.46-40.381V52.6a1.995 1.995 0 01.829-1.8 1.976 1.976 0 012.746.478l.093.139c.799 1.181 5.541 8.19 9.416 18.262 4.084 10.616 7.202 24.622 3.738 38.788l.108.027-.108-.027c-6.853 28.123-28.129 44.856-29.044 45.567a1.982 1.982 0 01-1.704.339 1.983 1.983 0 01-1.394-2.428c.061-.225 4.697-17.537 5.831-28.609l.024-.241-.199.137c-2.026 1.391-4.682 3.156-7.367 4.734-2.687 1.579-5.394 2.968-7.525 3.613a1.983 1.983 0 01-2.158-.724l-.001-.002-.002-.001c-.711-.9-15.513-21.585-14.83-49.159l.006-.242-.188.152c-4.067 3.28-10.851 10.085-15.02 21.428-4.168 11.343-5.716 27.216.678 48.624l.002.008.004.007c.124.266.19.548.194.829a1.976 1.976 0 01-1.946 2.01c-.404 0-.795-.124-1.125-.355zM10.411 78.661l-.075.16h.03c-8.043 17.158-7.022 31.806-2.726 43.335 4.308 11.56 11.908 19.979 16.949 24.649l.273.253-.088-.362c-6.241-25.524-1.038-43.202 5.755-54.521 6.679-11.129 14.9-16.119 15.32-16.373l.013-.008a1.911 1.911 0 011.144-.252l.001.001a1.969 1.969 0 011.794 2.133v.001c-2.03 24.371 9.624 44.452 12.945 49.568l.05.078.086-.035c3.051-1.23 6.983-3.63 10.162-5.729a135.37 135.37 0 005.672-3.95 1.953 1.953 0 011.171-.383c1.084 0 1.967.889 1.967 1.981 0 7.109-2.677 19.439-4.526 27.118l-.093.387.281-.281c6.645-6.642 18.09-20.249 22.612-38.811 4.587-18.878-3.582-37.973-8.789-47.585l-.194-.36-.016.409a75.549 75.549 0 01-19.202 47.565c-.771.7-1.952.678-2.697-.053h-.001a1.983 1.983 0 01-.032-2.796l.003-.003.002-.004a8.911 8.911 0 001.284-2.03c2.288-4.608 5.812-16.425 3.672-43.955C70.769 28.005 47.662 11.36 38.875 6.11l-.185-.111.016.216c1.161 15.152-3.248 23.521-12.866 41.783l-.01.018-.464.883c-4.044 7.701-9.04 17.218-14.955 29.762z"/></svg>