<svg xmlns="http://www.w3.org/2000/svg" width="582" height="600" fill="none" viewBox="0 0 582 600"><g clip-path="url(#clip0)" opacity=".2"><path stroke="#262626" d="M73.47 501.956l.024.026.019.028a.907.907 0 01.102.208l.007.019.004.003.027.042c0-.002.002.007.09.066l.017.012c.072.048.21.139.322.279 51.192 57.341 124.715 94.27 206.769 97.087l.197.007.009.008 5.454.146h.004c1.468.05 2.925.1 4.392.1 1.217 0 2.426-.034 3.648-.069l.757-.021 5.455-.145.008-.009.198-.007c81.965-2.807 155.41-39.667 206.602-96.891.12-.144.259-.255.356-.333l.028-.023c.108-.087.171-.143.218-.207l.005-.015.003-.01a.997.997 0 01.116-.247l.019-.028.023-.026c45.557-51.342 73.307-118.834 73.307-192.712 0-76.865-30.035-146.802-78.929-198.836a.426.426 0 01-.058-.072l-.01-.008a.638.638 0 01-.084-.083C451.648 56.121 380.31 21.478 300.963 18.761l-.198-.007-.008-.008-5.455-.146h-.004c-1.467-.05-2.925-.1-4.391-.1-1.467 0-2.924.05-4.392.1h-.004l-5.475.146-.008.008-.197.007c-79.34 2.716-150.673 37.354-201.593 91.47a.706.706 0 01-.078.085l-.075.079C30.2 162.44.163 232.378.163 309.244c0 73.878 27.75 141.37 73.308 192.712zM502.7 110.365l.001.001-.001-.001zm59.113 208.421h.519l-.019.519c-2.294 62.481-25.758 119.641-63.457 164.484l-.29.345-.373-.252c-25.555-17.271-52.825-31.111-81.348-41.432l-.479-.173.182-.475c14.783-38.703 23.087-80.014 24.221-122.529l.013-.487H561.813zm-69.096-190.502l.359-.234.286.319c40.909 45.729 66.546 105.343 68.951 170.813l.019.519h-121.55l-.013-.487c-1.224-45.736-10.612-90.145-27.581-131.334l-.201-.488.498-.175a368.915 368.915 0 0079.232-38.933zM20 299.701h-.519l.02-.519c2.404-65.47 28.041-125.084 68.95-170.813l.286-.319.36.234a368.906 368.906 0 0079.231 38.933l.498.175-.201.488c-16.969 41.189-26.357 85.598-27.581 131.334l-.013.487H20zm280.964-130.93l-.515.015V43.453l.829.724c36.024 31.427 64.808 69.172 85.194 110.99l.263.539-.577.162c-27.577 7.744-56.12 12.079-85.194 12.903zm-.515 19.586v-.486l.487-.013c31.885-.853 63.186-5.687 93.333-14.423l.429-.124.172.412c16.404 39.325 25.576 81.736 26.813 125.464l.014.514H300.449V188.357zm-19.572-.499l.487.013v111.83H160.106l.015-.514c1.237-43.728 10.409-86.139 26.812-125.464l.172-.412.429.125c30.157 8.745 61.459 13.569 93.343 14.422zm.487-19.586v.514l-.514-.015c-29.075-.824-57.617-5.159-85.195-12.903l-.576-.162.262-.539c20.386-41.818 49.17-79.563 85.194-110.99l.829-.723v124.818zm-104.585-18.776l-.193.403-.422-.146c-25.616-8.84-50.196-20.668-73.367-35.371l-.538-.341.459-.442C143.546 74.32 196.56 47.677 255.481 39.97l1.519-.199-1.11 1.057c-33.108 31.523-59.846 68.301-79.111 108.668zm228.87.257l-.422.146-.192-.403c-19.266-40.367-46.004-77.145-79.122-108.668l-1.11-1.057 1.519.2c58.921 7.706 111.945 34.35 152.763 73.628l.459.442-.537.341c-23.162 14.703-47.742 26.531-73.358 35.371zm15.534 169.033h.514l-.014.514c-1.137 40.419-9.092 79.693-23.243 116.453l-.166.432-.444-.133c-31.231-9.397-63.725-14.573-96.894-15.455l-.487-.013V318.786h120.734zM300.449 440.183v-.515l.515.015c30.562.865 60.513 5.591 89.348 14.09l.551.163-.237.523c-20.557 45.339-50.79 86.211-89.348 119.851l-.829.723v-134.85zm-19.085 133.751v1.099l-.829-.723c-38.558-33.64-68.79-74.512-89.348-119.861l-.237-.524.552-.162c28.834-8.489 58.785-13.225 89.348-14.08l.514-.015v134.266zm0-153.837v.487l-.487.013c-33.168.882-65.663 6.058-96.883 15.465l-.444.134-.167-.433c-14.161-36.77-22.116-76.044-23.252-116.463l-.015-.514H281.364v101.311zM140.545 318.786h.486l.013.487c1.134 42.515 9.428 83.826 24.221 122.529l.182.475-.479.173c-28.523 10.321-55.793 24.161-81.348 41.432l-.373.252-.29-.345C45.248 438.946 21.795 381.786 19.5 319.305l-.019-.519H140.545zm344.556 179.309l.503.334-.422.432c-41.572 42.579-96.961 71.556-158.85 79.656l-1.519.199 1.11-1.057c35.444-33.749 63.446-73.596 82.953-117.323l.189-.424.436.157c26.471 9.504 51.805 22.217 75.6 38.026zM255.89 577.659l1.111 1.057-1.52-.199c-61.889-8.1-117.277-37.077-158.85-79.656l-.422-.432.503-.334c23.805-15.809 49.129-28.522 75.6-38.026l.437-.157.189.424c19.506 43.737 47.508 83.584 82.952 117.323z"/></g><defs><clipPath id="clip0"><path fill="#fff" d="M0 0h582v600H0z" transform="matrix(-1 0 0 1 582 0)"/></clipPath></defs></svg>