<svg xmlns="http://www.w3.org/2000/svg" fill-rule="evenodd" stroke-linejoin="round" stroke-miterlimit="2" clip-rule="evenodd" viewBox="0 0 122 181"><path fill="#fff" fill-opacity=".32" fill-rule="nonzero" d="M31.361 179.575c.408.286.893.439 1.393.439a2.44 2.44 0 002.168-3.5c-14.954-49.928 7.25-73.989 16.745-81.627-.801 32.229 16.546 56.403 17.388 57.464a2.458 2.458 0 002.668.893c5.021-1.516 12.724-6.51 17.469-9.76-1.326 12.923-6.76 33.147-6.821 33.372a2.446 2.446 0 001.725 2.995 2.454 2.454 0 002.106-.418c1.062-.822 26.011-20.378 34.046-53.26 8.128-33.143-14.632-65.51-15.525-66.857a2.449 2.449 0 00-3.398-.592 2.461 2.461 0 00-1.026 2.22 85.773 85.773 0 01-11.056 47.061c1.485-8.7 2.245-21.505.781-40.169C86.284 20.822 43.58.424 43.147.23a2.431 2.431 0 00-3.24 1.184 2.454 2.454 0 00-.209 1.336c2.474 19.311-2.031 27.842-14.077 50.637-4.877 9.194-10.908 20.643-18.142 35.934-25.796 54.571 23.377 89.912 23.882 90.254zm-19.51-88.168C19.04 76.204 25.07 64.811 29.897 55.643 41.162 34.316 46.346 24.515 44.983 6.781c10.276 6.122 37.276 25.52 40.066 61.408 2.506 32.127-1.622 45.892-4.285 51.239a10.306 10.306 0 01-1.485 2.342 2.44 2.44 0 003.383 3.51 88.187 88.187 0 0022.515-55.607c6.092 11.214 15.632 33.464 10.275 55.449-5.286 21.632-18.663 37.494-26.433 45.239 2.163-8.959 5.301-23.367 5.301-31.683a2.442 2.442 0 00-2.434-2.444c-.525 0-1.031.163-1.449.474-.132.102-11.387 8.419-18.505 11.281-3.882-5.964-17.505-29.373-15.132-57.775a2.433 2.433 0 00-2.22-2.633 2.373 2.373 0 00-1.418.311c-.362.225-39.372 23.25-24.745 82.903-11.785-10.888-35.52-39.24-16.53-79.388h-.036z"/></svg>