<svg xmlns="http://www.w3.org/2000/svg" fill="none" viewBox="0 0 69 26">
  <path fill="#7E4DD2" fill-rule="evenodd" d="M23.777 1.574a.698.698 0 00-.697-.697H1.233a.698.698 0 00-.698.697V23.42c0 .385.313.697.698.697H23.08a.698.698 0 00.697-.697V1.574z" clip-rule="evenodd"/>
  <path fill="#7140C2" fill-rule="evenodd" d="M23.777 1.574a.698.698 0 00-.697-.697H10.064L.535 17.38v6.04c0 .385.313.697.698.697H23.08a.698.698 0 00.697-.697V1.574z" clip-rule="evenodd"/>
  <path fill="#58328A" d="M24.073 24.413l-8.544.002-4.937-8.55h13.494c-.003 2.847-.01 5.7-.013 8.548zm-8.896.002H1.7L8.443 12.75l6.734 11.664zm-13.82 0H.244L.24 18.303l5.181-8.977h4.649L1.357 24.415zM13.169 9.328c.447.005.873.25 1.102.636.356.611.707 1.225 1.06 1.837a1.312 1.312 0 01.005 1.282c-.35.614-.706 1.224-1.06 1.836-.22.378-.636.627-1.075.641h-2.037a1.309 1.309 0 01-1.096-.604l-.017-.028c-.355-.61-.706-1.224-1.06-1.837a1.316 1.316 0 01-.02-1.253l.015-.028c.35-.614.707-1.225 1.06-1.837a1.32 1.32 0 011.076-.645h.032a225.57 225.57 0 012.015 0zM24.083.572V15.56h-9.825L22.91.572h1.172zm-8.203 11.57L9.839 1.678l.638-1.106H22.56l-6.68 11.57zm-2.15-3.118H5.598l4.065-7.042 4.067 7.042z"/>
  <path fill="url(#paint0_radial)" fill-rule="evenodd" d="M1.178 24.118h-.64l-.003-5.73L5.59 9.632h3.951L1.178 24.118zm22.6-7.948v7.948h-8.081l-4.59-7.948h12.67zm-9.127 7.948H2.217l6.22-10.762 6.214 10.762zm9.126-8.855h-9.003L23.08.877h.697v14.386zM13.155 9.616a1.02 1.02 0 01.857.513l1.044 1.81.01.014a1 1 0 01.006.98c-.35.612-.706 1.222-1.059 1.833a1.01 1.01 0 01-.85.496c-.665.003-2 .001-2.001.001a1.01 1.01 0 01-.857-.485l-.012-.02-1.047-1.813a1.019 1.019 0 010-.99l.008-.013 1.05-1.82a1.02 1.02 0 01.85-.506h2.001zm-2.51-8.74h11.389l-6.16 10.668-5.693-9.862.464-.805zm2.557 7.85H6.113l3.545-6.138 3.544 6.138z" clip-rule="evenodd"/>
  <path fill="url(#paint1_linear)" fill-rule="evenodd" d="M.628 25.079L0 25.059l.007-5.75 5.59-9.68h3.95L.627 25.08zm14.552-.058l-13.438-.074 6.701-11.594L15.18 25.02zm9.098-.035l-8.104-.055-5.06-8.765h13.194l-.03 8.82zM5.758 9.908L.285 19.384.28 24.79l.19.006L9.064 9.908H5.757zM2.223 24.671l12.471.068L8.443 13.91l-6.22 10.76zm9.373-8.226l4.739 8.209 7.664.051.028-8.26h-12.43zm1.552-6.832h.052l.004.001h.012l.004.001h.004l.008.001h.004l.008.001h.008l.004.001h.004l.008.002h.008l.008.002h.004l.008.002.008.001.008.001.007.002.008.001.008.002.008.001.008.002.008.002.008.002.007.002.008.001.008.002.008.003.007.002.008.002.008.002.007.002.008.003.008.002.007.003.008.002.007.003.008.003.007.003.008.002.008.003.007.003.007.003.008.003.007.003.007.004.008.003.007.003.008.004.007.003.007.004.007.003.007.004.007.003.008.004.007.004.007.004.007.004.007.003.007.004.007.005.007.004.007.004.006.004.007.004.007.005.007.004.007.004.006.005.007.004.007.005.006.005.007.004.006.005.007.005.006.005.007.005.006.005.007.005.006.005.006.005.007.005.006.005.006.005.006.006.006.005.006.005.006.006.006.005.006.006.006.005.006.006.006.006.006.005.005.006.006.006.006.006.005.006.006.006.005.006.006.006.005.006.005.006.006.006.005.006.005.006.006.007.005.006.005.006.005.007.005.006.005.007.005.006.01.013.004.007.005.007.004.006.005.007.004.007.005.007.004.006.005.007.004.007.004.007.004.007.006.01 1.044 1.81.01.014.003.007.004.007.004.007.003.007.004.008.004.007.004.007.003.007.004.007.003.008.003.007.004.007.003.007.003.008.003.007.003.008.003.007.003.007.006.015.006.015.002.008.003.007.005.015.002.008.002.008.003.007.002.008.002.008.002.007.002.008.002.008.006.023.001.008.002.008.002.007.001.008.002.008.002.016.002.008.001.007.001.008.001.008.001.008.001.008.001.008.001.008v.008l.002.007v.016l.002.024v.008l.001.008v.086l-.001.008-.001.016-.002.024-.001.008-.002.016-.001.007-.001.008-.003.016-.001.008-.001.008-.002.008-.001.008-.002.007-.001.008-.002.008-.002.008-.001.008-.002.007-.002.008-.004.016-.004.015-.003.008-.002.007-.002.008-.003.008-.005.015-.002.008-.003.007-.003.008-.002.007-.004.008-.002.007-.003.008-.003.007-.004.008-.003.007-.003.008-.003.007-.004.007-.003.008-.004.007-.003.007-.004.007-.003.008-.005.007-.003.007-.008.014-.033.058-.033.057-.033.058-.033.057-.099.172-.066.115-.033.057-.066.115-.066.114-.066.115-.067.114-.066.115-.133.229-.066.114-.133.23-.066.114-.004.007-.004.007-.004.007-.005.007-.004.007-.004.006-.005.007-.004.007-.005.006-.004.007-.005.007-.005.006-.004.007-.005.006-.005.006-.005.007-.005.006-.005.006-.005.007-.005.006-.005.006-.005.006-.005.006-.006.006-.005.006-.005.006-.006.006-.005.006-.006.005-.005.006-.006.006-.006.005-.005.006-.006.006-.006.005-.006.006-.006.005-.005.005-.006.006-.007.005-.006.005-.006.005-.006.006-.006.005-.006.005-.006.005-.007.005-.006.005-.006.004-.007.005-.006.005-.007.005-.006.004-.007.005-.006.004-.007.005-.007.004-.006.005-.007.004-.007.004-.007.005-.006.004-.007.004-.007.004-.007.004-.007.004-.007.004-.007.004-.007.003-.007.004-.007.004-.007.003-.007.004-.008.004-.007.003-.007.003-.007.004-.008.003-.007.003-.007.003-.008.004-.007.003-.008.003-.007.003-.008.002-.007.003-.008.003-.007.003-.008.002-.007.003-.008.003-.008.002-.007.002-.008.003-.008.002-.007.002-.008.002-.008.003-.008.002-.007.002-.008.002-.008.001-.008.002-.008.002-.008.002-.008.001-.008.002-.007.001-.008.002-.008.001-.008.001-.008.002h-.008l-.008.002h-.008l-.009.002h-.008l-.008.001-.008.001h-.008l-.008.001-.008.001h-.016l-.008.001h-.025l-.064.001h-.288l-.079.001h-1.601l-.008-.001h-.016l-.008-.001h-.008l-.008-.002h-.008l-.008-.001h-.008l-.008-.002h-.008l-.008-.002-.008-.001-.007-.001-.008-.001-.008-.002-.008-.001-.008-.002-.008-.001-.008-.002-.008-.001-.008-.002-.008-.002-.007-.001-.008-.002-.008-.002-.008-.002-.007-.002-.008-.002-.008-.002-.007-.003-.008-.002-.008-.002-.007-.003-.008-.002-.008-.003-.007-.002-.008-.003-.007-.003-.008-.002-.007-.003-.008-.003-.007-.003-.008-.003-.007-.003-.008-.003-.007-.003-.007-.004-.007-.003-.008-.003-.007-.004-.007-.003-.007-.003-.008-.004-.007-.004-.007-.003-.007-.004-.007-.004-.007-.004-.007-.003-.007-.004-.007-.004-.007-.005-.007-.004-.006-.004-.007-.004-.007-.004-.007-.005-.006-.004-.007-.004-.007-.005-.007-.004-.006-.005-.007-.005-.006-.004-.007-.005-.006-.005-.006-.005-.007-.005-.006-.005-.006-.004-.007-.006-.006-.005-.006-.005-.006-.005-.006-.005-.006-.006-.006-.005-.006-.005-.006-.006-.006-.005-.006-.006-.005-.005-.006-.006-.006-.006-.005-.005-.006-.006-.005-.006-.006-.006-.005-.006-.006-.006-.005-.006-.006-.006-.005-.006-.005-.006-.005-.006-.005-.007-.006-.006-.004-.006-.006-.007-.004-.006-.005-.007-.005-.006-.005-.007-.004-.006-.005-.007-.005-.007-.002-.003-.002-.003-.002-.004-.003-.003-.002-.004-.002-.003-.002-.004-.003-.003-.002-.003-.002-.004-.004-.007-.002-.003-.002-.004-.012-.02-1.047-1.814-.002-.003-.002-.004-.002-.003-.002-.004-.004-.007-.004-.007-.003-.007-.004-.007-.004-.007-.003-.008-.004-.007-.003-.007-.007-.015-.003-.007-.003-.008-.003-.007-.003-.007-.003-.008-.003-.007-.003-.008-.003-.007-.002-.008-.003-.008-.003-.007-.002-.008-.002-.007-.003-.008-.005-.015-.004-.016-.004-.015-.002-.008-.004-.016-.001-.008-.002-.008-.002-.007-.002-.008-.001-.008-.002-.008-.001-.008-.001-.008-.002-.008-.002-.016-.001-.008-.002-.016-.002-.016v-.008l-.001-.008v-.008l-.002-.008v-.024l-.001-.008v-.032l-.001-.008v-.04l.001-.008v-.008l.001-.008v-.008l.003-.025v-.008l.004-.032.002-.016.001-.008.003-.016.003-.015.002-.008.001-.008.002-.008.002-.008.003-.016.004-.016.002-.008.004-.015.003-.008.004-.015.003-.008.005-.016.005-.015.005-.015.003-.008.006-.015.003-.007.003-.008.003-.007.007-.015.003-.008.003-.007.004-.008.003-.007.004-.007.004-.008.004-.007.003-.007.004-.007.004-.007.004-.008.008-.013.114-.199.125-.217.154-.266.17-.296.175-.302.166-.288.076-.132.07-.12.003-.007.005-.007.004-.007.004-.007.004-.007.005-.006.004-.007.005-.007.004-.007.005-.006.009-.013.005-.007.004-.006.005-.007.005-.006.005-.007.005-.006.005-.006.005-.006.006-.007.005-.006.005-.006.005-.006.006-.006.005-.006.005-.006.006-.006.005-.006.006-.006.006-.005.005-.006.006-.006.006-.006.005-.005.006-.006.006-.005.006-.006.006-.005.006-.006.006-.005.006-.005.006-.005.007-.006.006-.005.006-.005.006-.005.007-.005.006-.005.006-.005.007-.005.006-.004.007-.005.006-.005.007-.005.007-.004.006-.005.007-.004.007-.005.006-.004.007-.004.007-.005.007-.004.007-.004.007-.004.007-.004.007-.004.007-.004.007-.004.007-.004.007-.004.007-.004.007-.003.007-.004.008-.004.007-.003.007-.004.008-.003.007-.003.007-.004.008-.003.007-.003.007-.003.008-.003.007-.003.008-.003.007-.003.008-.003.008-.003.007-.002.008-.003.008-.003.007-.002.008-.003.008-.002.007-.002.008-.003.008-.002.007-.002.008-.002.008-.002.008-.002.008-.002.008-.002.008-.001.008-.002.007-.002.008-.001.008-.002.008-.001.008-.001.008-.002h.004l.008-.001.004-.001.008-.001h.005l.004-.001h.003l.005-.001h.008l.004-.001.008-.001h.012l.004-.001h.008l.004-.001h.016l.004-.001h2.01zm11.113 5.647H14.78L23.564.044 24.287 0l-.025 15.26zM11.176 9.891h-.03l-.002.001h-.012l-.005.001h-.009l-.008.001h-.003l-.006.001h-.006l-.002.001h-.003l-.006.001-.005.001h-.003l-.003.001h-.006l-.005.002h-.006l-.006.002-.005.001-.006.001-.006.001-.005.002h-.006l-.005.002-.006.002h-.005L11 9.915l-.006.002-.005.002-.006.001-.005.002-.006.001-.005.002-.006.002-.005.002-.006.002-.005.002-.006.002-.005.002-.005.002-.006.002-.005.002-.006.002-.01.005-.006.002-.005.003-.005.002-.006.003-.005.002-.005.003-.006.002-.005.003-.005.003-.005.002-.005.003-.006.003-.005.003-.005.003-.005.003-.005.003-.005.003-.005.003-.005.003-.005.003-.005.003-.005.003-.005.004-.005.003-.005.003-.005.004-.01.007-.004.003-.005.004-.005.003-.004.004-.005.003-.005.004-.004.004-.005.004-.005.003-.004.004-.005.004-.004.004-.005.004-.008.008-.005.004-.004.004-.004.004-.005.004-.008.008-.004.005-.004.004-.004.004-.004.004-.004.005-.004.004-.008.009-.004.004-.004.005-.003.004-.004.005-.004.004-.003.005-.004.004-.004.005-.003.005-.007.01-.004.004-.003.005-.003.004-.004.005-.003.005-.003.005-.003.005-.004.005-.003.004-.003.005-.003.005-.003.005-.003.005-.069.12-.076.132-.166.288-.174.302-.17.295-.154.266-.125.217-.114.199-.007.011-.002.005-.006.01-.003.006-.002.005-.003.005-.005.01-.003.006-.002.005-.003.005-.002.006-.002.005-.002.005-.003.006-.002.005-.002.006-.002.005-.002.006-.002.005-.002.005-.002.006-.002.006-.002.005-.001.006-.002.005-.002.006-.001.006-.002.005-.003.012-.002.005-.001.006-.002.006v.006l-.002.005-.001.006-.003.012-.001.005v.006l-.002.006-.001.006v.006l-.002.005v.006l-.001.006-.001.006v.006l-.002.011v.006l-.001.006v.006l-.001.006v.006l-.001.006v.017l-.001.006v.059l.001.006v.006l.002.012v.006l.001.011v.006l.002.006v.006l.001.005.001.006v.006l.002.006v.005l.002.006.001.006.001.006.002.011.002.006v.005l.002.006.002.006.001.005.001.006.002.005.001.006.004.01.002.007.001.005.002.005.002.006.002.005.002.006.001.005.002.005.005.011.002.005.002.006.002.005.002.005.002.005.003.005.002.006.003.005.002.005.003.005.002.005.005.01.003.005.001.003.003.005.003.005v.002l1.047 1.813.01.018.002.001.002.003v.002l.002.002.002.003.002.002v.003l.002.002.004.005.001.002.002.003.001.002.002.002.003.005.004.005.003.005.003.004.004.005.003.005.003.004.004.005.004.004.003.005.004.004.004.005.007.008.004.005.004.004.004.004.003.004.004.005.004.004.004.004.004.004.004.004.004.004.005.004.004.004.004.004.004.004.005.004.004.004.004.004.005.003.004.004.004.004.005.003.004.004.005.004.005.003.004.004.005.003.004.004.005.003.005.004.004.003.005.003.005.004.005.003.005.003.005.003.004.003.005.003.005.003.005.003.005.003.005.003.005.003.005.003.005.003.005.003.006.003.005.002.005.003.005.003.006.002.005.003.005.002.005.003.006.002.01.005.006.002.005.002.005.003.006.002.005.002.006.002.005.002.006.002.005.002.006.002.005.002.006.002.005.002.006.001.005.002.006.002.006.001.005.002.006.001.006.002.005.001.006.002.005.001.006.001.006.002h.005l.006.002.006.001.005.001.006.001.006.001.006.001.005.001h.006l.006.002h.006l.005.001h.006l.006.001.006.001h.005l.006.001h.012l.005.001h.018l.006.001h1.946l.062-.001h.023l.006-.001h.011l.006-.001h.006l.005-.001h.006l.006-.001.006-.001h.005l.006-.002h.006l.006-.001.005-.001.006-.001.006-.001.005-.001.006-.001.006-.002h.005l.006-.002.006-.001.005-.002.006-.001.005-.001.006-.002.006-.001.005-.002.006-.002.006-.001.005-.002.006-.002.005-.001.006-.002.005-.002.006-.002.005-.002.006-.002.005-.002.005-.002.011-.004.005-.003.006-.002.005-.002.006-.003.005-.002.005-.002.005-.003.006-.002.005-.003.005-.003.005-.002.005-.003.006-.003.005-.002.005-.003.005-.003.01-.006.005-.003.005-.003.005-.003.005-.003.005-.003.005-.003.005-.003.004-.004.01-.006.005-.004.004-.003.005-.003.005-.004.005-.003.004-.004.005-.003.004-.004.005-.003.004-.004.005-.004.004-.004.005-.003.004-.004.005-.004.004-.004.004-.004.004-.004.004-.004.005-.004.008-.008.004-.004.004-.004.004-.004.004-.004.004-.004.004-.005.004-.004.004-.004.003-.004.004-.005.004-.004.004-.005.003-.004.004-.004.003-.005.004-.005.004-.004.003-.005.003-.004.004-.005.003-.004.003-.005.004-.005.003-.005.003-.004.003-.005.003-.005.003-.005.003-.005.003-.004.003-.005.003-.005.066-.114.066-.115.066-.114.067-.115.133-.229.066-.114.066-.115.066-.114.067-.115.066-.114.033-.058.033-.057.033-.057.066-.115.032-.057.033-.057.033-.057.033-.058.032-.056.003-.004.002-.005.003-.005.003-.005.007-.016.003-.005.002-.005.003-.005.005-.011.002-.005.002-.006.002-.005.002-.005.002-.006.003-.005.001-.005.002-.006.002-.005.004-.011.002-.006.002-.005.001-.005.005-.017.001-.005.003-.012.002-.005.001-.006.001-.005.002-.006v-.006l.002-.005.001-.006v-.005l.003-.012.002-.011v-.006l.001-.005.001-.006v-.006l.001-.005.001-.006v-.006l.002-.011v-.019l.002-.023v-.045l-.001-.006V12.4l-.001-.005v-.006l-.002-.012v-.011l-.002-.011v-.006l-.002-.006v-.006l-.002-.005v-.006l-.002-.006v-.005l-.003-.012v-.005l-.002-.006-.001-.005-.002-.006v-.006l-.002-.005-.002-.006-.001-.005-.002-.006-.005-.017-.001-.005-.002-.006-.002-.005-.005-.016-.002-.006-.002-.005-.004-.011-.003-.005-.002-.006-.002-.005-.002-.005-.002-.006-.003-.005-.002-.005-.003-.005-.002-.006-.002-.005-.006-.01-.002-.005-.003-.005-.005-.01-.003-.005-.003-.005-.008-.014-1.045-1.81-.004-.007-.003-.004-.003-.005-.003-.005-.003-.005-.003-.006-.007-.01-.003-.004-.003-.005-.007-.01-.004-.005-.003-.005-.004-.004-.004-.005-.003-.005-.004-.004-.004-.005-.003-.005-.004-.004-.004-.005-.004-.004-.004-.005-.008-.009-.004-.004-.004-.005-.004-.004-.004-.004-.004-.005-.004-.004-.005-.004-.004-.004-.004-.005-.004-.004-.005-.004-.004-.004-.009-.008-.004-.004-.005-.004-.004-.004-.005-.004-.005-.003-.004-.004-.005-.004-.004-.004-.005-.003-.005-.004-.005-.004-.004-.003-.005-.004-.005-.003-.005-.004-.005-.003-.004-.003-.005-.004-.005-.003-.005-.003-.005-.003L13.52 10l-.005-.003-.005-.003-.005-.003-.005-.003-.01-.006-.006-.003-.01-.005-.005-.003-.005-.003-.006-.002-.005-.003-.005-.003-.005-.002-.006-.003-.005-.002-.005-.003-.006-.002-.005-.002-.005-.002-.005-.003-.006-.002-.005-.002-.006-.002-.005-.002-.005-.002-.006-.002-.005-.002-.006-.002-.005-.002-.006-.001-.005-.002-.005-.002-.006-.001-.005-.002-.006-.001-.005-.002-.006-.001-.005-.002-.006-.001-.005-.001-.006-.001-.005-.002h-.006l-.005-.002h-.006l-.005-.002h-.006l-.006-.002h-.005l-.003-.001h-.005l-.011-.002h-.003l-.006-.001h-.002l-.009-.001H13.2l-.005-.001h-.017l-.003-.001h-2zM23.731.314L15.263 14.98h8.721L24.008.297l-.277.017zM15.88 11.54l-5.693-9.86.907-1.572 11.417-.05-6.63 11.484zM11.255.385L10.51 1.68l5.372 9.304L22.027.338 11.255.385zm1.953 8.338H6.119l3.545-6.139 3.544 6.14zm-6.606-.279h6.123L9.664 3.142 6.602 8.444z" clip-rule="evenodd"/>
  <path fill="#000" d="M34.097 11.175h-3.163v10.03h1.958v-3.343h1.205c2.951 0 4.473-1.024 4.473-3.359 0-2.334-1.522-3.328-4.473-3.328zm-.06 5.136h-1.145v-3.585h1.144c1.657 0 2.546.392 2.546 1.777 0 1.386-.889 1.808-2.546 1.808zm5.708 4.894h1.882v-4.111c0-1.446.678-2.079 1.642-2.079.828 0 1.25.497 1.25 1.566v4.624H46.4v-4.88c0-1.942-1.04-2.846-2.53-2.846-1.054 0-1.792.497-2.199 1.37h-.045v-4.141h-1.883v10.497zm11.596.21c2.275 0 3.75-1.535 3.75-3.96s-1.475-3.976-3.75-3.976c-2.259 0-3.75 1.627-3.75 3.976 0 2.425 1.461 3.96 3.75 3.96zm0-1.445c-1.07 0-1.822-.889-1.822-2.515 0-1.641.753-2.53 1.822-2.53 1.085 0 1.823.889 1.823 2.53 0 1.627-.738 2.515-1.823 2.515zm8.42.015c-.708 0-.98-.407-.98-1.325v-3.584h1.687v-1.371h-1.687v-2.41l-1.882.376v2.034h-1.295v1.37h1.295v3.766c0 1.777.753 2.545 2.379 2.545.512 0 1.04-.075 1.461-.317v-1.355a1.88 1.88 0 01-.979.271zm5.15 1.43c2.275 0 3.75-1.535 3.75-3.96s-1.475-3.976-3.75-3.976c-2.259 0-3.75 1.627-3.75 3.976 0 2.425 1.46 3.96 3.75 3.96zm0-1.445c-1.07 0-1.822-.889-1.822-2.515 0-1.641.753-2.53 1.822-2.53 1.084 0 1.823.889 1.823 2.53 0 1.627-.739 2.515-1.823 2.515z"/>
  <path fill="#000" fill-rule="evenodd" d="M40.62 1.44h-2.874v2.39h1.645v.557h-1.645v2.997h-.6V.877h3.474v.564zm14.981 5.944h-.605V.877h.605v6.507zm-8.447 0h-.606V.877h.606v6.507zm-1.833-5.943h-2.875V3.83h1.645v.557h-1.645v2.997h-.599V.877h3.474v.564zm15.575 0H59.17v5.943h-.607V1.441h-1.737V.877h4.071v.564zM48.981 7.384h-.599V.877h.645l4.131 5.487V.877h.606v6.507h-.59L48.98 1.8v5.584zm15.816 0h-.613V5.793L61.377.877h.691l2.422 4.218L66.912.877h.691l-2.806 4.916v1.591zm-28.186 0h-.645l-2.52-5.68c-.158.364-1.692 3.853-1.856 4.222.321 0 3.071.027 3.23.028l.25.548c-.549-.004-3.007-.012-3.735-.012-.066.14-.345.76-.4.894h-.645L33.173.877h.555l2.883 6.507z" clip-rule="evenodd"/>
  <defs>
    <radialGradient id="paint0_radial" cx="0" cy="0" r="1" gradientTransform="translate(18.3 -3.491) scale(27.6094)" gradientUnits="userSpaceOnUse">
      <stop stop-color="#F9A6FF"/>
      <stop offset="1" stop-color="#EA73FF"/>
    </radialGradient>
    <linearGradient id="paint1_linear" x1="890.282" x2="890.282" y1=".874" y2="24.115" gradientUnits="userSpaceOnUse">
      <stop stop-color="#F7B3FF"/>
      <stop offset="1" stop-color="#EE8AFF"/>
    </linearGradient>
  </defs>
</svg>
