<svg width="76" height="11" viewBox="0 0 76 11" fill="none" xmlns="http://www.w3.org/2000/svg">
<path d="M0.671365 1.22384C0.621611 1.2232 0.572321 1.23346 0.526953 1.25389C0.481586 1.27433 0.441242 1.30445 0.408753 1.34214C0.376265 1.37982 0.352419 1.42416 0.338891 1.47205C0.325364 1.51993 0.322481 1.57019 0.330446 1.61931L1.77764 10.4048C1.79568 10.5123 1.85101 10.61 1.93393 10.6808C2.01685 10.7515 2.12206 10.7908 2.23107 10.7917H9.17386C9.25558 10.7928 9.33495 10.7644 9.39753 10.7119C9.4601 10.6593 9.50171 10.586 9.51478 10.5053L10.9654 1.62272C10.9734 1.5736 10.9705 1.52334 10.9569 1.47546C10.9434 1.42757 10.9196 1.38323 10.8871 1.34554C10.8546 1.30786 10.8142 1.27774 10.7689 1.2573C10.7235 1.23687 10.6742 1.22661 10.6245 1.22725L0.671365 1.22384ZM6.76528 7.57345H4.54931L3.94929 4.44041H7.30222L6.76528 7.57345Z" fill="black"/>
<path d="M10.5017 4.44043H7.3022L6.76525 7.57347H4.54929L1.93274 10.6809C2.01567 10.7526 2.12141 10.7925 2.23104 10.7934H9.17554C9.25726 10.7945 9.33663 10.7662 9.39921 10.7136C9.46178 10.661 9.50339 10.5877 9.51646 10.5071L10.5017 4.44043Z" fill="url(#paint0_linear)"/>
<path d="M20.2521 0.9375C22.2618 0.9375 23.2368 1.92787 23.2368 3.51825C23.2368 4.71146 22.6965 5.43762 21.5868 5.70865C23.0425 5.949 23.7619 6.74334 23.7619 8.1394C23.7619 9.71444 22.6965 10.7951 20.4925 10.7951H16.427V0.9375H20.2521ZM17.777 2.22788V5.16659H20.0714C21.3465 5.16659 21.8715 4.58192 21.8715 3.63246C21.8715 2.683 21.3021 2.22276 20.0714 2.22276L17.777 2.22788ZM17.777 6.36833V9.43659H20.5368C21.8271 9.43659 22.4118 8.97124 22.4118 7.98087C22.4118 6.93084 21.8561 6.36151 20.5078 6.36151L17.777 6.36833Z" fill="black"/>
<path d="M25.9675 0.412487C26.0879 0.403871 26.2087 0.421243 26.3218 0.463426C26.4349 0.50561 26.5377 0.571617 26.623 0.656975C26.7084 0.742333 26.7744 0.845046 26.8166 0.958149C26.8587 1.07125 26.8761 1.1921 26.8675 1.31251C26.8675 1.55121 26.7727 1.78014 26.6039 1.94892C26.4351 2.11771 26.2062 2.21253 25.9675 2.21253C25.7288 2.21253 25.4999 2.11771 25.3311 1.94892C25.1623 1.78014 25.0675 1.55121 25.0675 1.31251C25.0588 1.1921 25.0762 1.07125 25.1184 0.958149C25.1606 0.845046 25.2266 0.742333 25.3119 0.656975C25.3973 0.571617 25.5 0.50561 25.6131 0.463426C25.7262 0.421243 25.8471 0.403871 25.9675 0.412487ZM25.3078 3.29154H26.5982V10.7917H25.3078V3.29154Z" fill="black"/>
<path d="M31.5245 9.53377C31.7972 9.52563 32.0685 9.49023 32.3342 9.42809V10.6724C32.0515 10.7532 31.7588 10.7934 31.4648 10.7918C29.8591 10.7918 29.0784 9.84742 29.0784 8.45136V4.49159H27.863V3.29838H29.0784V1.70288H30.3313V3.29326H32.3257V4.48648H30.3313V8.42238C30.3313 9.08205 30.7216 9.53377 31.5245 9.53377Z" fill="black"/>
<path d="M37.6526 10.9417C36.5583 10.9417 35.7179 10.4474 35.2662 9.47233V10.7917H33.9758V0.158447H35.2747V4.64152C35.7554 3.65115 36.6554 3.14148 37.8095 3.14148C39.8038 3.14148 40.8095 4.83584 40.8095 7.04158C40.8027 9.15698 39.7527 10.9417 37.6526 10.9417ZM37.4566 4.34151C36.2975 4.34151 35.2747 5.0779 35.2747 6.74158V7.34159C35.2747 9.00698 36.2191 9.74166 37.3202 9.74166C38.776 9.74166 39.526 8.78197 39.526 7.04158C39.5123 5.24154 38.793 4.34151 37.4566 4.34151Z" fill="black"/>
<path d="M42.1527 3.2915H43.4431V7.82912C43.4431 9.17916 43.9834 9.77918 45.2124 9.77918C46.4057 9.77918 47.2375 8.98484 47.2375 7.46946V3.2915H48.5279V10.7917H47.2375V9.56269C47.0078 9.9885 46.665 10.3427 46.247 10.5863C45.829 10.8299 45.3518 10.9535 44.8681 10.9434C43.1431 10.9434 42.1527 9.7502 42.1527 7.68764V3.2915Z" fill="black"/>
<path d="M55.7725 10.5974C55.3225 10.8378 54.6322 10.9383 53.9418 10.9383C51.2724 10.9383 50.0212 9.31896 50.0212 7.01777C50.0212 4.75236 51.2656 3.133 53.9418 3.133C54.5585 3.11551 55.1708 3.24216 55.7299 3.5029V4.69611C55.197 4.44693 54.6134 4.32552 54.0253 4.34156C52.0753 4.34156 51.2809 5.57227 51.2809 7.02629C51.2809 8.48031 52.0974 9.7042 54.0628 9.7042C54.6427 9.71952 55.2205 9.62823 55.7674 9.43488L55.7725 10.5974Z" fill="black"/>
<path d="M57.2435 10.7917V0.158447H58.5339V6.80635L61.759 3.2966H63.4397L59.9129 6.97681L63.588 10.7917H61.8323L58.5322 7.28193V10.7917H57.2435Z" fill="black"/>
<path d="M67.8631 10.9417C65.0574 10.9417 63.8284 9.32231 63.8284 7.02112C63.8284 4.75571 65.0881 3.13635 67.3688 3.13635C69.6785 3.13635 70.6075 4.74208 70.6075 7.02112V7.60579H65.1324C65.3131 8.88082 66.1381 9.70585 67.9075 9.70585C68.6856 9.70514 69.4576 9.56782 70.1882 9.30015V10.4934C69.5728 10.8224 68.6285 10.9417 67.8631 10.9417ZM65.1187 6.50974H69.3035C69.2285 5.11538 68.5978 4.31934 67.3091 4.31934C65.9421 4.31252 65.2534 5.1972 65.1187 6.50292V6.50974Z" fill="black"/>
<path d="M75.1076 9.53377C75.3804 9.52563 75.6516 9.49023 75.9173 9.42809V10.6724C75.6346 10.7532 75.3419 10.7934 75.048 10.7918C73.4422 10.7918 72.6615 9.84742 72.6615 8.45136V4.49159H71.4462V3.29838H72.6615V1.70288H73.9212V3.29326H75.9156V4.48648H73.9212V8.42238C73.9229 9.08205 74.3099 9.53377 75.1076 9.53377Z" fill="black"/>
<defs>
<linearGradient id="paint0_linear" x1="11.2415" y1="5.31659" x2="5.95387" y2="9.44511" gradientUnits="userSpaceOnUse">
<stop offset="0.18"/>
<stop offset="1" stop-color="#5A5A5A"/>
</linearGradient>
</defs>
</svg>
