<svg width="79" height="24" viewBox="0 0 79 24" fill="none" xmlns="http://www.w3.org/2000/svg">
<g opacity="0.4">
<g clip-path="url(#clip0)">
<path fill-rule="evenodd" clip-rule="evenodd" d="M21.2129 5.75487C21.2208 5.784 21.2248 5.81403 21.2249 5.84421V10.5343C21.2249 10.5944 21.209 10.6536 21.1788 10.7057C21.1487 10.7578 21.1053 10.801 21.053 10.8309L17.1166 13.0973V17.5894C17.1166 17.7117 17.0516 17.8245 16.9456 17.8861L8.72865 22.6163C8.70984 22.627 8.68932 22.6338 8.6688 22.6411C8.66111 22.6436 8.65384 22.6483 8.64572 22.6505C8.58828 22.6656 8.5279 22.6656 8.47046 22.6505C8.46106 22.6479 8.45251 22.6428 8.44353 22.6394C8.42472 22.6325 8.40506 22.6265 8.38711 22.6163L0.171837 17.8861C0.119648 17.8561 0.076284 17.8129 0.0461159 17.7608C0.0159477 17.7087 4.13518e-05 17.6496 0 17.5894L0 3.51928C0 3.4885 0.00427456 3.45858 0.0119688 3.42951C0.0145335 3.41968 0.0205179 3.4107 0.0239375 3.40087C0.0303494 3.38292 0.0363337 3.36454 0.0457378 3.34787C0.0521496 3.33675 0.0615536 3.32778 0.0692478 3.31752C0.0790793 3.30384 0.0880559 3.28973 0.0995972 3.27777C0.109429 3.26793 0.122252 3.26067 0.133366 3.25212C0.145762 3.24186 0.156876 3.23075 0.170982 3.22262H0.17141L4.27926 0.857511C4.33127 0.827581 4.39023 0.811829 4.45024 0.811829C4.51025 0.811829 4.56921 0.827581 4.62122 0.857511L8.72907 3.22262H8.72993C8.74361 3.23117 8.75515 3.24186 8.76754 3.25169C8.77866 3.26024 8.79105 3.26793 8.80089 3.27734C8.81285 3.28973 8.8214 3.30384 8.83166 3.31752C8.83893 3.32778 8.84876 3.33675 8.85474 3.34787C8.86458 3.36497 8.87013 3.38292 8.87697 3.40087C8.88039 3.4107 8.88638 3.41968 8.88894 3.42994C8.89681 3.45907 8.90084 3.4891 8.90091 3.51928V12.3073L12.324 10.3363V5.84378C12.324 5.81386 12.3282 5.78351 12.3359 5.75487C12.3389 5.74461 12.3445 5.73564 12.3479 5.7258C12.3548 5.70785 12.3607 5.68947 12.3701 5.6728C12.3766 5.66169 12.386 5.65271 12.3932 5.64245C12.4035 5.62877 12.412 5.61467 12.424 5.6027C12.4338 5.59287 12.4462 5.5856 12.4573 5.57705C12.4702 5.56679 12.4813 5.55568 12.495 5.54755H12.4954L16.6037 3.18244C16.6557 3.15247 16.7146 3.13669 16.7746 3.13669C16.8347 3.13669 16.8936 3.15247 16.9456 3.18244L21.0535 5.54755C21.068 5.5561 21.0791 5.56679 21.0919 5.57662C21.1026 5.58517 21.115 5.59286 21.1249 5.60227C21.1368 5.61467 21.1454 5.62877 21.1556 5.64245C21.1633 5.65271 21.1727 5.66169 21.1787 5.6728C21.1886 5.68947 21.1941 5.70785 21.2009 5.7258C21.2048 5.73564 21.2104 5.74461 21.2129 5.75487ZM20.5401 10.3363V6.43624L19.1026 7.26379L17.1166 8.40723V12.3073L20.5405 10.3363H20.5401ZM16.4323 17.3915V13.4888L14.4788 14.6045L8.90048 17.7882V21.7276L16.4323 17.3915ZM0.684784 4.1113V17.3915L8.2157 21.7272V17.7886L4.2814 15.562L4.28011 15.5611L4.2784 15.5603C4.26515 15.5526 4.25404 15.5415 4.24164 15.5321C4.23096 15.5235 4.21856 15.5167 4.20916 15.5073L4.2083 15.506C4.19719 15.4953 4.18949 15.4821 4.18009 15.4701C4.17154 15.4585 4.16128 15.4487 4.15444 15.4367L4.15401 15.4355C4.14632 15.4226 4.14162 15.4072 4.13606 15.3927C4.1305 15.3799 4.12324 15.3679 4.11982 15.3542V15.3538C4.11554 15.3376 4.11469 15.3205 4.11298 15.3038C4.11127 15.291 4.10785 15.2782 4.10785 15.2653V15.2645V6.0823L2.12232 4.93843L0.684784 4.11173V4.1113ZM4.45067 1.54913L1.02803 3.51928L4.44981 5.48942L7.87202 3.51885L4.44981 1.54913H4.45067ZM6.23059 13.8445L8.21613 12.7015V4.1113L6.77859 4.93886L4.79263 6.0823V14.6725L6.23059 13.8445ZM16.7746 3.87407L13.3524 5.84421L16.7746 7.81435L20.1964 5.84378L16.7746 3.87407ZM16.4323 8.40723L14.4463 7.26379L13.0088 6.43624V10.3363L14.9943 11.4794L16.4323 12.3073V8.40723ZM8.55766 17.1961L13.5773 14.3305L16.0864 12.8985L12.6668 10.9296L8.7295 13.1964L5.14101 15.2623L8.55766 17.1961Z" fill="black"/>
</g>
<g clip-path="url(#clip1)">
<path fill-rule="evenodd" clip-rule="evenodd" d="M31.963 6.33588V16.187H35.5271V17.8866H30.0651V6.33588H31.963ZM42.2262 11.2367V10.1971H44.0249V17.887H42.2266V16.847C41.9842 17.2322 41.641 17.5348 41.1952 17.7545C40.7497 17.9746 40.3013 18.0845 39.8504 18.0845C39.2669 18.0845 38.7334 17.9776 38.2496 17.763C37.7779 17.5574 37.3538 17.2568 37.0035 16.8799C36.6565 16.5051 36.3825 16.0687 36.1956 15.5933C36.0009 15.0993 35.9026 14.5726 35.9062 14.0416C35.9062 13.503 36.0024 12.9884 36.1952 12.4985C36.3809 12.0198 36.6551 11.5804 37.0035 11.2033C37.3539 10.8267 37.778 10.5262 38.2496 10.3206C38.7334 10.106 39.2669 9.99917 39.8504 9.99917C40.3013 9.99917 40.7497 10.109 41.1952 10.3292C41.6406 10.5493 41.9842 10.8515 42.2266 11.2367H42.2262ZM42.0612 14.9825C42.172 14.6814 42.228 14.3629 42.2266 14.042C42.2266 13.7116 42.171 13.3983 42.0612 13.1016C41.9581 12.816 41.8014 12.5527 41.5995 12.3258C41.398 12.1033 41.1538 11.9236 40.8814 11.7975C40.601 11.6658 40.2902 11.5996 39.9495 11.5996C39.608 11.5996 39.2998 11.6658 39.025 11.7975C38.756 11.9252 38.5148 12.1047 38.3154 12.3258C38.1142 12.5515 37.9601 12.8151 37.8623 13.1012C37.7565 13.4034 37.7033 13.7215 37.705 14.0416C37.705 14.3716 37.7571 14.6854 37.8619 14.982C37.9662 15.2795 38.1175 15.5377 38.3158 15.7579C38.5152 15.9791 38.7563 16.1586 39.0254 16.2862C39.2998 16.4183 39.608 16.4841 39.9491 16.4841C40.2902 16.4841 40.601 16.4183 40.8814 16.2862C41.1539 16.1602 41.3981 15.9805 41.5995 15.7579C41.8014 15.5311 41.9581 15.268 42.0612 14.9825ZM45.4441 17.8866V10.1971H50.3286V11.9672H47.2424V17.8874H45.4441V17.8866ZM56.8464 11.2367V10.1971H58.6452V17.887H56.8464V16.847C56.6045 17.2322 56.2608 17.5348 55.815 17.7545C55.3696 17.9746 54.9216 18.0845 54.4702 18.0845C53.8872 18.0845 53.3537 17.9776 52.8698 17.763C52.3982 17.5574 51.974 17.2568 51.6238 16.8799C51.2766 16.5051 51.0025 16.0687 50.8155 15.5933C50.6209 15.0993 50.5228 14.5726 50.5265 14.0416C50.5265 13.503 50.6227 12.9884 50.8155 12.4985C51.001 12.0199 51.2751 11.5805 51.6234 11.2033C51.9738 10.8266 52.3981 10.5262 52.8698 10.3206C53.3537 10.106 53.8872 9.99917 54.4702 9.99917C54.9212 9.99917 55.3696 10.109 55.815 10.3292C56.2608 10.5493 56.6045 10.8515 56.8464 11.2367ZM56.6814 14.9825C56.7921 14.6813 56.848 14.3628 56.8464 14.042C56.8464 13.7116 56.7909 13.3983 56.6814 13.1016C56.5784 12.816 56.4217 12.5527 56.2198 12.3258C56.0183 12.1033 55.7741 11.9236 55.5017 11.7975C55.2213 11.6658 54.9101 11.5996 54.5694 11.5996C54.2283 11.5996 53.9201 11.6658 53.6452 11.7975C53.3762 11.9252 53.1351 12.1047 52.9356 12.3258C52.7343 12.5515 52.5801 12.8151 52.4821 13.1012C52.3765 13.4034 52.3235 13.7215 52.3252 14.0416C52.3252 14.3716 52.377 14.6854 52.4821 14.982C52.5864 15.2795 52.7377 15.5377 52.9356 15.7579C53.135 15.9791 53.3762 16.1586 53.6452 16.2862C53.9201 16.4183 54.2283 16.4841 54.5694 16.4841C54.9101 16.4841 55.2213 16.4183 55.5017 16.2862C55.7741 16.1602 56.0184 15.9805 56.2198 15.7579C56.4217 15.5311 56.5783 15.268 56.6814 14.9825ZM65.8559 10.1971H67.6777L64.7262 17.887H62.4649L59.5129 10.1971H61.3347L63.5955 16.0857L65.8559 10.1971ZM71.6009 9.99917C74.0498 9.99917 75.7199 12.1698 75.4061 14.7102H69.4393C69.4393 15.3736 70.1091 16.6559 71.6997 16.6559C73.0675 16.6559 73.9844 15.4527 73.9848 15.4518L75.2001 16.3922C74.1135 17.5519 73.224 18.0849 71.8309 18.0849C69.3418 18.0849 67.6547 16.5102 67.6547 14.042C67.6547 11.8094 69.3982 9.99917 71.6005 9.99917H71.6009ZM69.444 13.3735H73.7544C73.7412 13.2256 73.5074 11.4277 71.5864 11.4277C69.665 11.4277 69.4577 13.2256 69.444 13.3735ZM76.5774 17.8866V6.33588H78.3761V17.8866H76.5774Z" fill="black"/>
</g>
</g>
<defs>
<clipPath id="clip0">
<rect width="21.3728" height="22.2277" fill="white" transform="translate(0 0.811707)"/>
</clipPath>
<clipPath id="clip1">
<rect width="48.7299" height="12.3962" fill="white" transform="translate(29.922 5.94116)"/>
</clipPath>
</defs>
</svg>
