<svg xmlns="http://www.w3.org/2000/svg" fill="none" viewBox="0 0 164 22">
  <path fill="#000" d="M24.233 15.126h-.868V5.58h-5.077v.933c0 2.908-.109 6.292-1.107 8.614h-.672v3.464h1.52v-2.075h4.685v2.075h1.52v-3.464zm7.357.651l-.39-1.302c-.435.304-1.194.738-2.15.738-1.345 0-2.039-1.302-2.039-3.775h4.557v-.933c0-3.71-1.193-5.078-3.016-5.078-2.322 0-3.299 2.56-3.299 6.076 0 3.364 1.39 5.165 3.646 5.165 1.085 0 1.996-.347 2.69-.89zM13.86 5.58v4.644h-2.515V5.579H9.652v10.936h1.693v-4.904h2.516v4.904h1.67V5.58h-1.67zm24.023 10.936h1.844l-3.103-5.793 2.713-5.143h-1.716l-2.625 5.055V5.58h-1.693v10.936h1.693v-5.447l2.886 5.447h.001zm5.815.152c.999 0 1.693-.326 2.279-.825l-.39-1.258a2.766 2.766 0 01-1.845.672c-1.367 0-2.018-1.562-2.018-4.296 0-2.755.868-4.122 2.083-4.122.694 0 1.345.368 1.8.76l.24-1.607c-.478-.303-1.042-.564-2.018-.564-2.561 0-3.885 2.192-3.885 5.62 0 3.732 1.41 5.62 3.754 5.62zm-22.002-1.54h-2.908c.911-2.323 1.02-5.686 1.02-7.986v-.195h1.888v8.181zm6.855-8.311c.976 0 1.28 1.367 1.28 3.233h-2.8c.11-1.953.478-3.233 1.52-3.233z"/>
  <path fill="red" d="M5.968 10.57v5.945h1.67V1H5.143C2.69 1 .629 2.628.629 5.883c0 2.321.912 3.58 2.279 4.274L0 16.515h1.931l2.648-5.946h1.389zm0-1.39h-.89c-1.454 0-2.648-.802-2.648-3.297C2.43 3.3 3.732 2.41 5.078 2.41h.89v6.77z"/>
  <path fill="#000" d="M56.037 15.615h-4.504c.541-.67.87-2.101 1.048-4.265.164-2.08.26-4.866.321-8.522h3.135v12.787zm1.212 3.23h.787v-3.23h-.992V2h-5.045c-.062 4.018-.123 7.208-.329 9.35-.198 2.06-.54 3.676-1.252 4.265H50v3.23h.787l.137-2.402h6.181l.144 2.403zm6.982-2.402h.91V6.265h-.828L61 13.41c-.198.445-.404.89-.54 1.355h-.062c.04-.445.082-.89.082-1.437V6.265h-.89v10.178h.808L63.71 9.27a9.12 9.12 0 00.54-1.308h.062c-.04.418-.082.863-.082 1.39v7.091zm6.017-.568c-.904 0-1.472-.404-1.876-1.232V8.948c.445-1.089 1.212-2.06 2.122-2.06 1.17 0 1.896 1.574 1.896 4.243 0 3.21-.848 4.744-2.142 4.744zm-.055.746c1.896 0 3.149-1.834 3.149-5.572 0-2.95-.993-4.99-2.69-4.99-1.13 0-1.876.91-2.32 1.883l-.083-1.677h-.828v13.327h.951v-3.86c.384.506 1.048.89 1.821.89zm5.367-5.106h4.606c.322-3.615-.807-5.456-2.566-5.456-1.719 0-2.964 1.958-2.964 5.291 0 3.334.985 5.292 3.148 5.292 1.616 0 2.382-1.15 2.382-1.15l-.3-.767s-.713 1.088-2.061 1.088c-1.479 0-2.204-1.512-2.245-4.298zm2.04-4.669c1.033 0 1.84 1.212 1.677 3.923H75.58c.082-2.547.952-3.923 2.02-3.923zm5.311 4.326l3.532 5.271h1.055l-3.594-5.455 3.347-4.723h-.924l-3.416 4.784V6.265h-.951v10.178h.951v-5.27zm10.562-4.12v-.787H87.82v.787h2.362v9.391h.951V7.052h2.341z"/>
  <path fill="#000" fill-rule="evenodd" d="M112.711 6.467a25.203 25.203 0 01-.492-2.09h-.061a38.3 38.3 0 01.061 2.173v10.273h-.903V2.161h1.19l2.481 9.372c.102.39.246 1.148.308 1.701h.061a17.61 17.61 0 01.349-1.701l2.502-9.372h1.148v14.662h-.984V6.55c0-.698.041-1.436.082-2.174h-.082a54.2 54.2 0 01-.492 2.03l-2.194 8.162h-.801l-2.173-8.1zm9.222 5.352h4.677c.328-3.672-.82-5.539-2.605-5.539-1.743 0-3.015 1.99-3.015 5.375 0 3.384 1.005 5.374 3.2 5.374 1.641 0 2.42-1.17 2.42-1.17l-.308-.78s-.718 1.108-2.092 1.108c-1.497 0-2.235-1.538-2.277-4.369zm2.072-4.739c1.047 0 1.867 1.23 1.703 3.98h-3.754c.082-2.585.964-3.98 2.051-3.98zm9.363.205v-.8h-5.746v.8h2.401v9.538h.965V7.286h2.38zm14.178 9.538h.923V6.486h-.842l-3.362 7.262c-.205.45-.411.902-.554 1.374h-.062c.041-.452.082-.902.082-1.456v-7.18h-.903v10.338h.821l3.364-7.281a9.29 9.29 0 00.554-1.333h.061c-.051.47-.078.942-.082 1.415v7.2zm4.179-5.353l3.589 5.353h1.067l-3.651-5.538 3.405-4.8h-.943l-3.467 4.862V6.485h-.964v10.338h.964V11.47zm-12.391 3.585c.397-.787.595-2 .595-3.642 0-1.367-.17-2.428-.513-3.18-.341-.752-.814-1.128-1.416-1.128-.232 0-.454.058-.666.174-.212.117-.41.27-.595.462a3.598 3.598 0 00-.502.666 5.67 5.67 0 00-.391.79v5.786c.206.424.459.739.759.944.301.205.684.307 1.15.307.656 0 1.182-.393 1.579-1.18zm-2.718 1.682a2.252 2.252 0 01-.77-.647v3.919h-.964V6.469h.841l.083 1.703c.231-.49.543-.938.923-1.324.382-.39.861-.584 1.436-.584.424 0 .807.122 1.149.368.342.247.629.592.861 1.037.233.444.41.978.534 1.6.123.623.184 1.31.184 2.062 0 1.901-.293 3.32-.881 4.257-.589.937-1.362 1.405-2.319 1.405a2.256 2.256 0 01-1.077-.256zm25.393.087h.882c-.123-.39-.226-1.19-.226-1.908V9.275c0-2.051-.964-2.995-2.666-2.995-1.17 0-2.031.513-2.441 1.047l.266.922a2.602 2.602 0 012.175-1.127c1.128 0 1.723.676 1.723 2.256v1.292h-1.128c-2.236 0-3.446 1.149-3.446 3.364 0 1.887.964 2.995 2.358 2.995 1.026 0 1.765-.616 2.256-1.6.063.738.165 1.128.247 1.394zm-2.297-.575c-.985 0-1.621-.841-1.621-2.297 0-1.805.82-2.585 2.524-2.585h1.107v2.851c-.369 1.108-1.046 2.031-2.01 2.031z" clip-rule="evenodd"/>
  <path fill="#000" d="M148.469 16.824h-.923v-7.2c.004-.473.031-.945.082-1.415h-.061a9.29 9.29 0 01-.554 1.333l-3.364 7.282h-.821V6.484h.903v7.181c0 .546-.04.992-.08 1.438l-.002.018h.062c.143-.472.348-.923.554-1.374l3.362-7.261h.842v10.338z"/>
  <path stroke="#000" d="M104.035 2.121l-4.55 18.229"/>
</svg>
