<svg width="98" height="11" viewBox="0 0 98 11" fill="none" xmlns="http://www.w3.org/2000/svg">
<path d="M64.8564 0.915039L66.8137 8.96613L73.2301 0.915039H76.007L68.253 10.6492H64.3958L62.066 0.915039H64.8564ZM82.8795 0.915039C84.1984 0.915039 85.0762 1.15368 85.5141 1.63061C85.9521 2.10737 86.015 2.90689 85.7033 4.02883L85.5164 4.70219C85.2018 5.83371 84.7225 6.62603 84.0776 7.07948C83.4321 7.53287 82.4505 7.75975 81.1322 7.75975H76.6441L75.8417 10.6492H73.4145L76.1192 0.915039H82.8795ZM83.1601 4.44966L83.2145 4.25333C83.318 3.87919 83.3029 3.61742 83.1661 3.46769C83.0302 3.31833 82.7379 3.24354 82.2888 3.24354H77.8992L77.291 5.43141H81.7368C82.158 5.43141 82.4745 5.35895 82.6881 5.21405C82.9013 5.06931 83.0588 4.81437 83.1601 4.44966ZM90.3271 0.915039H94.7738C96.0356 0.915039 96.9136 1.13976 97.4057 1.58865C97.8984 2.03707 98.0144 2.72932 97.7553 3.66431H95.1459C95.2317 3.35569 95.209 3.14311 95.0778 3.02621C94.9464 2.90931 94.6313 2.85081 94.1359 2.85081H90.0444C89.6613 2.85081 89.3492 2.914 89.1127 3.04004C88.877 3.16633 88.7096 3.40723 88.6109 3.76254C88.5119 4.11795 88.5546 4.35149 88.7385 4.46368C88.8736 4.54783 89.1473 4.59029 89.5589 4.59029L94.0003 4.75815C95.263 4.75815 96.0772 4.92168 96.4448 5.24903C96.9102 5.66052 96.9741 6.47401 96.6366 7.6898C96.3428 8.74603 95.8798 9.5036 95.2476 9.96196C94.615 10.4201 93.6678 10.6492 92.4052 10.6492H87.3842C86.1308 10.6492 85.311 10.4295 84.9235 9.98993C84.5357 9.55068 84.4763 8.84923 84.7436 7.88602H87.2122C87.1449 8.12908 87.2008 8.32558 87.3783 8.47497C87.5565 8.62467 87.8235 8.69978 88.1786 8.69978H92.232C92.7932 8.69978 93.2168 8.62923 93.5033 8.48918C93.7908 8.34873 93.9859 8.09198 94.0897 7.71768C94.1936 7.34348 94.1608 7.07732 93.9897 6.91828C93.7883 6.73121 93.3637 6.63779 92.7088 6.63779L88.8736 6.48337C87.4181 6.48337 86.4931 6.32917 86.1012 6.02049C85.6445 5.65591 85.5755 4.89365 85.8974 3.73439C86.1832 2.70584 86.6633 1.97907 87.3381 1.55362C88.0127 1.12816 89.0093 0.915039 90.3271 0.915039Z" fill="black"/>
<path d="M61.9524 0.915039L61.4035 2.89272H57.1396L54.9846 10.6492H52.5719L54.7267 2.89272H50.4634L51.013 0.915039H61.9524Z" fill="black"/>
<path d="M34.1399 0.915039H30.3109L22.3749 10.6492H25.2078L27.0931 8.30698H33.2364L33.82 10.6492H36.653L34.1399 0.915039ZM28.6868 6.35701L31.6981 2.73865H31.8101L32.7263 6.35701H28.6868Z" fill="black"/>
<path d="M42.668 0.915039H47.1141C48.3764 0.915039 49.2538 1.13976 49.7463 1.58865C50.2388 2.03707 50.3549 2.72932 50.0951 3.66431H47.4861C47.572 3.35569 47.5493 3.14311 47.4181 3.02621C47.2872 2.90931 46.9713 2.85081 46.4758 2.85081H42.3847C42.0015 2.85081 41.6895 2.914 41.4534 3.04004C41.217 3.16633 41.0496 3.40723 40.9508 3.76254C40.8521 4.11795 40.8946 4.35149 41.0791 4.46368C41.2142 4.54783 41.4878 4.59029 41.8992 4.59029L46.3408 4.75815C47.6029 4.75815 48.418 4.92168 48.7849 5.24903C49.2504 5.66052 49.3144 6.47401 48.9764 7.6898C48.683 8.74603 48.22 9.5036 47.5878 9.96196C46.9555 10.4201 46.0083 10.6492 44.746 10.6492H39.7249C38.4716 10.6492 37.6514 10.4295 37.2641 9.98993C36.8763 9.55068 36.8166 8.84923 37.0842 7.88602H39.5529C39.4852 8.12908 39.5408 8.32558 39.7185 8.47497C39.897 8.62467 40.1636 8.69978 40.519 8.69978H44.5723C45.1334 8.69978 45.557 8.62923 45.8441 8.48918C46.1308 8.34873 46.3262 8.09198 46.43 7.71768C46.534 7.34348 46.5004 7.07732 46.3297 6.91828C46.1293 6.73121 45.7039 6.63779 45.0492 6.63779L41.2142 6.48337C39.7576 6.48337 38.8331 6.32917 38.4419 6.02049C37.9843 5.65591 37.9156 4.89365 38.2379 3.73439C38.5238 2.70584 39.0037 1.97907 39.6784 1.55362C40.3528 1.12816 41.3494 0.915039 42.668 0.915039Z" fill="black"/>
<path d="M14.8253 0.915039H25.1906L24.6526 2.85071H16.7281L16.2293 4.646H23.9013L23.3597 6.5959H15.6873L14.5611 10.6491L12.1754 10.6493L14.8253 0.915039Z" fill="black"/>
<path d="M0.0391846 0.915039L0.968763 2.25612H12.8428L13.208 0.915039H0.0391846Z" fill="black"/>
<path d="M6.91103 10.6493H10.6823L11.0485 9.30383H5.97839L6.91103 10.6493Z" fill="black"/>
<path d="M2.92893 5.07071H12.0769L12.4573 3.67316H1.95142L2.92893 5.07071Z" fill="black"/>
<path d="M4.92229 7.8699H11.3768L11.7572 6.47241H3.92114L4.92229 7.8699Z" fill="black"/>
</svg>
