<svg width="94" height="19" viewBox="0 0 94 19" fill="none" xmlns="http://www.w3.org/2000/svg">
<g opacity="0.4">
<path fill-rule="evenodd" clip-rule="evenodd" d="M36.867 9.18766C36.1281 9.18766 35.5283 9.78689 35.5283 10.5252C35.5283 11.2651 36.1281 11.8638 36.867 11.8638C37.6064 11.8638 38.2053 11.2651 38.2053 10.5252C38.2053 9.78689 37.6064 9.18766 36.867 9.18766ZM91.3318 8.2055C92.2094 8.2055 92.8513 8.69672 93.272 9.18766V6.81585C92.5826 6.3484 91.752 6.16125 91.0296 6.16125C88.8109 6.16125 86.883 7.74994 86.883 10.4831C86.883 13.1001 88.6351 14.806 91.0641 14.806C91.7649 14.806 92.5356 14.6998 93.272 14.1984V11.8722C92.8513 12.3053 92.1865 12.7615 91.3318 12.7615C90.0245 12.7615 89.2413 11.7923 89.2413 10.5533C89.2413 9.20981 90.0709 8.2055 91.3318 8.2055ZM87.1339 6.39538H84.4472L81.982 9.82902V6.39538H79.693L79.6939 14.5721H81.982V11.0553L84.3524 14.5721H87.216L84.0265 10.3548L87.1339 6.39538ZM72.9327 11.3016V6.39538H70.7251V14.5721H72.9678L76.1336 9.66564V14.5721H78.3412V6.39538H76.0979L72.9327 11.3016ZM66.2988 10.0742H65.6458V8.19443H66.2988C67.2801 8.19443 67.4197 8.7194 67.4197 9.12852C67.4197 9.47877 67.3149 10.0742 66.2988 10.0742ZM66.8005 6.39538H63.3553V14.5721H65.6458V11.8722H66.8005C69.114 11.8722 69.7799 10.2622 69.7799 9.12852C69.7799 8.00675 69.1256 6.39538 66.8005 6.39538ZM56.5344 8.357H58.3321V14.5721H60.6224V8.357H62.4206V6.39538H56.5344V8.357ZM50.1908 11.3016V6.39538H47.9837V14.5721H50.227L53.3911 9.66564V14.5721H55.5993V6.39538H53.3571L50.1908 11.3016ZM43.3697 12.9356H42.3889V11.2192H43.3697C44.0942 11.2192 44.5149 11.4299 44.5149 12.0728C44.5149 12.7263 44.0829 12.9356 43.3697 12.9356ZM43.5922 9.58382H42.3889V8.357H46.1382V6.39538H40.0997L40.0994 14.5721L43.5922 14.5721C44.1871 14.5721 46.8041 14.5948 46.8041 12.0375C46.8041 9.57221 44.2111 9.58382 43.5922 9.58382ZM27.286 10.4831C27.286 13.1001 29.0381 14.806 31.4674 14.806C32.169 14.806 32.9397 14.6998 33.6758 14.1984V11.8722C33.254 12.3053 32.5884 12.7615 31.7361 12.7615C30.4274 12.7615 29.6454 11.7923 29.6454 10.5533C29.6454 9.20981 30.4744 8.2055 31.7361 8.2055C32.6118 8.2055 33.254 8.69672 33.6758 9.18766V6.81585C32.9851 6.3484 32.1565 6.16125 31.4323 6.16125C29.2128 6.16125 27.286 7.74994 27.286 10.4831ZM22.4927 8.27572H23.7433V14.5721H25.8577V6.39538H22.4927V8.27572Z" fill="black"/>
<path fill-rule="evenodd" clip-rule="evenodd" d="M9.41364 0.669739C8.74393 0.669739 8.09257 0.745082 7.46499 0.884425V9.66606C7.46499 10.7422 8.34237 11.6198 9.41877 11.6198C10.4946 11.6198 11.3717 10.7422 11.3717 9.6666C11.3717 8.63286 10.564 7.78437 9.54866 7.71686V6.15303C11.4249 6.22108 12.9348 7.7733 12.9348 9.6666C12.9348 11.6028 11.3553 13.1831 9.41877 13.1831C7.48146 13.1831 5.90223 11.6028 5.90223 9.66606V1.38131C5.68025 1.47556 5.4634 1.58006 5.25088 1.6924V9.66606C5.25115 11.9612 7.12365 13.8329 9.41877 13.8329C11.7142 13.8329 13.5859 11.9612 13.5859 9.6666C13.5859 7.41468 11.7846 5.57054 9.54866 5.50113V3.93784C12.645 4.00778 15.1481 6.55432 15.1481 9.6666C15.1481 12.8229 12.5743 15.3962 9.41877 15.3962C6.26247 15.3962 3.68785 12.8229 3.68785 9.66606V2.72938C1.69491 4.37747 0.424072 6.86973 0.424072 9.65931C0.424072 14.6241 4.44884 18.65 9.41391 18.65C14.3798 18.65 18.4035 14.6241 18.4035 9.65931C18.4035 4.69451 14.3798 0.669739 9.41364 0.669739Z" fill="black"/>
</g>
</svg>
