<svg xmlns="http://www.w3.org/2000/svg" fill="none" viewBox="0 0 213 23"><path fill="#fff" d="M64.184 17.19L65.42 11h1.493l-1.897 8H63.33l-1.37-6.135L60.615 19h-1.707L57 11h1.55l1.301 6.18L61.142 11h1.65l1.392 6.19zM71.856 11h5.759v1.17h-4.333v2.14h4.097v1.159h-4.097v2.35h4.333V19h-5.759v-8zM82.803 11h3.065c.367 0 .726.03 1.078.088.351.06.666.166.942.32.277.147.498.353.663.618.164.265.247.603.247 1.015 0 .376-.094.718-.28 1.027-.18.309-.39.537-.63.684.165.073.322.165.472.276a1.597 1.597 0 01.651.905c.067.198.101.43.101.695 0 .434-.082.801-.247 1.103a2.044 2.044 0 01-.651.728 2.852 2.852 0 01-.977.42c-.366.08-.755.121-1.167.121h-3.266v-8zm1.426 6.875h1.897c.509 0 .887-.107 1.134-.32.254-.221.381-.53.381-.927 0-.412-.13-.718-.392-.916-.255-.199-.655-.298-1.201-.298h-1.819v2.46zm0-3.532h1.774c.419 0 .748-.091.987-.275.24-.184.36-.475.36-.872 0-.353-.124-.618-.37-.795-.248-.184-.573-.275-.977-.275h-1.774v2.217zM103.171 11h1.504l3.054 8h-1.561l-.64-1.777h-3.3L101.6 19h-1.46l3.031-8zm-.527 5.054h2.458l-1.235-3.432-1.223 3.432zM114.012 17.82h4.097V19h-5.522v-8h1.425v6.82zM123.488 12.17h-2.559V11h6.544v1.17h-2.559V19h-1.426v-6.83zM132.387 11h5.759v1.17h-4.333v2.14h4.097v1.159h-4.097v2.35h4.333V19h-5.759v-8zM146.567 15.623a1.943 1.943 0 01-.213.011h-1.594V19h-1.426v-8h2.593c.599 0 1.123.037 1.572.11.456.074.834.199 1.134.376.306.176.535.415.684.717.158.294.236.662.236 1.103 0 1.03-.509 1.718-1.527 2.064L149.89 19h-1.605l-1.718-3.377zm-1.807-3.497v2.394h1.414c.307 0 .58-.018.82-.055.239-.037.438-.1.595-.188a.877.877 0 00.37-.364c.09-.154.135-.353.135-.596 0-.265-.053-.474-.157-.629a.941.941 0 00-.404-.353 1.709 1.709 0 00-.629-.165 6.363 6.363 0 00-.775-.044h-1.369zM159.821 19l-3.446-6.389V19h-1.381v-8h1.908l3.446 6.389V11h1.381v8h-1.908zM169.621 11h1.505l3.053 8h-1.56l-.64-1.777h-3.3L168.05 19h-1.459l3.03-8zm-.527 5.054h2.458l-1.235-3.432-1.223 3.432zM180.044 12.17h-2.56V11h6.545v1.17h-2.56V19h-1.425v-6.83zM190.368 19h-1.425v-8h1.425v8zM196.794 11l2.065 6.345 2.01-6.345h1.504l-2.784 8h-1.527l-2.817-8h1.549zM207.241 11H213v1.17h-4.333v2.14h4.097v1.159h-4.097v2.35H213V19h-5.759v-8z"/><path fill="#fff" fill-rule="evenodd" d="M13.65 23h4.672l2.64-2.81 2.64 2.81h4.653l-7.302-7.773L13.65 23zM0 6.25l7.869 16.173 4.763-4.825-5.694-9.445L0 6.25zm42-.002L34.131 22.42l-4.763-4.824 5.695-9.446L42 6.248zM20.955 0l-7.85 11.274 2.095 3.697 5.755-5.94 5.756 5.94 2.095-3.697L20.956 0z" clip-rule="evenodd"/></svg>