<svg xmlns="http://www.w3.org/2000/svg" fill-rule="evenodd" stroke-linejoin="round" stroke-miterlimit="2" clip-rule="evenodd" viewBox="0 0 90 5"><path fill="#262626" fill-rule="nonzero" d="M83.793-2.768c-.034-.048-77.85.318-78.849 1.646-1 1.328-1.864 2.483-1.924 2.565-.288.403-.57.762-.593.762-.017 0-.027.017-.027.041 0 .02-.322.46-.715.975-.39.518-.698.942-.685.942l6.593.017c3.608.01 12.69.027 20.184.037 25.743.034 38.288.054 45.338.071 10.407.024 15.882.021 15.885-.01.003-.013-.308-.45-.691-.969a436.15 436.15 0 01-1.03-1.389 483.727 483.727 0 01-1.944-2.612c-.814-1.097-1.505-2.029-1.542-2.076zM6.56-3.188s1.555-.102 1.429.067l-.227.312h-.725c-.399 0-.725-.01-.725-.024a3.8 3.8 0 01.248-.355zm1.392.199c.064-.084 1.646-.227 1.562-.094-.088.132-.193.247-.234.257a9.12 9.12 0 01-.755.01l-.688-.01.115-.163zm1.453.16c0-.024 1.779-.461 1.664-.292l-.207.312h-.728c-.4 0-.729-.01-.729-.02zm1.786-.38s1.494-.027 1.399.126l-.173.274h-.742c-.586 0-.738-.01-.718-.044.014-.024.119-.186.234-.356zm1.538-.003s1.412.115 1.348.217l-.119.186h-.731c-.586 0-.732-.01-.718-.047.01-.024.108-.183.22-.356zm1.311.376c.057-.098 1.721-.4 1.636-.247l-.159.274h-.745c-.41 0-.739-.014-.732-.027zm3.222-.329l-.19.356h-.739c-.406 0-.738-.01-.738-.02 0-.021 1.667-.336 1.667-.336zm1.534 0l-.179.356h-1.498l.17-.312c.091-.169 1.507-.044 1.507-.044zm-.105.339c0-.03 1.738-.508 1.643-.322l-.166.339h-.738c-.407 0-.739-.007-.739-.017zm1.677-.295c.081-.169 1.592-.22 1.508-.03l-.16.342h-1.494l.146-.312zm1.426.268c.065-.163 1.681-.437 1.606-.268l-.132.312h-.745c-.583 0-.742-.01-.729-.044zm1.643-.241c.207-.477 1.589-.24 1.515-.061l-.132.329-.753.01-.752.007.122-.285zm1.444.268c0-.024 1.643-.403 1.555-.169l-.068.186h-.746c-.409 0-.741-.007-.741-.017zm3.153-.318l-.111.335h-1.504l.101-.288c.054-.156 1.514-.047 1.514-.047zm1.542-.024a2.984 2.984 0 01-.125.356c-.017.03-.224.037-.753.03-.396-.003-.724-.017-.724-.027 0-.01.05-.166.108-.346l1.494-.013zm1.541-.007a8.13 8.13 0 01-.101.356c-.014.034-.193.044-.746.044-.399 0-.735-.01-.741-.024-.007-.017.033-.176.088-.356l1.5-.02zm1.552-.051c-.034.139-.075.302-.085.356l-.023.095h-.746c-.41 0-.745-.01-.745-.027s.02-.109.051-.203c.027-.099 1.548-.221 1.548-.221zm1.524.051c-.037.173-.074.332-.081.356-.013.034-.196.044-.749.044-.633 0-.728-.007-.728-.054 0-.031.034-.19.075-.356l1.483.01zm1.549-.034c-.027.153-.058.312-.068.356-.017.078-.021.078-.769.078h-.749l.017-.078c.01-.044.047-.203.078-.356h1.491zm.04.031c.027-.153 1.498-.051 1.474.112l-.041.291h-.745c-.85 0-.776.047-.688-.403zm1.548-.048s1.488-.03 1.474.095c-.037.393.044.356-.806.356h-.745l.016-.095c.011-.054.038-.217.061-.356zm1.508.231c.013-.122 1.508-.176 1.494-.038l-.024.258h-1.494l.024-.22zm3.056-.18c-.01.173-.024.332-.031.356-.01.034-.196.044-.765.044h-.749l.017-.115c.01-.061.03-.224.04-.356l1.488.071zm.047-.037s1.47.176 1.47.271v.166h-1.494v-.081c0-.048.011-.207.024-.356zm3.036.081v.356h-.77c-.684 0-.765-.003-.745-.054.01-.031.02-.19.02-.356l1.495.054zm1.531 0v.356h-1.494v-.356h1.494zm.034-.132s1.497.007 1.511.18l.023.308h-1.49l-.021-.132a2.629 2.629 0 01-.023-.356zm1.565.322c0-.095 1.467-.339 1.48-.159l.024.325h-1.504v-.166zm1.511-.339s1.514.163 1.528.285l.023.22h-1.494l-.017-.149c-.01-.085-.03-.244-.04-.356zm1.558.176c-.02-.179 1.467-.176 1.494.004l.051.325H51.21l-.034-.329zm1.575.214c-.05-.292 1.427-.407 1.457-.241.027.17.051.319.051.339.003.024-.264.034-.745.027l-.746-.01-.017-.115zm2.982-.302c.03.142.061.298.067.346l.007.091-.444.01a7.975 7.975 0 01-.745-.02l-.305-.027-.057-.329 1.477-.071zm.061.065s1.561.288 1.561.338c0 .044-.118.051-.728.051-.4 0-.735-.013-.745-.034a2.883 2.883 0 01-.088-.355zm1.531-.048s1.595.386 1.595.41c0 .014-.335.027-.745.027-.745 0-.749 0-.766-.081a9.209 9.209 0 01-.084-.356zm3.039.037c.054.17.105.332.111.356.014.037-.139.044-.742.037l-.758-.01-.092-.349 1.481-.034zm1.551.028c.054.176.098.332.098.345 0 .014-.332.027-.738.027h-.742l-.108-.356 1.49-.016zm1.525-.045c.057.156.111.312.125.349.02.068 0 .068-.739.061l-.755-.01-.095-.305c-.054-.166 1.464-.095 1.464-.095zm1.565.072l.135.345-.752-.007-.752-.01-.115-.305c-.064-.166 1.484-.023 1.484-.023zm1.514-.065c.068.156.129.315.142.349.017.058-.033.061-.728.061h-.745l-.129-.332c-.068-.179 1.46-.078 1.46-.078zm1.498-.098c.047.115.118.274.155.359l.065.149-.752-.007-.752-.01-.136-.322c-.071-.176 1.42-.169 1.42-.169zm1.595.129c.088.183.159.345.159.355 0 .014-.335.024-.742.024h-.742l-.132-.308c-.074-.17 1.457-.071 1.457-.071zm1.545.023l.179.356h-1.494l-.162-.342c-.088-.19 1.477-.014 1.477-.014zm.064.017c-.091-.176 1.45-.088 1.532.065l.145.274-.755-.007-.756-.01-.166-.322zm3.019-.033c.101.176.186.332.186.345.003.014-.329.027-.739.027h-.738l-.176-.328c-.095-.18 1.467-.044 1.467-.044zm1.544.016l.204.339-.735.01c-.844.011-.725.061-.996-.426l1.527.077zm1.511-.05c.109.169.207.328.217.355.017.044-.101.051-.721.051h-.742l-.129-.223c-.071-.122 1.375-.183 1.375-.183zm.109.084c-.112-.176 1.263-.335 1.46-.04.108.169.203.322.213.342.007.027-.223.034-.731.027l-.746-.01-.196-.319zm3.018-.013c.129.183.234.339.234.345 0 .004-.335.004-.738.004l-.739-.007-.22-.315c-.122-.173 1.463-.027 1.463-.027zm1.528-.014c.129.18.234.339.234.356 0 .017-.319.027-.708.027-.606 0-.718-.007-.769-.058-.048-.047 1.243-.325 1.243-.325zm1.548.007c.139.18.251.342.251.356 0 .013-.332.02-.735.013l-.739-.01-.206-.284c-.112-.156 1.429-.075 1.429-.075zm-75.841.423c-.044.061-.166.231-.271.373l-.189.258-.729-.007c-.4-.007-.725-.024-.725-.037 0-.017.112-.18.251-.366l.254-.339h1.491l-.082.118zm1.606-.091c0 .017-.108.18-.24.366l-.241.339-.738.01c-.407.003-.736-.004-.736-.021 0-.033.051-.115.309-.46l.189-.261h.729c.399 0 .728.013.728.027zm1.511.071c-.301.464-.396.6-.427.623-.044.034-1.473.034-1.473.004 0-.014.105-.183.237-.376l.237-.349h1.487l-.061.098zm1.491.109l-.238.372-.101.17h-.749c-.647 0-.745-.007-.728-.055.013-.027.118-.196.237-.372l.217-.322h1.494l-.132.207zm1.646-.156c-.01.027-.108.196-.22.372l-.2.326h-.745c-.41 0-.742-.011-.742-.021 0-.027.352-.586.42-.664.047-.057.129-.064.779-.064.606 0 .725.01.708.051zm1.45.189c-.074.133-.173.302-.217.376l-.084.133h-.746c-.41 0-.745-.007-.745-.017 0-.007.098-.177.217-.373l.22-.359h1.487l-.132.24zm1.657-.216c0 .013-.085.183-.187.372l-.186.353h-.759c-.417 0-.752-.014-.742-.028.078-.142.329-.575.366-.64.051-.078.061-.081.779-.081.4 0 .729.013.729.024zm1.565 0c0 .013-.082.179-.183.372l-.183.353h-1.521l.166-.312c.257-.478.162-.437.996-.437.399 0 .725.01.725.024zm1.528.02c0 .013-.068.176-.156.366l-.159.339h-.752c-.583 0-.749-.011-.739-.044a5.23 5.23 0 01.183-.376l.169-.332.729.01c.399.006.725.023.725.037zm1.568.007c0 .006-.074.166-.159.355l-.159.343h-.749c-.413 0-.749-.007-.749-.014 0-.027.288-.644.319-.678.027-.033 1.497-.037 1.497-.006zm1.433.281a5.663 5.663 0 00-.146.356c-.013.054-.084.061-.779.061-.44 0-.759-.014-.752-.031.007-.02.075-.179.153-.356l.142-.325h1.511l-.129.295zm1.66-.268c0 .014-.057.173-.132.356l-.129.329h-.762c-.596 0-.759-.011-.745-.044.01-.024.078-.187.152-.356l.132-.312h.742c.407 0 .742.01.742.027zm1.565-.013c0 .023-.244.67-.261.684-.006.007-.349.01-.762.007l-.748-.01.115-.285c.061-.156.125-.315.135-.349.024-.054.092-.061.773-.061.413 0 .748.007.748.014zm1.443.332l-.115.349-.765.01-.766.007.129-.356.128-.356h1.508l-.119.346zm1.65-.302c-.003.024-.047.18-.101.346l-.095.305-.756.01c-.413.003-.752-.004-.752-.021 0-.013.048-.172.109-.355l.108-.329h.745c.573 0 .742.01.742.044zm1.559 0a5.866 5.866 0 00-.099.356l-.081.312h-.759c-.42 0-.759-.011-.759-.021 0-.03.18-.633.2-.664.01-.013.353-.027.766-.027.583 0 .745.01.732.044zm1.473.319l-.095.366h-.755c-.417 0-.756-.004-.756-.011 0-.006.041-.169.092-.366l.095-.352h1.514l-.095.363zm1.63-.336c0 .061-.136.644-.159.681-.024.041-1.447.058-1.484.021-.021-.021.03-.272.115-.597l.037-.132h.745c.41 0 .746.014.746.027zm1.548.054c-.007.044-.034.177-.054.292-.075.423.03.372-.813.372-.407 0-.749-.006-.759-.016-.014-.014.091-.57.132-.685.01-.034.196-.044.762-.044h.749l-.017.081zm1.545.017a5.455 5.455 0 01-.048.363l-.04.268-.756.01c-.677.01-.755.003-.755-.048 0-.034.027-.2.057-.376l.058-.315h1.487l-.003.098zm1.548.105c-.014.116-.037.278-.048.366l-.023.16-.756.01c-.593.006-.755 0-.755-.034 0-.054.061-.461.091-.607l.021-.098h1.494l-.024.203zm1.572-.105c-.01.055-.031.221-.044.373l-.021.274h-.762c-.42 0-.762-.01-.762-.027 0-.061.075-.63.092-.674.01-.034.193-.044.765-.044h.749l-.017.098zm1.541.088c0 .102-.01.271-.023.373l-.021.186h-1.528l.021-.094c.01-.055.027-.224.04-.376l.024-.275h1.487v.186zm1.565.024c0 .112-.01.281-.023.373l-.021.162h-1.483v-.26c0-.146.006-.312.02-.373l.024-.112h1.483v.21zm1.559.173l.01.362h-1.531v-.348c0-.194.01-.36.023-.373.014-.014.353-.02.756-.017l.732.01.01.366zm1.548-.136c.014.129.024.292.024.366v.132h-1.528v-.348c0-.194.007-.356.013-.366.01-.011.346-.014.746-.014h.725l.02.23zm1.555-.125c0 .044.01.203.02.352l.024.271h-1.538l-.004-.362v-.366l1.498.02v.085zm1.565-.003c0 .047.01.206.02.355l.024.271h-1.538l-.003-.274c0-.152-.011-.312-.021-.356l-.02-.081h1.538v.085zm1.531-.075l.044.356.044.345h-.755c-.874 0-.773.055-.813-.433l-.021-.278h.749c.414 0 .749.007.752.01zm1.562.017c0 .031.061.43.088.59l.017.094h-1.521l-.02-.115a4.558 4.558 0 01-.041-.355l-.024-.241h.749c.413 0 .752.014.752.027zm1.599.251c.024.152.051.311.061.356l.02.077h-.769c-.592 0-.769-.01-.769-.044 0-.023-.023-.183-.047-.355l-.048-.312h1.508l.044.278zm1.572.044c.034.166.064.322.064.345 0 .034-.172.044-.759.044h-.758l-.044-.274a9.293 9.293 0 00-.061-.356l-.021-.081.759.01.759.01.061.302zm1.568.034c.051.196.085.359.078.366-.003.003-.349 0-.765-.011l-.759-.016-.061-.302a4.904 4.904 0 01-.064-.346c0-.033.169-.047.741-.047h.742l.088.356zm1.555-.024c.048.18.092.349.102.373.014.037-.139.044-.738.044-.871-.007-.773.044-.888-.454l-.064-.295h1.507l.081.332zm1.572.024c.054.186.102.352.102.366 0 .017-.339.023-.755.02l-.756-.01-.075-.268a5.703 5.703 0 01-.098-.366l-.027-.098 1.511.02.098.336zm1.559-.024c.057.18.108.349.108.373 0 .037-.163.044-.755.037l-.752-.01-.099-.322a3.38 3.38 0 01-.098-.363c-.003-.033.169-.047.742-.047h.742l.112.332zm1.453-.268c.02.034.085.204.146.373l.108.312h-1.521l-.125-.373-.126-.376h.742c.674 0 .749.007.776.064zm1.667.258c.064.166.129.332.139.366.02.057-.031.061-.725.061-.556 0-.756-.01-.78-.044a2.3 2.3 0 01-.132-.322c-.05-.153-.105-.302-.115-.332-.017-.044.085-.051.739-.041l.755.01.119.302zm1.551-.027c.068.162.133.328.146.376l.027.078-.759-.007-.755-.01-.136-.339a4.675 4.675 0 01-.132-.366c0-.013.332-.027.742-.027h.742l.125.295zm1.437-.248c.047.058.298.627.298.671 0 .017-.305.027-.756.024l-.752-.01-.135-.336a4.042 4.042 0 01-.136-.365c0-.051 1.443-.034 1.481.016zm1.595.061c.031.058.109.227.177.373l.121.268H68.64l-.115-.258c-.065-.142-.139-.311-.166-.372l-.048-.119h1.491l.057.108zm1.542-.003c.067.095.325.59.325.623 0 .014-.342.021-.759.021h-.759l-.159-.342c-.085-.19-.159-.36-.166-.376-.01-.021.295-.031.718-.028l.735.007.065.095zm1.711.268c.098.183.179.342.179.352 0 .014-.335.024-.745.024h-.749l-.169-.329a10.288 10.288 0 01-.18-.366c-.007-.023.251-.03.739-.023l.745.01.18.332zm1.575.02l.2.356h-1.518l-.183-.336a5.458 5.458 0 01-.179-.355c0-.011.332-.021.741-.021h.739l.2.356zm1.477-.152c.061.115.156.274.207.355l.091.153h-1.521l-.2-.356-.2-.356h1.508l.115.204zm1.619.108c.105.169.203.332.217.356.02.034-.135.044-.732.044h-.759l-.094-.17c-.055-.091-.146-.254-.207-.355l-.108-.187h1.49l.193.312zm1.586.027c.122.19.22.349.22.359 0 .007-.339.01-.752.007l-.752-.01-.21-.332a5.515 5.515 0 01-.207-.346c0-.01.332-.017.742-.017h.742l.217.339zm1.578.017l.241.356h-1.521l-.217-.336a3.562 3.562 0 01-.217-.355c0-.011.332-.021.735-.021l.739.004.24.352zm1.555-.003c.139.193.251.355.251.362 0 .007-.339.01-.755.003l-.756-.01-.244-.352-.24-.356h1.494l.25.353zm1.542-.031c.135.176.251.349.264.38.02.047-.054.054-.708.037-.403-.01-.749-.027-.769-.041-.031-.017-.4-.518-.481-.654-.024-.034.129-.044.711-.044h.742l.241.322zm-76.902.4c-.017.024-.135.19-.271.373l-.24.328H5.1l.277-.373.275-.372h.759c.596 0 .752.007.731.044zm1.589-.031c0 .011-.112.177-.244.366l-.244.349-.775.01c-.624.007-.769 0-.742-.037.02-.024.145-.193.277-.373l.238-.332h.745c.41 0 .745.011.745.017zm1.552.038c-.014.03-.119.196-.237.372l-.217.322h-.766c-.62 0-.759-.01-.735-.047.014-.024.129-.193.254-.373l.227-.329h.745c.647 0 .746.011.729.055zm1.565.034l-.241.372-.183.288H9.897l.064-.101.244-.373.179-.271h.759l.759-.004-.054.089zm1.606-.061c-.007.016-.105.182-.22.376l-.211.345h-.758c-.417 0-.759-.01-.759-.02s.101-.176.227-.373l.23-.356h.752c.413 0 .745.014.739.028zm1.572-.004c0 .01-.088.18-.2.373l-.2.352h-.759c-.42 0-.762-.01-.762-.02 0-.024.342-.607.4-.681.027-.034.227-.048.779-.048.406 0 .742.011.742.024zm1.558.024c-.007.024-.091.19-.186.373l-.177.328h-1.544l.213-.373.217-.376h.745c.576 0 .742.011.732.048zm1.426.318c-.101.2-.196.373-.21.383-.017.01-.366.014-.776.007l-.748-.01.145-.275c.082-.149.177-.318.214-.372l.068-.099h1.49l-.183.366zm1.748-.349c0 .034-.322.681-.359.725-.03.038-.203.044-.782.034a10.29 10.29 0 01-.746-.02c0-.02.332-.667.363-.708.027-.034.23-.048.779-.048.41 0 .745.011.745.017zm1.562.031c0 .024-.078.196-.169.379l-.166.339-.756.01c-.417.007-.755-.003-.755-.017 0-.017.078-.193.176-.393l.173-.366h.748c.58 0 .749.014.749.048zm1.565.01c.003.051-.244.623-.291.681-.044.054-1.521.068-1.521.014 0-.048.281-.651.328-.709.034-.04.176-.047.762-.037.485.007.722.024.722.051zm1.47.312a3.154 3.154 0 01-.162.369c-.044.061-1.518.064-1.518.007 0-.044.244-.637.285-.691.017-.021.305-.031.775-.024l.746.01-.126.329zm1.698-.319c0 .041-.251.678-.278.705-.017.017-.366.027-.779.02l-.749-.01.142-.362.146-.366h.759c.417 0 .759.006.759.013zm1.561.031c0 .023-.05.189-.115.366l-.112.318-.779.01c-.427.007-.769-.003-.762-.02.007-.014.068-.183.135-.373l.123-.345h.758c.583 0 .756.01.752.044zm1.484.322l-.115.362-.772.01c-.424.007-.769.004-.769-.003 0-.01.193-.593.227-.691.013-.034.203-.044.779-.044h.762l-.112.366zm1.667-.285c-.01.044-.058.207-.102.363l-.078.284-.775.01c-.725.01-.773.007-.756-.054l.112-.373.091-.311h1.528l-.02.081zm1.582-.054c0 .013-.037.179-.081.362l-.082.339-.772.01c-.423.007-.769 0-.769-.01 0-.013.041-.179.092-.376l.094-.352h.759c.42 0 .759.013.759.027zm1.565.034c0 .054-.024.169-.122.606-.02.078-.02.078-.782.078-.525 0-.766-.01-.766-.037 0-.038.129-.576.159-.664.014-.034.197-.044.766-.044.688 0 .745.003.745.061zm1.589 0c-.01.034-.024.111-.034.169-.01.061-.037.2-.061.312l-.037.203h-.762c-.641 0-.762-.007-.762-.051 0-.027.023-.159.05-.291l.075-.322c.017-.081.017-.081.782-.081.715 0 .766.003.749.061zm1.562.091l-.061.373-.037.22h-.776c-.607 0-.776-.007-.763-.044.007-.024.041-.19.072-.373l.061-.328h1.528l-.024.152zm1.568.088a6.529 6.529 0 01-.047.373l-.02.132h-1.545l.051-.329c.027-.179.057-.349.064-.372.01-.034.196-.044.769-.044h.752l-.024.24zm1.603-.179a2.75 2.75 0 00-.041.376l-.024.308h-.782c-.729 0-.783-.003-.766-.061.01-.034.031-.173.041-.312.04-.413-.048-.372.823-.372.711 0 .766.003.749.061zm1.565.159a3.913 3.913 0 00-.024.373v.152h-1.572l.02-.132c.011-.075.028-.241.041-.373l.024-.24h1.531l-.02.22zm1.568.163c-.003.21-.02.379-.037.372a20.83 20.83 0 00-.772-.01h-.749l.02-.329c.014-.179.031-.349.038-.372.01-.034.193-.044.762-.044h.749l-.011.383zm1.586.006l-.01.376-.329.011c-.183.006-.528 0-.766-.014l-.437-.024v-.234c0-.132.011-.298.024-.372l.02-.132.752.006.753.011-.007.372zm1.572-.372l.02.765h-1.531v-.782l.755.006.756.011zm1.565.023c.013.014.034.187.044.383l.02.359h-1.531l-.024-.355a2.112 2.112 0 01-.003-.393c.027-.044 1.453-.034 1.494.006zm1.619.129c0 .075.01.241.02.373l.024.24h-1.531l-.02-.112a2.427 2.427 0 01-.024-.382v-.271l.766.01.765.01v.132zm1.575.034l.045.376.023.203h-.769c-.887 0-.786.058-.823-.454l-.02-.294h1.524l.02.169zm1.569-.051l.054.325c.02.116.037.234.037.258 0 .041-.145.047-.772.041l-.776-.011-.024-.233a14.586 14.586 0 00-.043-.363l-.021-.135h1.528l.017.118zm1.616.176c.027.163.054.329.064.376l.021.078-.78-.006-.775-.011-.044-.267a4.425 4.425 0 01-.044-.366v-.098h1.514l.044.294zm1.585 0c.034.163.072.329.082.376l.017.078-.776-.006-.776-.011-.044-.213a9.196 9.196 0 01-.064-.366l-.024-.152h1.521l.064.294zm1.549-.159c.017.075.05.214.071.312.023.098.047.206.057.24.021.058-.034.061-.759.061h-.775l-.065-.311a8.322 8.322 0 00-.081-.373c-.017-.058.037-.064.749-.064h.765l.038.135zm1.646.241c.051.193.095.359.098.362 0 .007-.349.01-.775.01h-.776l-.078-.328a3.886 3.886 0 01-.078-.376c0-.034.162-.041.755-.034l.756.01.098.356zm1.535-.17c.03.112.081.281.108.373l.051.169h-1.548l-.095-.352c-.051-.197-.095-.363-.095-.376 0-.01.342-.02.759-.02h.762l.058.206zm1.636.17l.122.372h-1.548l-.099-.325c-.054-.179-.105-.349-.115-.376-.013-.037.129-.047.749-.047h.766l.125.376zm1.46-.346c.01.017.071.186.139.373l.125.345h-1.558l-.108-.338a4.37 4.37 0 01-.106-.373c0-.044 1.481-.051 1.508-.007zm1.718.346l.142.372h-1.548l-.105-.294a13.24 13.24 0 01-.132-.373l-.024-.081h1.521l.146.376zm1.578-.021c.075.187.139.353.139.366 0 .014-.342.027-.762.027h-.762l-.112-.294c-.065-.16-.129-.329-.146-.373l-.03-.081.765.01.766.01.142.335zm1.565-.047c.078.169.149.342.16.383l.017.074-.766-.017-.769-.017-.142-.335a4.02 4.02 0 01-.139-.366c0-.013.335-.03.748-.03h.749l.142.308zm1.603.047c.091.187.169.359.169.383.004.034-.166.044-.738.044-.553 0-.752-.01-.779-.044a7.877 7.877 0 01-.329-.725c0-.007.339-.01.755-.003l.756.01.166.335zm1.406-.325c.044.027.369.661.369.718 0 .058-1.477.048-1.525-.01a3.772 3.772 0 01-.199-.393l-.16-.345.736.003c.406 0 .755.01.779.027zm1.778.342c.105.193.19.366.19.383 0 .017-.339.027-.755.02l-.756-.01-.186-.355a4.147 4.147 0 01-.187-.383c0-.014.339-.024.753-.017l.752.01.189.352zm1.426-.274c.062.081.366.637.366.664 0 .013-.335.02-.745.02h-.745l-.068-.095a3.646 3.646 0 01-.207-.366c-.077-.145-.142-.274-.149-.284-.003-.01.332-.014.749-.01.674.006.759.017.799.071zm1.762.295c.112.193.203.359.203.372 0 .01-.342.017-.758.017h-.759l-.2-.359a4.843 4.843 0 01-.203-.379c0-.014.338-.021.755-.014l.755.01.207.353zm1.586-.004c.118.193.22.363.22.373 0 .013-.346.02-.762.02h-.763l-.169-.291a13.22 13.22 0 00-.22-.373l-.051-.081h1.524l.221.352zm1.588.004c.126.196.231.365.231.376 0 .006-.342.013-.759.013h-.759l-.22-.349a4.467 4.467 0 01-.217-.376c0-.01.335-.02.745-.02h.749l.23.356zm1.582-.011c.129.19.238.356.244.373.007.017-.332.027-.752.027h-.765l-.187-.291c-.105-.163-.21-.329-.24-.373l-.051-.081h.759l.762.003.23.342zm1.596.011c.139.196.254.365.254.372 0 .01-.342.017-.759.017h-.759l-.257-.372-.257-.373h1.521l.257.356zm1.562-.028c.135.183.254.349.271.373.02.037-.136.044-.735.044h-.759l-.258-.356a6.342 6.342 0 01-.254-.372c0-.01.336-.017.746-.017h.748l.241.328zm-78.06.393a9.024 9.024 0 01-.275.393l-.243.343h-.783c-.62 0-.772-.007-.745-.044.017-.024.132-.18.257-.346.122-.166.247-.322.278-.346.085-.067 1.552-.064 1.511 0zm1.595.017c-.02.034-.138.207-.26.383l-.227.319-.773.01c-.423.007-.772 0-.772-.01 0-.031.467-.675.525-.719.044-.033.261-.047.799-.047.695 0 .739.007.708.064zm1.596-.017c0 .014-.105.187-.237.383l-.237.353H7.728l.238-.346c.132-.19.26-.362.288-.386.054-.044 1.507-.048 1.507-.004zm1.596.017a9.212 9.212 0 01-.227.376l-.214.343h-.772c-.427 0-.772-.007-.772-.017 0-.011.105-.177.233-.373l.237-.356h.763c.42 0 .758.014.752.027zm1.605-.01c0 .007-.098.176-.216.373l-.214.356h-1.565l.132-.204.237-.372.102-.17h.762c.42 0 .762.007.762.017zm1.603.004c0 .037-.403.708-.444.738-.047.034-1.514.017-1.514-.02 0-.014.098-.183.217-.383l.213-.356h.762c.42 0 .766.01.766.021zm1.599-.007c0 .027-.295.569-.366.671l-.064.098h-.763c-.42 0-.762-.007-.762-.014 0-.01.095-.183.214-.393l.216-.376h.763c.42 0 .762.007.762.014zm1.602.01c0 .01-.091.186-.2.39l-.196.369h-.762c-.454 0-.763-.014-.763-.034a.59.59 0 01.065-.152c.037-.065.125-.224.196-.356l.132-.241h.763c.42 0 .765.01.765.024zm1.599-.007c0 .01-.084.187-.186.393l-.186.373h-.773c-.427 0-.776-.007-.776-.01 0-.007.088-.183.2-.393l.197-.38h.762c.42 0 .762.007.762.017zm1.603 0c0 .007-.082.183-.177.39l-.176.376h-.769c-.494 0-.765-.014-.765-.037 0-.021.081-.197.179-.39l.176-.356h.766c.42 0 .766.007.766.017zm1.599-.003c0 .01-.071.179-.156.383l-.159.369-.786.01-.783.007.031-.078c.017-.047.098-.224.176-.393l.145-.312h.766c.42 0 .766.007.766.014zm1.582.047c-.014.034-.082.21-.149.393l-.126.329h-.779c-.427 0-.776-.014-.776-.031 0-.027.268-.664.305-.725.01-.013.363-.027.783-.027.718 0 .766.004.742.061zm1.602 0c-.01.034-.071.207-.139.383l-.118.322-.786.01-.79.007.075-.186c.041-.102.098-.248.122-.319.108-.301.034-.278.891-.278.715 0 .766.004.745.061zm1.609-.017c-.01.024-.067.2-.132.393l-.115.346h-.779c-.427 0-.779-.007-.779-.014 0-.03.22-.643.254-.708.03-.054.105-.061.799-.061.6 0 .766.01.752.044zm1.589.038c-.013.044-.068.213-.118.379l-.095.305-.79.01-.786.007.119-.356c.068-.193.129-.369.142-.389.014-.024.305-.038.79-.038h.762l-.024.082zm1.623-.072c0 .004-.051.177-.109.38-.057.207-.105.379-.105.383 0 .006-.355.01-.786.01-.731 0-.785-.004-.768-.061.135-.457.179-.607.206-.661.031-.054.105-.061.796-.061.42 0 .766.004.766.01zm1.589.034c-.007.024-.054.2-.098.393l-.085.346h-1.575l.101-.356a5.63 5.63 0 01.119-.393c.013-.02.332-.034.789-.034.6 0 .762.01.749.044zm1.582-.027c.007.01-.017.183-.061.383l-.075.366-.792.01c-.742.007-.79.003-.773-.054.01-.034.051-.197.088-.356.041-.159.082-.308.092-.328.023-.038 1.484-.058 1.521-.021zm1.612.065c-.01.023-.04.189-.074.372l-.058.329h-.779c-.599 0-.779-.01-.779-.044.003-.061.135-.664.156-.695.007-.013.359-.02.782-.017.58.011.763.021.752.055zm1.549.318l-.055.366-.796.01c-.745.007-.793.003-.776-.054.011-.034.028-.112.038-.17l.057-.311.041-.207h1.548l-.057.366zm1.612-.003c-.027.2-.057.372-.071.382-.01.011-.362.021-.783.021-.667 0-.758-.007-.758-.054 0-.031.013-.153.034-.268l.054-.325.02-.119h1.548l-.044.363zm1.606.02l-.037.383-.746.01c-.41.007-.762.003-.786-.007-.027-.01-.027-.108.007-.362.027-.193.048-.363.048-.38 0-.013.349-.027.775-.027h.776l-.037.383zm1.619-.156a4.3 4.3 0 01-.023.393l-.024.163h-1.562l.02-.237.044-.393.021-.153h1.524v.227zm1.599-.227v.783h-1.565V-.58c0-.125.01-.301.024-.393l.02-.166h1.521zm1.603 0v.783h-1.579l.024-.292c.013-.162.023-.338.023-.393v-.098h1.532zm1.612.081c.01.045.02.221.02.393l.004.309h-1.565v-.783h.759c.759 0 .762.004.782.081zm1.603 0c.01.045.023.221.027.393l.01.312-.783-.01-.782-.01-.021-.766h.766c.766 0 .766.004.783.081zm1.595-.054c.01.017.027.193.041.393l.027.363h-1.562l-.023-.237a6.115 6.115 0 01-.021-.393v-.153h.762c.417 0 .769.014.776.027zm1.633.224l.044.383.02.149h-.779c-.714 0-.782-.004-.799-.061a4.174 4.174 0 01-.041-.393l-.024-.329.776.01.779.01.024.231zm1.619.054c.021.156.041.329.045.383l.003.095h-1.555l-.041-.336a6.433 6.433 0 01-.04-.389c0-.051.088-.058.772-.048l.772.01.044.285zm1.616.051c.034.186.061.359.065.383 0 .034-.176.044-.779.044h-.783l-.017-.115-.054-.326c-.065-.379-.146-.342.735-.332l.772.01.061.336zm1.616.047l.075.38h-1.575l-.041-.258c-.024-.139-.054-.318-.068-.389l-.02-.136.776.01.775.01.078.383zm1.603-.047c.044.186.081.359.084.383 0 .034-.179.044-.782.044-.43 0-.783-.004-.783-.014 0-.007-.03-.169-.071-.359a5.24 5.24 0 01-.071-.376c0-.02.325-.03.772-.024l.773.01.078.336zm1.189-.332l.339.024.084.325c.044.176.092.342.099.369.013.034-.146.041-.776.034l-.793-.01-.081-.339a4.906 4.906 0 01-.082-.379c-.003-.051.614-.061 1.21-.024zm2.046.389l.112.37h-1.582l-.092-.37a12.715 12.715 0 01-.095-.382c0-.007.349-.007.773 0l.776.01.108.372zm1.609-.01c.065.2.115.373.115.383 0 .01-.349.014-.775.007l-.773-.007-.091-.278a7.77 7.77 0 01-.119-.372l-.024-.099h1.555l.112.366zm1.606-.02c.064.193.125.369.135.393.014.034-.152.044-.745.044-.417 0-.776-.014-.793-.027-.02-.014-.084-.169-.138-.346a29.666 29.666 0 01-.119-.366c-.014-.033.152-.044.759-.044h.779l.122.346zm1.613.003c.071.193.132.37.132.393 0 .031-.2.041-.773.034l-.772-.01-.119-.322a26.226 26.226 0 00-.135-.383c-.021-.057.034-.061.755-.061h.776l.136.349zm1.598-.02l.156.393c.021.058-.03.061-.742.061-.569 0-.775-.01-.799-.044a2.15 2.15 0 01-.142-.329l-.136-.349c-.024-.057.027-.061.752-.061h.779l.132.329zm1.63.034c.088.2.163.376.169.393.007.013-.342.024-.775.02l-.79-.01-.156-.373a7.52 7.52 0 01-.155-.382c0-.007.345-.011.772-.011h.776l.159.363zm1.609.003c.092.2.17.376.17.39 0 .013-.346.027-.769.027h-.766l-.146-.312a11.493 11.493 0 01-.173-.389l-.03-.082h1.545l.169.366zm1.616.007c.102.197.186.369.186.383 0 .013-.349.027-.775.027h-.776l-.064-.132c-.034-.075-.119-.251-.183-.393l-.119-.258.772.007.773.01.186.356zm1.423-.329c.02.024.119.2.22.393l.187.346h-1.569l-.196-.393-.197-.39h.759c.569 0 .772.011.796.044zm1.799.329c.112.197.203.369.203.383 0 .013-.342.027-.759.027-.569 0-.772-.01-.796-.044a5.55 5.55 0 01-.22-.393l-.186-.346.775.007.776.01.207.356zm1.497-.186c.065.101.17.278.234.393l.115.203h-1.565l-.132-.241a15.652 15.652 0 00-.22-.389l-.088-.153h1.538l.118.187zm1.521-.126c.031.034.146.21.254.393l.204.329h-1.562l-.186-.312c-.102-.169-.21-.345-.238-.389l-.05-.082h.762c.684 0 .769.007.816.061zm1.816.312c.132.197.237.369.241.383 0 .013-.346.027-.773.027h-.772l-.241-.393-.24-.39.776.007.772.01.237.356zm1.586-.034c.125.176.244.349.261.383.033.058-.014.061-.746.061h-.782l-.234-.366a4.241 4.241 0 01-.234-.393c0-.013.339-.02.756-.017l.752.01.227.322zm1.653.061l.278.383h-1.562l-.234-.335a5.952 5.952 0 01-.257-.393c-.017-.051.061-.055.738-.048l.759.01.278.383zm1.03-.366h.311l.207.278c.115.153.237.319.274.373l.061.098h-.775l-.78-.003-.243-.339a4.902 4.902 0 01-.261-.397c-.021-.047.033-.054.437-.033.254.013.599.023.769.023zM5.848-.15L5.57.24l-.132.186H3.85l.084-.115c.048-.061.18-.237.295-.389l.207-.278h1.558l-.146.206zm1.745-.183c0 .011-.115.187-.258.39l-.254.369H5.493L5.73.098c.128-.18.261-.356.288-.39.05-.057.135-.064.813-.064.42 0 .762.01.762.023zm1.613.024c-.017.024-.129.2-.255.39l-.223.345h-.783c-.43 0-.779-.006-.779-.017 0-.01.115-.186.254-.393l.258-.372h.775c.614 0 .773.01.753.047zm1.47.258c-.105.166-.22.342-.258.393l-.071.088-.772-.01-.773-.011.248-.382.247-.383h1.565l-.186.305zm1.788-.282c0 .011-.098.187-.223.39l-.22.369h-1.593l.075-.115c.041-.061.152-.237.244-.389l.169-.275h.776c.424 0 .772.007.772.02zm1.627.004c-.007.017-.109.193-.221.393l-.203.362h-1.592l.237-.389.234-.393h.779c.43 0 .772.013.766.027zm1.48.284a4.784 4.784 0 01-.237.414l-.071.101-.759-.01c-.417-.01-.759-.027-.759-.047 0-.017.031-.082.068-.143.034-.061.132-.227.213-.365l.149-.261h1.562l-.166.311zm1.768-.291c0 .044-.369.749-.406.772-.02.014-.383.028-.8.028-.589 0-.755-.011-.745-.044.007-.024.098-.211.207-.41l.196-.363h.773c.427 0 .775.007.775.017zm1.637 0c0 .01-.092.193-.197.41l-.196.39H17.8c-.43 0-.782-.007-.782-.017 0-.011.088-.197.196-.41l.197-.393h.782c.43 0 .783.01.783.02zm1.507.258c-.067.152-.152.332-.186.399l-.061.126-.789.01c-.437.003-.793 0-.793-.01 0-.011.088-.197.196-.41l.197-.393h1.562l-.126.278zm1.728-.255c0 .014-.074.197-.163.41l-.162.387h-1.593l.065-.153c.183-.413.261-.579.295-.62.027-.034.233-.047.799-.047.417 0 .759.01.759.023zm1.636-.013c0 .007-.071.186-.156.4l-.152.393-.789.01c-.468.003-.786-.007-.786-.024 0-.02.054-.169.125-.332.071-.163.142-.332.159-.376.031-.078.038-.081.817-.081.43 0 .782.007.782.01zm1.603.037c0 .024-.061.203-.136.4l-.132.356-.793.01c-.433.003-.789 0-.789-.007 0-.024.251-.674.288-.742.03-.057.105-.064.796-.064.593 0 .766.01.766.047zm1.636-.02c0 .017-.058.2-.129.41l-.129.383h-.799c-.749 0-.8-.004-.776-.061.014-.034.071-.2.132-.366.061-.166.126-.322.143-.346.027-.034.23-.047.796-.047.416 0 .762.013.762.027zm1.606.068a8.506 8.506 0 01-.112.379l-.098.329-.803.01-.803.007.122-.363c.068-.203.129-.383.135-.406.01-.028.251-.034.793-.024.661.013.776.024.766.068zm1.609.057a8.115 8.115 0 01-.102.38l-.078.271-.789.01c-.447.003-.789-.007-.789-.024 0-.037.203-.708.227-.745.006-.014.362-.021.786-.014l.769.01-.024.112zm1.643-.054c-.007.034-.051.21-.095.393l-.078.329h-.799c-.742 0-.796-.004-.779-.061.01-.034.05-.194.091-.349l.091-.329c.011-.034.204-.044.8-.044.732 0 .786.003.769.061zm1.562.315a2.694 2.694 0 01-.099.39c-.01.01-.369.013-.799.01l-.783-.01.092-.383.088-.383h1.582l-.081.376zm1.687-.315c0 .034-.031.207-.065.383l-.061.322-.792.01-.796.007.02-.133a7.94 7.94 0 01.081-.393l.058-.257h.779c.718 0 .776.003.776.061zm1.626.037c-.01.054-.037.231-.061.39l-.041.295h-.796c-.44 0-.796-.014-.796-.028 0-.03.095-.559.122-.674.02-.081.02-.081.806-.081h.786l-.02.098zm1.629 0c-.01.054-.033.224-.054.38a2.01 2.01 0 01-.047.294c-.017.017-1.559.014-1.576 0a7.414 7.414 0 01.051-.389l.058-.383h1.585l-.017.098zm1.606.214a6.292 6.292 0 01-.044.413l-.02.102-.769-.014a13.37 13.37 0 01-.793-.02c-.01-.004 0-.163.027-.356.024-.19.044-.369.048-.393 0-.034.182-.044.786-.044h.785l-.02.312zm1.63.054a4.59 4.59 0 01-.034.406c-.01.034-.204.044-.803.044h-.786l.02-.308c.014-.173.034-.356.044-.41l.021-.098h1.561l-.023.366zm1.643-.2a4.188 4.188 0 00-.021.407v.243h-1.605l.023-.362c.011-.2.027-.386.034-.41.01-.034.203-.044.803-.044h.789l-.023.166zm1.616-.166v.816h-.783c-.43 0-.786-.01-.793-.023-.01-.017-.006-.2 0-.41l.017-.383h1.559zm1.643.383c.003.21.003.393 0 .41-.007.013-.363.023-.793.023h-.779v-.816h1.558l.014.383zm1.609-.339c.007.024.024.21.034.41l.023.362h-1.599L46.64.118a8.14 8.14 0 010-.41c.007-.013.356-.027.776-.027.579 0 .769.01.779.044zm1.633.017c.01.034.027.22.04.41l.024.345h-1.606V.308c0-.105-.013-.288-.023-.407l-.024-.22h.786c.718 0 .786.007.803.061zm1.606-.027c.01.02.04.207.067.41l.044.372h-.792c-.722 0-.793-.003-.81-.061a4.306 4.306 0 01-.041-.409l-.023-.346h.765c.471 0 .776.014.79.034zm1.676.244c.021.129.051.305.061.389l.021.149h-1.589l-.024-.142a5.282 5.282 0 01-.044-.41l-.024-.271.78.024.779.02.04.241zm1.644.017c.02.142.05.315.06.389l.024.132h-1.599l-.054-.379a3.898 3.898 0 01-.044-.403c.007-.007.362-.01.789-.007l.779.01.045.258zm1.588-.18l.085.393.068.312-.803-.01-.806-.011-.061-.338c-.034-.183-.061-.356-.065-.38 0-.037.176-.047.779-.047.783 0 .783.003.803.081zm1.687.251c.041.179.085.356.095.389.017.058-.037.061-.782.061h-.8l-.04-.203c-.024-.112-.055-.261-.075-.328-.068-.268-.122-.251.749-.251h.779l.074.332zm1.65.041c.051.203.095.379.095.389 0 .014-.359.02-.799.02-.461 0-.8-.013-.8-.03s-.041-.193-.088-.393l-.085-.359h1.579l.098.373zm1.643.03l.116.383-.803-.01-.8-.011-.078-.284a12.65 12.65 0 01-.101-.383l-.028-.098.793.01.789.01.112.383zm1.633-.02c.071.21.129.393.129.403 0 .007-.363.01-.8.007l-.799-.011L61.41.24c-.04-.142-.091-.302-.108-.359a.655.655 0 01-.034-.136c0-.013.352-.03.779-.03h.779l.129.383zm1.633 0c.071.21.132.396.132.41 0 .017-.355.023-.789.02l-.789-.01-.133-.4-.135-.403h1.585l.129.383zm1.65.027c.085.217.152.396.152.4 0 .006-.349.01-.779.01-.579 0-.786-.01-.813-.044a2.881 2.881 0 01-.163-.41l-.128-.366.789.01.789.01.153.39zM67.847.06c.078.183.149.363.163.404.02.071.017.071-.773.064l-.792-.01-.149-.376a4.235 4.235 0 01-.153-.4c0-.014.352-.024.783-.017l.786.01.135.325zm1.65.038c.091.21.166.396.166.41 0 .017-.356.023-.79.02l-.785-.01-.156-.376a4.235 4.235 0 01-.153-.4c0-.014.349-.027.776-.027h.776l.166.383zm1.646.02l.197.4-.793.01c-.434.003-.793.003-.799-.003a8.298 8.298 0 01-.19-.41l-.176-.4h1.565l.196.403zm1.633-.01c.105.213.197.4.197.41 0 .01-.353.017-.783.017h-.782l-.197-.39a7.188 7.188 0 01-.196-.41c0-.01.352-.02.782-.02h.783l.196.393zm1.467-.295c.037.054.142.241.23.41l.166.312h-1.595l-.197-.39a7.188 7.188 0 01-.196-.41c0-.01.342-.02.762-.02h.762l.068.098zM75.9-.15c.044.075.149.258.233.41l.149.275h-1.588L74.49.148a5.684 5.684 0 01-.203-.409c0-.011.346-.024.766-.024h.762l.085.135zm1.568-.094c.031.033.447.738.447.758 0 .011-.355.017-.789.014l-.789-.01-.204-.356c-.115-.196-.206-.379-.206-.406-.004-.041.125-.045.762-.031.424.01.772.024.779.031zm1.694.094c.031.055.139.231.241.39l.186.295h-1.592l-.234-.393-.237-.39h1.582l.054.098zm1.789.248c.122.193.234.369.251.393.02.034-.143.044-.77.044h-.792L79.47.26c-.091-.152-.203-.328-.244-.393l-.074-.115h1.575l.224.346zm1.653.023c.142.207.257.383.257.393 0 .011-.355.021-.785.021h-.783l-.224-.346c-.122-.193-.233-.369-.25-.393-.021-.034.139-.044.752-.044h.779l.254.369zm1.508-.183l.277.393.146.204h-1.592l-.244-.363a21.64 21.64 0 01-.261-.389c-.007-.017.339-.031.766-.031h.775l.133.186zm1.771.194c.156.206.285.389.285.399 0 .01-.356.017-.793.01l-.789-.013-.275-.386-.274-.39h1.562l.284.38zM5.089.901l-.294.399-.79.01c-.433.004-.789-.003-.789-.016 0-.034.569-.79.606-.8.017-.007.376-.007.8-.003l.762.01-.295.4zm1.786-.18c-.082.122-.21.308-.288.41l-.136.186h-.782c-.431 0-.779-.01-.779-.023 0-.014.121-.197.274-.407l.274-.386h.793l.793-.004-.149.224zM8.657.525c0 .016-.119.196-.258.399l-.257.376-.813.01-.813.007.122-.169c.067-.092.199-.278.291-.41l.169-.241h.78c.43 0 .779.014.779.028zm1.416.382l-.258.41H8.196l.271-.41.274-.41h1.586l-.254.41zm1.822-.274l-.244.41-.166.274H9.87l.257-.41.257-.406h.793l.796-.004-.078.136zm1.708-.115c0 .01-.102.193-.224.41l-.22.389H11.54l.2-.328c.108-.183.22-.366.247-.41.051-.078.061-.082.833-.082.43 0 .783.011.783.021zm1.511.274c-.092.163-.19.346-.22.41l-.058.115h-1.619l.233-.41.231-.41h1.595l-.162.295zm1.792-.261c-.007.017-.102.2-.207.407l-.196.379h-1.616l.142-.257c.078-.142.176-.325.22-.41l.075-.153h.796c.437 0 .793.017.786.034zm1.643-.006c0 .016-.085.199-.186.409l-.183.383h-1.63l.159-.294c.085-.16.183-.346.217-.407l.058-.119h.782c.431 0 .783.014.783.028zm1.578.179l-.182.41-.092.203h-1.626l.203-.41.204-.41h1.585l-.092.207zm1.728-.179c0 .016-.078.203-.173.42l-.169.389h-.149c-.081 0-.444-.007-.806-.01l-.654-.007.166-.366c.091-.199.18-.382.196-.406.021-.034.224-.048.81-.048.427 0 .779.014.779.028zm1.637.02c-.004.024-.072.21-.156.417l-.149.372-.81.01c-.444.007-.806.004-.806 0 0-.006.057-.145.128-.311.068-.166.149-.356.177-.417l.047-.119h.783c.606 0 .786.014.786.048zm1.67-.037c0 .006-.068.193-.149.416l-.153.41-.813.01c-.647.007-.81 0-.796-.034.01-.027.088-.22.169-.43l.149-.383h.797c.44 0 .796.007.796.011zm1.636.037c-.003.024-.061.21-.136.417l-.128.372-.81.01c-.447.007-.81.004-.81-.003 0-.024.282-.772.302-.806.037-.058 1.585-.048 1.582.01zm1.623.078c-.01.061-.065.244-.119.41l-.098.301-.81.01c-.444.007-.806.004-.806 0 0-.013.23-.711.264-.806.017-.037.163-.044.803-.034l.786.014-.02.105zm1.582.284a4.35 4.35 0 01-.126.407c-.013.027-.298.037-.823.037-.65 0-.799-.007-.786-.044.01-.027.065-.2.119-.383a3.33 3.33 0 01.122-.372c.017-.021.318-.031.809-.024l.783.01-.098.369zm1.728-.291l-.099.407-.074.328h-.817c-.684 0-.816-.007-.799-.047.01-.027.061-.21.115-.41l.095-.359h1.599l-.02.081zm1.592.285c-.044.199-.082.382-.085.406 0 .034-.19.044-.82.044-.765 0-.82-.003-.803-.061.01-.034.051-.196.092-.366.04-.166.081-.322.091-.345.01-.034.207-.044.81-.044h.796l-.081.366zM35.04.616c-.01.044-.044.227-.078.407l-.061.328h-.816c-.762 0-.816-.003-.796-.061.017-.057.162-.721.162-.745 0-.007.363-.01.803-.01h.807l-.021.081zm1.647-.02c0 .034-.024.206-.051.382a5.933 5.933 0 00-.054.349c0 .014-.369.024-.824.024-.64 0-.816-.007-.802-.044.006-.024.044-.207.078-.406l.064-.366h.796c.732 0 .793.003.793.061zm1.656.037c-.023.129-.088.644-.088.688 0 .017-.338.03-.813.03h-.813l.048-.328c.027-.18.054-.363.064-.407l.02-.081h1.596l-.014.098zm1.64.125a30.53 30.53 0 00-.044.407l-.02.186h-1.616l.044-.362c.027-.2.047-.387.047-.41 0-.034.186-.044.806-.044h.807l-.024.223zm1.65 0c0 .122-.01.305-.024.407l-.02.186h-1.613l.031-.362c.017-.2.037-.387.044-.41.01-.034.203-.044.799-.044h.783v.223zm1.66.071c-.014.16-.024.346-.024.407v.115l-.81.004h-.809l.023-.332c.014-.18.024-.363.028-.407l.003-.081h1.612l-.023.294zm1.639.116c-.003.223-.02.41-.037.41-.013 0-.369-.004-.789-.004h-.766V.535h1.603l-.011.41zm1.674.027l.01.423-.803-.01-.799-.01v-.84l.789.006.793.011.01.42zm1.657-.197c.01.132.02.325.02.427l.003.186h-1.592l-.024-.186a5.334 5.334 0 01-.02-.427v-.24h1.589l.024.24zm1.632-.213c.011.013.031.206.045.427l.023.399h-1.599l-.02-.152a5.916 5.916 0 01-.027-.674c.003-.014.356-.027.782-.027.431 0 .79.013.796.027zm1.688.274c.023.156.04.346.044.42l.003.132h-1.596l-.02-.132a8.15 8.15 0 01-.041-.43L49.95.535l.796.006.792.011.045.284zm1.605-.244c.021.017.112.583.112.698v.098h-.799c-.441 0-.803-.013-.803-.027 0-.013-.024-.193-.048-.399-.027-.207-.04-.387-.03-.404.017-.03 1.538.004 1.568.034zm1.677.041c.004.034.034.217.068.41l.064.345h-1.619l-.037-.223a9.806 9.806 0 01-.061-.417l-.024-.196.806.01c.729.01.803.017.803.071zm1.653.017c.011.044.048.227.085.41l.068.328h-1.619l-.058-.328c-.034-.183-.068-.366-.078-.41l-.017-.081h1.603l.016.081zm1.721.281c.048.2.092.383.102.41.014.037-.125.047-.803.047-.454 0-.823-.006-.823-.013 0-.007-.031-.17-.071-.359a4.199 4.199 0 01-.071-.397c0-.04.139-.05.792-.05h.793l.081.362zm1.603-.227c.02.075.061.234.091.356.031.118.065.244.078.274.017.048-.078.054-.799.054h-.817l-.074-.328-.098-.41-.021-.081h1.606l.034.135zm1.734.274l.119.4c0 .007-.369.01-.817.01-.45 0-.819-.013-.819-.027 0-.013-.048-.2-.102-.41l-.105-.382.803.01.803.01.118.389zm1.647-.044c.064.2.125.387.135.41.014.034-.162.044-.799.044h-.817l-.098-.345c-.057-.193-.108-.376-.118-.41-.017-.058.037-.064.779-.064h.799l.119.365zm1.653-.027c.064.177.129.356.142.4l.024.081h-1.626l-.125-.41-.129-.409.799.01.8.01.115.318zm1.68.055c.085.206.153.386.153.399 0 .017-.363.024-.806.021l-.81-.011-.132-.355a3.687 3.687 0 01-.132-.403c-.004-.034.166-.041.789-.034l.789.01.149.373zm1.664 0c.088.213.162.403.162.416 0 .017-.362.021-.806.01l-.81-.017-.152-.393a8.443 8.443 0 01-.152-.399c0-.004.359-.01.796-.01h.796l.166.393zm1.663 0c.092.206.17.396.17.42 0 .04-.143.044-.79.027-.433-.014-.799-.034-.813-.048a7.46 7.46 0 01-.315-.762c0-.017.352-.027.789-.02l.79.01.169.373zm1.657 0c.101.206.186.393.186.416 0 .034-.18.044-.779.044-.579 0-.786-.01-.813-.044a9.905 9.905 0 01-.353-.765c-.017-.034.143-.041.776-.034l.796.01.187.373zm1.68.037l.213.427-.809-.01-.81-.011-.183-.372a3.472 3.472 0 01-.186-.417c-.004-.037.176-.047.779-.047h.783l.213.43zm1.45-.383c.02.024.125.217.237.427l.207.383-.813-.01-.813-.011-.204-.389a7.117 7.117 0 01-.206-.42c0-.014.349-.027.779-.027.579 0 .786.013.813.047zm1.629-.017c.021.014.139.2.258.417l.22.389-.772.011c-.427.006-.793.003-.813-.007-.044-.014-.441-.746-.441-.807 0-.037 1.491-.044 1.548-.003zm1.176.007h.501l.237.393c.129.217.238.403.238.41 0 .01-.363.013-.807.007l-.806-.011-.224-.389a4.105 4.105 0 01-.226-.424c0-.02.125-.023.291-.01.162.014.518.024.796.024zm2.402.389c.132.207.24.387.24.404.004.013-.355.023-.796.023h-.799l-.231-.389a4.456 4.456 0 01-.233-.42c0-.014.355-.017.789-.007l.793.017.237.372zm1.653-.01c.136.21.251.393.258.41.006.017-.349.027-.79.027h-.799l-.204-.328a17.59 17.59 0 00-.257-.407l-.051-.081h1.599l.244.379zm1.657-.003c.142.207.264.389.271.406.007.024-.295.034-.786.034h-.8l-.254-.389a6.953 6.953 0 01-.25-.41c0-.01.348-.017.779-.017h.782l.258.376zm1.69.034l.292.406h-1.623l-.244-.362c-.136-.2-.261-.383-.275-.41-.023-.034.136-.044.766-.044h.793l.291.41zm1.66 0l.308.406h-1.619l-.278-.389a7.061 7.061 0 01-.274-.407c0-.01.349-.02.779-.02h.776l.308.41zm-81.851.437c-.037.057-.169.247-.294.427l-.234.325h-.81c-.444 0-.806-.007-.806-.017 0-.01.135-.203.305-.427l.308-.41h1.599l-.068.102zm1.731-.085c0 .01-.128.203-.288.427l-.284.41H4.212l.308-.427.305-.427h.796c.437 0 .796.01.796.017zm1.674.003c0 .011-.125.2-.274.427l-.271.407h-.817c-.64 0-.81-.007-.786-.044.095-.153.529-.759.559-.779.044-.031 1.589-.041 1.589-.011zm1.67.004c0 .047-.515.833-.549.837-.142.013-1.585.01-1.585-.007 0-.034.505-.8.545-.823.048-.034 1.589-.038 1.589-.007zm1.67.013c0 .007-.105.197-.237.417-.149.247-.268.41-.312.42-.04.01-.413.014-.83.01l-.755-.01.234-.376c.132-.203.261-.396.288-.427.04-.047.166-.054.83-.054.43 0 .782.01.782.02zm1.633.082c-.122.233-.369.657-.417.711-.047.054-.132.061-.846.061-.438 0-.793-.007-.793-.017 0-.024.43-.742.481-.803.037-.044.169-.051.83-.04l.786.01-.041.078zm1.711-.054c0 .013-.102.203-.224.416l-.22.393-.81.01c-.443.004-.806-.003-.806-.017 0-.013.037-.088.081-.169.048-.078.153-.261.234-.403l.149-.258h.8c.437 0 .796.014.796.028zm1.673 0a6.96 6.96 0 01-.206.416l-.203.393-.81.01c-.515.004-.806-.003-.806-.027 0-.02.094-.21.213-.427l.217-.393h.799c.437 0 .796.014.796.028zm1.674-.007c0 .01-.088.203-.197.427l-.193.406h-1.639l.213-.427.214-.427h.799c.44 0 .803.011.803.021zm1.508.396l-.194.42-.816.01c-.451.004-.82 0-.82-.006 0-.011.092-.204.2-.427l.203-.414h1.62l-.193.417zm1.741-.122a8.832 8.832 0 00-.18.427l-.054.132h-.816c-.448 0-.813-.01-.813-.024 0-.01.081-.203.183-.426l.182-.404h1.623l-.125.295zm1.724-.108c-.041.101-.115.294-.166.427l-.088.24h-1.653l.179-.427.18-.427h1.623l-.075.187zm1.748-.176c0 .003-.068.193-.152.416l-.153.41-.826.01-.824.007.075-.186c.041-.102.112-.295.163-.427l.088-.241h.816c.447 0 .813.004.813.011zm1.657.054c-.01.034-.075.223-.139.416l-.119.356-.823.01c-.454.004-.823.004-.823-.006 0-.021.278-.769.302-.807.013-.02.342-.034.823-.034.752 0 .799.004.779.065zm1.673-.004c-.01.034-.067.227-.128.427l-.109.366h-.816c-.451 0-.817-.013-.817-.027 0-.041.238-.745.265-.789.013-.024.315-.038.823-.038.745 0 .799.004.782.061zm1.688-.037c0 .01-.051.203-.112.427l-.112.403h-.813c-.586 0-.813-.01-.813-.041 0-.044.21-.741.237-.785.017-.034 1.613-.038 1.613-.004zm1.67.004c0 .013-.041.206-.095.426l-.098.4h-.827c-.647 0-.823-.01-.813-.044.01-.024.057-.196.108-.383l.105-.383c.014-.033.21-.044.817-.044.444 0 .803.014.803.028zm1.673.02c0 .047-.132.671-.166.776-.013.054-.088.057-.823.04-.444-.01-.813-.02-.816-.023 0-.004.04-.19.098-.414l.101-.416c.004-.007.363-.011.803-.011.634 0 .803.011.803.048zm1.67.024c0 .03-.03.22-.071.426-.041.207-.071.376-.071.383 0 .004-.369.007-.816.007-.532 0-.82-.01-.82-.034 0-.041.135-.691.166-.796.017-.061.064-.064.816-.051.678.01.796.021.796.065zm1.67.047c0 .041-.023.22-.05.396a6.412 6.412 0 00-.055.349c0 .014-.369.024-.816.024-.742 0-.82-.003-.82-.058 0-.094.105-.664.139-.742.027-.067.058-.071.816-.06.786.01.786.01.786.091zm1.65.298c-.027.21-.057.403-.064.427-.014.034-.207.044-.813.044-.437 0-.803-.007-.813-.017-.017-.017.003-.146.098-.718l.017-.119h1.623l-.048.383zm1.711-.23c-.01.084-.03.271-.044.416l-.024.268-.83.01-.83.01.021-.115c.027-.156.091-.664.091-.708 0-.017.339-.034.817-.034h.819l-.02.153zm1.67.196c-.01.19-.023.383-.034.427l-.017.078h-1.643l.021-.166.044-.427.023-.261h1.627l-.021.349zm1.694-.159c0 .102-.01.295-.024.427l-.023.237h-1.637l.024-.291a6.62 6.62 0 00.024-.427v-.136h1.636v.19zm1.674-.19v.854h-1.637v-.854h1.637zm1.683.275c.011.149.024.342.024.427v.152h-.813c-.447 0-.82-.003-.827-.014-.01-.006-.01-.199-.003-.426l.01-.414h1.586l.023.275zm1.674-.193c.01.044.024.237.03.426l.017.346h-1.663v-.854h1.599l.017.082zm1.711.355l.034.417h-1.643l-.024-.325c-.01-.176-.021-.369-.021-.427v-.102l.807.01.809.011.038.416zm1.677-.115c.023.166.044.356.044.417l.003.115h-1.629l-.021-.186-.044-.427-.02-.241.813.01.813.011.041.301zm1.626-.288c.02.027.128.705.128.786 0 .024-.291.034-.816.034h-.813l-.02-.095c-.011-.054-.027-.186-.041-.295a4.425 4.425 0 00-.041-.328l-.017-.136h.8c.44 0 .81.017.82.034zm1.744.298c.034.18.068.373.078.427l.021.098-.83-.01-.83-.01-.041-.301c-.024-.166-.051-.356-.061-.417l-.02-.119h1.626l.057.332zm1.637-.237c.027.102.162.762.162.783 0 .006-.372.003-.826-.007l-.827-.02-.061-.326a3.682 3.682 0 01-.061-.426l-.003-.099h1.592l.024.095zm1.653-.044c.017.02.068.2.112.396.044.194.088.377.095.4.013.037-.153.044-.814.037l-.83-.01-.081-.376a5.809 5.809 0 01-.078-.437c0-.061.048-.064.779-.057.525.006.793.02.817.047zm1.792.359c.054.2.098.393.098.424 0 .054-.085.057-.81.05l-.809-.01-.095-.376a4.095 4.095 0 01-.098-.427c-.004-.044.105-.05.806-.04l.81.01.098.369zm1.691.017c.064.214.115.407.115.427 0 .024-.261.037-.8.037-.921 0-.82.048-.942-.427-.044-.166-.088-.332-.098-.365-.017-.058.041-.061.8-.061h.813l.112.389zm1.693.014c.071.22.129.413.129.427 0 .013-.369.023-.816.023h-.817l-.061-.203c-.034-.115-.088-.305-.125-.427l-.065-.223h1.63l.125.403zm1.569-.342c.047.121.267.755.267.772 0 .01-.369.02-.816.02h-.816l-.143-.427-.142-.426h.813c.739 0 .813.006.837.061zm1.799.311c.078.197.149.386.159.42.02.058-.031.061-.806.054l-.824-.01-.135-.376a4.051 4.051 0 01-.139-.416c0-.038.169-.044.803-.038l.803.01.139.356zm1.711.054c.094.224.172.414.172.417 0 .007-.372.007-.826.003l-.827-.01-.152-.393a5.278 5.278 0 01-.153-.416c0-.017.363-.024.806-.021l.807.01.173.41zm1.629-.128c.075.162.163.355.193.427l.054.128-.826-.007-.823-.01-.17-.393a9.318 9.318 0 01-.169-.416c0-.014.359-.027.799-.027h.803l.139.298zm1.555-.254c.02.023.115.216.217.426l.179.383h-1.649l-.139-.311c-.075-.17-.156-.363-.187-.427l-.047-.115h.796c.593 0 .806.01.83.044zm1.87.365c.112.224.203.417.203.427 0 .01-.369.017-.816.017-.451 0-.82-.007-.82-.013 0-.007-.088-.2-.193-.427l-.197-.413h1.62l.203.409zm1.694 0c.118.224.217.417.217.427 0 .01-.363.017-.81.017h-.81l-.203-.386a3.495 3.495 0 01-.203-.427c0-.03.234-.04.796-.04h.796l.217.409zm1.69.004c.129.227.234.42.234.427 0 .006-.366.013-.816.013h-.817l-.213-.403a6.817 6.817 0 01-.217-.427c0-.013.359-.023.799-.023h.797l.233.413zm1.67-.027c.129.213.244.406.255.437.013.04-.112.047-.8.037l-.816-.01-.234-.407a8.163 8.163 0 01-.23-.423c0-.01.359-.02.796-.02h.799l.23.386zm1.718.04c.142.224.261.424.261.441 0 .03-1.586 0-1.636-.034-.017-.007-.102-.139-.19-.291a18.14 18.14 0 00-.237-.41l-.078-.132.81.006.813.01.257.41zm1.691 0c.149.224.274.42.274.437.003.014-.356.024-.793.024-.711 0-.799-.003-.847-.061-.084-.095-.491-.755-.491-.793 0-.023.298-.03.793-.027l.789.01.275.41zm1.439-.345c.024.024.156.21.295.417l.254.372-.759.01c-.416.007-.789.004-.826-.006-.044-.011-.176-.183-.329-.424a8.461 8.461 0 01-.261-.42c0-.007.359-.007.793-.003.562.006.803.023.833.054zm1.958.376l.295.413-.755.01c-.417.007-.79.004-.827-.006-.041-.011-.19-.19-.349-.427a12.46 12.46 0 01-.274-.42c0-.004.362-.004.809.003l.81.01.291.417zm1.586-.146c.108.153.247.342.312.427l.111.149H85.89l-.305-.427-.305-.427h1.623l.2.278zM4.07 2.3c0 .03-.539.772-.6.823-.041.034-.264.044-.847.044-.437 0-.793-.01-.793-.024 0-.01.139-.21.309-.444l.311-.42h.81c.447 0 .81.007.81.021zm1.707-.004c0 .027-.539.796-.586.837-.03.02-.339.031-.85.027l-.803-.01.308-.437.312-.437h.809c.444 0 .81.01.81.02zm1.687.027c-.017.024-.145.224-.288.444l-.257.4h-.82c-.451 0-.82-.01-.82-.02 0-.011.132-.214.291-.444l.292-.427h.813c.64 0 .81.01.789.047zm1.653.089c-.247.403-.464.724-.504.738-.024.01-.4.014-.834.01l-.792-.01.291-.437.288-.437h1.633l-.082.136zm1.718-.017c-.041.061-.159.257-.264.433l-.193.322-.824.01c-.454.004-.823-.003-.823-.017 0-.01.075-.145.17-.291.094-.149.216-.339.267-.424l.095-.152h1.643l-.071.119zm1.728-.038c-.027.044-.143.244-.258.444l-.203.366h-.833c-.461 0-.83-.014-.82-.027.129-.217.433-.722.471-.783.051-.078.061-.081.874-.081h.82l-.051.081zm1.717-.047c0 .017-.101.21-.223.434l-.224.406-.826.01c-.454.004-.827 0-.827-.013 0-.024.42-.763.471-.824.04-.054 1.629-.067 1.629-.013zm1.708-.014c0 .01-.099.21-.217.444l-.214.427h-1.673l.169-.312c.092-.169.204-.369.251-.443l.081-.136h.8c.44 0 .803.01.803.02zm1.707-.003c0 .01-.091.21-.203.447l-.2.427h-.83c-.457 0-.83-.007-.83-.017 0-.034.288-.596.376-.735l.085-.139h.799c.441 0 .803.01.803.017zm1.704.01a7.62 7.62 0 01-.19.437l-.186.41-.843.01-.844.007.125-.247c.071-.139.166-.339.214-.448l.084-.196h.82c.454 0 .82.014.82.027zm1.701.02l-.19.444-.169.4h-.83c-.458 0-.83-.007-.83-.014 0-.006.051-.122.112-.257.06-.132.145-.329.193-.43l.081-.19h.826c.644 0 .82.01.807.047zm.952-.01h.759l-.17.417-.169.42-.837.01-.84.007.176-.417c.213-.498.203-.481.268-.457.03.01.396.02.813.02zm2.436.031c0 .04-.241.711-.282.782-.027.048-.142.055-.843.044a18.744 18.744 0 01-.823-.017 6.087 6.087 0 01.155-.423l.163-.417h.813c.451 0 .817.014.817.031zm1.707-.004c0 .017-.061.214-.136.437l-.138.407-.824.01c-.687.007-.823 0-.823-.041 0-.04.163-.515.268-.779.024-.054.095-.061.84-.061.447 0 .813.014.813.027zm1.707-.006c0 .054-.23.786-.26.823-.024.034-.238.044-.847.044-.448 0-.814-.01-.814-.027 0-.024.204-.651.265-.817.013-.034.213-.044.837-.044.45 0 .819.01.819.021zm1.708.006c0 .014-.054.21-.119.434l-.115.41-.827.01c-.647.007-.823 0-.823-.034 0-.04.18-.671.231-.803.01-.034.21-.044.833-.044.45 0 .82.014.82.027zm1.687.072c-.034.145-.122.508-.163.657l-.034.132h-.836c-.78 0-.837-.004-.82-.061l.115-.417c.051-.196.102-.369.112-.383.007-.013.383-.027.83-.027h.816l-.02.099zm1.717-.055l-.098.444-.081.4h-.83c-.474 0-.83-.014-.83-.031 0-.05.179-.792.2-.826.01-.017.386-.031.837-.031.64 0 .816.01.802.044zm1.701.038c-.01.044-.047.237-.085.433l-.061.356-.847.01c-.674.007-.843 0-.833-.034.01-.027.054-.227.102-.447l.081-.4h1.66l-.017.082zm1.65.335c-.037.23-.068.43-.068.447 0 .014-.379.024-.84.024h-.84l.02-.115c.014-.061.048-.261.081-.444l.058-.329h1.653l-.064.417zm1.745-.302c-.004.065-.024.261-.044.437l-.045.319-.84.01-.836.01.064-.42c.037-.23.064-.43.064-.444 0-.013.37-.027.82-.027h.82l-.003.115zm1.693.197a8.89 8.89 0 01-.044.444l-.02.132h-.833c-.641 0-.83-.007-.83-.044.003-.024.023-.21.054-.417.027-.207.051-.386.051-.4 0-.013.372-.027.823-.027h.823l-.024.312zm1.711.013c-.013.18-.023.38-.023.444v.119H39.81l.024-.329c.014-.179.034-.379.044-.444l.02-.115h1.64l-.024.325zm1.721-.044c0 .153-.013.353-.023.444l-.024.163h-1.664l.021-.292a9.59 9.59 0 01.037-.443l.02-.153h1.633v.281zm1.697.173l.011.434h-1.674v-.363c0-.2.01-.403.024-.447l.02-.081.806.01.803.01.01.437zm1.725.014c.003.234.007.43.003.433-.003.004-.383 0-.843-.003l-.84-.01v-.42c0-.231.006-.427.013-.434.01-.01.386-.01.833-.007l.82.011.014.43zm1.7-.312c0 .064.011.268.021.447l.024.332-.83-.02c-.458-.01-.834-.031-.841-.047a14.204 14.204 0 01-.023-.431l-.014-.403h1.663v.122zm1.725.227l.03.434.004.091-.823.01-.827.007-.017-.115a5.37 5.37 0 01-.034-.444l-.013-.332h1.656l.024.349zm1.717.034c.024.21.044.413.044.447 0 .058-.057.061-.829.054l-.827-.01-.021-.196a12.253 12.253 0 01-.043-.437l-.021-.241h1.657l.04.383zm1.711-.034c.024.19.054.39.065.444l.02.098h-.84c-.464 0-.844-.003-.844-.01l-.051-.434-.054-.433c0-.007.373-.014.83-.014h.83l.044.349zm1.714-.01c.031.176.065.373.078.437l.024.115-.844-.007-.843-.01-.041-.267c-.02-.146-.051-.343-.064-.437l-.024-.17.827.01.83.01.057.319zm1.728.071c.044.217.081.413.081.437 0 .034-.189.044-.833.044-.461 0-.837-.013-.837-.03s-.03-.204-.071-.417c-.037-.214-.071-.4-.071-.417 0-.013.373-.023.827-.017l.823.01.081.39zm1.708-.034l.101.434.017.081h-1.67l-.017-.081a14.75 14.75 0 01-.163-.773c0-.023.278-.033.824-.027l.823.01.085.356zm1.663-.186c.027.101.085.301.122.444l.071.257-.844-.007-.84-.01-.098-.393c-.051-.213-.095-.41-.098-.433 0-.038.186-.048.816-.048h.817l.054.19zm1.745.122c.05.173.108.359.128.416a.847.847 0 01.034.133c0 .017-.376.03-.837.03h-.833l-.041-.152a10.29 10.29 0 00-.108-.407 3.107 3.107 0 01-.068-.295c0-.023.302-.037.817-.037h.816l.092.312zm1.758.125l.142.437-.823.01c-.454.004-.833-.003-.847-.02-.027-.027-.247-.766-.247-.827 0-.023.291-.037.816-.037h.817l.142.437zm1.558-.389c.037.047.295.755.295.809 0 .021-.346.034-.827.034h-.83l-.132-.403a5.199 5.199 0 01-.132-.444c0-.061 1.579-.061 1.626.004zm1.708 0c.027.033.155.349.315.782.02.058-.031.061-.813.061-.763 0-.837-.007-.861-.061a10.506 10.506 0 01-.268-.793c0-.057 1.583-.047 1.627.011zm1.714.006c.013.021.101.217.193.437l.163.4-.841-.007-.843-.01-.153-.393a3.46 3.46 0 01-.152-.44c0-.037.146-.044.803-.034.477.007.813.027.83.047zm1.89.393c.095.214.176.41.176.431 0 .03-.23.037-.826.023-.454-.007-.83-.017-.834-.02-.02-.027-.332-.796-.332-.823 0-.027.271-.034.82-.021l.82.017.176.393zm1.718.01c.111.234.203.434.203.448 0 .01-.369.02-.817.02-.609 0-.819-.01-.846-.044a9.143 9.143 0 01-.366-.82c0-.013.366-.024.813-.024h.813l.2.42zm1.714-.003c.115.23.217.43.224.447.016.034-1.599.034-1.647-.003-.037-.027-.41-.786-.41-.833 0-.014.363-.028.81-.028h.809l.214.417zm1.717-.003c.122.227.221.427.221.443 0 .017-.349.031-.817.031h-.816l-.454-.888h1.646l.22.414zm1.725.013c.132.234.24.434.24.444 0 .01-.369.017-.816.017-.606 0-.823-.01-.85-.044a7.71 7.71 0 01-.248-.444l-.216-.4h1.649l.241.427zm1.65-.115c.098.169.216.369.261.444l.077.132h-1.67l-.501-.888h1.65l.183.312zm1.548-.251c.03.034.159.238.288.448l.237.382-.844-.01-.84-.01-.257-.434-.258-.437h.81c.728 0 .816.007.864.061zm1.955.366c.152.224.274.42.277.437 0 .014-.369.024-.823.017l-.826-.01-.095-.142a30.217 30.217 0 01-.278-.437l-.183-.292.827.007.826.01.275.41zm1.693-.037c.143.207.275.403.295.437.034.058-.013.061-.796.061h-.833l-.288-.444-.288-.444.826.007.827.01.257.373zm1.444-.373l.63.874-.84-.01-.844-.01-.298-.437-.302-.434.827.007.827.01zm1.992.383a15 15 0 01.321.444c.021.037-.149.044-.802.044h-.83l-.129-.186c-.071-.102-.214-.302-.312-.444l-.183-.258h1.64l.295.4zm-84.711.82c-.159.22-.315.427-.348.461-.055.057-.136.064-.885.054l-.823-.01.342-.454.339-.454h1.663l-.288.403zm1.996-.383c0 .01-.139.217-.308.461l-.309.444h-.83c-.457 0-.83-.007-.83-.021 0-.02.366-.542.542-.769l.105-.135h.813c.451 0 .817.01.817.02zm1.721.027c-.014.024-.153.231-.305.461l-.278.417h-.837c-.46 0-.833-.007-.833-.014 0-.03.579-.854.62-.881.02-.017.403-.027.847-.027.64 0 .806.007.786.044zm1.731-.02c0 .013-.125.22-.278.461l-.274.437H7.19c-.668 0-.844-.007-.82-.044.014-.024.149-.231.305-.461l.278-.42h.816c.451 0 .82.013.82.027zm1.741-.01c0 .01-.122.217-.267.464l-.271.444h-.834c-.457 0-.833-.01-.833-.024 0-.027.454-.752.528-.837.048-.057.136-.064.864-.064.447 0 .813.01.813.017zm1.708.03a4.434 4.434 0 01-.244.451l-.237.41-.847.01c-.468.007-.844-.003-.837-.017.041-.091.511-.85.545-.871.021-.017.393-.027.827-.027.613 0 .793.01.793.044zm1.741-.013c0 .006-.105.213-.234.454l-.237.437h-1.704l.071-.115c.037-.061.136-.234.22-.383.082-.146.17-.298.197-.336.041-.067.081-.071.864-.071.454 0 .823.007.823.014zm1.518.44l-.231.434-.84.01c-.461.007-.837 0-.837-.014 0-.027.282-.555.4-.752l.068-.115h1.67l-.23.437zm1.924-.393l-.203.444-.19.4h-.85c-.468 0-.847-.01-.841-.024.007-.017.109-.217.227-.447l.21-.417h.834c.65 0 .826.01.813.044zm1.755-.03c0 .017-.373.816-.403.867-.024.034-.217.037-.854.024-.454-.014-.827-.024-.83-.027 0-.004.091-.204.207-.441l.21-.437h.833c.461 0 .837.007.837.014zm1.612.281c-.071.159-.152.356-.183.433a.517.517 0 01-.095.17c-.057.041-1.656.034-1.656-.007 0-.037.247-.61.339-.786l.054-.105h1.667l-.126.295zm1.836-.268c0 .017-.078.22-.172.454l-.17.427-.843.01c-.464.004-.84-.003-.84-.017 0-.013.081-.223.183-.464l.182-.437h.83c.458 0 .83.014.83.027zm1.735.017c-.01.024-.085.234-.169.464l-.153.417h-.854c-.667 0-.846-.01-.833-.044.02-.051.268-.678.312-.8.03-.081.034-.081.874-.081.657 0 .837.01.823.044zm1.596.41l-.153.454-.843.01c-.526.004-.841-.003-.841-.027 0-.041.268-.803.302-.854.013-.023.335-.037.854-.037h.83l-.149.454zm1.863-.43c0 .04-.224.776-.254.84-.031.054-.109.061-.868.061-.46 0-.833-.014-.833-.027 0-.014.064-.224.142-.461l.146-.437h.833c.458 0 .834.01.834.024zm1.721.074c-.065.254-.22.796-.234.81-.01.01-.396.014-.854.01l-.84-.01.122-.41c.068-.223.129-.43.139-.454.01-.034.213-.044.854-.044h.837l-.024.098zm1.728-.037c0 .034-.045.241-.099.454l-.095.393-.846.01c-.563.004-.844-.003-.844-.027 0-.047.213-.827.237-.864.01-.013.383-.027.833-.027.753 0 .814.003.814.061zm1.744-.024c0 .021-.04.221-.088.448a8.894 8.894 0 00-.088.426c0 .007-.386.014-.857.014-.8 0-.857-.003-.84-.061.01-.034.061-.244.112-.464l.098-.4h.83c.542 0 .833.014.833.037zm1.741-.01c-.003.014-.037.217-.081.454l-.081.427-.854.01-.854.007.078-.369c.041-.207.088-.414.102-.464l.02-.092h.837c.461 0 .833.014.833.027zm1.711.061c0 .041-.027.244-.061.454l-.057.383h-.847c-.515 0-.851-.014-.851-.034 0-.047.143-.793.163-.85.014-.041.166-.048.833-.038.79.014.817.017.82.085zm1.742 0c0 .054-.061.539-.092.722l-.017.115h-1.704l.017-.098c.01-.054.041-.248.068-.427.03-.183.061-.342.068-.356.01-.013.386-.02.836-.017.674.01.824.021.824.061zm1.731.065c-.01.061-.031.26-.044.443l-.024.329h-.85c-.746 0-.847-.007-.847-.054 0-.082.074-.739.088-.79.01-.033.213-.047.857-.047h.84l-.02.119zm1.71.301c-.016.23-.033.437-.044.461-.013.034-.199.04-.843.024a23.968 23.968 0 01-.837-.028c-.003-.003.01-.203.031-.44l.04-.437h1.681l-.028.42zm1.752-.088c0 .18-.01.39-.024.461l-.02.135-.84-.01-.837-.01.007-.197a8.76 8.76 0 01.03-.45l.021-.261h1.663v.332zm1.745-.332v.925h-1.708v-.295c0-.166.01-.373.021-.464l.023-.166h1.664zm1.741 0V4.2l-.844-.01-.846-.01-.011-.454-.01-.454h1.711zm1.721.19c.01.101.027.308.034.46l.013.275h-1.687l-.024-.237a7.52 7.52 0 01-.02-.464v-.224h1.664l.02.19zm1.745.044l.04.46.024.231H48.51l-.024-.325a9.05 9.05 0 01-.024-.461v-.139h1.664l.024.234zm1.751.105c.024.176.044.383.044.454l.003.135-.843-.01-.847-.01-.034-.437c-.02-.241-.03-.447-.02-.454.007-.01.383-.014.837-.007l.819.01.041.319zm1.701-.258c.017.088.125.786.125.824 0 .013-.383.02-.854.02s-.853-.01-.853-.027c0-.014-.024-.22-.055-.454l-.05-.434c0-.003.372-.01.833-.01h.837l.017.081zm1.727-.067c0 .006.031.186.068.399.041.214.071.417.071.451 0 .061-.054.064-.843.054l-.844-.01-.061-.39a6.806 6.806 0 01-.061-.454c-.003-.057.058-.064.834-.064.457 0 .836.007.836.014zm1.721.02c.011.017.051.19.092.383.037.193.078.386.088.43l.02.078h-1.704l-.037-.186-.075-.397c-.064-.376-.149-.342.78-.342.454 0 .826.017.836.034zm1.84.393c.054.227.098.43.102.454 0 .037-.194.044-.851.044h-.847l-.078-.4c-.044-.22-.088-.427-.098-.461-.017-.061.034-.064.83-.054l.847.01.095.407zm1.636-.363c.01.014.068.214.129.444l.108.417h-1.697l-.037-.132c-.031-.126-.18-.749-.18-.766 0-.02 1.657.017 1.677.037zm1.809.231c.041.142.098.328.126.416.03.085.054.17.054.187 0 .017-.383.027-.85.027h-.848l-.111-.42a7.25 7.25 0 01-.112-.444c0-.014.373-.024.833-.024h.834l.074.258zm1.802.186c.082.241.139.451.129.461-.027.027-1.66-.017-1.687-.044-.027-.027-.244-.759-.244-.82 0-.031.237-.041.827-.041h.83l.145.444zm1.742-.017c.084.224.152.43.152.454.004.061-1.653.064-1.69.003a6.12 6.12 0 01-.159-.464l-.133-.42.841.007.84.01.149.41zm1.67-.196c.044.118.122.321.169.454l.092.24-.857-.007-.854-.01-.156-.444a10.447 10.447 0 01-.156-.454c0-.006.376-.006.841-.003l.84.01.081.214zm1.826.213c.098.244.183.451.183.464 0 .01-.383.014-.847.01l-.844-.01-.166-.41a4.373 4.373 0 01-.169-.454c-.003-.034.186-.044.827-.044h.833l.183.444zm1.558-.4c.014.024.112.234.214.464l.183.417-.854-.007-.857-.01-.187-.454-.189-.454h.83c.627 0 .837.01.86.044zm1.935.403c.115.248.21.458.21.465 0 .006-.373.013-.83.013-.627 0-.84-.01-.868-.044a3.4 3.4 0 01-.128-.261c-.051-.118-.132-.308-.183-.42l-.088-.2h1.673l.214.447zm1.758.014l.23.464h-1.71l-.211-.45a12.009 12.009 0 01-.213-.461c0-.007.376-.014.837-.014h.833l.234.461zm1.504-.417c.034.044.471.847.471.871 0 .003-.383.01-.847.01h-.847l-.22-.444a8.575 8.575 0 01-.22-.464c0-.01.366-.017.813-.017.606 0 .823.01.85.044zm1.728-.027l.515.908-.854-.007-.857-.01-.227-.423a5.696 5.696 0 01-.227-.454c0-.017.373-.027.823-.024l.827.01zm1.717.01c.027.021.363.566.536.871.006.014-.37.027-.834.027h-.85l-.152-.274-.261-.464-.105-.187h.813c.447 0 .83.014.853.027zm1.762.034c.068.078.528.81.528.844 0 .01-.379.017-.843.013l-.84-.01-.261-.44a6.77 6.77 0 01-.261-.454c0-.007.363-.014.81-.014.732 0 .82.007.867.061zm1.741.004c.021.027.495.738.542.816.021.034-.152.044-.82.044h-.846l-.278-.44a6.966 6.966 0 01-.275-.464c0-.031 1.647.01 1.677.044zm2.019.406c.16.231.288.424.288.437 0 .01-.376.017-.836.017h-.837l-.268-.41a8.092 8.092 0 01-.284-.454c-.014-.034.159-.04.816-.027l.837.02.284.417zm1.759.014c.172.244.304.454.298.464-.01.01-.397.007-.854-.007l-.837-.027-.288-.42a7.01 7.01 0 01-.288-.441c0-.01.373-.016.827-.016h.827l.315.447zm1.412-.451l.671.908-.82.01c-.565.007-.837-.003-.87-.03a6.143 6.143 0 01-.349-.464l-.305-.424h1.673z"/></svg>