<svg xmlns="http://www.w3.org/2000/svg" fill-rule="evenodd" clip-rule="evenodd" viewBox="0 0 128 116"><path fill="none" stroke="#00a3ff" stroke-width=".2" d="M70.146 115.238V116h-.765v-.762h.765zm-11.586.006v.75h-.753v-.75h.753zm11.591-1.657v.771h-.774v-.771h.774zm-11.581 0v.771h-.774v-.771h.774zm1.653.002v.767h-.771v-.767h.771zm8.272 0v.767h-.771v-.767h.771zm-6.616-1.648v.771h-.774v-.771h.774zm6.611.006v.758h-.762v-.758h.762zm-8.273.002v.755h-.759v-.755h.759zm6.616.001v.752h-.756v-.752h.756zm-28.115-1.655v.77h-.774v-.77h.774zm1.654 0v.77h-.774v-.77h.774zm1.655 0v.77h-.774v-.77h.774zm1.654 0v.77h-.774v-.77h.774zm18.198 0v.77h-.774v-.77h.774zm4.963 0v.77h-.774v-.77h.774zm21.507 0v.77h-.775v-.77h.775zm1.654 0v.77h-.774v-.77h.774zm-24.817.001v.768h-.771v-.768h.771zm21.507 0v.768h-.771v-.768h.771zm-49.631 0v.768h-.771v-.768h.771zm54.591.003v.762h-.765v-.762h.765zm-28.124 0v.762h-.765v-.762h.765zm-28.126.002v.758h-.762v-.758h.762zm49.631 0v.758h-.762v-.758h.762zm-1.657.003v.752h-.757v-.752h.757zm-38.05 0v.752h-.757v-.752h.757zm47.974.001v.75h-.753v-.75h.753zm-11.602.021v.708h-.71v-.708h.71zm-34.873.132v.444h-.446v-.444h.446zm20.016-1.81v.771h-.774v-.771h.774zm31.433 0v.771H97.5v-.771h.775zm-1.655 0v.771h-.774v-.771h.774zm-4.963 0v.771h-.774v-.771h.774zm-1.654 0v.771h-.774v-.771h.774zm-1.654 0v.771h-.775v-.771h.775zm-1.655 0v.771h-.774v-.771h.774zm-1.654 0v.771h-.774v-.771h.774zm-1.654 0v.771h-.775v-.771h.775zm-3.309 0v.771h-.774v-.771h.774zm-33.087 0v.771h-.774v-.771h.774zm-1.654 0v.771h-.775v-.771h.775zm-1.655 0v.771h-.774v-.771h.774zm-1.654 0v.771h-.774v-.771h.774zm-1.655 0v.771h-.774v-.771h.774zm-1.654 0v.771h-.774v-.771h.774zm-1.654 0v.771h-.775v-.771h.775zm-1.655 0v.771h-.774v-.771h.774zm-1.654 0v.771h-.774v-.771h.774zm31.431.002v.767h-.771v-.767h.771zm-34.741 0v.767h-.772v-.767h.772zm33.087 0v.767h-.771v-.767h.771zm29.778 0v.767h-.771v-.767h.771zm1.655 0v.767h-.772v-.767h.772zm-13.237.001v.765h-.768v-.765h.768zm-49.632.002v.761h-.765v-.761h.765zm29.776.003v.755h-.76v-.755h.76zm-13.252.017v.722h-.726v-.722h.726zm19.822.03v.662h-.665v-.662h.665zm-8.301.028v.605h-.607v-.605h.607zm18.099.099v.407h-.409v-.407h.409zm-28.16.036v.335h-.337v-.335h.337zm41.577-1.864v.77h-.774v-.77h.774zm-47.976 0v.77h-.774v-.77h.774zm44.668 0v.77h-.775v-.77h.775zm-1.655 0v.77h-.774v-.77h.774zm-1.654 0v.77h-.774v-.77h.774zm-1.654 0v.77h-.775v-.77h.775zm-1.655 0v.77h-.774v-.77h.774zm-1.654 0v.77h-.774v-.77h.774zm14.889 0v.77h-.774v-.77h.774zm-16.544 0v.77h-.774v-.77h.774zm-6.617 0v.77h-.774v-.77h.774zm-13.235 0v.77h-.774v-.77h.774zm-1.654 0v.77h-.774v-.77h.774zm-6.618 0v.77h-.774v-.77h.774zm-1.654 0v.77h-.774v-.77h.774zm-1.654 0v.77h-.774v-.77h.774zm49.63 0v.77h-.774v-.77h.774zm1.655 0v.77H97.5v-.77h.775zm-52.939 0v.77h-.775v-.77h.775zm56.248 0v.77h-.775v-.77h.775zm-71.138 0v.77h-.774v-.77h.774zm62.866 0v.77h-.775v-.77h.775zm-51.285 0v.77h-.774v-.77h.774zm-1.655 0v.77h-.774v-.77h.774zm-1.654 0v.77h-.774v-.77h.774zm-1.654 0v.77h-.775v-.77h.775zm-1.655 0v.77h-.774v-.77h.774zm-1.654 0v.77h-.774v-.77h.774zm-1.654 0v.77h-.775v-.77h.775zm38.048.001v.768h-.771v-.768h.771zm29.779 0v.768h-.772v-.768h.772zm-71.139.002v.764h-.768v-.764h.768zm61.21.001v.762h-.766v-.762h.766zm-21.509.002v.758h-.762v-.758h.762zm-8.271 0v.758h-.762v-.758h.762zm13.228.006v.746h-.75v-.746h.75zm-18.204.006v.734h-.738v-.734h.738zm-28.124 0v.734h-.737v-.734h.737zm39.685.02v.695h-.698v-.695h.698zm9.881.045v.604h-.607v-.604h.607zm-14.93.041v.522h-.526v-.522h.526zm-8.333.06v.402h-.404v-.402h.404zm21.484.023v.356h-.358v-.356h.358zm-21.299-1.853v.77h-.774v-.77h.774zm-14.889 0v.77h-.774v-.77h.774zm54.594 0v.77h-.775v-.77h.775zm-3.309 0v.77h-.774v-.77h.774zm-1.654 0v.77h-.775v-.77h.775zm-62.866 0v.77h-.774v-.77h.774zm3.309 0v.77h-.774v-.77h.774zm57.902 0v.77h-.774v-.77h.774zm11.581 0v.77H97.5v-.77h.775zm-67.829 0v.77h-.774v-.77h.774zm54.594 0v.77h-.774v-.77h.774zm-1.654 0v.77h-.775v-.77h.775zm-1.655 0v.77h-.774v-.77h.774zm-1.654 0v.77h-.774v-.77h.774zm-47.976 0v.77h-.775v-.77h.775zm62.865 0v.77h-.774v-.77h.774zm1.654 0v.77h-.774v-.77h.774zm-18.198 0v.77h-.774v-.77h.774zm-28.124 0v.77h-.774v-.77h.774zm-9.926 0v.77h-.774v-.77h.774zm1.655 0v.77h-.774v-.77h.774zm1.654 0v.77h-.774v-.77h.774zm-8.272 0v.77h-.774v-.77h.774zm-1.654 0v.77h-.774v-.77h.774zm11.581 0v.77h-.775v-.77h.775zm9.926 0v.77h-.775v-.77h.775zm-8.272 0v.77h-.774v-.77h.774zm1.654 0v.77h-.774v-.77h.774zm-11.582.001v.768h-.771v-.768h.771zm66.174 0v.768h-.771v-.768h.771zm-26.469 0v.768h-.771v-.768h.771zm-24.816 0v.768h-.771v-.768h.771zm-24.815 0v.768h-.771v-.768h.771zm72.792 0v.768h-.772v-.768h.772zm-24.817.002v.764h-.769v-.764h.769zm26.468.001v.762h-.765v-.762h.765zm3.307.002v.758h-.762v-.758h.762zm-13.241.006v.746h-.75v-.746h.75zm-67.831.003v.74h-.744v-.74h.744zm49.62.01v.719h-.723v-.719h.723zm-51.308.023v.674h-.677v-.674h.677zm84.245.127v.42h-.423v-.42h.423zm-21.331-1.822v.771h-.774v-.771h.774zm-1.654 0v.771h-.775v-.771h.775zm-1.655 0v.771h-.774v-.771h.774zm-1.654 0v.771h-.774v-.771h.774zm-1.655 0v.771h-.774v-.771h.774zm-1.654 0v.771h-.774v-.771h.774zm-24.815 0v.771h-.774v-.771h.774zm-1.655 0v.771h-.774v-.771h.774zm-1.654 0v.771h-.774v-.771h.774zm-1.654 0v.771h-.774v-.771h.774zm-1.654 0v.771h-.775v-.771h.775zm-1.655 0v.771h-.774v-.771h.774zm-1.654 0v.771h-.774v-.771h.774zm-4.963 0v.771h-.775v-.771h.775zm49.63 0v.771h-.774v-.771h.774zm-52.939 0v.771h-.774v-.771h.774zm-3.309 0v.771h-.774v-.771h.774zm59.557 0v.771h-.774v-.771h.774zm1.654 0v.771h-.774v-.771h.774zm3.309 0v.771h-.774v-.771h.774zm3.309 0v.771H97.5v-.771h.775zm-9.928.002v.767h-.771v-.767h.771zm-49.63 0v.767h-.772v-.767h.772zm-6.619.001v.765h-.769v-.765h.769zm8.271 0v.765h-.768v-.765h.768zm56.248 0v.765h-.768v-.765h.768zm-61.215.005v.755h-.759v-.755h.759zm57.893.009v.737h-.741v-.737h.741zm-64.649.128v.481h-.482v-.481h.482zm71.134.003v.475h-.476v-.475h.476zm-19.703-1.794v.77h-.774v-.77h.774zm-1.655 0v.77h-.774v-.77h.774zm-28.124 0v.77h-.774v-.77h.774zm-1.654 0v.77h-.774v-.77h.774zm-1.654 0v.77h-.774v-.77h.774zm-1.654 0v.77h-.775v-.77h.775zm36.395 0v.77h-.774v-.77h.774zm-38.05 0v.77h-.774v-.77h.774zm-1.654 0v.77h-.774v-.77h.774zm-1.655 0v.77h-.774v-.77h.774zm43.014 0v.77h-.775v-.77h.775zm1.654 0v.77h-.774v-.77h.774zm1.654 0v.77h-.774v-.77h.774zm13.235 0v.77h-.774v-.77h.774zm3.309 0v.77h-.774v-.77h.774zm-74.446 0v.77h-.774v-.77h.774zm1.651.003v.764h-.768v-.764h.768zm-4.963 0v.764h-.768v-.764h.768zm76.096.004v.756h-.759v-.756h.759zm-3.31.002v.752h-.756v-.752h.756zm-9.928.001v.75h-.753v-.75h.753zm-61.213.002v.746h-.749v-.746h.749zm49.608.022v.702h-.704v-.702h.704zm19.827.026v.65h-.653v-.65h.653zm-64.61.089v.472h-.473v-.472h.473zm51.436-1.796v.771h-.775v-.771h.775zm-61.211 0v.771h-.774v-.771h.774zm6.617 0v.771h-.774v-.771h.774zm-1.654 0v.771h-.775v-.771h.775zm79.409 0v.771h-.775v-.771h.775zm-6.618 0v.771h-.774v-.771h.774zm-9.926 0v.771h-.774v-.771h.774zm-3.309 0v.771h-.774v-.771h.774zm-1.654 0v.771h-.774v-.771h.774zm-3.309 0v.771h-.774v-.771h.774zm-51.285 0v.771h-.774v-.771h.774zm6.618 0v.771h-.775v-.771h.775zm1.654 0v.771h-.774v-.771h.774zm59.557 0v.771H97.5v-.771h.775zm-18.198 0v.771h-.774v-.771h.774zm-36.396 0v.771h-.774v-.771h.774zm1.655 0v.771h-.775v-.771h.775zm1.654 0v.771h-.774v-.771h.774zm1.654 0v.771h-.774v-.771h.774zm1.654 0v.771h-.774v-.771h.774zm28.124 0v.771h-.774v-.771h.774zm-44.669.002v.767h-.771v-.767h.771zm8.272 0v.767h-.771v-.767h.771zm59.557 0v.767h-.771v-.767h.771zm3.306.003v.761h-.765v-.761h.765zm-8.274.001v.759h-.762v-.759h.762zm-1.654 0v.759h-.762v-.759h.762zm-71.137 0v.759h-.762v-.759h.762zm8.272 0v.759h-.763v-.759h.763zm59.556 0v.759h-.762v-.759h.762zm11.578.003v.753h-.756v-.753h.756zm-77.764.009v.735h-.738v-.735h.738zm9.82.106v.523h-.525v-.523h.525zm57.888.014v.495h-.497v-.495h.497zm-6.479-1.784v.771h-.774v-.771h.774zm-44.667 0v.771h-.774v-.771h.774zm41.359 0v.771h-.775v-.771h.775zm1.654 0v.771h-.774v-.771h.774zm-3.309 0v.771h-.774v-.771h.774zm-56.248 0v.771h-.774v-.771h.774zm-1.654 0v.771h-.774v-.771h.774zm11.58 0v.771h-.774v-.771h.774zm44.668 0v.771h-.774v-.771h.774zm24.815 0v.771h-.774v-.771h.774zm-82.717 0v.771h-.774v-.771h.774zm11.58 0v.771h-.774v-.771h.774zm9.926 0v.771h-.774v-.771h.774zm-13.235 0v.771h-.774v-.771h.774zm66.174 0v.771h-.774v-.771h.774zm-51.284 0v.771h-.775v-.771h.775zm49.63 0v.771h-.774v-.771h.774zm-46.322 0v.771h-.774v-.771h.774zm-1.654 0v.771h-.774v-.771h.774zm52.938.001v.768h-.772v-.768h.772zm-67.829 0v.768h-.771v-.768h.771zm-3.309 0v.768h-.771v-.768h.771zm77.755 0v.768h-.771v-.768h.771zm-3.309 0v.768h-.771v-.768h.771zm-9.926 0v.768h-.771v-.768h.771zm-4.963 0v.768h-.771v-.768h.771zm9.923.003v.762h-.765v-.762h.765zm9.926 0v.762h-.765v-.762h.765zm-87.68 0v.762h-.765v-.762h.765zm-1.655 0v.762h-.765v-.762h.765zm82.716.002v.758h-.762v-.758h.762zm-74.449.003v.752h-.755v-.752h.755zm51.275.011v.731h-.735v-.731h.735zm-38.053.003v.725h-.729v-.725h.729zm9.926 0v.725h-.729v-.725h.729zm41.343.015v.695h-.698v-.695h.698zm18.168.03v.634h-.638v-.634h.638zm-72.887.095v.444h-.447v-.444h.447zm8.436-1.81v.771h-.775v-.771h.775zm36.395 0v.771h-.774v-.771h.774zm3.309 0v.771h-.774v-.771h.774zm1.654 0v.771h-.774v-.771h.774zm-61.211 0v.771h-.774v-.771h.774zm18.198 0v.771h-.774v-.771h.774zm44.668 0v.771h-.775v-.771h.775zm4.963 0v.771h-.775v-.771h.775zm-69.483 0v.771h-.774v-.771h.774zm59.557 0v.771h-.775v-.771h.775zm11.58 0v.771h-.774v-.771h.774zm1.654 0v.771h-.774v-.771h.774zm1.655 0v.771H97.5v-.771h.775zm-77.755 0v.771h-.774v-.771h.774zm26.47 0v.771h-.774v-.771h.774zm-4.963 0v.771h-.774v-.771h.774zm59.557 0v.771h-.775v-.771h.775zm1.654 0v.771h-.774v-.771h.774zm1.654 0v.771h-.774v-.771h.774zm-82.717 0v.771h-.774v-.771h.774zm86.026 0v.771h-.774v-.771h.774zm-76.1 0v.771h-.775v-.771h.775zm1.654 0v.771h-.774v-.771h.774zm1.654 0v.771h-.774v-.771h.774zm71.138 0v.771h-.775v-.771h.775zm-66.175 0v.771h-.774v-.771h.774zm-21.508.002v.768h-.771v-.768h.772-.001zm11.581 0v.768h-.772v-.768h.772zm-3.309 0v.768h-.771v-.768h.771zm52.939 0v.768h-.771v-.768h.771zm19.851.002v.764h-.768v-.764h.768zm-71.142.004v.756h-.759v-.756h.759zm81.05.014v.728h-.732v-.728h.732zm-92.644 0v.728h-.731v-.728h.731zm94.295.003v.722h-.725v-.722h.725zm-62.871.006v.71H47.9v-.71h.714zm-10.115.187v.336h-.337v-.336h.337zm51.285 0v.336h-.337v-.336h.337zm-6.398-1.864v.771h-.775v-.771h.775zm23.161 0v.771h-.775v-.771h.775zm-19.853 0v.771h-.774v-.771h.774zm21.507 0v.771h-.774v-.771h.774zm1.654 0v.771h-.774v-.771h.774zm-11.58 0v.771H97.5v-.771h.775zm-1.655 0v.771h-.774v-.771h.774zm14.89 0v.771h-.775v-.771h.775zm-6.618 0v.771h-.774v-.771h.774zm-59.556 0v.771h-.775v-.771h.775zm-13.235 0v.771h-.775v-.771h.775zm62.865 0v.771h-.774v-.771h.774zm-51.285 0v.771h-.774v-.771h.774zm-28.124 0v.771h-.774v-.771h.774zm69.483 0v.771h-.774v-.771h.774zm-43.013 0v.771h-.774v-.771h.774zm-1.655 0v.771h-.774v-.771h.774zm47.977 0v.771h-.775v-.771h.775zm-62.866 0v.771h-.774v-.771h.774zm9.926 0v.771h-.774v-.771h.774zm57.903 0v.771h-.775v-.771h.775zm-59.557 0v.771h-.774v-.771h.774zm-14.889 0v.771h-.774v-.771h.774zm1.654 0v.771h-.774v-.771h.774zm1.655 0v.771h-.774v-.771h.774zm1.654 0v.771h-.774v-.771h.774zm-6.619.002v.767h-.771v-.767h.771zm86.026 0v.767h-.771v-.767h.771zm-76.102.001v.765h-.768v-.765h.768zm11.581 0v.765h-.768v-.765h.768zm51.285 0v.765h-.768v-.765H90zm11.579.002v.761h-.765v-.761h.765zm-72.792 0v.761h-.765v-.761h.765zm18.197.001v.759h-.762v-.759h.762zm52.939 0v.759h-.762v-.759h.762zm-69.484.002v.755h-.76v-.755h.76zm51.279.006v.743h-.747v-.743h.747zm31.419.013v.717h-.72v-.717h.72zm-26.443-1.673v.77h-.774v-.77h.774zm-59.556 0v.77h-.775v-.77h.775zm56.248 0v.77h-.775v-.77h.775zm-39.705 0v.77h-.774v-.77h.774zm44.668 0v.77h-.775v-.77h.775zm1.654 0v.77h-.774v-.77h.774zm-66.174 0v.77h-.774v-.77h.774zm86.026 0v.77h-.774v-.77h.774zm-24.815 0v.77h-.774v-.77h.774zm26.47 0v.77h-.775v-.77h.775zm-89.335 0v.77h-.774v-.77h.774zm71.137 0v.77h-.775v-.77h.775zm14.889 0v.77h-.774v-.77h.774zm-66.174 0v.77h-.774v-.77h.774zm-13.235 0v.77h-.774v-.77h.774zm11.58 0v.77h-.774v-.77h.774zm-19.852 0v.77h-.774v-.77h.774zm18.198 0v.77h-.774v-.77h.774zm61.211 0v.77h-.774v-.77h.774zm-1.654 0v.77H97.5v-.77h.775zm8.272 0v.77h-.775v-.77h.775zm-87.681 0v.77h-.774v-.77h.774zm16.543 0v.77h-.774v-.77h.774zm-4.963 0v.77h-.774v-.77h.774zm-13.235 0v.77h-.774v-.77h.774zm95.952.001v.768h-.772v-.768h.772zm-79.41 0v.768h-.771v-.768h.771zm11.581 0v.768h-.771v-.768h.771zm-29.778 0v.768h-.772v-.768h.772zm-1.655 0v.768h-.771v-.768h.771zm81.064 0v.768h-.772v-.768h.772zm19.85.002v.764h-.768v-.764h.768zm-11.582.001v.762h-.765v-.762h.765zm-6.619.002v.758h-.762v-.758h.762zm4.96.003v.752h-.756v-.752h.756zm3.307.001v.75h-.752v-.75h.752zm-72.794.003v.744h-.747v-.744h.747zm-6.631.014v.716h-.72v-.716h.72zm87.708-1.674v.771h-.774v-.771h.774zm-97.607 0v.771h-.774v-.771h.774zm14.889 0v.771h-.774v-.771h.774zm-13.235 0v.771h-.774v-.771h.774zm71.138 0v.771h-.775v-.771h.775zm23.161 0v.771h-.775v-.771h.775zm-1.655 0v.771h-.774v-.771h.774zm-71.137 0v.771h-.774v-.771h.774zm76.101 0v.771h-.775v-.771h.775zm-24.816 0v.771h-.774v-.771h.774zm-49.631 0v.771h-.774v-.771h.774zm-26.469 0v.771h-.774v-.771h.774zm28.124 0v.771h-.774v-.771h.774zm74.445 0v.771h-.774v-.771h.774zm-13.234 0v.771h-.774v-.771h.774zm-74.446 0v.771h-.774v-.771h.774zm-1.654 0v.771h-.775v-.771h.775zm74.446 0v.771h-.775v-.771h.775zm-14.89 0v.771h-.774v-.771h.774zm13.235 0v.771h-.774v-.771h.774zm-1.654 0v.771H97.5v-.771h.775zm-86.027 0v.771h-.774v-.771h.774zm82.718 0v.771h-.774v-.771h.774zm-51.286.002v.767h-.772v-.767h.772zm49.63 0v.767h-.771v-.767h.771zm-61.211 0v.767h-.771v-.767h.771zm64.518.001v.765h-.768v-.765h.768zm11.581 0v.765h-.768v-.765h.768zm-89.337.002v.761h-.765v-.761h.765zm66.173.001v.759h-.762v-.759h.762zm-49.632.002v.755h-.759v-.755h.759zm-1.655 0v.755h-.759v-.755h.759zm-8.282.011v.734h-.738v-.734h.738zm-4.975.012v.71h-.714v-.71h.714zm85.823.202v.305h-.307v-.305h.307zm-92.41-1.879v.77h-.774v-.77h.774zm100.916 0v.77h-.775v-.77h.775zm-9.927 0v.77h-.774v-.77h.774zm-4.963 0v.77h-.774v-.77h.774zm-1.654 0v.77H97.5v-.77h.775zm-1.655 0v.77h-.774v-.77h.774zm-1.654 0v.77h-.774v-.77h.774zm-1.654 0v.77h-.775v-.77h.775zm-3.309 0v.77h-.774v-.77h.774zm-3.309 0v.77h-.774v-.77h.774zm-44.667 0v.77h-.774v-.77h.774zm-3.309 0v.77h-.774v-.77h.774zm-4.963 0v.77h-.774v-.77h.774zm-1.654 0v.77h-.775v-.77h.775zm-1.655 0v.77h-.774v-.77h.774zm-1.654 0v.77h-.774v-.77h.774zm-1.654 0v.77h-.775v-.77h.775zm13.233.002v.767H39.6v-.767h.771zm47.976 0v.767h-.771v-.767h.771zm13.235 0v.767h-.771v-.767h.771zm16.542.001v.764h-.768v-.764h.768zm-107.535.002v.761h-.765v-.761h.765zm92.644 0v.761h-.765v-.761h.765zm-91.001.012v.737h-.741v-.737h.741zm11.579.001v.734h-.738v-.734h.738zm92.64.003v.728h-.731v-.728h.731zm-79.415.006v.716h-.719v-.716h.719zm-1.678.025v.667h-.671v-.667h.671zm-10.004.076v.514h-.516v-.514h.516zm87.578.103v.308h-.31v-.308h.31zm-97.375-1.877v.77h-.774v-.77h.774zm81.063 0v.77h-.774v-.77h.774zm-76.1 0v.77h-.774v-.77h.774zm3.309 0v.77h-.774v-.77h.774zm6.617 0v.77h-.774v-.77h.774zm1.655 0v.77h-.775v-.77h.775zm1.654 0v.77h-.774v-.77h.774zm4.963 0v.77h-.774v-.77h.774zm-21.507 0v.77h-.774v-.77h.774zm77.755 0v.77h-.774v-.77h.774zm-66.174 0v.77h-.774v-.77h.774zm-6.617 0v.77h-.774v-.77h.774zm76.1 0v.77H97.5v-.77h.775zm1.654 0v.77h-.774v-.77h.774zm4.963 0v.77h-.774v-.77h.774zm-3.308 0v.77h-.775v-.77h.775zm-11.582.001v.768h-.772v-.768h.772zm23.161 0v.768h-.772v-.768h.772zm-4.963 0v.768h-.772v-.768h.772zm1.652.002v.764h-.768v-.764h.768zm1.655 0v.764h-.768v-.764h.768zm-84.374.001v.762h-.765v-.762h.765zm61.211 0v.762h-.765v-.762h.765zm18.197.002v.758h-.763v-.758h.763zm-87.681 0v.758h-.762v-.758h.762zm18.189.009v.74h-.744v-.74h.744zm3.307.001v.737h-.741v-.737h.741zm-23.145-1.663v.771h-.774v-.771h.774zm4.964 0v.771h-.774v-.771h.774zm86.026 0v.771h-.774v-.771h.774zm-79.409 0v.771h-.774v-.771h.774zm82.718 0v.771h-.775v-.771h.775zm-6.618 0v.771h-.774v-.771h.774zm8.272 0v.771h-.774v-.771h.774zm-86.026 0v.771h-.775v-.771h.775zm74.446 0v.771h-.775v-.771h.775zm14.888 0v.771h-.774v-.771h.774zm-16.543 0v.771h-.774v-.771h.774zm-1.654 0v.771H97.5v-.771h.775zm-1.655 0v.771h-.774v-.771h.774zm-57.902 0v.771h-.774v-.771h.774zm-6.617 0v.771h-.775v-.771h.775zm-1.655 0v.771h-.774v-.771h.774zm-14.889 0v.771h-.774v-.771h.774zm4.963 0v.771h-.774v-.771h.774zm86.027 0v.771h-.775v-.771h.775zm-94.3.002v.767h-.771v-.767h.771zm1.654 0v.767h-.771v-.767h.771zm4.963 0v.767h-.771v-.767h.772-.001zm95.951.001v.765h-.768v-.765h.768zm-4.966.003v.759h-.762v-.759h.762zm-86.026 0v.759h-.762v-.759h.762zm9.921.005v.749h-.753v-.749h.753zm56.239.009v.731h-.735v-.731h.735zm4.96.003v.725h-.728v-.725h.728zm19.876-1.669v.77h-.775v-.77h.775zm-95.953 0v.77h-.774v-.77h.774zm94.298 0v.77h-.774v-.77h.774zm-1.654 0v.77h-.775v-.77h.775zm-1.655 0v.77h-.774v-.77h.774zm-89.335 0v.77h-.774v-.77h.774zm-6.617 0v.77h-.774v-.77h.774zm-1.655 0v.77h-.774v-.77h.774zm9.927 0v.77h-.774v-.77h.774zm86.026 0v.77h-.774v-.77h.774zm-1.654 0v.77h-.775v-.77h.775zm-1.655 0v.77h-.774v-.77h.774zm-76.1 0v.77h-.774v-.77h.774zm71.137 0v.77h-.774v-.77h.774zm-1.654 0v.77H97.5v-.77h.775zm-67.829 0v.77h-.774v-.77h.774zm-14.889 0v.77h-.774v-.77h.774zm100.914.001v.768h-.771V85.6h.771zm-89.335 0v.768h-.771V85.6h.771zm-3.309 0v.768h-.771V85.6h.771zm-6.617 0v.768h-.771V85.6h.771zm14.889 0v.768h-.771V85.6h.771zm-21.508.002v.764h-.768v-.764h.768zm107.531.001v.762h-.765v-.762h.765zm-21.506 0v.762h-.765v-.762h.765zm4.961.002v.758h-.762v-.758h.762zm-79.402-1.653v.771h-.774v-.771h.774zm89.335 0v.771h-.775v-.771h.775zm1.654 0v.771h-.774v-.771h.774zm-3.309 0v.771h-.774v-.771h.774zm-86.026 0v.771h-.774v-.771h.774zm3.309 0v.771h-.775v-.771h.775zm1.654 0v.771h-.774v-.771h.774zm-8.272 0v.771h-.774v-.771h.774zm87.681 0v.771h-.774v-.771h.774zm-97.607 0v.771H9.82v-.771h.774zm1.654 0v.771h-.774v-.771h.774zm1.655 0v.771h-.774v-.771h.774zm1.654 0v.771h-.774v-.771h.774zm90.99 0v.771h-.775v-.771h.775zm-1.655 0v.771h-.774v-.771h.774zm-87.681 0v.771h-.774v-.771h.774zm1.655 0v.771h-.774v-.771h.774zm11.58 0v.771h-.774v-.771h.774zm67.829 0v.771H97.5v-.771h.775zm1.654 0v.771h-.774v-.771h.774zm1.655 0v.771h-.775v-.771h.775zm13.233.002v.767h-.771v-.767h.771zm3.305.003v.761h-.765v-.761h.765zm-21.514.008v.746h-.75v-.746h.75zm-87.684.003v.74H8.18v-.74h.744zm110.83.012v.716h-.72v-.716h.72zm-3.351.042v.632h-.635v-.632h.635zm-84.487.115v.402h-.404v-.402h.404zm79.594-1.831v.771h-.775v-.771h.775zm-90.99 0v.771h-.774v-.771h.774zm79.409 0v.771h-.774v-.771h.774zm4.963 0v.771h-.774v-.771h.774zm-87.681 0v.771h-.774v-.771h.774zm-3.308 0v.771h-.774v-.771h.774zm92.644 0v.771h-.775v-.771h.775zm-94.299 0v.771h-.774v-.771h.774zm6.618 0v.771h-.774v-.771h.774zm-3.309 0v.771h-.774v-.771h.774zm6.618 0v.771h-.774v-.771h.774zm6.617 0v.771h-.774v-.771h.774zm79.409 0v.771h-.774v-.771h.774zm1.654 0v.771h-.774v-.771h.774zm3.309 0v.771h-.774v-.771h.774zm-89.335 0v.771h-.774v-.771h.774zm-13.235 0v.771H9.82v-.771h.774zm107.531.002v.767h-.771v-.767h.771zm-1.654 0v.767h-.771v-.767h.771zm-86.028.001v.765h-.768v-.765h.768zm67.829 0v.765h-.768v-.765h.768zm3.304.005v.755h-.759v-.755h.759zm-74.451.004v.746h-.749v-.746h.749zm87.619.062v.623h-.626v-.623h.626zm4.942.021v.58h-.583v-.58h.583zM8.82 82.425v.532h-.535v-.532h.535zm102.69-1.765v.77h-.775v-.77h.775zm-90.99 0v.77h-.774v-.77h.774zm1.655 0v.77h-.774v-.77h.774zm82.717 0v.77h-.774v-.77h.774zm1.655 0v.77h-.775v-.77h.775zm1.654 0v.77h-.774v-.77h.774zm-94.298 0v.77h-.774v-.77h.774zm4.963 0v.77h-.774v-.77h.774zm4.963 0v.77h-.774v-.77h.774zm-11.581 0v.77h-.774v-.77h.774zm16.544 0v.77h-.774v-.77h.774zm81.062.001v.768h-.771v-.768h.771zm-9.926 0v.768h-.772v-.768h.772zm16.543 0v.768h-.771v-.768h.771zm-100.917.002v.764h-.768v-.764h.768zm-6.617 0v.764h-.769v-.764h.769zm8.271 0v.764h-.768v-.764h.768zm95.952.001v.762h-.766v-.762h.766zm-102.589.018v.726h-.728v-.726h.728zm109.174.014v.698h-.701v-.698h.701zm-112.504.007v.683h-.686v-.683h.686zm95.939.014v.656h-.659v-.656h.659zm-76.115.015v.626h-.629v-.626h.629zm87.679.002v.622h-.626v-.622h.626zm6.605.012v.598h-.601v-.598h.601zm-19.854.001v.596h-.598v-.596h.598zm16.533.011v.574h-.577v-.574h.577zM17.211 79.013v.771h-.774v-.771h.774zm1.655 0v.771h-.774v-.771h.774zm1.654 0v.771h-.774v-.771h.774zm1.655 0v.771h-.774v-.771h.774zm1.654 0v.771h-.774v-.771h.774zm-9.926 0v.771h-.774v-.771h.774zm94.298 0v.771h-.774v-.771h.774zm-102.57 0v.771h-.774v-.771h.774zm94.298 0v.771h-.774v-.771h.774zm23.161 0v.771h-.774v-.771h.774zm-16.543 0v.771h-.775v-.771h.775zm-1.655 0v.771h-.774v-.771h.774zm4.963 0v.771h-.774v-.771h.774zm6.616.002v.767h-.771v-.767h.771zm-109.187 0v.767h-.771v-.767h.771zm1.654 0v.767h-.771v-.767h.771zm112.495.001v.765h-.768v-.765h.768zm-92.647.003v.759h-.762v-.759h.762zm86.025.002v.755h-.759v-.755h.759zm-3.312.003v.749h-.753v-.749h.753zm-100.94.024v.701h-.704v-.701h.704zm92.629.015v.671h-.674v-.671h.674zm-91 .011v.649h-.653v-.649h.653zm107.499.033v.583h-.586v-.583h.586zm-1.657.003v.577h-.58v-.577h.58zM15.557 77.367v.77h-.774v-.77h.774zm89.335 0v.77h-.774v-.77h.774zm-95.952 0v.77h-.774v-.77h.774zm13.235 0v.77h-.774v-.77h.774zm-14.89 0v.77h-.774v-.77h.774zm99.262 0v.77h-.775v-.77h.775zm-82.718 0v.77h-.774v-.77h.774zm84.372 0v.77h-.774v-.77h.774zm-87.681 0v.77h-.774v-.77h.774zm-1.654 0v.77h-.774v-.77h.774zm90.989 0v.77h-.774v-.77h.774zm9.925.001v.768h-.771v-.768h.771zm-114.151 0v.768h-.771v-.768h.772-.001zm115.799.006v.756h-.759v-.756h.759zm-3.315.006v.744h-.747v-.744h.747zm-4.973.011v.722h-.726v-.722h.726zm-102.572.001v.72h-.722v-.72h.722zm18.177.022v.677h-.68v-.677h.68zm87.629.051v.574h-.577v-.574h.577zm6.602.015v.544h-.546v-.544h.546zm-110.878.036v.472h-.473v-.472h.473zm87.646.035v.402h-.404v-.402h.404zm3.236.073v.257h-.258v-.257h.258zm5.221-1.904v.771h-.774v-.771h.774zm-1.654 0v.771h-.775v-.771h.775zm-1.655 0v.771h-.774v-.771h.774zm-82.717 0v.771h-.774v-.771h.774zm-14.89 0v.771h-.774v-.771h.774zm-3.308 0v.771h-.774v-.771h.774zm16.543 0v.771h-.774v-.771h.774zm-1.654 0v.771h-.774v-.771h.774zm4.963 0v.771h-.774v-.771h.774zm-18.2.002v.768h-.771v-.768h.772-.001zm117.459 0v.768h-.771v-.768h.771zm-114.156.006v.756h-.759v-.756h.759zm6.614.003v.75h-.752v-.75h.753-.001zm97.607 0v.75h-.753v-.75h.753zm-3.308 0v.75h-.753v-.75h.753zm14.878.011v.728h-.732v-.728h.732zm-5.022.059v.61h-.613v-.61h.613zm1.619.034v.541h-.543v-.541h.543zm-4.848-1.761v.771h-.774v-.771h.774zm-1.653 0v.771h-.775v-.771h.775zm-1.655 0v.771h-.774v-.771h.774zm-4.963 0v.771h-.774v-.771h.774zm16.543 0v.771h-.774v-.771h.774zm-18.197 0v.771h-.775v-.771h.775zm-1.655 0v.771h-.774v-.771h.774zm-89.335 0v.771h-.774v-.771h.774zm4.963 0v.771h-.774v-.771h.774zm1.655 0v.771h-.774v-.771h.774zm-16.544 0v.771h-.774v-.771h.774zm-1.654 0v.771h-.774v-.771h.774zm19.85.002v.767h-.771v-.767h.771zm86.027 0v.767h-.771v-.767h.771zm-97.607 0v.767h-.771v-.767h.771zm6.614.003v.761h-.765v-.761h.765zm104.224 0v.761h-.765v-.761h.765zm-112.499.003v.755h-.759v-.755h.759zm107.53.003v.749h-.753v-.749h.753zm-104.257.033v.683h-.687v-.683h.687zm107.469.063v.556h-.559v-.556h.559zm-114.267.117v.323h-.325v-.323h.325zm8.496-1.87v.77h-.774v-.77h.774zm-3.309 0v.77h-.774v-.77h.774zm104.224 0v.77h-.774v-.77h.774zm-1.653 0v.77h-.775v-.77h.775zm-1.655 0v.77h-.774v-.77h.774zm-4.963 0v.77h-.774v-.77h.774zm-1.654 0v.77h-.775v-.77h.775zm-86.027 0v.77h-.774v-.77h.774zm1.655 0v.77h-.774v-.77h.774zm95.952 0v.77h-.774v-.77h.774zm1.654 0v.77h-.774v-.77h.774zm6.618 0v.77h-.775v-.77h.775zm-115.805 0v.77H9.82v-.77h.774zm3.307.001v.768h-.771v-.768h.771zm90.99 0v.768h-.772v-.768h.772zm-81.064 0v.768h-.771v-.768h.771zm-14.89.002v.764h-.769v-.764h.769zm8.27.001v.762h-.765v-.762h.765zm-14.889 0v.762h-.765v-.762h.765zm109.182.005v.752h-.755v-.752h.755zm-104.268.044v.664h-.668v-.664h.668zm117.393.066v.532h-.535v-.532h.535zm-3.385.076v.38h-.382v-.38h.382zm-117.492.033v.314h-.316v-.314h.316zm10.155-1.875v.771h-.774v-.771h.774zm100.916 0v.771h-.775v-.771h.775zm-105.879 0v.771h-.774v-.771h.774zm1.654 0v.771H9.82v-.771h.774zm110.842 0v.771h-.774v-.771h.774zm-104.225 0v.771h-.774v-.771h.774zm4.964 0v.771h-.774v-.771h.774zm90.989 0v.771h-.774v-.771h.774zm6.617 0v.771h-.774v-.771h.774zm-107.533 0v.771h-.774v-.771h.774zm94.299 0v.771h-.775v-.771h.775zm9.925 0v.771h-.774v-.771h.774zm1.655 0v.771h-.774v-.771h.774zm-110.842 0v.771h-.774v-.771h.774zm8.271.002v.767h-.772v-.767h.772zm95.952 0v.767h-.771v-.767h.771zm-90.992.003v.761h-.765v-.761h.765zm87.68 0v.761h-.765v-.761h.765zm-84.379.007v.747h-.75v-.747h.75zm86.022.005v.737h-.741v-.737h.741zm-4.968.004v.729h-.732v-.729h.732zm16.565-1.667v.77h-.774v-.77h.774zm-9.926 0v.77h-.775v-.77h.775zm-6.618 0v.77h-.774v-.77h.774zm-97.607 0v.77h-.774v-.77h.774zm6.618 0v.77h-.774v-.77h.774zm9.926 0v.77h-.774v-.77h.774zm-6.618 0v.77h-.774v-.77h.774zm102.57 0v.77h-.774v-.77h.774zm-97.606 0v.77h-.774v-.77h.774zm87.68 0v.77h-.774v-.77h.774zm3.309 0v.77h-.774v-.77h.774zm1.655 0v.77h-.775v-.77h.775zm-102.571 0v.77h-.774v-.77h.774zm105.879 0v.77h-.774v-.77h.774zm-109.187 0v.77h-.774v-.77h.774zm1.654 0v.77H9.82v-.77h.774zm105.878 0v.77h-.774v-.77h.774zm-100.915 0v.77h-.774v-.77h.774zm90.988.001v.768h-.771v-.768h.771zm16.542.002v.764h-.768v-.764h.768zm-117.461.001v.762h-.765v-.762h.765zm13.235 0v.762h-.765v-.762h.765zm-1.65-1.65v.77h-.774v-.77h.774zm-1.654 0v.77h-.774v-.77h.774zm3.309 0v.77h-.774v-.77h.774zm-8.272 0v.77H9.82v-.77h.774zm-1.654 0v.77h-.774v-.77h.774zm4.963 0v.77h-.774v-.77h.774zm-1.655 0v.77h-.774v-.77h.774zm97.607 0v.77h-.774v-.77h.774zm13.235 0v.77h-.774v-.77h.774zm-11.58 0v.77h-.775v-.77h.775zm-104.225 0v.77h-.774v-.77h.774zm105.879 0v.77h-.774v-.77h.774zm1.655 0v.77h-.775v-.77h.775zm1.653 0v.77h-.774v-.77h.774zm1.655 0v.77h-.774v-.77h.774zm1.654 0v.77h-.774v-.77h.774zm1.655 0v.77h-.774v-.77h.774zm-115.805 0v.77h-.774v-.77h.774zm18.187.01v.749h-.753v-.749h.753zm81.057.006v.737h-.74v-.737h.74zM3.864 67.6v.547h-.549V67.6h.549zm15.002-1.758v.771h-.774v-.771h.774zm-3.309 0v.771h-.774v-.771h.774zm-8.272 0v.771h-.774v-.771h.774zm115.805 0v.771h-.774v-.771h.774zm-1.654 0v.771h-.774v-.771h.774zm-112.496 0v.771h-.774v-.771h.774zm1.654 0v.771H9.82v-.771h.774zm109.187 0v.771h-.774v-.771h.774zm-114.15 0v.771h-.774v-.771h.774zm109.188 0v.771h-.775v-.771h.775zm-1.655 0v.771h-.774v-.771h.774zm-95.952 0v.771h-.775v-.771h.775zm94.298 0v.771h-.775v-.771h.775zm-1.655 0v.771h-.774v-.771h.774zm-1.654 0v.771h-.774v-.771h.774zm16.542.002v.767h-.771v-.767h.771zm-104.224 0v.767h-.771v-.767h.771zm-6.619.001v.765h-.768v-.765h.768zm104.224 0v.765h-.768v-.765h.768zm-1.661.006v.753h-.756v-.753h.756zm-112.496 0v.753h-.756v-.753h.756zm8.271.002v.749h-.753v-.749h.753zm-8.261-1.657v.77h-.774v-.77h.774zm4.963 0v.77h-.774v-.77h.774zm102.57 0v.77h-.775v-.77h.775zm-105.879 0v.77h-.774v-.77h.774zm114.15 0v.77h-.774v-.77h.774zm-100.915 0v.77h-.774v-.77h.774zm102.57 0v.77h-.774v-.77h.774zm-13.235 0v.77h-.774v-.77h.774zm-100.916 0v.77h-.774v-.77h.774zm9.926 0v.77h-.774v-.77h.774zm107.533 0v.77h-.774v-.77h.774zm-1.654 0v.77h-.774v-.77h.774zm-9.926 0v.77h-.774v-.77h.774zm-3.309 0v.77h-.774v-.77h.774zm-94.298 0v.77h-.774v-.77h.774zm-1.654 0v.77h-.774v-.77h.774zm-1.655 0v.77h-.774v-.77h.774zm8.271.001v.768h-.771v-.768h.771zm95.943.009v.75h-.753v-.75h.753zm-1.654 0v.75h-.753v-.75h.753zm3.307.002v.746h-.75v-.746h.75zm-107.778.243v.26h-.261v-.26h.261zm111.099-1.902v.771h-.774v-.771h.774zm-112.496 0v.771h-.774v-.771h.774zm102.57 0v.771h-.775v-.771h.775zm13.234 0v.771h-.774v-.771h.774zm-104.224 0v.771h-.774v-.771h.774zm-16.543 0v.771h-.774v-.771h.774zm14.889 0v.771h-.774v-.771h.774zm-13.235 0v.771h-.774v-.771h.774zm11.58 0v.771h-.774v-.771h.774zm105.879 0v.771h-.774v-.771h.774zm-13.235 0v.771h-.774v-.771h.774zm-94.298 0v.771h-.774v-.771h.774zm-8.272 0v.771h-.774v-.771h.774zm100.915.002v.767h-.772v-.767h.772zm4.963 0v.767h-.772v-.767h.772zm6.617 0v.767h-.771v-.767h.771zm-107.541.007v.753h-.756v-.753h.757-.001zm104.209.015v.723h-.725v-.723h.725zm-102.727.158v.408h-.41v-.408h.41zm-6.436-1.828v.771h-.774v-.771h.774zm-1.654 0v.771h-.774v-.771h.774zm104.224 0v.771h-.774v-.771h.774zm-105.878 0v.771h-.774v-.771h.774zm107.533 0v.771h-.775v-.771h.775zm1.654 0v.771h-.774v-.771h.774zm-100.916 0v.771h-.774v-.771h.774zm112.496 0v.771h-.774v-.771h.774zm-8.272 0v.771h-.774v-.771h.774zm4.964 0v.771h-.774v-.771h.774zm1.654 0v.771h-.774v-.771h.774zm-107.533 0v.771h-.774v-.771h.774zm1.654 0v.771h-.774v-.771h.774zm1.655 0v.771h-.774v-.771h.774zm1.653.002v.767h-.771v-.767h.771zm-18.203.004v.758h-.762v-.758h.762zm105.879 0v.758h-.762v-.758h.762zm18.189.009v.74h-.744v-.74h.744zM5.631 59.257v.77h-.774v-.77h.774zm-1.654 0v.77h-.774v-.77h.774zm105.878 0v.77h-.774v-.77h.774zm-90.989 0v.77h-.774v-.77h.774zm92.644 0v.77h-.775v-.77h.775zm13.234 0v.77h-.774v-.77h.774zm-104.225.001v.768h-.771v-.768h.771zm105.878 0v.768h-.771v-.768h.771zm-124.076 0v.768H1.55v-.768h.771zm120.766.002v.764h-.768v-.764h.768zm-4.963 0v.764h-.768v-.764h.768zm-107.533 0v.764h-.768v-.764h.768zm6.616.001v.762h-.765v-.762h.765zm99.259.002v.758h-.762v-.758h.762zm-8.273.001v.756h-.759v-.756h.759zm13.232.003v.75h-.753v-.75h.753zm-109.187 0v.75h-.753v-.75h.753zm-5.164.2v.35h-.352v-.35h.352zm109.398-1.857v.771h-.774v-.771h.774zm-112.495 0v.771h-.774v-.771h.774zm119.113 0v.771h-.774v-.771h.774zm-4.963 0v.771h-.774v-.771h.774zm-99.261 0v.771h-.774v-.771h.774zm107.533 0v.771h-.775v-.771h.775zm-114.151 0v.771h-.774v-.771h.774zm95.953 0v.771h-.774v-.771h.774zm-105.879 0v.771h-.774v-.771h.774zm8.272 0v.771H9.82v-.771h.774zm4.963 0v.771h-.774v-.771h.774zm-6.617 0v.771h-.774v-.771h.774zm-3.309 0v.771h-.774v-.771h.774zm119.113 0v.771h-.774v-.771h.774zm-11.58 0v.771h-.774v-.771h.774zm1.653.002v.767h-.771v-.767h.771zm-100.916 0v.767h-.771v-.767h.771zm6.618 0v.767h-.771v-.767h.771zm99.261 0v.767h-.771v-.767h.771zm-9.94.013v.741h-.744v-.741h.744zm-3.293-1.661v.77h-.775v-.77h.775zm8.272 0v.77h-.775v-.77h.775zm-112.497 0v.77h-.774v-.77h.774zm11.581 0v.77h-.774v-.77h.774zm-3.309 0v.77H9.82v-.77h.774zm105.878 0v.77h-.774v-.77h.774zm1.655 0v.77h-.774v-.77h.774zm6.617 0v.77h-.774v-.77h.774zm-4.963 0v.77h-.774v-.77h.774zm-107.533 0v.77h-.774v-.77h.774zm114.151 0v.77h-.775v-.77h.775zm-13.236.001v.768h-.772v-.768h.772zm-104.225 0v.768h-.771v-.768h.771zm6.618 0v.768h-.772v-.768h.772zm105.878 0v.768h-.771v-.768h.771zm-13.236.002v.764h-.768v-.764h.768zm-100.922.006v.752H6.52v-.752h.756zm13.234.001v.75h-.753v-.75h.753zm-16.544 0v.75h-.753v-.75h.753zm13.203.032v.686h-.689v-.686h.689zm94.289.009v.668h-.671v-.668h.671zm-89.417.082v.504h-.507v-.504h.507zm-9.793-1.78v.771h-.774v-.771h.774zm100.916 0v.771h-.774v-.771h.774zm-102.57 0v.771H9.82v-.771h.774zm104.225 0v.771h-.775v-.771h.775zm8.271 0v.771h-.774v-.771h.774zm-6.618 0v.771h-.774v-.771h.774zm-102.569 0v.771h-.774v-.771h.774zm-4.963 0v.771h-.774v-.771h.774zm109.187 0v.771h-.774v-.771h.774zm1.654 0v.771h-.774v-.771h.774zm6.618 0v.771h-.775v-.771h.775zm-110.842 0v.771h-.774v-.771h.774zm-9.926 0v.771h-.774v-.771h.774zm115.803.002v.767h-.771v-.767h.771zm-114.15 0v.767h-.771v-.767h.771zm104.224 0v.767h-.771v-.767h.771zm-94.298 0v.767h-.771v-.767h.771zm-14.894.004v.759h-.762v-.759h.762zm19.807.046v.667h-.671v-.667h.671zm84.299.072v.523h-.525v-.523h.525zm10.05-1.77v.77h-.774v-.77h.774zm-4.962 0v.77h-.775v-.77h.775zm6.617 0v.77h-.774v-.77h.774zm1.654 0v.77h-.774v-.77h.774zm-105.878 0v.77h-.774v-.77h.774zm3.309 0v.77h-.775v-.77h.775zm104.224 0v.77h-.774v-.77h.774zm-6.617 0v.77h-.775v-.77h.775zm-105.879 0v.77h-.774v-.77h.774zm3.309 0v.77h-.775v-.77h.775zm3.308 0v.77h-.774v-.77h.774zm-4.963 0v.77H9.82v-.77h.774zm102.57 0v.77h-.774v-.77h.774zm-105.879 0v.77h-.774v-.77h.774zm115.803.001v.768h-.771v-.768h.771zm-13.236.002v.764h-.768v-.764h.768zm-104.226.002v.761h-.765v-.761h.765zm13.223.012v.737h-.741v-.737h.741zM128 52.724v.665h-.668v-.665H128zM.562 52.777v.559H0v-.559h.562zm6.723-1.752v.77h-.774v-.77h.774zm-1.654 0v.77h-.774v-.77h.774zm9.926 0v.77h-.774v-.77h.774zm-6.617 0v.77h-.774v-.77h.774zm1.654 0v.77H9.82v-.77h.774zm1.654 0v.77h-.774v-.77h.774zm107.533 0v.77h-.774v-.77h.774zm-105.878 0v.77h-.774v-.77h.774zm109.187 0v.77h-.774v-.77h.774zm-1.654 0v.77h-.774v-.77h.774zm-3.309 0v.77h-.774v-.77h.774zm-6.617 0v.77h-.775v-.77h.775zm1.653.001v.768h-.772v-.768h.772zm-94.299 0v.768h-.771v-.768h.772-.001zm97.605.002v.764h-.768v-.764h.768zm-1.654 0v.764h-.768v-.764h.768zm-4.97.007v.749h-.753v-.749h.753zm-92.652.008v.734h-.738v-.734h.738zm3.157.151v.432h-.434v-.432h.434zm87.641.039v.354h-.355v-.354h.355zM8.94 49.378v.771h-.774v-.771h.774zm114.15 0v.771h-.774v-.771h.774zm-3.309 0v.771h-.774v-.771h.774zm1.655 0v.771h-.774v-.771h.774zm-3.309 0v.771h-.774v-.771h.774zm-1.655 0v.771h-.774v-.771h.774zm-97.606 0v.771h-.774v-.771h.774zm-1.655 0v.771h-.774v-.771h.774zm-9.926 0v.771h-.774v-.771h.774zm-1.654 0v.771h-.774v-.771h.774zm9.926 0v.771h-.774v-.771h.774zm95.953 0v.771h-.775v-.771h.775zm-1.655 0v.771h-.774v-.771h.774zm-89.336.002v.767h-.771v-.767h.771zm-16.556.012v.743h-.747v-.743h.747zm104.221.003v.737h-.741v-.737h.741zm4.963 0v.737h-.741v-.737h.741zm-100.915 0v.737h-.741v-.737h.741zm1.653.001v.735h-.738v-.735h.738zm-3.321.012v.711H9.85v-.711h.714zm104.131.093v.525h-.528v-.525h.528zm9.86.066v.393h-.395v-.393h.395zM20.52 47.732v.77h-.774v-.77h.774zm104.224 0v.77h-.774v-.77h.774zm-1.654 0v.77h-.774v-.77h.774zm-119.113 0v.77h-.774v-.77h.774zm117.459 0v.77h-.774v-.77h.774zm-13.235 0v.77h-.774v-.77h.774zm1.654 0v.77h-.774v-.77h.774zm-90.989 0v.77h-.774v-.77h.774zm94.298 0v.77h-.774v-.77h.774zm-100.916 0v.77h-.774v-.77h.774zm4.963 0v.77h-.774v-.77h.774zm102.57 0v.77h-.774v-.77h.774zm-114.15 0v.77h-.774v-.77h.774zm1.654 0v.77h-.774v-.77h.774zm104.223.001v.768h-.771v-.768h.771zm-95.96.008v.752h-.756v-.752h.756zm-6.619.001v.75h-.753v-.75h.753zm107.504.029v.692h-.695v-.692h.695zm1.617.038v.616h-.62v-.616h.62zm3.386-1.724v.771h-.774v-.771h.774zm-13.235 0v.771h-.774v-.771h.774zm3.309 0v.771h-.775v-.771h.775zm-102.57 0v.771h-.774v-.771h.774zm-1.655 0v.771h-.774v-.771h.774zm-1.654 0v.771h-.774v-.771h.774zm117.459 0v.771h-.774v-.771h.774zm1.654 0v.771h-.774v-.771h.774zm-105.878 0v.771h-.774v-.771h.774zm1.654 0v.771h-.774v-.771h.774zm-16.545.002v.767h-.771v-.767h.771zm115.805 0v.767h-.771v-.767h.771zm-9.928.001v.765h-.768v-.765h.768zm-3.31.002v.761h-.765v-.761h.765zm-89.337.002v.758h-.762v-.758h.762zm4.871.092v.574h-.577v-.574h.577zm94.161.136v.302h-.303v-.302h.303zm-104.244.019v.263h-.264v-.263h.264zm109.443-1.9v.771h-.774v-.771h.774zm-105.879 0v.771h-.774v-.771h.774zm-3.309 0v.771h-.774v-.771h.774zm94.299 0v.771h-.775v-.771h.775zm6.617 0v.771h-.774v-.771h.774zm9.926 0v.771h-.774v-.771h.774zm-115.806.002v.767h-.771v-.767h.771zm-1.655 0v.767h-.771v-.767h.772-.001zm14.888.001v.765h-.768v-.765h.768zm87.681 0v.765h-.768v-.765h.768zm-86.028.002v.761h-.765v-.761h.765zm-18.199.001v.759h-.762v-.759h.762zm120.764.003v.753h-.756v-.753h.756zm-9.934.008v.737h-.74v-.737h.74zm1.567.087v.562h-.565v-.562h.565zm-102.579.009v.544h-.547v-.544h.547zm-5.015.052v.441h-.443v-.441h.444-.001zm9.922.004v.432h-.434v-.432h.434zm100.838.077v.278h-.279v-.278h.279zM3.977 42.793v.77h-.774v-.77h.774zm11.58 0v.77h-.774v-.77h.774zm107.533 0v.77h-.774v-.77h.774zm1.654 0v.77h-.774v-.77h.774zm-119.113 0v.77h-.774v-.77h.774zm107.533 0v.77h-.774v-.77h.774zm1.655 0v.77h-.775v-.77h.775zm1.65.003v.764h-.768v-.764h.768zm-4.964.001v.762h-.765v-.762h.765zm-1.654 0v.762h-.765v-.762h.765zM7.278 42.8v.756h-.759V42.8h.759zm6.617 0v.756h-.759V42.8h.759zm3.307.002v.752h-.756v-.752h.756zm-4.984.021v.71h-.714v-.71h.714zm6.564.053v.604h-.607v-.604h.607zm-8.293.021v.562h-.564v-.562h.564zm107.532.002v.558h-.562v-.558h.562zm-13.256.02v.517h-.519v-.517h.519zm16.54.004v.51h-.513v-.51h.513zm-97.62.013v.484h-.486v-.484h.486zm-18.054-1.79v.771h-.774v-.771h.774zm104.224 0v.771h-.774v-.771h.774zm8.272 0v.771h-.774v-.771h.774zm-100.916 0v.771h-.774v-.771h.774zm94.299 0v.771h-.775v-.771h.775zm-100.916 0v.771H9.82v-.771h.774zm102.57 0v.771h-.774v-.771h.774zm1.655 0v.771h-.775v-.771h.775zm9.925 0v.771h-.774v-.771h.774zm-8.272 0v.771h-.774v-.771h.774zm-8.271 0v.771h-.774v-.771h.774zm-104.224 0v.771h-.774v-.771h.774zm119.111.002v.767h-.771v-.767h.771zm-109.187 0v.767h-.771v-.767h.771zm6.618 0v.767h-.771v-.767h.771zm-8.274.001v.765h-.768v-.765h.769-.001zm6.618 0v.765h-.768v-.765h.768zm-3.309 0v.765h-.768v-.765h.768zm-6.633.015v.735h-.737v-.735h.737zm110.749.092v.55h-.552v-.55h.552zm-6.506-1.756v.77h-.774v-.77h.774zm-3.309 0v.77h-.774v-.77h.774zm-95.952 0v.77h-.774v-.77h.774zm100.916 0v.77h-.775v-.77h.775zm1.653 0v.77h-.774v-.77h.774zm-4.962 0v.77h-.775v-.77h.775zm-94.299 0v.77h-.774v-.77h.774zm100.916 0v.77h-.774v-.77h.774zm-99.261 0v.77h-.774v-.77h.774zm100.914.001v.768h-.771v-.768h.771zm-99.261 0v.768h-.771v-.768h.771zm-4.963 0v.768h-.772v-.768h.772zm109.187 0v.768h-.771v-.768h.771zm-115.806.002v.764h-.769v-.764h.769zm99.259.002v.761h-.765v-.761h.765zm-104.244.019v.722h-.725v-.722h.725zm6.559.059v.604h-.608v-.604h.608zm1.628.026v.553h-.556v-.553h.556zm94.244.054v.444h-.447v-.444h.447zm.164-1.809v.77h-.775v-.77h.775zm9.925 0v.77h-.774v-.77h.774zm-95.952 0v.77h-.774v-.77h.774zm-8.272 0v.77h-.774v-.77h.774zm97.607 0v.77h-.774v-.77h.774zm8.272 0v.77h-.774v-.77h.774zm-109.187 0v.77h-.774v-.77h.774zm110.841 0v.77h-.774v-.77h.774zm-102.57 0v.77h-.774v-.77h.774zm1.655 0v.77h-.774v-.77h.774zm92.642.001v.768h-.771v-.768h.771zm-3.308 0v.768h-.772v-.768h.772zm-94.299 0v.768h-.771v-.768h.771zm-3.309 0v.768h-.771v-.768h.771zm104.223.001v.765h-.768v-.765h.768zm-99.261 0v.765h-.768v-.765h.768zm97.606.002v.762h-.766v-.762h.766zm-90.996.006v.749h-.753v-.749h.753zm102.52.05v.649h-.653v-.649h.653zM12.248 36.207v.771h-.774v-.771h.774zm11.581 0v.771h-.774v-.771h.774zm84.372 0v.771h-.774v-.771h.774zm1.654 0v.771h-.774v-.771h.774zm-87.68 0v.771h-.774v-.771h.774zm-11.581 0v.771H9.82v-.771h.774zm9.926 0v.771h-.774v-.771h.774zm97.607 0v.771h-.774v-.771h.774zm-1.655 0v.771h-.774v-.771h.774zm-97.606 0v.771h-.774v-.771h.774zm95.953 0v.771h-.775v-.771h.775zm-9.927 0v.771h-.774v-.771h.774zm1.655 0v.771h-.775v-.771h.775zm13.233.002v.767h-.771v-.767h.771zm-110.842 0v.767h-.771v-.767h.771zm102.567.003v.761h-.765v-.761h.765zm-94.303.004v.753h-.756v-.753h.756zm-3.325.017v.719h-.723v-.719h.723zm-6.625.007v.704h-.707v-.704h.707zm105.863.015v.674h-.677v-.674h.677zm-97.558-1.694v.77h-.774v-.77h.774zm92.644 0v.77h-.774v-.77h.774zm-95.953 0v.77h-.774v-.77h.774zm105.879 0v.77h-.774v-.77h.774zm-1.655 0v.77h-.774v-.77h.774zm-105.878 0v.77H9.82v-.77h.774zm109.187 0v.77h-.774v-.77h.774zm-97.606 0v.77h-.774v-.77h.774zm-1.655 0v.77h-.774v-.77h.774zm86.027 0v.77h-.775v-.77h.775zm-87.683.001v.768h-.771v-.768h.772-.001zm-9.926 0v.768h-.771v-.768h.771zm14.888.002v.764h-.768v-.764h.768zm81.062.001v.762h-.765v-.762h.765zm4.957.006v.75h-.753v-.75h.753zm3.296.012v.726h-.728v-.726h.728zm-105.884.006v.714H6.54v-.714h.717zm107.478.055v.604h-.607v-.604h.607zM8.94 32.914v.771h-.774v-.771h.774zm3.309 0v.771h-.775v-.771h.775zm-1.655 0v.771H9.82v-.771h.774zm13.235 0v.771h-.774v-.771h.774zm94.298 0v.771h-.774v-.771h.774zm-1.655 0v.771h-.774v-.771h.774zm-11.58 0v.771h-.774v-.771h.774zm14.888.002v.767h-.771v-.767h.771zm-13.235 0v.767h-.771v-.767h.771zm-84.373.001v.765h-.769v-.765h.769zm81.055.008v.749h-.753v-.749h.753zm-82.72.003v.743h-.747v-.743h.747zm4.961.001v.741h-.744v-.741h.744zm82.706.012v.717h-.72v-.717h.72zm-97.58-1.673v.77H9.82v-.77h.774zm92.644 0v.77h-.774v-.77h.774zm-87.681 0v.77h-.774v-.77h.774zm102.57 0v.77h-.774v-.77h.774zm-100.916 0v.77h-.774v-.77h.774zm94.299 0v.77h-.775v-.77h.775zm-92.646.001v.768h-.771v-.768h.772-.001zm-9.926 0v.768h-.771v-.768h.771zm100.916 0v.768h-.771v-.768h.771zm3.307.002v.764h-.768v-.764h.768zm-4.963 0v.764h-.768v-.764h.768zm11.579.001v.762h-.765v-.762h.765zm-92.644 0v.762h-.765v-.762h.765zm-1.654 0v.762h-.765v-.762h.765zm-4.963 0v.762h-.765v-.762h.765zm-8.275.003v.756h-.759v-.756h.759zm89.332.003v.75h-.753v-.75h.753zm14.884.005v.74h-.743v-.74h.743zm-8.256-1.661v.77h-.774v-.77h.774zm-86.026 0v.77h-.774v-.77h.774zm-1.655 0v.77h-.774v-.77h.774zm-1.654 0v.77h-.774v-.77h.774zm-1.655 0v.77h-.774v-.77h.774zm102.57 0v.77h-.774v-.77h.774zm-109.187 0v.77H9.82v-.77h.774zm107.533 0v.77h-.774v-.77h.774zm-6.617 0v.77h-.775v-.77h.775zm-1.655 0v.77h-.774v-.77h.774zm3.308.001v.767h-.772v-.767h.772zm-6.618 0v.767h-.771v-.767h.771zm-90.989 0v.767h-.772v-.767h.772zm-6.626.008v.752h-.755v-.752h.755zm3.309 0v.752h-.756v-.752h.757-.001zm104.221.003v.746h-.749v-.746h.749zm-102.572.003v.74h-.744v-.74h.744zm100.913.001v.737h-.74v-.737h.74zm-91.024.035v.668h-.671v-.668h.671zm80.979.085v.498h-.501v-.498h.501zm-85.89-1.783v.771h-.774v-.771h.774zm-8.272 0v.771H9.82v-.771h.774zm-1.654 0v.771h-.774v-.771h.774zm11.58 0v.771h-.774v-.771h.774zm1.655 0v.771h-.774v-.771h.774zm97.606 0v.771h-.774v-.771h.774zm-6.617 0v.771h-.774v-.771h.774zm-1.654 0v.771h-.775v-.771h.775zm-87.681 0v.771h-.774v-.771h.774zm86.026 0v.771h-.774v-.771h.774zm-1.654 0v.771h-.774v-.771h.774zm-1.654 0v.771h-.775v-.771h.775zm-1.655 0v.771h-.774v-.771h.774zm-89.335 0v.771h-.774v-.771h.774zm1.654 0v.771h-.774v-.771h.774zm97.606.002v.767h-.771v-.767h.771zm-100.916 0v.767h-.771v-.767h.771zm104.22.004v.759h-.762v-.759h.762zm-14.92.03v.699h-.701v-.699h.701zm-77.9.146v.407h-.41v-.407h.41zm92.826-1.828v.77h-.774v-.77h.774zm-102.57 0v.77h-.774v-.77h.774zm89.335 0v.77h-.774v-.77h.774zm1.655 0v.77h-.775v-.77h.775zm1.654 0v.77h-.774v-.77h.774zm1.654 0v.77h-.774v-.77h.774zm1.655 0v.77h-.775v-.77h.775zm-86.027 0v.77h-.774v-.77h.774zm-1.654 0v.77h-.774v-.77h.774zm-1.654 0v.77h-.774v-.77h.774zm-1.655 0v.77h-.774v-.77h.774zm-1.654 0v.77h-.774v-.77h.774zm-1.655 0v.77h-.774v-.77h.774zm-3.308 0v.77h-.774v-.77h.774zm-3.309 0v.77H9.82v-.77h.774zm102.57 0v.77h-.774v-.77h.774zm1.655 0v.77h-.775v-.77h.775zm4.961.001v.768h-.771v-.768h.771zm-16.544 0v.768h-.771v-.768h.771zm-94.311.014v.74h-.744v-.74h.744zm13.25-1.662v.771h-.774v-.771h.774zm4.963 0v.771h-.775v-.771h.775zm-1.655 0v.771h-.774v-.771h.774zm-1.654 0v.771h-.774v-.771h.774zm-6.618 0v.771h-.774v-.771h.774zm89.336 0v.771h-.775v-.771h.775zm8.272 0v.771h-.775v-.771h.775zm-1.655 0v.771h-.774v-.771h.774zm-1.654 0v.771h-.775v-.771h.775zm-95.953 0v.771h-.774v-.771h.774zm89.335 0v.771h-.774v-.771h.774zm-1.654 0v.771h-.774v-.771h.774zm-89.335 0v.771h-.774v-.771h.774zm105.877.002v.767h-.771v-.767h.771zm-9.926 0v.767h-.771v-.767h.771zm-100.918.001v.765h-.768v-.765h.769-.001zm11.58.002v.761h-.765v-.761h.765zm87.68 0v.761h-.765v-.761h.765zm-6.67.053v.655h-.659v-.655h.659zm-82.791.072v.511h-.513v-.511h.513zm87.812-1.776v.771h-.775v-.771h.775zm-90.99 0v.771h-.774v-.771h.774zm99.262 0v.771h-.775v-.771h.775zm-100.916 0v.771h-.774v-.771h.774zm99.261 0v.771h-.774v-.771h.774zm-1.654 0v.771h-.775v-.771h.775zm-94.299 0v.771h-.774v-.771h.774zm92.643.002v.767h-.771v-.767h.771zm-8.274.001v.764h-.768v-.764h.768zm-79.408 0v.764h-.769v-.764h.769zm1.651.003v.758h-.762v-.758h.762zm1.654 0v.758h-.762v-.758h.762zm74.446 0v.758h-.762v-.758h.762zm4.962.002v.755h-.759v-.755h.759zm-77.76.004v.746h-.749v-.746h.749zm76.092.009v.728h-.732v-.728h.732zm-84.482.109v.511h-.513v-.511h.513zm9.911.015v.481h-.482v-.481h.482zm79.304.104v.272h-.273v-.271h.273v-.001zM13.903 21.39v.77h-.774v-.77h.774zm99.261 0v.77h-.774v-.77h.774zm-95.952 0v.77h-.775v-.77h.775zm94.298 0v.77h-.775v-.77h.775zm-11.581 0v.77h-.774v-.77h.774zm-84.372 0v.77h-.774v-.77h.774zm87.681 0v.77h-.774v-.77h.774zm11.579.001v.768h-.771v-.768h.771zm-4.963 0v.768h-.771v-.768h.771zm-8.274.002v.764h-.768v-.764h.768zm-74.449.003v.758h-.761v-.758h.761zm1.655 0v.758h-.762v-.758h.762zm79.407.001v.755h-.759v-.755h.759zm-82.717 0v.755h-.759v-.755h.759zm-4.965.002v.752h-.756v-.752h.756zm-1.717.062v.628h-.631v-.629h.631v.001zm-1.583-1.718v.771h-.774v-.771h.774zm81.064 0v.771H97.5v-.771h.775zm-82.718 0v.771h-.774v-.771h.774zm95.953 0v.771h-.775v-.771h.775zm1.654 0v.771h-.774v-.771h.774zm-3.31.002v.767h-.771v-.767h.771zm-95.954.001v.765h-.768v-.765h.768zm86.026 0v.765h-.768v-.765h.768zm-77.756.002v.761h-.765v-.761h.765zm-1.656.001v.759h-.762v-.759h.762zm8.272 0v.759h-.762v-.759h.762zm79.407.002v.755h-.759v-.755h.759zm-1.657.003v.749h-.753v-.749h.753zm-76.102.001v.747h-.75v-.747h.75zm84.371.002v.743h-.747v-.743h.747zm-96.155.201v.341h-.343v-.341h.343zm94.514-1.861v.77h-.774v-.77h.774zm-1.654 0v.77h-.775v-.77h.775zm3.309 0v.77h-.775v-.77h.775zm-92.644 0v.77h-.774v-.77h.774zm-4.964 0v.77h-.774v-.77h.774zm-1.654 0v.77h-.774v-.77h.774zm90.988.001v.768h-.771v-.768h.771zm-1.656.002v.764h-.768V18.1h.768zm-81.066.003v.758h-.762v-.758h.762zm86.023.003v.752h-.756v-.752h.756zm-95.955.003v.746h-.75v-.746h.75zm94.182.115v.516h-.519v-.516h.519zm-87.706.025v.466h-.468v-.466h.468zm84.525-1.799v.771h-.774v-.771h.774zm-89.335 0v.771h-.774v-.771h.774zm95.953 0v.771h-.775v-.771h.775zm-89.335 0v.771h-.774v-.771h.774zm-4.964 0v.771h-.774v-.771h.774zm6.618 0v.771h-.774v-.771h.774zm82.718 0v.771h-.775v-.771h.775zm-3.311.002v.768h-.771v-.768h.771zm9.927 0v.768h-.772v-.768h.772zm-87.681 0v.768h-.772v-.768h.772zm79.41-1.648v.771h-.774v-.771h.774zm-79.409 0v.771h-.774v-.771h.774zm-1.654 0v.771h-.774v-.771h.774zm89.335 0v.771h-.774v-.771h.774zm-9.926 0v.771h-.774v-.771h.774zm3.309 0v.771h-.775v-.771h.775zm-89.337.001v.768h-.771v-.768h.771zm4.963 0v.768h-.771v-.768h.771zm-6.622.005v.759h-.762v-.759h.762zm11.576.005v.749h-.753v-.749h.753zm74.437.009v.731h-.735v-.731h.735zm9.918.007v.716h-.719v-.716h.719zm-9.898-1.673v.77h-.775v-.77h.775zm-77.755 0v.77h-.774v-.77h.774zm79.409 0v.77h-.774v-.77h.774zm-76.1 0v.77h-.775v-.77h.775zm77.754 0v.77h-.774v-.77h.774zm-79.409 0v.77h-.774v-.77h.774zm81.064 0v.77h-.775v-.77h.775zm-89.336 0v.77h-.774v-.77h.774zm94.297.001v.768h-.771v-.768h.771zm-89.343.008v.752h-.755v-.752h.755zm-6.749.131v.49h-.492v-.49h.492zm84.332.039v.411h-.412v-.411h.412zm5.144-1.826v.771h-.774v-.771h.774zm-1.654 0v.771h-.774v-.771h.774zm-1.654 0v.771h-.775v-.771h.775zm-76.101 0v.771h-.774v-.771h.774zm1.655 0v.771h-.775v-.771h.775zm1.654 0v.771h-.774v-.771h.774zm-4.966.003v.765h-.768v-.765h.768zm76.094.006v.753h-.756v-.753h.756zm-82.957.239v.275h-.277v-.275h.277zm94.29.007v.26h-.261v-.26h.261zm-6.361-1.901v.77h-.774v-.77h.774zm-4.963 0v.77h-.774v-.77h.774zm-72.791 0v.77h-.775v-.77h.775zm74.446 0v.77h-.775v-.77h.775zm-76.101 0v.77h-.774v-.77h.774zm-1.654 0v.77h-.774v-.77h.774zm4.961.001v.768h-.771v-.768h.771zm74.446 0v.768h-.771v-.768h.771zm-1.652-1.647v.77h-.775v-.77h.775zm-1.655 0v.77h-.774v-.77h.774zm-1.654 0v.77H97.5v-.77h.775zm-69.483 0v.77h-.774v-.77h.774zm-1.654 0v.77h-.775v-.77h.775zm-1.658.002v.765h-.768v-.765h.768zm4.963 0v.765h-.768v-.765h.768zm72.786.007v.752h-.756v-.752h.756zm-3.3-1.656v.771h-.774v-.771h.774zm-72.791 0v.771h-.775v-.771h.775zm1.654 0v.771h-.774v-.771h.774zm69.48.003v.765h-.768v-.765h.768zm3.299.009v.746h-.75v-.746h.75zm-71.141.005v.737h-.741v-.737h.741zm67.845-1.663v.77H97.5v-.77h.775zm1.654 0v.77h-.774v-.77h.774zm-69.484.001v.768h-.772v-.768h.772zm-1.665.011v.746h-.75v-.746h.75zm67.825.003v.74h-.744v-.74h.744zm-64.74.219v.302h-.303V5.16h.303zM96.62 3.279v.771h-.774v-.771h.774zm-66.184.011v.749h-.753V3.29h.753zm1.652.001v.747h-.75v-.747h.75zm66.173.002v.743h-.747v-.743h.747zm-66.16-1.66v.77h-.775v-.77h.775zm64.501.018v.734h-.738v-.734h.738zM33.741 0v.743h-.747V0h.747zm61.201.011v.722h-.726V.011h.726z"/></svg>