<svg xmlns="http://www.w3.org/2000/svg" fill-rule="evenodd" clip-rule="evenodd" viewBox="0 0 128 128"><path fill="none" stroke="#fff" stroke-width=".22" stroke-opacity="0.2" d="M16.885 105.758l.005.006.004.006a.292.292 0 01.02.039l.002.006.002.004v.001l.006.009.02.014.004.003c.015.01.045.03.069.06 11.093 12.425 27.024 20.427 44.804 21.037l.043.002.002.002 1.182.031h0c.319.011.634.022.952.022.264 0 .526-.007.791-.015l.164-.005 1.182-.031.001-.002.043-.001c17.761-.609 33.675-8.596 44.768-20.995a.488.488 0 01.077-.072l.006-.005a.228.228 0 00.047-.045l.002-.004v-.002c.003-.008.011-.031.025-.053l.004-.006.005-.006C120.987 94.633 127 80.008 127 64c0-16.655-6.508-31.81-17.103-43.085a.079.079 0 01-.012-.015l-.003-.002-.018-.018C98.83 9.152 83.372 1.645 66.179 1.057l-.043-.002-.002-.002-1.182-.031h0C64.634 1.011 64.318 1 64 1c-.318 0-.633.011-.952.022h0l-1.187.031-.002.002-.042.002c-17.192.588-32.649 8.094-43.683 19.82l-.015.017-.001.001-.017.017C7.508 32.19 1 47.344 1 64c0 16.008 6.013 30.633 15.885 41.758zm93.008-84.852c0 .001.001.001 0 0h0zM96.476 66.068h26.338l-.004.112c-.497 13.539-5.581 25.925-13.75 35.642l-.063.074-.081-.054a80.078 80.078 0 00-17.627-8.978l-.104-.038.04-.102a80.336 80.336 0 005.248-26.551l.003-.105zm11.253-41.279l.078-.051.062.069c8.865 9.909 14.42 22.826 14.941 37.013l.004.112H96.476l-.003-.105c-.265-9.911-2.299-19.533-5.976-28.458l-.044-.106.108-.038a79.93 79.93 0 0017.168-8.436zM31.524 61.932H5.186l.004-.112c.521-14.187 6.076-27.104 14.941-37.013l.062-.069.078.051a79.93 79.93 0 0017.168 8.436l.108.038-.044.106c-3.677 8.925-5.711 18.547-5.976 28.458l-.003.105zm34.655-28.37l-.111.003V6.407l.179.157c7.806 6.81 14.043 14.988 18.461 24.05l.057.117-.125.035a76.209 76.209 0 01-18.461 2.796zm-.111 28.37V37.7l.105-.003a80.252 80.252 0 0020.224-3.125l.093-.027.037.09c3.555 8.521 5.542 17.711 5.81 27.186l.003.111H66.068zm-4.241-24.235l.105.003v24.232H35.657l.004-.111c.268-9.475 2.255-18.665 5.809-27.186l.038-.09.093.027a80.191 80.191 0 0020.226 3.125zm.105-31.29v27.158l-.111-.003a76.209 76.209 0 01-18.461-2.796l-.124-.035.056-.117c4.418-9.062 10.655-17.24 18.461-24.05l.179-.157zM39.27 29.385l-.042.087-.091-.031a75.818 75.818 0 01-15.898-7.665l-.116-.074.099-.095c8.847-8.511 20.334-14.285 33.102-15.955l.329-.043-.241.229c-7.174 6.831-12.967 14.8-17.142 23.547zm49.593.056l-.091.031-.042-.087c-4.175-8.747-9.968-16.716-17.145-23.547l-.24-.229.329.043c12.767 1.67 24.257 7.444 33.102 15.955l.099.095-.116.074a75.755 75.755 0 01-15.896 7.665zM66.068 66.068H92.34l-.003.111a76.116 76.116 0 01-5.036 25.234l-.036.093-.096-.028c-6.768-2.037-13.809-3.158-20.996-3.349l-.105-.003V66.068zm0 55.525V92.261l.111.003a76.033 76.033 0 0119.361 3.053l.119.036-.051.113c-4.455 9.824-11.006 18.681-19.361 25.97l-.179.157zm-4.136-29.332v29.332l-.179-.157c-8.355-7.289-14.906-16.146-19.361-25.972l-.051-.114.119-.035a76.031 76.031 0 0119.361-3.051l.111-.003zm0-26.193v22.058l-.105.003c-7.187.191-14.229 1.312-20.993 3.351l-.097.029-.036-.094a76.09 76.09 0 01-5.038-25.236l-.003-.111h26.272zm-56.746 0h26.338l.003.105a80.285 80.285 0 005.248 26.551l.04.102-.104.038a80.078 80.078 0 00-17.627 8.978l-.081.054-.063-.074C10.769 92.105 5.687 79.719 5.19 66.18l-.004-.112zm100.893 38.853l.109.073-.091.093c-9.008 9.227-21.01 15.506-34.421 17.261l-.329.043.241-.229A80.196 80.196 0 0089.562 96.74l.041-.092.095.034a75.953 75.953 0 0116.381 8.239zm-49.667 17.241l.241.229-.329-.043c-13.411-1.755-25.412-8.034-34.421-17.261l-.091-.093.109-.073a75.999 75.999 0 0116.381-8.239l.095-.034.041.092a80.152 80.152 0 0017.974 25.422z"/></svg>