<svg xmlns="http://www.w3.org/2000/svg" fill="none" viewBox="0 0 93 18">
  <path fill="#231F20" fill-rule="evenodd" d="M36.483 8.527a1.34 1.34 0 100 2.68 1.34 1.34 0 000-2.68zm54.525-.983c.878 0 1.52.492 1.942.983V6.153c-.69-.468-1.522-.655-2.245-.655-2.221 0-4.151 1.59-4.151 4.326 0 2.62 1.754 4.328 4.186 4.328.701 0 1.473-.106 2.21-.608v-2.329c-.421.434-1.087.89-1.942.89-1.31 0-2.093-.97-2.093-2.21 0-1.345.83-2.35 2.093-2.35zm-4.203-1.812h-2.69L81.647 9.17V5.732h-2.29v8.186h2.29v-3.52l2.374 3.52h2.866l-3.193-4.222 3.111-3.964zm-14.217 4.912V5.732h-2.21v8.186h2.246l3.169-4.912v4.912h2.21V5.732h-2.246l-3.169 4.912zm-6.64-1.229h-.655V7.533h.654c.983 0 1.122.526 1.122.935 0 .35-.105.947-1.122.947zm.501-3.683H63v8.186h2.293v-2.703h1.156c2.316 0 2.983-1.612 2.983-2.747 0-1.123-.655-2.736-2.983-2.736zM56.172 7.696h1.8v6.222h2.292V7.696h1.8V5.732h-5.892v1.964zm-6.35 2.948V5.732h-2.21v8.186h2.246l3.167-4.912v4.912h2.21V5.732h-2.244l-3.17 4.912zm-6.83 1.636h-.981v-1.72h.982c.725 0 1.146.211 1.146.855 0 .654-.432.864-1.146.864zm.224-3.356H42.01V7.696h3.753V5.732H39.72v8.186h3.496c.596 0 3.216.023 3.216-2.538 0-2.468-2.596-2.456-3.215-2.456zm-16.325.9c0 2.62 1.754 4.328 4.186 4.328.703 0 1.474-.106 2.211-.608v-2.329c-.422.434-1.088.89-1.942.89-1.31 0-2.093-.97-2.093-2.21 0-1.345.83-2.35 2.093-2.35.877 0 1.52.491 1.942.982V6.153c-.691-.468-1.52-.655-2.246-.655-2.222 0-4.15 1.59-4.15 4.326zm-4.798-2.21h1.252v6.304h2.117V5.732h-3.37v1.883z" clip-rule="evenodd"/>
  <path fill="#D91935" fill-rule="evenodd" d="M9 0c-.671 0-1.323.075-1.951.215v8.791a1.96 1.96 0 001.956 1.956 1.96 1.96 0 001.955-1.955 1.96 1.96 0 00-1.825-1.952V5.489a3.527 3.527 0 013.39 3.518 3.527 3.527 0 01-3.52 3.52 3.527 3.527 0 01-3.52-3.52V.711c-.223.095-.44.2-.653.312v7.982a4.18 4.18 0 004.173 4.172 4.18 4.18 0 004.171-4.171 4.18 4.18 0 00-4.041-4.17V3.272a5.747 5.747 0 015.605 5.735 5.746 5.746 0 01-5.735 5.736 5.747 5.747 0 01-5.738-5.737V2.062A9 9 0 109 0z" clip-rule="evenodd"/>
</svg>
