<svg xmlns="http://www.w3.org/2000/svg" fill="none" viewBox="0 0 104 20">
  <path fill="#3C8BD9" d="M6.704 2.266c.19-.5.452-.96.84-1.332 1.556-1.516 4.127-1.135 5.182.77.793 1.443 1.634 2.855 2.451 4.283l4.094 7.125c1.135 1.992-.095 4.507-2.348 4.848-1.38.206-2.674-.429-3.388-1.666l-3.602-6.252a.718.718 0 00-.087-.127c-.127-.103-.183-.254-.262-.389l-2.65-4.594a3.285 3.285 0 01-.436-1.745c.023-.318.063-.635.206-.92z"/>
  <path fill="#FABC04" d="M6.704 2.267a4.562 4.562 0 00-.15.872 3.427 3.427 0 00.475 1.865l2.61 4.514c.08.135.143.27.223.397l-1.436 2.467-2.008 3.46c-.031 0-.04-.017-.047-.04-.008-.064.016-.12.031-.183.326-1.19.056-2.245-.761-3.15-.5-.547-1.135-.856-1.865-.96-.952-.134-1.793.112-2.546.707-.135.103-.223.254-.381.333-.032 0-.048-.016-.056-.04l1.135-1.975 4.72-8.18c.016-.032.04-.056.056-.087z"/>
  <path fill="#34A852" d="M.825 12.533l.452-.405c1.928-1.523 4.824-.42 5.244 1.992a3.484 3.484 0 01-.126 1.69.83.83 0 01-.032.134c-.072.127-.135.262-.214.39-.707 1.166-1.746 1.745-3.11 1.657-1.563-.11-2.793-1.285-3.007-2.84a3.174 3.174 0 01.436-2.11c.08-.143.174-.27.262-.413.04-.032.024-.095.095-.095z"/>
  <path fill="#FABC04" d="M.825 12.533c-.032.032-.032.087-.087.095-.008-.055.023-.087.055-.127l.032.032z"/>
  <path fill="#E1C025" d="M6.363 15.944c-.032-.055 0-.095.032-.134l.031.031-.063.104z"/>
  <path fill="#757575" d="M34.16 4.314c-3.334 0-6.107 2.685-6.107 5.99 0 3.304 2.773 5.959 6.107 5.959 1.8 0 3.127-.59 4.189-1.682 1.092-1.091 1.416-2.596 1.416-3.806 0-.383-.03-.737-.088-1.032H34.16v1.622h3.924c-.119.915-.414 1.594-.886 2.066-.56.56-1.475 1.21-3.038 1.21-2.42 0-4.308-1.948-4.308-4.338s1.888-4.337 4.308-4.337c1.298 0 2.271.502 2.95 1.18l1.15-1.15c-.973-.944-2.271-1.682-4.1-1.682zm10 4.278c-2.095 0-3.835 1.623-3.835 3.894 0 2.243 1.71 3.895 3.835 3.895 2.124 0 3.835-1.652 3.835-3.895 0-2.242-1.74-3.894-3.835-3.894zm0 6.255c-1.15 0-2.154-.974-2.154-2.36 0-1.387 1.004-2.36 2.154-2.36s2.154.943 2.154 2.36c0 1.386-1.003 2.36-2.154 2.36zm8.32-6.255c-2.124 0-3.836 1.623-3.836 3.894 0 2.243 1.712 3.895 3.836 3.895 2.094 0 3.835-1.652 3.835-3.895 0-2.242-1.711-3.894-3.835-3.894zm0 6.255c-1.15 0-2.154-.974-2.154-2.36 0-1.387 1.003-2.36 2.154-2.36 1.15 0 2.154.943 2.154 2.36 0 1.386-.974 2.36-2.154 2.36zm8.29-6.255c-1.918 0-3.658 1.682-3.658 3.865 0 2.154 1.74 3.835 3.658 3.835.915 0 1.623-.413 2.006-.885h.06v.56c0 1.476-.768 2.272-2.036 2.272-1.033 0-1.653-.737-1.918-1.357l-1.475.62c.413 1.033 1.534 2.272 3.393 2.272 1.976 0 3.628-1.18 3.628-4.013V8.858h-1.593v.62h-.059c-.383-.473-1.091-.886-2.006-.886zm.148 6.196c-1.151 0-2.125-.974-2.125-2.331s.974-2.36 2.125-2.36c1.15 0 2.035 1.003 2.035 2.36s-.885 2.33-2.035 2.33zm4.75-10.002h1.681v11.388H65.67V4.786zm6.195 3.806c-2.006 0-3.688 1.564-3.688 3.894 0 2.184 1.652 3.895 3.865 3.895 1.8 0 2.832-1.092 3.245-1.711l-1.327-.885c-.443.649-1.062 1.062-1.918 1.062-.885 0-1.504-.384-1.888-1.18l5.222-2.154-.177-.443c-.325-.855-1.328-2.478-3.334-2.478zm-2.006 3.776c-.06-1.504 1.18-2.271 2.036-2.271.678 0 1.268.324 1.445.826l-3.481 1.445zm9.663 4.142l3.894-10.355h1.505l3.894 10.356h-1.475l-1.003-2.803h-4.337l-1.003 2.803H79.52zm2.92-4.041h3.452l-1.681-4.661h-.06l-1.71 4.661zm7.73 3.186c-.649-.737-.974-1.622-.974-2.684 0-1.033.325-1.918.974-2.685.679-.738 1.446-1.092 2.39-1.092a3.13 3.13 0 011.416.325c.442.236.767.501 1.003.885h.06l-.06-.974V6.155h1.328v10.356h-1.269v-.974h-.059c-.236.354-.56.65-1.003.885-.443.236-.915.325-1.416.325-.944 0-1.74-.354-2.39-1.092zm4.19-.826c.442-.472.649-1.091.649-1.858 0-.738-.207-1.357-.65-1.83-.412-.472-.944-.708-1.593-.708s-1.18.236-1.593.708c-.442.473-.649 1.092-.649 1.83 0 .737.207 1.357.65 1.829.442.472.973.708 1.592.708.65.03 1.18-.207 1.593-.679zm8.083 1.269c-.531.413-1.209.649-2.035.649-.709 0-1.328-.177-1.889-.56a3.159 3.159 0 01-1.15-1.476l1.18-.501c.177.413.413.767.767 1.003.325.236.708.354 1.092.354.413 0 .767-.089 1.062-.266.295-.177.413-.413.413-.649 0-.442-.354-.796-1.033-1.003l-1.21-.295c-1.386-.354-2.065-1.003-2.065-2.006 0-.65.266-1.15.797-1.564.53-.383 1.21-.59 2.006-.59a3.44 3.44 0 011.711.443c.502.295.856.708 1.062 1.21l-1.18.5a1.664 1.664 0 00-.649-.707 1.992 1.992 0 00-1.032-.266c-.355 0-.65.089-.945.266-.265.177-.413.383-.413.649 0 .413.384.708 1.151.856l1.062.265c1.416.354 2.095 1.062 2.095 2.124.029.62-.266 1.15-.797 1.564z"/>
</svg>
