<svg xmlns="http://www.w3.org/2000/svg" fill="none" viewBox="0 0 88 32">
  <path fill="#000" d="M43.998 16.337v1.076c-.699.391-1.506.587-2.422.587-.744 0-1.375-.153-1.893-.46a3.345 3.345 0 01-1.23-1.267A3.51 3.51 0 0138 14.527c0-.995.345-1.831 1.035-2.51.693-.678 1.546-1.017 2.56-1.017.7 0 1.477.188 2.332.563v1.051c-.779-.456-1.54-.685-2.284-.685-.763 0-1.397.248-1.903.744-.502.492-.753 1.11-.753 1.854 0 .75.248 1.366.744 1.849.496.483 1.13.724 1.902.724.808 0 1.596-.254 2.365-.763zm1.183-5.249h.954v6.834h-.954v-6.834zm7.725 0h.906v6.834h-.82l-4.454-5.259v5.259h-.897v-6.834h.773l4.492 5.303v-5.303zm2.336 0h3.777v.87h-2.823v2.085h2.727v.875h-2.727v2.123h2.913v.871h-3.867v-6.824zm10.185 0h.887v6.834h-.958v-5.318l-2.05 2.642h-.177l-2.07-2.642v5.318h-.953v-6.834h.896l2.217 2.808 2.208-2.808zm4.453-.039h.673l2.98 6.873h-.977l-.887-2.025h-2.833l-.839 2.025h-.977l2.86-6.873zm1.398 3.977l-1.073-2.475-.997 2.475h2.07zM79.718 11h.39v3.835h.744v.832h-.743v2.255h-.93v-2.255H76.36v-.421L79.717 11zm-.54 3.835v-1.981l-1.54 1.981h1.54zm2.7 3.077v-6.824h2.245c.906 0 1.623.14 2.15.42.529.278.948.687 1.26 1.229a3.49 3.49 0 01.467 1.77c0 .457-.086.894-.257 1.311a3.315 3.315 0 01-.735 1.1c-.324.327-.7.573-1.13.74-.251.1-.481.17-.691.205-.21.033-.61.049-1.202.049h-2.107zm2.145-5.953h-1.192v5.082h1.22c.478 0 .848-.032 1.112-.098a2.65 2.65 0 00.658-.254c.178-.104.34-.232.486-.381.47-.49.706-1.108.706-1.854 0-.734-.242-1.333-.725-1.796a2.298 2.298 0 00-.615-.425 2.482 2.482 0 00-.653-.22c-.207-.036-.539-.054-.997-.054z"/>
  <path fill="#020518" d="M22.227 3.974L13.195 2.79 6.26 6.85l-2.38 5.244 3.496 8.119 6.259 4.5 7.882.067 4.195-3.924 1.573-5.858-.457-5.577-.88-2.131-3.72-3.316z"/>
  <path fill="#020518" d="M21.221 2.551s4.613.868 6.642 6.349l-1.5.35-5.638-5.774.496-.925z"/>
  <path fill="url(#paint0_linear)" d="M13.963 9.147c-2.564 1.432-4.034 6.744-.582 9.266 3.445 2.5 7.904 1.292 9.53-3.659 1.627-4.95 3.177-5.115 3.177-5.115l.585-.573c-1.47-4.212-5.15-5.414-5.15-5.414-.641 2.91-5.004 4.077-7.56 5.495z"/>
  <path fill="#000" d="M2.828 18.806s2.74 7.07 10.758 8.83c8.018 1.76 14.75-10.352 14.75-10.352l-.001.002c-.5.565-1.062 1.081-1.635 1.571-1.241 1.06-2.61 1.99-4.093 2.68-.751.35-1.524.656-2.332.847-2.508.594-5.172.13-7.386-1.171a10.462 10.462 0 01-2.232-1.762c-1.7-1.767-2.767-4.157-2.927-6.606a12.493 12.493 0 01.467-4.251c.01-.034.074-.334.112-.343C3.2 9.47 2.829 18.806 2.829 18.806z"/>
  <g filter="url(#filter0_d)">
    <path fill="#fff" d="M21.52 3.648s.548-1.046-.523-1.768C19.927 1.158 10.72-.993 5.15 6.046c-1.442 1.823-2.466 3.965-2.904 6.252a14.162 14.162 0 00.24 6.3c.54 2.02 1.516 3.936 2.879 5.526 1.558 1.819 3.612 3.205 5.859 4.024.636.232 1.288.419 1.95.556 2.534.529 5.212.345 7.652-.519.43-.152.849-.338 1.258-.538 1.85-.906 3.456-2.253 4.723-3.873.314-.403.608-.821.882-1.253 2.012-3.172 3.203-7.719 1.135-12.863 0 0-.58-1.396-2.286-.544-.747.374-1.532 4.027-1.663 5.836-.13 1.81-1.56 9.35-7.905 11.47-6.345 2.118-13.538-2.775-12.593-10.564.944-7.788 9.256-9.433 13.28-10.13 4.025-.696 3.863-2.078 3.863-2.078z"/>
  </g>
  <path fill="url(#paint1_linear)" d="M13.71 6.301c-2.316.609-5.968 2.084-8.331 5.594-2.34 3.488-1.24 7.724-1.24 7.724s.303 2.13 2.808 4.891c2.504 2.739 8.87 4.096 12.896.843 4.002-3.253 4.727-7.443 5.219-10.04.468-2.599.749-4.143 1.123-5.173.352-1.03 1.1-1.264 1.1-1.264-1.849-.117-1.919 3.51-2.785 7.7-.842 4.166-4.119 11.07-11.351 10.345-7.255-.702-9.01-7.466-9.01-9.128 0-10.766 11.889-11.632 14.65-12.264 2.786-.632 2.739-1.872 2.739-1.872C20.38 5.2 16.028 5.693 13.71 6.3z"/>
  <defs>
    <linearGradient id="paint0_linear" x1="22.487" x2="14.773" y1="4.374" y2="18.718" gradientUnits="userSpaceOnUse">
      <stop stop-color="#FDFDFE"/>
      <stop offset=".15" stop-color="#6472EB"/>
      <stop offset=".52" stop-color="#2D39A1"/>
      <stop offset="1" stop-color="#6070D7"/>
    </linearGradient>
    <linearGradient id="paint1_linear" x1="3.881" x2="27.285" y1="15.454" y2="15.454" gradientUnits="userSpaceOnUse">
      <stop stop-color="#D4D6E5"/>
      <stop offset=".53" stop-color="#CED0E1"/>
      <stop offset="1" stop-color="#F3F3F8"/>
    </linearGradient>
    <filter id="filter0_d" width="31.905" height="32" x="0" y="0" color-interpolation-filters="sRGB" filterUnits="userSpaceOnUse">
      <feFlood flood-opacity="0" result="BackgroundImageFix"/>
      <feColorMatrix in="SourceAlpha" values="0 0 0 0 0 0 0 0 0 0 0 0 0 0 0 0 0 0 127 0"/>
      <feOffset dy="1"/>
      <feGaussianBlur stdDeviation="1"/>
      <feColorMatrix values="0 0 0 0 0 0 0 0 0 0 0 0 0 0 0 0 0 0 0.25 0"/>
      <feBlend in2="BackgroundImageFix" result="effect1_dropShadow"/>
      <feBlend in="SourceGraphic" in2="effect1_dropShadow" result="shape"/>
    </filter>
  </defs>
</svg>
