<svg xmlns="http://www.w3.org/2000/svg" viewBox="0 0 334 192" fill="none"><path d="M20.584 127.186H4.594V2.394h12.371v25.608h28.117V2.394h12.372v62.723H45.082V38.038H16.965v26.424h12.026c2.768 0 5.508.26 8.219.78 2.71.46 5.133 1.326 7.267 2.594a14.207 14.207 0 015.277 5.018c1.385 2.077 2.077 4.73 2.077 7.96 0 1.5-.23 2.941-.693 4.326a16.571 16.571 0 01-1.643 3.72 18.275 18.275 0 01-2.336 3.114c-.807.865-1.615 1.557-2.423 2.077a21.099 21.099 0 013.461 2.076 11.82 11.82 0 013.028 2.855c.865 1.154 1.557 2.538 2.076 4.153.52 1.557.779 3.403.779 5.537 0 3.403-.663 6.286-1.99 8.651a16.417 16.417 0 01-5.19 5.71c-2.192 1.442-4.76 2.509-7.7 3.201-.376.083-.754.16-1.135.232.983.219 1.94.485 2.865.8 3.057.981 5.739 2.423 8.046 4.326 2.306 1.846 4.181 4.095 5.623 6.748 1.5 2.596 2.509 5.537 3.028 8.825H45.861c-.576-2.192-1.384-4.009-2.422-5.451-.98-1.5-2.134-2.711-3.461-3.633-1.269-.923-2.71-1.558-4.326-1.904a19.614 19.614 0 00-4.931-.605c-2.364 0-4.585.49-6.662 1.47-2.018.923-3.777 2.336-5.277 4.24-1.5 1.903-2.682 4.239-3.547 7.007-.865 2.769-1.298 5.97-1.298 9.604 0 3.749.433 7.065 1.298 9.949.865 2.826 2.019 5.22 3.46 7.181 1.5 1.903 3.23 3.344 5.191 4.325a14.464 14.464 0 006.402 1.471c1.846 0 3.606-.202 5.278-.606 1.673-.461 3.173-1.153 4.498-2.076 1.385-.981 2.568-2.22 3.548-3.72s1.73-3.317 2.25-5.45h11.765c-.403 3.171-1.355 6.085-2.855 8.738a23.508 23.508 0 01-5.71 6.921c-2.365 1.903-5.132 3.403-8.305 4.499-3.115 1.038-6.546 1.557-10.296 1.557-4.671 0-8.824-.75-12.458-2.25-3.633-1.557-6.719-3.749-9.257-6.575-2.48-2.884-4.383-6.345-5.71-10.382-1.268-4.037-1.903-8.565-1.903-13.582 0-4.961.692-9.431 2.076-13.41 1.384-3.98 3.345-7.354 5.883-10.122 2.596-2.769 5.71-4.903 9.344-6.403.7-.284 1.416-.542 2.148-.772zM200.76 65.117h-12.325l-20.937-31.491h-.086v30.836h3.579v10.036h-33.308v15.573h31.491v10.036h-31.491v17.043h33.308v10.036h-25.187l23.314 62.371h-13.41l-4.412-12.718h-24.398l-4.412 12.718h-12.631l23.228-62.371h-7.772V65.117h-5.223l21.802-33.048-20.937-29.675h13.842l20.158 29.761h.087V2.394h12.372v29.761h.086l20.158-29.761h13.583l-20.591 29.761 21.37 32.307h6.79V2.394h12.372v25.608h28.117V2.394h12.372v62.723h-8.048v62.069h-11.68v-45.68l-29.501 45.68h-5.781c2.45.74 4.58 1.777 6.39 3.108 1.961 1.442 3.461 3.231 4.499 5.364 1.096 2.077 1.644 4.442 1.644 7.094-.058 3.115-.865 5.797-2.423 8.046-1.557 2.192-3.72 4.009-6.488 5.451 3.114 1.038 5.623 2.739 7.527 5.104 1.903 2.365 2.855 5.681 2.855 9.949 0 3.404-.693 6.345-2.077 8.825a16.917 16.917 0 01-5.45 5.969c-2.25 1.558-4.874 2.712-7.873 3.461-2.942.75-5.999 1.125-9.171 1.125-3.922 0-7.383-.49-10.382-1.471-2.941-1.038-5.479-2.48-7.613-4.326a21.235 21.235 0 01-4.931-6.748c-1.211-2.595-1.99-5.45-2.336-8.565h11.852c.52 3.691 1.961 6.518 4.326 8.479 2.423 1.903 5.508 2.855 9.257 2.855 3.807 0 6.719-.866 8.738-2.596 2.077-1.73 3.115-4.153 3.115-7.267 0-2.769-1.009-4.902-3.028-6.402-2.019-1.558-4.932-2.336-8.738-2.336h-7.44v-10.036h6.748c3.172 0 5.767-.692 7.786-2.076 2.076-1.384 3.144-3.374 3.201-5.97-.057-2.941-1.095-5.104-3.114-6.488-1.961-1.442-4.442-2.163-7.441-2.163-1.673 0-3.258.259-4.758.778a12.277 12.277 0 00-3.98 2.25 12.285 12.285 0 00-2.855 3.547c-.749 1.384-1.154 2.971-1.211 4.758h-11.852c.288-3.057 1.067-5.883 2.335-8.478a21.268 21.268 0 015.278-6.662c2.192-1.903 4.787-3.374 7.786-4.412 3.057-1.038 6.46-1.557 10.209-1.557 1.283 0 2.522.061 3.716.184V65.117zm29.584 125.565v-10.036h6.402c1.673 0 3.028-.23 4.066-.692 1.039-.462 1.99-1.355 2.855-2.682l.952-1.471-22.926-48.967h13.496l15.746 36.163 14.102-36.163h13.583L256.3 177.618c-.865 2.019-1.846 3.836-2.942 5.45a16.98 16.98 0 01-3.807 4.067c-1.441 1.154-3.143 2.019-5.104 2.595-1.903.635-4.153.952-6.748.952h-7.354zM76.32 66.242h-3.915V56.206h6.402c1.673 0 3.028-.231 4.066-.692 1.038-.462 1.99-1.356 2.855-2.682l.952-1.47L63.754 2.393H77.25l15.746 36.163 14.102-36.163h13.582L98.36 53.178c-.866 2.018-1.845 3.835-2.942 5.45a16.988 16.988 0 01-3.807 4.067c-.283.226-.577.443-.882.647 3.47.051 6.655.568 9.554 1.553 3.057.98 5.739 2.422 8.046 4.326 2.307 1.846 4.182 4.095 5.623 6.748 1.5 2.595 2.509 5.537 3.028 8.825h-11.766c-.576-2.193-1.384-4.01-2.422-5.451-.981-1.5-2.134-2.711-3.46-3.634-1.27-.922-2.71-1.557-4.326-1.903a19.595 19.595 0 00-4.932-.605c-2.364 0-4.585.49-6.661 1.47-2.018.923-3.778 2.336-5.278 4.24-1.499 1.903-2.682 4.239-3.547 7.007-.865 2.769-1.298 5.97-1.298 9.603 0 3.75.433 7.065 1.298 9.95.865 2.825 2.02 5.22 3.46 7.18 1.5 1.904 3.23 3.345 5.192 4.326a14.464 14.464 0 006.402 1.471c1.846 0 3.605-.202 5.277-.606 1.673-.462 3.173-1.154 4.499-2.076 1.384-.981 2.566-2.22 3.547-3.72.981-1.5 1.73-3.317 2.249-5.451h11.766c-.403 3.172-1.355 6.085-2.855 8.738a23.474 23.474 0 01-5.71 6.921c-2.365 1.904-5.133 3.404-8.305 4.499-.84.28-1.703.522-2.59.727.917.149 1.816.338 2.699.565a23.926 23.926 0 015.796 2.076 15.327 15.327 0 014.672 3.72c1.327 1.5 2.365 3.375 3.114 5.624.808 2.249 1.212 4.96 1.212 8.132 0 3.98-.75 7.268-2.25 9.863-1.441 2.595-3.431 4.643-5.969 6.143-2.48 1.441-5.364 2.451-8.652 3.028-3.287.576-6.748.865-10.382.865h-9.43v22.061H65.96v-62.723H79.48a26.702 26.702 0 01-2.124-.773c-3.634-1.557-6.72-3.749-9.258-6.575-2.48-2.884-4.383-6.345-5.71-10.382-1.268-4.037-1.903-8.565-1.903-13.583 0-4.96.692-9.43 2.077-13.41 1.384-3.98 3.345-7.353 5.882-10.122 2.239-2.388 4.863-4.303 7.875-5.747zm215.032 123.315V176.58h12.805v12.977h-12.805zm10.036-63.848c2.653 0 5.22.317 7.7.952 2.538.634 4.787 1.614 6.748 2.941a14.96 14.96 0 014.758 4.932c1.212 1.96 1.817 4.296 1.817 7.007 0 2.019-.317 3.836-.952 5.451a17.504 17.504 0 01-2.508 4.412 22.408 22.408 0 01-3.461 3.547 32.394 32.394 0 01-3.72 2.509 72.691 72.691 0 00-3.634 2.249c-1.038.693-1.903 1.471-2.595 2.336-.635.808-1.125 1.76-1.471 2.855-.289 1.096-.433 2.423-.433 3.98v2.682h-11.679v-2.942c0-2.133.202-3.979.605-5.537.404-1.614.981-3.028 1.731-4.239a14.943 14.943 0 012.941-3.374c1.154-.981 2.48-1.903 3.98-2.768 2.711-1.615 4.902-3.201 6.575-4.759 1.73-1.614 2.596-3.547 2.596-5.796 0-1.154-.26-2.163-.779-3.028a7.32 7.32 0 00-2.076-2.336 10.045 10.045 0 00-2.942-1.471 11.134 11.134 0 00-3.374-.519c-3.172 0-5.854.923-8.046 2.769-2.134 1.787-3.258 4.758-3.374 8.911h-11.766c0-3.172.576-6.027 1.73-8.565 1.211-2.596 2.855-4.788 4.932-6.576 2.076-1.787 4.528-3.171 7.353-4.152 2.885-.981 5.999-1.471 9.344-1.471zm-170.941 41.008h17.303l-8.652-24.743-8.651 24.743zM78.33 136.523v21.37h10.21c1.902 0 3.691-.144 5.363-.433 1.673-.289 3.115-.808 4.326-1.557a7.65 7.65 0 002.941-3.115c.75-1.327 1.125-3.028 1.125-5.104 0-2.596-.462-4.615-1.384-6.056-.865-1.5-2.018-2.625-3.46-3.374-1.385-.75-2.942-1.212-4.673-1.385a38.712 38.712 0 00-5.104-.346H78.33zm-61.365-19.027h13.67c3.633 0 6.344-.749 8.132-2.249 1.788-1.5 2.682-3.691 2.682-6.575 0-2.942-.923-5.162-2.769-6.662-1.845-1.557-4.7-2.336-8.565-2.336h-13.15v17.822zm232.333-53.034V38.038h-28.117v27.08h-8.74v45.024l29.501-45.68h7.356zM16.965 90.33H29.77c2.942 0 5.22-.692 6.835-2.076 1.673-1.384 2.509-3.46 2.509-6.229 0-2.48-.836-4.412-2.509-5.797-1.672-1.384-3.95-2.076-6.835-2.076H16.965V90.33zm316.118-56.618c0 4.845-.722 9.286-2.163 13.324-1.442 3.98-3.518 7.41-6.229 10.295-2.653 2.826-5.883 5.018-9.69 6.575-3.749 1.557-7.959 2.336-12.631 2.336-4.672 0-8.911-.779-12.718-2.336-3.749-1.557-6.978-3.75-9.69-6.575-2.652-2.884-4.7-6.316-6.142-10.295-1.442-4.038-2.163-8.479-2.163-13.324 0-4.844.721-9.257 2.163-13.236 1.442-4.038 3.49-7.47 6.142-10.296 2.712-2.826 5.941-5.018 9.69-6.575 3.807-1.557 8.046-2.336 12.718-2.336 4.672 0 8.882.779 12.631 2.336 3.807 1.557 7.037 3.749 9.69 6.575 2.711 2.826 4.787 6.258 6.229 10.296 1.441 3.98 2.163 8.392 2.163 13.236zm-178.042 30.75V33.626h-.087l-20.586 30.836h20.673zm129.42-30.75c0 3.691.462 6.95 1.385 9.777.98 2.825 2.278 5.19 3.893 7.094 1.614 1.903 3.518 3.345 5.71 4.326a16.77 16.77 0 006.921 1.47c2.422 0 4.729-.49 6.921-1.47 2.192-.981 4.095-2.423 5.71-4.326 1.615-1.904 2.884-4.269 3.807-7.094.981-2.827 1.47-6.086 1.47-9.777 0-3.692-.489-6.92-1.47-9.69-.923-2.826-2.192-5.19-3.807-7.093-1.615-1.904-3.518-3.346-5.71-4.326a16.757 16.757 0 00-6.921-1.471c-2.423 0-4.729.49-6.921 1.47s-4.096 2.423-5.71 4.326c-1.615 1.904-2.913 4.268-3.893 7.095-.923 2.768-1.385 5.997-1.385 9.69z" stroke="#fff" stroke-width=".805"/></svg>