<svg xmlns="http://www.w3.org/2000/svg" fill="none" viewBox="0 0 358 65"><g fill="#131313" clip-path="url(#a)"><path d="M357.918 64.97c.059-.016.103-2.278.103-5.032v-5.004h-.457c-.251 0-.856.032-1.358.067-.486.035-1.047.075-1.239.087l-.354.02v-4.054c0-2.577.088-4.78.236-6.037.236-2.14.487-3.606.634-3.787.163-.2-.191-.196-2.021.036a7.392 7.392 0 0 1-.752.059c-.266 0-.295-.02-.207-.177.059-.094.162-.416.251-.71.295-1.05.546-1.725 1.239-3.442.177-.447.635-1.484.93-2.176.088-.2.236-.518.31-.71.073-.197.221-.519.309-.723.369-.829.915-2.235 1.24-3.178.708-2.05 1.047-3.57 1.18-5.232.118-1.37.28-1.276-1.549-.915a33.92 33.92 0 0 1-1.225.228c-.029 0-.103-1.005-.162-2.235-.103-2.097-.162-2.635-.575-4.505-.236-1.131-.576-2.243-.93-3.052-.074-.18-.177-.432-.221-.557-.148-.378-.148-.378-2.184-.008-1.003.184-1.888.322-1.947.314-.059-.012-.163-.106-.207-.216-.339-.66-1.475-2.043-2.434-2.934-1.608-1.516-4.353-3.213-7.672-4.745-1.638-.758-1.8-.825-1.918-.825-.044 0-.576.083-1.166.185s-1.106.185-1.165.185c-.059 0-.281-.079-.487-.173-.207-.098-1.063-.483-1.918-.857-1.992-.872-3.29-1.5-4.412-2.132-1.047-.593-2.818-1.76-3.526-2.333-.28-.22-.546-.401-.59-.401-.044 0-.87.118-1.815.263l-2.641.397c-1.918.275-2.257.345-2.154.432.236.196 1.549.982 2.494 1.48 1.741.932 2.788 1.38 8.616 3.665 1.431.562 2.626 1.021 2.67 1.021.03 0 .561-.082 1.181-.18.619-.102 1.18-.177 1.239-.165.28.047 2.095.907 3.526 1.67 3.866 2.065 6.212 4.23 7.613 7.038.104.208.251.38.325.38.074 0 .929-.14 1.903-.314.989-.176 1.815-.31 1.844-.302.104.027.546 1.379.797 2.412.472 1.983.561 2.674.649 5.31.059 1.728.148 2.71.236 2.71.089 0 .708-.102 1.372-.228.664-.125 1.269-.228 1.328-.224.133 0-.044 1.485-.339 2.608-.561 2.18-1.298 3.936-3.187 7.62-1.8 3.527-2.936 6.06-2.936 6.618 0 .205.059.212.723.126 1.225-.157 1.962-.232 2.036-.212.044.012.015.4-.089.86-.575 2.616-.796 5.216-.796 9.458 0 2.38.029 3.064.177 3.08.192.015.546-.004 1.977-.095.383-.023.811-.047.929-.05.207-.009.251.553.31 4.795l.089 4.804 3.024.011c1.667.004 3.084-.004 3.143-.02Z"/><path d="M345.556 64.944c.044-.028.059-2.121.03-4.65l-.03-4.6-.398.008c-.207 0-.723.023-1.151.05-.428.024-1.003.06-1.284.072l-.501.027v-3.256c.015-3.896.31-6.815.929-8.861.089-.295.207-.711.266-.923l.088-.389-.427.031a24.92 24.92 0 0 0-1.063.106c-.354.04-.811.09-1.018.107-.369.027-.369.027-.28-.236.059-.145.177-.416.266-.601.088-.189.221-.487.309-.66.148-.322.369-.77.62-1.23.074-.133.207-.384.295-.553.177-.334.413-.75.635-1.116a7.4 7.4 0 0 0 .309-.514c.104-.161.236-.393.31-.515a6.69 6.69 0 0 0 .31-.518c.192-.318.398-.668.62-1.01.073-.125.206-.365.309-.534.104-.173.237-.412.31-.538.472-.801.664-1.147.945-1.712.088-.181.221-.46.309-.617.959-1.913 1.623-4.018 1.786-5.723.073-.71.059-.938-.074-.938-.103 0-.708.094-1.343.208-.634.11-1.21.204-1.283.204-.074 0-.177-1.049-.236-2.36-.104-2.208-.163-2.699-.576-4.69-.295-1.446-.929-3.374-1.165-3.582-.074-.067-.591 0-2.346.31-1.431.255-1.741.26-1.741.031a.865.865 0 0 0-.148-.322c-.088-.094-.221-.31-.324-.479-.177-.322-.679-1.01-.93-1.3-.339-.405-.811-.92-.944-1.033-.074-.067-.354-.318-.62-.554-1.682-1.52-4.146-2.954-7.627-4.45-.605-.26-1.181-.48-1.299-.491-.103-.008-.678.059-1.269.15-.59.094-1.15.172-1.224.172-.089 0-.325-.063-.517-.137a809.17 809.17 0 0 0-4.16-1.493c-5.798-2.07-7.436-2.714-8.985-3.558-.458-.252-.605-.295-.944-.299a3.31 3.31 0 0 0-.532.035c-.088.02-1.298.193-2.685.381-1.387.189-2.567.366-2.611.393-.163.114 2.847 1.19 7.76 2.781 3.807 1.225 6.005 1.968 7.894 2.667.752.279 1.386.507 1.431.507.103 0 1.195-.17 1.637-.252.738-.141.915-.106 1.918.346 4.972 2.258 7.982 4.874 9.458 8.236.147.33.324.613.383.633.059.02.694-.067 1.402-.189 1.741-.298 2.287-.38 2.375-.357.089.023.458 1.249.708 2.305.413 1.807.487 2.553.576 5.248.044 1.583.118 2.879.147 2.879.133 0 1.24-.169 1.904-.287.383-.07.752-.126.826-.126.398-.004-.325 2.722-1.225 4.64-.649 1.374-1.534 2.835-3.541 5.773-1.062 1.54-2.124 3.166-2.39 3.61-.501.844-1.254 2.305-1.254 2.415 0 .09.723.047 1.815-.102.192-.028.501-.047.678-.047.384 0 .399-.142-.088 1.363-.649 2.023-.856 3.625-.959 7.804l-.103 3.618h.56c.31 0 .723-.016.915-.036.192-.02.723-.05 1.166-.066l.811-.028.044 4.426.045 4.427 3.054.012c2.375.008 3.083-.004 3.142-.043Z"/><path d="M333.132 64.97c.059-.016.103-1.949.103-4.294v-4.27l-.885.028c-.502.012-1.225.04-1.638.06-.398.019-.767.027-.811.015-.177-.047-.059-5.338.162-6.956.339-2.616.664-3.767 1.564-5.66.118-.26.103-.263-1.475-.11-.62.06-1.166.094-1.21.083-.089-.024-.03-.142.664-1.242.501-.797.634-1.009.737-1.135.074-.11.104-.133.974-1.3.31-.408.62-.825.694-.927.073-.102.265-.353.428-.557a45.67 45.67 0 0 0 1.106-1.403c.059-.09.295-.404.516-.699.664-.864.738-.978.9-1.198.635-.907.974-1.425 1.505-2.368.31-.523.635-1.21.945-1.96.132-.346.206-.581.634-2.011.177-.632.192-1.72.029-1.724-.073 0-.649.086-1.283.188-.635.098-1.239.185-1.343.185-.162 0-.206-.322-.206-1.473-.015-2.702-.399-5.538-1.077-7.785-.369-1.206-.428-1.347-.59-1.39-.133-.036-.34-.02-.797.063-.34.058-.649.11-.679.11-.044 0-.531.074-1.092.164-.56.09-1.077.165-1.15.165-.074 0-.207-.172-.31-.38-.118-.213-.266-.484-.34-.61-.073-.125-.221-.365-.324-.534-1.756-2.934-4.913-5.22-10.21-7.415-.31-.13-.575-.118-1.859.074-.62.095-1.18.154-1.239.138-.059-.02-.694-.24-1.402-.491-2.051-.719-4.205-1.402-8.439-2.66-3.261-.97-4.264-1.276-5.636-1.72-.782-.259-1.416-.424-1.579-.424-.162 0-1.313.13-2.552.291a93.765 93.765 0 0 1-2.405.287c-.31 0-.103.098.679.322.442.13 2.139.605 3.762 1.06 7.554 2.11 10.136 2.903 13.219 4.073 1.24.464 1.476.527 1.8.448.34-.082 1.963-.294 2.095-.27.207.034 1.815.804 2.715 1.311 2.656 1.492 4.544 3.166 5.813 5.169.487.774 1.151 2.101 1.313 2.635.133.413.236.472.708.393.178-.031.576-.09.886-.137.31-.047.634-.099.723-.118.472-.098 1.623-.24 1.696-.208.104.047.472 1.41.694 2.58.339 1.795.472 3.248.472 5.495 0 1.273.059 2.325.118 2.337.074.012.62-.059 1.21-.157 1.667-.267 1.623-.267 1.608.008 0 .29-.398 1.822-.62 2.38-.885 2.25-2.021 3.834-6.167 8.602-1.933 2.211-3.718 4.63-3.526 4.76.059.044.369.028 1.328-.059.693-.062 1.283-.106 1.313-.09.029.016-.074.299-.236.625-1.107 2.262-1.49 4.293-1.638 8.613-.074 2.306-.059 2.99.089 3.013.103.02.516.015.914-.004.399-.02 1.092-.047 1.535-.06l.811-.027.045 4.081.044 4.077 3.024.012c1.668.004 3.084-.004 3.143-.02Z"/><path d="M320.737 64.969c.059-.016.103-1.8.103-3.96 0-3.255-.029-3.939-.206-3.955-.118-.011-.649 0-1.195.028-.546.023-1.225.055-1.505.067l-.502.02V55.05c.015-2.019.281-4.737.605-5.93.458-1.654.959-2.801 1.8-4.156.103-.169.089-.177-.251-.177-.206 0-.752.035-1.224.083-.472.047-.915.082-.974.082-.148 0-.029-.322.192-.577a4.8 4.8 0 0 0 .31-.37c.103-.125.25-.314.339-.412.089-.102.221-.263.295-.353.074-.09.207-.256.31-.37.088-.114.693-.762 1.328-1.445.649-.68 1.224-1.3 1.298-1.379.074-.082.413-.444.767-.805.369-.365.723-.73.797-.817.28-.302.428-.463.502-.546a75.726 75.726 0 0 0 1.195-1.327c.088-.099.221-.256.295-.354.192-.216.619-.77.796-1.029.074-.11.207-.294.296-.412a12.813 12.813 0 0 0 1.563-2.875c.399-1.08.738-2.974.517-2.974-.148 0-.708.079-2.051.275-.354.055-.693.098-.738.098-.029 0-.073-.738-.073-1.637-.015-2.883-.369-5.645-1.063-8.127-.236-.829-.324-.958-.619-.958a1.95 1.95 0 0 0-.413.039 16.7 16.7 0 0 1-.886.141c-.398.06-1.047.157-1.446.212-.87.13-.914.114-1.062-.263a2.73 2.73 0 0 0-.236-.542c-.074-.15-.221-.424-.31-.617-.162-.318-.383-.675-.767-1.26a3.53 3.53 0 0 1-.236-.35c-.089-.133-.162-.216-.531-.671-.325-.374-.826-.92-.944-1.018-.059-.059-.207-.188-.31-.29a27.86 27.86 0 0 0-1.476-1.198c-.87-.625-2.936-1.811-4.072-2.33-.855-.396-1.46-.636-1.593-.636-.074 0-.694.07-1.372.161l-1.225.165-.693-.255c-2.641-.986-5.503-1.842-12.025-3.59-5.134-1.379-5.532-1.477-5.975-1.461-.575.023-4.308.46-4.367.51-.03.024.974.299 2.243.613 8.734 2.18 13.027 3.445 16.686 4.918.59.231 1.121.424 1.21.424.074 0 .62-.067 1.195-.15.59-.082 1.151-.137 1.254-.117.295.047 2.523 1.312 3.467 1.968 2.508 1.755 4.176 3.927 5.341 6.995.162.44.339.805.384.817.029.012.472-.04.974-.114 2.036-.302 2.67-.385 2.744-.365.073.02.413 1.414.723 3.028.088.499.206 2.372.236 4.163.044 1.791.103 3.264.118 3.268.029.008.605-.07 1.269-.173.678-.102 1.313-.184 1.416-.184.133 0 .162.078.118.275a37.66 37.66 0 0 0-.236.938c-.62 2.502-2.125 4.455-6.816 8.889-2.641 2.49-3.925 3.841-5.031 5.267-.118.165-.045.169 1.386.047.561-.047 1.077-.074 1.137-.059.044.012-.06.28-.251.593a14.35 14.35 0 0 0-1.727 4.423c-.398 1.929-.619 6.732-.309 6.783.073.012.413.004.737-.015.31-.024 1.018-.055 1.55-.067l.959-.032.044 3.771.044 3.767 3.025.011c1.667.004 3.083-.003 3.142-.02Z"/><path d="M308.343 64.971c.059-.016.103-1.677.103-3.692 0-4.05.089-3.743-1.032-3.668-.325.023-.989.05-1.49.066l-.886.028V56.13c0-4.262.812-7.105 2.804-9.855.354-.479.354-.495.044-.495-.163 0-.679.036-1.136.083-1.048.102-1.092.102-1.092.008 0-.122 1.461-1.638 2.42-2.502.309-.271.604-.55.678-.621.074-.067.281-.247.458-.4.177-.154.457-.401.619-.547.177-.149.458-.388.62-.538.177-.145.457-.392.634-.546.177-.153.384-.334.458-.4.073-.07.28-.256.457-.413.192-.16.398-.345.472-.412.074-.07.369-.35.679-.62 1.077-.983 1.829-1.745 2.582-2.648.088-.098.206-.255.295-.353a11.287 11.287 0 0 0 1.549-2.483c.354-.79.885-2.977.723-3.02-.059-.016-.693.05-1.416.145-.723.094-1.372.173-1.446.173-.074 0-.104-.656-.059-1.453.103-1.996-.222-5.22-.723-7.495-.384-1.665-.428-1.775-.694-1.775-.103 0-.929.102-1.844.228s-1.726.22-1.815.204c-.088-.012-.162-.118-.162-.235a1.19 1.19 0 0 0-.133-.46c-.088-.141-.221-.436-.324-.664a6.624 6.624 0 0 0-.31-.66c-.074-.137-.221-.396-.31-.577-.103-.18-.236-.416-.31-.515-.074-.102-.206-.306-.31-.455-.383-.585-.531-.754-1.254-1.548-.708-.777-1.682-1.59-2.773-2.329-.709-.487-3.099-1.78-3.556-1.936l-.295-.106-1.166.153c-.649.086-1.254.145-1.372.133-.103-.011-.428-.117-.723-.235-1.947-.79-6.919-2.341-9.796-3.06-.546-.133-1.55-.385-2.228-.554-1.254-.314-1.83-.46-4.308-1.048-1.653-.397-2.036-.484-2.258-.484-.25 0-4.101.417-4.278.46-.089.027.132.102.619.212 5.607 1.269 10.948 2.651 13.736 3.563 2.007.651 3.762 1.3 5.105 1.889.546.24 1.062.436 1.151.436.088 0 .59-.06 1.136-.126.531-.07 1.062-.118 1.165-.11.266.028 1.741.904 2.656 1.575 2.464 1.815 4.146 4.132 5.194 7.176.398 1.167.427 1.218.678 1.218.103 0 .885-.095 1.712-.209.841-.11 1.608-.204 1.711-.204.133 0 .221.154.295.507.59 2.922.753 4.627.679 7.44-.044 1.708-.015 2.485.103 2.485.089 0 .649-.062 1.239-.141.591-.079 1.166-.145 1.284-.145.251 0 .207.231-.206 1.465-.827 2.431-2.376 4.089-8.1 8.723-2.877 2.325-4.928 4.148-5.238 4.674-.103.18-.192.177 1.549.067.413-.028.782-.04.826-.028.045.012-.103.26-.324.55-1.579 2.13-2.258 4.01-2.567 7.251-.207 2.148-.207 3.515.029 3.535.089.012.531.004.959-.016.443-.015 1.121-.043 1.535-.059l.723-.027.044 3.5.044 3.503 3.025.012c1.667.004 3.083-.004 3.142-.02Z"/><path d="M295.975 64.946c.045-.027.059-1.575.03-3.432l-.03-3.382h-.472c-.251 0-1.003.015-1.667.035l-1.195.027v-1.17c0-3.79 1.062-7.156 2.936-9.285.088-.09.295-.326.472-.522.398-.46.398-.53-.015-.53-.177 0-.428.015-.575.035-.148.02-.531.047-.856.059l-.605.027.104-.141a2.77 2.77 0 0 1 .383-.381c.148-.13.443-.377.635-.546.472-.42 2.773-2.263 3.57-2.848.354-.26.693-.522.767-.577.074-.055.413-.319.767-.578.354-.259.841-.632 1.092-.825.236-.192.679-.534.974-.761a36.074 36.074 0 0 0 2.139-1.784c.074-.074.207-.196.281-.27 1.475-1.372 2.419-2.625 2.95-3.948.428-1.06.753-2.475.561-2.475-.044 0-.679.075-1.402.165-.723.09-1.328.165-1.357.165-.015 0-.044-1.35-.059-3 0-1.67-.089-3.422-.192-3.948-.428-2.262-.516-2.67-.693-3.217-.207-.675-.03-.644-2.184-.369-.797.102-1.52.185-1.608.185-.177 0-.28-.13-.413-.495a17.141 17.141 0 0 0-1.49-3.166c-1.077-1.803-3.01-3.708-4.958-4.874-.973-.578-1.918-1.072-2.065-1.092-.103-.008-.664.035-1.239.102a23.09 23.09 0 0 1-1.225.118c-.103 0-.664-.197-1.269-.44-2.331-.95-4.972-1.803-8.454-2.73-3.777-1.005-9.501-2.313-10.136-2.313-.546 0-4.264.373-4.249.428 0 .023.679.184 1.49.357 8.351 1.74 14.267 3.48 18.221 5.362.531.259 1.092.479 1.24.483.132.008.649-.036 1.136-.095.487-.059.959-.098 1.062-.086.413.043 2.449 1.575 3.482 2.624 1.623 1.661 3.216 4.591 3.806 7.019.059.24.163.46.236.487.074.035.502 0 1.564-.134 2.11-.267 2.11-.267 2.213-.106.104.189.355 1.626.576 3.335.177 1.473.103 6.72-.103 6.854-.192.13.354.13 1.401-.004.561-.071 1.121-.13 1.24-.13.28 0 .28 0-.015.829-.9 2.572-2.789 4.493-8.026 8.173-.487.334-1.254.88-1.741 1.214-1.077.762-3.394 2.475-3.689 2.73-.118.102-.56.495-1.003.868-.428.373-.738.691-.679.707.074.016.443.012.812-.008 1.711-.102 1.608-.102 1.49.028-1.608 1.685-2.671 3.637-3.187 5.832-.206.92-.546 4.875-.413 4.965.118.083.354.083 2.626 0l.723-.028.044 3.257.045 3.252 3.054.012c2.375.007 3.083-.004 3.142-.044Z"/><path d="M283.586 64.945c.045-.027.059-1.473.03-3.205l-.03-3.158-.619.004c-.34.004-1.092.02-1.667.04l-1.048.03v-.808c0-1.383.384-3.802.782-4.934.679-1.952 1.505-3.157 3.467-5.13.133-.133.207-.258.162-.274-.059-.027-.442-.016-1.741.063-.309.02-.501.016-.501-.012 0-.023.354-.318.782-.656.797-.617.959-.742 1.844-1.375.472-.33.561-.392.93-.628.073-.051 1.327-.9 2.788-1.885 1.475-.99 2.729-1.835 2.788-1.878.251-.16.664-.456.782-.558l.62-.451a23.343 23.343 0 0 0 2.007-1.65c.103-.102.25-.236.309-.29.251-.213.62-.594.945-.97.723-.853 1.165-1.58 1.534-2.495.089-.216.221-.573.31-.793.207-.515.207-1.022 0-1.022-.074 0-.266.016-.428.04-.324.043-1.21.145-1.785.204l-.428.043.103-2.007c.118-2.518-.118-5.188-.708-7.91-.088-.428-.236-.798-.31-.817-.074-.024-.428-.004-.841.05a19.03 19.03 0 0 1-.782.087c-.044 0-.457.047-.914.102-1.24.153-1.343.146-1.343-.11 0-.117-.059-.373-.148-.565-.073-.197-.221-.55-.309-.786-.502-1.288-1.136-2.494-1.889-3.546-.457-.66-.531-.75-1.062-1.344-.797-.887-2.272-2.117-3.143-2.624-.133-.078-.442-.263-.708-.416-.251-.153-.561-.279-.679-.279s-.634.047-1.165.102c-.531.06-1.018.106-1.092.106-.088 0-.62-.212-1.195-.467-1.593-.71-3.895-1.54-6.093-2.192-1.49-.447-5.164-1.382-7.141-1.826-2.184-.487-5.489-1.167-5.68-1.167-.296 0-4.176.346-4.368.393-.162.04.281.145 2.258.538 3.246.648 4.809 1.002 7.303 1.646 4.47 1.159 7.569 2.255 10.269 3.637.605.314 1.136.581 1.18.59.044.019 1.106-.075 2.065-.181.207-.024.355.035.723.294 2.892 2.019 4.943 5.15 6.094 9.32.221.774.133.747 1.726.555 1.284-.158 2.11-.232 2.213-.205.118.032.354 1.234.546 2.895.177 1.438.118 6.072-.103 7.09-.074.326-.045.443.088.443.103-.004.546-.047.989-.098.442-.055.973-.114 1.18-.13l.369-.03-.103.364c-.059.2-.281.692-.487 1.088-1.284 2.353-3.202 3.94-9.531 7.919-3.704 2.325-7.082 4.686-6.802 4.76.044.012.561-.008 1.121-.043.576-.04 1.077-.059 1.122-.047.029.008-.177.26-.472.55-1.741 1.685-2.774 3.503-3.335 5.817-.206.86-.516 4.124-.398 4.202.088.071.162.067 2.611-.007l.723-.02.045 3.024.044 3.025 3.054.011c2.375.008 3.083-.004 3.142-.043Z"/><path d="M271.163 64.971c.059-.016.104-1.37.104-3.016v-2.99l-1.284.028c-.693.016-1.446.032-1.667.04-.354.007-.384-.005-.428-.24-.074-.314.236-2.848.443-3.673.295-1.213.796-2.392 1.387-3.287.088-.13.221-.334.295-.456.206-.318.398-.542 1.018-1.225.354-.393.634-.66 1.623-1.548.442-.408.457-.404-.414-.373-.413.016-.87.04-1.018.051-.354.028-.354-.082.03-.342.162-.11.664-.451 1.107-.758a51.096 51.096 0 0 1 1.254-.817c.25-.141.442-.267.442-.275 0-.011.207-.14.458-.29.265-.15.472-.28.472-.287 0-.012.162-.118.369-.236.354-.204.619-.365 1.313-.785.162-.098.457-.267.634-.381.192-.114.472-.283.62-.373.56-.33.973-.582 1.342-.794.207-.121.369-.227.369-.235 0-.012.207-.142.458-.291.265-.15.472-.279.472-.29 0-.008.147-.107.324-.213.767-.46.841-.506 1.535-1.001 1.475-1.049 1.726-1.245 2.478-1.897.192-.17.399-.358.472-.413.118-.094.561-.581.93-1.01.074-.09.221-.278.31-.412.103-.137.236-.334.31-.432.413-.581 1.003-1.787 1.165-2.34.103-.405.118-.401-1.52-.232-.575.059-1.077.102-1.106.094-.03-.012.029-.79.118-1.728.148-1.681-.044-5.393-.369-7.094a55.179 55.179 0 0 1-.236-1.237c-.059-.33-.177-.62-.251-.648-.103-.036-.619.004-1.844.137-.944.098-1.77.173-1.844.157-.074-.011-.177-.165-.236-.337-.369-1.28-.974-2.765-1.476-3.661-.073-.137-.221-.397-.31-.577-.103-.181-.236-.417-.309-.515-.074-.102-.207-.306-.31-.456a8.673 8.673 0 0 0-.31-.432c-.074-.09-.221-.279-.325-.412-.177-.236-1.091-1.21-1.386-1.497a4.848 4.848 0 0 1-.281-.267c-.619-.608-2.228-1.696-2.537-1.712-.133-.008-.605.024-1.063.07-.457.048-.944.083-1.077.083-.162 0-.59-.16-1.136-.428-3.334-1.63-8.587-3.197-15.049-4.486-2.449-.487-4.323-.816-4.647-.816-.177 0-.9.05-1.623.106a184.21 184.21 0 0 1-2.744.212c-.192.011-.354.039-.354.059 0 .02.959.204 2.124.412 9.295 1.654 14.577 3.22 18.752 5.562.546.306 1.018.561 1.033.57.044.011.62-.044 1.269-.127a5.63 5.63 0 0 1 .693-.023c.325.012.428.075.959.507 2.435 2.038 4.087 4.795 5.223 8.743.162.585.384 1.088.458 1.107.103.028.295.028.545-.007.399-.048.959-.11 1.623-.181.222-.024.517-.059.664-.079.148-.02.399-.035.561-.035.266 0 .295.051.398.609.576 3.338.546 7.168-.088 9.261-.089.315-.118.582-.059.597.044.012.236.004.398-.023a3.54 3.54 0 0 1 .457-.051c.089 0 .473-.04.856-.087.384-.05.753-.078.797-.063.236.06-1.003 1.93-1.903 2.891-1.505 1.595-3.423 2.903-9.03 6.136-4.219 2.443-4.765 2.773-6.609 4.045-.93.644-.93.652.486.562.473-.028.871-.044.915-.036.03.012-.177.232-.472.491-2.154 1.882-3.379 3.818-3.939 6.27-.222.926-.472 3.467-.354 3.514.088.04.752.032 2.567-.035l.723-.028.044 2.844.044 2.84 3.025.012c1.667.004 3.083-.004 3.142-.02Z"/><path d="M258.772 64.972c.059-.016.103-1.285.103-2.82 0-2.235-.044-2.797-.192-2.813-.118-.011-.811 0-1.564.024-.973.031-1.386.031-1.519 0-.266-.075.177-2.997.649-4.281a10.885 10.885 0 0 1 2.641-4.085c.546-.53.649-.617 1.579-1.371.516-.416.885-.766.826-.782-.044-.011-.472 0-.944.032-.473.027-.9.04-.959.027-.104-.031.236-.286.9-.68.25-.14.442-.266.442-.278 0-.008.162-.114.369-.236.207-.117.516-.302.679-.4.885-.523 2.095-1.198 4.721-2.64a124.91 124.91 0 0 0 3.688-2.085c.723-.433.959-.582 1.195-.72.118-.082.325-.2.428-.27 1.018-.62 2.685-1.882 3.349-2.53.664-.66.65-.64 1.269-1.469.738-.966.944-1.312 1.417-2.32.044-.087-.015-.146-.133-.158-.103-.012-.664.028-1.269.082-.59.06-1.092.107-1.136.107-.03 0-.015-.2.029-.444a23.336 23.336 0 0 0-.221-9.592l-.177-.734-.487.023a45.62 45.62 0 0 0-2.449.232c-.147.023-.398.04-.561.04-.309 0-.324-.028-.796-1.442-.325-.959-.915-2.365-1.254-2.962-.487-.864-1.048-1.763-1.358-2.152-.575-.75-.855-1.057-1.637-1.834-.443-.436-1.815-1.485-2.007-1.54-.147-.043-.369-.035-1.092.031-1.298.118-1.372.11-1.785-.13-1.151-.675-3.792-1.77-5.872-2.427-3.423-1.088-7.997-2.066-14.68-3.142-.487-.078-.502-.078-1.933.028-.811.059-1.962.137-2.582.176-.619.04-1.121.09-1.121.114 0 .028.929.193 2.051.373 11.021 1.748 16.347 3.292 20.345 5.896.576.37.605.373 1.977.255l.753-.063.221.146c.339.216 1.225 1.096 1.859 1.842 1.49 1.78 2.774 4.45 3.571 7.42.147.561.324 1.04.383 1.068.074.035.369.023 1.092-.043 1.992-.189 2.449-.224 2.538-.2.25.062.427 1.983.442 4.587 0 3.04-.074 3.621-.782 5.27-.133.315-.206.582-.147.594.044.016.531-.012 1.077-.063 1.357-.126 1.387-.122 1.254.086-.281.487-1.24 1.69-1.771 2.235-1.755 1.776-3.585 2.946-10.18 6.477-4.633 2.479-7.628 4.242-7.347 4.317.059.02.487.016.944-.004.472-.02.9-.028.959-.02.059.008-.207.263-.59.562-2.951 2.34-4.353 4.815-4.648 8.276l-.103 1.17 1.638-.031 1.652-.032.045 2.655.044 2.656 3.024.011c1.668.004 3.084-.004 3.143-.02Z"/><path d="M246.38 64.968c.059-.016.104-1.226.104-2.687v-2.659l-1.609.024c-1.209.023-1.622.015-1.681-.024-.074-.055.265-2.34.413-2.855.855-2.828 2.582-4.926 5.96-7.208a1.08 1.08 0 0 0 .162-.133c0-.036-.826-.02-1.342.02-.649.047-.723.007-.369-.19.148-.086.472-.278.723-.427.236-.15 1.726-.947 3.29-1.772 6.772-3.57 7.879-4.16 8.277-4.395 1.328-.793 1.874-1.147 2.626-1.689 1.608-1.17 2.877-2.459 3.851-3.92.103-.133.236-.33.31-.432.221-.31.28-.534.147-.557-.059-.008-.531.02-1.032.063-1.24.11-1.505.105-1.387-.016.044-.051.162-.307.25-.566.635-1.79.856-3.983.635-6.331-.192-1.988-.413-3.366-.561-3.614-.118-.192-.177-.192-2.154-.012-.856.075-1.608.13-1.667.118-.074-.008-.133-.102-.133-.204s-.059-.357-.133-.566c-.088-.208-.221-.62-.324-.915a19.321 19.321 0 0 0-1.874-4.093c-.221-.373-.811-1.182-1.387-1.928-.192-.236-1.018-1.08-1.283-1.3-.915-.778-1.269-1.03-1.402-1.03-.103 0-.516.028-.929.064-1.314.106-1.343.102-2.037-.299-.899-.526-2.567-1.288-3.821-1.74-1.387-.503-4.987-1.457-7.082-1.873-1.475-.295-5.945-1.1-6.108-1.1-.044 0-.546-.075-1.121-.17a126.21 126.21 0 0 0-3.202-.482l-1.195-.177-1.357.086c-.752.048-1.992.126-2.759.177-.767.047-1.416.095-1.461.102-.029.004.03.04.163.071.221.055.428.086 2.995.452.752.11 1.711.251 2.139.318.413.063.782.118.811.118.119 0 2.302.365 4.264.715 7.067 1.256 10.889 2.498 13.928 4.532.369.244.723.456.797.468.073.011.428 0 .796-.028.369-.023.827-.051 1.004-.067.31-.02.369.008.649.264 1.918 1.732 3.467 4.324 4.5 7.521.251.766.782 2.636.782 2.742 0 .047.619.011 1.859-.102 2.11-.197 1.962-.244 2.08.565.546 3.74-.015 7.286-1.534 9.65-.089.126-.059.134.398.134.266 0 .59-.016.738-.035.147-.02.457-.047.693-.063.546-.035.546-.04-.192.848-2.109 2.495-4.396 3.995-11.552 7.561-4.559 2.267-8.321 4.313-8.056 4.384.045.011.487.004.959-.024.487-.027.915-.043.945-.031.044.008-.281.27-.709.585-3.157 2.329-4.558 4.395-5.134 7.624-.088.475-.162 1.017-.162 1.205v.346l1.638-.016 1.652-.011.015 2.498.029 2.494 3.025.011c1.667.004 3.083-.003 3.142-.02Z"/><path d="M233.999 64.962c.059-.023.148-4.462.089-5.031 0-.043-.34-.047-1.638-.024l-1.652.032.103-.7c.325-2.266 1.18-4.14 2.582-5.663 1.047-1.127 2.818-2.534 4.264-3.374.531-.31.516-.314-.561-.283-.516.012-.929.012-.929-.008 0-.035 2.921-1.587 3.791-2.007.325-.16.827-.408 1.136-.558.62-.31 1.313-.648 1.83-.895a159.34 159.34 0 0 0 1.844-.9l1.416-.699c1.255-.616 4.545-2.411 4.545-2.478a2.1 2.1 0 0 1 .295-.193c.959-.573 2.154-1.492 2.98-2.278.089-.09.221-.212.295-.267.384-.318 1.8-2.003 2.08-2.506.104-.16.074-.176-.221-.176a5.52 5.52 0 0 0-.605.035c-.133.02-.531.051-.856.067l-.604.027.103-.24c.044-.133.162-.388.251-.569.885-1.944 1.15-3.307 1.165-5.774 0-2.066-.265-4.128-.531-4.198-.148-.04-.443-.024-1.947.094-1.933.153-1.933.153-1.933-.24 0-.145-.074-.432-.148-.64-.088-.208-.236-.62-.324-.915a10.117 10.117 0 0 0-.325-.907c-.384-.94-.472-1.136-.62-1.442a15.758 15.758 0 0 0-.605-1.198c-.383-.652-.796-1.335-.929-1.485-.074-.09-.207-.275-.31-.412-.723-.982-2.36-2.588-2.774-2.71-.059-.016-.486 0-.944.031-.472.032-.974.06-1.106.06-.177 0-.561-.162-1.21-.515-1.151-.633-1.623-.84-3.01-1.336-2.036-.73-5.12-1.473-8.852-2.136-1.874-.334-3.91-.672-4.058-.672-.044 0-.265-.035-.486-.075-.473-.09-2.199-.338-5.695-.817-1.638-.224-2.686-.345-3.01-.345-.413 0-2.361.094-5.68.27-.192.012-.355.036-.355.06 0 .02 1.653.259 3.674.53 9.413 1.253 14.238 2.101 18.015 3.17 2.345.667 4.013 1.386 5.665 2.447l.797.514.605-.012c.324-.004.841-.012 1.136-.02l.546-.011.28.27c2.139 2.035 3.836 5.303 4.839 9.317.133.53.266.974.295.982.074.02.959-.031 2.022-.114.339-.027.841-.059 1.106-.07l.502-.02.103.275c.162.385-.029 4.572-.221 5.302-.428 1.544-.93 2.738-1.653 3.936-.221.365-.442.75-.487.864-.088.185-.059.2.207.17.664-.072 1.77-.134 1.844-.103.192.086-2.021 2.211-3.29 3.154-1.446 1.08-4.279 2.64-8.041 4.434-4.662 2.22-6.167 2.958-7.716 3.79-.9.476-1.638.896-1.638.931 0 .052.148.056.856.036.679-.024.841-.016.841.031 0 .032-.31.267-.693.523-3.645 2.42-5.563 5.173-5.843 8.44l-.044.495h3.26v4.745l3.04.012c1.682.004 3.098-.008 3.142-.028Z"/><path d="M221.61 64.944c.044-.028.089-1.123.118-2.435l.059-2.388-1.549.011-1.564.012-.044-.35c-.074-.463.31-1.865.767-2.82 1.092-2.317 3.305-4.39 6.787-6.35.236-.138.398-.264.354-.283-.044-.02-.458-.028-.915-.012s-.826.02-.826.008c0-.028 2.729-1.41 2.936-1.489a6.97 6.97 0 0 0 .575-.267 97.145 97.145 0 0 1 2.184-1.029c.472-.216 1.062-.495 1.328-.62.251-.126.59-.276.752-.338.148-.06.28-.118.28-.13 0-.012.34-.177.738-.365a57.714 57.714 0 0 0 1.343-.633c.324-.157.796-.389 1.047-.506.59-.283 2.774-1.45 3.231-1.72.177-.115.458-.28.62-.37 1.874-1.115 4.146-3.087 5.267-4.572.162-.224.34-.424.384-.444.177-.07-.428-.09-1.254-.035-.472.027-.886.043-.93.027-.088-.02.03-.255.399-.895 1.445-2.443 2.154-6.167 1.696-8.889-.088-.542-.221-1.001-.295-1.02-.118-.032-.531-.013-2.228.11-1.505.11-1.431.125-1.549-.358-.413-1.752-1.328-4.093-2.11-5.381a22.565 22.565 0 0 0-.929-1.422c-.133-.192-.59-.746-.944-1.143a14.819 14.819 0 0 0-1.077-1.053c-.177-.16-.399-.345-.473-.416-.309-.263-.413-.279-1.608-.204-.59.035-1.121.05-1.18.031-.074-.015-.472-.212-.9-.432-2.213-1.147-5.798-2.137-11.095-3.067-3.083-.542-5.311-.868-12.157-1.776l-4.884-.644-1.165.028c-.635.015-1.579.043-2.095.066-.502.024-1.461.06-2.125.083-2.287.082-2.537.031 4.367.942 6.802.896 8.322 1.108 10.933 1.52 7.274 1.163 11.213 2.228 13.869 3.751 1.224.704 1.106.657 1.711.64.28-.007.767-.03 1.048-.054.664-.055.649-.06 1.239.518 2.183 2.125 3.777 5.334 4.529 9.16.089.499.222.919.281.934.059.016.649-.007 1.328-.054a105.38 105.38 0 0 1 1.74-.107l.502-.02v1.148c0 2.93-.974 5.919-2.788 8.554-.635.908-.62.845-.074.837.265-.008.738-.024 1.062-.04.531-.023.59-.015.517.052-.045.043-.266.27-.487.51-2.302 2.463-5.135 4.168-12.349 7.444-4.456 2.026-8.026 3.758-8.026 3.896 0 .023.383.043.87.043.634 0 .841.016.782.051l-.841.526c-3.246 1.996-5.09 3.963-5.99 6.351-.28.77-.561 1.811-.561 2.149v.243h3.261l-.044 2.259-.03 2.258 3.054.012c2.376.008 3.084-.004 3.128-.043Z"/><path d="M209.216 64.947c.029-.028.118-.99.162-2.133.059-1.147.118-2.176.133-2.29l.029-.208h-1.578c-.871 0-1.623-.012-1.682-.028-.148-.039.324-1.645.708-2.446.265-.547.767-1.383 1.033-1.71.132-.172.295-.384.368-.474.664-.86 2.597-2.46 4.013-3.323.797-.495.93-.57 1.889-1.104.487-.283.9-.518.9-.534 0-.012-.354-.012-.767 0-.428.012-.812.012-.856 0-.103-.032.767-.46 4.411-2.133.148-.07.945-.432 1.786-.805 2.759-1.241 2.891-1.3 4.204-1.929.222-.106.62-.298.9-.42.635-.298 2.848-1.473 3.409-1.814.236-.15.575-.354.737-.456.841-.491 2.612-1.909 3.453-2.742 1.077-1.072 1.682-1.779 1.578-1.85-.088-.059-.516-.05-1.726.036-.442.031-.442.031-.339-.11.133-.165.339-.487.885-1.418 1.372-2.349 2.051-5.079 1.962-7.895l-.044-1.426-.457.004c-.266.004-.812.028-1.24.055-1.711.106-1.888.106-1.991 0-.045-.055-.118-.33-.177-.613-.251-1.394-1.078-3.593-1.786-4.815-.516-.884-.575-.97-1.18-1.764-.738-.974-1.948-2.109-2.789-2.615l-.368-.22-.576.027-1.298.051-.708.024-.664-.303c-2.641-1.186-7.598-2.356-13.869-3.271-.428-.063-.841-.13-.929-.146-.413-.082-5.563-.781-12.084-1.638l-4.957-.652-1.239.008c-.679.004-1.771.024-2.405.047-.635.024-1.8.067-2.597.095-.782.023-1.431.059-1.431.07 0 .032 1.269.205 10.151 1.379 3.496.463 6.772.903 7.273.978 10.062 1.473 14.621 2.557 17.749 4.21l.635.338.796-.031c1.741-.067 1.667-.075 2.081.247 1.549 1.206 3.054 3.331 3.909 5.546.517 1.316 1.092 3.751 1.092 4.592v.243l.738-.027c.398-.02 1.121-.059 1.578-.09.473-.032.945-.06 1.078-.055.191 0 .206.176.118 1.264-.222 3.013-1.417 5.982-3.453 8.65-.206.266-.369.514-.369.55 0 .05.163.058 1.018.034l1.004-.027-.104.114c-.354.4-1.401 1.363-2.006 1.87-2.213 1.826-4.633 3.142-11.125 6.032-4.647 2.066-7.539 3.418-7.539 3.528 0 .027.31.047.797.047.929 0 .944-.04-.236.628-4.131 2.325-6.61 5.102-7.156 7.985l-.103.542h3.305l-.103.837c-.06.46-.119 1.437-.119 2.176l-.014 1.34 3.054.011c2.375.008 3.083-.004 3.128-.043Z"/><path d="M196.809 64.973c.059-.016.103-.463.103-1.002 0-.534.074-1.37.147-1.857.074-.487.163-1.053.192-1.257l.045-.373-1.623-.02-1.623-.02.044-.29c.118-.747.738-2.031 1.505-3.092.944-1.303 2.892-2.95 4.913-4.143.162-.102.442-.271.62-.373.162-.102.855-.48 1.534-.837.664-.361 1.21-.672 1.21-.691 0-.024-.31-.04-.694-.04-.383 0-.693-.02-.693-.039 0-.023.206-.133.457-.247a5.15 5.15 0 0 0 .472-.224c0-.008.502-.236 1.107-.503.605-.271 1.224-.546 1.372-.617.162-.066 1.416-.624 2.788-1.237l2.818-1.245c.148-.075.428-.204.605-.29.192-.087.517-.24.723-.338.222-.102.62-.295.915-.428.531-.248 3.305-1.733 3.305-1.776 0-.012.177-.13.413-.263 1.313-.766 3.231-2.396 4.839-4.124.502-.526.531-.51-.782-.48-1.062.028-1.091.024-1.003-.054.059-.047.177-.185.251-.307.9-1.386 1.106-1.767 1.697-3.036.811-1.752 1.401-4.344 1.401-6.253V28.37l-.737.02c-.399.012-1.21.043-1.786.07-.59.028-1.091.04-1.136.028-.044-.012-.147-.35-.221-.754-.251-1.324-.516-2.172-1.092-3.48-.944-2.137-2.7-4.124-4.795-5.42-.324-.2-.664-.385-.752-.409-.104-.027-.517-.023-1.24.008-1.682.075-1.593.087-2.773-.334-2.877-1.017-7.628-2.019-14.046-2.961l-1.785-.263c-.561-.083-4.146-.57-7.982-1.08-6.389-.857-9.015-1.214-10.402-1.422-.619-.095-1.859-.102-4.455-.036-2.759.075-3.394.098-3.438.142-.029.023.207.082.516.13.325.046 1.535.223 2.671.396 1.151.169 4.397.62 7.215 1.002 6.875.93 9.634 1.311 11.773 1.637 8.056 1.234 12.526 2.255 15.433 3.52.442.192.885.365.988.388.103.024.502.024 1.092 0 1.52-.066 1.534-.066 1.918.173 1.033.637 2.597 2.176 3.32 3.272 1.254 1.882 2.036 4.207 2.301 6.846l.044.33.532-.004c.546-.008 1.918-.07 2.596-.125l.354-.024v.55c0 2.62-1.637 6.736-3.703 9.356-.251.306-.413.57-.383.585.044.02.486.02.988.008.767-.024.93-.016.93.035 0 .106-1.52 1.493-2.346 2.157-2.051 1.63-4.308 2.863-9.192 5.031-1.136.499-3.157 1.398-4.529 2-3.231 1.433-4.279 1.924-4.161 1.975.059.027.384.031.797.02.369-.016.678-.02.678-.008 0 .011-.545.326-1.224.699-4.559 2.517-6.787 4.654-7.849 7.525-.148.39-.207.739-.162.778.088.063.295.07 1.622.059l1.505-.016-.014.267c0 .15-.089 1.069-.207 2.05-.118.979-.162 1.811-.118 1.847.074.055.516.063 3.098.063 1.653 0 3.04-.012 3.099-.028Z"/><path d="M184.515 64.534c0-.255.118-1.131.266-1.948.133-.817.265-1.607.265-1.752l.015-.271h-3.098l.029-.248c.074-.408.443-1.135 1.004-1.98.324-.486.398-.588.914-1.154.915-1.021 2.582-2.372 3.836-3.122.163-.099.487-.295.723-.444.561-.338 2.951-1.614 3.777-2.015.354-.17.635-.322.635-.342 0-.02-.31-.035-.694-.035-.383 0-.708-.016-.708-.036 0-.031 2.184-1.001 5.577-2.478.959-.42 1.874-.82 2.021-.892.148-.07.591-.267.974-.436 2.095-.926 4.854-2.36 6.005-3.13 1.106-.738 2.597-1.932 3.408-2.718.074-.083.28-.275.443-.436.162-.157.369-.373.457-.471.457-.51.797-.908.797-.927 0-.04-.812-.028-1.446.02-.325.023-.635.035-.694.019-.044-.012 0-.15.104-.302 1.372-1.964 2.287-3.987 2.803-6.257.251-1.073.487-3.547.369-3.912l-.103-.326-.856.027a223.8 223.8 0 0 0-1.726.063c-.472.02-.9.027-.974.016-.059-.008-.118-.142-.118-.299 0-.361-.428-1.909-.782-2.804-.251-.636-.753-1.634-1.062-2.117-.089-.13-.222-.334-.31-.452-.502-.762-1.712-1.991-2.685-2.71-1.018-.758-2.597-1.638-3.01-1.681-.148-.016-.871-.004-1.638.02l-1.372.047-2.434-.648c-4.279-1.147-8.749-1.937-18.959-3.343-1.18-.161-3.084-.428-4.264-.59-5.252-.722-8.351-1.19-11.965-1.802-.532-.086-.635-.09-3.482-.067-3.349.028-3.954.043-3.954.114 0 .028.723.185 1.593.346 3.349.624 7.333 1.249 13.47 2.109 3.571.503 4.618.652 5.931.845 7.466 1.095 11.567 1.853 14.961 2.749 1.652.44 2.405.68 4.057 1.296.192.075.28.075 1.49.024.856-.036 1.358-.044 1.52-.016.605.102 2.538 1.5 3.585 2.596 1.785 1.866 2.818 4.05 3.29 6.885.118.72.266 1.167.369 1.187.089.015.28.02.413.008.148-.012.635-.04 1.092-.06.443-.02 1.048-.047 1.328-.062l.501-.032v.617c0 1.12-.457 3.225-1.018 4.674-.545 1.414-1.696 3.508-2.552 4.611-.443.578-.472.558.546.527.472-.016.915-.02.988-.008.266.043-1.741 1.889-3.172 2.926-2.198 1.587-4.263 2.631-11.065 5.597-3.969 1.732-5.267 2.317-5.267 2.384 0 .028.265.047.723.047.383 0 .678.016.649.031-.03.02-.871.468-1.859 1.002-4.544 2.424-6.92 4.47-8.188 7.062-.177.381-.296.719-.251.75.074.051.428.063 1.667.063h1.579l-.104.236c-.295.727-.752 3.825-.575 3.873.044.008 1.446.015 3.143.015h3.068v-.463Z"/><path d="M172.182 64.904c.044-.055.118-.502.177-1.001.089-.833.369-2.043.664-2.836.074-.177.074-.346 0-.373-.074-.036-.546-.047-1.593-.036-1.682.016-1.609.036-1.343-.408.089-.126.221-.365.325-.534.339-.59 1.46-1.944 1.859-2.267.073-.058.221-.188.324-.29.413-.393 1.608-1.32 2.346-1.815.738-.487.915-.6 1.756-1.092 1.003-.589 2.508-1.378 3.939-2.062 1.092-.522 1.549-.754 1.549-.782 0-.011-.31-.023-.693-.023-.384 0-.694-.008-.694-.02 0-.011.281-.149.635-.302.354-.15 1.047-.452 1.534-.668.487-.216 1.254-.55 1.697-.742.915-.389 3.452-1.512 3.91-1.72.147-.075.427-.205.605-.291.354-.165.722-.338 1.534-.73 2.936-1.415 5.311-3.049 7.215-4.95.87-.872 1.46-1.563 1.46-1.708v-.126l-1.003.028c-.812.02-1.018.011-1.018-.036 0-.031.177-.341.398-.695.207-.353.458-.778.546-.947a7.1 7.1 0 0 1 .31-.557 7.18 7.18 0 0 0 .295-.66c.103-.228.236-.562.31-.742.738-1.733 1.136-3.893 1.062-5.735l-.044-1.32-1.018.016c-2.656.04-2.7.035-2.73-.075a22.426 22.426 0 0 0-.206-.742c-.826-3.11-2.582-5.515-5.4-7.396a18.607 18.607 0 0 0-1.269-.778c-.767-.412-2.154-1.017-2.375-1.037-.104-.011-.959-.004-1.889.02l-1.696.043-1.535-.396c-1.874-.484-3.983-.927-6.757-1.418-1.859-.33-6.713-1.124-6.875-1.124-.03 0-.664-.094-1.402-.204a65.408 65.408 0 0 0-1.402-.208c-.029 0-.457-.063-.959-.138-.487-.078-1.342-.204-1.903-.282-.561-.079-1.343-.193-1.741-.256-.413-.059-1.033-.153-1.401-.204l-1.476-.228a24.92 24.92 0 0 0-.87-.13c-.03 0-.871-.133-1.889-.294-3.541-.57-7.362-1.276-9.044-1.681a8.269 8.269 0 0 0-1.048-.193c-.472-.035-6.181-.003-6.329.036-.384.102 5.046 1.308 9.162 2.027 1.549.27 7.141 1.178 7.274 1.178.029 0 .502.075 1.062.165.576.09 1.062.165 1.107.165.044 0 .531.075 1.092.165.545.09 1.032.165 1.077.165.044 0 .575.082 1.195.18.619.099 1.755.275 2.523.397 4.736.739 8.217 1.387 10.962 2.039 1.505.357 3.452.903 4.042 1.135l.34.133 1.667-.023 1.667-.02.398.165c1.328.562 3.32 1.988 4.456 3.197 1.711 1.811 2.951 4.285 3.29 6.564.074.432.177.722.28.746.163.031 1.402.008 2.863-.06l.678-.03-.088 1.417c-.192 2.742-1.136 5.39-2.833 7.954a20.39 20.39 0 0 1-.605.868c-.162.134.133.173.93.122.413-.024.841-.036.944-.024.147.016.029.193-.487.715-1.741 1.787-3.615 3.178-5.99 4.442-1.815.967-3.039 1.524-9.944 4.56-1.166.507-2.11.94-2.11.959 0 .016.31.031.693.031.384 0 .694.012.694.028 0 .015-.62.334-1.372.71-4.5 2.22-7.23 4.101-8.985 6.218-.62.739-1.254 1.74-1.151 1.815.059.04.457.055 1.638.055h1.549l-.104.177c-.309.593-.796 2.411-.9 3.35l-.044.495 3.054.012 3.054.008.074-.09Z"/><path d="M159.949 64.944c.03-.027.104-.294.163-.589.191-1.135.516-2.062 1.15-3.319.074-.15.104-.283.06-.299-.03-.015-.723-.03-1.52-.03s-1.49-.017-1.535-.036c-.029-.016 0-.114.074-.216.089-.099.222-.267.295-.366.472-.636.915-1.111 1.579-1.755.62-.593 2.257-1.839 3.128-2.369.118-.082.339-.22.487-.31.575-.381.855-.538 2.434-1.383 1.977-1.052 3.098-1.61 4.751-2.348.428-.189.752-.362.708-.381-.044-.02-.354-.032-.693-.032-.664 0-.723-.023-.399-.149a7.21 7.21 0 0 0 .517-.224c.177-.078.678-.302 1.136-.495.9-.393 3.452-1.516 3.895-1.72.147-.075.428-.204.605-.29.191-.087.516-.24.723-.339.221-.102.604-.29.885-.412 1.313-.609 3.231-1.697 4.337-2.455 1.668-1.135 3.763-3.103 4.795-4.485.369-.483.413-.46-.752-.432-.575.015-1.048.008-1.092-.012-.059-.024.015-.212.133-.42.31-.511.752-1.352 1.018-1.929.649-1.465 1.018-2.887 1.254-4.745.148-1.202.103-2.804-.103-3.334l-.089-.224-1.106.035a96.36 96.36 0 0 1-1.874.035l-.782.004-.177-.514c-.502-1.387-.605-1.614-1.239-2.702-1.564-2.687-4.235-4.792-8.012-6.328-1.446-.59-1.239-.558-3.349-.518-.988.015-1.918.031-2.065.027-.148 0-.768-.122-1.387-.263-3.217-.746-6.551-1.343-15.079-2.702-11.301-1.803-15.167-2.565-19.416-3.838l-.988-.298h-2.995c-2.405 0-3.01.011-3.01.055 0 .117 2.892 1.037 4.839 1.535 3.246.833 7.79 1.72 14.459 2.82 11.124 1.839 13.278 2.251 17.07 3.233l1.741.452 1.859-.008 1.859-.008.62.255c1.387.57 3.201 1.638 4.396 2.597 2.243 1.79 3.822 4.17 4.53 6.802.133.535.28.994.324 1.026.045.047.266.05.945.031.487-.016 1.327-.04 1.859-.051l.959-.027v1.107c0 2.765-.9 5.778-2.464 8.256-.266.409-.472.794-.472.849 0 .106 0 .106 1.003.082.826-.02 1.003-.016 1.003.035 0 .106-1.372 1.552-2.08 2.2-2.523 2.278-4.559 3.429-11.656 6.587-1.814.809-3.349 1.5-3.393 1.535-.074.052.044.063.531.063.354 0 .664.016.708.032.03.016-.56.326-1.328.691-4.632 2.203-7.981 4.281-9.958 6.202-.605.59-1.476 1.61-1.476 1.736 0 .079.103.082 1.461.082.811 0 1.505.016 1.549.036.044.02-.015.2-.148.404-.531.872-1.313 2.927-1.313 3.441v.161h3.025c2.287 0 3.039-.012 3.083-.05Z"/><path d="M147.865 64.946c.029-.027.133-.302.236-.609.354-1.064 1.003-2.348 1.652-3.213.118-.168.192-.33.148-.36-.059-.04-.458-.056-1.476-.056-1.401 0-1.401 0-1.401-.102 0-.173 1.136-1.253 2.257-2.148.679-.546 2.376-1.709 3.349-2.286 1.8-1.077 6.359-3.374 8.528-4.285.59-.252.561-.291-.192-.291-.339 0-.619-.02-.619-.043 0-.047.236-.161 1.549-.743a55.068 55.068 0 0 0 1.873-.856 7.82 7.82 0 0 1 .443-.196c.118-.04.502-.224 1.815-.864a101.04 101.04 0 0 0 3.511-1.878c2.095-1.269 4.766-3.669 5.946-5.361.044-.055.177-.236.295-.4.354-.496.398-.476-.915-.46-1.047.015-1.121.007-1.077-.067.015-.047.089-.224.177-.393 1.712-3.44 2.213-6.508 1.579-9.65l-.088-.476-.62-.011a43.573 43.573 0 0 0-1.844.03c-1.446.052-1.653.028-1.653-.211 0-.09-.059-.287-.133-.436-.088-.153-.221-.456-.324-.668-.103-.216-.354-.68-.561-1.033-2.021-3.354-5.547-5.785-10.8-7.455l-.959-.302-2.449.008-2.449.008-.59-.122c-.325-.063-1.269-.256-2.11-.42-1.372-.28-6.772-1.246-12.113-2.169-6.005-1.04-10.726-2.046-13.765-2.942-1.638-.483-3.571-1.154-4.264-1.476l-.457-.216-1.269-.024c-.694-.012-2.022-.031-2.936-.043-1.963-.024-1.977-.016-1.181.377 1.461.715 3.925 1.583 6.507 2.286 3.482.947 6.89 1.657 15.005 3.13 6.314 1.147 9.398 1.756 11.817 2.345l1.063.255 2.109-.007 2.11-.008.561.173c2.08.644 4.957 2.191 6.669 3.601 2.05 1.693 3.895 4.391 4.426 6.497.059.235.177.436.265.451.089.012.974.02 1.963.016l1.829-.008.103 1.167c.222 2.447-.472 5.46-1.859 8.032-.295.53-.486.982-.442 1.002.059.02.531.023 1.077.008.974-.028.988-.024.988.07 0 .138-1.239 1.591-2.006 2.345-2.508 2.475-5.09 3.975-12.836 7.482-.339.158-.59.299-.546.319.044.02.354.035.694.035.324 0 .604.016.604.031 0 .016-.191.114-.413.216-4.19 1.937-7.495 3.708-9.796 5.252-1.756 1.178-3.881 2.997-3.674 3.138.074.051.369.067 1.402.067.723 0 1.357.015 1.401.04.045.019-.118.301-.369.627-.737.963-1.711 2.77-1.711 3.198l-.015.133h2.951c2.228 0 2.966-.011 3.01-.05Z"/><path d="M136.094 64.944c.029-.027.132-.236.236-.463.177-.397.236-.5.634-1.155.148-.252.664-.95 1.092-1.485.074-.09.31-.35.516-.573.576-.597.649-.558-1.033-.57-1.431-.011-1.431-.011-1.386-.114.147-.263 2.508-2.026 3.791-2.828 1.446-.907 1.682-1.04 3.556-2.038a84.266 84.266 0 0 1 4.485-2.27c.221-.102.561-.271.782-.37.207-.102.605-.286.871-.404.265-.122.486-.232.486-.244 0-.011.133-.07.281-.13.413-.156 1.269-.58 1.269-.628 0-.023-.31-.039-.694-.039-.383 0-.708-.012-.708-.024 0-.011.192-.11.413-.216.221-.106.59-.278.797-.377.221-.102.56-.27.782-.373 1.313-.624 3.644-1.846 4.485-2.349.177-.102.457-.274.649-.384.384-.232.517-.323 1.121-.75a21.56 21.56 0 0 0 4.633-4.537c.325-.436.885-1.296.944-1.465l.045-.146-1.077-.011c-.605-.008-1.136-.024-1.181-.04-.059-.015-.044-.169.03-.337.472-1.085.634-1.552 1.018-2.95.457-1.74.324-6.033-.236-7.03l-.104-.19-2.05-.011-2.036-.012-.089-.173a42.35 42.35 0 0 0-.708-1.327c-.457-.817-1.431-2.004-2.346-2.868-2.449-2.32-5.769-3.986-10.593-5.318l-1.741-.475-2.789-.008-2.788-.008-1.756-.345c-.974-.193-3.01-.586-4.544-.876-3.836-.73-5.341-1.021-7.052-1.379-2.892-.6-4.013-.864-6.669-1.567-3.467-.923-5.902-1.799-7.834-2.828-.561-.295-1.107-.55-1.225-.57-.266-.039-5.651-.09-5.651-.055 0 .079 1.21.798 2.095 1.257 1.992 1.018 4.677 1.976 8.13 2.895 3.128.837 5.754 1.418 12.083 2.679 2.08.416 4.825.978 6.079 1.245l2.287.487h2.301c1.284 0 2.435.012 2.582.027.133.012.812.205 1.49.42 6.433 2.035 10.402 5.123 12.364 9.635.177.409.369.75.413.762.044.012.944.016 1.992.008l1.903-.011.089.24c.221.518.295 4.249.118 5.254-.266 1.477-.753 2.938-1.343 4.113-.133.259-.206.495-.162.526.059.043.383.059 1.18.059.59 0 1.077.016 1.077.035 0 .02-.236.377-.546.794-1.534 2.101-3.423 3.86-5.739 5.345-1.092.707-3.895 2.216-5.99 3.229-.723.35-1.284.652-1.254.668.044.02.354.035.693.035.354 0 .605.02.605.047 0 .024-.752.409-1.682.852-4.824 2.314-7.908 3.98-10.313 5.586-1.165.778-2.729 1.952-2.729 2.062 0 .063.177.07 1.298.07.708 0 1.358.02 1.446.044.103.027 0 .196-.339.526-1.122 1.084-2.818 3.339-2.597 3.44.03.017 1.357.032 2.921.032 2.154 0 2.877-.012 2.922-.05Z"/><path d="M124.627 64.944a3.45 3.45 0 0 0 .236-.342c.723-1.123 1.977-2.443 3.379-3.586.177-.138.28-.263.236-.279-.029-.016-.649-.031-1.357-.031-.753 0-1.343-.02-1.402-.044-.059-.023.03-.141.207-.259.9-.62 2.419-1.638 2.7-1.799.162-.102.472-.286.678-.404.207-.122.369-.228.369-.236 0-.063 3.32-1.862 5.179-2.804 1.313-.672 1.49-.754 3.496-1.732.281-.138.723-.35.974-.476.605-.294 1.166-.573 1.874-.915.31-.15.561-.294.561-.318 0-.024-.266-.043-.605-.043-.34 0-.664-.02-.709-.044-.044-.02.561-.384 1.358-.813 2.375-1.28 3.614-2.062 5.001-3.165 1.136-.912 2.184-1.917 2.848-2.722.074-.09.221-.252.31-.35.309-.353 1.077-1.426 1.401-1.96.177-.294.384-.648.472-.785a1.7 1.7 0 0 0 .192-.472l.03-.227-1.077-.012c-.605-.008-1.136-.028-1.21-.047-.059-.016-.044-.244.044-.503.605-1.791.679-2.22.679-4.654.015-2.444-.015-2.624-.62-4.517-.192-.586-.295-.755-.487-.798-.192-.035-.708-.043-2.051-.023-1.431.02-1.814.015-1.962-.032-.088-.031-.324-.306-.501-.612-.591-.979-1.225-1.756-2.332-2.868-.501-.498-2.124-1.76-2.818-2.18-1.947-1.178-3.673-1.96-6.108-2.769-1.121-.369-4.5-1.272-6.123-1.638l-.87-.196-1.608-.004c-.885 0-2.198-.016-2.936-.031l-1.313-.028-1.166-.243a317.88 317.88 0 0 0-2.242-.476c-10.83-2.282-16.318-4.092-19.667-6.496-.31-.228-.664-.436-.797-.46-.118-.027-1.077-.059-2.125-.074a183.28 183.28 0 0 1-2.626-.051c-.678-.02-.737-.016-.737.07 0 .051.295.319.649.593 2.906 2.275 7.642 4.109 15.388 5.959 3.216.766 8.823 2.007 9.487 2.101.206.032 1.239.047 2.744.047h2.405l.59.134c.929.216 3.393.903 4.308 1.214 5.71 1.905 9.738 4.882 11.818 8.735.221.432.472.809.531.836.089.036.694.052 2.11.052h1.992l.088.279c.9 2.572.767 6.48-.295 9.077-.118.302-.221.604-.221.671v.118h1.151c.634 0 1.18.016 1.224.031.03.016-.206.448-.531.959-2.124 3.35-5.061 5.84-9.9 8.413-.516.271-.929.522-.929.558 0 .043.177.063.693.063.428 0 .694.015.694.047 0 .023-.34.216-.753.42-6.049 2.997-9.413 4.788-11.847 6.304-1.431.892-2.715 1.775-2.626 1.815.029.015.693.031 1.46.031.753 0 1.372.012 1.372.024 0 .011-.295.267-.678.565-1.269 1.01-3.025 2.746-3.29 3.264l-.089.189h2.803c2.125 0 2.833-.012 2.877-.051Z"/><path d="M113.493 64.944c.029-.028.28-.275.546-.546 1.121-1.17 3.585-3.205 4.352-3.582.207-.102.045-.15-.531-.154-1.092 0-2.124-.05-2.124-.105 0-.032.206-.177.457-.327.265-.149.472-.278.472-.286 0-.012.207-.142.457-.29.266-.15.473-.276.473-.284 0-.011.28-.18.634-.38.339-.201.885-.515 1.195-.696.605-.357 6.654-3.562 7.849-4.167 1.652-.825 4.574-2.388 4.574-2.44 0-.039-.236-.054-.767-.054-.414 0-.797-.016-.841-.032-.03-.015.088-.114.28-.22 1.269-.699 3.541-2.376 4.721-3.5.354-.33.694-.655.767-.722.236-.2 1.151-1.233 1.431-1.587.089-.126.237-.314.325-.412.074-.102.207-.287.295-.405.369-.55.443-.672.664-.998.118-.196.369-.64.546-.99.177-.353.398-.765.487-.918.074-.15.147-.37.147-.483v-.209h-2.523l.089-.443c.605-2.95.502-5.814-.266-7.868-.516-1.359-.855-2.081-1.032-2.172-.133-.067-.384-.074-2.228-.074-1.136 0-2.11-.016-2.169-.036-.044-.023-.325-.341-.62-.715-1.49-1.889-3.319-3.409-5.739-4.768-2.302-1.288-4.662-2.176-8.439-3.185-2.11-.558-6.684-1.654-7.097-1.693-.147-.016-1.165-.04-2.272-.055-3.688-.047-3.083.031-6.256-.801-3.88-1.018-5.857-1.63-8.114-2.526-3.217-1.273-5.194-2.431-7.156-4.163l-.383-.354-2.14-.05c-2.434-.056-3.452-.06-3.452-.017 0 .079 1.269 1.273 1.785 1.681 2.331 1.854 5.341 3.308 9.974 4.824 1.977.648 7.583 2.148 8.306 2.23.354.04 1.136.06 2.331.06 2.7 0 2.892.02 4.84.51 5.783 1.457 8.276 2.314 10.932 3.755 2.892 1.563 5.371 3.692 6.831 5.84.31.464.635.884.708.935.133.09.207.095 2.154.095 1.963 0 2.037.004 2.169.094.148.09.472.927.782 1.968.635 2.239.62 5.232-.074 7.404-.103.337-.162.632-.118.648.03.015.576.031 1.21.031.871 0 1.181.016 1.24.059.118.079-.738 1.7-1.417 2.675-1.682 2.427-4.205 4.788-7.096 6.63-.472.31-.871.573-.871.589 0 .016.384.027.871.027.855 0 .87 0 .767.106-.059.063-2.39 1.328-5.179 2.817a679.353 679.353 0 0 0-6.196 3.338c-1.195.676-3.482 2.039-3.659 2.192-.163.134.118.165 1.431.165.826 0 1.121.016 1.121.055 0 .031-.546.444-1.225.919-.663.475-1.504 1.096-1.844 1.379-.634.518-1.888 1.653-1.888 1.704 0 .016 1.224.028 2.714.028 2.037 0 2.73-.012 2.789-.051Z"/><path d="M102.839 64.882c.089-.063.517-.409.959-.774.428-.362.93-.75 1.077-.864 1.387-.99 1.992-1.406 2.287-1.587.871-.53 1.446-.915 1.446-.974 0-.059-.708-.098-1.815-.098-.959 0-.944.008-.265-.393l.693-.413c.989-.585 2.818-1.606 5.843-3.236 1.357-.738 2.906-1.583 3.452-1.877 1.623-.9 2.626-1.47 2.626-1.485 0-.008.281-.173.62-.365.339-.197.62-.366.62-.377 0-.012.162-.118.369-.236.811-.48.885-.542.678-.578a10.328 10.328 0 0 0-.929-.03c-.399 0-.753-.017-.782-.032-.044-.02.295-.33.752-.692 1.313-1.06 1.756-1.465 2.789-2.537a24.162 24.162 0 0 0 2.228-2.702c.132-.197.619-.99.929-1.524.354-.609.753-1.508 1.166-2.667.044-.153.014-.248-.089-.263a21.5 21.5 0 0 0-1.357-.055l-1.181-.028.015-.247c.015-.134.03-1.155.044-2.267.03-2.725-.368-4.434-1.622-6.724-.546-1.017-.664-1.182-.841-1.23-.089-.023-1.136-.058-2.346-.074-1.21-.015-2.243-.047-2.287-.063-.059-.02-.413-.357-.782-.754-1.372-1.48-3.718-3.185-5.931-4.324-2.877-1.481-4.972-2.133-15.02-4.682-1.755-.444-3.29-.813-3.408-.813-.487 0-3.954-.083-4.249-.102-.62-.036-3.998-1.23-5.946-2.098-3.054-1.35-5.724-3.158-7.273-4.913-.723-.817-.605-.75-1.254-.778-1.092-.047-4.515-.114-4.707-.094-.236.023-.206.086.531.962 2.243 2.675 5.563 4.812 10.225 6.595 1.091.416 2.921 1.037 3.349 1.135.206.05.9.082 2.537.122l2.243.05 3.777.994c8.513 2.247 10.77 3.037 13.839 4.851 2.258 1.328 4.087 2.856 5.621 4.702.325.373.605.69.635.707.029.011.974.035 2.095.055 1.121.015 2.124.035 2.242.047.266.027.296.078.753 1.048.384.802.708 1.685 1.033 2.781.251.896.354 4.364.162 5.362-.148.687-.133.868.015.895.103.016.649.032 1.21.032.56 0 1.091.02 1.165.043.177.047.103.294-.487 1.567-1.195 2.573-3.467 5.326-6.285 7.624-.428.345-.738.656-.693.687.059.04.324.063.752.063.974 0 1.151.04.885.212-2.124 1.41-4.234 2.647-8.749 5.126-.737.408-1.608.891-1.932 1.072-.325.18-.945.534-1.387.786-1.564.875-2.184 1.245-2.184 1.307 0 .083.472.114 1.667.114.531 0 .974.008.974.016s-.62.405-1.387.88c-1.874 1.178-4.5 3.044-4.5 3.197 0 .016 1.18.032 2.612.032h2.611l.162-.114Z"/><path d="M92.302 64.949c.103-.028.192-.07.192-.094 0-.028.132-.142.295-.252 1.947-1.323 2.611-1.767 2.98-1.987.25-.142.443-.267.443-.275 0-.012.162-.118.368-.236.207-.121.517-.306.694-.416.192-.106.472-.283.664-.389.177-.11.487-.294.693-.416.576-.338.576-.338-.959-.338-1.623 0-1.682.126.605-1.167.399-.22 1.033-.577 1.417-.793.383-.216 1.018-.566 1.401-.782.384-.212.9-.514 1.166-.663l.988-.57c.679-.389 1.24-.715 1.904-1.12.295-.18.708-.427.914-.545.207-.122.369-.228.369-.236 0-.012.192-.137.443-.279 1.431-.848 3.983-2.788 3.747-2.851-.088-.024-.575-.047-1.092-.06-.516-.007-.929-.027-.929-.042 0-.016.103-.118.236-.232 1.741-1.512 3.792-4.093 4.884-6.147.855-1.634 1.578-3.9 1.268-3.987-.103-.023-.737-.055-1.431-.067l-1.239-.02v-1.02c0-3.033-1.151-6.32-3.113-8.928-.472-.633-.192-.574-2.921-.625-1.299-.027-2.42-.063-2.494-.082-.074-.02-.487-.334-.9-.695-1.785-1.52-3.334-2.534-5.503-3.586-2.05-.994-4.25-1.729-9.915-3.3-5.444-1.512-6.624-1.865-8.749-2.604a35.455 35.455 0 0 0-1.593-.518c-.192-.047-.708-.075-1.638-.095-1.903-.039-2.228-.07-2.656-.278-2.935-1.41-5.09-2.915-6.919-4.828-.767-.809-1.431-1.614-1.77-2.16a2.083 2.083 0 0 0-.31-.373l-.163-.161-1.667-.051a344.35 344.35 0 0 1-2.523-.086c-.457-.02-.9-.028-.959-.016-.191.031-.133.192.34.915 2.08 3.123 4.559 5.361 7.893 7.12.915.476 1.269.63 1.608.673.236.031 1.048.066 1.785.078.753.012 1.476.043 1.594.07.132.024.87.268 1.637.539 1.874.656 3.158 1.053 7.008 2.168 5.71 1.646 7.599 2.259 9.517 3.08 1.814.781 3.777 1.936 5.296 3.118.87.664 2.184 1.854 2.553 2.306.118.13.206.24.221.243 0 0 1.077.024 2.39.051 1.623.036 2.405.067 2.494.106.132.06 1.106 1.63 1.475 2.373 1.018 2.093 1.608 4.921 1.402 6.696-.074.688-.059.935.088.978.118.044.531.06 1.402.06h1.21v.2c0 .294-.561 1.846-1.004 2.812-.973 2.058-2.759 4.454-4.632 6.241-.384.361-.664.672-.62.691.044.02.502.036 1.003.036.62 0 .959.02 1.004.055.118.078-2.376 2.01-3.866 2.993-1.534 1.017-3.615 2.262-6.846 4.096-1.298.747-2.39 1.387-2.42 1.426-.029.059.148.07 1.27.09.855.012 1.313.036 1.298.067-.03.024-.605.377-1.299.782-2.139 1.253-5.267 3.228-5.267 3.323 0 .059 5.031.043 5.238-.016Z"/><path d="m82.254 64.781.649-.392a2.16 2.16 0 0 0 .295-.193c0-.012.162-.118.369-.24.354-.208.723-.424 1.357-.805a66.494 66.494 0 0 1 2.228-1.308c.295-.172.797-.455 1.092-.628.31-.177.693-.393.856-.483.162-.09.295-.185.295-.212 0-.032-.428-.055-1.24-.067-.678-.012-1.283-.031-1.328-.043-.044-.012.089-.126.31-.255.222-.126.576-.338.797-.468a75.244 75.244 0 0 0 1.55-.907c.22-.13.648-.373.929-.538.295-.17.53-.31.53-.318 0-.012.207-.138.458-.287.266-.15.472-.279.472-.29 0-.009.192-.134.443-.276.236-.145.797-.51 1.254-.817.443-.306.87-.593.93-.64 1.047-.68 3.585-2.75 4.676-3.794a5.54 5.54 0 0 1 .296-.279c.162-.134.132-.137-1.151-.169-.502-.012-.93-.027-.974-.04-.044-.011.074-.184.25-.384.193-.2.443-.483.561-.633.133-.149.296-.341.384-.431.162-.193.885-1.144 1.077-1.446.797-1.202 1.062-1.646 1.549-2.655.915-1.85 1.638-4.76 1.24-4.894-.133-.043-.517-.059-1.328-.059-.768 0-1.195-.02-1.343-.059-.177-.043-.25-.298-.325-1.19-.162-1.7-.649-3.248-1.593-5.02-.826-1.547-2.847-4.155-3.35-4.32-.088-.028-.471-.051-.855-.051-1.283 0-4.293-.095-4.47-.142-.089-.023-.458-.267-.826-.538-2.051-1.528-4.589-2.76-8.012-3.896-1.49-.495-2.33-.754-6.492-1.984-5.326-1.578-8.173-2.639-10.74-3.998-.443-.24-.856-.444-.915-.46-.06-.015-.664-.05-1.343-.074-.678-.024-1.313-.067-1.416-.095-.398-.11-2.67-2.195-3.305-3.02-.472-.62-1.269-1.693-1.416-1.897a9.095 9.095 0 0 0-.295-.432 6.878 6.878 0 0 1-.295-.467c-.236-.393-.65-1.112-.87-1.493-.163-.302-.163-.299-1.358-.35l-1.962-.086c-.458-.023-1.18-.04-1.594-.04-.752 0-.767 0-.679.115.045.063.163.278.251.483.28.624 1.387 2.635 1.874 3.401 1.047 1.638 2.257 3.087 3.393 4.062.605.53.782.6 1.49.6.296 0 .856.02 1.225.048l.694.043 1.003.561c1.756.97 4.072 1.929 6.875 2.852.65.212 2.744.86 4.648 1.442 1.918.58 4.057 1.248 4.78 1.488 3.718 1.23 6.433 2.636 8.882 4.58.472.38.914.668 1.106.71.236.056.605.071 1.505.071 1.033.004 3.408.063 3.511.095.089.023 1.18 1.382 1.609 2.01 1.475 2.137 2.213 4.066 2.523 6.603l.177 1.512 1.224.028c1.844.043 1.712-.004 1.594.593-.605 3.13-2.302 6.28-4.751 8.889-.251.27-.428.514-.384.545.044.04.34.06.841.06.96 0 1.254.027 1.254.121 0 .114-1.859 1.772-3.157 2.816-1.992 1.603-3.718 2.781-6.55 4.462-1.786 1.065-1.992 1.206-1.845 1.245.059.02.679.04 1.357.047.841.012 1.21.032 1.166.063-.044.028-1.225.707-2.626 1.513-3.32 1.9-4.574 2.65-4.5 2.69.044.016 1.21.031 2.582.031H81.9l.354-.216Z"/><path d="M71.724 64.904c.074-.05.398-.24.708-.42.576-.326 1.048-.593 1.933-1.107.25-.146.723-.42 1.062-.61l1.254-.71c.679-.381 1.328-.754 1.992-1.14.207-.125.487-.29.62-.364.31-.181.132-.213-1.24-.213-.56 0-1.077-.023-1.136-.047-.088-.039.133-.204.96-.687a3.52 3.52 0 0 0 .368-.236c0-.011.162-.117.369-.235 1.918-1.112 5.444-3.857 7.524-5.849 1.402-1.343 2.007-1.995 1.889-2.026-.059-.016-.59-.044-1.18-.063-.812-.028-1.077-.051-1.063-.099a4.36 4.36 0 0 1 .354-.47 21.427 21.427 0 0 0 2.48-3.94c.59-1.202.87-2.098 1.165-3.65.295-1.472.31-2.348.044-2.403-.103-.024-.752-.055-1.431-.07-.679-.017-1.313-.044-1.416-.067-.119-.024-.222-.256-.28-.605-.34-1.843-1.122-3.638-2.362-5.413-1.224-1.748-3.924-4.473-4.529-4.576-.147-.023-2.154-.086-4.662-.149a17.429 17.429 0 0 1-1.18-.051c-.089-.016-.68-.295-1.284-.617-2.095-1.103-3.807-1.724-9.62-3.495-6.624-2.015-9.294-3.068-11.832-4.655-.753-.463-1.844-1.304-2.42-1.861-.192-.181-.413-.35-.487-.378-.073-.023-.516-.058-.973-.074-.473-.016-.915-.051-1.004-.075-.074-.027-.369-.365-.62-.75-.855-1.265-1.135-1.764-1.932-3.464-.753-1.587-.944-2.03-1.18-2.66-.251-.687-.222-.671-1.314-.726a217.86 217.86 0 0 0-4.027-.157c-.458-.008-.458.079-.015 1.386 1.401 4.07 2.744 6.968 3.305 7.137.147.043.457.07.797.07.767 0 1.195.091 1.327.28.443.648 2.14 1.964 3.57 2.757 2.317 1.3 4.9 2.278 10.476 3.975 6.787 2.066 8.69 2.812 11.316 4.434l.679.413.84.027c.473.02 1.683.051 2.686.075 1.003.023 1.948.059 2.095.078.192.028.517.268 1.077.798 2.803 2.643 4.5 5.593 4.928 8.625.118.84.059.81 1.652.81.443 0 .974.01 1.18.027l.37.027-.104.994c-.265 2.647-1.578 5.507-3.821 8.33-.65.806-.679.767.56.767.812 0 1.034.015 1.107.07.207.145-2.803 3.056-4.987 4.84a58.21 58.21 0 0 1-4.485 3.251c-.664.42-.826.562-.678.59.118.015.649.031 1.21.035.56 0 1.091.012 1.195.031.22.036-.428.432-4.427 2.695-1.549.876-2.818 1.614-2.818 1.638 0 .031.812.047 2.641.047 2.597 0 2.641 0 2.774-.094Z"/><path d="M61.319 64.735c.722-.392 2.124-1.178 2.552-1.43.221-.125.752-.427 1.18-.675.443-.243.797-.452.797-.46 0-.007.266-.168.59-.357.34-.188.87-.51 1.195-.715.31-.204.708-.451.87-.55.488-.29.399-.314-1.062-.33-1.475-.011-1.505-.027-.988-.353a6.73 6.73 0 0 0 .546-.365c.118-.094.516-.39.87-.648 1.122-.837 2.921-2.333 3.733-3.115.088-.09.221-.212.28-.267a4.05 4.05 0 0 0 .295-.271c.104-.09.384-.358.635-.597.369-.361 2.242-2.357 2.818-3.009.088-.102.221-.263.31-.361.088-.094.118-.189.059-.216-.06-.024-.531-.043-1.063-.043-1.091 0-1.416-.04-1.283-.15.192-.16 1.43-2.023 1.814-2.718.827-1.512 1.255-2.67 1.609-4.371.295-1.348.31-3.362.044-3.433-.103-.028-.457-.051-.812-.055a38.06 38.06 0 0 1-1.475-.051l-.856-.047-.177-.538c-.546-1.654-1.018-2.589-1.918-3.877-1.505-2.145-4.116-4.45-6.757-5.966-.56-.318-.56-.318-1.313-.362a30.327 30.327 0 0 0-1.357-.043c-.325 0-.96-.016-1.417-.04-.472-.019-1.43-.058-2.169-.082-.723-.027-1.46-.055-1.652-.066-.192-.012-.989-.232-1.948-.542-.885-.291-2.744-.872-4.145-1.289-3.025-.915-5.858-1.85-7.097-2.345-4.53-1.799-6.816-3.483-8.321-6.15-.207-.37-.413-.684-.443-.692a8.23 8.23 0 0 0-.693-.039c-.34-.016-.708-.047-.797-.079-.162-.05-.384-.597-.767-1.79a52.185 52.185 0 0 1-.62-2.126c-.088-.337-.236-.84-.31-1.111a116.1 116.1 0 0 1-.56-2.054c-.104-.417-.222-.456-1.535-.5-.428-.01-1.224-.042-1.785-.066a99.174 99.174 0 0 0-1.756-.07l-.752-.024.103.389c.044.212.162.73.236 1.15 1.033 5.225 1.431 6.866 1.638 6.921.059.016.428.055.826.09l.723.06.266.557c.914 1.945 2.434 3.472 4.765 4.769 2.302 1.292 4.589 2.14 10.608 3.95 3.512 1.057 5.65 1.749 6.802 2.2.87.338.944.346 3.275.42.841.028 1.918.067 2.39.087.458.024 1.092.04 1.402.04.737 0 .959.07 1.652.518 3.762 2.49 6.477 6.01 6.964 9.069.06.35.148.652.207.675.044.024.752.067 1.564.099l1.46.055-.03 1.135c-.044 2.176-1.032 4.69-2.92 7.439-.37.546-.782 1.12-.9 1.276-.119.162-.192.303-.148.323.03.015.369.035.723.035.354.004.856.02 1.106.031.605.036.635-.015-.723 1.505a51.07 51.07 0 0 1-6.58 6.256c-1.475 1.167-1.49 1.112.37 1.112.84 0 1.12.016 1.12.055 0 .142-2.936 1.964-5.71 3.539-.855.49-1.563.907-1.563.92 0 .01 1.254.023 2.773.023h2.774l.458-.26Z"/></g><defs><clipPath id="a"><path fill="#fff" d="M0 0h358v65H0z"/></clipPath></defs></svg>