<svg xmlns="http://www.w3.org/2000/svg" fill="none" viewBox="0 0 152 189"><path fill="#fff" d="M71.751.493c-6.748.321-14.015 1.605-19.406 3.491l-3.034 1.044s-4.542 1.661-8.425 3.932c-1.478.843-2.796 1.565-2.955 1.565-.72.04-4.384 2.631-7.238 4.777l-1.068.921-2.356 1.886c-1.317 1.043-4.192 3.852-6.468 6.22C7.184 38.655-.881 59.722.077 78.582c.36 7.905 1.597 14.406 4.632 24.277 1.437 4.775 2.835 9.912 3.114 11.396.6 3.371 2.276 9.671 2.915 10.835.679 1.284 2.077 1.123 3.634-.442 1.717-1.645 1.916-1.525 5.15 3.451 2.916 4.535 6.909 13.242 9.584 21.108 3.394 9.791 6.549 16.693 8.146 17.856.519.362 1.637.642 2.515.642 2.037 0 3.155-1.404 6.629-8.146 1.437-2.808 3.314-6.179 4.193-7.463 1.637-2.448 4.152-4.214 5.51-3.893.44.121 2.276 1.846 4.033 3.812 6.788 7.544 8.864 9.591 14.175 13.885 7.587 6.099 11.02 8.306 15.293 9.831 2.077.762 4.113 1.806 4.672 2.368.52.561 1.997 3.089 3.274 5.537 2.117 4.133 2.436 4.535 3.594 4.615 1.038.12 1.398-.08 1.837-1.043.918-2.007 1.278-3.532 2.116-8.748.799-5.097 3.634-16.413 4.912-19.743 1.597-4.053 8.385-14.125 15.213-22.632 4.871-6.019 4.752-5.899 8.385-5.779l3.075.121 1.198-2.328c1.517-2.929 9.543-25.401 11.22-31.38 2.675-9.55 3.434-17.616 2.556-27.246-1.917-21.188-11.62-39.165-28.51-52.929-6.789-5.497-15.933-10.273-24.957-13.001C91.876 1.617 90 1.296 79.298.293c-.678-.04-4.073.04-7.547.2zm3.075 8.467l-.12 6.862-3.314.12c-2.955.12-3.434 0-4.312-.802-1.278-1.204-1.238-1.605.359-4.936 1.278-2.729 5.95-8.106 7.028-8.106.32 0 .439 2.047.36 6.862zm5.75-4.575c2.076 2.127 6.509 9.952 6.509 11.517 0 .522-.72.562-4.752.321-2.596-.16-4.832-.401-5.031-.481-.16-.12-.28-3.21-.28-6.902 0-7.905.12-8.066 3.554-4.455zm5.031-.561c3.155 1.525 6.19 3.732 9.384 6.821 2.396 2.368 6.948 8.267 6.628 8.588-.12.12-1.677-.16-3.514-.642-1.797-.442-4.192-.963-5.31-1.124-2.556-.361-3.355-1.083-4.472-4.173-.959-2.689-4.113-8.226-5.55-9.791-1.199-1.284-.4-1.204 2.834.32zM68.077 6.03c-1.197 1.685-2.555 3.852-2.954 4.815-1.01 2.183-.54 2.505-2.835 5.417-1.038 1.365-5.71 1.605-7.267 2.087-2.636.802-3.075.802-3.275-.12-.24-1.124 1.997-4.013 6.11-7.946 2.875-2.769 4.512-3.932 7.547-5.417 2.116-1.043 4.072-1.886 4.352-1.886.28 0-.48 1.364-1.677 3.05zm-5.789-1.365c-3.075 1.726-7.667 5.98-11.3 10.434l-1.478 1.805-3.394 3.772c-1.717-.722 0-5.658.879-7.825.838-2.046 6.588-5.577 13.017-8.025 2.396-.883 3.753-1.003 2.276-.16zm31.864.763c5.111 2.127 11.061 5.979 15.932 10.433 2.476 2.207 8.426 9.19 8.426 9.871 0 .442-1.078.08-4.473-1.605-1.357-.682-3.873-1.765-5.63-2.407-2.835-1.084-3.354-1.445-4.392-3.13-2.276-3.652-7.267-9.19-10.422-11.637-4.272-3.25-4.192-3.451.56-1.525zM55.62 4.827c0 .28-6.39 3.652-6.589 3.45-.12-.12.24-.791.48-1.233.518-.963 6.109-2.98 6.109-2.217zm47.636 2.167c16.891 6.822 31.465 20.585 39.172 37.038 2.076 4.414 3.434 7.785 3.154 7.785-.08 0-1.317-1.846-2.795-4.093-3.154-4.936-9.304-11.276-15.173-15.65-2.276-1.686-4.552-3.772-5.111-4.655-1.518-2.408-6.07-7.986-8.585-10.554-3.354-3.41-7.827-6.902-11.82-9.27-1.916-1.163-3.274-2.086-3.034-2.086.28 0 2.156.642 4.192 1.485zm-53.746.05c0 1.364-9.064 7.935-11.06 10.022-2.756 2.93-5.47 6.22-7.747 9.43-1.038 1.445-3.314 3.491-6.269 5.738-6.668 4.936-13.536 12.32-16.65 17.777-3.035 5.297-1.039-.723 2.675-8.106 4.312-8.587 12.059-18.017 19.845-24.117 3.01-2.32 6.64-4.783 9.503-6.58 1.837-1.084 9.703-4.686 9.703-4.164zm25.436 15.279v9.831c-.08 1.204-2.715 1.926-7.986 2.207-2.915.16-5.63.361-6.03.481-.758.201-.798.04-.519-1.765.6-4.039.797-11.93 3.394-14.406 1.763-1.68 6.19-.923 6.19-.923l1.517-.16c3.753-.402 3.394-.923 3.434 4.735zm11.02-4.254c1.877.24 2.037.361 2.596 1.966 1.038 3.01 3.115 12.159 3.115 13.804 0 1.044-.08 1.044-2.835.883-4.857-.338-7.303-.883-11.58-.883-.28 0-.28-15.97 0-16.252.24-.24 5.27.04 8.705.482zm-41.001-3.482s1.311 5.93 1.151 6.09c-.2.16-2.156 1.004-4.312 1.886-2.196.883-5.071 2.127-6.429 2.81-1.318.641-2.396 1.123-2.396 1.002 0-.601 6.589-8.226 7.108-8.266.12 0 4.877-3.522 4.877-3.522zm51.503 5.288c3.035.722 5.91 1.565 6.469 1.926 1.078.682 4.792 8.146 6.509 13.162.598 1.725 1.118 3.17 1.118 3.25 0 .08-.559.12-1.238.12-1.398 0-3.155 1.285-3.993 2.89-.32.642-1.278 3.25-2.117 5.818-.838 2.609-1.756 4.936-2.116 5.217-.679.602-1.158-.401-3.434-7.183-.798-2.408-1.837-5.096-2.276-5.939-.4-.883-1.278-4.093-1.837-7.183-.599-3.09-1.557-7.303-2.116-9.39-.559-2.086-.998-3.852-.998-3.892-.04-.24.719-.08 6.03 1.204zM60.93 18.67s-1.757 9.791-1.757 9.952c0 .12-.279 1.565-.559 3.13-.439 2.207-.798 2.97-1.477 3.25-.998.441-15.413 3.41-15.613 3.25-.28-.28 3.355-9.189 5.151-12.64l2.037-3.852 2.715-.963 9.503-2.127zm-16.89 7.985c-1.078 2.167-2.675 5.859-3.514 8.267l-1.557 4.414-3.714 1.364c-2.076.722-5.63 2.207-7.906 3.29-2.316 1.044-4.272 1.806-4.352 1.726-.32-.28 4.791-11.396 6.349-13.804 1.357-2.127 1.916-2.608 5.39-4.374 4.592-2.327 9.983-4.695 10.702-4.735.319-.04-.24 1.525-1.398 3.852zm70.636-.2c4.473 2.207 6.709 3.571 7.387 4.494 1.837 2.408 7.787 14.968 7.108 14.968-.08 0-2.076-.923-4.472-2.047-2.356-1.123-5.87-2.568-7.747-3.21-3.434-1.204-3.434-1.204-4.272-3.33-.439-1.164-.958-2.609-1.118-3.21-.16-.563-1.318-3.17-2.556-5.82-1.238-2.648-2.236-4.935-2.236-5.136 0-.561.879-.2 7.906 3.29zM24.714 36.728c-.919 1.927-2.356 5.217-3.235 7.304-1.517 3.651-1.717 3.892-4.312 5.698-3.793 2.608-6.389 5.016-8.505 7.905-.998 1.324-2.356 2.89-3.075 3.451L4.35 62.129l.28-1.244c.559-2.407 4.392-9.71 7.028-13.442 1.477-2.087 4.072-5.217 5.83-6.983 3.513-3.611 8.345-7.744 8.664-7.423.12.12-.519 1.765-1.437 3.691zm109.169 3.492c5.75 5.818 9.663 11.596 12.298 18.298l.799 2.087-4.273-4.294c-2.356-2.408-5.71-5.297-7.427-6.46-2.994-2.007-3.194-2.248-3.953-4.615-.399-1.365-1.677-4.414-2.795-6.822-1.118-2.408-2.036-4.495-2.036-4.575 0-.561 3.314 2.328 7.387 6.38zm-44.802-4.134c1.637.16 2.316.442 2.755 1.124.919 1.525 2.356 11.838 2.356 17.094 0 2.448-.08 2.649-.679 2.127-.479-.401-3.074-.722-8.505-1.003-6.468-.361-7.786-.522-7.786-1.084 0 0-.2-13.121-.2-14.566 0-2.087.4-4.093.4-4.093s2.874-.12 5.99 0c1.876.08 4.431.281 5.67.401zm-14.495 3.13l.12 4.776v3.45s.2 5.297.2 6.1v1.525l-5.99.28c-3.274.161-7.267.282-8.824.282h-2.875l.24-1.164c.12-.642.319-2.368.479-3.893.32-3.49 1.397-12.158 1.677-13.362.2-1.003.479-1.043 7.107-1.284l8.226-.24-.36 3.53zm-17.01-1.605c-.36 1.445-1.477 10.193-1.797 14.005-.12 1.846-.439 3.611-.678 3.892-.24.321-1.198.562-2.157.562-1.597 0-11.819 1.324-14.694 1.926l-1.198.24.28-2.968c.36-3.692 3.074-14.447 3.713-14.888.879-.522 14.016-3.571 15.972-3.652.6-.04.719.161.56.883zm53.267 2.77c.28.16.879 1.484 1.318 2.888.998 3.29 3.234 14.366 2.915 14.687-.12.12-1.198 0-2.396-.24-5.031-1.084-6.668.48-8.825 8.346-.758 2.728-1.637 5.497-1.996 6.14-.559 1.083-.679 1.163-1.238.601-1.038-1.043-3.913-11.115-3.913-13.723 0-1.325-.2-3.612-.4-5.137-.718-5.176-.998-10.353-.519-9.911.24.24 1.039 2.528 1.717 5.056 1.198 4.173 1.997 5.698 3.075 5.698s2.436-2.408 3.873-6.782c1.957-5.939 3.155-7.985 4.752-7.945.599 0 1.358.12 1.637.321zM36.933 47c-.76 3.13-1.518 6.822-1.678 8.186-.16 1.405-.479 2.689-.758 2.89-.52.4-14.096 3.852-15.134 3.852-.759 0-.799.481 1.038-7.304.719-3.01 1.518-5.738 1.757-6.059.28-.32 1.637-1.164 3.035-1.886 2.835-1.444 11.939-5.297 12.658-5.337.28-.04-.04 2.087-.919 5.658zm80.578-4.414c1.198.401 4.513 1.886 7.348 3.29l5.23 2.529.679 2.247c.959 3.01 2.516 10.915 2.276 11.155-.12.12-2.915-.441-6.229-1.244-3.314-.842-6.708-1.645-7.587-1.805-1.118-.201-1.637-.522-1.757-1.164-.119-.522-.758-3.652-1.437-7.023-.719-3.37-1.477-6.781-1.717-7.584-.519-1.886-.559-1.846.319-1.484.4.16 1.717.642 2.875 1.083zm-98.507 8.708c-.12.401-.719 3.13-1.358 6.019-.599 2.89-1.437 5.738-1.837 6.3-1.317 1.926-2.036 3.611-2.715 6.34-.838 3.371-1.477 5.056-1.957 5.056-.16 0-.958-1.163-1.677-2.568-.758-1.404-1.836-2.889-2.395-3.25-.959-.642-1.118-.602-2.636.24l-1.597.924.879-2.569c.678-2.006 1.517-3.25 3.673-5.577 1.557-1.646 3.194-3.652 3.674-4.495 1.357-2.207 6.668-7.102 7.786-7.143.2 0 .28.322.16.723zm120.269 4.053c1.318 1.163 3.315 3.33 4.433 4.855 2.116 2.81 5.31 8.748 4.911 9.15-.12.12-1.437-.522-2.915-1.405-1.477-.923-4.073-2.287-5.79-3.05-1.757-.762-3.474-1.765-3.873-2.167-.359-.441-.799-1.765-.958-3.01-.16-1.203-.639-3.57-1.078-5.256-.44-1.686-.799-3.25-.799-3.491 0-.562 2.995 1.565 6.069 4.374zM74.906 69.152v12.72l-2.156-.32c-1.198-.121-4.832-.924-8.106-1.726-3.234-.763-6.31-1.525-6.868-1.686l-.998-.24.16-10.032c.08-5.538.279-10.193.439-10.353.12-.12 3.913-.402 8.385-.602 4.432-.16 8.345-.321 8.625-.361.4-.08.519 2.688.519 12.6zm18.048-10.594c.68.843 1.398 2.127 1.638 2.93.24.802.558 5.737.678 10.954l.32 9.51-.879-.762c-.559-.481-1.677-.803-3.114-.883-1.238-.08-8.1 0-8.1 0H79.02c-.759.442-1.598-1.645-1.598-5.136V64.65l-.04-1v-1.016l-.12-1.188c.08-1.685.12-3.41.12-3.852.04-.722.48-.762 7.188-.642l7.188.16 1.197 1.445zM54.901 62.37c-.04 2.689-.2 7.183-.36 9.992-.239 4.414-.359 5.176-.958 5.176-.36 0-3.114-.4-6.11-.842-2.954-.482-6.548-.843-7.985-.843-4.193 0-4.153.16-3.554-8.226.28-4.173.679-7.344.959-7.624.638-.642 14.933-2.689 17.489-2.488.519 0 .599.842.519 4.855zm60.294-2.448c.44.723.959 6.942.959 12.119l.04 4.414-3.434.441c-5.67.763-6.589 1.967-9.144 11.998-1.757 7.023-2.356 8.066-3.235 5.86-1.118-2.69-1.956-5.619-2.395-8.388-.48-3.13-.6-16.693-.12-16.251.16.16.599 1.284.958 2.448 1.398 4.694 3.354 3.45 5.391-3.451 1.557-5.137 2.395-7.304 3.553-9.03.799-1.203.839-1.203 3.954-.922 1.756.16 3.314.481 3.473.762zm-80.698 1.084c-.16.642-.44 4.093-.68 7.664-.239 3.572-.478 6.541-.558 6.581-.04.08-3.474.16-7.627.24l-7.547.121.16-5.457c.08-3.01.28-5.658.52-5.939.199-.24 1.437-.762 2.794-1.164 2.117-.642 11.86-3.05 12.818-3.17.2-.04.24.482.12 1.124zm91.679 1.003c5.87 1.485 7.148 1.926 7.427 2.648.16.482.4 3.09.559 5.779l.24 4.895-3.035.201c-4.991.401-12.338.401-12.578.04-.12-.2-.319-3.732-.519-7.825-.239-6.06-.2-7.504.28-7.504.279 0 3.713.803 7.626 1.766zm15.413 5.417c4.233 2.167 7.946 5.658 7.946 7.504 0 .682-11.499 1.605-12.418 1.003-.279-.16-.599-2.528-.759-5.658l-.319-5.377 1.637.682c.879.362 2.636 1.204 3.913 1.846zM15.929 71.32c-.24 4.052-.44 5.016-1.477 6.982-.64 1.244-1.158 2.528-1.158 2.849 0 .923-1.398 3.571-1.877 3.531-.24 0-1.078-1.444-1.877-3.25-2.276-5.177-2.675-5.578-5.11-5.578-1.877 0-2.037-.08-2.037-.963 0-.562.639-1.766 1.477-2.769 1.837-2.167 2.316-1.966 4.393 1.686 1.158 2.126 1.717 2.688 2.635 2.808.998.12 1.238-.12 1.957-1.845.479-1.044 1.277-3.331 1.796-5.056.52-1.726 1.079-3.13 1.238-3.13.16 0 .16 2.126.04 4.735zm17.45 6.22c.24.44.439 2.086.439 3.651 0 1.605.28 5.899.639 9.63.32 3.692.599 7.826.599 9.15.04 3.772-.839 3.411-7.068-2.97-2.915-2.97-6.07-5.858-7.028-6.38-.958-.562-1.956-1.485-2.196-2.087-.24-.602-.559-3.41-.719-6.26l-.28-5.136 5.431-.12c2.955-.04 6.39-.16 7.587-.2 1.757-.041 2.276.08 2.596.721zm-28.031 0c.918.521 2.954 4.333 3.753 7.102.599 2.006 2.036 3.09 2.995 2.247.32-.24 1.118-1.886 1.797-3.611.718-1.766 1.397-3.21 1.517-3.21.32 0 .799 4.373.799 6.982 0 1.364-.2 1.966-.759 2.247-.44.24-1.398 1.765-2.156 3.45-1.278 2.81-1.438 2.97-1.997 2.248-.32-.442-1.118-2.568-1.837-4.735-1.477-4.655-2.435-6.701-3.753-7.865-.998-.883-3.314-4.374-3.314-4.936 0-.481 1.996-.401 2.955.08zm43.244.762c2.955.441 5.51.923 5.75 1.163.44.482.759 3.732 1.118 11.999l.28 6.18-4.513.681c-2.475.402-6.508 1.365-8.944 2.167-2.396.843-4.472 1.405-4.592 1.325-.08-.121-.36-2.248-.559-4.735-.2-2.529-.559-6.461-.799-8.748-.24-2.287-.399-5.779-.399-7.745v-3.611l3.634.32c2.036.121 6.11.603 9.024 1.004zm85.65 3.972c-.399 7.745-.439 7.946-1.877 7.625-1.517-.281-3.194.24-9.383 3.09-2.715 1.243-5.031 2.247-5.151 2.247-.12 0-.12-.321 0-.723.12-.4.319-4.253.479-8.547.16-4.294.399-7.905.559-8.066.439-.481 2.755-.642 9.424-.722l6.189-.08-.24 5.176zm15.493-4.735c.359.602-.439 1.967-2.955 4.936-1.238 1.445-2.915 3.933-3.793 5.498-.839 1.565-2.196 3.972-3.035 5.337l-1.477 2.487-1.398-1.645-1.437-1.645.239-4.213c.16-2.328.36-5.658.519-7.424l.24-3.17 2.356.16c1.318.08 3.114-.04 4.033-.24 2.236-.562 6.389-.602 6.708-.08zm-33.342 4.735c0 4.415-.639 13.283-1.038 14.326-.12.28-1.557 1.364-3.154 2.368-3.514 2.166-4.632 3.571-5.83 7.182-.879 2.609-2.795 10.394-3.793 15.329-.52 2.568-1.398 3.17-2.077 1.445-.199-.522-1.078-2.568-1.877-4.535l-1.477-3.571.24-10.433c.16-5.738.439-10.433.599-10.433.16 0 .599.842.998 1.886.4 1.003.998 1.966 1.357 2.126 1.478.562 2.237-.2 3.115-3.29 1.917-6.621 4.592-14.366 5.191-14.968.359-.36 1.917-.882 3.474-1.163 4.672-.843 4.312-1.164 4.272 3.731zM63.805 81.19c2.995.803 6.589 1.605 7.946 1.766l2.516.28.04 1.445c0 .843.2 2.247.36 3.17.359 1.565.359 4.013.04 4.374l.279 18.9c.08 1.445 0 2.649-.2 2.649l-9.128-6.924c-2.395-1.862-4.295-4.515-6.285-6.8l-1.517-1.685-.28-7.143c-.16-3.933-.399-8.146-.559-9.35-.32-2.769-.479-2.728 6.788-.682zm30.747 3.41c.918 1.807.958 2.368.878 12.681-.04 5.939-.2 11.718-.32 12.881-.239 1.806-.399 2.087-1.317 2.167-.599.04-2.476.602-4.193 1.244-2.675 1.003-3.833 1.204-7.547 1.204l-4.432.04-.2-1.685c-.55-4.551-.706-18.312-.08-21.388l.448-6.35s.072-2.61 1.23-2.73c.998-.121 3.289-.551 3.289-.551l4.043-.24h5.246s2.036.802 2.955 2.728zm-89.484-.28c1.597 1.926 2.316 3.45 3.833 8.146 1.917 6.1 2.955 6.38 5.391 1.565.799-1.645 1.677-3.05 1.877-3.21.479-.281.479-.321 1.837 6.862.838 4.494.918 5.136.319 4.895-2.156-.963-2.835-.722-4.472 1.445-1.797 2.327-2.077 2.488-2.356 1.444-2.755-9.75-3.873-12.84-5.95-16.733-2.236-4.213-2.755-5.738-1.956-5.738.2 0 .878.602 1.477 1.324zm143.789-.361c-.16.522-1.997 4.454-4.113 8.748-2.077 4.293-4.432 9.269-5.191 11.075-1.917 4.334-2.156 4.494-4.193 2.648-.918-.842-1.877-1.525-2.116-1.525-.719 0-.599-.882.639-5.698l1.158-4.414 1.078 1.084c1.278 1.204 2.955 1.364 3.873.32.32-.4 1.797-2.848 3.274-5.376 2.835-4.976 4.832-7.825 5.511-7.825.239 0 .279.441.08.963zM26.271 98.204c4.632 4.735 5.99 5.859 7.427 6.26l1.717.482.28 2.849c.958 10.072 2.036 18.057 3.394 24.799.24 1.123.08 1.444-.879 2.086l-1.158.763-1.318-1.525c-.758-.883-2.914-5.096-4.831-9.39-1.917-4.294-4.512-9.671-5.79-11.918-1.278-2.247-2.555-4.855-2.875-5.778-.599-1.766-3.075-13.804-3.075-14.888 0-.923.72-.28 7.108 6.26zm106.733-6.14c.32.803-.958 6.943-2.076 10.113-.799 2.247-1.198 2.728-4.233 5.056-1.797 1.404-5.35 4.494-7.826 6.902-2.516 2.408-4.552 4.093-4.552 3.812 0-.321.359-2.488.799-4.815a250.717 250.717 0 001.517-9.27c.359-2.769.838-5.417.998-5.899.36-.842 5.071-3.41 9.903-5.457 2.835-1.164 5.151-1.364 5.47-.441zM5.627 93.189c-.08.321-.28.12-.44-.441-.159-.722-.119-.883.2-.562.24.24.36.682.24 1.003zm141.033 1.043c-2.835 7.264-8.904 22.151-9.463 23.275-.759 1.444-1.717 1.685-2.995.722-.439-.361-1.597-.642-2.595-.642-1.478 0-2.077.241-3.434 1.485-.959.842-1.677 1.284-1.677 1.003 0-.321.998-3.01 2.276-6.06 1.238-3.009 2.475-6.019 2.715-6.661l.439-1.204 2.156 1.726c3.634 2.889 3.634 2.929 8.665-7.303 4.033-8.267 5.75-10.995 3.913-6.34zM6.546 95.435c0 .241-.16.16-.4-.2-.24-.361-.4-.803-.4-1.044 0-.24.16-.16.4.201.24.361.4.803.4 1.043zM55.7 102.82c.16 1.725.519 5.618.758 8.627.24 3.01.56 6.06.679 6.782l.24 1.284H54.66c-2.475-.04-2.915.08-4.99 1.525-2.357 1.645-3.834 3.25-6.909 7.584l-1.757 2.488-.439-2.247c-.759-3.853-1.677-10.474-2.116-15.73-.24-2.769-.56-5.859-.68-6.862l-.239-1.766 2.875-1.324c3.514-1.605 11.54-3.732 13.537-3.612l1.477.08.28 3.171zm59.296-1.164c-.32 2.328-.839 5.538-2.436 14.165-.838 4.615-1.158 5.538-2.715 7.946-2.236 3.41-3.235 6.46-4.592 13.844-1.597 8.828-1.797 10.112-2.236 12.519-.4 2.328-1.198 4.495-1.717 4.495-.16 0-.919-1.726-1.637-3.852-1.638-4.695-3.554-8.588-4.472-9.109-.6-.362-.56-1.285.479-11.156.678-5.939 1.317-10.714 1.477-10.634.12.121.719 1.364 1.278 2.769 1.158 3.01 2.356 4.093 3.713 3.371.479-.281.879-.522.879-.562.04-1.405 4.831-19.021 5.55-20.425.599-1.244 1.837-2.649 3.274-3.772 3.075-2.408 3.474-2.368 3.155.401zM9.061 103.461c0 .241-.16.12-.4-.241-.239-.321-.398-.883-.398-1.244.04-.682.758.682.798 1.485zm12.778 9.711c.878 3.009 1.877 6.26 2.156 7.223.32 1.003.48 1.806.4 1.806-.08 0-.92-1.285-1.877-2.85a141.56 141.56 0 00-3.275-4.855c-1.956-2.568-3.354-2.689-5.63-.441l-1.557 1.524-.48-1.203c-.638-1.726-1.636-6.14-1.636-7.143.04-.763.08-.763.399.12.679 1.605 2.316 1.244 3.633-.842 1.997-3.13 2.197-3.17 4.353-.843 1.637 1.846 2.036 2.688 3.514 7.504zm107.172-5.056c0 .321-3.274 8.146-5.67 13.603-1.317 3.05-2.595 5.177-4.153 6.982-2.795 3.17-8.904 11.356-9.742 13.002-.36.682-.719 1.123-.839 1.043-.399-.441 4.193-19.462 5.071-20.746.719-1.164 9.983-10.273 12.578-12.4 1.957-1.605 2.755-2.046 2.755-1.484zm13.696 1.765c-.399 1.405-5.231 15.048-5.949 16.814-.799 2.006-1.677 2.488-3.354 1.846-1.877-.723-2.915-.522-4.752 1.083-2.276 1.926-10.941 13.202-15.293 19.863-1.877 2.809-3.474 5.057-3.514 5.016-.36-.361 2.795-7.102 8.106-17.455 5.51-10.795 5.869-11.396 8.984-14.526 3.554-3.612 4.312-3.893 6.988-2.448.838.481 1.836.842 2.156.842 1.278 0 2.516-1.845 4.472-6.741 1.118-2.769 2.116-5.056 2.196-5.056.08 0 .08.361-.04.762zm-124.262 6.742c4.632 6.099 6.828 10.995 12.298 27.487 4.632 14.005 5.99 16.413 9.184 16.413 1.717 0 3.594-1.525 5.87-4.816.878-1.284 1.637-2.327 1.757-2.327.479 0-5.67 11.075-6.669 12.078-1.118 1.044-1.197 1.084-2.236.402-1.717-1.124-5.11-8.748-9.263-20.907-2.636-7.745-7.947-18.338-10.981-21.95-1.318-1.605-3.314-1.645-4.712-.16-.559.561-1.118 1.043-1.278 1.043-.24 0-2.076-5.618-2.076-6.34 0-.121.639-.161 1.397-.081 1.278.161 1.558 0 2.636-1.524.679-.963 1.437-1.726 1.717-1.726s1.318 1.084 2.356 2.408zm76.027-1.726c.36.923-.52 15.008-1.318 20.987-.759 5.658-.958 5.859-4.831 5.498-3.634-.402-10.382-2.649-10.941-3.652-.24-.482-.32-2.608-.2-5.096.08-2.368.2-6.982.2-10.233l.04-5.899h4.711c3.953-.04 5.231-.24 7.867-1.123 3.833-1.324 4.152-1.365 4.472-.482zm-26.673-4.471l2.405 1.743 3.303 2.548 1.599 1.464-.04 9.992c-.04 5.498-.16 10.072-.28 10.193-.44.441-4.672-2.087-6.708-3.973-1.158-1.083-3.474-3.812-5.191-6.099-2.675-3.532-3.194-4.455-3.514-6.541l-1.517-11.473-.28-7.301s6.897 7.78 10.223 9.447zm-38.613 14.583c3.713 8.628 4.592 10.193 6.389 11.236 1.437.843 1.597.843 2.915.201l1.437-.642 1.198 1.645c1.278 1.766 3.314 3.291 4.512 3.291.56 0 .2.923-1.677 4.253-1.318 2.368-3.035 5.056-3.873 5.979-1.278 1.485-1.597 1.645-2.356 1.204-.48-.241-1.158-.883-1.477-1.404-1.198-1.886-4.473-9.872-5.47-13.403-3.075-10.714-5.391-19.221-5.351-19.582.04-.964 1.237 1.284 3.753 7.222zm27.831-2.889c.6.642 1.118 1.605 1.118 2.167 0 1.003 2.236 11.356 2.756 12.881.279.723.12.682-.919-.281-3.833-3.491-7.666-3.21-11.22.843-1.637 1.846-4.512.682-6.15-2.528l-.838-1.645 1.078-2.007c1.517-2.728 5.55-7.584 7.707-9.229 2.395-1.846 4.831-1.926 6.468-.201zm7.986 9.551c1.518 1.725 3.434 3.25 6.07 4.815l3.833 2.287v6.019c0 3.331-.12 6.06-.24 6.06-.758 0-7.387-5.297-8.944-7.183-1.717-2.006-1.996-2.689-3.194-7.745-.76-3.009-1.478-6.38-1.637-7.423l-.28-1.886 1.078 1.284c.639.682 2.116 2.407 3.314 3.772zm44.962-3.692c-1.438 5.176-2.955 13.563-4.273 23.796-.519 4.293-2.635 16.131-3.354 19.101-.16.561-.519 1.203-.799 1.484-.718.562-.798.442-2.994-4.935-2.356-5.819-3.035-6.742-5.83-7.544-1.278-.362-2.276-.843-2.276-1.084 0-.241.439-2.006 1.038-3.892.559-1.886 1.397-5.137 1.797-7.223.44-2.047.998-3.812 1.238-3.893.24-.08.798.843 1.277 2.087 3.634 9.751 3.954 10.473 4.952 10.714 2.116.522 2.595-.923 4.791-13.764 1.278-7.584 3.474-15.569 4.273-15.569.2 0 .279.321.16.722zm3.354 14.446c-4.832 9.791-5.551 12.119-8.026 26.324-1.597 9.269-3.314 15.529-4.113 15.288-.28-.08-1.278-1.725-2.236-3.651-2.556-5.096-3.594-6.019-7.467-6.581-3.115-.442-3.194-.722-.4-1.284 3.395-.682 4.313-.241 6.23 2.809 1.677 2.648 2.875 3.33 4.392 2.528 1.158-.642 1.797-3.01 3.793-14.366 2.556-14.526 3.834-18.82 7.028-23.515 2.116-3.13 4.752-6.501 4.951-6.3.04.04-1.796 4.013-4.152 8.748zm-54.505-3.892c3.115 3.21 3.394 3.651 4.951 8.306.64 1.846 1.797 4.775 2.596 6.501.798 1.725 1.358 3.17 1.278 3.29-.08.08-2.117-2.729-4.472-6.3-2.356-3.531-4.712-6.902-5.191-7.424-1.358-1.524-4.073-3.451-4.912-3.451-.4 0-1.238-.16-1.877-.401-1.078-.441-1.078-.481-.399-1.244.919-1.043 3.115-2.086 4.313-2.127.639 0 1.876.964 3.713 2.85zm22.48 2.688c2.556.843 5.072 1.364 7.348 1.525 2.556.16 3.474.361 3.474.803 0 2.407-3.554 14.887-4.233 14.887-1.038 0-9.942-5.136-10.541-6.059-.36-.482-.48-12.48-.16-12.48.12 0 1.956.602 4.113 1.324zm-27.95.321c1.517.682 5.03 4.173 4.632 4.575-.12.08-.56-.04-1.039-.281-.479-.241-1.597-.482-2.515-.482-2.476 0-5.39 2.528-8.945 7.825-2.196 3.21-4.512 5.658-5.39 5.658-.879 0-2.196-1.444-3.274-3.651l-.919-1.806 1.158.441c2.396.923 3.514-.08 7.467-6.541 4.273-7.022 3.833-6.54 5.55-6.54.879 0 2.316.361 3.275.802zm19.166 9.872l2.396 1.565.04 2.207c0 1.203.04 3.491.08 5.016 0 1.565-.08 2.969-.2 3.089-.36.362-3.793-4.614-5.39-7.784-1.438-2.89-3.315-7.745-3.315-8.507 0-.241.879.28 1.957 1.203 1.118.883 3.075 2.328 4.432 3.211zm7.946 5.136c1.757 1.043 4.033 2.207 5.111 2.568 1.039.361 1.917.763 1.917.883 0 .883-2.955 5.457-4.073 6.34-1.158.883-1.677 1.003-3.354.843-2.835-.321-3.035-.803-3.035-7.143 0-2.969.04-5.417.12-5.417.12 0 1.597.883 3.314 1.926zm13.177 5.257c.36 0 2.915 4.895 3.913 7.504 1.238 3.21 2.316 4.855 3.434 5.216.4.161.44.442.08 1.204-.399.923-.519.883-2.396-1.806-2.316-3.25-3.673-3.932-6.309-3.21-2.595.722-6.588.482-8.904-.522l-2.036-.882 1.836-.883c1.797-.843 2.955-2.207 5.151-5.939l1.158-1.926 1.997.602c1.118.361 2.036.642 2.076.642zm8.106 24.437c0 .241-.2.402-.399.402-.24 0-.44-.161-.44-.402 0-.24.2-.441.44-.441.199 0 .399.201.399.441z"/></svg>
