<svg width="85" height="25" viewBox="0 0 85 25" fill="none" xmlns="http://www.w3.org/2000/svg">
<path fill-rule="evenodd" clip-rule="evenodd" d="M25.0656 1.22585C25.0656 0.827588 24.7392 0.504211 24.3373 0.504211H1.51736C1.11542 0.504211 0.789062 0.827588 0.789062 1.22585V23.8372C0.789062 24.2354 1.11542 24.5588 1.51736 24.5588H24.3373C24.7392 24.5588 25.0656 24.2354 25.0656 23.8372V1.22585Z" fill="#144E8C"/>
<path fill-rule="evenodd" clip-rule="evenodd" d="M25.0656 1.22585C25.0656 0.827588 24.7392 0.504211 24.3373 0.504211H1.51736C1.11542 0.504211 0.789062 0.827588 0.789062 1.22585V23.8372C0.789062 24.2354 1.11542 24.5588 1.51736 24.5588H24.3373C24.7392 24.5588 25.0656 24.2354 25.0656 23.8372V1.22585Z" fill="#1B72BE"/>
<path fill-rule="evenodd" clip-rule="evenodd" d="M25.0656 1.22585C25.0656 0.827588 24.7392 0.504211 24.3373 0.504211H10.7424L0.789062 17.5864V23.8372C0.789062 24.2354 1.11542 24.5588 1.51736 24.5588H24.3373C24.7392 24.5588 25.0656 24.2354 25.0656 23.8372V1.22585Z" fill="#0568AA"/>
<path fill-rule="evenodd" clip-rule="evenodd" d="M12.0133 24.5588H10.3203L5.94712 15.8473L14.4691 0.504211H15.8405L6.91892 15.8156L12.0133 24.5588ZM16.5996 24.5588H12.3775L7.40237 16.0204H25.0673L25.0656 17.6146L16.5996 24.5588ZM12.4031 0.504211H10.9852L0.789062 18.0029V20.4365L12.4031 0.504211ZM14.8661 15.7057H10.0643C9.50378 15.7057 8.98259 15.4152 8.70231 14.9343C8.42243 14.4539 8.42243 13.8602 8.70231 13.3799L11.1066 9.25364L14.8661 15.7057ZM25.0656 15.7057H15.2302L11.2886 8.94109L16.2047 0.504211L17.9859 0.505323L15.3987 9.22608L16.5996 11.6704L25.0656 14.9692V15.7057Z" fill="#074F7F"/>
<path fill-rule="evenodd" clip-rule="evenodd" d="M25.0655 24.5587H12.7416L7.94867 16.333H25.0655V24.5587ZM11.6491 24.5587H0.789062V18.628L11.3493 0.504211H15.4763L6.55472 15.8157L11.6491 24.5587ZM14.3208 15.395H10.1482C9.68237 15.395 9.25196 15.1528 9.01906 14.753C8.78644 14.3539 8.78644 13.8603 9.01906 13.4612C9.94595 11.8704 11.1066 9.87866 11.1066 9.87866L14.3208 15.395ZM25.0655 15.395H15.4137L11.6528 8.94114L16.5687 0.504211H25.0655V15.395Z" fill="url(#paint0_radial)"/>
<path fill-rule="evenodd" clip-rule="evenodd" d="M25.6245 25H12.9951L7.94439 16.3319H25.6157L25.6245 25ZM6.55044 15.8147L11.9026 25H0.0397338L0 19.9737L11.6382 0H15.7652L6.55044 15.8147ZM8.44898 16.6206L13.1633 24.7115H25.3329L25.3249 16.6206H8.44898ZM11.8064 0.288702L0.291934 20.05L0.328775 24.7115H11.3981L6.21406 15.8147L15.2606 0.288702H11.8064ZM14.3166 15.3939H10.133L10.1275 15.3937H10.1167L10.1112 15.3935H10.1058L10.0841 15.3925L10.0787 15.3923L10.0732 15.3921L10.0678 15.3918L10.0624 15.3914L10.057 15.3911L10.0516 15.3906L10.0462 15.3904L10.0247 15.3885L10.0193 15.3881L10.014 15.3876L10.0086 15.3871L10.0032 15.3864L9.99789 15.386L9.99255 15.3852L9.9872 15.3848L9.97653 15.3834L9.97122 15.3827L9.96588 15.382L9.94995 15.3798L9.94464 15.3789L9.93935 15.3782L9.93407 15.3773L9.92878 15.3766L9.91821 15.3747L9.90768 15.3728L9.90244 15.3719L9.89718 15.3709L9.89194 15.37L9.8867 15.3688L9.88146 15.3679L9.87624 15.3667L9.87101 15.3657L9.86579 15.3646L9.8606 15.3634L9.85538 15.3622L9.85019 15.3613L9.845 15.3599L9.83981 15.3587L9.82947 15.3564L9.8243 15.3549L9.81401 15.3526L9.80372 15.3498L9.78324 15.3441L9.77305 15.3413L9.76797 15.3399L9.7629 15.3383L9.75783 15.3369L9.75275 15.3352L9.7477 15.3336L9.74265 15.3322L9.7376 15.3305L9.72253 15.3256L9.71752 15.3237L9.70752 15.3204L9.70254 15.3188L9.69258 15.315L9.68763 15.3134L9.68267 15.3115L9.67774 15.3096L9.67279 15.3077L9.66786 15.3058L9.65313 15.3002L9.64825 15.2981L9.64337 15.2962L9.63848 15.2941L9.63362 15.2922L9.6239 15.288L9.61907 15.2859L9.61423 15.284L9.60942 15.2817L9.59979 15.2774L9.59021 15.2732L9.58545 15.2708L9.58068 15.2687L9.57592 15.2664L9.57118 15.2643L9.56643 15.2619L9.55228 15.2549L9.54289 15.2502L9.53355 15.2455L9.52888 15.2429L9.52424 15.2405L9.51961 15.238L9.51499 15.2356L9.51037 15.233L9.49657 15.2253L9.49199 15.2229L9.48744 15.2203L9.48289 15.2175L9.47834 15.2149L9.47381 15.2124L9.46931 15.2095L9.46478 15.207L9.4603 15.2044L9.45579 15.2015L9.45131 15.1987L9.44685 15.1959L9.4424 15.1933L9.43353 15.1877L9.42471 15.182L9.4203 15.179L9.41592 15.1762L9.41155 15.1734L9.40719 15.1703L9.40283 15.1675L9.39849 15.1644L9.39418 15.1614L9.38986 15.1586L9.38555 15.1555L9.38126 15.1525L9.36845 15.1433L9.36423 15.1402L9.35999 15.1369L9.35577 15.1339L9.35157 15.1308L9.34738 15.1276L9.34321 15.1245L9.33903 15.1212L9.33074 15.1146L9.32661 15.1116L9.32249 15.1083L9.31838 15.105L9.31431 15.1015L9.30615 15.0949L9.30212 15.0916L9.29807 15.0881L9.29406 15.0848L9.29003 15.0815L9.28206 15.0745L9.27808 15.0712L9.27412 15.0677L9.26625 15.0606L9.26234 15.0571L9.25068 15.0465L9.24681 15.0428L9.24297 15.0392L9.23915 15.0355L9.23531 15.0319L9.23152 15.0282L9.22773 15.0247L9.22019 15.0171L9.21644 15.0134L9.209 15.0059L9.2016 14.9984L9.19793 14.9946L9.19428 14.9908L9.19062 14.9868L9.187 14.9831L9.18339 14.9793L9.17979 14.9753L9.17621 14.9713L9.17263 14.9676L9.1691 14.9636L9.16554 14.9596L9.15502 14.9476L9.14463 14.9356L9.14122 14.9316L9.1378 14.9274L9.13439 14.9234L9.13102 14.9192L9.12766 14.9152L9.12429 14.911L9.12097 14.9067L9.11765 14.9027L9.11433 14.8985L9.10779 14.8901L9.10129 14.8816L9.09807 14.8774L9.09487 14.8731L9.09169 14.8689L9.08852 14.8645L9.08536 14.8602L9.08221 14.8558L9.0791 14.8515L9.07289 14.8426L9.06983 14.8384L9.06678 14.8339L9.06374 14.8295L9.05772 14.8205L9.05473 14.8161L9.04881 14.8071L9.04589 14.8027L9.04297 14.798L9.04006 14.7935L9.03719 14.789L9.03432 14.7844L9.03148 14.7799L9.02583 14.7705L9.02304 14.766L9.02026 14.7613L9.01751 14.7566L9.01206 14.7472L9.00936 14.7425L9.00668 14.7378L9.00402 14.7331L9.00139 14.7284L8.99878 14.7238L8.99362 14.7144L8.99108 14.7094L8.98854 14.7047L8.98605 14.7L8.98356 14.6951L8.9811 14.6904L8.97866 14.6857L8.97624 14.6808L8.97384 14.6761L8.97145 14.6711L8.9691 14.6664L8.96446 14.6566L8.96216 14.6519L8.95765 14.642L8.95542 14.6373L8.95101 14.6274L8.94886 14.6227L8.94459 14.6129L8.94042 14.603L8.93835 14.5981L8.93631 14.5931L8.9343 14.5882L8.93231 14.5833L8.93034 14.5783L8.92645 14.5685L8.92266 14.5586L8.92079 14.5534L8.91714 14.5436L8.91533 14.5386L8.91356 14.5337L8.91178 14.5285L8.91005 14.5236L8.90834 14.5187L8.90663 14.5135L8.90497 14.5086L8.90331 14.5034L8.90168 14.4985L8.90007 14.4935L8.89848 14.4884L8.89691 14.4834L8.89537 14.4783L8.89385 14.4731L8.89234 14.4682L8.89087 14.463L8.8894 14.4581L8.88795 14.4529L8.88655 14.448L8.88515 14.4428L8.88378 14.4376L8.88243 14.4327L8.88108 14.4275L8.87977 14.4224L8.87849 14.4172L8.87721 14.4123L8.87596 14.4071L8.87354 14.3968L8.87235 14.3918L8.87119 14.3867L8.87005 14.3815L8.86782 14.3712L8.86569 14.3608L8.86365 14.3505L8.86266 14.3453L8.86168 14.3404L8.86074 14.3352L8.85981 14.33L8.85891 14.3249L8.85803 14.3195L8.85716 14.3145L8.85633 14.3091L8.8555 14.304L8.85469 14.2988L8.85391 14.2936L8.85317 14.2885L8.85241 14.2833L8.8517 14.2781L8.85101 14.273L8.84969 14.2626L8.84907 14.2575L8.84845 14.2521L8.84786 14.2469L8.84677 14.2365L8.84625 14.2314L8.84575 14.2262L8.84525 14.2208L8.8448 14.2156L8.84395 14.2053L8.84355 14.2001L8.84319 14.1947L8.84284 14.1896L8.8425 14.1844L8.8422 14.1792L8.84191 14.1741L8.84163 14.1687L8.84139 14.1635L8.84096 14.1532L8.84077 14.1478L8.84049 14.1374L8.84037 14.1323L8.84028 14.1268L8.84013 14.1165L8.84011 14.1113V14.1008L8.84013 14.0956L8.8402 14.0904L8.84028 14.085L8.84037 14.0799L8.84049 14.0747L8.84063 14.0695L8.84077 14.0641L8.84096 14.059L8.84139 14.0486L8.84163 14.0432L8.8422 14.0329L8.8425 14.0277L8.84284 14.0223L8.84355 14.012L8.84395 14.0068L8.8448 13.9965L8.84525 13.9911L8.84625 13.9807L8.84677 13.9756L8.84732 13.9704L8.84786 13.965L8.84845 13.9598L8.84969 13.9495L8.85101 13.9392L8.8517 13.934L8.85241 13.9288L8.85317 13.9234L8.85391 13.9183L8.85469 13.9131L8.8555 13.9079L8.85716 13.8976L8.85891 13.8872L8.85981 13.8821L8.86074 13.8769L8.86168 13.8717L8.86266 13.8666L8.86365 13.8614L8.86569 13.8511L8.86676 13.8461L8.86782 13.841L8.87005 13.8306L8.87119 13.8255L8.87235 13.8203L8.87354 13.8151L8.87475 13.8102L8.87596 13.805L8.87721 13.7999L8.87849 13.7947L8.87977 13.7898L8.88108 13.7846L8.88378 13.7743L8.88515 13.7693L8.88795 13.759L8.8894 13.7541L8.89087 13.7489L8.89234 13.7439L8.89385 13.7388L8.89537 13.7338L8.89691 13.7287L8.89848 13.7237L8.90007 13.7186L8.90168 13.7136L8.90331 13.7085L8.90497 13.7035L8.90663 13.6984L8.91005 13.6885L8.91178 13.6836L8.91356 13.6784L8.91533 13.6735L8.91714 13.6685L8.91896 13.6636L8.92079 13.6584L8.92266 13.6535L8.92645 13.6436L8.93034 13.6338L8.93231 13.6288L8.9343 13.6239L8.93631 13.619L8.93835 13.614L8.94042 13.6091L8.94459 13.5992L8.94886 13.5894L8.95101 13.5845L8.95322 13.5797L8.95542 13.5748L8.95765 13.5699L8.9599 13.5652L8.96216 13.5603L8.96446 13.5553L8.96678 13.5506L8.9691 13.5457L8.97145 13.5408L8.97624 13.5314L8.97866 13.5264L8.9811 13.5217L8.98356 13.5168L8.98854 13.5074L8.99108 13.5027L8.99362 13.4978L8.99878 13.4884L9.00139 13.4837L9.00402 13.479L9.00668 13.4743L9.00936 13.4693L9.01206 13.4649L9.01479 13.4602L11.1023 9.87761L14.3166 15.3939ZM25.6098 15.3939H15.409L11.6485 8.9401L16.8577 0H25.5043L25.6098 15.3939ZM9.26725 13.6042L9.26495 13.6082L9.26284 13.6117L9.2608 13.6152L9.25871 13.619L9.2567 13.6227L9.25461 13.6265L9.25262 13.63L9.24864 13.6375L9.24669 13.6411L9.24086 13.6523L9.23901 13.6559L9.23711 13.6596L9.23522 13.6636L9.23342 13.6671L9.22977 13.6747L9.22799 13.6784L9.22619 13.6822L9.22441 13.6859L9.22265 13.6899L9.22095 13.6934L9.21926 13.6972L9.21753 13.7012L9.21585 13.705L9.21419 13.7087L9.21092 13.7162L9.20931 13.7202L9.20769 13.724L9.20611 13.7277L9.20456 13.7315L9.203 13.7355L9.20146 13.7393L9.19997 13.743L9.19847 13.747L9.19698 13.7508L9.19551 13.7548L9.19406 13.7585L9.19264 13.7623L9.19124 13.7663L9.18982 13.7703L9.18844 13.774L9.18709 13.7778L9.18572 13.7818L9.18439 13.7858L9.18309 13.7895L9.18178 13.7935L9.1805 13.7973L9.17799 13.8053L9.17676 13.809L9.17552 13.813L9.17434 13.817L9.17315 13.8208L9.17197 13.8248L9.17083 13.8288L9.16971 13.8325L9.16858 13.8367L9.16749 13.8405L9.1664 13.8445L9.16533 13.8485L9.16324 13.8565L9.16222 13.8602L9.16023 13.8682L9.15926 13.8722L9.15833 13.8762L9.15739 13.8802L9.15646 13.8842L9.15466 13.8922L9.15295 13.9002L9.15129 13.9081L9.15049 13.9121L9.14973 13.9161L9.14895 13.9201L9.14819 13.9241L9.14745 13.9281L9.14603 13.9361L9.14466 13.9441L9.14402 13.9483L9.14338 13.9521L9.14276 13.9563L9.14214 13.9603L9.14157 13.9643L9.14098 13.9683L9.13989 13.9763L9.13937 13.9803L9.13887 13.9845L9.13837 13.9885L9.13792 13.9925L9.13745 13.9965L9.13702 14.0007L9.1366 14.0047L9.13579 14.0127L9.13543 14.0169L9.13472 14.0249L9.13411 14.0329L9.13382 14.0371L9.13354 14.0411L9.13328 14.0451L9.13304 14.0493L9.13261 14.0573L9.13242 14.0613L9.13226 14.0655L9.13209 14.0695L9.13195 14.0735L9.13183 14.0775L9.13171 14.0817L9.13162 14.0857L9.13155 14.0897L9.1315 14.0937L9.13145 14.098L9.13143 14.1019V14.1102L9.13145 14.1142L9.13155 14.1222L9.13162 14.1264L9.13171 14.1304L9.13183 14.1344L9.13195 14.1386L9.13209 14.1426L9.13226 14.1466L9.13242 14.1508L9.13261 14.1548L9.13304 14.1628L9.13328 14.167L9.13354 14.171L9.13411 14.179L9.13441 14.1832L9.13472 14.1872L9.13543 14.1952L9.13579 14.1994L9.1366 14.2074L9.13745 14.2154L9.1379 14.2196L9.13837 14.2236L9.13937 14.2316L9.13989 14.2356L9.14098 14.2436L9.14157 14.2478L9.14214 14.2518L9.14338 14.2598L9.14466 14.2678L9.14534 14.272L9.14603 14.276L9.14745 14.284L9.14819 14.288L9.14971 14.296L9.15051 14.3L9.15129 14.304L9.15295 14.312L9.15381 14.3159L9.15556 14.3239L9.15646 14.3279L9.15831 14.3359L9.15926 14.3399L9.16023 14.3437L9.16123 14.3479L9.16225 14.3517L9.16324 14.3556L9.16533 14.3636L9.1664 14.3676L9.16749 14.3716L9.16858 14.3754L9.16969 14.3794L9.17085 14.3834L9.17199 14.3874L9.17434 14.3951L9.17552 14.3991L9.17673 14.4029L9.17924 14.4109L9.1805 14.4146L9.18178 14.4186L9.18309 14.4226L9.18439 14.4264L9.18572 14.4303L9.18707 14.4341L9.18844 14.4381L9.18982 14.4419L9.19122 14.4459L9.19262 14.4496L9.19406 14.4536L9.19551 14.4574L9.19698 14.4614L9.19997 14.4689L9.20148 14.4729L9.203 14.4766L9.20454 14.4804L9.20613 14.4844L9.20769 14.4881L9.21253 14.4994L9.21419 14.5034L9.21585 14.5072L9.21753 14.5109L9.21926 14.5147L9.22095 14.5184L9.22268 14.5224L9.22619 14.53L9.22796 14.5335L9.22977 14.5372L9.23159 14.5412L9.23339 14.5447L9.23527 14.5485L9.23711 14.5523L9.23899 14.556L9.24088 14.5598L9.2428 14.5635L9.24472 14.5671L9.25063 14.5783L9.25262 14.5821L9.25461 14.5856L9.25665 14.5894L9.25874 14.5931L9.2608 14.5967L9.26284 14.6004L9.26495 14.6039L9.26703 14.6077L9.26919 14.6112L9.27137 14.615L9.27351 14.6185L9.27562 14.622L9.2778 14.6256L9.28003 14.6293L9.28223 14.6328L9.28441 14.6364L9.28666 14.6399L9.28894 14.6434L9.29119 14.6469L9.29347 14.6505L9.29577 14.654L9.29802 14.6573L9.30267 14.6643L9.30499 14.6676L9.30741 14.6711L9.30973 14.6747L9.31208 14.6779L9.3145 14.6815L9.31933 14.688L9.3218 14.6916L9.32419 14.6949L9.32912 14.7014L9.33157 14.7047L9.33405 14.708L9.33664 14.7115L9.3391 14.7146L9.34159 14.7179L9.34681 14.7245L9.34932 14.7275L9.35184 14.7308L9.35444 14.7341L9.35715 14.7374L9.35973 14.7404L9.36229 14.7435L9.36497 14.7468L9.36765 14.7498L9.37033 14.7531L9.37296 14.7562L9.37568 14.7592L9.37834 14.7623L9.38107 14.7653L9.38384 14.7686L9.38652 14.7714L9.38929 14.7745L9.39202 14.7775L9.39484 14.7806L9.39764 14.7836L9.40041 14.7867L9.40319 14.7895L9.40603 14.7926L9.4089 14.7956L9.4117 14.7984L9.41452 14.8013L9.41741 14.8043L9.42035 14.8074L9.42604 14.813L9.429 14.8158L9.4319 14.8186L9.43481 14.8215L9.43777 14.8243L9.44079 14.8273L9.44373 14.8299L9.44666 14.8327L9.44972 14.8356L9.45269 14.8384L9.45565 14.841L9.45866 14.8438L9.46177 14.8466L9.46485 14.8494L9.46776 14.852L9.47082 14.8546L9.47395 14.8574L9.47713 14.86L9.48019 14.8628L9.48325 14.8654L9.48638 14.868L9.48946 14.8706L9.49268 14.8731L9.49579 14.8757L9.49892 14.8783L9.50209 14.8809L9.50525 14.8835L9.50842 14.8858L9.51169 14.8884L9.5149 14.891L9.51798 14.8934L9.5213 14.8959L9.52464 14.8985L9.52779 14.9009L9.53104 14.9032L9.53438 14.9058L9.53756 14.9081L9.54083 14.9105L9.54422 14.9131L9.54754 14.9154L9.55084 14.9178L9.55415 14.9201L9.5574 14.9222L9.56075 14.9246L9.56418 14.9269L9.56755 14.9293L9.57433 14.934L9.5776 14.9361L9.58102 14.9382L9.58455 14.9406L9.58784 14.9427L9.59128 14.945L9.59486 14.9471L9.60155 14.9514L9.60513 14.9537L9.60863 14.9558L9.61202 14.958L9.61551 14.9598L9.62964 14.9683L9.63322 14.9704L9.63666 14.9723L9.64012 14.9742L9.64382 14.9763L9.64742 14.9784L9.65091 14.9803L9.65453 14.9821L9.65802 14.984L9.66167 14.9859L9.6653 14.988L9.66895 14.9899L9.67262 14.9918L9.67618 14.9934L9.67973 14.9953L9.68713 14.9991L9.69071 15.0007L9.69815 15.0045L9.70176 15.0061L9.70553 15.008L9.70927 15.0096L9.7129 15.0113L9.71655 15.0129L9.72032 15.0148L9.72414 15.0164L9.72781 15.0181L9.73161 15.0197L9.73528 15.0214L9.739 15.0228L9.74284 15.0244L9.74666 15.0261L9.75038 15.0277L9.7541 15.0291L9.76188 15.0324L9.76563 15.0338L9.76939 15.0352L9.77314 15.0366L9.77705 15.0383L9.78464 15.0411L9.7886 15.0425L9.79239 15.0439L9.79635 15.0453L9.80017 15.0467L9.80398 15.0479L9.80799 15.0493L9.81183 15.0507L9.81567 15.0519L9.8197 15.0533L9.82357 15.0545L9.82743 15.0559L9.83521 15.0583L9.83912 15.0594L9.84317 15.0608L9.851 15.0632L9.85507 15.0644L9.85887 15.0653L9.8628 15.0665L9.8669 15.0677L9.87086 15.0688L9.87482 15.0698L9.87895 15.0709L9.88293 15.0719L9.88677 15.0731L9.89078 15.074L9.89493 15.0749L9.89893 15.0761L9.90277 15.077L9.9068 15.078L9.911 15.0789L9.91503 15.0799L9.91906 15.0806L9.92311 15.0815L9.927 15.0824L9.93122 15.0834L9.9353 15.0841L9.93921 15.085L9.94346 15.0857L9.94753 15.0867L9.95147 15.0874L9.95557 15.0881L9.95969 15.0888L9.9638 15.0895L9.96806 15.0902L9.97603 15.0916L9.98032 15.0923L9.98445 15.093L9.98845 15.0935L9.99262 15.0942L9.99677 15.0949L10.0009 15.0954L10.0051 15.0961L10.0091 15.0965L10.0133 15.097L10.0217 15.098L10.0259 15.0987L10.03 15.0991L10.034 15.0994L10.0382 15.0998L10.0426 15.1003L10.0467 15.1008L10.0508 15.101L10.0552 15.1015L10.0593 15.1017L10.0634 15.1022L10.0678 15.1024L10.0719 15.1027L10.076 15.1031L10.0803 15.1034L10.0846 15.1036L10.0889 15.1038L10.093 15.1041L10.0971 15.1043H10.1014L10.1057 15.1045L10.1099 15.1048H10.114L10.1184 15.105H10.1269L10.131 15.1052H13.812L11.1023 10.4548L9.26725 13.6042ZM17.0258 0.288702L11.9849 8.9401L15.5772 15.1052H25.3166L25.2151 0.288702H17.0258Z" fill="url(#paint1_linear)"/>
<path d="M34.9404 11.6612H31.856V20.8298H34.8431C37.8859 20.8298 39.6641 19.3427 39.6641 16.2317C39.6641 13.1066 37.8443 11.6612 34.9404 11.6612ZM34.6485 19.4118H33.6621V13.0791H34.7596C36.691 13.0791 37.8024 13.9189 37.8024 16.2592C37.8024 18.586 36.691 19.4118 34.6485 19.4118ZM47.2502 17.4022C47.2502 14.9653 45.9722 13.7674 43.9574 13.7674C41.9012 13.7674 40.5257 15.3368 40.5257 17.4156C40.5257 19.4668 41.7206 21.0224 43.9712 21.0224C45.6526 21.0224 46.6803 20.1965 47.0004 19.2053L45.541 18.6137C45.2912 19.3153 44.8329 19.7834 43.9851 19.7834C42.846 19.7834 42.3318 18.8061 42.2623 17.8013H47.2502V17.4022ZM43.9574 14.9928C44.9717 14.9928 45.472 15.7225 45.541 16.7549H42.2762C42.4291 15.7085 43.0266 14.9928 43.9574 14.9928ZM50.8902 21.0224C52.7383 21.0224 53.8356 20.1551 53.8356 18.7926C53.8356 17.3056 52.5576 17.0024 51.1265 16.6858C50.2377 16.4932 49.7651 16.3418 49.7651 15.7776C49.7651 15.2954 50.0847 14.9378 50.8212 14.9378C51.446 14.9378 51.9605 15.2128 52.1406 15.9842L53.6834 15.5845C53.4329 14.4421 52.4885 13.7674 50.8489 13.7674C48.9454 13.7674 48.0558 14.6896 48.0558 15.8877C48.0558 17.264 49.1539 17.6631 50.585 17.9804C51.6125 18.2003 52.1128 18.3245 52.1128 18.9161C52.1128 19.4809 51.6268 19.825 50.8902 19.825C50.0983 19.825 49.6258 19.4535 49.4592 18.7095L47.9036 19.0952C48.0558 20.1551 49.0287 21.0224 50.8902 21.0224ZM55.6837 12.9276C56.2815 12.9276 56.7121 12.4735 56.7121 11.9087C56.7121 11.3446 56.2815 10.9039 55.6837 10.9039C55.0725 10.9039 54.6419 11.3446 54.6419 11.9087C54.6419 12.4735 55.0725 12.9276 55.6837 12.9276ZM54.822 20.8298H56.559V13.974H54.822V20.8298ZM63.4085 19.7699C62.9922 19.5635 62.4086 19.4535 61.6579 19.4535H60.8659C59.9905 19.4535 59.671 19.3984 59.671 19.0952C59.671 18.8061 60.0603 18.7652 60.5741 18.7237C61.4914 18.6546 62.2414 18.5304 62.8114 18.1589C63.3672 17.7872 63.8255 17.1681 63.8255 16.2183C63.8255 15.3368 63.4362 14.6761 62.7971 14.263C63.0056 14.0289 63.2973 13.9605 63.5614 13.9605C63.8674 13.9605 64.1728 14.0564 64.3393 14.1806L64.52 12.8316C64.409 12.7767 64.1449 12.6659 63.7422 12.6659C63.0335 12.6659 62.4363 13.0242 62.1859 13.974C61.7973 13.8363 61.3662 13.7674 60.8943 13.7674C59.0185 13.7674 57.9345 14.8687 57.9345 16.2867C57.9345 17.2916 58.4904 18.0763 59.3103 18.3794C58.6149 18.4204 58.1289 18.7652 58.1289 19.3018C58.1289 19.811 58.504 20.0867 58.9067 20.1965V20.2375C58.3232 20.3066 57.5318 20.6923 57.5318 21.6696C57.5318 22.812 58.6569 23.6933 60.9079 23.6933C63.2 23.6933 64.3534 22.7851 64.3534 21.3806C64.3534 20.5957 64.0476 20.0725 63.4085 19.7699ZM60.88 14.9104C61.7276 14.9104 62.1723 15.516 62.1723 16.2457C62.1723 16.975 61.7553 17.5947 60.88 17.5947C60.0324 17.5947 59.5741 16.975 59.5741 16.2457C59.5741 15.516 60.0324 14.9104 60.88 14.9104ZM60.9356 22.5236C59.6433 22.5236 59.1571 22.0413 59.1571 21.4772C59.1571 20.8989 59.713 20.6508 60.13 20.5823H60.9633C61.9638 20.5823 62.7004 20.6783 62.7004 21.463C62.7004 22.0827 62.1859 22.5236 60.9356 22.5236ZM65.3675 20.8298H67.1047V17.0715C67.1047 15.7502 67.7295 15.1719 68.619 15.1719C69.3832 15.1719 69.7718 15.626 69.7718 16.6033V20.8298H71.5089V16.3692C71.5089 14.5938 70.5502 13.7672 69.1747 13.7672C68.2019 13.7672 67.4377 14.1939 67.0491 15.1993H67.0212L66.9794 13.974H65.3675V20.8298ZM79.331 17.4022C79.331 14.9653 78.0529 13.7674 76.0383 13.7674C73.9818 13.7674 72.6061 15.3368 72.6061 17.4156C72.6061 19.4668 73.801 21.0224 76.0519 21.0224C77.7334 21.0224 78.7611 20.1965 79.0806 19.2053L77.6218 18.6137C77.372 19.3153 76.9137 19.7834 76.0661 19.7834C74.9268 19.7834 74.4123 18.8061 74.3433 17.8013H79.331V17.4022ZM76.0383 14.9928C77.0524 14.9928 77.5526 15.7225 77.6218 16.7549H74.3569C74.5098 15.7085 75.1069 14.9928 76.0383 14.9928ZM80.4148 20.8298H82.1513V17.8839C82.1513 16.0526 83.013 15.2679 83.9851 15.2679C84.3331 15.2679 84.5963 15.351 84.7635 15.4336L84.9999 13.9049C84.8881 13.8498 84.6526 13.7674 84.2079 13.7674C83.4712 13.7674 82.5127 14.1255 82.0821 15.5436H82.0544L82.0266 13.974H80.4148V20.8298Z" fill="black"/>
<path fill-rule="evenodd" clip-rule="evenodd" d="M42.6468 1.08798H39.6441V3.56066H41.3623V4.13769H39.6441V7.23939H39.0186V0.504211H42.6468V1.08798ZM58.2952 7.23939H57.6624V0.504211H58.2952V7.23939ZM49.4715 7.23939H48.838V0.504211H49.4715V7.23939ZM47.5565 1.08801H44.5541V3.56066H46.272V4.13769H44.5541V7.23939H43.9283V0.504211H47.5565V1.08801ZM63.826 1.08801H62.0212V7.23939H61.3877V1.08801H59.5727V0.504211H63.826V1.08801ZM51.3802 7.23939H50.7547V0.504211H51.4279L55.7429 6.18369V0.504211H56.3762V7.23939H55.7591L51.3802 1.45979V7.23939ZM67.8999 7.23939H67.2597V5.59226L64.3279 0.504211H65.0498L67.5798 4.87004L70.1096 0.504211H70.8317L67.8999 5.59226V7.23939ZM38.459 7.23939H37.7848L35.1523 1.36126C34.9877 1.73724 33.3851 5.34782 33.2144 5.73029C33.55 5.73029 36.4224 5.75858 36.587 5.75942L36.8487 6.32601C36.2762 6.32249 33.7085 6.31426 32.948 6.31426C32.8788 6.45915 32.587 7.10121 32.5302 7.23939H31.856L34.8677 0.504211H35.4472L38.459 7.23939Z" fill="black"/>
<defs>
<radialGradient id="paint0_radial" cx="0" cy="0" r="1" gradientUnits="userSpaceOnUse" gradientTransform="translate(19.3444 -4.01658) scale(28.8389 28.5753)">
<stop stop-color="#6BE1FB"/>
<stop offset="1" stop-color="#38BDFA"/>
</radialGradient>
<linearGradient id="paint1_linear" x1="42930.5" y1="23.8163" x2="42930.5" y2="-0.238197" gradientUnits="userSpaceOnUse">
<stop stop-color="#4AC5FA"/>
<stop offset="1" stop-color="#97E8FC"/>
</linearGradient>
</defs>
</svg>
