<svg width="93" height="18" viewBox="0 0 93 18" fill="none" xmlns="http://www.w3.org/2000/svg">
<path fill-rule="evenodd" clip-rule="evenodd" d="M36.5026 8.52748C35.7625 8.52748 35.1618 9.12737 35.1618 9.86649C35.1618 10.6072 35.7625 11.2066 36.5026 11.2066C37.2432 11.2066 37.8431 10.6072 37.8431 9.86649C37.8431 9.12737 37.2432 8.52748 36.5026 8.52748ZM91.0567 7.54424C91.9357 7.54424 92.5787 8.03599 93.0001 8.52748V6.15305C92.3096 5.68509 91.4775 5.49774 90.754 5.49774C88.5316 5.49774 86.6006 7.08817 86.6006 9.82432C86.6006 12.4442 88.3556 14.152 90.7886 14.152C91.4905 14.152 92.2625 14.0457 93.0001 13.5437V11.215C92.5787 11.6486 91.9128 12.1052 91.0567 12.1052C89.7472 12.1052 88.9628 11.1349 88.9628 9.89461C88.9628 8.54965 89.7937 7.54424 91.0567 7.54424ZM86.8519 5.73213H84.1608L81.6915 9.16954V5.73213H79.3989L79.3997 13.9179H81.6915V10.3972L84.0659 13.9179H86.9341L83.7394 9.6959L86.8519 5.73213ZM72.6274 10.6437V5.73213H70.4162V13.9179H72.6626L75.8335 9.00599V13.9179H78.0448V5.73213H75.7978L72.6274 10.6437ZM65.9826 9.41502H65.3286V7.53316H65.9826C66.9656 7.53316 67.1054 8.0587 67.1054 8.46827C67.1054 8.81891 67.0005 9.41502 65.9826 9.41502ZM66.4852 5.73213H63.0343V13.9179H65.3286V11.215H66.4852C68.8025 11.215 69.4695 9.60318 69.4695 8.46827C69.4695 7.34527 68.8141 5.73213 66.4852 5.73213ZM56.2023 7.6959H58.0029V13.9179H60.2969V7.6959H62.0981V5.73213H56.2023V7.6959ZM49.8482 10.6437V5.73213H47.6375V13.9179H49.8845L53.0538 9.00599V13.9179H55.2656V5.73213H53.0197L49.8482 10.6437ZM43.016 12.2796H42.0335V10.5613H43.016C43.7417 10.5613 44.1631 10.7721 44.1631 11.4158C44.1631 12.0701 43.7303 12.2796 43.016 12.2796ZM43.2388 8.92407H42.0335V7.6959H45.789V5.73213H39.7406L39.7403 13.9179L43.2388 13.9179C43.8347 13.9179 46.456 13.9406 46.456 11.3804C46.456 8.91245 43.8588 8.92407 43.2388 8.92407ZM26.9059 9.82432C26.9059 12.4442 28.6608 14.152 31.0942 14.152C31.7969 14.152 32.5689 14.0457 33.3062 13.5437V11.215C32.8837 11.6486 32.217 12.1052 31.3633 12.1052C30.0525 12.1052 29.2692 11.1349 29.2692 9.89461C29.2692 8.54965 30.0996 7.54424 31.3633 7.54424C32.2405 7.54424 32.8837 8.03599 33.3062 8.52748V6.15305C32.6143 5.68509 31.7844 5.49774 31.059 5.49774C28.8359 5.49774 26.9059 7.08817 26.9059 9.82432ZM22.1047 7.61453H23.3574V13.9179H25.4753V5.73213H22.1047V7.61453Z" fill="#231F20"/>
<path fill-rule="evenodd" clip-rule="evenodd" d="M9.0043 0C8.33349 0 7.68107 0.0754258 7.05245 0.214923V9.00622C7.05245 10.0835 7.93127 10.9622 9.00944 10.9622C10.0871 10.9622 10.9656 10.0835 10.9656 9.00676C10.9656 7.97188 10.1566 7.12247 9.13954 7.05488V5.48932C11.0189 5.55745 12.5312 7.11138 12.5312 9.00676C12.5312 10.9451 10.9491 12.5272 9.00944 12.5272C7.06895 12.5272 5.48713 10.9451 5.48713 9.00622V0.712355C5.26479 0.806705 5.04759 0.911327 4.83472 1.02379V9.00622C4.83499 11.3039 6.71055 13.1776 9.00944 13.1776C11.3086 13.1776 13.1834 11.3039 13.1834 9.00676C13.1834 6.75237 11.3792 4.90619 9.13954 4.83671V3.2717C12.241 3.34171 14.7481 5.89105 14.7481 9.00676C14.7481 12.1665 12.1701 14.7426 9.00944 14.7426C5.84797 14.7426 3.26913 12.1665 3.26913 9.00622V2.06191C1.27292 3.71181 0 6.20681 0 8.99946C0 13.9697 4.03136 18 9.00457 18C13.9786 18 18.0089 13.9697 18.0089 8.99946C18.0089 4.0292 13.9786 0 9.0043 0Z" fill="#D91935"/>
</svg>
