<svg width="60" height="22" viewBox="0 0 60 22" fill="none" xmlns="http://www.w3.org/2000/svg">
<g clip-path="url(#clip0)">
<path d="M26 5.00059V14.3655L27.225 14.3692V9.90954H30.1785V8.73074H27.225V6.1788H31.0716V5L26 5.00059Z" fill="black"/>
<path d="M33.2765 6.90163C33.7177 6.90163 34.0754 6.54978 34.0754 6.11576C34.0754 5.68174 33.7177 5.3299 33.2765 5.3299C32.8352 5.3299 32.4775 5.68174 32.4775 6.11576C32.4775 6.54978 32.8352 6.90163 33.2765 6.90163Z" fill="black"/>
<path d="M32.6533 8.08044V14.3674H33.8783V8.08044H32.6533Z" fill="black"/>
<path fill-rule="evenodd" clip-rule="evenodd" d="M38.422 7.89703C36.7954 7.89703 35.6602 9.25035 35.6602 10.8571C35.6602 12.4639 36.7954 13.8172 38.422 13.8172C39.1668 13.8172 39.7805 13.5336 40.2273 13.0719V13.9089C40.2273 14.9505 39.3954 15.8212 38.3098 15.8212C37.9196 15.8212 37.5319 15.6724 37.2231 15.463L36.6093 16.5087C37.0995 16.8196 37.6833 17 38.3098 17C40.0453 17 41.4522 15.6161 41.4522 13.9089V8.0804H40.2273V8.64236C39.7805 8.18065 39.1668 7.89703 38.422 7.89703ZM36.8851 10.8571C36.8851 9.85978 37.6607 9.07583 38.5552 9.07583C39.4498 9.07583 40.2253 9.85978 40.2253 10.8571C40.2253 11.8545 39.4498 12.6385 38.5552 12.6385C37.6607 12.6385 36.8851 11.8545 36.8851 10.8571Z" fill="black"/>
<path d="M45.8661 9.07583C45.1417 9.07583 44.5545 9.67964 44.5545 10.3922V14.3673H43.3296V8.0804H44.5545V8.65632C44.9135 8.19991 45.4423 7.89703 46.1324 7.89703C46.9908 7.89703 47.6496 8.31641 48.0311 8.95822C48.4554 8.33829 49.1475 7.89703 49.9805 7.89703C51.3747 7.89703 52.2425 9.00353 52.2507 10.3725C52.2507 10.3766 52.2507 10.3808 52.2507 10.3849V10.3852V10.3854V10.3856C52.2507 10.3878 52.2507 10.39 52.2507 10.3922V14.3673H51.0257V10.3922C51.0257 9.67964 50.4385 9.07583 49.7142 9.07583C48.9898 9.07583 48.4026 9.67964 48.4026 10.3922V14.3673H47.1776V10.3922C47.1776 9.67964 46.5904 9.07583 45.8661 9.07583Z" fill="black"/>
<path fill-rule="evenodd" clip-rule="evenodd" d="M58.7752 8.79308C58.2302 8.23955 57.4839 7.89703 56.6182 7.89703C54.7957 7.89703 53.5024 9.41482 53.5024 11.2239C53.5024 13.0329 54.7957 14.5507 56.6182 14.5507C57.4839 14.5507 58.2302 14.2082 58.7752 13.6547V14.3673H60.0002V8.0804H58.7752V8.79308ZM54.7274 11.2239C54.7274 10.0237 55.6616 9.07583 56.7513 9.07583C57.841 9.07583 58.7752 10.0237 58.7752 11.2239C58.7752 12.4241 57.841 13.3719 56.7513 13.3719C55.6616 13.3719 54.7274 12.4241 54.7274 11.2239Z" fill="black"/>
</g>
<path d="M7.32975 21.9991C9.35375 21.9991 10.9964 20.3564 10.9964 18.3324V14.6658H7.32975C5.30575 14.6658 3.66309 16.3084 3.66309 18.3324C3.66309 20.3564 5.30575 21.9991 7.32975 21.9991Z" fill="#0ACF83"/>
<path d="M3.66309 11.0009C3.66309 8.9769 5.30575 7.33423 7.32975 7.33423H10.9964V14.6676H7.32975C5.30575 14.6676 3.66309 13.0249 3.66309 11.0009Z" fill="#A259FF"/>
<path d="M3.66309 3.66667C3.66309 1.64267 5.30575 0 7.32975 0H10.9964V7.33333H7.32975C5.30575 7.33333 3.66309 5.69067 3.66309 3.66667Z" fill="#F24E1E"/>
<path d="M11 0H14.6667C16.6907 0 18.3333 1.64267 18.3333 3.66667C18.3333 5.69067 16.6907 7.33333 14.6667 7.33333H11V0Z" fill="#FF7262"/>
<path d="M18.3333 11.0009C18.3333 13.0249 16.6907 14.6676 14.6667 14.6676C12.6427 14.6676 11 13.0249 11 11.0009C11 8.9769 12.6427 7.33423 14.6667 7.33423C16.6907 7.33423 18.3333 8.9769 18.3333 11.0009Z" fill="#1ABCFE"/>
<defs>
<clipPath id="clip0">
<rect width="34" height="12" fill="white" transform="translate(26 5)"/>
</clipPath>
</defs>
</svg>
