<svg width="69" height="23" viewBox="0 0 69 23" fill="none" xmlns="http://www.w3.org/2000/svg">
<path d="M29.5549 13.5205L30.942 17.2768H28.2541L29.5549 13.5205ZM29.0346 12.2684L26 20.4965H27.1272L27.9077 18.2606H31.2891L32.0695 20.4965H33.1968L30.1622 12.2684H29.0346ZM45.4204 20.4965H46.4607V12.2684H45.4204V20.4965ZM34.753 15.6667C35.1001 15.13 35.7933 14.6829 36.4871 14.6829C37.8742 14.6829 38.5681 15.6667 38.5681 17.0978V20.5858H37.5278V17.2765C37.5278 16.1137 36.9212 15.667 36.1407 15.667C35.2736 15.667 34.6667 16.5614 34.6667 17.3662V20.4965H33.6264V14.7726H34.6667L34.753 15.6667ZM39.4355 18.7973C39.4355 17.5452 40.5627 16.8298 41.8632 16.8298C42.6436 16.8298 43.1639 17.0088 43.3372 17.1879V17.0088C43.3372 16.1144 42.6436 15.667 41.9501 15.667C41.3435 15.667 40.8229 15.9354 40.6493 16.4721L39.6983 16.0244C39.8719 15.4877 40.5654 14.6826 41.9562 14.6826C43.2569 14.6826 44.3838 15.4877 44.3838 17.0975V20.4961H43.4302V19.6872H43.3436C43.0834 20.1343 42.4765 20.671 41.5228 20.671C40.3956 20.671 39.4419 19.9556 39.4419 18.7928L39.4355 18.7973ZM43.3436 18.0774C43.3436 18.0774 42.9102 17.7194 42.0428 17.7194C41.0025 17.7194 40.5688 18.3451 40.5688 18.7925C40.5688 19.4182 41.1754 19.6869 41.696 19.6869C42.4765 19.6869 43.3436 18.9715 43.3436 18.0774Z" fill="#757575"/>
<path fill-rule="evenodd" clip-rule="evenodd" d="M47.9317 23L49.1455 20.0452L46.978 14.8581H48.0183L49.6655 18.7931L51.3127 14.8581H52.353L48.9723 23H47.9317ZM63.1906 16.7401C62.9301 16.024 62.3235 15.5773 61.7169 15.5773C60.8499 15.5773 60.0697 16.3824 60.0697 17.5448C60.0697 18.7073 60.8502 19.5123 61.7169 19.5123C62.3235 19.5123 62.9308 19.0653 63.1909 18.4393L64.058 18.976C63.6246 19.9597 62.7572 20.5854 61.7169 20.5854C60.2429 20.5854 59.0291 19.2436 59.0291 17.5448C59.0291 15.756 60.2429 14.5039 61.7169 14.5039C62.7572 14.5039 63.6243 15.1296 64.058 16.1133L63.1909 16.7391L63.1906 16.7401Z" fill="#757575"/>
<path d="M66.9191 20.6752C68.3061 20.6752 69 19.8701 69 18.8863C69 16.7398 65.9654 17.5445 65.9654 16.2931C65.9654 15.8461 66.3125 15.5777 66.9191 15.5777C67.5257 15.5777 68.1329 15.8461 68.3931 16.2931L68.9997 15.6674C68.6526 15.2203 67.6989 14.5943 66.8321 14.5943C65.5314 14.5943 64.8382 15.3994 64.8382 16.3831C64.8382 18.44 67.9594 17.7249 67.9594 18.798C67.9594 19.3348 67.6123 19.6925 66.9191 19.6925C66.2259 19.6925 65.8788 19.2454 65.532 18.798L64.7516 19.4237C65.2719 19.9605 66.0523 20.6752 66.9191 20.6752ZM57.0352 20.4961H58.0754V14.7726H57.0352V20.4961Z" fill="#757575"/>
<path fill-rule="evenodd" clip-rule="evenodd" d="M57.4688 12C57.9022 12 58.1624 12.358 58.1624 12.7154C58.1624 13.1624 57.8153 13.4308 57.4688 13.4308C57.1224 13.4308 56.7753 13.0727 56.7753 12.7154C56.7753 12.358 57.1224 12 57.4688 12ZM55.9952 19.6024L56.1687 20.4075H55.1284C54.1748 20.4075 53.7414 19.6921 53.7414 18.6186V15.846H52.7011V14.7729H53.7414V13.0738H54.7817V14.7729H55.9955V15.846H54.7817V18.8008C54.7817 19.6059 55.3883 19.6059 55.9955 19.6059L55.9952 19.6024Z" fill="#757575"/>
<path d="M30.6475 4.38704V5.73016H33.6622C33.5762 6.44626 33.3174 6.9835 32.9732 7.3412C32.5427 7.78867 31.8534 8.32592 30.6475 8.32592C28.8386 8.32592 27.3743 6.80396 27.3743 4.83452C27.3743 2.9545 28.8386 1.34311 30.6475 1.34311C31.681 1.34311 32.3703 1.79059 32.8905 2.23841L33.7519 1.34311C32.9766 0.627019 32.0291 0 30.6512 0C28.1537 0 26 2.14864 26 4.74474C26 7.34085 28.15 9.48914 30.6478 9.48914C32.0258 9.48914 33.0596 9.04167 33.835 8.14603C34.6964 7.25073 34.9548 6.08716 34.9548 5.1021C34.9548 4.83347 34.9548 4.47577 34.8688 4.29623H30.6505L30.6475 4.38704ZM38.3134 3.31638C36.6769 3.31638 35.3847 4.56972 35.3847 6.36031C35.3847 8.1509 36.6769 9.40389 38.3134 9.40389C39.9498 9.40389 41.242 8.06078 41.242 6.36031C41.242 4.56972 39.9498 3.31638 38.3134 3.31638ZM38.3134 8.23997C37.452 8.23997 36.6769 7.43411 36.6769 6.35996C36.6769 5.28582 37.4523 4.47995 38.3134 4.47995C39.1744 4.47995 39.9498 5.19604 39.9498 6.35996C39.9498 7.52388 39.1744 8.23997 38.3134 8.23997ZM52.4392 3.9427C52.0944 3.58431 51.5778 3.22661 50.8028 3.22661C49.3385 3.22661 48.0465 4.56972 48.0465 6.27054C48.0465 7.97135 49.3388 9.31412 50.8028 9.31412C51.4918 9.31412 52.0951 8.95572 52.3529 8.59802H52.4389V9.0455C52.4389 10.2094 51.8363 10.8361 50.8889 10.8361C50.1135 10.8361 49.5966 10.2098 49.4245 9.76194L48.3047 10.2094C48.6495 11.0153 49.5105 12 50.8885 12C52.4386 12 53.7342 11.1047 53.7342 8.77722V3.2273H52.5283V3.9434L52.4392 3.9427ZM50.9749 8.23997C50.1135 8.23997 49.4248 7.43411 49.4248 6.35996C49.4248 5.28582 50.1138 4.47995 50.9749 4.47995C51.836 4.47995 52.5249 5.28582 52.5249 6.35996C52.5249 7.43411 51.836 8.23997 50.9749 8.23997ZM44.687 3.31638C43.0506 3.31638 41.7583 4.56972 41.7583 6.36031C41.7583 8.1509 43.0506 9.40389 44.687 9.40389C46.3234 9.40389 47.6157 8.06078 47.6157 6.36031C47.7017 4.56972 46.3234 3.31638 44.687 3.31638ZM44.687 8.23997C43.8256 8.23997 43.0506 7.43411 43.0506 6.35996C43.0506 5.28582 43.8259 4.47995 44.687 4.47995C45.548 4.47995 46.3234 5.19604 46.3234 6.35996C46.3234 7.52388 45.548 8.23997 44.687 8.23997ZM54.6786 0.0901209H55.9709V9.40041H54.6786V0.0901209ZM59.5022 8.2365C58.8132 8.2365 58.3823 7.8781 58.0378 7.3412L62 5.64039L61.8276 5.28199C61.5691 4.56589 60.7941 3.31255 59.3301 3.31255C57.78 3.31255 56.5738 4.56589 56.5738 6.35648C56.5738 8.0573 57.8661 9.40006 59.5025 9.40006C60.8805 9.40006 61.6558 8.50477 62 8.05695L60.9665 7.34085C60.6217 7.8781 60.1912 8.23615 59.5022 8.23615V8.2365ZM59.4161 4.47647C59.933 4.47647 60.3636 4.74509 60.536 5.19257L57.8658 6.35648C57.8658 5.01337 58.7271 4.47647 59.4158 4.47647H59.4161Z" fill="#757575"/>
<path d="M11.5791 4.14773V17.6477C11.5791 19.1583 12.6528 20 13.7896 20C14.8422 20 16.0001 19.2841 16.0001 17.6477V4.25C16.0001 2.86523 14.9475 2 13.7896 2C12.6317 2 11.5791 2.9542 11.5791 4.14773Z" fill="#F9AB00"/>
<path d="M5.78906 10.9999V17.6476C5.78906 19.1582 6.86274 19.9999 7.99958 19.9999C9.0522 19.9999 10.2101 19.284 10.2101 17.6476V11.1022C10.2101 9.7174 9.15746 8.85217 7.99958 8.85217C6.84169 8.85217 5.78906 9.80638 5.78906 10.9999Z" fill="#E37400"/>
<path d="M2.21051 20C3.43135 20 4.42103 19.0384 4.42103 17.8523C4.42103 16.6661 3.43135 15.7045 2.21051 15.7045C0.98968 15.7045 0 16.6661 0 17.8523C0 19.0384 0.98968 20 2.21051 20Z" fill="#E37400"/>
</svg>
