<svg width="71" height="19" viewBox="0 0 71 19" fill="none" xmlns="http://www.w3.org/2000/svg">
<g clip-path="url(#clip0)">
<path d="M9.99962 8.42979V15.017H8.7666V7.96759L9.99962 8.42979Z" fill="black"/>
<path d="M5.07373 7.81556C5.07373 6.13116 5.99538 5.21295 7.07584 5.21295C8.15629 5.21295 8.30886 5.36805 9.53565 5.97916C10.7624 6.59026 11.0738 6.74536 11.6903 6.74536C12.3068 6.74536 12.612 6.28005 12.612 5.36495H13.6862C13.8419 7.20136 12.7646 7.96756 11.6841 7.96756C10.6036 7.96756 10.2985 7.81246 9.22428 7.20136C8.15006 6.59026 7.83869 6.43516 7.22218 6.43516C6.60567 6.43516 6.30053 6.90046 6.14795 7.96756L5.07373 7.81556Z" fill="black"/>
<path d="M9.53569 19C7.64971 19 5.80608 18.4428 4.23795 17.399C2.66981 16.3551 1.4476 14.8714 0.725865 13.1355C0.00413169 11.3996 -0.184707 9.48947 0.18323 7.64665C0.551166 5.80383 1.45935 4.11109 2.79294 2.78249C4.12653 1.45389 5.82563 0.549104 7.67537 0.182544C9.52511 -0.184015 11.4424 0.00411623 13.1848 0.723149C14.9273 1.44218 16.4165 2.65982 17.4643 4.22209C18.5121 5.78435 19.0714 7.62108 19.0714 9.50001C19.0685 12.0187 18.0629 14.4334 16.2753 16.2143C14.4876 17.9953 12.0638 18.9971 9.53569 19ZM9.53569 0.620413C7.77164 0.620413 6.04721 1.14156 4.58046 2.11794C3.11371 3.09432 1.97052 4.48209 1.29545 6.10576C0.620376 7.72943 0.443747 9.51607 0.787895 11.2397C1.13204 12.9634 1.98151 14.5467 3.22888 15.7894C4.47625 17.0321 6.06549 17.8784 7.79564 18.2213C9.52579 18.5641 11.3191 18.3882 12.9489 17.7156C14.5787 17.0431 15.9717 15.9042 16.9517 14.4429C17.9318 12.9816 18.4549 11.2637 18.4549 9.50621C18.4532 7.15005 17.513 4.89087 15.8407 3.22482C14.1684 1.55876 11.9007 0.622056 9.53569 0.620413Z" fill="black"/>
<path d="M25.1214 8.03584V12.6656H24.5438V8.03584H23.2827V7.49298H26.3824V8.03584H25.1214Z" fill="black"/>
<path d="M27.4004 7.83264C27.4793 7.83234 27.5565 7.85536 27.6223 7.89881C27.688 7.94225 27.7393 8.00415 27.7697 8.07668C27.8001 8.14921 27.8083 8.22909 27.7931 8.30621C27.7779 8.38334 27.74 8.45423 27.6843 8.50992C27.6287 8.5656 27.5577 8.60357 27.4803 8.61902C27.4029 8.63447 27.3227 8.6267 27.2498 8.59669C27.1769 8.56668 27.1146 8.51579 27.0707 8.45046C27.0268 8.38513 27.0034 8.3083 27.0034 8.22971C27.0038 8.12479 27.0457 8.02427 27.1201 7.94994C27.1944 7.8756 27.2951 7.83346 27.4004 7.83264ZM27.6807 9.44726V12.6656H27.1202V9.44726H27.6807Z" fill="black"/>
<path d="M29.401 7.01062V12.6656H28.8406V7.01062H29.401Z" fill="black"/>
<path d="M33.0362 7.01062H33.5966V12.6656H33.0362V12.2158C32.9077 12.3865 32.7407 12.5246 32.5486 12.6189C32.3566 12.7132 32.1449 12.7611 31.9308 12.7587C31.1135 12.7587 30.3584 12.1848 30.3584 11.0526C30.3584 9.92033 31.1057 9.36972 31.9308 9.36972C32.1446 9.36425 32.3566 9.40999 32.5489 9.50311C32.7413 9.59623 32.9084 9.73399 33.0362 9.90482V7.01062ZM30.9344 11.0526C30.9344 11.7428 31.3236 12.2624 31.9931 12.2624C32.6625 12.2624 33.0673 11.6963 33.0673 11.0603C33.0673 10.2305 32.4913 9.86605 31.9931 9.86605C31.4482 9.86605 30.9344 10.2693 30.9344 11.0526Z" fill="black"/>
<path d="M37.232 9.44725H37.7925V12.6656H37.232V12.2158C37.1035 12.3865 36.9365 12.5246 36.7444 12.6189C36.5524 12.7132 36.3407 12.7611 36.1266 12.7587C35.3093 12.7587 34.5542 12.1848 34.5542 11.0526C34.5542 9.92031 35.3015 9.3697 36.1266 9.3697C36.3404 9.36423 36.5524 9.40997 36.7447 9.50309C36.9371 9.59621 37.1042 9.73397 37.232 9.9048V9.44725ZM35.1302 11.0526C35.1302 11.7428 35.5194 12.2624 36.1889 12.2624C36.8583 12.2624 37.2631 11.6962 37.2631 11.0603C37.2631 10.2305 36.6871 9.86603 36.1889 9.86603C35.6362 9.86603 35.1302 10.2693 35.1302 11.0526Z" fill="black"/>
<path d="M41.9492 7.49298C42.4708 7.49298 42.9067 7.55347 43.257 7.85747C43.4104 7.9979 43.5316 8.16969 43.6122 8.36109C43.6928 8.5525 43.7309 8.75899 43.724 8.96645C43.724 9.69543 43.2648 10.4167 42.0815 10.4167H41.5834V12.6656H41.0073V7.49298H41.9492ZM41.5834 9.8738H42.0504C42.7354 9.8738 43.148 9.53257 43.148 8.94318C43.148 8.12114 42.3774 8.04359 42.0037 8.04359H41.5834V9.8738Z" fill="black"/>
<path d="M45.0785 11.3224C45.0785 11.5473 45.0785 11.811 45.2342 12.0127C45.307 12.0901 45.395 12.1519 45.4928 12.1941C45.5905 12.2364 45.6959 12.2581 45.8025 12.2581C45.909 12.2581 46.0144 12.2364 46.1122 12.1941C46.2099 12.1519 46.2979 12.0901 46.3707 12.0127C46.5264 11.811 46.5264 11.5473 46.5264 11.3224V9.44727H47.0869V11.386C47.0869 11.7815 47.0479 12.0762 46.7911 12.3554C46.5275 12.614 46.1724 12.759 45.8025 12.759C45.4325 12.759 45.0774 12.614 44.8139 12.3554C44.557 12.0762 44.5181 11.7815 44.5181 11.386V9.44727H45.0785V11.3224Z" fill="black"/>
<path d="M48.807 12.6656H48.2466V7.01062H48.807V9.89707C48.9385 9.73078 49.1065 9.59677 49.2982 9.50534C49.4898 9.41392 49.7 9.36752 49.9124 9.36972C50.9244 9.36972 51.4848 10.2073 51.4848 11.0758C51.4848 11.9444 50.9166 12.7587 49.9358 12.7587C49.7179 12.7641 49.5018 12.7176 49.3055 12.6232C49.1092 12.5288 48.9384 12.3892 48.807 12.2158V12.6656ZM50.9088 11.0758C50.9088 10.2848 50.3717 9.86605 49.8501 9.86605C49.3286 9.86605 48.7759 10.2926 48.7759 11.0681C48.7759 11.7273 49.1963 12.2624 49.8579 12.2624C50.5196 12.2624 50.9088 11.7195 50.9088 11.0758Z" fill="black"/>
<path d="M53.0028 7.01062V12.6656H52.4424V7.01062H53.0028Z" fill="black"/>
<path d="M54.4429 7.83264C54.5218 7.83234 54.599 7.85536 54.6647 7.89881C54.7305 7.94225 54.7818 8.00415 54.8122 8.07668C54.8426 8.14921 54.8507 8.22909 54.8355 8.30621C54.8203 8.38334 54.7825 8.45423 54.7268 8.50992C54.6711 8.5656 54.6001 8.60357 54.5228 8.61902C54.4454 8.63447 54.3652 8.6267 54.2923 8.59669C54.2194 8.56668 54.157 8.51579 54.1132 8.45046C54.0693 8.38513 54.0459 8.3083 54.0459 8.22971C54.0463 8.12479 54.0882 8.02427 54.1625 7.94994C54.2369 7.8756 54.3376 7.83346 54.4429 7.83264ZM54.7231 9.44726V12.6656H54.1627V9.44726H54.7231Z" fill="black"/>
<path d="M57.2142 10.1917C57.1805 10.0986 57.1194 10.0177 57.0389 9.95957C56.9583 9.90147 56.8621 9.86888 56.7628 9.86603C56.7119 9.86131 56.6607 9.86752 56.6124 9.88424C56.5642 9.90095 56.5202 9.9278 56.4833 9.96294C56.4464 9.99809 56.4175 10.0407 56.3986 10.088C56.3796 10.1352 56.3711 10.1859 56.3735 10.2367C56.3735 10.4694 56.5292 10.5469 56.8951 10.702C57.3621 10.8959 57.5801 11.0433 57.7046 11.1984C57.8243 11.3445 57.8854 11.5296 57.8759 11.7179C57.8759 12.3926 57.3855 12.7726 56.7628 12.7726C56.5103 12.7774 56.2632 12.6995 56.0594 12.5511C55.8555 12.4026 55.7061 12.1917 55.634 11.9506L56.1167 11.749C56.1789 11.9196 56.3658 12.2763 56.7705 12.2763C56.8397 12.2802 56.909 12.2697 56.974 12.2456C57.0389 12.2215 57.0981 12.1842 57.1479 12.1361C57.1976 12.088 57.2368 12.0301 57.263 11.9661C57.2891 11.9022 57.3017 11.8335 57.2999 11.7645C57.2999 11.4543 57.0819 11.3612 56.7783 11.2294C56.3891 11.0588 56.14 10.9347 55.9921 10.7641C55.8865 10.6296 55.8339 10.4614 55.8442 10.291C55.8442 9.72489 56.2412 9.39142 56.7861 9.39142C56.9758 9.38709 57.1623 9.44043 57.3209 9.54434C57.4794 9.64824 57.6024 9.79778 57.6735 9.97305L57.2142 10.1917Z" fill="black"/>
<path d="M58.7244 7.01062H59.2848V9.81952C59.3929 9.67732 59.5331 9.5625 59.694 9.48435C59.855 9.4062 60.0321 9.36693 60.2112 9.36972C60.3901 9.36187 60.5683 9.3981 60.7299 9.4752C60.8914 9.55231 61.0314 9.6679 61.1375 9.81176C61.301 10.0522 61.3243 10.3158 61.3243 10.6726V12.6656H60.7638V10.6881C60.7809 10.4808 60.7289 10.2736 60.6159 10.0987C60.5526 10.0208 60.4715 9.95913 60.3795 9.91867C60.2874 9.87822 60.187 9.86018 60.0866 9.86605C59.9792 9.86163 59.8722 9.88169 59.7737 9.92469C59.6752 9.96769 59.5879 10.0325 59.5184 10.1142C59.3004 10.3701 59.2848 10.7501 59.2848 10.9828V12.6656H58.7244V7.01062Z" fill="black"/>
<path d="M62.7642 7.83264C62.8431 7.83234 62.9203 7.85536 62.986 7.89881C63.0518 7.94225 63.1031 8.00415 63.1335 8.07668C63.1639 8.14921 63.172 8.22909 63.1568 8.30621C63.1416 8.38334 63.1038 8.45423 63.0481 8.50992C62.9924 8.5656 62.9214 8.60357 62.8441 8.61902C62.7667 8.63447 62.6865 8.6267 62.6136 8.59669C62.5407 8.56668 62.4783 8.51579 62.4345 8.45046C62.3906 8.38513 62.3672 8.3083 62.3672 8.22971C62.3676 8.12479 62.4095 8.02427 62.4838 7.94994C62.5581 7.8756 62.6589 7.83346 62.7642 7.83264ZM63.0522 9.44726V12.6656H62.4917V9.44726H63.0522Z" fill="black"/>
<path d="M64.2043 9.44725H64.7648V9.8195C64.8729 9.6773 65.0131 9.56248 65.174 9.48433C65.335 9.40619 65.5121 9.36691 65.6911 9.3697C65.8701 9.36185 66.0483 9.39808 66.2098 9.47519C66.3714 9.55229 66.5114 9.66788 66.6175 9.81174C66.7809 10.0522 66.8043 10.3158 66.8043 10.6726V12.6656H66.2438V10.6881C66.2609 10.4808 66.2089 10.2736 66.0959 10.0987C66.0326 10.0208 65.9515 9.95911 65.8595 9.91866C65.7674 9.8782 65.667 9.86016 65.5666 9.86603C65.4592 9.86161 65.3521 9.88167 65.2537 9.92467C65.1552 9.96768 65.0679 10.0325 64.9983 10.1142C64.7804 10.3701 64.7648 10.7501 64.7648 10.9828V12.6656H64.2043V9.44725Z" fill="black"/>
<path d="M70.4396 9.44728H71V12.5881C71 12.9371 71 13.4334 70.6887 13.8522C70.5358 14.0461 70.339 14.2013 70.1144 14.3051C69.8899 14.4088 69.6439 14.4583 69.3965 14.4493C69.1852 14.4563 68.9746 14.4216 68.7768 14.347C68.5791 14.2725 68.3982 14.1596 68.2444 14.015C68.1087 13.8782 68.0016 13.7159 67.9295 13.5375C67.8573 13.3591 67.8215 13.1682 67.8241 12.9759H68.3768C68.3761 13.2209 68.4646 13.4578 68.6259 13.6428C68.7254 13.7475 68.8465 13.8294 68.9809 13.883C69.1153 13.9365 69.2597 13.9604 69.4043 13.953C69.5751 13.9663 69.7462 13.9312 69.8978 13.8516C70.0493 13.7719 70.1751 13.6512 70.2605 13.5032C70.3979 13.2519 70.46 12.9666 70.4396 12.6812V12.2159C70.3111 12.3865 70.1441 12.5246 69.952 12.6189C69.76 12.7132 69.5483 12.7611 69.3342 12.7587C69.1303 12.7624 68.9277 12.726 68.738 12.6515C68.5483 12.5769 68.3753 12.4658 68.2289 12.3244C68.0698 12.1542 67.9465 11.954 67.8663 11.7355C67.7861 11.5171 67.7506 11.2849 67.7618 11.0526C67.7505 10.8238 67.7861 10.5951 67.8664 10.3804C67.9467 10.1658 68.07 9.96965 68.2289 9.80402C68.5273 9.52262 68.9233 9.36702 69.3342 9.36973C69.5479 9.3649 69.7597 9.41093 69.9519 9.50399C70.1442 9.59706 70.3113 9.73448 70.4396 9.90483V9.44728ZM68.6648 10.1685C68.5544 10.2871 68.4687 10.4263 68.4126 10.578C68.3565 10.7297 68.3311 10.891 68.3378 11.0526C68.3285 11.2271 68.3563 11.4015 68.4193 11.5646C68.4824 11.7276 68.5793 11.8756 68.7037 11.9987C68.8909 12.1738 69.1398 12.2685 69.3965 12.2624C69.5269 12.2677 69.657 12.2464 69.7789 12.1997C69.9007 12.153 70.0116 12.082 70.1049 11.991C70.2243 11.8674 70.318 11.7216 70.3808 11.5619C70.4436 11.4023 70.4741 11.2318 70.4707 11.0603C70.4813 10.7247 70.3581 10.3985 70.1282 10.153C69.9317 9.9652 69.6688 9.86211 69.3965 9.86606C69.2603 9.86422 69.1251 9.8901 68.9993 9.9421C68.8735 9.99411 68.7597 10.0711 68.6648 10.1685Z" fill="black"/>
</g>
<defs>
<clipPath id="clip0">
<rect width="71" height="19" fill="white"/>
</clipPath>
</defs>
</svg>
