<svg width="164" height="22" viewBox="0 0 164 22" fill="none" xmlns="http://www.w3.org/2000/svg">
<path d="M24.1107 14.6765H23.2471V5.43295H18.1958V6.33623C18.1958 9.15146 18.0875 12.4286 17.0945 14.6765H16.4251V18.0299H17.937V16.0212H22.5994V18.0299H24.1114V14.6765H24.1107ZM31.4299 15.3068L31.0417 14.0463C30.6092 14.3405 29.8539 14.7607 28.9032 14.7607C27.5649 14.7607 26.8744 13.5002 26.8744 11.1052H31.4081V10.2025C31.4081 6.6106 30.221 5.28649 28.4074 5.28649C26.0973 5.28649 25.1254 7.76505 25.1254 11.1688C25.1254 14.4254 26.508 16.169 28.7527 16.169C29.8321 16.169 30.7386 15.833 31.4292 15.3074L31.4299 15.3068ZM13.7908 5.43295V9.92883H11.2873V5.43295H9.60303V16.0212H11.2873V11.2735H13.7915V16.0212H15.4532V5.43295H13.7915H13.7908ZM37.6914 16.0212H39.5261L36.439 10.4119L39.138 5.43295H37.4306L34.8188 10.3278V5.43295H33.1345V16.0212H34.8188V10.7479L37.6907 16.0212H37.6914ZM43.4769 16.1683C44.4705 16.1683 45.1611 15.8529 45.7441 15.3697L45.3559 14.1517C44.967 14.4877 44.3411 14.8025 43.5205 14.8025C42.1604 14.8025 41.5128 13.2901 41.5128 10.6432C41.5128 7.97514 42.3763 6.65169 43.5852 6.65169C44.2758 6.65169 44.9234 7.00889 45.3763 7.38731L45.6147 5.83191C45.1393 5.53832 44.5781 5.28583 43.607 5.28583C41.0592 5.28583 39.742 7.40785 39.742 10.7267C39.742 14.3405 41.145 16.1677 43.4769 16.1677V16.1683ZM21.586 14.6772H18.6929C19.5994 12.4286 19.7077 9.17267 19.7077 6.94594V6.7564H21.586V14.6765V14.6772ZM28.4067 6.63048C29.3779 6.63048 29.6803 7.95393 29.6803 9.7605H26.8948C27.0038 7.86976 27.3702 6.63048 28.4067 6.63048V6.63048Z" fill="black"/>
<path d="M5.93736 10.2648V16.0212H7.59911V1H5.1167C2.67719 1 0.625881 2.57594 0.625881 5.72716C0.625881 7.9751 1.53303 9.19318 2.89308 9.86584L0 16.0212H1.92123L4.55552 10.2648H5.93736ZM5.93736 8.92014H5.052C3.60546 8.92014 2.41771 8.14277 2.41771 5.72716C2.41771 3.22739 3.71306 2.36586 5.052 2.36586H5.93736V8.92014Z" fill="#FF0000"/>
<path d="M55.7534 15.1496H51.2721C51.8102 14.5001 52.1371 13.115 52.3141 11.0209C52.4776 9.0062 52.5729 6.30894 52.6342 2.77003H55.7534V15.1496ZM56.9589 18.2776H57.7421V15.1496H56.7545V1.96814H51.7352C51.6739 5.85829 51.6126 8.94655 51.4083 11.0209C51.2108 13.0156 50.8703 14.5797 50.162 15.1496H49.7466V18.2776H50.5298L50.666 15.9515H56.8158L56.9589 18.2776ZM63.9055 15.9515H64.8113V6.09687H63.9873L60.691 13.0156C60.4935 13.4464 60.2892 13.8772 60.153 14.3278H60.0917C60.1325 13.8971 60.1734 13.4663 60.1734 12.9361V6.09687H59.288V15.9515H60.0917L63.3879 9.0062C63.6059 8.57543 63.7898 8.16455 63.926 7.74041H63.9873C63.9464 8.14467 63.9055 8.57543 63.9055 9.08573V15.9515ZM69.8919 15.4014C68.9929 15.4014 68.4277 15.0104 68.0259 14.2085V8.69472C68.4685 7.641 69.2313 6.69994 70.1371 6.69994C71.3017 6.69994 72.0236 8.22419 72.0236 10.8088C72.0236 13.9169 71.1791 15.4014 69.8919 15.4014ZM69.8374 16.1238C71.7239 16.1238 72.9703 14.3477 72.9703 10.7293C72.9703 7.87295 71.9827 5.89805 70.2937 5.89805C69.17 5.89805 68.4277 6.77947 67.985 7.72053L67.9033 6.09687H67.0792V19H68.0259V15.2623C68.4072 15.7527 69.0679 16.1238 69.8374 16.1238ZM75.1768 11.1799H79.7603C80.0804 7.68076 78.9566 5.89805 77.2064 5.89805C75.4969 5.89805 74.2574 7.79343 74.2574 11.0209C74.2574 14.2483 75.2381 16.1437 77.3902 16.1437C78.9975 16.1437 79.7603 15.0303 79.7603 15.0303L79.4606 14.2881C79.4606 14.2881 78.7523 15.3418 77.4107 15.3418C75.9396 15.3418 75.2177 13.8772 75.1768 11.1799ZM77.2064 6.66018C78.2347 6.66018 79.0384 7.83319 78.8749 10.4576H75.1973C75.279 7.99224 76.1439 6.66018 77.2064 6.66018ZM82.4913 10.8486L86.0055 15.9515H87.0543L83.4788 10.6696L86.8091 6.09687H85.8897L82.4913 10.7293V6.09687H81.5446V15.9515H82.4913V10.8486ZM92.9998 6.859V6.09687H87.3744V6.859H89.724V15.9515H90.6706V6.859H92.9998Z" fill="black"/>
<path fill-rule="evenodd" clip-rule="evenodd" d="M112.711 6.46737C112.506 5.70902 112.342 5.05225 112.219 4.37608H112.158C112.198 5.07296 112.219 5.81125 112.219 6.54955V16.8235H111.316V2.16119H112.506L114.987 11.5325C115.089 11.9221 115.233 12.6811 115.295 13.2343H115.356C115.438 12.6811 115.603 11.9014 115.705 11.5325L118.207 2.16119H119.355V16.8235H118.371V6.54955C118.371 5.85202 118.412 5.11437 118.453 4.37608H118.371C118.22 5.05593 118.056 5.73268 117.879 6.4059L115.685 14.5679H114.884L112.711 6.46737ZM121.933 11.8185H126.61C126.938 8.14713 125.79 6.28037 124.005 6.28037C122.262 6.28037 120.99 8.27008 120.99 11.6548C120.99 15.039 121.995 17.0287 124.19 17.0287C125.831 17.0287 126.61 15.8594 126.61 15.8594L126.302 15.0797C126.302 15.0797 125.584 16.1875 124.21 16.1875C122.713 16.1875 121.975 14.6494 121.933 11.8185ZM124.005 7.08014C125.052 7.08014 125.872 8.31084 125.708 11.0595H121.954C122.036 8.47519 122.918 7.08014 124.005 7.08014ZM133.368 7.28525V6.48549H127.622V7.28525H130.023V16.8235H130.988V7.2859L133.368 7.28525ZM147.546 16.8235H148.469V6.48549H147.627L144.265 13.7468C144.06 14.1978 143.854 14.6494 143.711 15.1211H143.649C143.69 14.6695 143.731 14.2185 143.731 13.6653V6.48484H142.828V16.8235H143.649L147.013 9.54155C147.232 9.11246 147.417 8.66677 147.567 8.20861H147.628C147.577 8.67866 147.55 9.15095 147.546 9.62372V16.8235ZM151.725 11.4698L155.314 16.8235H156.381L152.73 11.2854L156.135 6.48549H155.192L151.725 11.3468V6.48549H150.761V16.8235H151.725V11.4698ZM139.334 15.0545C139.731 14.2683 139.929 13.0544 139.929 11.4128C139.929 10.0456 139.759 8.98508 139.416 8.23319C139.075 7.48066 138.602 7.10472 138 7.10472C137.768 7.10472 137.546 7.16296 137.334 7.27943C137.122 7.3959 136.924 7.54925 136.739 7.74078C136.546 7.94294 136.378 8.16656 136.237 8.40725C136.086 8.66004 135.956 8.9242 135.846 9.19731V14.9827C136.052 15.4071 136.305 15.7216 136.605 15.9267C136.906 16.1318 137.289 16.2341 137.755 16.2341C138.411 16.2341 138.937 15.8413 139.334 15.0545ZM136.616 16.7368C136.314 16.5823 136.051 16.3613 135.846 16.0904V20.009H134.882V6.46866H135.723L135.806 8.17172C136.037 7.6817 136.349 7.2343 136.729 6.84849C137.111 6.45831 137.59 6.26355 138.165 6.26355C138.589 6.26355 138.972 6.38649 139.314 6.63237C139.656 6.8789 139.943 7.22443 140.175 7.66896C140.408 8.11349 140.585 8.64666 140.709 9.26913C140.832 9.89161 140.893 10.5788 140.893 11.3313C140.893 13.2324 140.6 14.6507 140.012 15.5883C139.423 16.5253 138.65 16.9931 137.693 16.9931C137.318 16.9985 136.949 16.9104 136.616 16.7368ZM162.009 16.8235H162.891C162.768 16.434 162.665 15.6336 162.665 14.916V9.27496C162.665 7.22378 161.701 6.28037 159.999 6.28037C158.829 6.28037 157.968 6.79349 157.558 7.32666L157.824 8.24937C158.316 7.53113 159.117 7.12155 159.999 7.12155C161.127 7.12155 161.722 7.79837 161.722 9.37784V10.67H160.594C158.358 10.67 157.148 11.8185 157.148 14.0341C157.148 15.9209 158.112 17.0287 159.506 17.0287C160.532 17.0287 161.271 16.4133 161.762 15.4285C161.825 16.1674 161.927 16.557 162.009 16.8235ZM159.712 16.249C158.727 16.249 158.091 15.4078 158.091 13.9519C158.091 12.1466 158.911 11.3675 160.615 11.3675H161.722V14.2185C161.353 15.3263 160.676 16.249 159.712 16.249Z" fill="black"/>
<path d="M148.469 16.8236H147.546V9.62375C147.55 9.15097 147.577 8.67868 147.628 8.20863H147.567C147.417 8.66679 147.232 9.11248 147.013 9.54157L143.649 16.8236H142.828V6.48486H143.731V13.6653C143.731 14.2109 143.691 14.6571 143.651 15.1025L143.649 15.1212H143.711C143.854 14.6495 144.059 14.1978 144.265 13.7468L147.627 6.48551H148.469V16.8236Z" fill="black"/>
<line x1="104.035" y1="2.12108" x2="99.4852" y2="20.3502" stroke="black"/>
</svg>
