<svg width="90" height="90" viewBox="0 0 90 90" fill="none" xmlns="http://www.w3.org/2000/svg">
<path fill-rule="evenodd" clip-rule="evenodd" d="M88.5 1.5H1.5V88.5H88.5V1.5ZM0 0V90H90V0H0Z" fill="#FF5000"/>
<path d="M45 21.8296L24 28.8296V49.8296C24 61.4288 45 70.8296 45 70.8296C45 70.8296 66 61.4288 66 49.8296V28.8296L45 21.8296ZM63.4681 49.8296C63.4681 59.2522 45 68.3721 45 68.3721C45 68.3721 26.5319 59.2522 26.5319 49.8296V30.8402L45 24.3615L63.4681 30.8402V49.8296Z" fill="#FF5000"/>
<path d="M53.3406 37L55.0998 38.8596L42.823 51.8481L40.8299 49.6384L53.3406 37Z" fill="#FF5000"/>
<path d="M36.064 46.1088L37.8512 44.1489L44.4044 50.175L42.4485 52.2205L36.064 46.1088Z" fill="#FF5000"/>
</svg>
