<svg width="55" height="49" viewBox="0 0 55 49" fill="none" xmlns="http://www.w3.org/2000/svg">
<path d="M7.17392 0V14.7H2.39131V0H7.17392ZM2.39131 49V34.3H7.17392V49H2.39131ZM9.56522 24.5C9.56522 27.2195 7.43696 29.4 4.78261 29.4C3.8367 29.4 2.91203 29.1126 2.12554 28.5742C1.33904 28.0358 0.726041 27.2705 0.364057 26.3751C0.00207223 25.4798 -0.0926394 24.4946 0.0918986 23.5441C0.276437 22.5936 0.731936 21.7205 1.4008 21.0352C2.06966 20.3499 2.92184 19.8832 3.84957 19.6942C4.77731 19.5051 5.73893 19.6021 6.61284 19.973C7.48674 20.3439 8.23368 20.9719 8.7592 21.7777C9.28472 22.5835 9.56522 23.5309 9.56522 24.5ZM35.8696 4.9C46.4391 4.9 55 13.671 55 24.5C55 35.329 46.4391 44.1 35.8696 44.1C27.2609 44.1 19.9913 38.269 17.5761 30.2575L11.9565 24.5L17.5761 18.7425C19.9913 10.731 27.2609 4.9 35.8696 4.9ZM35.8696 9.8C27.9543 9.8 21.5217 16.3905 21.5217 24.5C21.5217 32.6095 27.9543 39.2 35.8696 39.2C43.7848 39.2 50.2174 32.6095 50.2174 24.5C50.2174 16.3905 43.7848 9.8 35.8696 9.8ZM33.4783 26.95V14.7H37.0652V24.99L44.2391 29.4L42.2783 32.487L33.4783 26.95Z" fill="white"/>
</svg>
