<svg width="78" height="78" viewBox="0 0 78 78" fill="none" xmlns="http://www.w3.org/2000/svg">
<path d="M13 6.5V26H6.5V6.5H13ZM6.5 71.5V52H13V71.5H6.5ZM16.25 39C16.25 42.6075 13.3575 45.5 9.75 45.5C8.46442 45.5 7.20772 45.1188 6.1388 44.4046C5.06988 43.6903 4.23676 42.6752 3.74479 41.4874C3.25282 40.2997 3.12409 38.9928 3.3749 37.7319C3.6257 36.471 4.24477 35.3128 5.15381 34.4038C6.06285 33.4948 7.22104 32.8757 8.48192 32.6249C9.74279 32.3741 11.0497 32.5028 12.2374 32.9948C13.4252 33.4868 14.4403 34.3199 15.1546 35.3888C15.8688 36.4577 16.25 37.7144 16.25 39ZM52 13C66.365 13 78 24.635 78 39C78 53.365 66.365 65 52 65C40.3 65 30.42 57.265 27.1375 46.6375L19.5 39L27.1375 31.3625C30.42 20.735 40.3 13 52 13ZM52 19.5C41.2425 19.5 32.5 28.2425 32.5 39C32.5 49.7575 41.2425 58.5 52 58.5C62.7575 58.5 71.5 49.7575 71.5 39C71.5 28.2425 62.7575 19.5 52 19.5ZM48.75 42.25V26H53.625V39.65L63.375 45.5L60.71 49.595L48.75 42.25Z" fill="#262626"/>
</svg>
