<svg width="96" height="97" viewBox="0 0 96 97" fill="none" xmlns="http://www.w3.org/2000/svg">
<path d="M27.64 22.2292L36.84 31.4846L31.16 37.2238L22 27.928L12.84 37.2238L7.16003 31.4846L16.36 22.2292L7.16003 12.9738L12.84 7.23462L22 16.5305L31.16 7.23462L36.84 12.9738L27.64 22.2292ZM88.84 65.5155L83.16 59.7763L74 69.0721L64.84 59.7763L59.16 65.5155L68.36 74.7709L59.16 84.0263L64.84 89.7655L74 80.4696L83.16 89.7655L88.84 84.0263L79.64 74.7709L88.84 65.5155ZM81.6 27.6046L68.72 44.4584L62.4 39.3255L67.08 33.263C61.1107 34.4882 55.5423 37.2106 50.887 41.1799C46.2317 45.1491 42.6392 50.2376 40.44 55.9771C43.9216 58.5139 46.3914 62.2244 47.4038 66.4391C48.4163 70.6539 47.9047 75.0954 45.9615 78.9627C44.0183 82.8299 40.7713 85.8682 36.8063 87.5294C32.8412 89.1907 28.4192 89.3656 24.3377 88.0225C20.2563 86.6795 16.7843 83.9069 14.5478 80.205C12.3114 76.5031 11.4579 72.1155 12.1412 67.8337C12.8245 63.5519 14.9997 59.6577 18.2744 56.8537C21.5491 54.0497 25.7077 52.5204 30 52.5417C31.048 52.546 32.093 52.6543 33.12 52.865C35.8913 45.9159 40.3162 39.7648 46.0027 34.9567C51.6892 30.1486 58.4617 26.832 65.72 25.3009L60 20.9359L65.08 14.55L81.6 27.6046ZM40 70.7292C40 68.7308 39.4136 66.7773 38.3147 65.1156C37.2159 63.454 35.6541 62.1589 33.8269 61.3942C31.9996 60.6294 29.9889 60.4293 28.0491 60.8192C26.1093 61.2091 24.3275 62.1714 22.929 63.5845C21.5304 64.9976 20.578 66.798 20.1922 68.758C19.8063 70.718 20.0044 72.7496 20.7612 74.5959C21.5181 76.4422 22.7998 78.0203 24.4443 79.1305C26.0888 80.2408 28.0222 80.8334 30 80.8334C32.6522 80.8334 35.1957 79.7688 37.0711 77.8739C38.9465 75.979 40 73.409 40 70.7292Z" fill="#262626"/>
</svg>
