<svg xmlns="http://www.w3.org/2000/svg" fill="none" viewBox="0 0 77 47"><path fill="#000" d="M15.638 40.26c-.804 0-1.457.624-1.457 1.393 0 .77.653 1.394 1.457 1.394s1.456-.624 1.456-1.394c0-.769-.652-1.393-1.456-1.393Zm59.251-1.022c.955 0 1.654.511 2.111 1.022v-2.469c-.75-.486-1.653-.681-2.44-.681-2.413 0-4.51 1.653-4.51 4.499 0 2.725 1.906 4.5 4.549 4.5.762 0 1.6-.11 2.401-.632v-2.421c-.457.45-1.18.925-2.11.925-1.423 0-2.275-1.01-2.275-2.3 0-1.397.902-2.443 2.274-2.443Zm-4.567-1.884H67.4l-2.682 3.575v-3.575h-2.49v8.512h2.49v-3.661l2.579 3.661h3.115l-3.47-4.39 3.38-4.122ZM54.873 42.46v-5.107h-2.401v8.512h2.44l3.444-5.108v5.108h2.402v-8.512h-2.441l-3.444 5.107Zm-7.217-1.277h-.71v-1.958h.71c1.068 0 1.22.547 1.22.973 0 .365-.114.985-1.22.985Zm.546-3.83h-3.748v8.512h2.492v-2.81h1.256c2.517 0 3.242-1.677 3.242-2.857 0-1.168-.712-2.845-3.242-2.845Zm-11.168 2.041h1.956v6.471h2.49v-6.47h1.957v-2.042h-6.403v2.041Zm-6.901 3.066v-5.107h-2.402v8.512h2.44l3.444-5.108v5.108h2.401v-8.512h-2.439l-3.444 5.107Zm-7.421 1.702h-1.067v-1.788h1.067c.788 0 1.246.22 1.246.889 0 .68-.47.899-1.246.899Zm.242-3.49h-1.31v-1.278h4.08v-2.041h-6.57v8.512h3.8c.647 0 3.494.024 3.494-2.639 0-2.566-2.82-2.554-3.494-2.554Zm-17.74.936c0 2.725 1.906 4.5 4.55 4.5.762 0 1.601-.11 2.402-.632v-2.421c-.46.45-1.183.925-2.11.925-1.424 0-2.275-1.01-2.275-2.3 0-1.397.902-2.443 2.275-2.443.952 0 1.65.511 2.11 1.022v-2.469c-.752-.486-1.653-.681-2.44-.681-2.415 0-4.511 1.653-4.511 4.499ZM0 39.31h1.36v6.555h2.3v-8.512H0v1.957ZM38.5.108c-1.08 0-2.13.122-3.143.346v14.165a3.157 3.157 0 0 0 3.151 3.151 3.157 3.157 0 0 0 3.151-3.151 3.158 3.158 0 0 0-2.941-3.144V8.952c3.026.112 5.461 2.614 5.461 5.667a5.683 5.683 0 0 1-5.67 5.672 5.682 5.682 0 0 1-5.673-5.672V1.256c-.358.153-.707.322-1.05.501V14.62c0 3.703 3.02 6.722 6.722 6.722 3.703 0 6.722-3.02 6.722-6.722 0-3.631-2.906-6.606-6.512-6.718V5.38c4.994.112 9.032 4.219 9.032 9.239 0 5.091-4.151 9.243-9.242 9.243-5.091 0-9.243-4.152-9.243-9.243V3.429A14.47 14.47 0 0 0 24 14.61c0 8.008 6.492 14.5 14.5 14.5 8.01 0 14.5-6.492 14.5-14.5C53 6.598 46.51.107 38.5.107Z"/></svg>