<svg width="166" height="49" fill="none" xmlns="http://www.w3.org/2000/svg"><path d="M3.389 49h-.846L0 41h1.24L3 46.526 4.693 41h.782l1.691 5.526L8.92 41h1.24l-2.537 8H6.77l-1.69-5.333L3.389 49zm18.096-1.141V49h-5.532v-8h5.404v1.141h-4.17V44.3h3.84v1.148h-3.84v2.412h4.298zm11.064-3.113c.216.12.41.273.585.459.148.16.282.364.4.607.123.244.185.544.185.9 0 .306-.066.597-.197.874a2.22 2.22 0 01-.547.726 2.825 2.825 0 01-.827.502 2.778 2.778 0 01-1.03.186H27.8v-8h3.255c.322 0 .625.06.909.18.288.116.538.275.75.477.212.203.377.439.496.707.123.265.184.55.184.856 0 .252-.046.476-.14.67-.088.19-.184.347-.286.471a1.824 1.824 0 01-.42.385zm-3.516-.447h2.022c.33 0 .608-.107.833-.322.224-.215.337-.467.337-.757s-.115-.541-.344-.756a1.15 1.15 0 00-.826-.323h-2.022V44.3zm2.085 3.56a1.414 1.414 0 00.973-.372 1.24 1.24 0 00.286-.403 1.15 1.15 0 00.108-.496 1.15 1.15 0 00-.108-.496 1.172 1.172 0 00-.286-.397 1.273 1.273 0 00-.432-.273c-.17-.07-.35-.106-.54-.106h-2.086v2.543h2.085zM47.722 49h-1.303l3.128-8h1.036l3.128 8h-1.303l-.719-1.842h-3.255L47.722 49zm3.516-2.983l-1.176-3.175-1.17 3.175h2.346zm13.276 1.842V49h-5.143v-8h1.233v6.859h3.91zM69.011 41h6.186v1.141h-2.48V49h-1.233v-6.859h-2.473V41zm17.575 6.859V49h-5.531v-8h5.404v1.141h-4.171V44.3h3.84v1.148h-3.84v2.412h4.298zm8.979-2.034h-1.43V49H92.9v-8h3.255c.339 0 .659.064.96.192a2.432 2.432 0 011.316 1.284c.131.294.197.606.197.936 0 .468-.095.848-.286 1.142-.19.289-.4.518-.63.688a2.88 2.88 0 01-.909.459L98.82 49h-1.367l-1.888-3.175zm-1.43-1.141h2.02a1.1 1.1 0 00.465-.1 1.353 1.353 0 00.661-.676 1.15 1.15 0 00.108-.496 1.15 1.15 0 00-.108-.496 1.265 1.265 0 00-.273-.397 1.21 1.21 0 00-.388-.273 1.044 1.044 0 00-.464-.105h-2.022v2.543zM111.124 41v8h-1.043l-3.973-5.718V49h-1.234v-8h1.036l3.974 5.712V41h1.24zm6.963 8h-1.303l3.128-8h1.036l3.128 8h-1.303l-.718-1.842h-3.256L118.087 49zm3.516-2.983l-1.176-3.175-1.17 3.175h2.346zm6.83-5.017h6.186v1.141h-2.479V49h-1.234v-6.859h-2.473V41zm13.277 8h-1.234v-8h1.234v8zm5.794-8h1.303l2.282 6.158L153.365 41h1.304l-2.995 8h-1.17l-3-8zM166 47.859V49h-5.531v-8h5.404v1.141h-4.171V44.3h3.84v1.148h-3.84v2.412H166z" fill="#262626"/><path fill-rule="evenodd" clip-rule="evenodd" d="M75.275 24h5.228l2.954-2.933L86.412 24h5.206l-8.171-8.111L75.275 24zM60 6.522l8.805 16.876 5.33-5.035-6.372-9.856L60 6.522zm47-.002l-8.805 16.875-5.33-5.034 6.372-9.856L107 6.52zM83.45 0l-8.785 11.765 2.344 3.857 6.441-6.2 6.44 6.2 2.345-3.857L83.45 0z" fill="#262626"/></svg>