<svg width="364" height="614" fill="none" xmlns="http://www.w3.org/2000/svg"><g clip-path="url(#clip0_22:454)"><path d="M238.063 62.819c-1.356.406-2.449.823-2.432.894.086.353 8.074 8.289 8.522 8.442.544.241 4.808-.8 8.43-2.022l2.697-.884-.032-4.561c-.015-2.506-.056-4.968-.062-5.453l.004-.9-7.339 1.905c-4.008 1.017-8.431 2.172-9.788 2.579zm19.261-3.545c-.091 4.517.105 9.6.342 9.654.132.08 2.659-.275 5.582-.69l5.327-.814 4.261-6.097c2.365-3.311 4.217-6.123 4.129-6.177-.088-.053-3.812.444-8.276 1.123-4.473.643-8.84 1.26-9.72 1.326-1.603.167-1.594.202-1.645 1.675zm-33.854 8.459c-7.704 3.005-8.754 3.449-8.288 3.672.465.224 15.251 5.113 16.007 5.303.597.154 2.069-.243 5.321-1.45 2.459-.938 4.672-1.815 4.902-1.946.644-.42-8.027-9.013-8.961-8.86-.396.06-4.441 1.535-8.981 3.28zm52.281-6.856c-2.967 4.208-4.244 6.318-3.884 6.417.317.073 2.552.05 5.025-.066l4.435-.185 7.991-5.81c4.414-3.175 8.378-6.054 8.793-6.342.45-.298.707-.622.619-.676-.132-.08-3.959-.006-8.553.142-4.594.148-8.712.256-9.161.253-.599-.004-1.891 1.585-5.265 6.267zm-72.102 15.592c-7.445 3.916-7.965 4.23-7.702 4.39.526.322 24.039 1.806 24.991 1.573.916-.223 7.76-3.693 8-4.089.053-.088-.562-.312-1.335-.572-.765-.226-4.63-1.528-8.61-2.84-3.953-1.357-7.486-2.367-7.794-2.254-.317.078-3.704 1.804-7.55 3.792zm90.212-15.896c-4.768 3.412-8.741 6.405-8.848 6.58-.141.185 1.652.496 3.948.721l4.212.432 12.619-5.817c15.176-6.965 14.505-6.652 13.706-6.868-.958-.253-16.069-1.58-16.527-1.468-.238.095-4.352 2.973-9.11 6.42zM184.723 87.647c-3.566 2.52-6.295 4.646-6.084 4.745.175.107 7.675-.527 16.619-1.364l16.311-1.55 3.073-2.249c1.686-1.198 3.02-2.31 2.994-2.417-.016-.22-25.587-2.026-26.098-1.826-.212.052-3.275 2.186-6.815 4.66zm135.023-34.221c3.051.415 10.151.59 10.698.232.486-.305-9.797-.977-11.796-.75-1.347.141-1.224.186 1.098.518zm-144.661 36.5c-2.962 1.323-5.936 3.06-9.281 5.413-4.785 3.341-6.701 4.821-5.167 4.071.397-.209 2.999-1.481 5.803-2.84 2.761-1.386 5.592-2.79 6.28-3.182 1.376-.786 8.182-5.482 8.342-5.746.275-.404-1.885.386-5.977 2.284zm70.659-15.388c.259 1.06 11.761 19.56 11.816 19.023.056-.688-1.938-20.313-2.162-21.232-.13-.53-.755-.49-4.983.543-3.594.878-4.758 1.312-4.671 1.666zm11.7-3.308c.017.071.557 5.032 1.163 11.027.605 5.994 1.145 10.956 1.233 11.009.088.053 1.81-5.124 3.872-11.508 2.42-7.52 3.539-11.65 3.223-11.723-.246-.09-1.927.06-3.724.348-1.796.29-3.848.603-4.517.617-.695.057-1.267.16-1.25.23zm-19.658 5.738c-1.842.712-3.394 1.39-3.447 1.479-.053.088 4.488 3.697 10.091 7.984 5.637 4.278 10.241 7.685 10.233 7.5.036-.159-2.461-4.418-5.534-9.51-3.065-5.056-5.58-9.235-5.597-9.306-.06-.247-2.308.489-5.746 1.853zm28.69 3.104a2846.716 2846.716 0 00-3.635 11.412l-.374 1.065.929-1.088c1.76-2.115 15.498-21.388 15.509-21.803.028-.344-7.372-.371-8.747-.036-.211.052-1.861 4.762-3.682 10.45zm43.678-17.3c-7.107 3.309-12.91 6.15-12.867 6.327.043.176 1.431.661 3.101 1.077 2.347.588 3.49.683 4.935.33 2.748-.671 32.363-9.516 33.756-10.081 1.155-.47.786-.604-6.254-2.368-4.807-1.185-7.902-1.777-8.598-1.57-.599.147-6.93 2.967-14.073 6.285zm-82.639 18.765c-1.95 1.038-3.459 2.044-3.354 2.168.209.398 27.005 11.043 27.138 10.823.16-.264-19.27-14.992-19.737-14.916-.255.025-2.063.879-4.047 1.925zm-58.319 18.517c-2.872 2.761-5.303 5.191-5.445 5.375-.266.439 8.48-1.36 26.889-5.483l13.441-3.059 2.458-2.473c1.309-1.368 2.264-2.5 2.036-2.52-.185.008-7.597.695-16.462 1.55-8.829.846-16.461 1.55-16.875 1.538-.554.023-2.621 1.802-6.042 5.072zm166.119-43.578c5.631 1.808 9.949 2.364 20.946 2.748 6.211.206 11.402.36 11.578.318.141-.035-3.409-.965-7.857-2.05l-8.103-1.991-8.404.143c-4.655.05-8.694.176-8.976.245-.317.077.051.362.816.587zm-60.868 23.371a953.192 953.192 0 00-7.882 10.99c-.24.395 3.744-2.863 8.859-7.296 13.809-11.95 15.364-13.379 14.678-13.436-3.755-.393-7.608-.725-7.89-.656-.176.043-3.664 4.715-7.765 10.398zm-116.104 23.008c-4.992 2.493-9.711 4.881-10.461 5.327-1.367.821-13.696 12.409-13.389 12.596.263.161 23.237-12.942 24.588-13.984 1.369-1.121 8.644-8.178 8.592-8.39-.026-.107-.114-.16-.14-.116-.071.017-4.198 2.074-9.19 4.567zm59.448-15.422c-1.581 1.173-2.853 2.233-2.818 2.374.06.247 32.923 6.226 33.021 6.015.097-.21-26.304-10.615-26.806-10.53-.255.025-1.773.995-3.397 2.141zm74.283-15.525c-.769.675-6.034 5.257-11.68 10.12-8.993 7.814-11.379 9.97-9.764 8.939.221-.166 7.086-4.315 15.221-9.224 8.171-4.917 14.895-9.032 14.948-9.12.089-.096-1.563-.592-3.585-1.072l-3.735-.922-1.405 1.28zm-82.472 22.357c-1.485 1.562-2.247 2.572-1.904 2.6 1.346.158 36.345.822 36.425.69.08-.132-30.093-5.645-31.544-5.777-.272-.046-1.598 1.102-2.977 2.487zm115.889-27.562c-9.878 2.975-18.029 5.528-18.135 5.704-.239.395 5.6 2.901 6.34 2.72.353-.086 10.013-1.809 21.461-3.857 11.422-2.003 21.277-3.849 21.823-4.057.934-.303.575-.553-4.149-2.62-6.533-2.898-8.51-3.65-8.986-3.46-.238.096-8.476 2.595-18.354 5.57zm25.639-5.252c.018.071 2.66 1.26 5.839 2.656l5.796 2.48 16.869 1.646c9.287.877 17.036 1.568 17.248 1.517.458-.112-16.904-7.444-17.906-7.573-.959-.103-27.396-1.023-27.678-.954-.105.026-.194.122-.168.228zm-194.778 52.976c-3.986 5.693-4.065 5.825-2.912 5.655.687-.092 11.112-3.576 23.213-7.693l21.953-7.497 1.807-2.539 1.807-2.539-2.88.441c-1.576.273-10.155 2.144-19.104 4.181-8.95 2.036-17.071 3.795-18.013 3.913l-1.778.21-4.093 5.868zM288.558 82.58c-7.942 4.786-14.269 8.69-14.11 8.727.422.047 34.983-14.688 35.169-14.996.08-.132.045-.273-.034-.291-.123-.045-1.352-.644-2.783-1.305-1.431-.662-2.854-1.138-3.207-1.052-.308.113-7.102 4.095-15.035 8.916zm-147.416 36.986l-13.843 7.989-1.975 2.617c-3.913 5.225-9.467 13.061-9.335 13.141.088.054 7.334-4.675 16.142-10.497 8.818-5.787 16.046-10.587 16.117-10.604.211-.051 7.05-9.962 7.202-10.411.196-.572.92-.973-14.308 7.765zm62.072-17.673l-1.737 2.521 1.532-.149c3.116-.237 37.512-4.183 37.997-4.339.731-.216-34.444-.986-35.325-.77-.423.103-1.537 1.349-2.467 2.737zm90.707-16.466c-9.028 3.853-16.144 6.977-15.774 6.962.783-.004 31.347-8.632 36.017-10.147l2.979-.953-2.227-1.778c-1.937-1.512-2.438-1.726-3.416-1.45-.625.19-8.516 3.504-17.579 7.366zm23.077-6.874c.973.774 2.192 1.637 2.763 1.835.667.286 9.178-.183 26.456-1.445 14.013-1.026 25.738-1.943 26.09-2.029.775-.19-9.703-7.929-10.882-8.015-.73-.084-42.753 7.335-45.282 7.99-.846.207-.837.243.855 1.665zm-143.739 37.212c-12.717 4.343-23.187 7.949-23.223 7.958-.194.122-4.624 12.253-4.501 12.297.43.232 50.544-23.133 50.687-23.618 1.429-4.393 1.537-5.019.841-4.812-.344.122-11.06 3.789-23.804 8.175zm26.234-6.634c-.429 1.304-.76 2.545-.717 2.722.061.248 4.042-.575 10.737-2.211a1289.673 1289.673 0 0120.489-4.78c5.425-1.176 9.759-2.235 9.584-2.342-.176-.106-37.951 3.916-39.079 4.191-.105.026-.586 1.117-1.014 2.42zm95.762-19.311c-8.405 2.428-15.366 4.503-15.446 4.635-.044.123 9.307-1.338 20.798-3.209 11.527-1.88 21.02-3.524 21.1-3.656.08-.132-.47-1.159-1.23-2.284l-1.363-2.064-4.282 1.121c-2.36.577-11.162 3.064-19.577 5.457zm-164.591 46.463c-8.642 5.744-16.418 10.902-17.247 11.479-1.439.988-1.848 1.762-5.211 9.849-1.994 4.832-3.561 8.81-3.473 8.863.175.107 36.752-27.928 37.521-28.753.212-.202 1.271-2.745 2.349-5.668 2.379-6.311 2.397-6.39 2.018-6.26-.132.07-7.343 4.79-15.957 10.49zm192.233-51.156c.769 1.16 1.688 2.172 2.049 2.271.843.243 57.765 1.993 58.047 1.774.256-.175-6.739-9.552-7.441-9.98-.386-.205-51.807 3.294-53.287 3.655-.74.18-.731.216.632 2.28zM198.183 114.62c-.098.211-.122 1.49-.128 2.84.051 2.197.103 2.409.632 2.28 1.55-.378 40.526-14.619 40.659-14.839.08-.131-7.24 1.544-16.296 3.757-9.02 2.203-18.313 4.361-20.594 4.806-2.466.453-4.219.918-4.273 1.156zm-28.181 12.577c-13.854 6.418-25.309 11.8-25.407 12.011-.319.528-.962 12.108-.699 12.268.219.134 38.944-22.622 49.119-28.815l3.088-1.878-.104-2.259c-.093-2.674-.187-3.213-.558-3.047-.14.034-11.613 5.346-25.439 11.72zM300.197 96.14c11.529-.494 21.685-.952 22.6-1.026l1.646-.14-.639-2.615-.63-2.58-2.377.356c-3.575.498-40.876 6.614-41.255 6.744-.168.079 9.117-.28 20.655-.738zm-82.165 18.875c-10.559 3.852-19.224 7.055-19.312 7.152-.151.299 1.921 4.961 2.203 4.892.352-.086 38.506-19.219 38.956-19.516.954-.683-4.422 1.155-21.847 7.472zm61.04-15.475c1.275.176 44.313 3.482 44.367 3.394.363-.651.808-5.403.518-5.52-.395-.24-43.959 1.638-44.787 1.915-.282.07-.326.192-.098.211zm-57.011 19.283c-10.866 5.501-19.801 10.043-19.88 10.175-.089.097.733 1.169 1.845 2.358 1.322 1.437 2.146 2.06 2.517 1.895.564-.288 33.117-22.173 35.527-23.922 2.322-1.654-.553-.277-20.009 9.494zm54.255-17.111c.597.303 42.852 9.418 43.239 9.324.599-.147 3.194-5.574 2.764-5.806-.351-.214-45.403-3.815-45.896-3.694-.176.043-.23.131-.107.176zm49.049-11.833c-.319.527 1.058 5.247 1.559 5.312.272.046 14.148 1.974 30.811 4.308 16.707 2.36 30.522 4.191 30.769 4.131.317-.078.24-.546-.169-1.607-.321-.858-1.18-3.457-1.908-5.826-.746-2.44-1.52-4.385-1.809-4.501-.255-.126-12.51-.615-27.255-1.058-14.71-.45-27.915-.858-29.314-.928-1.39-.035-2.604.037-2.684.169zm-98.339 32.151c-10.151 6.899-18.528 12.653-18.608 12.785-.106.176 1.174 1.137 2.806 2.161l3.018 1.809 15.2-13.9c8.368-7.624 15.632-14.267 16.144-14.767 2.36-2.112-1.285.239-18.56 11.912zm34.294-15.83c3.436 25.376 4.945 35.832 5.208 35.992.535.356 11.1-2.862 10.988-3.321-.112-.459-15.635-32.209-16.02-32.714-.131-.231-.201-.213-.176.043zm-28.392 18.283c-12.681 11.675-16.279 15.138-15.849 15.37.307.187 2.152.86 4.059 1.48l3.488 1.133 12.296-16c12.668-16.465 13.377-17.387 12.76-17.161-.176.043-7.723 6.905-16.754 15.178zm7.688.594c-7.021 9.168-12.926 16.94-13.139 17.291-.292.484.472.709 4.235 1.288 2.524.395 4.757.673 4.969.621.203-.087 3.952-7.819 8.343-17.206 7.874-16.829 8.764-18.844 8.525-18.749-.07.017-5.886 7.543-12.933 16.755zm7.255.812c-4.657 9.977-8.418 18.273-8.348 18.406.209.398 10.495.32 10.7-.067.292-.484 6.461-36.371 6.285-36.478-.079-.018-3.953 8.119-8.637 18.139zm7.868-.349c-1.763 10.205-3.149 18.596-3.026 18.641.263.16 11.26-1.29 11.358-1.501.151-.299-4.727-35.399-4.946-35.532-.132-.08-1.649 8.23-3.386 18.392zm10.821-20.359c.078.318 25.45 27.602 25.976 27.923.228.169 2.204-.763 4.921-2.326l4.561-2.575-1.596-1.033c-2.176-1.416-32.001-20.945-33.063-21.622-.491-.33-.825-.473-.799-.367zm8.118-1.159c3.46 1.477 38.283 15.328 38.459 15.285.282-.068 5.238-6.073 5.071-6.144-.307-.188-44.398-9.79-44.61-9.739-.105.026.377.32 1.08.598zm-10.604 2.291c.164.672 15.069 30.962 15.532 31.635l.507.7 5.139-2.042c2.83-1.103 5.166-2.086 5.219-2.173.116-.141-25.405-27.726-26.071-28.162-.228-.169-.369-.135-.326.042zm8.692.274c1.684 1.087 9.325 6.074 16.965 11.061 7.676 4.978 14.124 9.058 14.336 9.007.564-.138 7.179-5.462 7.083-5.701-.087-.203-40.329-16.214-40.945-16.288-.264-.011.92.861 2.561 1.921zm-102.712 32.132l-26.188 15.536.858 2.899c2.217 7.548 2.912 9.476 3.476 9.188.67-.313 50.128-37.526 50.411-37.894.213-.352-1.588-4.818-2.062-5.077-.175-.107-12.077 6.808-26.495 15.348zm-47.567 16.976c-10.589 8.167-19.367 15.03-19.5 15.25-.292.484-2.367 18.892-2.139 19.061.219.134 40.072-36.043 40.462-36.737.346-.572.935-11.764.655-12.145-.113-.159-8.882 6.439-19.478 14.571zm203.488-55.216c-.218 1.552-.304 2.883-.216 2.937.562.312 62.784 16.422 62.864 16.29.168-.379.71-12.683.589-13.178-.078-.318-11.06-2.017-31.091-4.838-17.006-2.363-31.137-4.266-31.349-4.214-.246.06-.587 1.416-.797 3.003zm-151.722 49.012c-13.748 10.362-25.13 18.948-25.324 19.07-.283.219 7.893 11.217 8.499 11.406.29.117 45.977-43.815 46.536-44.738.239-.395-.136-1.015-1.642-2.595-1.068-1.162-2.225-2.078-2.516-2.044-.29.033-11.804 8.539-25.553 18.901zm-77.451 17.535l-9.982 12.176-4.056 9.38c-2.207 5.183-3.969 9.434-3.881 9.487.088.054 5.106-6.303 11.1-14.172l10.969-14.252 2.856-6.952c2.795-6.75 3.267-8.027 3.038-7.896-.035.009-4.593 5.504-10.044 12.229zm226.646-58.402c-1.244 2.551-1.476 3.282-1.002 3.541.561.312 58.392 23.974 59.438 24.28.527.171 6.018-12.968 5.829-14.045-.06-.398-8.68-2.824-28.146-7.918a14002.89 14002.89 0 00-31.313-8.193l-3.234-.858-1.572 3.193zm-140.897 50.375c-12.773 12.371-23.142 22.656-23.055 22.86.41.761 13.048 9.546 13.401 9.31.477-.341 38.062-48.248 38.975-49.707l.7-1.108-3.211-1.987c-1.755-1.069-3.273-1.934-3.379-1.908-.097.061-10.65 10.204-23.431 22.54zm-61.199 15.437c-11.125 10.096-20.377 18.686-20.546 19.064-.24.546.284 3.151 1.985 10.114l2.297 9.401 20.456-22.337 20.492-22.347-1.084-3.368c-2.333-7.257-2.933-8.946-3.144-8.894-.141.034-9.322 8.307-20.456 18.367zm196.663-57.481c-1.424 1.659-2.593 3.143-2.62 3.337-.001.15 12.3 7.706 27.349 16.726 24.901 14.965 27.411 16.374 27.854 15.742.283-.369 2.727-3.663 5.463-7.29 2.727-3.662 4.924-6.745 4.889-6.887-.051-.212-59.393-24.553-60.044-24.619-.193-.027-1.466 1.333-2.891 2.991zm-123.128 49.742c-10.923 13.979-19.794 25.509-19.751 25.685.061.248 8.615 3.776 15.984 6.582l2.02.78 15.087-27.505c8.289-15.133 15.017-27.638 14.974-27.814-.035-.142-1.528-.751-3.347-1.318-1.783-.575-3.663-1.239-4.19-1.41-.896-.306-1.825.783-20.777 25zm115.084-41.86c-2.005 1.576-3.736 3.048-3.834 3.259-.195.272 43.101 38.72 45.583 40.473.676.472 1.241.034 8.662-6.423 4.373-3.802 8.013-6.938 8.075-6.991.053-.088-23.347-14.258-46.143-27.94l-8.749-5.241-3.594 2.863zM88.08 189.868c-6.497 8.403-12.12 15.806-12.553 16.474-.674 1.064-1.462 5.788-3.802 22.801-.156 1.199-.123 1.79.124 1.58.716-.737 25.627-36.784 26.107-37.725.454-1.047 2.445-18.574 2.093-18.488-.141.034-5.515 6.927-11.968 15.358zm122.406-17.395c-8.227 15.081-14.937 27.506-14.894 27.683.069.283 21.915 4.421 22.04 4.166.018-.079 4.196-13.085 9.224-28.882 5.099-15.964 8.978-28.821 8.767-28.92-.395-.24-9.513-1.646-9.936-1.542-.105.025-6.938 12.406-15.201 27.495zm88.045-39.897c-2.294 1.309-4.174 2.48-4.227 2.568-.08.132 34.861 47.324 35.361 47.689.052.062 4.728-2.653 10.393-6.059 6.9-4.158 10.184-6.308 10-6.6-.131-.231-10.514-9.416-23.063-20.433-18.149-15.903-22.978-19.929-23.577-19.782-.414.138-2.628 1.316-4.887 2.617zm-60.804 15.678c-4.286 13.181-17.664 55.475-17.648 55.845-.011.415 3.288.62 12.227.833 6.721.156 12.318.137 12.424-.039.16-.263 5.19-56.247 5.135-57.544-.016-.521-2.1-.648-10.521-.726-.932.003-1.144.205-1.617 1.631zm-111.145 44.38c-11.091 12.072-20.219 22.242-20.334 22.532-.241.696 10.992 18.25 11.591 18.104.212-.052 8.889-11.609 19.267-25.68 14.407-19.586 18.765-25.744 18.477-26.161-.952-1.602-8.274-10.787-8.573-10.789-.185.008-9.382 9.895-20.428 21.994zm159.479-54.09c-2.442 1.008-4.602 1.948-4.832 2.079-.379.28 21.893 52.627 22.542 52.993.316.222 23.317-9.254 23.618-9.702.107-.176-7.71-10.925-17.416-23.91-16.281-21.864-17.681-23.619-18.535-23.448-.502.085-2.935.979-5.377 1.988zm-34.209 10.978c-.122 1.49-1.265 14.54-2.547 29.01-1.246 14.462-2.226 26.349-2.138 26.402.351.214 25.813-3.01 26.008-3.282.177-.343-8.51-56.384-8.773-56.544-.263-.161-9.428.992-10.979 1.371-1.339.327-1.339.327-1.571 3.043zm14.822-4.594c-.066.952 8.766 56.059 8.985 56.192.307.188 21.379-5.11 23.856-5.977l2.027-.72-11.228-26.245c-6.172-14.409-11.281-26.307-11.324-26.483-.035-.142-2.818.388-6.2 1.215-4.546 1.11-6.097 1.639-6.116 2.018zm-181.882 70.91c-7.486 10.78-13.662 20.041-13.69 20.535-.085 1.032 4.082 24.507 4.398 24.73.123.045 6.392-10.213 13.912-22.837l13.702-22.934-.756-4.01c-1.055-5.847-3.333-15.327-3.65-15.25-.177.043-6.404 8.942-13.916 19.766zm54.246-7.372c-10.042 13.614-18.579 25.287-19.005 25.991l-.744 1.23 9.58 7.884c5.277 4.329 9.686 7.858 9.862 7.815.423-.103 32.499-57.263 32.493-57.898-.032-.592-12.879-9.925-13.531-9.84-.211.051-8.614 11.205-18.655 24.818zM65.724 231.02l-5.265 13.908-1.598 10.577c-.855 5.827-1.51 10.631-1.423 10.684.22.134 10.614-28.696 11.116-30.767.494-2.105 2.769-18.166 2.558-18.264-.052-.062-2.484 6.187-5.388 13.862zm91.325-7.516c-9.059 16.108-16.275 29.368-16.064 29.467 1.43.811 26.288 12.079 26.499 12.027.247-.06 24.488-62.235 24.589-63.046.036-.158-3.889-1.858-8.755-3.741-4.84-1.926-9.011-3.566-9.31-3.718-.369-.134-5.558 8.736-16.959 29.011zM90.2 241.033c-10.11 16.852-14.04 23.692-13.786 24.117.192.327 3.255 5.833 6.806 12.269 3.586 6.427 6.615 11.642 6.756 11.608.176-.043 6.172-12.032 13.393-26.642l13.103-26.609-3.669-5.695c-2.035-3.135-4.621-7.148-5.73-8.937-1.136-1.745-2.228-3.313-2.404-3.42-.184-.142-6.691 10.361-14.469 23.309zm271.962-77.711c-4.205 3.724-7.793 6.923-7.926 7.142-.266.44 45.191 51.093 45.623 50.875.838-.392 23.156-21.986 23.017-22.251-.358-.699-52.103-42.551-52.543-42.518-.255.025-3.921 3.055-8.171 6.752zm-180.28 70.894c-6.706 17.331-12.026 31.626-11.842 31.768.606.339 32.909 7.391 32.98 7.224.045-.123 3.221-15.093 7.028-33.289 3.951-18.829 6.754-33.184 6.535-33.318-.57-.347-21.485-4.189-22.014-4.06-.247.06-5.945 14.336-12.687 31.675zM62.506 258.959c-3.735 10.238-6.777 19.183-6.842 19.836-.12 1.19 3.801 28.396 4.117 28.619.087.053.229.019.246-.061.116-.29 12.724-39.624 13.26-41.402.412-1.374.251-2.796-1.566-13.138-1.15-6.386-2.136-11.8-2.276-12.065-.13-.231-3.248 7.947-6.939 18.211zm278.945-80.615c-5.621 3.433-10.263 6.29-10.316 6.378-.142.184 35.544 57.307 35.956 57.618.483.294 30.825-19.177 30.598-19.646-.305-.638-45.597-50.769-45.799-50.682-.098.061-4.783 2.891-10.439 6.332zm-122.678 30.343c-1.365 5.877-13.535 64.428-13.457 64.746.043.177.649.366 1.37.415.713.013 9.097.399 18.65.837 9.519.446 17.411.653 17.517.477.213-.352 1.938-66.351 1.731-67.2-.087-.353-.455-.638-.833-.658-.379-.02-5.825-.15-12.124-.259-6.273-.153-11.64-.265-11.913-.31-.272-.046-.663.798-.941 1.952zm97.356-17.678c-6.163 2.592-11.294 4.819-11.366 4.986-.186.308 23.868 63.006 24.263 63.247.219.134 35.751-15.213 35.964-15.565.168-.228-34.468-55.959-35.571-57.263-.262-.31-.825-.472-1.274-.325-.458.112-5.854 2.329-12.016 4.92zM104.67 264.501c-7.24 14.69-13.112 26.873-13.06 27.085.112.46 23.003 21.87 23.426 21.917.378.02 22.67-59.282 22.488-59.874-.209-.548-18.993-15.996-19.38-15.901-.177.043-6.234 12.084-13.474 26.773zm142.166-56.34c-.181 2.928-1.639 66.354-1.535 66.778.069.282.235.504.376.47.176-.044 8.857-1.041 19.368-2.185 10.512-1.145 19.324-2.212 19.633-2.324.432-.218-.37-5.49-5.15-33.46-3.152-18.256-5.775-33.27-5.898-33.315-.219-.134-24.412 2.78-25.751 3.108-.635.155-1.006.47-1.043.928zm36.044-6.37l-6.961 1.925.119.945c.392 2.825 11.299 65.814 11.386 65.867.211.099 39.125-10.269 39.267-10.454.079-.131-5.292-14.324-11.925-31.542-6.642-17.253-12.101-31.5-12.101-31.65-.069-.282-7.812 1.647-19.785 4.909zM68.146 288.929c-3.804 11.79-7.063 21.987-7.225 22.7-.323 1.278-.14 1.72 6.991 15.932 4.02 8.044 7.411 14.594 7.517 14.568.317-.078 13.288-49.237 13.239-50.049-.041-.627-12.483-23.279-13.262-24.175-.21-.249-3.126 8.142-7.26 21.024zm69.987-30.056c-4.855 12.684-20.92 55.596-20.975 55.984-.046.423 33.29 18.271 33.423 17.901.614-1.46 16.125-64.985 15.968-65.322-.201-.362-24.512-11.839-26.366-12.397-.325-.108-1.07 1.273-2.05 3.834zm-83.6 35.928c-.107 2.161-.436 8.458-.717 14.032l-.522 10.09 1.684 12.397c.919 6.817 1.737 12.459 1.825 12.513.21.098 1.478-30.023 1.336-31.674-.183-2.277-3.017-21.06-3.192-21.167-.088-.053-.263 1.675-.414 3.809zm106.193 6.117c-4.527 17.996-8.133 32.735-8.046 32.788.834.508 41.7 11.123 41.868 10.895.231-.431 8.026-68.026 7.888-68.591-.095-.389-32.484-8.094-33.259-7.905-.141.035-3.958 14.824-8.451 32.813zm-76.749 17.813a12350.876 12350.876 0 00-6.764 25.659c-.197.872 1.037 2.256 12.788 14.441 7.19 7.419 13.118 13.498 13.259 13.464.255-.025 11.135-55.452 10.988-56.053-.112-.46-22.004-21.141-23.154-21.871-.438-.267-1.967 4.937-7.117 24.36zm120.609-41.711c-.96 7.838-7.695 66.934-7.689 67.569.032.741.357.849 2.591.978 1.363.079 12.156.85 23.978 1.707 11.822.857 21.498 1.49 21.543 1.367.293-.634-2.072-70.69-2.415-70.869-.307-.187-32.178-1.802-37.167-1.894-.484.006-.74.331-.841 1.142zM60.113 319.018c.014.82-.37 9.64-.822 19.563l-.788 18.02 7.196 15.395c3.973 8.467 7.354 15.581 7.555 15.794.411.461 1.535-40.486 1.164-42.006-.31-1.272-13.448-27.687-13.939-28.017-.184-.142-.345.421-.366 1.251zm287.795-65.476c-10.633 4.62-17.881 7.964-17.926 8.237-.038.459 22.293 64.814 22.998 66.327.227.469.666.736 1.018.65.352-.086 10.695-4.672 22.969-10.217 18.2-8.192 22.309-10.169 22.197-10.629-.302-1.237-32.706-62.195-33.04-62.188-.185.008-8.393 3.548-18.216 7.82zm-102.782 24.81c.051 4.182 2.091 70.311 2.188 70.399.202.063 51.031-4.938 51.146-5.079.141-.184-12.765-70.287-12.949-70.429-.123-.045-8.68.847-19.042 1.992-10.37 1.111-19.394 2.079-20.089 2.136-1.065.073-1.25.231-1.254.981zm60.763-10.5c-9.823 2.587-17.921 4.902-17.983 5.105-.17.528 12.66 70.013 12.923 70.174.351.213 50.022-13.044 50.208-13.352.16-.264-21.536-62.939-22.936-66.379l-.549-1.327-1.92.544c-1.014.285-9.92 2.648-19.743 5.235zm-195.141 78.082l-5.517 28.313 8.371 4.921c26.289 15.45 29.405 17.198 29.548 16.714.403-1.559 6.828-60.243 6.619-60.641-.236-.505-32.764-17.801-33.222-17.689-.141.035-2.735 12.803-5.799 28.382zm-34.072 2.669c.034.142-.224 10.092-.535 22.115-.32 11.988-.393 22.08-.175 22.364 1.102 1.604 26.953 29.931 27.077 29.676.213-.351.014-46.406-.193-47.254-.086-.354-5.742-6.388-12.581-13.443-11.252-11.67-13.766-14.165-13.593-13.458zm72.053 17.379c-1.872 16.486-3.38 30.337-3.346 30.779.067.732 3.08 1.757 23.86 8.103 13.109 3.988 23.829 7.212 23.882 7.124.107-.176 1.356-64.149 1.252-64.573-.069-.283-41.556-11.608-42.085-11.479-.105.026-1.691 13.559-3.563 30.046zm-84.158 13.929c3.37 13.034 4.014 14.749 10.409 28.392l5.218 11.122-3.379-13.069-3.406-13.025-5.576-11.821c-3.05-6.521-5.629-11.883-5.76-11.963-.123-.045 1.008 4.585 2.494 10.364zm132.109-32.086c-.205.687-1.393 64.608-1.182 64.706.272.196 54.441 5.352 54.864 5.249.493-.121.66 1.786-2.401-34.132-1.56-18.307-2.911-32.396-3.13-32.53-.22-.134-10.915-.966-23.731-1.918-12.842-.907-23.556-1.661-23.829-1.706-.228-.019-.528.129-.591.331zm-91.518 29.81c-.054.388-.035 11.319.037 24.298l.083 23.574 3.834 2.397c2.114 1.318 10.993 6.939 19.739 12.48 8.747 5.541 16.02 10.094 16.17 10.095.123.045-.273-11.356-.885-25.326-.647-13.961-1.13-25.566-1.12-25.831.055-.388-37.167-22.529-37.625-22.417-.106.025-.213.351-.233.73zM376.86 320.85c-12.301 5.589-22.46 10.318-22.566 10.494-.178.343 19.823 64.331 20.139 64.553.21.098 52.467-24.278 52.635-24.506.045-.123-18.15-41.894-25.132-57.791-1.167-2.636-1.578-3.247-2.063-3.091-.308.113-10.669 4.778-23.013 10.341zm-129.463 30.69c-.08 2.117 5.561 66.018 5.824 66.178.263.16 53.571-4.323 57.885-4.853l.977-.126-6.514-33.239c-3.566-18.267-6.602-33.292-6.778-33.399-.175-.107-11.319.892-24.814 2.204-13.452 1.339-24.948 2.424-25.538 2.456-.774.04-1.03.214-1.042.779zM78.329 403.366c.803 3.287 2.834 10.993 4.495 17.179l3.018 11.284 3.177 3.681c6.79 7.929 22.817 26.148 23.22 26.424.404.276-3.761-16.159-7.551-29.84l-1.583-5.718-12.676-13.981a4818.08 4818.08 0 00-13.13-14.47c-.255-.275.122 1.88 1.03 5.441zm242.215-63.141c-10.546 2.838-19.224 5.22-19.304 5.352-.16.264 12.791 66.574 13.045 66.699.184.142 57.811-15.247 57.944-15.466.062-.053-4.377-14.399-9.83-31.83-5.497-17.458-10.022-32.007-10.108-32.361-.19-.777-.965-.588-31.747 7.606zm-175.381 60.071c-.056.688 2.188 49.614 2.332 50.815.084.803 2.719 1.807 25.306 9.435 16.771 5.678 25.267 8.359 25.339 8.042.161-.714-4.825-54.138-5.079-54.263-.299-.152-47.148-14.474-47.5-14.538-.193-.027-.362.201-.398.509zm-35.025 44.475c2.334 8.942 4.599 17.452 5.059 18.875l.867 2.635 19.483 12.955 19.517 12.947-2.545-10.876c-1.389-5.99-3.6-14.738-4.907-19.475l-2.353-8.563-15.774-10.004c-8.659-5.487-17.494-11.082-19.643-12.392l-3.905-2.379 4.201 16.277zm87.791-2.872c1.401 14.751 2.575 27.048 2.688 27.357.095.389 8.704 1.544 29.3 3.928 16.015 1.818 29.198 3.204 29.313 3.064.204-.387-8.054-55.896-8.361-56.083-.342-.179-54.476-5.343-54.996-5.179-.317.078.323 8.198 2.056 26.913zm-101.568 5.936a370.95 370.95 0 014.466 6.662c3.067 4.607 6.171 8.604 12.84 16.338 4.813 5.641 8.988 10.351 9.216 10.52.448.302-5.283-8.634-8.08-12.595-1.722-2.463-18.324-21.665-18.64-21.587-.107.025.006.335.198.662zm157.012-26.746c.03 1.191 8.162 55.42 8.329 55.492.298.152 62.372-4.826 62.505-5.045.151-.3-11.562-56.35-11.826-56.51-.175-.107-57.806 4.871-58.616 5.069-.211.051-.398.509-.392.994zm88.072-13.8c-14.511 3.882-26.466 7.214-26.573 7.39-.186.308 11.474 56.446 11.738 56.606.333.144 61.265-16.389 61.416-16.688.071-.168-3.258-12.725-7.42-27.925l-7.578-27.661-2.616.602c-1.418.309-14.466 3.759-28.967 7.676zm-190.942 57.207c1.365 5.434 3.655 14.35 5.126 19.758l2.629 9.844 25.097 9.037c13.764 4.99 25.131 9.029 25.202 9.012.106-.026-2.043-9.126-4.754-20.224-3.833-15.692-5.053-20.226-5.483-20.458-.755-.339-49.961-16.97-50.137-16.926-.106.025.947 4.487 2.32 9.957zm-31.312 6.788c.051.212 11.819 18.273 14.624 22.419.367.584 8.006 6.021 16.926 12.119 8.92 6.098 17.025 11.608 17.972 12.276.982.659 1.711 1.042 1.694.822-.129-.53-13.262-22.19-13.988-23.024-.569-.648-36.857-24.928-37.174-24.85-.071.017-.08.132-.054.238zm86.212 18.937c2.436 9.817 4.795 19.016 5.273 20.36l.833 2.493 28.773 3.757c15.811 2.055 28.94 3.679 29.187 3.618.387-.094-.587-4.388-4.698-20.911l-5.2-20.827-28.634-3.341c-15.759-1.843-28.951-3.264-29.303-3.178-.608.111-.384 1.18 3.769 18.029zm-45.322 7.215c.103.424 14.598 24.298 15.106 24.848.464.523 46.991 17.808 47.142 17.509.054-.088-2.78-5.726-6.312-12.54l-6.418-12.365-24.288-8.785c-13.352-4.828-24.517-8.804-24.79-8.85-.307-.037-.475.041-.44.183zm106.148-1.25c2.216 9.683 4.46 19.172 5.005 21.099l.969 3.508 31.053-2.193c17.032-1.202 31.09-2.352 31.161-2.519.106-.176-2.005-9.734-4.67-21.255l-4.847-20.913-.889.03c-.493-.029-14.233 1.043-30.535 2.329-16.266 1.277-29.98 2.305-30.455 2.346l-.827-.022 4.035 17.59zm90.677-30.804c-16.29 4.392-29.69 8.077-29.743 8.165-.151.299 9.412 42.044 9.675 42.204.483.294 61.018-16.179 61.064-16.602.073-.618-8.947-41.821-9.21-42.131-.14-.116-.659-.101-1.214.072-.555.173-14.317 3.909-30.572 8.292zm-144.19 50.954c7.028 13.638 12.803 24.437 13.11 24.624.746.455 54.773 7.78 54.81 7.472.09-.547-9.984-25.276-10.361-25.446-.395-.241-57.132-7.653-57.625-7.533-.176.043-.152.449.066.883zm-27.794 12.783c.868.649 3.938 2.82 6.885 4.797l5.333 3.641 19.122 7.201c10.531 3.981 19.06 7.103 18.947 6.944-.114-.16-2.507-2.159-5.338-4.426l-5.111-4.107-19.369-7.141a5093.98 5093.98 0 00-20.686-7.643l-1.308-.467 1.525 1.201zm88.062-5.895c.19.778 10.228 25.515 10.413 25.658.175.107 58.61-3.719 58.725-3.86.141-.184-6.786-26.094-7.066-26.325-.149-.151-14.012.726-30.744 1.93-16.733 1.204-30.648 2.169-30.921 2.123-.308-.037-.476.191-.407.474zm94.044-13.2l-27.312 7.421-2.502.611 3.45 13.052c1.858 7.149 3.582 13.132 3.766 13.274.351.214 52.047-13.463 55.793-14.79l1.824-.633-1.682-12.847c-.908-7.082-1.742-13.245-1.889-13.696-.242-.989 3.176-1.824-31.448 7.608zm-137.881 33.983c.105.124 3.085 2.542 6.618 5.387l6.434 5.094 24.182 3.456c13.312 1.916 24.278 3.395 24.322 3.271.054-.088-1.898-2.42-4.322-5.161l-4.429-4.985-26.371-3.707c-14.527-1.994-26.433-3.655-26.503-3.638-.071.018-.045.124.069.283zm56.052 7.055c-.186.308 7.891 9.683 8.813 10.244.57.348 7.804.003 26.517-1.197 14.188-.919 25.851-1.784 25.957-1.959.186-.308-3.399-10.705-3.741-10.884-.088-.053-12.85.743-28.35 1.795-15.465 1.044-28.368 1.874-28.597 1.855-.273-.046-.546.058-.599.146zm84.707-11.068c-13.515 3.676-24.633 6.767-24.713 6.899-.125.255 3.636 10.909 3.943 11.096.263.161 6.853-1.599 29.821-7.847 15.259-4.177 21.427-5.983 21.631-6.37.187-.308.559-2.908.828-5.783.269-2.874.51-5.555.565-5.942.127-.855 1.88-1.321-32.075 7.947z" fill="#131313"/><path d="M170.212 389.209l26.475-47.001c11.409-20.256-3.227-45.298-26.475-45.298-23.247 0-37.884 25.042-26.475 45.298l26.475 47.001z" fill="#FF5000"/><circle cx="169.903" cy="329.486" fill="#fff" r="12.669"/><path d="M119.25 186.954l8.611-15.288c3.711-6.588-1.049-14.734-8.611-14.734-7.562 0-12.322 8.146-8.611 14.734l8.611 15.288z" fill="#FF5000"/><circle cx="119.149" cy="167.528" fill="#fff" r="4.121"/><path d="M319.826 312.207l15.443-27.418c6.656-11.816-1.882-26.424-15.443-26.424s-22.099 14.608-15.444 26.424l15.444 27.418z" fill="#FF5000"/><circle cx="319.645" cy="277.368" fill="#fff" r="7.39"/></g><defs><clipPath id="clip0_22:454"><path fill="#fff" transform="rotate(-13.728 500.9 56.845)" d="M0 0h507.739v507.739H0z"/></clipPath></defs></svg>