<svg width="87" height="114" viewBox="0 0 87 114" fill="none" xmlns="http://www.w3.org/2000/svg">
<g clip-path="url(#clip0_379:2)">
<path fill-rule="evenodd" clip-rule="evenodd" d="M31.4341 27.1829H29.9687L28.65 25.1028L37.2957 6.65267V4.48177L36.3874 1.7151L38.7611 0L41.1353 1.7151L40.2265 4.48177V6.61754L48.8726 25.1028L47.5535 27.1829H46.0881V36.8476L51.2757 41.2126L53.9135 35.9478L57.577 27.5073L56.6389 24.6819L59.1887 22.8326L61.7678 24.6819L60.8595 27.4517L64.523 35.9478L68.0105 42.9072L68.0691 54.9384L68.0398 76.69C68.0398 79.6759 68.7434 82.621 70.0916 85.2855C70.5898 86.2847 70.9999 87.0764 70.9999 87.0764C70.9999 87.0764 70.1793 86.6702 69.1535 86.1589C66.5158 84.8413 63.5852 84.1548 60.6251 84.1548H38.7611C30.7893 84.1548 23.5503 80.9702 18.2455 75.8077H18.2162V75.7579C12.7942 70.4552 9.45309 63.0839 9.45309 54.9384V41.7911H9.42377L9.45309 40.3303V34.2678L12.8823 27.4342L16.6631 18.6955L15.6957 15.7359L18.2455 13.8895L20.7953 15.7359L19.8282 18.6955L23.6091 27.4342L27.0379 34.2678V38.9952V40.4209L31.4341 36.728V27.1829ZM65.109 67.814L59.2767 56.3992H41.6626L38.7611 62.1052V81.2331V84.1548V81.2331H60.6251C62.3543 81.2331 64.0541 81.4318 65.7247 81.8262C65.3144 80.1463 65.109 78.4225 65.109 76.6841V67.814ZM47.0555 72.8129V81.2331H44.1247V72.1235L47.6122 65.1641H55.2909L58.7787 72.1235V81.2331H55.8479V72.8129L53.4738 68.0858H49.4293L47.0555 72.8129ZM21.147 74.4958C25.1329 78.0689 30.2032 80.45 35.8303 81.0694V63.7062H21.147V74.4958ZM-265.104 69.1901C-264.371 69.1901 -263.698 69.3129 -263.082 69.5612C-262.467 69.8066 -261.909 70.1777 -261.382 70.6714C-260.796 71.2266 -260.386 71.878 -260.093 72.6289C-259.799 73.3798 -259.653 74.2125 -259.653 75.1211C-259.653 75.7464 -259.712 76.3365 -259.858 76.8887C-260.005 77.4438 -260.21 77.9637 -260.503 78.4517C-260.972 79.2697 -261.617 79.9067 -262.437 80.3654C-263.229 80.8241 -264.137 81.0519 -265.104 81.0519C-265.808 81.0519 -266.482 80.9292 -267.127 80.6809C-267.771 80.4354 -268.328 80.0761 -268.826 79.6058C-269.383 79.0506 -269.823 78.3963 -270.116 77.6396C-270.409 76.8829 -270.555 76.0414 -270.555 75.1211C-270.555 74.2067 -270.409 73.371 -270.116 72.6202C-269.823 71.8693 -269.412 71.2207 -268.826 70.6714C-268.328 70.1835 -267.771 69.8153 -267.127 69.5641C-266.511 69.3157 -265.808 69.1901 -265.104 69.1901ZM-155.99 69.1901C-155.258 69.1901 -154.584 69.3129 -153.968 69.5612C-153.353 69.8066 -152.767 70.1777 -152.268 70.6714C-151.682 71.2266 -151.272 71.878 -150.979 72.6289C-150.686 73.3798 -150.539 74.2125 -150.539 75.1211C-150.539 75.7464 -150.598 76.3365 -150.744 76.8887C-150.891 77.4438 -151.096 77.9637 -151.389 78.4517C-151.858 79.2697 -152.503 79.9067 -153.323 80.3654C-154.115 80.8241 -155.023 81.0519 -155.99 81.0519C-156.694 81.0519 -157.368 80.9292 -158.013 80.6809C-158.658 80.4354 -159.214 80.0761 -159.713 79.6058C-160.269 79.0506 -160.709 78.3963 -161.002 77.6396C-161.295 76.8829 -161.442 76.0414 -161.442 75.1211C-161.442 74.2067 -161.295 73.371 -161.002 72.6202C-160.709 71.8693 -160.269 71.2207 -159.713 70.6714C-159.214 70.1835 -158.628 69.8153 -158.013 69.5641C-157.368 69.3157 -156.694 69.1901 -155.99 69.1901ZM-91.1612 69.1901C-90.4285 69.1901 -89.7545 69.3129 -89.1391 69.5612C-88.5236 69.8066 -87.9372 70.1777 -87.439 70.6714C-86.8528 71.2266 -86.4133 71.878 -86.1203 72.6289C-85.8272 73.3798 -85.6806 74.2125 -85.6806 75.1211C-85.6806 75.7464 -85.7684 76.3365 -85.9149 76.8887C-86.0614 77.4438 -86.2669 77.9637 -86.56 78.4517C-87.0289 79.2697 -87.6734 79.9067 -88.494 80.3654C-89.2853 80.8241 -90.1647 81.0519 -91.1612 81.0519C-91.8645 81.0519 -92.5388 80.9292 -93.1836 80.6809C-93.8284 80.4354 -94.3851 80.0761 -94.854 79.6058C-95.4402 79.0506 -95.8796 78.3963 -96.1727 77.6396C-96.4658 76.8829 -96.6124 76.0414 -96.6124 75.1211C-96.6124 74.2067 -96.4658 73.371 -96.1727 72.6202C-95.8796 71.8693 -95.4402 71.2207 -94.8833 70.6714C-94.3851 70.1835 -93.7991 69.8153 -93.1836 69.5641C-92.5388 69.3157 -91.8645 69.1901 -91.1612 69.1901ZM-234.829 80.3947C-235.386 80.5875 -235.972 80.7335 -236.529 80.8328C-237.115 80.9351 -237.701 80.9878 -238.258 80.9878C-238.815 80.9878 -239.313 80.9293 -239.811 80.8125C-240.28 80.6985 -240.72 80.5319 -241.13 80.3128C-242.039 79.7957 -242.742 79.0769 -243.27 78.1537C-243.797 77.2275 -244.061 76.2197 -244.061 75.1211C-244.061 73.3652 -243.504 71.9539 -242.42 70.8817C-241.365 69.8095 -239.929 69.272 -238.17 69.272C-237.672 69.272 -237.144 69.3216 -236.587 69.418C-236.031 69.5115 -235.445 69.6577 -234.829 69.8476V72.439H-235.767L-236.031 70.9109L-236.265 70.6042C-236.588 70.4581 -236.91 70.3471 -237.203 70.277C-237.525 70.204 -237.819 70.1689 -238.141 70.1689C-239.43 70.1689 -240.427 70.6014 -241.189 71.4691C-241.922 72.3368 -242.303 73.5142 -242.303 75.0072C-242.303 76.5907 -241.922 77.8353 -241.13 78.738C-240.339 79.6379 -239.284 80.0908 -237.877 80.0908C-237.643 80.0908 -237.408 80.0733 -237.174 80.0353C-236.91 80.0003 -236.676 79.9447 -236.412 79.8688L-236.148 79.6058L-235.737 77.7302H-234.829V80.3947ZM-211.412 69.4794V70.1689L-212.379 70.2508L-212.672 70.4903V79.7695L-212.379 80.0089L-211.412 80.0908V80.7802H-215.515V80.0908L-214.46 80.0089L-214.196 79.7695V70.2508H-216.863C-216.893 70.6803 -216.922 71.1359 -216.951 71.618C-217.01 72.1001 -217.039 72.5792 -217.098 73.0554C-217.156 73.5346 -217.215 73.9904 -217.274 74.4228C-217.303 74.8552 -217.361 75.235 -217.42 75.5564C-217.537 76.1553 -217.684 76.7748 -217.86 77.4117C-218.065 78.0515 -218.299 78.6358 -218.563 79.1646C-218.856 79.6934 -219.179 80.1287 -219.56 80.4735C-219.941 80.8153 -220.351 80.9878 -220.82 80.9878C-220.937 80.9878 -221.054 80.9731 -221.171 80.9498C-221.289 80.9235 -221.435 80.8767 -221.552 80.8066C-221.67 80.7335 -221.758 80.6312 -221.845 80.4968C-221.933 80.3624 -221.963 80.1843 -221.963 79.9594C-221.963 79.6993 -221.904 79.4889 -221.758 79.3253C-221.611 79.1616 -221.465 79.0507 -221.259 78.9952L-219.999 79.7372C-219.823 79.4771 -219.648 79.2026 -219.501 78.9105C-219.325 78.6154 -219.179 78.2881 -219.061 77.9229C-218.915 77.5577 -218.798 77.1457 -218.68 76.6841C-218.563 76.2225 -218.475 75.6966 -218.358 75.1035C-218.299 74.7441 -218.212 74.1599 -218.124 73.3565C-218.006 72.553 -217.918 71.621 -217.86 70.5575L-218.124 70.3325L-219.589 70.1689V69.4794H-211.412ZM-104.408 69.4794V70.1689L-105.463 70.2508L-105.727 70.4903V74.6127H-104.496C-104.379 74.6127 -104.233 74.5951 -104.027 74.563C-103.822 74.5279 -103.617 74.4344 -103.441 74.2737C-103.207 74.1101 -103.031 73.9027 -102.884 73.6573C-102.738 73.4089 -102.621 73.2191 -102.591 73.0818L-101.859 71.4604C-101.741 71.2149 -101.624 70.9635 -101.478 70.7123C-101.331 70.461 -101.184 70.2332 -101.009 70.0345C-100.862 69.8329 -100.657 69.6663 -100.452 69.5348C-100.247 69.4034 -99.983 69.3392 -99.6899 69.3392C-99.3382 69.3392 -99.0743 69.4268 -98.8398 69.6021C-98.6347 69.7774 -98.5175 70.0316 -98.5175 70.3676C-98.5175 70.5809 -98.5763 70.7678 -98.6935 70.9256C-98.7814 71.0863 -98.9277 71.2032 -99.1035 71.2792L-100.305 70.54C-100.481 70.765 -100.628 70.9548 -100.686 71.1126L-101.653 73.2717C-101.888 73.8093 -102.152 74.1891 -102.415 74.4141C-102.708 74.639 -102.972 74.7938 -103.207 74.8815V74.9166C-102.855 74.9867 -102.533 75.1094 -102.24 75.2818C-101.976 75.4542 -101.741 75.6383 -101.566 75.8282C-101.478 75.9509 -101.36 76.1291 -101.185 76.3628C-101.038 76.5994 -100.862 76.9763 -100.628 77.4992L-99.6312 79.7197L-99.1915 80.0089L-98.0191 80.0908V80.7802H-101.214V80.2777L-102.357 77.327C-102.591 76.7339 -102.855 76.2517 -103.207 75.8777C-103.558 75.5067 -104.057 75.3198 -104.701 75.3198H-105.727V79.7695L-105.463 80.0089L-104.408 80.0908V80.7802H-108.512V80.0908L-107.544 80.0089L-107.251 79.7695V70.4903L-107.544 70.2508L-108.512 70.1689V69.4794H-104.408ZM-7.10599 70.1689L-8.07303 70.2508L-8.36603 70.4903V79.7695L-8.07303 80.0089L-7.10599 80.0908V80.7802H-11.1212V80.0908L-10.1538 80.0089L-9.86078 79.7695V75.6236L-10.8571 75.5914C-11.3554 75.5914 -11.7658 75.7025 -12.1176 75.9275C-12.4692 76.1525 -12.7621 76.5789 -13.0259 77.21L-14.2276 80.2777V80.7802H-17.3638V80.0908L-16.1914 80.0089L-15.7517 79.7197L-14.814 77.7125C-14.6968 77.4759 -14.5795 77.2334 -14.433 76.9792C-14.3158 76.728 -14.1692 76.4913 -13.9933 76.2722C-13.8174 76.0531 -13.6121 75.8632 -13.3776 75.7025C-13.1724 75.5388 -12.8796 75.4249 -12.5866 75.3606V75.3198C-12.909 75.3081 -13.2606 75.2526 -13.6123 75.1532C-13.9933 75.0568 -14.3156 74.896 -14.6086 74.6769C-14.9017 74.4578 -15.1362 74.1745 -15.3413 73.8269C-15.5172 73.4763 -15.6344 73.0554 -15.6344 72.5617C-15.6344 71.8546 -15.4881 71.2967 -15.1657 70.8847C-14.8726 70.4728 -14.5206 70.1631 -14.1103 69.9557C-13.6707 69.7482 -13.2605 69.6167 -12.7916 69.5612C-12.352 69.5057 -12.0002 69.4794 -11.6779 69.4794H-7.10599V70.1689ZM-228.44 69.3392H-227.326L-223.282 79.8834L-222.256 80.0908V80.7802H-226.095V80.0908L-225.07 80.0089L-224.923 79.7695L-226.154 76.5527H-230.14L-231.341 79.7695L-231.166 80.0089L-230.081 80.0908V80.7802H-233.393V80.0908L-232.426 79.8834L-228.44 69.3392ZM-116.19 70.1689L-117.157 70.2508L-117.45 70.4903V79.7695L-117.157 80.0089L-116.19 80.0908V80.7802H-120.205V80.0908L-119.238 80.0089L-118.945 79.7695V75.6236L-119.942 75.5914C-120.44 75.5914 -120.85 75.7025 -121.202 75.9275C-121.554 76.1525 -121.847 76.5789 -122.081 77.21L-123.312 80.2777V80.7802H-126.448V80.0908L-125.276 80.0089L-124.807 79.7197L-123.898 77.7125C-123.781 77.4759 -123.664 77.2334 -123.517 76.9792C-123.4 76.728 -123.253 76.4913 -123.078 76.2722C-122.902 76.0531 -122.697 75.8632 -122.462 75.7025C-122.228 75.5388 -121.964 75.4249 -121.671 75.3606V75.3198C-121.993 75.3081 -122.345 75.2526 -122.697 75.1532C-123.048 75.0568 -123.4 74.896 -123.693 74.6769C-123.986 74.4578 -124.221 74.1745 -124.426 73.8269C-124.602 73.4763 -124.719 73.0554 -124.719 72.5617C-124.719 71.8546 -124.543 71.2967 -124.25 70.8847C-123.957 70.4728 -123.605 70.1631 -123.166 69.9557C-122.755 69.7482 -122.316 69.6167 -121.876 69.5612C-121.436 69.5057 -121.055 69.4794 -120.762 69.4794H-116.19V70.1689ZM-194.413 69.4794V70.1689L-195.468 70.2508L-195.762 70.4903V78.1157L-189.724 70.8262V70.4903L-190.017 70.2508L-191.072 70.1689V69.4794H-186.969V70.1689L-187.907 70.2508L-188.2 70.4903V79.7695L-187.907 80.0089L-186.969 80.0908V80.7802H-191.072V80.0908L-190.017 80.0089L-189.724 79.7695V71.9716L-195.762 79.2669V79.7695L-195.468 80.0089L-194.413 80.0908V80.7802H-198.516V80.0908L-197.549 80.0089L-197.256 79.7695V70.4903L-197.549 70.2508L-198.516 70.1689V69.4794H-194.413ZM-43.477 69.4794H-39.3738V70.1543L-40.3998 70.2508L-40.6929 70.4903V74.4637H-34.8899V70.4903L-35.1829 70.2508L-36.2086 70.1543V69.4794H-32.1055V70.1543L-33.0728 70.2508L-33.3658 70.4903V79.7695L-33.0728 80.0089L-32.1055 80.0908V80.7802H-36.2086V80.0908L-35.1829 80.0089L-34.8899 79.7695V75.2379H-40.6929V79.7695L-40.3998 80.0089L-39.3738 80.0908V80.7802H-43.477V80.0908L-42.5099 80.0089L-42.2169 79.7695V70.4903L-42.5099 70.2508L-43.477 70.1543V69.4794ZM-50.8626 69.3392H-49.7489L-45.7044 79.8834L-44.6787 80.0908V80.7802H-48.5182V80.0908L-47.4628 80.0089L-47.3458 79.7695L-48.5765 76.5527H-52.5624L-53.7641 79.7695L-53.5884 80.0089L-52.5041 80.0908V80.7802H-55.8159V80.0908L-54.8192 79.8834L-50.8626 69.3392ZM-57.0759 69.4794V70.1689L-58.0433 70.2508L-58.3363 70.4903V79.7695L-58.0433 80.0089L-57.0759 80.0908V80.7802H-61.1791V80.0908L-60.1241 80.0089L-59.8604 79.7695V70.2508H-65.341V79.7695L-65.0476 80.0089L-63.9926 80.0908V80.7802H-68.0958V80.0908L-67.1287 80.0089L-66.8357 79.7695V70.4903L-67.1287 70.2508L-68.0958 70.1689V69.4794H-57.0759ZM-278.351 69.4794V70.1689L-279.406 70.2508L-279.699 70.4903V74.6127H-278.439C-278.322 74.6127 -278.176 74.5951 -277.97 74.563C-277.765 74.5279 -277.59 74.4344 -277.384 74.2737C-277.15 74.1101 -276.974 73.9027 -276.827 73.6573C-276.681 73.4089 -276.593 73.2191 -276.534 73.0818L-275.802 71.4604C-275.684 71.2149 -275.567 70.9635 -275.421 70.7123C-275.303 70.461 -275.127 70.2332 -274.981 70.0345C-274.805 69.8329 -274.6 69.6663 -274.395 69.5348C-274.19 69.4034 -273.926 69.3392 -273.633 69.3392C-273.281 69.3392 -273.017 69.4268 -272.812 69.6021C-272.578 69.7774 -272.46 70.0316 -272.46 70.3676C-272.46 70.5809 -272.519 70.7678 -272.636 70.9256C-272.724 71.0863 -272.871 71.2032 -273.047 71.2792L-274.248 70.54C-274.453 70.765 -274.571 70.9548 -274.629 71.1126L-275.597 73.2717C-275.831 73.8093 -276.095 74.1891 -276.388 74.4141C-276.652 74.639 -276.915 74.7938 -277.15 74.8815V74.9166C-276.798 74.9867 -276.476 75.1094 -276.183 75.2818C-275.919 75.4542 -275.684 75.6383 -275.538 75.8282C-275.421 75.9509 -275.303 76.1291 -275.157 76.3628C-275.01 76.5994 -274.805 76.9763 -274.571 77.4992L-273.574 79.7197L-273.134 80.0089L-271.962 80.0908V80.7802H-275.186V80.2777L-276.3 77.327C-276.534 76.7339 -276.827 76.2517 -277.15 75.8777C-277.501 75.5067 -278 75.3198 -278.644 75.3198H-279.699V79.7695L-279.406 80.0089L-278.351 80.0908V80.7802H-282.455V80.0908L-281.488 80.0089L-281.194 79.7695V70.4903L-281.488 70.2508L-282.455 70.1689V69.4794H-278.351ZM-185.005 69.4794H-180.902V70.1543L-181.928 70.2508L-182.221 70.4903V74.4637H-176.418V70.4903L-176.711 70.2508L-177.737 70.1543V69.4794H-173.634V70.1543L-174.601 70.2508L-174.894 70.4903V79.7695L-174.601 80.0089L-173.634 80.0908V80.7802H-177.737V80.0908L-176.711 80.0089L-176.418 79.7695V75.2379H-182.221V79.7695L-181.928 80.0089L-180.902 80.0908V80.7802H-185.005V80.0908L-184.038 80.0089L-183.745 79.7695V70.4903L-184.038 70.2508L-185.005 70.1543V69.4794ZM-209.741 69.4794H-200.187V72.0709H-201.125L-201.359 70.5078L-201.594 70.2508H-204.173V79.7695L-203.909 80.0089L-202.766 80.0908V80.7802H-207.162V80.0908L-206.049 80.0089L-205.755 79.7695V70.2508H-208.335L-208.569 70.5078L-208.804 72.0709H-209.741V69.4794ZM-257.513 69.4794H-253.41V70.1543L-254.465 70.2508L-254.759 70.4903V74.4637H-248.955V70.4903L-249.249 70.2508L-250.274 70.1543V69.4794H-246.171V70.1543L-247.138 70.2508L-247.432 70.4903V79.7695L-247.138 80.0089L-246.171 80.0908V80.7802H-250.274V80.0908L-249.249 80.0089L-248.955 79.7695V75.2379H-254.759V79.7695L-254.465 80.0089L-253.41 80.0908V80.7802H-257.513V80.0908L-256.576 80.0089L-256.282 79.7695V70.4903L-256.576 70.2508L-257.513 70.1543V69.4794ZM-26.0388 69.4794V70.1689L-27.0939 70.2508L-27.3869 70.4903V78.1157L-21.379 70.8262V70.4903L-21.6426 70.2508L-22.6977 70.1689V69.4794H-18.5945V70.1689L-19.5619 70.2508L-19.8549 70.4903V79.7695L-19.5619 80.0089L-18.5945 80.0908V80.7802H-22.6977V80.0908L-21.6426 80.0089L-21.379 79.7695V71.9716L-27.3869 79.2669V79.7695L-27.0939 80.0089L-26.0388 80.0908V80.7802H-30.142V80.0908L-29.204 80.0089L-28.911 79.7695V70.4903L-29.204 70.2508L-30.142 70.1689V69.4794H-26.0388ZM-148.4 69.4794H-144.092C-142.802 69.4794 -141.835 69.7044 -141.19 70.1543C-140.545 70.6013 -140.223 71.2879 -140.223 72.2082C-140.223 72.8451 -140.428 73.3797 -140.838 73.8092C-141.249 74.2387 -141.864 74.566 -142.685 74.7852C-141.688 74.7939 -140.926 75.0363 -140.369 75.5125C-139.813 75.9858 -139.549 76.6432 -139.549 77.4818C-139.549 78.5511 -139.93 79.3691 -140.662 79.933C-141.424 80.4998 -142.509 80.7802 -143.945 80.7802H-148.4V80.0908L-147.462 80.0089L-147.169 79.7695V70.4903L-147.462 70.2508L-148.4 70.1543V69.4794ZM-171.553 80.0908L-170.586 80.0089L-170.293 79.7695V70.4903L-170.586 70.2508L-171.67 70.1689V69.4794H-163.581V72.547H-164.461L-164.754 70.5224L-164.988 70.2508H-168.769V79.7695L-168.476 80.0089L-167.303 80.0908V80.7802H-171.553V80.0908ZM-133.101 69.3392H-132.017L-127.943 79.8834L-126.946 80.0908V80.7802H-130.786V80.0908L-129.731 80.0089L-129.613 79.7695L-130.815 76.5527H-134.801L-136.003 79.7695L-135.827 80.0089L-134.742 80.0908V80.7802H-138.054V80.0908L-137.087 79.8834L-133.101 69.3392ZM-83.6292 80.7802V80.0908L-82.6031 79.9594L-82.3101 79.6379V70.4903L-82.5154 70.2508L-83.6292 70.1543V69.4794H-80.0533V69.9323L-76.8588 78.3875L-73.6644 69.9965V69.4794H-70.0302V70.1543L-71.1146 70.2508L-71.3196 70.4903V79.7695L-71.1146 80.0089L-70.0302 80.0908V80.7802H-74.0747V80.0908L-72.961 80.0089L-72.8143 79.7695V70.2683L-76.8002 80.7802H-77.5329L-81.3724 70.4405V79.6379L-81.0794 79.9594L-80.0533 80.0908V80.7802H-83.6292ZM-265.104 70.1046C-266.218 70.1046 -267.127 70.5545 -267.801 71.4573C-268.475 72.3601 -268.797 73.5814 -268.797 75.1211C-268.797 76.6579 -268.475 77.8791 -267.801 78.7906C-267.127 79.6993 -266.218 80.155 -265.104 80.155C-263.99 80.155 -263.082 79.6992 -262.437 78.7848C-261.763 77.8732 -261.411 76.6521 -261.411 75.1211C-261.411 73.5902 -261.763 72.3718 -262.437 71.4661C-263.082 70.5574 -263.99 70.1046 -265.104 70.1046ZM-155.99 70.1046C-157.104 70.1046 -158.013 70.5545 -158.687 71.4573C-159.361 72.3601 -159.683 73.5814 -159.683 75.1211C-159.683 76.6579 -159.361 77.8791 -158.687 78.7906C-158.013 79.6993 -157.104 80.155 -155.99 80.155C-154.877 80.155 -153.968 79.6992 -153.294 78.7848C-152.65 77.8732 -152.298 76.6521 -152.298 75.1211C-152.298 73.5902 -152.65 72.3718 -153.294 71.4661C-153.968 70.5574 -154.877 70.1046 -155.99 70.1046ZM-91.1612 70.1046C-92.2749 70.1046 -93.1835 70.5545 -93.8576 71.4573C-94.5024 72.3601 -94.854 73.5814 -94.854 75.1211C-94.854 76.6579 -94.5024 77.8791 -93.8283 78.7906C-93.1835 79.6993 -92.2749 80.155 -91.1612 80.155C-90.0475 80.155 -89.1388 79.6992 -88.4647 78.7848C-87.7906 77.8732 -87.4683 76.6521 -87.4683 75.1211C-87.4683 73.5902 -87.7906 72.3718 -88.4647 71.4661C-89.1388 70.5574 -90.0475 70.1046 -91.1612 70.1046ZM-145.645 79.9417L-144.502 79.9915C-143.359 79.9915 -142.509 79.8016 -141.981 79.4189C-141.454 79.0391 -141.19 78.4312 -141.19 77.5986C-141.19 76.836 -141.425 76.2663 -141.893 75.8952C-142.362 75.5213 -143.036 75.3344 -143.974 75.3344C-144.209 75.3344 -144.443 75.3461 -144.736 75.3636C-145 75.3841 -145.322 75.4103 -145.645 75.4425V79.9417ZM-50.599 71.1067L-52.2694 75.7784H-48.8699L-50.599 71.1067ZM-132.866 71.1067L-134.508 75.7784H-131.108L-132.866 71.1067ZM-228.176 71.1067L-229.847 75.7784H-226.447L-228.176 71.1067ZM32.8995 72.4682H29.9687V75.3899H32.8995V72.4682ZM-9.86078 70.2508H-10.8865C-11.2089 70.2508 -11.5899 70.274 -12.0002 70.3178C-12.4105 70.3617 -12.7622 70.5019 -13.0846 70.7356C-13.4656 71.0103 -13.7 71.3287 -13.8173 71.6881C-13.9052 72.0474 -13.964 72.3601 -13.964 72.6289C-13.964 72.8217 -13.9346 73.0438 -13.8759 73.2951C-13.8466 73.5464 -13.7001 73.7859 -13.4949 74.0109C-13.3191 74.2359 -12.9969 74.4257 -12.6159 74.5835C-12.2056 74.7383 -11.6779 74.8173 -11.0038 74.8173L-9.86078 74.7852V70.2508ZM-118.945 70.2508H-119.971C-120.293 70.2508 -120.645 70.274 -121.085 70.3178C-121.495 70.3617 -121.847 70.5019 -122.169 70.7356C-122.55 71.0103 -122.784 71.3287 -122.902 71.6881C-122.99 72.0474 -123.048 72.3601 -123.048 72.6289C-123.048 72.8217 -123.019 73.0438 -122.96 73.2951C-122.902 73.5464 -122.784 73.7859 -122.579 74.0109C-122.374 74.2359 -122.081 74.4257 -121.7 74.5835C-121.29 74.7383 -120.762 74.8173 -120.088 74.8173L-118.945 74.7852V70.2508ZM-145.645 74.5953L-145 74.6127C-143.945 74.6127 -143.154 74.4228 -142.656 74.0489C-142.157 73.672 -141.893 73.0818 -141.893 72.2755C-141.893 71.5889 -142.128 71.0746 -142.597 70.7328C-143.066 70.391 -143.769 70.2185 -144.678 70.2185L-145.645 70.2683V74.5953ZM12.3839 41.8116V54.9384C12.3839 61.1703 14.5527 66.9025 18.2162 71.4135V60.7845H36.1233L39.8748 53.4776H50.4257V49.0952H27.0379V60.7817H24.1071V41.8933L12.3839 41.8116ZM27.0379 66.625H24.1071V69.5466H27.0379V66.625ZM32.8995 66.625H29.9687V69.5466H32.8995V66.625ZM48.5209 62.2425H54.3825V59.3209H48.5209V62.2425ZM-233.305 25.0238C-231.048 25.0238 -228.967 25.4094 -227.004 26.1807C-225.069 26.9491 -223.311 28.1062 -221.699 29.6459C-219.911 31.3755 -218.563 33.4118 -217.655 35.7579C-216.746 38.104 -216.277 40.6955 -216.277 43.5383C-216.277 45.4899 -216.482 47.3304 -216.951 49.06C-217.391 50.7867 -218.065 52.4141 -218.944 53.9363C-220.439 56.4868 -222.461 58.4794 -224.982 59.9081C-227.502 61.3368 -230.286 62.0526 -233.305 62.0526C-235.562 62.0526 -237.672 61.667 -239.636 60.8956C-241.629 60.1273 -243.387 59.0053 -244.911 57.5328C-246.699 55.8032 -248.047 53.7581 -248.985 51.3945C-249.893 49.0338 -250.362 46.4132 -250.362 43.5383C-250.362 40.678 -249.893 38.0778 -248.985 35.7317C-248.076 33.3856 -246.728 31.358 -244.97 29.6459C-243.387 28.1237 -241.629 26.9726 -239.636 26.1925C-237.672 25.4124 -235.562 25.0238 -233.305 25.0238ZM-30.7867 26.771C-28.5593 26.0698 -26.6251 25.6433 -25.0131 25.5001C-23.3719 25.354 -22.1115 25.2809 -21.1736 25.2809C-19.7375 25.2809 -18.2428 25.389 -16.7481 25.6023C-15.2827 25.8155 -13.9052 26.2392 -12.7036 26.8732C-11.5019 27.5072 -10.5054 28.4013 -9.74341 29.5553C-8.95212 30.7123 -8.57138 32.2315 -8.57138 34.1131C-8.57138 34.9516 -8.71768 35.7958 -9.04007 36.6431C-9.36246 37.4904 -9.83136 38.2823 -10.4761 39.0185C-11.1209 39.7548 -11.8831 40.4005 -12.8209 40.9585C-13.7588 41.5136 -14.8138 41.9547 -16.0154 42.279V42.3813C-14.6672 42.4514 -13.4362 42.7113 -12.3225 43.1642C-11.2088 43.6199 -10.2124 44.2131 -9.39175 44.9493C-8.57111 45.6856 -7.92661 46.565 -7.45767 47.5817C-6.98874 48.6014 -6.78329 49.6913 -6.78329 50.857C-6.78329 52.534 -7.07657 54.0649 -7.72134 55.4527C-8.36612 56.8405 -9.42108 58.0383 -10.8865 59.0463C-11.6192 59.578 -12.4691 60.0192 -13.4069 60.3698C-14.3448 60.7204 -15.2829 61.0066 -16.2501 61.2316C-17.2172 61.4536 -18.155 61.6114 -19.0929 61.7049C-20.0307 61.7984 -20.8806 61.8452 -21.6426 61.8452C-21.965 61.8452 -22.434 61.8247 -23.108 61.7808C-23.7528 61.7399 -24.515 61.667 -25.4235 61.5647C-26.3027 61.4625 -27.2989 61.2989 -28.3833 61.0768C-29.497 60.8548 -30.6402 60.545 -31.8418 60.1506V50.9066H-28.8816L-28.0903 56.9426L-27.4162 57.8396C-26.7128 58.269 -25.9218 58.6022 -25.0718 58.8417C-24.2512 59.0813 -23.1959 59.201 -21.9063 59.201C-20.4995 59.201 -19.2101 59.0258 -18.0085 58.6752C-16.8069 58.3246 -15.7809 57.825 -14.9017 57.1735C-14.0224 56.522 -13.3192 55.7273 -12.8209 54.7836C-12.2934 53.8429 -12.0589 52.756 -12.0589 51.523C-12.0589 49.8109 -12.3811 48.4642 -13.0259 47.4796C-13.6707 46.495 -14.4621 45.7499 -15.3707 45.2445C-16.2792 44.742 -17.2463 44.4235 -18.2428 44.2949C-19.2393 44.1664 -20.1186 44.1021 -20.8513 44.1021C-21.6719 44.1021 -22.434 44.1489 -23.1374 44.2453C-23.8408 44.3388 -24.5735 44.5052 -25.3942 44.7448V41.5865C-25.2183 41.5865 -24.8372 41.6041 -24.2511 41.6392C-23.6649 41.6713 -23.0789 41.6889 -22.4927 41.6889C-21.4376 41.6889 -20.3529 41.5953 -19.2685 41.4054C-18.1841 41.2184 -17.1586 40.7392 -16.2207 39.9679C-15.3122 39.2317 -14.6673 38.4166 -14.3156 37.5167C-13.9346 36.6168 -13.7586 35.6644 -13.7586 34.6536C-13.7586 33.3856 -13.964 32.3249 -14.4037 31.4689C-14.8433 30.6129 -15.4 29.9205 -16.1327 29.3888C-16.8361 28.8599 -17.5983 28.483 -18.4775 28.258C-19.3568 28.036 -20.2357 27.9251 -21.1149 27.9251C-22.0528 27.9251 -22.9322 28.0126 -23.8114 28.1821C-24.6613 28.3544 -25.5406 28.635 -26.4492 29.0294L-27.2406 29.9029L-27.8266 34.9107H-30.7867V26.771ZM-172.286 26.771C-170.058 26.0698 -168.153 25.6433 -166.512 25.5001C-164.871 25.354 -163.611 25.2809 -162.673 25.2809C-161.237 25.2809 -159.771 25.389 -158.277 25.6023C-156.782 25.8155 -155.434 26.2392 -154.203 26.8732C-153.001 27.5072 -152.005 28.4013 -151.243 29.5553C-150.481 30.7123 -150.07 32.2315 -150.07 34.1131C-150.07 34.9516 -150.246 35.7958 -150.569 36.6431C-150.862 37.4904 -151.36 38.2823 -151.975 39.0185C-152.62 39.7548 -153.412 40.4005 -154.32 40.9585C-155.258 41.5136 -156.313 41.9547 -157.515 42.279V42.3813C-156.196 42.4514 -154.965 42.7113 -153.822 43.1642C-152.708 43.6199 -151.741 44.2131 -150.891 44.9493C-150.07 45.6856 -149.425 46.565 -148.986 47.5817C-148.517 48.6014 -148.282 49.6913 -148.282 50.857C-148.282 52.534 -148.605 54.0649 -149.22 55.4527C-149.865 56.8405 -150.92 58.0383 -152.386 59.0463C-153.148 59.578 -153.968 60.0192 -154.906 60.3698C-155.844 60.7204 -156.782 61.0066 -157.749 61.2316C-158.716 61.4536 -159.654 61.6114 -160.592 61.7049C-161.53 61.7984 -162.38 61.8452 -163.171 61.8452C-163.464 61.8452 -163.962 61.8247 -164.607 61.7808C-165.252 61.7399 -166.043 61.667 -166.922 61.5647C-167.831 61.4625 -168.798 61.2989 -169.912 61.0768C-170.996 60.8548 -172.139 60.545 -173.341 60.1506V50.9066H-170.381L-169.589 56.9426L-168.915 57.8396C-168.212 58.269 -167.421 58.6022 -166.6 58.8417C-165.75 59.0813 -164.695 59.201 -163.435 59.201C-162.028 59.201 -160.709 59.0258 -159.508 58.6752C-158.335 58.3246 -157.28 57.825 -156.401 57.1735C-155.522 56.522 -154.818 55.7273 -154.32 54.7836C-153.822 53.8429 -153.558 52.756 -153.558 51.523C-153.558 49.8109 -153.88 48.4642 -154.525 47.4796C-155.199 46.495 -155.961 45.7499 -156.87 45.2445C-157.778 44.742 -158.745 44.4235 -159.742 44.2949C-160.768 44.1664 -161.618 44.1021 -162.38 44.1021C-163.171 44.1021 -163.933 44.1489 -164.637 44.2453C-165.34 44.3388 -166.102 44.5052 -166.893 44.7448V41.5865C-166.717 41.5865 -166.336 41.6041 -165.779 41.6392C-165.193 41.6713 -164.607 41.6889 -164.021 41.6889C-162.966 41.6889 -161.881 41.5953 -160.797 41.4054C-159.683 41.2184 -158.687 40.7392 -157.72 39.9679C-156.811 39.2317 -156.196 38.4166 -155.815 37.5167C-155.434 36.6168 -155.258 35.6644 -155.258 34.6536C-155.258 33.3856 -155.492 32.3249 -155.902 31.4689C-156.342 30.6129 -156.928 29.9205 -157.632 29.3888C-158.335 28.8599 -159.126 28.483 -160.006 28.258C-160.885 28.036 -161.735 27.9251 -162.614 27.9251C-163.552 27.9251 -164.461 28.0126 -165.311 28.1821C-166.16 28.3544 -167.04 28.635 -167.948 29.0294L-168.769 29.9029L-169.326 34.9107H-172.286V26.771ZM-180.404 59.9987C-182.133 60.5976 -183.921 61.0535 -185.709 61.3719C-187.526 61.6875 -189.284 61.8452 -191.043 61.8452C-192.772 61.8452 -194.413 61.6669 -195.908 61.3076C-197.432 60.9482 -198.81 60.4252 -200.04 59.7415C-202.883 58.1317 -205.111 55.885 -206.723 53.0013C-208.335 50.1147 -209.155 46.9624 -209.155 43.5383C-209.155 38.0602 -207.485 33.6485 -204.114 30.3003C-200.773 26.9551 -196.348 25.2809 -190.838 25.2809C-189.255 25.2809 -187.585 25.4299 -185.856 25.7308C-184.126 26.0288 -182.309 26.4788 -180.404 27.0777V35.1677H-183.335L-184.155 30.3909L-184.829 29.4414C-185.855 28.9798 -186.852 28.635 -187.79 28.413C-188.757 28.1909 -189.753 28.0799 -190.75 28.0799C-194.706 28.0799 -197.872 29.4325 -200.216 32.138C-202.561 34.8405 -203.733 38.5217 -203.733 43.1788C-203.733 48.1251 -202.502 52.008 -200.07 54.8245C-197.637 57.6409 -194.238 59.0463 -189.929 59.0463C-189.197 59.0463 -188.435 58.9907 -187.673 58.8797C-186.881 58.7687 -186.119 58.5934 -185.357 58.3538L-184.536 57.5328L-183.247 51.6778H-180.404V59.9987ZM65.1383 49.6182L64.4936 49.0952H53.3564V53.4776H61.0645L65.1383 61.4069V54.9384V49.6182ZM-55.3175 25.4855H-51.8297L-39.1688 58.4064L-36.0036 59.0463V61.2054H-47.9905V59.0463L-44.708 58.792L-44.327 58.0471L-48.1372 48.0054H-60.5931L-64.3443 58.0471L-63.8169 58.792L-60.3877 59.0463V61.2054H-70.7042V59.0463L-67.6854 58.4064L-55.3175 25.4855ZM-128.265 25.4855H-124.807L-112.146 58.4064L-108.98 59.0463V61.2054H-120.968V59.0463L-117.685 58.792L-117.304 58.0471L-121.114 48.0054H-133.57L-137.321 58.0471L-136.765 58.792L-133.365 59.0463V61.2054H-143.681V59.0463L-140.633 58.4064L-128.265 25.4855ZM-92.3629 25.9236V28.0799L-95.616 28.337L-96.5244 29.0821V41.9459H-92.6852C-92.3042 41.9459 -91.806 41.8933 -91.1905 41.7911C-90.5457 41.6888 -89.9595 41.3908 -89.3441 40.8941C-88.6407 40.3799 -88.0546 39.7372 -87.615 38.9659C-87.1461 38.1975 -86.8235 37.5986 -86.6769 37.1691L-84.3912 32.1117C-84.0395 31.3404 -83.6584 30.5633 -83.2188 29.7745C-82.8085 28.9886 -82.3396 28.2814 -81.8121 27.6562C-81.2552 27.031 -80.6691 26.5139 -80.0243 26.1019C-79.3503 25.6929 -78.5587 25.4855 -77.6209 25.4855C-76.5658 25.4855 -75.7158 25.76 -75.0124 26.3093C-74.3383 26.8557 -73.9867 27.6504 -73.9867 28.6963C-73.9867 29.3625 -74.1627 29.9469 -74.4851 30.4435C-74.8368 30.9373 -75.2762 31.3053 -75.8038 31.5449L-79.5846 29.234C-80.1415 29.9381 -80.5226 30.5311 -80.757 31.019C-80.9622 31.5069 -81.1967 32.0678 -81.4897 32.7018L-83.7461 37.7592C-84.5081 39.4392 -85.2997 40.6282 -86.2083 41.3294C-87.0875 42.0306 -87.908 42.5186 -88.6114 42.7933V42.8954C-87.4977 43.1175 -86.5011 43.5002 -85.6219 44.0378C-84.7427 44.5783 -84.0687 45.148 -83.5412 45.747C-83.2188 46.1239 -82.8377 46.6789 -82.3688 47.4152C-81.8705 48.1514 -81.2844 49.3318 -80.581 50.9592L-77.4742 57.8922L-76.0675 58.792L-72.4333 59.0463V61.2054H-82.4274V59.6394L-85.9736 50.4187C-86.677 48.5722 -87.5563 47.0646 -88.6407 45.9018C-89.7251 44.736 -91.249 44.1547 -93.2712 44.1547H-96.5244V58.0471L-95.616 58.792L-92.3629 59.0463V61.2054H-105.17V59.0463L-102.181 58.792L-101.273 58.0471V29.0821L-102.181 28.337L-105.17 28.0799V25.9236H-92.3629ZM-281.898 59.0463L-278.879 58.792L-277.97 58.0471V29.0821L-278.879 28.337L-282.308 28.0799V25.9236H-256.986V35.5008H-259.741L-260.679 29.1842L-261.411 28.337H-273.222V58.0471L-272.343 58.792L-268.592 59.0463V61.2054H-281.898V59.0463ZM-233.305 27.8753C-236.851 27.8753 -239.636 29.2836 -241.746 32.0971C-243.827 34.9136 -244.882 38.7264 -244.882 43.5383C-244.882 48.3327 -243.827 52.1483 -241.716 54.991C-239.606 57.8309 -236.793 59.2537 -233.305 59.2537C-229.817 59.2537 -227.062 57.8279 -224.952 54.9764C-222.871 52.1278 -221.816 48.3152 -221.816 43.5383C-221.816 38.7614 -222.871 34.9573 -224.952 32.1233C-227.062 29.2923 -229.817 27.8753 -233.305 27.8753ZM16.7801 46.1735V52.0168H19.7109V46.1735H16.7801ZM53.3564 43.5966V46.1735H60.9475L54.6462 41.014L53.3564 43.5966ZM43.9487 38.8694H40.2265V46.1735H50.338V44.2423L43.9487 38.8694ZM27.0379 44.2423V46.1735H37.2957V38.8694H33.4272L27.0379 44.2423ZM56.6683 38.8694L65.0797 45.7909V43.5966L62.7059 38.8694H56.6683ZM-54.4968 31.0074L-59.6844 45.5922H-49.0456L-54.4968 31.0074ZM-127.444 31.0074L-132.661 45.5922H-122.023L-127.444 31.0074ZM12.3839 34.9574V38.89L21.6747 38.9572L13.6736 32.3746L12.3839 34.9574ZM15.6664 30.2303L24.1071 37.1515V34.9574L21.7333 30.2303H15.6664ZM43.1573 27.1829H34.3649V35.9478H43.1573V27.1829ZM57.108 35.9478H61.3285L59.218 31.0716L57.108 35.9478ZM16.1354 27.3086H20.3556L18.2455 22.406L16.1354 27.3086ZM32.2548 24.2613H45.2384L38.7611 10.4097L32.2548 24.2613Z" fill="#012336"/>
</g>
<path d="M5.4693 110.346C5.70026 110.346 5.91269 110.384 6.10671 110.461C6.30072 110.536 6.48556 110.651 6.64262 110.803C6.81815 110.973 6.95668 111.174 7.04906 111.406C7.14145 111.637 7.18766 111.892 7.18766 112.173C7.18766 112.366 7.16924 112.548 7.12304 112.718C7.07685 112.889 7.01209 113.049 6.91971 113.199C6.77189 113.451 6.56872 113.647 6.31004 113.789C6.0606 113.929 5.77417 114 5.4693 114C5.24757 114 5.02578 113.962 4.83177 113.886C4.62852 113.81 4.45303 113.699 4.29597 113.554C4.12044 113.384 3.98192 113.181 3.88953 112.948C3.79714 112.715 3.75093 112.457 3.75093 112.173C3.75093 111.891 3.79714 111.634 3.88953 111.403C3.98192 111.172 4.1112 110.971 4.29597 110.803C4.45303 110.652 4.62852 110.538 4.83177 110.462C5.02578 110.385 5.23833 110.346 5.4693 110.346ZM39.8646 110.346C40.0956 110.346 40.3081 110.384 40.5021 110.461C40.6961 110.536 40.8809 110.651 41.0379 110.803C41.2227 110.973 41.352 111.174 41.4444 111.406C41.5368 111.637 41.583 111.892 41.583 112.173C41.583 112.366 41.5645 112.548 41.5184 112.718C41.4722 112.889 41.4075 113.049 41.3151 113.199C41.1673 113.451 40.964 113.647 40.7054 113.789C40.4559 113.929 40.1695 114 39.8646 114C39.6429 114 39.4305 113.962 39.2272 113.886C39.024 113.81 38.8483 113.699 38.6913 113.554C38.5158 113.384 38.3772 113.181 38.2848 112.948C38.1925 112.715 38.1462 112.457 38.1462 112.173C38.1462 111.891 38.1925 111.634 38.2848 111.403C38.3772 111.172 38.5065 110.971 38.6913 110.803C38.8483 110.652 39.024 110.538 39.2272 110.462C39.4212 110.385 39.6429 110.346 39.8646 110.346ZM60.3004 110.346C60.5314 110.346 60.7439 110.384 60.9379 110.461C61.1319 110.536 61.3167 110.651 61.4737 110.803C61.6585 110.973 61.7878 111.174 61.8802 111.406C61.9818 111.637 62.028 111.892 62.028 112.173C62.028 112.366 62.0003 112.548 61.9542 112.718C61.908 112.889 61.8433 113.049 61.7509 113.199C61.6031 113.451 61.3998 113.647 61.1411 113.789C60.8917 113.929 60.6145 114 60.3004 114C60.0787 114 59.8662 113.962 59.663 113.886C59.4597 113.81 59.2841 113.699 59.1363 113.554C58.9516 113.384 58.813 113.181 58.7206 112.948C58.6283 112.715 58.582 112.457 58.582 112.173C58.582 111.891 58.6283 111.634 58.7206 111.403C58.813 111.172 58.9515 110.971 59.1271 110.803C59.2841 110.652 59.469 110.538 59.663 110.462C59.8662 110.385 60.0787 110.346 60.3004 110.346ZM15.0127 113.798C14.8372 113.856 14.6525 113.901 14.4769 113.933C14.2922 113.964 14.1167 113.979 13.9319 113.979C13.7564 113.979 13.5993 113.962 13.4422 113.926C13.2944 113.891 13.1559 113.839 13.0265 113.771C12.7401 113.613 12.5183 113.392 12.352 113.106C12.1857 112.822 12.1027 112.511 12.1027 112.173C12.1027 111.632 12.2781 111.197 12.6107 110.867C12.9525 110.536 13.4052 110.372 13.9595 110.372C14.1166 110.372 14.2829 110.386 14.4584 110.416C14.634 110.445 14.8187 110.49 15.0127 110.549V111.347H14.7079L14.634 110.876L14.5601 110.782C14.4584 110.736 14.3569 110.703 14.2645 110.68C14.1628 110.659 14.0704 110.648 13.9688 110.648C13.5623 110.648 13.2482 110.781 13.008 111.048C12.7771 111.315 12.657 111.678 12.657 112.137C12.657 112.626 12.7771 113.008 13.0265 113.286C13.2667 113.564 13.6085 113.703 14.0427 113.703C14.1259 113.703 14.1998 113.698 14.2737 113.687C14.3569 113.676 14.4308 113.659 14.5047 113.635L14.597 113.554L14.7264 112.976H15.0127V113.798ZM22.3944 110.435V110.648L22.0895 110.673L21.9972 110.747V113.605L22.0895 113.678L22.3944 113.703V113.916H21.1011V113.703L21.4244 113.678L21.5168 113.605V110.673H20.676C20.6668 110.804 20.6576 110.945 20.6484 111.093C20.6299 111.243 20.6206 111.39 20.6021 111.537C20.5837 111.684 20.5651 111.824 20.5467 111.957C20.5282 112.091 20.5098 112.207 20.5005 112.307C20.4636 112.492 20.4174 112.682 20.3619 112.879C20.2973 113.076 20.2234 113.255 20.1402 113.419C20.0478 113.582 19.9462 113.716 19.8261 113.821C19.706 113.927 19.5766 113.979 19.4288 113.979C19.3919 113.979 19.3549 113.976 19.318 113.969C19.281 113.96 19.2348 113.946 19.1979 113.924C19.1609 113.902 19.1332 113.87 19.1055 113.829C19.0778 113.788 19.0685 113.732 19.0685 113.663C19.0685 113.583 19.087 113.519 19.1332 113.468C19.1794 113.417 19.2255 113.384 19.2902 113.366L19.6875 113.594C19.743 113.515 19.7983 113.43 19.8445 113.34C19.8999 113.25 19.9462 113.148 19.9831 113.035C20.0293 112.924 20.0663 112.796 20.1032 112.655C20.1402 112.512 20.1679 112.351 20.2048 112.168C20.2233 112.056 20.2419 111.877 20.2788 111.63C20.3158 111.382 20.3434 111.094 20.3619 110.767L20.2788 110.698L19.8169 110.648V110.435H22.3944ZM22.921 110.435H25.9328V111.233H25.6371L25.5633 110.751L25.4894 110.673H24.6764V113.605L24.7688 113.678L25.1198 113.703V113.916H23.734V113.703L24.0851 113.678L24.1775 113.605V110.673H23.3645L23.2906 110.751L23.2166 111.233H22.921V110.435ZM86.7968 110.648L86.4918 110.673L86.3995 110.747V113.605L86.4918 113.678L86.7968 113.703V113.916H85.5311V113.703L85.8359 113.678L85.9283 113.605V112.328L85.605 112.317C85.4571 112.317 85.3278 112.352 85.2169 112.422C85.106 112.491 85.0137 112.622 84.9306 112.817L84.5517 113.762V113.916H83.5633V113.703L83.9328 113.678L84.0713 113.59L84.367 112.971C84.404 112.899 84.4409 112.823 84.4779 112.746C84.5241 112.668 84.5703 112.595 84.6257 112.528C84.6812 112.46 84.7458 112.402 84.8197 112.351C84.8844 112.302 84.9675 112.267 85.0692 112.246V112.234C84.9675 112.231 84.8566 112.214 84.7457 112.183C84.6256 112.153 84.524 112.104 84.4316 112.036C84.3393 111.969 84.2653 111.882 84.2007 111.774C84.1452 111.667 84.1083 111.537 84.1083 111.385C84.1083 111.167 84.1545 110.995 84.2562 110.868C84.3485 110.741 84.4594 110.646 84.5887 110.582C84.7273 110.517 84.8566 110.477 84.9952 110.461C85.143 110.444 85.2539 110.435 85.3555 110.435H86.7968V110.648ZM62.6748 113.916V113.703L62.9981 113.663L63.0905 113.564V110.747L63.0259 110.673L62.6748 110.643V110.435H63.8019V110.574L64.8088 113.179L65.8158 110.595V110.435H66.9523V110.643L66.6196 110.673L66.555 110.747V113.605L66.6196 113.678L66.9523 113.703V113.916H65.6866V113.703L66.0375 113.678L66.0838 113.605V110.678L64.8273 113.916H64.5964L63.3861 110.732V113.564L63.4785 113.663L63.8019 113.703V113.916H62.6748ZM75.3316 110.435H76.6251V110.643L76.3017 110.673L76.2093 110.747V111.971H78.0386V110.747L77.9461 110.673L77.6228 110.643V110.435H78.9162V110.643L78.6114 110.673L78.5189 110.747V113.605L78.6114 113.678L78.9162 113.703V113.916H77.6228V113.703L77.9461 113.678L78.0386 113.605V112.208H76.2093V113.605L76.3017 113.678L76.6251 113.703V113.916H75.3316V113.703L75.6365 113.678L75.7289 113.605V110.747L75.6365 110.673L75.3316 110.643V110.435ZM73.0035 110.391H73.3546L74.6295 113.64L74.9528 113.703V113.916H73.7426V113.703L74.066 113.678L74.1122 113.605L73.7241 112.614H72.4677L72.0889 113.605L72.1444 113.678L72.4862 113.703V113.916H71.4422V113.703L71.7563 113.64L73.0035 110.391ZM71.0449 110.435V110.648L70.7401 110.673L70.6477 110.747V113.605L70.7401 113.678L71.0449 113.703V113.916H69.7515V113.703L70.0749 113.678L70.1673 113.605V110.673H68.4397V113.605L68.532 113.678L68.8646 113.703V113.916H67.5712V113.703L67.8761 113.678L67.9685 113.605V110.747L67.8761 110.673L67.5712 110.648V110.435H71.0449ZM1.29343 110.435V110.648L0.960851 110.673L0.868488 110.747V112.016H1.26568C1.30264 112.016 1.34886 112.011 1.41353 112C1.4782 111.991 1.53359 111.961 1.59826 111.912C1.67217 111.861 1.72766 111.798 1.77385 111.722C1.82005 111.646 1.84774 111.586 1.86622 111.545L2.09718 111.046C2.13414 110.969 2.1711 110.893 2.21729 110.815C2.25424 110.737 2.30046 110.668 2.35589 110.606C2.41132 110.544 2.47595 110.493 2.54062 110.453C2.60529 110.412 2.68844 110.391 2.78083 110.391C2.88245 110.391 2.97487 110.419 3.03954 110.473C3.11345 110.527 3.1504 110.606 3.1504 110.708C3.1504 110.775 3.13198 110.832 3.09502 110.881C3.06731 110.93 3.0211 110.966 2.96567 110.99L2.58685 110.762C2.52218 110.831 2.48523 110.89 2.46675 110.938L2.16192 111.603C2.08801 111.768 2.00484 111.886 1.91245 111.955C1.82007 112.025 1.74615 112.072 1.67224 112.099V112.109C1.78311 112.132 1.88469 112.17 1.97708 112.223C2.06022 112.276 2.1341 112.332 2.1803 112.391C2.21725 112.428 2.25421 112.483 2.3004 112.556C2.35584 112.629 2.41133 112.745 2.48524 112.905L2.79932 113.59L2.93793 113.678L3.30749 113.703V113.916H2.29116V113.762L1.9402 112.852C1.86629 112.67 1.77387 112.521 1.67224 112.406C1.56138 112.291 1.40431 112.234 1.20106 112.234H0.868488V113.605L0.960851 113.678L1.29343 113.703V113.916H0V113.703L0.304946 113.678L0.388062 113.605V110.747L0.304946 110.673L0 110.648V110.435H1.29343ZM56.1245 110.435V110.648L55.792 110.673L55.7088 110.747V112.016H56.0969C56.1339 112.016 56.18 112.011 56.2446 112C56.3093 111.991 56.3741 111.961 56.4295 111.912C56.5034 111.861 56.5588 111.798 56.605 111.722C56.6512 111.646 56.6881 111.586 56.6973 111.545L56.9283 111.046C56.9652 110.969 57.0022 110.893 57.0484 110.815C57.0946 110.737 57.1408 110.668 57.1962 110.606C57.2424 110.544 57.3072 110.493 57.3718 110.453C57.4365 110.412 57.5196 110.391 57.6119 110.391C57.7228 110.391 57.806 110.419 57.8799 110.473C57.9446 110.527 57.9815 110.606 57.9815 110.708C57.9815 110.775 57.9631 110.832 57.9261 110.881C57.8984 110.93 57.8522 110.966 57.7968 110.99L57.418 110.762C57.3625 110.831 57.3163 110.89 57.2979 110.938L56.993 111.603C56.9191 111.768 56.8359 111.886 56.7436 111.955C56.6604 112.025 56.5773 112.072 56.5034 112.099V112.109C56.6235 112.132 56.7158 112.17 56.8082 112.223C56.8913 112.276 56.9653 112.332 57.0115 112.391C57.0485 112.428 57.0854 112.483 57.1409 112.556C57.1871 112.629 57.2424 112.745 57.3164 112.905L57.6304 113.59L57.769 113.678L58.1386 113.703V113.916H57.1316V113.762L56.7713 112.852C56.6974 112.67 56.6142 112.521 56.5034 112.406C56.3925 112.291 56.2354 112.234 56.0322 112.234H55.7088V113.605L55.792 113.678L56.1245 113.703V113.916H54.8312V113.703L55.1361 113.678L55.2284 113.605V110.747L55.1361 110.673L54.8312 110.648V110.435H56.1245ZM30.7276 110.435H32.0118V110.643L31.6885 110.673L31.5961 110.747V111.971H33.4253V110.747L33.333 110.673L33.0095 110.643V110.435H34.303V110.643L33.9981 110.673L33.9058 110.747V113.605L33.9981 113.678L34.303 113.703V113.916H33.0095V113.703L33.333 113.678L33.4253 113.605V112.208H31.5961V113.605L31.6885 113.678L32.0118 113.703V113.916H30.7276V113.703L31.0233 113.678L31.1157 113.605V110.747L31.0233 110.673L30.7276 110.643V110.435ZM17.0268 110.391H17.3779L18.6528 113.64L18.9761 113.703V113.916H17.7658V113.703L18.0893 113.678L18.1354 113.605L17.7474 112.614H16.491L16.1122 113.605L16.1676 113.678L16.5094 113.703V113.916H15.4654V113.703L15.7796 113.64L17.0268 110.391ZM42.2574 110.435H43.6155C44.022 110.435 44.3269 110.504 44.5302 110.643C44.7334 110.781 44.835 110.993 44.835 111.276C44.835 111.472 44.7704 111.636 44.641 111.769C44.5117 111.901 44.3177 112.001 44.059 112.069C44.3731 112.072 44.6132 112.147 44.7887 112.294C44.9643 112.44 45.0475 112.642 45.0475 112.9C45.0475 113.23 44.9273 113.482 44.6964 113.655C44.4562 113.829 44.1051 113.916 43.6617 113.916H42.2574V113.703L42.5531 113.678L42.6454 113.605V110.747L42.5531 110.673L42.2574 110.643V110.435ZM7.86206 110.435H9.14624V110.643L8.82292 110.673L8.73055 110.747V111.971H10.5598V110.747L10.4767 110.673L10.144 110.643V110.435H11.4374V110.643L11.1326 110.673L11.0402 110.747V113.605L11.1326 113.678L11.4374 113.703V113.916H10.144V113.703L10.4767 113.678L10.5598 113.605V112.208H8.73055V113.605L8.82292 113.678L9.14624 113.703V113.916H7.86206V113.703L8.15776 113.678L8.25013 113.605V110.747L8.15776 110.673L7.86206 110.643V110.435ZM80.8286 110.435V110.648L80.496 110.673L80.4036 110.747V113.096L82.3068 110.85V110.747L82.2144 110.673L81.8818 110.648V110.435H83.1752V110.648L82.8704 110.673L82.778 110.747V113.605L82.8704 113.678L83.1752 113.703V113.916H81.8818V113.703L82.2144 113.678L82.3068 113.605V111.202L80.4036 113.45V113.605L80.496 113.678L80.8286 113.703V113.916H79.5352V113.703L79.8308 113.678L79.9232 113.605V110.747L79.8308 110.673L79.5352 110.648V110.435H80.8286ZM27.7528 110.435V110.648L27.4202 110.673L27.3371 110.747V113.096L29.231 110.85V110.747L29.1386 110.673L28.806 110.648V110.435H30.0995V110.648L29.8038 110.673L29.7114 110.747V113.605L29.8038 113.678L30.0995 113.703V113.916H28.806V113.703L29.1386 113.678L29.231 113.605V111.202L27.3371 113.45V113.605L27.4202 113.678L27.7528 113.703V113.916H26.4594V113.703L26.7643 113.678L26.8567 113.605V110.747L26.7643 110.673L26.4594 110.648V110.435H27.7528ZM47.0708 110.391H47.4311L48.706 113.64L49.0201 113.703V113.916H47.8098V113.703L48.1424 113.678L48.1794 113.605L47.8005 112.614H46.5441L46.1654 113.605L46.2208 113.678L46.5626 113.703V113.916H45.5186V113.703L45.8236 113.64L47.0708 110.391ZM52.4106 110.648L52.1058 110.673L52.0226 110.747V113.605L52.1058 113.678L52.4106 113.703V113.916H51.1449V113.703L51.4499 113.678L51.5422 113.605V112.328L51.2281 112.317C51.0711 112.317 50.9417 112.352 50.8308 112.422C50.72 112.491 50.6276 112.622 50.5445 112.817L50.1657 113.762V113.916H49.1771V113.703L49.5467 113.678L49.6945 113.59L49.981 112.971C50.0179 112.899 50.0548 112.823 50.1009 112.746C50.1379 112.668 50.1841 112.595 50.2395 112.528C50.295 112.46 50.3597 112.402 50.4336 112.351C50.4983 112.302 50.5906 112.267 50.683 112.246V112.234C50.5814 112.231 50.4705 112.214 50.3597 112.183C50.2396 112.153 50.138 112.104 50.0456 112.036C49.9532 111.969 49.8793 111.882 49.8146 111.774C49.7592 111.667 49.7315 111.537 49.7315 111.385C49.7315 111.167 49.7776 110.995 49.87 110.868C49.9624 110.741 50.0733 110.646 50.2119 110.582C50.3413 110.517 50.4798 110.477 50.6184 110.461C50.7569 110.444 50.877 110.435 50.9694 110.435H52.4106V110.648ZM34.959 113.703L35.2638 113.678L35.3562 113.605V110.747L35.2638 110.673L34.922 110.648V110.435H37.4811V111.38H37.1946L37.1023 110.757L37.0284 110.673H35.8366V113.605L35.929 113.678L36.3078 113.703V113.916H34.959V113.703ZM5.4693 110.627C5.11823 110.627 4.83179 110.767 4.6193 111.044C4.40682 111.322 4.30522 111.698 4.30522 112.173C4.30522 112.646 4.40682 113.023 4.6193 113.303C4.83179 113.583 5.11823 113.724 5.4693 113.724C5.82036 113.724 6.10679 113.583 6.31004 113.302C6.52253 113.021 6.63337 112.644 6.63337 112.173C6.63337 111.702 6.52253 111.326 6.31004 111.047C6.10679 110.768 5.82036 110.627 5.4693 110.627ZM39.8646 110.627C39.5135 110.627 39.2271 110.767 39.0146 111.044C38.8021 111.322 38.7005 111.698 38.7005 112.173C38.7005 112.646 38.8021 113.023 39.0146 113.303C39.2271 113.583 39.5135 113.724 39.8646 113.724C40.2157 113.724 40.5021 113.583 40.7146 113.302C40.9179 113.021 41.0287 112.644 41.0287 112.173C41.0287 111.702 40.9179 111.326 40.7146 111.047C40.5021 110.768 40.2157 110.627 39.8646 110.627ZM60.3004 110.627C59.9493 110.627 59.663 110.767 59.4505 111.044C59.238 111.322 59.1363 111.698 59.1363 112.173C59.1363 112.646 59.2472 113.023 59.4597 113.303C59.6721 113.583 59.9493 113.724 60.3004 113.724C60.6515 113.724 60.9379 113.583 61.1504 113.302C61.3629 113.021 61.4645 112.644 61.4645 112.173C61.4645 111.702 61.3629 111.326 61.1504 111.047C60.9379 110.768 60.6515 110.627 60.3004 110.627ZM43.1259 113.658L43.4862 113.673C43.8465 113.673 44.1144 113.614 44.2807 113.497C44.447 113.379 44.5302 113.193 44.5302 112.935C44.5302 112.701 44.4563 112.526 44.3084 112.411C44.1699 112.296 43.948 112.239 43.6432 112.239C43.5785 112.239 43.5046 112.242 43.4122 112.248C43.3291 112.253 43.2275 112.261 43.1259 112.272V113.658ZM17.1099 110.937L16.5834 112.376H17.655L17.1099 110.937ZM47.1631 110.937L46.6365 112.376H47.7082L47.1631 110.937ZM73.0866 110.937L72.5601 112.376H73.6318L73.0866 110.937ZM51.5422 110.673H51.2189C51.1173 110.673 50.9972 110.68 50.8678 110.694C50.7385 110.707 50.6276 110.75 50.526 110.823C50.4059 110.907 50.332 111.004 50.295 111.115C50.2673 111.226 50.2488 111.323 50.2488 111.406C50.2488 111.464 50.2581 111.533 50.2765 111.611C50.2858 111.688 50.332 111.762 50.3966 111.831C50.4613 111.901 50.5537 111.959 50.6738 112.007C50.8032 112.055 50.9694 112.08 51.1819 112.08L51.5422 112.069V110.673ZM85.9283 110.673H85.605C85.5033 110.673 85.3832 110.68 85.2539 110.694C85.1245 110.707 85.0137 110.75 84.9121 110.823C84.792 110.907 84.7181 111.004 84.6811 111.115C84.6534 111.226 84.6349 111.323 84.6349 111.406C84.6349 111.464 84.6441 111.533 84.6626 111.611C84.6718 111.688 84.718 111.762 84.7827 111.831C84.8381 111.901 84.9306 111.959 85.0599 112.007C85.1893 112.055 85.3555 112.08 85.568 112.08L85.9283 112.069V110.673ZM43.1259 112.011L43.3291 112.016C43.6617 112.016 43.9112 111.958 44.0682 111.842C44.2253 111.727 44.2992 111.545 44.2992 111.297C44.2992 111.085 44.2345 110.927 44.0867 110.822C43.9389 110.715 43.7171 110.663 43.4307 110.663L43.1259 110.678V112.011ZM15.4932 97C16.2045 97 16.8605 97.1188 17.4795 97.3564C18.0892 97.593 18.6435 97.9494 19.1516 98.4237C19.7152 98.9564 20.1402 99.5836 20.4265 100.306C20.7129 101.029 20.8608 101.827 20.8608 102.703C20.8608 103.304 20.787 103.871 20.6484 104.404C20.5098 104.935 20.2973 105.437 20.0201 105.906C19.5489 106.692 18.9114 107.305 18.1169 107.745C17.3224 108.185 16.4447 108.405 15.4932 108.405C14.7818 108.405 14.1167 108.287 13.4885 108.049C12.8695 107.812 12.3151 107.467 11.8347 107.013C11.2712 106.48 10.8462 105.851 10.5505 105.122C10.2641 104.395 10.1163 103.588 10.1163 102.703C10.1163 101.822 10.2641 101.021 10.5505 100.298C10.8369 99.5755 11.2619 98.951 11.8162 98.4237C12.3151 97.9548 12.8695 97.6003 13.4885 97.36C14.1167 97.1197 14.7818 97 15.4932 97ZM32.1689 107.773C31.6238 107.957 31.0602 108.099 30.4967 108.196C29.9239 108.293 29.3696 108.342 28.8153 108.342C28.2702 108.342 27.7528 108.287 27.2816 108.176C26.8012 108.065 26.367 107.904 25.979 107.694C25.0828 107.198 24.3808 106.506 23.8726 105.617C23.3645 104.728 23.1058 103.757 23.1058 102.703C23.1058 101.015 23.6323 99.6565 24.6948 98.6252C25.748 97.5949 27.143 97.0792 28.8799 97.0792C29.3788 97.0792 29.8962 97.1251 30.4505 97.2178C30.9956 97.3096 31.5684 97.4482 32.1689 97.6326V100.124H31.245L30.9863 98.6531L30.7739 98.3607C30.4505 98.2185 30.1364 98.1123 29.8407 98.0439C29.5359 97.9755 29.2217 97.9413 28.9076 97.9413C27.6512 97.9413 26.6627 98.3579 25.9236 99.1913C25.1845 100.024 24.8149 101.158 24.8149 102.592C24.8149 104.116 25.2029 105.311 25.9697 106.179C26.7365 107.046 27.8083 107.48 29.1663 107.48C29.3973 107.48 29.6375 107.462 29.8777 107.428C30.1272 107.394 30.3673 107.34 30.6075 107.266L30.8662 107.013L31.2728 105.21H32.1689V107.773ZM79.4335 97.5382C80.1357 97.3222 80.7363 97.1917 81.2536 97.1467C81.771 97.1017 82.1682 97.0792 82.4638 97.0792C82.9165 97.0792 83.3784 97.1125 83.8496 97.1782C84.3208 97.2439 84.7458 97.3744 85.1338 97.5696C85.5126 97.7649 85.8267 98.0403 86.0669 98.3958C86.3071 98.7521 86.4365 99.2201 86.4365 99.7996C86.4365 100.059 86.381 100.318 86.2794 100.579C86.187 100.84 86.0299 101.084 85.8359 101.311C85.6327 101.537 85.3832 101.736 85.0968 101.908C84.8012 102.079 84.4686 102.215 84.0898 102.315V102.346C84.5056 102.368 84.8936 102.448 85.2539 102.588C85.605 102.728 85.9098 102.911 86.1777 103.137C86.4364 103.364 86.6397 103.635 86.7783 103.948C86.9261 104.262 87 104.598 87 104.957C87 105.473 86.8984 105.945 86.7044 106.372C86.5012 106.8 86.1685 107.169 85.7066 107.48C85.4664 107.643 85.2077 107.779 84.9121 107.887C84.6164 107.995 84.3208 108.083 84.016 108.152C83.7111 108.221 83.4155 108.269 83.1198 108.298C82.8242 108.327 82.5563 108.342 82.3068 108.342C82.2144 108.342 82.0574 108.335 81.8541 108.323C81.6509 108.309 81.4014 108.287 81.1243 108.255C80.8379 108.224 80.5237 108.173 80.1819 108.105C79.8401 108.036 79.4797 107.941 79.1009 107.82V104.972H80.034L80.2743 106.831L80.496 107.108C80.7177 107.24 80.9672 107.343 81.2259 107.416C81.4938 107.49 81.8263 107.527 82.2236 107.527C82.6671 107.527 83.0829 107.473 83.4617 107.365C83.8312 107.257 84.1637 107.103 84.4409 106.903C84.718 106.702 84.9397 106.457 85.0968 106.167C85.2539 105.877 85.337 105.542 85.337 105.162C85.337 104.635 85.2354 104.22 85.0322 103.917C84.8197 103.613 84.5794 103.384 84.293 103.228C84.0066 103.073 83.7018 102.975 83.3877 102.936C83.0643 102.896 82.7964 102.876 82.5562 102.876C82.3067 102.876 82.0666 102.891 81.8449 102.92C81.6232 102.949 81.3829 103.001 81.1335 103.074V102.102C81.1889 102.102 81.309 102.107 81.4846 102.118C81.6693 102.128 81.8541 102.133 82.0389 102.133C82.3715 102.133 82.7133 102.104 83.0643 102.047C83.4062 101.988 83.7203 101.841 84.0252 101.603C84.3116 101.376 84.5056 101.125 84.6257 100.848C84.7458 100.571 84.8012 100.277 84.8012 99.9661C84.8012 99.5755 84.7273 99.2488 84.598 98.9852C84.4594 98.7215 84.2746 98.5082 84.0528 98.3445C83.8311 98.1816 83.5817 98.0655 83.3046 97.9971C83.0274 97.9278 82.7595 97.8936 82.4823 97.8936C82.1867 97.8936 81.9095 97.9206 81.6323 97.9728C81.3644 98.0259 81.0873 98.1123 80.8009 98.2338L80.5422 98.5029L80.3666 100.045H79.4335V97.5382ZM34.728 97.5382C35.4301 97.3222 36.0306 97.1917 36.548 97.1467C37.0653 97.1017 37.4625 97.0792 37.7582 97.0792C38.2109 97.0792 38.6728 97.1125 39.144 97.1782C39.6151 97.2439 40.0401 97.3744 40.4282 97.5696C40.8069 97.7649 41.1211 98.0403 41.3613 98.3958C41.6015 98.7521 41.7308 99.2201 41.7308 99.7996C41.7308 100.059 41.6754 100.318 41.5737 100.579C41.4813 100.84 41.3243 101.084 41.1303 101.311C40.927 101.537 40.6777 101.736 40.3913 101.908C40.0956 102.079 39.763 102.215 39.3842 102.315V102.346C39.7999 102.368 40.188 102.448 40.5483 102.588C40.8993 102.728 41.2042 102.911 41.4721 103.137C41.7308 103.364 41.9341 103.635 42.0727 103.948C42.2205 104.262 42.2944 104.598 42.2944 104.957C42.2944 105.473 42.1928 105.945 41.9988 106.372C41.7955 106.8 41.4629 107.169 41.0009 107.48C40.7607 107.643 40.5021 107.779 40.2064 107.887C39.9108 107.995 39.6152 108.083 39.3103 108.152C39.0054 108.221 38.7098 108.269 38.4142 108.298C38.1186 108.327 37.8414 108.342 37.6012 108.342C37.5088 108.342 37.3518 108.335 37.1485 108.323C36.9453 108.309 36.6958 108.287 36.4186 108.255C36.1322 108.224 35.8273 108.173 35.4763 108.105C35.1344 108.036 34.7741 107.941 34.3953 107.82V104.972H35.3284L35.5686 106.831L35.7904 107.108C36.0121 107.24 36.2523 107.343 36.5202 107.416C36.7882 107.49 37.1207 107.527 37.518 107.527C37.9614 107.527 38.3772 107.473 38.7468 107.365C39.1256 107.257 39.4581 107.103 39.7353 106.903C40.0124 106.702 40.2342 106.457 40.3913 106.167C40.5483 105.877 40.6314 105.542 40.6314 105.162C40.6314 104.635 40.5298 104.22 40.3265 103.917C40.1141 103.613 39.8739 103.384 39.5875 103.228C39.3011 103.073 38.9962 102.975 38.682 102.936C38.3587 102.896 38.0909 102.876 37.8507 102.876C37.6012 102.876 37.361 102.891 37.1393 102.92C36.9175 102.949 36.6773 103.001 36.4279 103.074V102.102C36.4833 102.102 36.5942 102.107 36.7789 102.118C36.9637 102.128 37.1485 102.133 37.3332 102.133C37.6751 102.133 38.0076 102.104 38.3495 102.047C38.7005 101.988 39.0147 101.841 39.3196 101.603C39.606 101.376 39.8092 101.125 39.9201 100.848C40.0402 100.571 40.0956 100.277 40.0956 99.9661C40.0956 99.5755 40.0309 99.2488 39.8831 98.9852C39.7538 98.7215 39.569 98.5082 39.3473 98.3445C39.1256 98.1816 38.8761 98.0655 38.5989 97.9971C38.3218 97.9278 38.0446 97.8936 37.7767 97.8936C37.481 97.8936 37.204 97.9206 36.9268 97.9728C36.6589 98.0259 36.3817 98.1123 36.0953 98.2338L35.8366 98.5029L35.6611 100.045H34.728V97.5382ZM71.7008 97.1422H72.8003L76.782 107.282L77.7799 107.48V108.144H74.0105V107.48L75.036 107.401L75.1562 107.172L73.9551 104.079H70.0379L68.8554 107.172L69.0217 107.401L70.1025 107.48V108.144H66.8414V107.48L67.8021 107.282L71.7008 97.1422ZM48.6043 97.1422H49.6945L53.6855 107.282L54.6834 107.48V108.144H50.9048V107.48L51.9395 107.401L52.0596 107.172L50.8586 104.079H46.9322L45.7496 107.172L45.9159 107.401L46.9968 107.48V108.144H43.7449V107.48L44.7056 107.282L48.6043 97.1422ZM0.175592 107.48L1.1272 107.401L1.41353 107.172V98.25L1.1272 98.0205L0.0462381 97.9413V97.2772H8.02841V100.227H7.15992L6.85509 98.2815L6.63337 98.0205H2.90094V107.172L3.18739 107.401L4.36984 107.48V108.144H0.175592V107.48ZM62.1851 97.2772V97.9413L63.2106 98.0205L63.4969 98.25V102.212H62.2775C62.1574 102.212 62.0003 102.196 61.8063 102.165C61.6123 102.133 61.4183 102.041 61.2335 101.888C61.0118 101.73 60.827 101.532 60.6792 101.295C60.5406 101.058 60.4389 100.873 60.3835 100.741L59.6722 99.1832C59.5614 98.9456 59.432 98.7062 59.3027 98.4633C59.1733 98.2212 59.0163 98.0034 58.85 97.8108C58.6837 97.6182 58.4989 97.459 58.2864 97.3321C58.0832 97.2061 57.8245 97.1422 57.5381 97.1422C57.2055 97.1422 56.9283 97.2268 56.7158 97.396C56.5033 97.5642 56.3925 97.8099 56.3925 98.1312C56.3925 98.3364 56.448 98.5164 56.5496 98.6694C56.6512 98.8223 56.7897 98.9357 56.956 99.0095L58.1571 98.2977C58.3326 98.5136 58.4527 98.6963 58.5174 98.8466C58.5821 98.9969 58.6652 99.1697 58.7576 99.3649L59.4689 100.923C59.6999 101.44 59.9586 101.806 60.2358 102.022C60.5222 102.238 60.7716 102.389 60.9933 102.473V102.505C60.6422 102.573 60.3281 102.691 60.0602 102.857C59.783 103.023 59.5613 103.199 59.4043 103.383C59.3027 103.499 59.1733 103.67 59.0255 103.897C58.8777 104.124 58.6929 104.487 58.4712 104.988L57.4827 107.124L57.0391 107.401L55.8936 107.48V108.144H59.0532V107.662L60.171 104.822C60.3928 104.253 60.67 103.789 61.0118 103.431C61.3444 103.072 61.834 102.893 62.4622 102.893H63.4969V107.172L63.2106 107.401L62.1851 107.48V108.144H66.2131V107.48L65.2708 107.401L64.9937 107.172V98.25L65.2708 98.0205L66.2131 97.9413V97.2772H62.1851ZM15.4932 97.8783C14.3753 97.8783 13.4884 98.3121 12.8324 99.1796C12.1765 100.046 11.8532 101.221 11.8532 102.703C11.8532 104.179 12.1765 105.355 12.8417 106.23C13.5069 107.106 14.3938 107.543 15.4932 107.543C16.5833 107.543 17.461 107.104 18.1261 106.226C18.7821 105.348 19.1147 104.174 19.1147 102.703C19.1147 101.231 18.7821 100.06 18.1261 99.1868C17.461 98.3147 16.5833 97.8783 15.4932 97.8783ZM48.863 98.843L47.2185 103.335H50.5721L48.863 98.843ZM71.9595 98.843L70.3243 103.335H73.6686L71.9595 98.843Z" fill="#012336"/>
<defs>
<clipPath id="clip0_379:2">
<rect width="64" height="87" fill="white" transform="translate(7)"/>
</clipPath>
</defs>
</svg>
