<svg xmlns="http://www.w3.org/2000/svg" fill="none" viewBox="0 0 642 783"><path fill="#DFDDDF" d="M381.455 0l116.524.182.182 116.524h-20.423l-.365-81.694L388.385 124l-14.224-14.224 88.988-88.988-81.694-.364V0zM505.455 185l116.524.182.182 116.524h-20.423l-.365-81.694L512.385 309l-14.224-14.224 88.988-88.988-81.694-.364V185zM198.455 233l116.524.182.182 116.524h-20.423l-.365-81.694L205.385 357l-14.224-14.224 88.988-88.988-81.694-.364V233zM158.455 453l116.524.182.182 116.524h-20.423l-.365-81.694L165.385 577l-14.224-14.224 88.989-88.988-81.695-.364V453zM381.455 597l116.524.182.182 116.524h-20.423l-.365-81.694L388.385 721l-14.224-14.224 88.988-88.988-81.694-.364V597zM525.455 405l116.524.182.182 116.524h-20.423l-.365-81.694L532.385 529l-14.224-14.224 88.988-88.988-81.694-.364V405zM61.456 659l116.523.182.182 116.524h-20.423l-.365-81.694L68.385 783 54.16 768.776l88.989-88.988-81.695-.364V659zM7.455 99l116.524.182.182 116.524h-20.423l-.365-81.694L14.385 223 .16 208.776l88.989-88.988-81.695-.364V99z"/></svg>