<svg xmlns="http://www.w3.org/2000/svg" fill="none" viewBox="0 0 55 325"><g fill="#FF5000" clip-path="url(#a)"><path d="M-116.913 323.709c.039.06 5.946.293 13.137.525l13.069.42.014-.451c.008-.248-.055-.847-.131-1.345a63.544 63.544 0 0 1-.187-1.23l-.04-.35 10.586.34c6.73.216 12.481.489 15.76.74 5.582.412 9.4.783 9.868.944.518.176.519-.173-.028-1.997-.075-.25-.136-.573-.13-.747.008-.262.06-.29.468-.189.244.066 1.082.195 1.848.307 2.73.379 4.486.683 8.947 1.511 1.164.213 3.857.751 5.653 1.1.52.104 1.347.276 1.847.365.51.089 1.347.262 1.878.367a271.28 271.28 0 0 0 8.26 1.489c5.331.871 9.29 1.333 13.625 1.604 3.577.231 3.325.383 2.44-1.452-.309-.636-.557-1.198-.557-1.227.001-.029 2.63-.017 5.842.028 5.481.074 6.888.061 11.784-.189 2.962-.138 5.876-.38 8-.661.474-.057 1.134-.138 1.464-.171.99-.114.99-.114.09-2.154-.45-1.005-.782-1.889-.76-1.947.033-.057.283-.151.572-.186 1.734-.279 5.38-1.283 7.74-2.154 4.01-1.459 8.528-4.024 12.634-7.169 2.032-1.552 2.212-1.707 2.215-1.823.002-.044-.197-.575-.445-1.165-.248-.591-.447-1.107-.445-1.165.002-.059.214-.27.467-.466.263-.196 1.295-1.007 2.297-1.82 2.34-1.892 4.023-3.12 5.71-4.172 1.582-.984 4.685-2.632 6.205-3.283.583-.258 1.063-.505 1.065-.548.001-.044-.28-.869-.63-1.812-.34-.944-.773-2.138-.952-2.639-.657-1.915-.831-2.255-1.06-2.161-.52.217-2.614 1.446-3.947 2.335-2.486 1.64-3.688 2.635-9.843 8.192-1.513 1.364-2.75 2.504-2.752 2.548-.001.029.197.56.434 1.179.247.62.424 1.18.392 1.237-.132.272-2.436 1.99-4.472 3.338-5.518 3.639-11.244 5.771-18.623 6.918-.547.084-1.003.215-1.006.288-.002.073.34.929.76 1.904.43.99.753 1.816.732 1.844-.075.1-3.618.423-6.324.584-5.195.299-7.003.328-13.889.194-4.515-.087-7.083-.082-7.085.005-.003.088.244.707.551 1.373.307.665.555 1.271.543 1.328-.005.131-3.876-.168-6.8-.553-5.676-.736-10.238-1.611-19.8-3.784-9.155-2.071-15.735-3.405-17.191-3.452-.534-.017-.556.041-.352.703.372 1.221.543 1.955.49 2.026-.032.043-1.047-.019-2.244-.159-6.813-.788-13.597-1.224-24.676-1.581-6.216-.2-8.002-.228-8.047-.084-.048.188-.008.539.183 1.958.05.381.097.805.104.922.014.204-1.454.2-12.535-.098l-12.548-.316-.127 2.983c-.063 1.644-.087 3.042-.048 3.101Z"/><path d="M-116.452 311.517c.07.046 5.537.237 12.144.42l12.013.357-.008-.393c.007-.204-.038-.715-.097-1.14-.048-.424-.122-.994-.144-1.272l-.056-.497 8.504.274c10.176.341 17.788.878 23.113 1.661.766.112 1.85.263 2.402.339l1.013.12-.069-.425a9.797 9.797 0 0 0-.243-1.056c-.092-.353-.21-.808-.245-1.013-.06-.367-.06-.367.624-.257.378.07 1.082.21 1.561.312.49.103 1.265.26 1.714.361.837.173 1.999.429 3.191.715.346.084.999.236 1.437.337.866.203 1.946.471 2.893.72.326.098.927.248 1.334.349.417.115 1.018.266 1.334.349.325.097.926.248 1.344.349.825.216 1.731.449 2.617.696.326.083.947.234 1.385.35.448.117 1.07.268 1.396.351 2.077.533 2.974.751 4.442 1.075.47.103 1.193.257 1.6.358 4.966 1.106 10.443 1.938 14.89 2.241 1.854.133 2.45.137 2.454.006.003-.102-.224-.706-.501-1.342-.267-.635-.495-1.21-.493-1.283.003-.073 2.745-.086 6.173-.034 5.768.083 7.052.066 12.266-.174 3.784-.17 8.84-.634 9.392-.849.177-.067.019-.582-.736-2.34-.621-1.433-.622-1.739-.027-1.72.216-.008.598-.054.846-.118.249-.08.817-.193 1.262-.28.847-.148 2.658-.585 3.425-.808 1.067-.301 2.426-.723 2.727-.845.177-.067.842-.322 1.466-.564 4.024-1.532 7.846-3.842 11.864-7.15.697-.575 1.29-1.124 1.324-1.24.024-.101-.132-.674-.35-1.264-.227-.59-.414-1.15-.412-1.222.003-.088.174-.315.375-.498.191-.183 2.015-1.975 4.03-3.979 5.59-5.545 7.324-7.107 9.579-8.564.671-.43.788-.572.81-.906.006-.204-.027-.453-.076-.527-.048-.089-.461-1.297-.91-2.681-.448-1.383-.872-2.563-.943-2.609-.292-.169-3.198 2.709-7.509 7.422-3.32 3.652-5.33 5.758-7.215 7.562-.752.719-1.367 1.325-1.369 1.369-.003.102.404 1.193.605 1.636.346.74.248.912-.964 1.863-6.056 4.715-12.983 7.464-21.81 8.637-.867.118-1.611.269-1.664.325-.053.057.152.69.448 1.399.724 1.742.922 2.287.858 2.373-.064.085-3.277.346-6.044.505-4.732.255-6.683.265-13.723.126-4.135-.089-7.522-.125-7.523-.096-.005.131.401 1.237.688 1.902.172.384.304.752.302.825-.002.393-7.098-.549-12.076-1.597-3.57-.756-7.357-1.752-14.966-3.978-3.988-1.177-8.2-2.362-9.352-2.661-2.19-.565-5.981-1.43-6.269-1.44-.235-.007-.145.709.21 1.799.065.191.107.499.101.673-.012.379.357.405-3.556-.201-5.263-.811-9.441-1.149-20.352-1.602l-9.445-.406-.017.553c-.01.306.018.715.063.906.045.191.11.717.137 1.155l.046.803-11.562-.328-11.562-.328-.127 3.011c-.096 2.342-.088 3.042.013 3.103Z"/><path d="M-116.126 299.261c.039.06 5.084.266 11.208.463l11.15.358-.043-.875a30.759 30.759 0 0 0-.102-1.621c-.039-.394-.047-.759-.015-.801.129-.171 13.942.39 18.161.744 6.821.554 9.817.971 14.732 2.018.674.138.684.124.334-1.446-.134-.616-.209-1.158-.177-1.2.065-.086.37-.018 3.22.759 2.067.562 2.617.71 2.942.823.285.082.345.113 3.364 1.069 1.057.34 2.135.681 2.4.762.264.082.914.292 1.442.469 2.062.707 3.22 1.08 3.627 1.209.234.066 1.047.325 1.81.568 2.236.728 2.53.81 3.1.989 2.35.702 3.693 1.08 6.138 1.683 1.354.35 3.139.728 5.088 1.096.899.16 1.512.253 5.232.795 1.646.228 4.487.333 4.503.174.002-.073-.206-.648-.452-1.282-.236-.634-.443-1.238-.44-1.34.006-.16.848-.177 3.854-.08 7.058.212 14.476.072 20.365-.409 3.16-.262 3.532-.309 3.65-.465.097-.128.062-.333-.139-.791-.143-.34-.266-.65-.266-.679.002-.043-.178-.53-.396-1.091-.218-.56-.396-1.076-.394-1.149.002-.072.458-.189 1.005-.273.557-.099 1.27-.222 1.6-.284.331-.062.961-.187 1.406-.275 7.718-1.486 13.789-4.408 19.69-9.448.349-.295.327-.558-.135-1.84-.227-.619-.363-1.177-.32-1.234.053-.057.648-.664 1.327-1.341 1.942-1.963 3.795-4.03 7.212-8.101 2.637-3.135 3.469-4.099 4.672-5.415.702-.75 1.153-1.362 1.158-1.522.005-.16-.297-1.306-.678-2.542-.371-1.235-.675-2.323-.673-2.396.01-.306-.253-.11-.863.642-.352.426-1.647 2.06-2.889 3.622-5.748 7.274-7.902 9.755-11.056 12.698-1.25 1.183-1.422 1.411-1.227 1.738.205.341.707 1.96.641 2.089-.099.201-2.16 1.722-3.512 2.568-3.982 2.494-8.412 4.216-13.684 5.299-2.036.416-5.524.959-6.924 1.074-1.082.097-1.239.194-1.049.666.077.177.218.575.331.885.114.309.237.634.285.723.242.474.574 1.621.49 1.691-.126.098-3.698.347-6.761.467-4.699.184-8.499.193-14.366.004-3.324-.107-6.075-.137-6.107-.08-.034.072.134.616.372 1.207.644 1.667.646 1.623-.072 1.585-.759-.024-4.747-.546-6.197-.811-5.85-1.062-9.947-2.315-22.269-6.805-5.714-2.092-11.976-4.057-12.32-3.878-.115.054-.084.361.111 1.314.142.69.236 1.275.195 1.303-.042.028-.778-.098-1.624-.285-5.873-1.282-11.165-1.83-22.444-2.339-6.019-.266-7.804-.309-7.87-.166-.055.101-.058.508-.019.903.039.395.088 1.081.105 1.519l.046.802-10.659-.299-10.649-.299-.127 2.983c-.063 1.644-.087 3.042-.048 3.101Z"/><path d="M-115.731 287.034c.039.059 4.695.253 10.337.434 8.504.274 10.29.302 10.336.129.035-.116.02-.641-.034-1.181-.044-.541-.105-1.213-.127-1.49l-.035-.497 5.529.178c5.272.184 12.362.674 15.47 1.095 4.304.59 7.284 1.181 10.796 2.124.438.116.459.102.47-.232.006-.204-.069-.746-.177-1.215-.108-.47-.186-.909-.184-.968.004-.145.842-.002 1.501.238.203.079.64.239.955.337.325.112.812.273 1.066.369.264.096.68.24.914.321.233.08.66.225.954.336.295.097 1.968.748 3.733 1.432 1.754.697 3.357 1.317 3.56 1.396.212.08 1.145.445 2.078.824.942.395 1.885.775 2.108.855.781.302 1.197.461 1.41.541.304.126 2.902 1.098 3.43 1.29.253.095.66.24.913.321.559.207 1.991.675 2.663.872.284.082.762.228 1.067.326 2.38.732 4.815 1.305 7.46 1.784 2.808.483 7.741.977 7.748.759.005-.146-.182-.705-.653-2.046-.132-.354-.234-.692-.233-.736.001-.029 1.931-.011 4.28.065 7.53.227 14.753.11 21.258-.366 2.171-.163 2.513-.239 2.522-.53.005-.146-.03-.322-.09-.411-.048-.075-.2-.473-.34-.885-.142-.398-.378-1.047-.509-1.444-.31-.87-.268-.912.721-1.026.402-.031 1.03-.113 1.423-.187.393-.061 1.115-.183 1.62-.254.837-.134 1.777-.322 3.318-.651.3-.078.714-.166.92-.204.352-.076.57-.141 1.771-.467.985-.289 2.427-.738 2.687-.846.156-.053.499-.188.769-.281a64.504 64.504 0 0 0 3.175-1.355c1.659-.806 4.822-2.744 6.212-3.821 1.064-.811 1.709-1.387 1.713-1.518.002-.073-.163-.69-.377-1.367l-.392-1.222.689-.662c2.658-2.523 4.985-5.274 9.757-11.56 3.763-4.948 4.032-5.333 4.005-5.771-.043-.57-1.063-4.288-1.195-4.351-.06-.031-.81.936-1.671 2.161-5.97 8.432-9.41 12.561-13.373 16.047-.623.562-1.143 1.07-1.146 1.157-.002.073.155.617.352 1.192.197.589.323 1.146.268 1.246-.132.288-3.506 2.379-5.249 3.255-4.665 2.327-10.39 3.789-18.439 4.681-1.154.123-2.113.267-2.146.31-.031.028.088.469.267.97.725 2.033.92 2.666.867 2.737-.054.071-3.706.289-7.932.459-1.305.046-6.202.005-10.88-.117-4.68-.107-8.528-.172-8.539-.158-.021.029.165.603.411 1.266.245.678.44 1.311.437 1.413-.004.131-.21.153-.721.093a247.78 247.78 0 0 0-2.445-.311c-6.514-.822-11.565-2.47-22.997-7.47-6.42-2.815-9.908-4.194-13.596-5.405-.427-.131-.44-.058-.167 1.364.105.557.16 1.068.118 1.125-.033.043-.727-.082-1.542-.297-3.41-.896-7.341-1.606-11.495-2.074-5.024-.555-17.563-1.177-17.706-.876-.033.072-.023.408.018.729a14.1 14.1 0 0 1 .125 1.534l.052.949-9.849-.273-9.839-.273-.127 2.982c-.063 1.645-.087 3.042-.048 3.102Z"/><path d="M-115.344 274.808c.039.06 4.377.243 9.639.412 10.576.34 9.773.402 9.614-.71-.051-.322-.102-.98-.127-1.476l-.044-.875 4.113.132c11.13.358 18.531 1.397 25.648 3.593 1.24.389 1.282.391 1.292.085.005-.16-.071-.672-.18-1.128-.233-1.041-.232-1.085.014-1.077.318.01 4.232 1.578 6.458 2.597.698.328 1.417.643 1.6.721.171.079.636.298 1.03.485.395.188 1.033.485 1.407.657a60.94 60.94 0 0 0 1.386.657c.374.186 1.011.484 1.405.671.395.188.86.407 1.032.485.183.079.658.298 1.063.486.414.202.89.422 1.062.5.182.079.901.393 1.6.722 2.53 1.144 4.496 1.951 6.831 2.769.254.095.66.225.914.32 1.828.642 3.966 1.221 6.434 1.737 2.05.416 7.747 1.123 7.865.967.043-.057-.111-.688-.334-1.409-.224-.721-.408-1.368-.406-1.441.002-.073 1.716-.047 3.797.064 5.208.269 13.64.22 19.595-.084 4.362-.239 4.65-.273 4.659-.535.003-.102-.237-.925-.536-1.838-.3-.913-.52-1.721-.476-1.807.033-.087.313-.151.62-.141.298.01.843-.031 1.205-.092.372-.076 1.145-.182 1.744-.264a35.572 35.572 0 0 0 1.733-.251c.361-.061 1.043-.185 1.517-.257.476-.087 1.095-.198 1.354-.262.27-.064.807-.178 1.2-.268 1.54-.329 1.986-.46 4.081-1.107a38.362 38.362 0 0 0 6.171-2.54c1.295-.658 4.745-2.907 5.17-3.345l.286-.282-.363-1.162c-.205-.648-.34-1.25-.305-1.365.034-.101.321-.412.638-.693 2.124-1.855 6.334-6.629 8.302-9.407.366-.527 1.055-1.495 1.517-2.151.86-1.21 1.258-1.766 2.876-4.161 1.088-1.597 1.326-1.968 1.333-2.186.008-.247-.957-4.081-1.065-4.259-.069-.09-.27.122-.573.593-3.491 5.424-7.271 10.576-9.74 13.25-1.766 1.925-3.514 3.602-5.096 4.877-.643.518-1.172 1.011-1.175 1.098-.003.088.135.587.292 1.131.168.53.274 1.058.25 1.159-.08.26-2.414 1.642-4.197 2.488-4.817 2.278-10.923 3.742-18.906 4.52-3.06.295-3.193.319-3.201.567-.004.102.218.881.489 1.705.26.839.482 1.604.48 1.706-.005.131-.408.205-1.334.248-7.65.337-12.107.354-19.45.045-4.46-.187-6.492-.223-6.496-.107-.003.087.144.646.33 1.234.186.589.343 1.162.339 1.279-.008.247-.612.184-3.82-.327-6.323-1.019-10.603-2.687-22.526-8.722-5.981-3.034-10.676-5.209-12.04-5.559-.47-.117-.456-.204-.224 1.522.059.41.078.775.046.817-.033.043-.674-.123-1.426-.366-5.51-1.736-10.402-2.563-18.855-3.141-5.604-.384-9.174-.499-9.233-.268-.034.086-.027.524.01.947.028.438.078 1.11.106 1.519l.049.715-9.141-.25-9.152-.251-.127 2.983c-.063 1.644-.087 3.042-.048 3.101Z"/><path d="M-114.887 262.613c.071.046 4.112.191 8.965.317l8.833.255.015-.465a31.16 31.16 0 0 0-.04-1.648l-.034-1.181 3.057.098c9.9.319 18.656 1.649 24.157 3.676.233.095.842.319 1.35.51 1.187.431 1.371.437 1.384.03a2.005 2.005 0 0 0-.074-.571 4.668 4.668 0 0 1-.126-.849l-.053-.599.366.114c.203.065.64.239.983.41.334.157.97.469 1.406.672 1.082.501 5.82 2.926 7.323 3.761.666.371 1.343.728 1.484.805.141.078.818.434 1.483.806.666.371 1.625.882 2.12 1.146.495.249 1.373.714 1.96 1.024a86.598 86.598 0 0 0 4.588 2.26c.193.079.507.22.7.299 3.532 1.571 6.775 2.608 10.215 3.243 2.756.511 6.438.95 6.445.76 0-.043-.174-.675-.387-1.396a37.583 37.583 0 0 1-.388-1.353c0-.014 3.53.07 7.84.194 4.359.14 8.937.2 10.315.142 5.922-.232 6.991-.285 8.423-.413 1.77-.147 1.683.025 1.033-2.123-.241-.795-.434-1.515-.43-1.602.005-.175.346-.266 1.305-.366a91.768 91.768 0 0 0 8.315-1.204c4.742-.911 9.779-2.657 12.887-4.48 1.539-.912 2.861-1.802 2.917-1.946.024-.101-.07-.658-.227-1.231-.156-.573-.272-1.131-.269-1.218.003-.102.534-.638 1.19-1.215 2.556-2.219 4.865-4.753 7.397-8.109 2.745-3.641 6.343-9.178 6.363-9.804.017-.538-.84-4.237-.983-4.227-.062-.002-.504.654-.981 1.44-4.81 8.091-9.541 13.78-14.58 17.522-.694.503-1.286 1.037-1.301 1.182-.025.131.072.644.21 1.129.139.485.226.954.192 1.055-.126.404-4.191 2.283-6.963 3.214-4.39 1.461-12.093 2.787-18.451 3.165-.628.038-1.206.122-1.28.192-.094.07-.016.495.3 1.554.63 2.104.63 2.104.206 2.192-.496.086-4.258.213-8.727.287-3.852.051-17.555-.462-17.897-.677-.332-.2-.35.338-.034 1.383.167.559.303 1.117.3 1.233-.01.277-.01.277-2.165-.084-6.69-1.104-11.646-3.128-21.092-8.603-.856-.509-2.258-1.311-3.114-1.819-1.956-1.127-6.355-3.556-7.013-3.868-.263-.125-1.274-.595-2.235-1.063-.96-.453-1.782-.785-1.825-.728-.043.071-.044.435-.005.801.213 1.696.216 1.595-.119 1.467-4.35-1.728-9.414-2.939-15.132-3.633-2.394-.281-12.713-.948-12.953-.824-.219.109-.226.342-.083 2.59l.049.715-8.505-.229-8.495-.23-.128 3.012c-.096 2.342-.087 3.042.013 3.103Z"/><path d="M-114.491 250.39c.071.046 3.845.182 8.37.298l8.248.236.01-.612c0-.335-.017-1.078-.05-1.647l-.05-1.036 2.114.068c3.61.116 9.918.697 12.86 1.185 5.076.834 8.199 1.75 13.286 3.851.344.142.67.226.713.183.073-.056.055-.435-.11-1.722-.04-.308-.024-.496.048-.494.061.002.82.376 1.688.826a91.895 91.895 0 0 1 3.532 1.935c.846.493 1.008.586 1.611.97.131.077 2.307 1.385 4.836 2.908a984.826 984.826 0 0 0 4.815 2.909 20.5 20.5 0 0 0 1.431.818c.142.077.666.371 1.16.649 1.2.68 3.03 1.583 4.245 2.118.264.11.608.267.75.33.545.265 1.529.661 2.503 1.013 2.203.784 4.087 1.282 6.465 1.723.561.105 1.49.266 2.062.372 1.338.247 2.66.289 2.668.086a1.569 1.569 0 0 0-.09-.426 34.276 34.276 0 0 1-.476-1.778l-.1-.425 5.239.27c6.572.328 13.554.319 20.682-.034 1.12-.052 2.09-.166 2.143-.237.064-.071.024-.422-.106-.834-.111-.382-.203-.735-.201-.779.001-.043-.109-.455-.238-.91-.36-1.236-.337-1.337.33-1.316.308.01.976-.026 1.482-.098.515-.056 1.443-.172 2.061-.239 3.38-.387 6.55-.911 9.323-1.565 1.738-.396 1.976-.461 3.542-.935 2.343-.711 5.6-2.064 6.952-2.88.209-.124.701-.414 1.11-.663.407-.235.746-.53.75-.646.003-.117-.104-.63-.23-1.158-.137-.529-.245-1.014-.243-1.086.003-.088.574-.594 1.259-1.14 1.907-1.512 4.145-3.713 5.917-5.826 1.217-1.432 3.775-4.978 4.996-6.89 1.342-2.113 3.221-5.316 3.227-5.505.01-.292-.77-4.148-.887-4.341-.097-.164-.389.264-1.477 2.181-1.796 3.148-2.768 4.66-4.53 7.066-3.168 4.312-6.128 7.276-9.824 9.823-.84.571-1.554 1.072-1.576 1.115-.053.042.16 1.098.406 2.053.055.205-.104.346-.792.688-5.364 2.683-13.605 4.443-24.536 5.228-2.027.153-1.953.068-1.5 1.656.369 1.279.538 2.1.463 2.2-.086.114-3.233.246-7.578.295-3.76.054-15.862-.393-18.512-.697-.85-.1-1.158-.081-1.162.05.007.102.106.542.225.983.13.442.267.97.301 1.176l.07.366-.95-.133c-.521-.075-1.797-.334-2.826-.571-6.104-1.464-10.187-3.489-20.378-10.067-5.955-3.848-12.013-7.379-12.217-7.108-.032.042.003.553.078 1.109.084.571.12 1.068.087 1.11-.021.029-.671-.196-1.42-.512-4.346-1.858-9.063-3.03-15.087-3.777-2.24-.276-10.755-.856-10.963-.746-.188.081-.18.155-.063 2.577l.029.714-7.9-.21-7.9-.21-.128 3.011c-.096 2.343-.087 3.042.013 3.104Z"/><path d="M-114.164 238.135c.039.059 3.577.217 7.875.355l7.806.251-.031-1.269c-.02-.685-.036-1.428-.05-1.647-.01-.35.023-.379.64-.402.823-.047 7.429.472 9.577.745 3.16.393 6.221.986 8.541 1.644.336.098.865.246 1.181.329.824.231 1.403.439 3.168 1.107 1.015.382 1.703.681 3.99 1.731 1.053.471 1.042.485.988-.376a13.583 13.583 0 0 0-.101-1.009c-.06-.351.227-.342.891.058.282.169 1.159.693 1.945 1.155a90.176 90.176 0 0 1 2.094 1.306c.361.259.683.459.704.46.03.001.363.215.745.475.38.275.713.489.733.49.031.001.303.17.604.384.522.366.934.641 2.01 1.361.251.168.683.473.975.658.291.198.723.489.955.642.844.581 1.487 1.009 2.03 1.391.31.214.583.383.603.384.03.001.363.215.745.475.381.275.713.489.744.49.02.001.272.155.543.338 1.176.796 1.297.872 2.568 1.598 2.692 1.543 3.197 1.807 4.875 2.604.435.204.921.423 1.063.501.242.124 1.5.601 2.606 1.001.234.081.722.242 1.068.34.355.114.864.261 1.118.342 1.505.457 4.636 1.14 6.077 1.347 1.053.136 1.042.15.653-1.48-.135-.572-.232-1.071-.21-1.099.03-.028 2.06.095 4.509.261 4.386.287 14.085.41 18.537.232a383.93 383.93 0 0 1 3.24-.129c.863-.03 1.625-.122 1.7-.193.095-.099.009-.611-.3-1.83-.227-.94-.396-1.761-.353-1.833.033-.071.437-.16.89-.204 3.356-.256 7.252-.728 9.607-1.148.361-.061 1.043-.185 1.518-.257.475-.087 1.095-.198 1.353-.263.27-.064.807-.178 1.2-.267.393-.089.9-.204 1.138-.269.239-.065.736-.195 1.088-.286.62-.155 3.194-.975 3.952-1.242.198-.081.51-.188.706-.254 1.61-.56 4.502-2.055 4.553-2.359.025-.131-.042-.599-.15-1.054-.11-.455-.186-.939-.182-1.07.005-.16.44-.568 1.154-1.084 4.363-3.152 8.623-8.202 12.192-14.468 1.35-2.374 2.27-4.195 2.281-4.515.006-.175-.105-.892-.225-1.61a71.891 71.891 0 0 1-.467-2.725c-.025-.19-.092-.352-.143-.354-.051-.001-.564.929-1.144 2.061-4.614 9.03-8.874 14.108-15.12 18.03-.818.513-1.5.957-1.52.971-.033.043.093.615.288 1.262.045.176.066.483.04.686-.042.319-.21.416-1.354.903-5.402 2.23-12.655 3.629-23 4.418-1.534.111-2.854.287-2.908.358-.075.1-.08.289.004.539.11.397.256.955.42 1.616.055.22.138.514.184.662.047.147.08.396.075.556-.009.262-.143.286-1.603.341-8.737.288-18.738-.063-24.185-.865-.818-.113-1.515-.165-1.557-.108-.033.043-.018.232.048.395.067.162.122.368.12.455-.004.088.087.469.198.852.12.382.181.748.139.791-.162.228-5.005-1.152-7.49-2.12-4.117-1.619-7.472-3.62-15.736-9.422-6.247-4.367-7.091-4.934-10.356-6.86-1.653-.971-1.674-.971-1.483.433.057.468.086.863.064.906-.032.028-.6-.194-1.267-.507-4.846-2.283-9.864-3.654-16.247-4.412-2.414-.297-9.043-.757-9.17-.645-.105.084-.106.74.011 2.535l.05.716-7.429-.195-7.418-.195-.127 2.982c-.063 1.644-.087 3.042-.048 3.102Z"/><path d="M-113.773 225.913c.039.059 3.351.209 7.362.338 5.837.188 7.305.192 7.35.047.035-.115.027-.8-.011-1.544-.051-.963-.038-1.371.048-1.499.203-.256 7.821.426 11.16 1 4.126.715 7.505 1.654 10.585 2.948 1.367.583 1.59.692 3.53 1.672 1.07.544 1.972.938 2.015.881.032-.043.015-.466-.052-.934-.057-.468-.074-.891-.041-.949.085-.099.74.257 1.746.945.361.26.683.459.714.46.02.001.292.17.604.384.3.214.773.535 1.025.703 1.336.917 3.062 2.167 6.743 4.879 2.357 1.736 4.114 2.987 5.33 3.813 1.105.749 1.488.995 1.84 1.239.21.124.512.337.693.445 1.589 1.056 4.829 2.807 6.5 3.516 1.703.71 1.652.694 3.796 1.375 2.5.809 3.397 1.042 6.018 1.592.224.051.38-.002.414-.118.035-.101-.05-.657-.175-1.258-.135-.587-.242-1.086-.24-1.13 0-.029.523.003 1.158.067 8.085.842 16.97 1.055 25.056.587l1.924-.113-.046-.482c-.046-.482-.368-1.964-.527-2.436a1.679 1.679 0 0 1-.085-.556c.01-.305.082-.318 3.79-.665 2.513-.239 6.204-.703 7.774-.988 2.272-.408 4.639-.885 5.664-1.158 1.978-.505 2.787-.755 4.843-1.461 1.152-.4 3.935-1.666 4.085-1.85.117-.142.104-.361-.048-1.08-.266-1.29-.244-1.363.395-1.75 1.801-1.078 4.747-3.591 6.526-5.588 2.95-3.285 5.65-7.714 8.672-14.217.22-.473.22-.488-.01-1.908a127.52 127.52 0 0 1-.38-2.562c-.083-.614-.2-1.114-.262-1.116-.072-.002-.532.901-1.04 1.992-4.914 10.724-9.115 15.848-16.042 19.574-.983.536-.994.565-.73 1.928l.14.748-.386.206c-.575.316-2.9 1.116-4.87 1.679-4.694 1.32-11.71 2.362-19.49 2.898-1.472.099-2.73.233-2.803.289-.094.07-.073.362.079 1.081.429 1.98.507 2.434.442 2.52-.172.242-5.194.255-11.995.051-7.94-.255-9.456-.377-13.741-1.214-.817-.157-1.512-.253-1.545-.195-.042.042.014.524.13 1.067.285 1.35.274 1.378-.265 1.23-1.263-.317-4.372-1.364-5.78-1.934-4.582-1.881-7.58-3.784-16.593-10.586-6.326-4.777-10.837-7.88-11.04-7.61-.054.057-.057.479-.02.932.036.467.043.89.02.948-.022.057-.68-.226-1.447-.63-6.02-3.107-12.439-4.697-21.466-5.279l-3.054-.2.03 1.618.03 1.633-6.936-.18-6.936-.179-.126 2.982c-.064 1.644-.088 3.042-.049 3.102Z"/><path d="M-113.37 213.689c.039.06 3.197.205 7.013.327l6.945.224-.01-1.588c-.024-1.196.01-1.603.114-1.658.146-.068 6.105.459 7.444.648 7.359 1.081 12.782 2.96 18.635 6.485.171.092.323.17.343.171.093.003.078-.813-.008-1.326-.103-.644.002-.714.504-.348.22.153.713.489 1.095.749.382.245 2.417 1.782 4.522 3.394 9.11 6.98 10.613 8.121 11.216 8.533 2.03 1.377 2.936 1.945 4.327 2.733 3.006 1.684 6.33 3.044 10.115 4.127.346.113.855.261 1.12.342.802.245 1.385.322 1.451.193.022-.058-.034-.526-.131-1.024-.248-1.232-.23-1.494.085-1.367.132.048.795.186 1.469.295 4.657.776 10.374 1.178 16.516 1.157 5.196-.022 8.804-.124 9.455-.249.506-.1.508-.159.099-2.124-.168-.85-.288-1.597-.255-1.654.023-.072.27-.123.537-.114.267.008.936-.028 1.482-.084.546-.069 1.627-.166 2.4-.243 3.532-.309 7.132-.805 10.748-1.504.982-.187 3.114-.702 5.08-1.206.622-.17 2.854-.914 3.437-1.157 2.06-.837 2.728-1.166 2.732-1.297.003-.101-.055-.511-.135-.922-.235-1.304-.224-1.333.845-1.983 1.403-.843 3.445-2.424 4.665-3.623 1.357-1.326 3.964-4.797 5.118-6.828.816-1.431 3.06-5.773 3.066-5.933.001-.043.212-.532.476-1.092.518-1.105.64-1.378 1.364-3.117l.499-1.164-.183-1.346c-.099-.746-.265-1.975-.374-2.736-.098-.761-.2-1.405-.22-1.45-.01-.029-.104.026-.19.154-.15.214-.24.415-1.274 2.917-.312.733-.711 1.667-.9 2.083-.177.402-.332.762-.333.791-.003.116-1.027 2.239-2.002 4.146-3.507 6.865-6.87 10.53-12.28 13.357-.647.343-1.212.675-1.245.747-.033.071-.014.422.046.788.05.366.107.819.143.995.041.307-.032.363-.708.618-4.585 1.747-11.404 3.057-19.787 3.807-2.008.183-6.908.55-7.184.541-.123-.004-.05.611.207 1.843.446 2.097.574 1.956-1.543 2.004-9.783.224-19.028-.626-25.155-2.324-.325-.098-.347-.069-.361.382-.009.262.022.583.069.73.046.148.108.455.142.69.075.541.085.541-2.21-.261-6.447-2.29-10.293-4.672-19.38-12.03-5.774-4.687-10.999-8.57-11.192-8.314-.032.043-.026.48.031.948.056.482.084.906.052.934-.022.043-.699-.299-1.506-.748-5.983-3.31-11.334-4.866-19.748-5.704-1.238-.128-2.651-.246-3.144-.262l-.902-.029-.011 1.617-.022 1.631-6.524-.195-6.515-.181-.127 2.983c-.063 1.644-.087 3.041-.048 3.101Z"/><path d="M-112.963 201.478c.059.061 11.648.521 13.137.51.113.004.134-.331.114-1.613l-.03-1.633 1.823.161c5.908.51 10.774 1.512 14.71 3.022 2.91 1.128 6.527 2.993 8.676 4.489.793.55.804.536.756-.529-.014-.51-.001-.918.05-.916.093.003 4.052 3.015 5.122 3.909.41.333 1.04.849 1.42 1.167.791.637 1.651 1.35 2.281 1.88.96.803 1.38 1.152 2.29 1.895a473.57 473.57 0 0 1 1.782 1.455c1.57 1.289 6.154 4.685 6.328 4.691.02.001.252.139.493.307 1.468.994 3.83 2.25 5.856 3.131.233.095.547.236.688.314.819.405 5.174 1.943 6.478 2.262.418.116.46.088.469-.203a2.129 2.129 0 0 0-.073-.6c-.047-.133-.117-.528-.147-.85l-.053-.599.622.122c.348.055 1.01.193 1.48.296 5.05 1.036 8.6 1.413 15.042 1.634 5.396.174 10.79.085 10.983-.171.107-.142.075-.435-.185-1.929-.339-1.919-.339-1.919.687-1.886.38.012 1.13-.037 1.677-.092a62.83 62.83 0 0 1 2.4-.243 61.164 61.164 0 0 0 2.38-.244c2.464-.3 2.98-.371 3.784-.491a82.547 82.547 0 0 0 3.148-.496c1.715-.323 3.513-.673 3.907-.792.239-.065.725-.18 1.087-.271 2.588-.63 6.835-2.111 7.166-2.508.043-.057.015-.48-.052-.934-.067-.468-.123-.966-.119-1.097.006-.174.438-.539 1.382-1.15 1.688-1.082 2.247-1.53 3.584-2.856 1.972-1.947 4.009-4.927 5.86-8.553.932-1.82 1.879-3.8 1.883-3.945.002-.044.101-.259.21-.474.252-.459.953-2.14 2.315-5.549.637-1.597.988-2.62.998-2.94.013-.408-.171-2.336-.527-5.626-.025-.19-.082-.352-.143-.354-.051-.002-.73 1.608-1.501 3.579-3.571 9.18-5.94 13.867-8.85 17.503-1.818 2.258-3.748 3.842-6.57 5.383l-1.37.743.012.597c0 .321.004.831.015 1.123l.014.539-.717.254c-5.381 1.939-13.97 3.338-24.485 3.991-1.389.086-2.552.18-2.574.208-.053.072.052.949.233 2.004.062.337.128.834.15 1.097l.035.497-.72.078c-1.011.128-11.94-.413-13.842-.663-4.018-.552-7.12-1.147-10.226-1.961-.947-.249-1.945-.499-2.241-.552-.48-.103-.522-.076-.448.189.164.661.293 1.758.208 1.828-.232.182-5.71-2.18-8.133-3.51-2.774-1.517-6.757-4.443-11.326-8.304-5.647-4.785-7.528-6.332-9.654-7.93-1.212-.928-2.287-1.69-2.379-1.693-.133-.005-.148.14-.12.841.04.671.015.831-.108.827-.082-.003-.688-.328-1.342-.728-6.204-3.798-13.334-5.921-21.86-6.472l-1.29-.085-.052 1.6-.052 1.616-6.196-.199-6.195-.2-.128 2.997c-.063 1.659-.077 3.057-.027 3.102Z"/><path d="M-112.521 189.257c.07.046 2.931.182 6.356.321l6.235.259.018-1.529.019-1.544.914-.014c1.213-.034 4.863.462 7.341.994 6.018 1.271 11.364 3.628 16.372 7.228.351.244.675.415.727.373.053-.042.087-.449.06-.902-.027-.452-.025-.816.006-.815.071.002 3.596 2.81 3.794 3.021.06.074.36.332.68.59.93.773 1.57 1.318 2.618 2.24.549.484 1.259 1.089 1.579 1.362.32.258.699.605.858.77.149.151.299.287.33.288.03.001.45.349.93.758.48.424 1.199 1.044 1.609 1.378.4.333.99.818 1.29 1.075.72.606 3.697 2.858 4.39 3.332.292.184.714.475.945.642 2.854 1.942 7.931 4.349 11.773 5.58.58.179 1.097.37 1.147.415.18.181.25-.414.132-1.234-.057-.468-.085-.876-.042-.919.054-.085.666.051 2.326.468 6.335 1.632 16.037 2.643 23.16 2.42 1.418-.041 2.623-.134 2.676-.205.086-.114.048-.523-.216-2.207-.24-1.493-.283-1.422.982-1.498 4.588-.26 10.731-.966 14.12-1.629a99.82 99.82 0 0 0 3.743-.797c.507-.115 1.968-.52 3.015-.836.674-.196 1.993-.664 2.784-.974.426-.161.915-.364 1.102-.43.697-.284.741-.384.584-1.569-.073-.586-.097-1.111-.044-1.167.043-.072.569-.448 1.157-.852 3.065-2.086 5.764-5.54 8.363-10.686 1.513-2.996 2.435-5.166 5.022-11.843l1.837-4.763-.034-1.152a47.83 47.83 0 0 0-.108-2.072 90.176 90.176 0 0 1-.148-2.102c-.143-2.263-.002-2.506-2.6 4.228-2.555 6.634-3.157 8.115-4.317 10.656-3.267 7.077-6.172 10.874-10.237 13.365-1.875 1.149-1.748 1.037-1.726 1.635.012.277.058.759.11 1.037.123.66.134.646-1.393 1.179-5.619 1.976-14.05 3.278-24.065 3.699-1.305.045-2.407.141-2.45.198-.043.057 0 .641.101 1.314.101.688.2 1.464.222 1.726l.035.497-2.995-.096c-7.652-.247-15.428-1.458-22.253-3.469-2.35-.702-2.186-.683-2.183-.143.012.262.038.729.07 1.051.044.526.021.583-.15.505-.112-.048-.7-.285-1.319-.523-6.358-2.477-10.72-5.415-19.047-12.806-5.151-4.566-9.562-8.233-9.92-8.245-.063-.002-.126.375-.141.855-.02.626-.068.829-.159.768-.07-.046-.683-.445-1.347-.874-5.109-3.369-10.19-5.354-16.397-6.442-2.002-.341-4.712-.705-5.594-.734l-.636-.02-.052 1.615-.051 1.601-5.897-.233-5.897-.219-.128 3.012c-.096 2.342-.088 3.041.014 3.088Z"/><path d="M-112.136 177.033c.071.032 2.581.2 5.565.339 2.993.155 5.679.3 5.976.324l.542.046.05-1.557c.028-.858.083-1.6.126-1.657.107-.142 4.287.459 6.368.905 1.417.307 3.586.872 4.43 1.162.446.145.995.323 1.229.403 2.225.728 6.339 2.768 8.55 4.238 1.268.827 1.459.965 2.823 1.955.723.504 1.326.932 1.367.933.03.001.042-.348.024-.757-.017-.423-.005-.801.027-.844.086-.099 1.176.796 5.43 4.531.18.151 1.099.967 2.047 1.828 3.154 2.826 3.303 2.962 4.903 4.31.27.227.76.636 1.069.923.76.651 3.756 2.932 4.63 3.514.383.245.906.597 1.167.766 1.256.871 4.903 2.736 7.05 3.636 2.767 1.152 4.594 1.808 4.782 1.712.157-.082.15-.505-.037-1.706-.068-.439-.068-.439.298-.325.426.145 1.261.376 3.675.992 6.09 1.551 13.198 2.45 20.556 2.599l3.725.076.004-.452a11.78 11.78 0 0 0-.104-1.227c-.223-1.697-.217-1.871.063-1.964.145-.039.865-.089 1.606-.123 3.65-.131 9.42-.761 12.633-1.357 2.324-.435 2.552-.486 4.643-1.016 2.567-.646 5.57-1.744 6.92-2.531l.586-.345-.053-.57c-.02-.321-.064-.891-.093-1.285l-.039-.701.811-.629c3.182-2.505 6.396-7.297 8.985-13.405.178-.417.365-.819.41-.905.228-.4 2.217-5.421 4.66-11.781l1.86-4.835.019-1.223a35.21 35.21 0 0 0-.047-2.377c-.041-.627-.117-1.781-.164-2.569-.037-.773-.108-1.416-.139-1.417-.082-.003-.574 1.234-3.923 9.896-1.32 3.41-2.574 6.604-2.784 7.093-4.166 9.801-7.142 14.207-11.56 17.154l-.902.597.057.789c.119 1.722.142 1.65-.713 2.031-3.198 1.427-8.795 2.732-14.608 3.39-3.453.399-9.83.762-12.026.692l-.636-.021.048.73c.04.395.119 1.111.186 1.565.067.468.124.936.11 1.067-.006.189-.468.189-3.307.01-7.86-.471-15.578-1.899-22.478-4.132-.691-.226-1.333-.407-1.425-.41-.133-.004-.159.156-.124 1.002l.04.992-.295-.112c-1.035-.383-3.515-1.497-4.819-2.136-4.7-2.336-8.06-4.834-15.403-11.48-5.248-4.758-8.685-7.723-8.972-7.733-.072-.002-.133.302-.149.782-.03.917.073.935-1.634-.285-5.941-4.271-13.115-6.949-20.627-7.729l-1.412-.148-.053 1.63-.052 1.63-2.182-.172c-1.198-.097-3.75-.237-5.679-.299l-3.497-.127-.128 3.011c-.096 2.343-.088 3.042.014 3.089Z"/><path d="M-111.811 164.791c.04.06 1.208.141 2.613.186 1.395.045 3.578.188 4.847.302 1.27.114 2.744.249 3.277.295l.973.075.102-1.599.103-1.6.758.068c1.945.18 5.28.899 8.025 1.744 3.376 1.041 7.612 3.101 10.666 5.195.262.168.694.459.955.642.262.169 1.225.885 2.136 1.584.923.685 1.716 1.25 1.767 1.251.062.002.113-.302.125-.68.012-.379.073-.683.125-.681.061.002.342.215.631.472.3.272.55.484.57.484.02.001.6.515 1.278 1.134.689.62 1.387 1.254 1.567 1.405.17.166 1.586 1.45 3.143 2.855 1.556 1.419 2.983 2.718 3.162 2.884.19.152.52.439.74.621.22.197.61.53.86.742.259.226.749.636 1.088.938.63.545 4.42 3.405 4.532 3.409.03.001.333.185.674.429 1.959 1.36 6.155 3.389 10.618 5.12 1.358.539 1.316.567 1.276-.731-.038-1.05-.027-1.079.175-.985.121.062.477.19.792.273 3.593 1.004 4.581 1.24 7.876 1.929 4.55.947 11.3 1.747 16.286 1.908l2.995.096-.027-.729a46.256 46.256 0 0 0-.128-1.767c-.054-.585-.068-1.08-.036-1.123.032-.043.917-.116 1.976-.155 3.465-.136 5.69-.327 9.123-.785 5.61-.752 10.857-2.317 14.308-4.274.534-.304 1.027-.623 1.091-.708.075-.1.078-.508.019-1.223-.142-1.666-.175-1.579.96-2.708 2.748-2.753 5.514-7.355 8.18-13.606.177-.417.51-1.193.744-1.739.233-.546 1.619-4.041 3.074-7.782 2.439-6.23 3.455-8.79 4.043-10.141.266-.603.326-1.825.234-4.392-.108-2.728-.15-3.355-.26-3.403-.061-.031-.223.197-.355.499a203.13 203.13 0 0 1-1.121 2.601c-.478 1.121-1.76 4.284-2.845 7.032-2.649 6.703-3.732 9.393-4.65 11.476-3.477 7.842-6.286 12.166-9.681 14.927-.517.42-.982.842-1.047.942-.065.1-.078.493-.035 1.077.126 1.505.126 1.519-.512 1.877-1.695.966-5.765 2.379-8.65 3-4.954 1.079-11.051 1.655-17.953 1.695l-.863.016-.006.525c.003.539.123 1.897.245 2.571l.05.352-1.435-.047c-6.842-.22-17.54-2.181-24.317-4.438-.792-.273-1.474-.455-1.516-.428-.053.042-.067.479-.052.975.037.759.011.918-.122.914-.277-.009-3.85-1.625-5.557-2.495-4.192-2.16-7.342-4.49-12.849-9.49-1.267-1.162-3.552-3.231-5.078-4.635-3.641-3.308-4.89-4.382-5.027-4.27-.074.056-.095.376-.077.784.03.365.03.671-.001.67-.03-.001-.834-.566-1.787-1.266-6.43-4.709-11.94-7.086-19.405-8.375-1.011-.178-1.922-.265-2.026-.225-.167.082-.194.285-.205 1.596l-.007 1.486-.697-.037c-.39-.013-2.788-.177-5.348-.376-2.551-.199-4.724-.313-4.818-.272-.146.068-.18.504-.262 3.051-.053 1.63-.066 2.999-.027 3.058Z"/><path d="M-110.275 152.704c.667.021 2.951.211 5.08.425 2.129.2 4.187.397 4.566.41l.708.037.049-1.528.049-1.528.645.05c1.065.107 2.95.532 5.138 1.155 1.262.362 1.527.443 2.987 1 2.638.988 6.114 2.746 8.034 4.046.25.168.754.505 1.136.75.864.582 4.122 3.046 5.142 3.895.43.363.821.653.873.654.05.002.102-.302.114-.681.012-.378.063-.697.115-.695.082.003 2.546 2.238 6.295 5.709 1.068.981 2.085 1.917 2.265 2.069.18.151.679.604 1.108.997 2.354 2.144 6.01 4.986 7.985 6.186 1.893 1.153 4.964 2.724 6.99 3.59.213.08.71.299 1.125.473.405.173.963.395 1.216.491 1.32.494 2.344.862 2.396.864.102.003.097-.799-.006-1.428-.051-.322-.072-.629-.029-.686.032-.043.39.013.787.127 5.085 1.519 10.339 2.591 16.251 3.291 2.793.337 9.248.778 10.206.692l.854-.074-.044-.847a84.838 84.838 0 0 0-.11-1.708c-.036-.467-.043-.89-.01-.961.023-.058.373-.105.784-.092.943.031 4.998-.261 7.349-.536 1.67-.194 4.29-.605 5.562-.87.341-.076.88-.19 1.19-.267 2.006-.431 5.255-1.521 7.163-2.421 2.012-.941 4.36-2.424 4.486-2.828.045-.144.037-.858 0-1.617l-.08-1.357 1.77-2.347c3.131-4.124 5.335-8.468 9.331-18.42.458-1.151 1.216-3.006 1.674-4.157 2.054-5.12 3.373-8.137 5.088-11.651.243-.516.256-.618.285-3.429.034-3.305.013-3.903-.172-3.909-.072-.003-.505.697-.953 1.542-1.738 3.251-3.495 7.128-5.936 13.11-1.426 3.48-1.85 4.5-2.394 5.78-3.098 7.271-5.208 11.253-7.655 14.525-1.201 1.593-1.85 2.316-3.514 3.894-.2.183-.203.27-.108 1.468.065.847.07 1.342-.008 1.5-.285.588-3.999 2.377-6.894 3.318-4.929 1.604-10.665 2.44-18.086 2.667-1.881.056-3.055.164-3.11.264a.762.762 0 0 0-.033.407c.026.147.082.629.119 1.082.037.438.09 1.037.122 1.315l.066.498-1.61-.052c-2.924-.094-8.408-.722-12.175-1.397-3.676-.657-9.107-1.968-11.962-2.905-1.494-.485-1.441-.512-1.392.494.026.468.023.904-.01.976-.122.259-4.88-1.876-7.542-3.374-4.075-2.302-6.738-4.427-14.267-11.385-4.397-4.061-5.885-5.39-6.06-5.396-.07-.002-.13.258-.145.709-.012.379-.063.668-.103.638-.05-.031-1.193-.898-2.556-1.918-6.186-4.686-11.455-7.201-18.184-8.67-.99-.207-1.868-.351-1.952-.31-.136.068-.178.416-.217 1.639l-.05 1.557-.612-.122c-1.888-.352-9.967-1.063-10.096-.893-.022.043-.087 1.425-.141 3.099l-.097 3.027 1.21.039Z"/><path d="M-110.85 140.505c.142.048 1.309.159 2.61.259 2.172.157 5.322.535 7.385.893.459.087.9.102.974.031.095-.07.14-.534.143-1.569.013-1.66-.041-1.589 1.11-1.29.325.098.947.249 1.385.365 1.527.384 5.03 1.604 5.86 2.024.15.078.485.234.748.345 1.013.44 3.396 1.697 4.665 2.466 1.248.769 1.54.953 2.796 1.824 1.507 1.039 3.52 2.59 5.26 4.059 1.33 1.12 1.92 1.591 1.993 1.593.03.001.07-.303.083-.682.012-.378.042-.683.073-.682.031.001.381.289.77.651.379.362 1.147 1.071 1.695 1.57a266.09 266.09 0 0 1 1.885 1.736c.987.935 3.84 3.532 4.37 4.001.19.152.519.439.739.621.42.363.86.741 1.86 1.575 3.599 3.015 7.79 5.495 12.695 7.532 2.25.932 4.037 1.572 4.416 1.584l.328.011-.04-.992c-.025-.802.002-1.005.125-1.001.082.002.887.203 1.803.451.917.233 2.017.516 2.455.618.449.102 1.1.254 1.447.352.356.085 1.121.24 1.714.347.591.121 1.46.28 1.929.368 4.5.873 10.13 1.447 14.942 1.529l3.449.067-.01-1.005c-.018-2.623-.006-2.666.282-2.686.155-.01 1.03-.069 1.946-.142 8.15-.553 14.484-2.083 19.486-4.705.763-.398 1.694-.936 2.072-1.186 1.101-.722 2.725-2.039 2.783-2.256.034-.101.04-.946.009-1.865l-.06-1.677 1.085-1.48c1.322-1.808 2.548-3.851 3.918-6.546.92-1.806 3.147-6.528 3.152-6.688 0-.029.267-.647.578-1.365.32-.718.587-1.336.588-1.365 0-.029.178-.446.39-.934.22-.474.575-1.308.798-1.854a58.21 58.21 0 0 1 .722-1.696c.167-.402.433-1.006.578-1.365l.642-1.436c.198-.431.365-.819.366-.848 0-.029.376-.848.83-1.838 1.599-3.445 3.566-7.155 4.676-8.78.259-.371.5-.829.536-1.017.108-.463.207-6.098.109-6.246-.255-.387-3.576 4.867-5.584 8.867-.757 1.505-3.304 6.945-3.308 7.076-.001.029-.21.488-.465 1.033-.254.56-.464 1.034-.465 1.078-.002.044-.212.518-.466 1.063-.253.531-.464 1.005-.465 1.049-.001.043-.234.56-.51 1.163s-.773 1.709-1.116 2.456c-2.079 4.609-3.881 7.989-5.671 10.641-.982 1.455-2.47 3.33-3.093 3.893l-.36.323.009 1.647-.002 1.646-.443.379c-1.51 1.262-5.296 3.107-8.491 4.126-4.784 1.536-11.285 2.551-17.246 2.694-1.13.037-1.893.114-1.958.214-.087.158-.064 1.382.064 2.828l.06.673-3.7-.207c-7.154-.419-14.038-1.573-20.683-3.462a86.125 86.125 0 0 1-2.247-.67c-.344-.171-.456.117-.348.907.048.409.066.832.032.933-.046.145-.504.013-1.852-.54-4.612-1.867-8.184-3.832-11.411-6.282-2.466-1.871-3.884-3.125-11.594-10.191-1.287-1.193-2.385-2.16-2.437-2.162-.04-.001-.091.303-.104.681-.012.379-.052.683-.093.682-.041-.001-.853-.639-1.814-1.413-5.652-4.625-10.48-7.475-15.953-9.385-1.908-.673-4.504-1.383-4.702-1.288-.105.055-.158.447-.196 1.611l-.049 1.528-.458-.116c-1.539-.356-6.273-.989-8.722-1.17l-1.291-.085-.128 3.012-.117 3.012.234.08Z"/><path d="M-110.567 128.436c.071.031.767.126 1.534.209 2.958.285 5.369.683 8.631 1.414.388.086.736.126.778.084.042-.028.105-.711.13-1.497.026-.786.089-1.468.141-1.51.042-.028.298.009.562.091.254.095.69.24.945.321 1.647.519 2.874.996 4.535 1.705 1.53.661 4.73 2.381 6.086 3.284.212.123.564.353.795.506.977.6 1.379.89 3.534 2.518 2.686 2.038 4.107 3.191 5.983 4.883.48.438.92.773.973.731.053-.042.093-.347.104-.682.021-.655.085-.711.402-.38.11.12.369.361.569.528.2.181.768.695 1.256 1.162.997.921 3.85 3.533 4.37 3.987.19.152.52.439.74.621.22.196.609.529.859.741.26.227.74.621 1.049.908 1.548 1.346 4.329 3.33 6.273 4.485 2.912 1.74 7.985 3.972 11.563 5.106 1.25.405 1.187.446 1.152-.706-.023-.568.013-1.034.065-1.076.064-.056.554.033 1.094.167 1.324.348 3.505.855 5.004 1.166 3.806.763 7.507 1.246 12.352 1.635 3.134.247 7.32.338 8.712.179l.588-.069-.058-1.094a36.074 36.074 0 0 1-.032-1.852l.014-.771 1.35-.132c3.636-.378 4.235-.461 7.096-.995 7.066-1.317 12.65-3.774 16.78-7.371 1.584-1.377 1.496-1.176 1.46-3.26-.01-.976-.021-1.895-.006-2.04.004-.145.342-.746.731-1.346 2.051-3.11 3.716-6.348 7.536-14.646 5.067-10.996 7.18-14.745 10.638-18.83l.81-.95.096-2.954c.076-2.372.064-2.97-.049-2.973-.307-.01-2.8 2.765-4.164 4.644-2.277 3.132-4.74 7.54-7.824 14.025-5.153 10.819-6.299 12.909-8.983 16.567l-1.235 1.679-.039 1.834-.038 1.835-.687.59c-1.531 1.32-4.379 3.02-6.92 4.118-4.748 2.062-11.015 3.419-17.91 3.897-1.4.086-2.604.193-2.688.234-.124.04-.141.258-.111.929.025.481.06 1.313.074 1.838l.041.948-2.893-.093c-7.221-.232-15.06-1.373-21.483-3.124-1.059-.296-2.058-.532-2.201-.537-.277-.009-.277-.009-.247.983.025.816.009.991-.125.986-.277-.008-4.008-1.483-5.678-2.236-5.87-2.68-8.81-4.785-16.833-12.05-2.055-1.858-3.812-3.43-3.903-3.477-.13-.077-.165.039-.18.519-.012.349-.063.654-.105.696-.042.028-.834-.58-1.764-1.368-5.607-4.755-10.928-8.233-15.881-10.344-1.52-.646-4.159-1.591-4.487-1.601-.205-.007-.219.095-.262 1.434-.026.8-.089 1.483-.141 1.525-.053.042-.523-.032-1.052-.18-2.261-.597-7.601-1.541-8.945-1.584l-.42-.013-.096 2.983c-.073 2.256-.066 2.999.035 3.046Z"/><path d="M-110.189 116.519c.071.031.786.156 1.583.284 2.769.438 6.102 1.186 8.338 1.899.438.131.856.217.94.176.104-.055.158-.446.19-1.45.044-1.383.044-1.383.311-1.374.451.014 3.236 1.225 5.54 2.407 1.404.715 4.386 2.486 5.863 3.495 2.754 1.866 8.61 6.556 10.921 8.772.638.603.742.577.765-.165.011-.335.071-.61.133-.608.123.004.413.247 1.89 1.591a60.334 60.334 0 0 0 2.176 1.92c.22.182.44.393.5.453.098.12.568.514 2.198 1.863.82.682 4.059 3.117 4.792 3.621 3.247 2.173 9.43 5.009 13.814 6.315.142.048.61.195 1.036.325 1.282.391 1.23.433 1.23-.864-.008-1.034.015-1.107.208-1.057.123.019.582.106 1.02.208 8.932 1.977 16.928 2.73 25.154 2.368l1.244-.048.05-.61c.031-.319.017-1.15-.023-1.822-.088-1.43-.02-1.632.606-1.612.236.008.75-.034 1.143-.094.403-.075 1.197-.18 1.754-.264a91.72 91.72 0 0 0 2.716-.467c8.824-1.712 15.286-4.986 19.812-10.026l.82-.921.057-2.416.058-2.417.336-.572c.175-.315.707-1.23 1.165-2.046.772-1.33 3.466-6.575 6.046-11.766 2.91-5.835 5.685-10.408 8.12-13.33 1.314-1.575 3.13-3.425 3.992-4.082l.579-.433.102-1.25c.053-.683.146-1.991.206-2.892.124-1.934.103-1.95-.948-1.196-1.913 1.38-4.258 3.738-6.176 6.226-2.583 3.355-4.547 6.657-8.651 14.537-3.196 6.133-4.884 9.123-6.5 11.46l-.7 1.027-.046 2.081-.047 2.082-.469.539c-1.748 1.998-5.88 4.706-9.618 6.275-4.486 1.881-11.592 3.473-17.107 3.821-.617.038-1.144.138-1.188.224-.033.086-.082.958-.103 1.934l-.038 1.805-3.05.004c-6.397.013-14.243-.924-20.918-2.508-1.375-.336-2.549-.563-2.602-.521-.053.057-.078.522-.054 1.062.04.962.03.977-.216.969-.36-.012-4.115-1.356-6.06-2.176-6.383-2.682-10.22-5.355-19.135-13.29-.4-.348-.76-.607-.813-.565-.053.042-.104.346-.115.681-.01.32-.06.595-.1.594-.042-.001-.292-.199-.552-.426-4.924-4.295-9.446-7.704-13.404-10.104-3.022-1.831-7.704-4.079-8.08-3.887-.135.068-.186.358-.218 1.377-.023.713-.084 1.337-.147 1.379-.053.042-.787-.142-1.63-.417-2.49-.808-7.177-1.92-8.296-1.956l-.348-.026-.094 2.91c-.07 2.198-.063 2.927.038 2.974Z"/><path d="M-109.809 104.904c.071.032.611.151 1.203.272 1.03.208 1.295.275 2.995.723.652.167 2.462.735 3.843 1.201.234.081.903.335 1.481.558 1.541.618 1.437.687 1.52-.971.077-1.411.077-1.411.342-1.358.683.167 5.214 2.644 7.266 3.977 2.323 1.503 2.665 1.747 5.21 3.679 2.677 2.023 3.308 2.525 5.787 4.615.26.227.69.575.94.802.26.212.73.621 1.029.893.31.272.59.499.62.5.031.001.18.137.33.288.397.42 1.478 1.3 1.6 1.304.062.002.113-.302.126-.681.012-.378.053-.697.084-.696.03.001.28.198.55.425.27.228.71.606.96.818.26.227.69.576.95.803 1.59 1.347 4.705 3.749 5.992 4.621.26.183.703.474.984.673.593.397.825.536 1.924 1.169 3.278 1.853 7.117 3.477 11.701 4.95 1.128.357 3.357.982 3.796 1.055l.378.056.065-1.062c.04-.596.098-1.118.14-1.161.043-.057.443-.029.882.058 2.816.557 4.031.756 7.67 1.252 4.53.597 15.747.827 18.37.357l.496-.086.095-2.022.096-2.007.454-.073c.495-.071 2.436-.402 3.49-.587 2.148-.382 5.277-1.243 7.562-2.073 6.14-2.221 10.595-5.355 14.226-10.002l1.296-1.678.109-2.75.109-2.749.958-1.703c.534-.945 1.624-2.92 2.432-4.409 2.03-3.722 2.836-5.183 3.824-6.84 1.661-2.803 2.384-3.886 4.305-6.447 2.52-3.343 4.885-5.67 7.634-7.49.787-.529 1.471-1.046 1.526-1.16.111-.259.415-5.566.323-5.57-.205-.006-2.12 1.127-3.35 1.962-2.72 1.879-5.307 4.447-7.817 7.775-2.284 3.015-3.886 5.557-7.38 11.694a332.282 332.282 0 0 1-3.444 5.891l-1.344 2.215-.073 2.271c-.041 1.266-.108 2.4-.154 2.544-.035.13-.56.783-1.145 1.435-5.517 6.174-13.706 9.829-25.555 11.386-1.072.14-1.97.301-2.003.343-.032.043-.07.93-.084 1.964l-.03 1.879-.628.067c-1.36.175-11.108-.066-13.728-.325-3.849-.386-7.65-.989-10.698-1.67-.673-.152-1.286-.245-1.37-.204-.114.055-.165.373-.19 1.159-.02.582-.076 1.061-.127 1.06-.051-.002-.977-.265-2.055-.605-5.44-1.69-9.975-3.701-13.779-6.111-1.812-1.136-5.662-4.028-8.242-6.179-.89-.743-1.662-1.321-1.704-1.293-.052.042-.103.346-.114.681-.011.349-.07.595-.142.592-.062-.002-1.043-.776-2.173-1.73-5.889-4.953-10.14-8.135-14.26-10.642-1.994-1.215-5.011-2.856-5.298-2.865-.165-.006-.19.168-.226 1.274-.023.699-.095 1.338-.159 1.423-.075.099-.513-.017-1.364-.379-2.795-1.197-8.63-3.06-8.903-2.85-.042.028-.125 1.336-.175 2.879-.068 2.124-.06 2.838.041 2.885Z"/><path d="M-109.445 93.598c.071.031.468.146.885.261 2.911.808 6.318 2.156 9.258 3.634.354.186.678.299.72.256.043-.027.104-.637.126-1.336.024-.742.094-1.323.157-1.379.064-.056.369.041.67.226 1.593.94 4.202 2.524 4.613 2.814.262.169.734.49 1.035.703.312.214.584.383.604.384.164.005 4.757 3.431 7.16 5.344 1.712 1.351 1.922 1.533 4.413 3.594.35.288.89.743 1.21 1.001.75.621 1.46 1.197 2.33 1.925.38.318.752.577.814.579.061.002.121-.258.132-.593.01-.334.072-.653.135-.695.053-.042.988.586 2.08 1.408 3.27 2.45 5.271 3.738 8.11 5.199 2.343 1.197 4.936 2.315 7.018 3.037.234.081.65.24.903.335.914.336 3.69 1.182 5.075 1.547.763.2 1.68.433 2.036.532.346.099.908.19 1.225.229l.594.048.065-1.061c.04-.596.108-1.119.161-1.19.043-.057.638-.023 1.312.086 4.658.747 5.774.856 12.134 1.061 6.38.219 6.853.205 11.816-.232 1.535-.14 1.98-.228 2.098-.414.099-.186.135-.694.127-2.02-.006-1.414.016-1.792.144-1.933.085-.085.81-.295 1.616-.444 2.573-.5 4.624-1.06 7.562-2.058 1.319-.453 4.663-1.948 5.783-2.597 3.139-1.822 5.235-3.459 7.425-5.792 1-1.075 3.467-4.332 4.472-5.902l.54-.842.062-1.586c.028-.874.11-2.167.175-2.894l.114-1.293.673-1.129c.379-.614.964-1.586 1.312-2.172 6.303-10.49 11.206-15.752 17.59-18.854.605-.286 1.16-.618 1.226-.747.075-.114.188-1.057.262-2.09.074-1.017.162-2.18.217-2.585.073-.668.064-.727-.162-.734-.133-.004-.84.264-1.57.59-6.03 2.676-10.971 7.194-16.048 14.679-2.103 3.108-5.522 8.534-5.79 9.181-.088.201-.162 1.218-.21 2.703l-.076 2.372-.367.571c-.594.899-2.467 3.271-3.307 4.147-5.156 5.473-13.059 9.196-23.188 10.924-1.135.182-2.128.398-2.202.454-.095.084-.155.679-.2 2.076l-.063 1.965-.731.064c-6.748.672-16.95.212-23.697-1.053-.786-.142-1.573-.27-1.747-.275l-.308-.01-.036 1.135c-.02.626-.079 1.163-.121 1.205-.042.028-1.163-.241-2.486-.604-8.683-2.377-15.093-5.482-21.659-10.472-.691-.532-1.334-.96-1.427-.963-.113-.004-.17.169-.186.678-.013.422-.063.683-.145.68-.062-.002-.553-.353-1.074-.777-7.635-6.219-12.206-9.687-16.088-12.216-2.283-1.486-4.55-2.827-4.656-2.743-.042.028-.104.682-.128 1.438-.024.743-.074 1.353-.105 1.352-.031-.001-.688-.314-1.456-.717-2.596-1.336-7.074-3.214-8.42-3.52l-.489-.103-.089 2.766c-.068 2.095-.059 2.795.042 2.842Z"/><path d="M-109.091 82.614c.071.032.709.3 1.408.585 3.021 1.204 8.257 3.805 9.217 4.594.26.212.389.056.417-.511.035-1.077.201-2.092.345-2.087.082.003.455.219.836.478.382.275.714.49.734.49.031.001.363.216.745.476.381.274.703.489.724.49.03 0 .463.29.974.657.513.352 1.316.916 1.778 1.237.914.627 9.093 6.863 10.635 8.092 2.102 1.7 6.092 4.712 6.225 4.717.102.003.15-.229.168-.752.013-.408.066-.785.109-.827.041-.028.294.097.565.295 1.786 1.31 6.094 3.692 8.99 4.951.85.377 1.691.739 1.863.817.516.25 3.185 1.239 4.099 1.545.325.098.813.259 1.067.355.264.081.742.228 1.047.325 1.424.41 1.74.493 2.584.738.51.133 1.66.418 2.568.622.918.204 1.988.457 2.385.557.387.086.96.177 1.257.187l.544.017.04-1.237.04-1.252 1.156.125c7.685.844 15.166.983 20.555.399 3.566-.395 5.464-.669 5.705-.836.179-.126.207-.373.266-2.192.036-1.12.108-2.079.161-2.136.063-.042.903-.291 1.887-.551 4.981-1.311 9.009-2.988 12.635-5.26 3.437-2.163 5.83-4.417 8.587-8.058 1.523-2.034 4.53-6.453 4.646-6.858.046-.144.14-1.146.216-2.236.24-3.634.015-3.044 2.29-6.103 2.78-3.742 4.443-5.641 6.854-7.792 3.425-3.066 6.514-4.919 11.1-6.709l.936-.349.2-2.106c.222-2.396.264-3.4.151-3.404-.205-.006-3.363 1.145-4.447 1.62-4.915 2.144-8.806 4.99-12.913 9.433-1.755 1.895-5.851 7.3-6.09 8.006-.113.346-.19 1.115-.227 2.294-.086 2.664-.143 2.851-1.487 4.73C.464 85.774-1.851 88.16-5.7 90.66c-4.174 2.72-9.813 4.987-15.47 6.247-1.22.267-2.328.551-2.464.62-.24.123-.253.196-.314 2.117-.063 1.935-.075 2.008-.315 2.131-.24.138-2.436.388-5.164.606-5.867.438-13.684.172-19.334-.694-.879-.131-1.646-.214-1.689-.171-.042.027-.1.565-.12 1.19-.028.859-.079 1.163-.194 1.218-.208.11-4.418-.871-6.94-1.622-6.286-1.863-12.371-4.55-17.09-7.557-.796-.491-1.47-.907-1.511-.908-.042-.001-.084.376-.1.856-.027.845-.028.86-.301.748-.162-.063-3.392-2.469-7.19-5.344-3.8-2.876-7.64-5.753-8.524-6.393-1.726-1.235-5.213-3.606-5.607-3.793-.344-.171-.435.102-.477 1.398-.026.815-.076 1.104-.179 1.101-.082-.003-1.142-.576-2.361-1.285-1.22-.695-2.815-1.576-3.542-1.935-1.334-.67-4.259-2.002-4.392-2.006-.041-.001-.111 1.206-.158 2.675-.065 2.009-.056 2.694.045 2.755Z"/><path d="M-108.591 72.109c.161.092 1.05.543 1.99 1.01.93.453 1.93.98 2.223 1.135 2.541 1.452 3.609 2.083 4.072 2.39 1.357.903 2.344 1.502 2.498 1.507.154.005.279-.69.314-1.781.03-.946.01-.932 1.034-.23.291.2.763.52 1.055.72 1.497 1.024 4.106 2.914 8.267 6.034 1.886 1.401 4.042 3 4.794 3.563 2.297 1.677 3.753 2.714 3.794 2.715.02.001.442.291.934.642.502.352.935.642.966.643.03.001.302.17.603.384 1.226.84 1.388.919 1.487.718.044-.1.098-.507.111-.914.013-.393.065-.741.107-.77.053-.041.852.32 1.782.801 2.728 1.385 3.77 1.855 6.538 2.964 2.007.807 4.282 1.594 6.987 2.424.508.148 2.565.695 3.95 1.045 1.579.4 3.915.869 6.928 1.374.399.056.646.035.69-.065.045-.101.136-.695.187-1.335l.11-1.162.645.036c.348.026 3.015.126 5.917.234 7.118.258 11.593.008 17.613-1.036 2.675-.453 3.109-.556 3.238-.727.064-.085.19-1.115.27-2.307.078-1.192.193-2.208.236-2.25.053-.057.946-.378 1.994-.709 3.91-1.229 8.437-3.4 11.482-5.487C-1.816 80.962-.047 78.95 6.93 69.253c1.215-1.694 2.228-3.177 2.231-3.293.016-.48.341-3.893.402-4.183.112-.608 3.338-3.84 5.666-5.689 3.626-2.899 8.43-5.381 13.064-6.762 2.156-.644 1.978-.533 2.07-1.171.158-1.073.441-4.444.396-4.635-.054-.235-.22-.21-2.53.443-7.057 1.988-12.743 5.083-17.547 9.532-1.122 1.042-2.801 2.794-3.071 3.208-.14.2-.244.88-.399 2.493l-.204 2.208-2.715 3.642C-1.846 73.254-3.98 75.414-8.816 78.289c-3.538 2.115-7.587 3.791-12.457 5.15-.985.289-1.824.539-1.866.566-.032.029-.123.958-.21 2.062-.077 1.105-.16 2.093-.195 2.208-.08.26-.214.285-2.762.654-2.105.312-4.423.558-7.296.786-2.346.172-11.407-.017-14.007-.29-1.79-.204-2.263-.204-2.34-.061-.043.1-.102.637-.12 1.19-.017.553-.085 1.076-.15 1.147-.128.17-.772.077-4.077-.612-6.68-1.395-13.8-3.868-19.711-6.84-.89-.451-1.69-.783-1.773-.742-.105.055-.174.315-.188.737-.031.96-.14 1.132-.582.855-3.615-2.214-6.78-4.399-13.11-9.06-1.043-.762-2.277-1.661-2.738-1.997-.462-.335-1.365-.976-2.008-1.433-2.238-1.617-3.182-2.259-3.346-2.264-.216-.007-.313.456-.35 1.635-.018.524-.052.96-.073.959-.02 0-1.037-.645-2.254-1.442-3.017-1.947-7.807-4.694-8.207-4.707-.041-.002-.119 1.161-.165 2.573l-.082 2.576.292.17Z"/><path d="M-108.433 61.708c.068.105.178.196.24.198.072.002.365.142.647.312 3.395 2.032 4.533 2.724 5.096 3.106.361.26.684.46.704.46.031.001.303.17.604.384.311.213.784.535 1.065.718.271.199.724.49.995.688.281.184.754.505 1.065.719.864.596.864.596.913-.918.051-1.6-.275-1.67 3.027.695.562.412 1.475 1.067 2.027 1.464.552.396 1.445 1.051 1.997 1.448.542.396 1.315.931 1.697 1.206l1.456 1.022a113.95 113.95 0 0 0 2.863 1.972 67.5 67.5 0 0 1 1.397.948c.311.214.583.383.603.383.031.001.353.201.715.46 2.17 1.483 7.157 4.164 7.328 3.936.064-.085.141-.563.189-1.072.037-.508.1-.914.142-.913.041.002.304.112.598.253 3.894 1.844 10.568 4.083 15.898 5.333 4.24.981 10.136 1.885 10.372 1.586.065-.1.167-.723.22-1.406l.09-1.22 2.667.085c7.92.255 16.542-.604 23.415-2.32 1.667-.413 1.504-.142 1.724-2.83.113-1.278.24-2.381.294-2.452.054-.071.888-.453 1.845-.83 4.026-1.633 6.722-3.076 9.54-5.127 2.66-1.94 4.648-4.046 8.93-9.502 4.123-5.243 5.083-6.378 7.08-8.412.668-.692 1.296-1.371 1.404-1.528.129-.185.217-.692.298-1.607.163-1.874.255-2.192.813-2.596 3.775-2.778 7.772-4.776 12.826-6.42 2.137-.69 4.261-1.276 5.698-1.565.3-.063.745-.18.984-.275l.426-.146.186-1.64c.101-.9.24-2.018.306-2.482.066-.45.1-.885.071-.944-.076-.192-.498-.147-2.4.258-8.221 1.79-14.147 4.046-18.848 7.187-1.27.863-1.682 1.2-1.805 1.53-.09.23-.208 1.028-.262 1.755-.055.74-.16 1.451-.235 1.565-.066.13-.726.837-1.458 1.57-1.772 1.794-2.849 3.026-5.884 6.731-4.48 5.494-6.14 7.305-8.344 9.128-2.1 1.725-5.177 3.563-8.313 4.963-1.761.803-4.911 1.998-6.103 2.324-.342.106-.632.184-.643.198l-.209 2.353c-.143 1.598-.25 2.367-.356 2.45-.158.127-4.292.955-6.242 1.257-5.5.828-12.904 1.173-17.535.82-1.792-.13-2.439-.137-2.557.005-.116.113-.17.519-.198 1.378l-.038 1.193-.523-.017c-.77-.025-4.804-.708-7.313-1.226-5.345-1.133-11.545-3.095-16.153-5.093-.932-.41-1.733-.712-1.786-.67-.052.042-.108.492-.124.987-.02.611-.082.944-.175.985-.21.11-5.177-2.512-7.694-4.064-2.608-1.6-5.794-3.756-10.482-7.097-1.908-1.343-3.545-2.474-3.647-2.506-.153-.035-.19.14-.276 1.243-.058.844-.134 1.293-.216 1.276a64.14 64.14 0 0 1-2-1.347c-3.204-2.215-8.265-5.466-8.511-5.474-.154-.005-.272 4.959-.125 5.167Z"/><path d="M-107.676 51.814c.301.2.754.505 1.005.674.241.168.473.306.493.307.031 0 .303.17.614.384.533.367 1.085.749 2.06 1.406 1.799 1.21 2.332 1.576 3.345 2.308.442.305 1.165.824 1.607 1.13.452.32 1.004.716 1.234.884.231.168.473.307.545.309.082.003.157-.418.214-1.217.052-.668.122-1.263.155-1.306.032-.043.325.098.656.327.322.229.865.596 1.196.825 1.215.855 1.727 1.207 2.32 1.604.332.23.954.672 1.376.962.432.306.794.55.814.551.031.001.353.215.735.475.381.275.713.49.744.49.02.001.342.2.704.46a89.41 89.41 0 0 0 2.094 1.306c.786.462 1.52.908 1.642.97 1.742 1.09 7.067 3.768 9.76 4.932.234.095.558.237.72.315.344.171.355.142.478-1.121.046-.494.1-.915.133-.957.032-.043.48.088.997.28a37.86 37.86 0 0 0 1.634.606c.386.143.883.32 1.116.414.498.176 2.957.97 3.74 1.184 3.115.887 4.265 1.186 6.886 1.751 4.803 1.058 12.38 2.015 12.742 1.634.117-.128.17-.505.196-1.305.024-.757.09-1.177.197-1.32.118-.17.787-.222 3.118-.22 4.447-.017 8.504-.367 13.16-1.15 4.068-.685 10.943-2.46 11.39-2.94.075-.086.148-.462.16-.84.041-1.267.383-4.228.512-4.398.064-.086.712-.429 1.431-.77 4.056-1.895 7.357-4.294 10.43-7.575 1.34-1.428 2.044-2.236 5.386-6.237 4.293-5.121 7.153-7.84 10.784-10.259.64-.416 1.186-.806 1.229-.863.043-.057.154-.651.237-1.319.083-.667.216-1.29.291-1.389.3-.383 5.82-2.45 7.994-3.006 1.635-.413 4.46-1.11 4.999-1.238.362-.075.879-.19 1.138-.254.269-.065.827-.178 1.23-.252 1.033-.2 2.923-.547 3.925-.733.795-.135.785-.136.956-1.31.092-.609.222-1.464.288-1.928.076-.45.14-1.161.154-1.569.023-.742.024-.756-.276-.679-.166.039-.734.137-1.27.207-1.64.224-6.927 1.147-8.943 1.563-4.31.895-8.134 1.967-10.714 3.006-1.404.552-1.595.72-1.617 1.42-.01.29-.078.842-.162 1.203l-.135.68-1.498.943c-2.59 1.65-5.166 3.855-7.666 6.542-.574.623-2.333 2.635-3.912 4.463-1.579 1.843-3.39 3.898-4.04 4.59-3.328 3.565-7.086 6.124-12.242 8.377-1.01.434-1.772.846-1.891 1.032-.152.228-.204.59-.233 1.478-.043 1.018-.272 3.356-.357 3.456-.065.085-3.649 1.048-5.303 1.417-5.628 1.276-10.688 1.842-17.324 1.934l-3.955.048-.11 1.205c-.172 1.816-.045 1.689-1.6 1.522-8.156-.86-16.33-2.797-23.063-5.432-.7-.27-1.33-.465-1.414-.425-.104.04-.164.33-.18.825-.03.946-.112 1.235-.358 1.227-.297-.01-4.567-1.983-7.255-3.351-4.122-2.1-7.144-3.9-11.445-6.836-2.723-1.85-3.086-2.066-3.193-1.924-.053.056-.124.666-.166 1.335-.058.828-.12 1.19-.201 1.144-.07-.046-1.808-1.267-3.866-2.717-4.86-3.434-6.779-4.734-6.884-4.665-.043.043-.121 1.19-.164 2.544l-.08 2.489.553.367Z"/><path d="M-107.664 41.414c.131.077.613.413 1.075.734.833.595 1.515 1.083 2.831 2 .372.26 1.075.748 1.556 1.099l1.817 1.296c.974.702 1.928 1.373 2.912 2.06.322.215.743.505.934.643.462.32.55.148.594-1.205.017-.553.095-1.06.159-1.117.105-.084.529.148 1.764 1.004.312.214.584.383.604.384.03 0 .303.17.604.383 2.842 1.986 9.9 5.694 15.035 7.913 3.464 1.496 5.147 2.147 5.233 2.034.043-.057.132-.579.202-1.16.097-.798.167-1.057.29-1.039.082.017.63.18 1.22.389 2.834.965 6.691 2.021 10.21 2.776 3.12.683 5.45 1.034 9.492 1.456 3.838.414 6.125.503 6.277.245.065-.1.167-.737.23-1.405.062-.669.154-1.292.22-1.392.065-.114.673-.197 1.588-.226 4.822-.18 9.534-.8 14.21-1.873 4.604-1.062 11.808-3.496 12.094-4.084.066-.144.294-2.117.538-4.586.048-.552.127-1.074.17-1.16.044-.086.791-.645 1.652-1.215 2.949-1.973 4.624-3.61 9.435-9.195 5.472-6.365 8.306-8.91 12.53-11.28 1.235-.704 3.465-1.71 4.94-2.23.477-.175.925-.379 1-.45.064-.07.17-.504.225-.953.056-.465.163-.898.227-.984.074-.07.966-.333 1.98-.548 3.33-.738 4.64-.973 9.108-1.616 4.168-.608 5.333-.76 6.982-.94 1.803-.19 1.761-.162 1.94-1.235.164-.97.5-3.45.537-3.96.035-.45-.19-.457-3.62-.13-10.672 1.04-18.285 2.121-18.744 2.66-.117.142-.199.445-.21.78-.024.757-.273 1.171-.77 1.286-1.707.383-5.197 1.946-7.314 3.29-3.47 2.176-6.105 4.641-10.714 10-5.61 6.52-7.62 8.335-11.94 10.79l-1.098.634-.099.827a81.602 81.602 0 0 0-.28 2.643c-.093.987-.215 1.916-.271 2.06-.078.187-.714.487-2.117.995-6.993 2.543-14.75 3.969-22.683 4.136-2.199.046-2.115-.01-2.165 1.562-.014.437-.062.96-.11 1.162l-.083.362-2.592-.185c-6.905-.485-14.331-2.02-21.636-4.47-2.082-.707-1.978-.733-2.018.49-.026.8-.074 1.017-.22 1.085-.386.191-7.891-3.022-12.479-5.325-2.758-1.4-6.188-3.332-8.351-4.698-1.077-.69-1.441-.862-1.517-.719-.045.115-.103.638-.131 1.19-.018.554-.066 1.077-.12 1.177-.1.215-1.115-.459-6.897-4.592-2.238-1.602-4.126-2.916-4.188-2.918-.082-.002-.149.797-.207 2.601-.082 2.562-.083 2.605.159 2.744Z"/><path d="M-106.892 31.168a189.66 189.66 0 0 0 3.653 2.638c.321.229 1.094.778 1.726 1.22.622.458 1.155.825 1.175.825.021 0 .433.276.915.612a47.46 47.46 0 0 0 1.83 1.24 54.39 54.39 0 0 1 1.408.904c.743.505.808.42.895-1.02.078-1.454.12-1.482.955-.945.26.183.684.43.936.569.243.124 1 .542 1.665.913 2.15 1.176 6 3.077 8.016 3.943.233.095.547.236.689.3.151.077.465.218.698.313.233.11.922.409 1.54.676.931.394 6.083 2.41 7.767 3.032.264.096.68.24.934.336.244.096.49.133.563.077.063-.057.13-.52.146-1.045.035-1.077.148-1.393.43-1.253.415.203 5.238 1.581 7.042 2.018 3.923.942 6.935 1.462 11.366 1.954 3.509.404 8.77.588 8.964.331.075-.099.148-.446.17-.795.02-.335.092-.988.18-1.451l.15-.84 1.41-.13c4.336-.4 6.793-.787 10.186-1.566 5.648-1.305 11.753-3.687 15.796-6.164.848-.527.848-.527.985-1.265.075-.42.146-1.015.156-1.335.01-.32.072-.945.148-1.394a97.21 97.21 0 0 0 .284-2.133c.095-.71.19-1.436.227-1.624.037-.188.636-.956 1.477-1.876.787-.848 2.364-2.633 3.496-3.98 2.486-2.907 5.017-5.623 6.35-6.804 4.841-4.317 9.314-6.43 16.327-7.691.97-.173 1.798-.35 1.82-.379.031-.028.082-.332.124-.68.052-.334.146-.695.23-.78.139-.155 1.572-.328 4.702-.606 2.904-.242 3.974-.324 5.57-.433.884-.059 2.202-.162 2.912-.212 1.215-.092 3.191-.232 5.383-.38 1.09-.067 1.197-.18 1.351-1.472.045-.421.152-1.204.232-1.755.089-.537.196-1.32.24-1.726l.085-.74-1.019.069C34.838.689 33.48.762 32.38.8c-13.675.58-17.976.835-18.126 1.034-.043.057-.157.417-.262.807l-.177.709-1.465.215c-5.107.739-9.145 2.11-12.604 4.3-3.448 2.162-5.736 4.346-10.656 10.132-2.87 3.375-4.744 5.427-5.96 6.524-.91.83-.933.902-1.202 3.195-.098.828-.235 1.887-.301 2.35a12.67 12.67 0 0 0-.147 1.38c-.024.728-.215.94-1.407 1.586-6.623 3.502-15.9 5.884-23.906 6.108-.915.029-1.708.09-1.771.147-.063.041-.198.736-.306 1.534l-.19 1.436-2.964-.124c-5.681-.227-12.215-1.413-19.336-3.507-1.414-.41-2.898-.865-3.305-.994-.417-.13-.784-.215-.836-.173-.042.028-.104.36-.115.71-.022.35-.079.843-.118 1.089-.111.594.021.627-3.906-.84-5.956-2.201-11.394-4.562-16.132-7.016-3-1.553-2.855-1.563-2.914.27-.027.83-.077 1.106-.18 1.102-.369-.012-5.035-3.06-9.061-5.929-1.255-.885-2.32-1.619-2.35-1.62-.031 0-.102 1.235-.15 2.734l-.088 2.736.663.473Z"/></g><defs><clipPath id="a"><path fill="#fff" d="M0 0h55v325H0z"/></clipPath></defs></svg>