<svg xmlns="http://www.w3.org/2000/svg" fill="none" viewBox="0 0 135 81"><path fill="#262626" d="M2.772 76.664l.16 3.704-2.396.104-.44-10.17 2.397-.104.16 3.72 9.188-.397.119 2.746-9.188.397zM1.77 56.844l11.475 1.666-.391 2.705-4.7-.683-.683 4.714 4.7.682-.39 2.705L.306 66.967l.391-2.705 4.384.637.682-4.714-4.384-.636.391-2.705zM2.826 52.66l2.963-8.377 2.262.798-2.052 5.802 1.916.676 1.94-5.485 2.276.804-1.94 5.485 2.202.777 2.052-5.8 2.277.803-2.963 8.378-10.933-3.86zM21.347 33.64l-5.79-5.767 1.555-2.248 8.047 8.745-1.673 2.419-7.723-3.198 5.731 6.077-1.664 2.405-11.048-4.406 1.573-2.274 7.492 3.251-5.7-5.84 1.61-2.328 7.59 3.165zM25.048 25.827c.421.46.837.795 1.28 1.018.43.234.866.378 1.283.407.417.052.827.003 1.218-.139.379-.13.728-.341 1.046-.632.319-.292.56-.62.723-.987.175-.377.26-.78.257-1.21-.005-.407-.11-.853-.293-1.314-.196-.45-.493-.892-.914-1.352-.421-.46-.848-.806-1.279-1.04a3.928 3.928 0 00-1.284-.407c-.417-.03-.827.02-1.218.161-.38.13-.728.341-1.047.633-.318.291-.56.62-.722.986-.175.377-.261.78-.256 1.188.003.43.097.864.293 1.314.183.46.491.915.913 1.374zm6.735-6.163c.615.672 1.06 1.37 1.345 2.107.272.747.399 1.477.366 2.222a5.612 5.612 0 01-.583 2.18 6.781 6.781 0 01-1.513 1.97c-.66.604-1.359 1.048-2.096 1.333a5.408 5.408 0 01-2.213.378 5.443 5.443 0 01-2.182-.56c-.721-.337-1.378-.841-1.994-1.513-.616-.672-1.06-1.37-1.333-2.117a5.434 5.434 0 01-.367-2.222c.033-.745.223-1.46.571-2.17.348-.708.853-1.364 1.513-1.969a6.786 6.786 0 012.096-1.333 5.624 5.624 0 012.225-.389c.746.033 1.462.223 2.183.56.709.348 1.366.852 1.982 1.524zM38.63 17.067l-1.598.942 2.218 3.757-2.355 1.389-5.892-9.98 3.843-2.265a13.99 13.99 0 011.864-.932c.622-.236 1.193-.369 1.73-.37a3.044 3.044 0 011.512.389c.47.261.88.705 1.247 1.325.43.73.6 1.427.489 2.087a3.99 3.99 0 01-.82 1.819l4.912 2.69-2.77 1.631-4.38-2.482zm-4.101-3.298l1.332 2.258 1.557-.918c.276-.162.53-.33.747-.496.232-.174.406-.35.536-.539.13-.188.203-.38.21-.588a1.23 1.23 0 00-.19-.667 1.175 1.175 0 00-.484-.475 1.081 1.081 0 00-.617-.1c-.227.023-.467.09-.739.194-.25.11-.52.251-.796.414l-1.556.917zM48.685 14.292l5.215-1.944.844 2.26-7.777 2.9-4.052-10.856 2.562-.955 3.208 8.595zM62.305 7.066c-.138-.755-.357-1.332-.645-1.75-.288-.42-.635-.713-1.024-.886a3.034 3.034 0 00-1.282-.253c-.47.005-.964.063-1.452.152l-1.117.204 1.258 6.87 1.117-.204c.487-.09.97-.21 1.411-.372a2.835 2.835 0 001.107-.706c.303-.299.523-.697.644-1.19.12-.493.121-1.11-.017-1.865zm-4.864-4.992c.928-.17 1.826-.237 2.663-.195.853.04 1.618.225 2.297.555.678.331 1.256.827 1.735 1.487.481.675.818 1.54 1.017 2.624.198 1.085.192 2.029-.022 2.815-.21.802-.576 1.47-1.093 2.02-.517.549-1.168.993-1.951 1.33-.768.336-1.632.591-2.56.761l-3.76.687L53.68 2.761l3.76-.687zM73.826.726L71.09.7l-.11 11.586 2.734.026.11-11.586zM83.427 4.967a1.746 1.746 0 00-.67-1.11c-.347-.29-.823-.468-1.41-.549-.522-.072-.979-.039-1.354.103-.359.144-.57.39-.62.753-.04.285.053.54.262.779.21.238.522.427.907.56l1.525.534c.446.159.922.337 1.393.548.472.21.905.463 1.284.758.363.292.651.654.866 1.087.214.433.273.941.19 1.543-.084.601-.301 1.12-.65 1.54a3.722 3.722 0 01-1.243 1.038 5.558 5.558 0 01-1.637.516 6.222 6.222 0 01-1.81.008c-1.473-.204-2.63-.718-3.451-1.542-.825-.807-1.26-1.852-1.293-3.13l2.693.371c.06.622.314 1.109.734 1.457.42.348.97.57 1.684.668.237.033.461.048.706.033.244-.014.459-.05.662-.118.203-.069.38-.173.512-.316.133-.143.225-.34.258-.578.05-.364-.098-.69-.466-.951-.383-.263-.868-.491-1.482-.722l-1.354-.477a7.818 7.818 0 01-1.292-.582 4.491 4.491 0 01-1.05-.806 2.892 2.892 0 01-.643-1.073c-.155-.393-.189-.85-.116-1.372.081-.585.294-1.072.639-1.46a3.64 3.64 0 011.258-.923 5.377 5.377 0 011.625-.421 7.06 7.06 0 011.723.028c.555.077 1.1.217 1.622.418.505.199.968.472 1.356.816.388.344.718.761.957 1.246.24.485.355 1.05.362 1.695l-2.677-.37zM94.148 10.32c-.239.576-.367 1.094-.382 1.59-.03.488.024.943.174 1.334.129.4.347.749.64 1.043.28.289.618.515 1.017.68a2.98 2.98 0 001.2.238c.416-.001.818-.094 1.206-.28.368-.176.728-.46 1.068-.82.325-.367.6-.824.84-1.4.238-.575.373-1.108.402-1.597a3.938 3.938 0 00-.173-1.335c-.15-.39-.368-.74-.662-1.035a2.977 2.977 0 00-1.016-.68 2.978 2.978 0 00-1.2-.237c-.416 0-.818.093-1.186.27a3.342 3.342 0 00-1.067.82c-.34.362-.622.833-.86 1.409zm8.437 3.492c-.349.842-.794 1.54-1.342 2.11-.562.562-1.17.985-1.86 1.27-.704.28-1.433.41-2.223.395a6.792 6.792 0 01-2.426-.538c-.828-.342-1.526-.787-2.096-1.334a5.398 5.398 0 01-1.278-1.844 5.43 5.43 0 01-.415-2.213c0-.795.18-1.603.529-2.445.349-.842.794-1.54 1.356-2.103a5.44 5.44 0 011.86-1.27 5.406 5.406 0 012.209-.401c.79.015 1.598.195 2.426.537a6.787 6.787 0 012.095 1.334c.57.548.993 1.155 1.293 1.85.286.69.417 1.418.416 2.214-.016.789-.195 1.597-.544 2.438zM110.233 11.737l-3.895 5.721a5.71 5.71 0 00-.55.98c-.136.313-.197.6-.177.884.006.275.092.546.281.81.188.263.469.531.866.801s.75.433 1.082.484a1.8 1.8 0 00.875-.062c.276-.122.531-.297.768-.56.229-.251.471-.55.714-.907l3.805-5.59 2.261 1.537-3.679 5.405c-.504.74-1.015 1.32-1.529 1.763a4.045 4.045 0 01-1.641.876 3.681 3.681 0 01-1.831-.066c-.633-.179-1.33-.518-2.084-1.03-.714-.485-1.282-.987-1.699-1.483a3.64 3.64 0 01-.814-1.617c-.119-.564-.073-1.17.146-1.833.197-.659.567-1.374 1.107-2.167l3.733-5.483 2.261 1.537zM117.46 26.883l-1.296-1.326-3.124 3.048-1.91-1.956 8.296-8.094 3.117 3.19c.525.537.972 1.062 1.35 1.587.378.547.643 1.07.773 1.591a3.042 3.042 0 01-.019 1.56c-.142.518-.476 1.022-.991 1.525-.606.591-1.244.923-1.912.971a3.994 3.994 0 01-1.963-.362l-1.444 5.407-2.246-2.298 1.369-4.843zm2.229-4.765l-1.877 1.83 1.263 1.293c.223.229.447.435.66.607.224.183.437.31.651.392.214.081.417.106.621.064.204-.043.409-.154.604-.344.194-.19.298-.38.346-.583a1.073 1.073 0 00-.049-.622 2.91 2.91 0 00-.365-.671 7.678 7.678 0 00-.592-.674l-1.262-1.292zM129.451 35.626a1.75 1.75 0 00.375-1.24c-.018-.452-.204-.925-.536-1.414-.297-.436-.628-.752-.985-.935-.347-.17-.671-.162-.975.044-.238.162-.365.402-.402.717-.037.316.033.674.191 1.05l.626 1.488c.181.437.367.91.527 1.4.16.49.262.982.297 1.46.026.465-.049.922-.227 1.372-.178.449-.516.833-1.019 1.175-.503.341-1.033.527-1.579.55a3.72 3.72 0 01-1.603-.225 5.571 5.571 0 01-1.481-.869 6.228 6.228 0 01-1.218-1.336c-.836-1.23-1.228-2.432-1.168-3.594.048-1.153.531-2.176 1.459-3.058l1.528 2.247c-.422.46-.612.976-.589 1.521.022.545.227 1.102.631 1.697.135.198.274.374.449.545.174.172.344.308.531.412.188.105.383.165.579.168.195.003.403-.061.601-.196.304-.207.448-.536.395-.983-.062-.46-.217-.973-.458-1.583l-.553-1.325a7.82 7.82 0 01-.433-1.348 4.465 4.465 0 01-.105-1.32c.036-.43.156-.821.366-1.195.187-.379.504-.71.94-1.006.49-.332.994-.501 1.513-.506a3.642 3.642 0 011.529.315c.499.221.958.527 1.401.922.443.395.819.835 1.134 1.298.314.463.576.961.776 1.482.191.508.298 1.035.302 1.553a4.078 4.078 0 01-.283 1.546c-.2.502-.542.966-1.017 1.405l-1.519-2.234z"/></svg>
