<svg viewBox="0 0 796 559" xmlns="http://www.w3.org/2000/svg" fill-rule="evenodd" clip-rule="evenodd" stroke-linejoin="round" stroke-miterlimit="2"><path d="M6.385 42.56v64.037H0V42.56h6.385zm53.989 44.478l-35.681-.092c.237 3.962 1.863 7.383 4.868 10.272 3.035 2.89 6.594 4.332 10.672 4.332 2.743 0 5.288-.611 7.636-1.829 2.353-1.222 4.02-2.44 5.006-3.662l1.558-1.788 4.112 4.107a37.74 37.74 0 01-.807 1.027c-.324.416-1.068 1.147-2.232 2.191a24.597 24.597 0 01-3.704 2.723c-1.31.773-3.022 1.505-5.138 2.186-2.081.656-4.25.988-6.431.986-5.982 0-11.133-2.22-15.448-6.652-4.319-4.469-6.477-9.873-6.477-16.213 0-6.343 2.128-11.731 6.385-16.167 4.286-4.464 9.321-6.697 15.095-6.697 5.986 0 10.987 2.083 15.007 6.253 4.016 4.136 6.028 9.378 6.028 15.718l-.449 3.305zM49.611 71.631c-2.706-2.59-5.986-3.887-9.823-3.887-3.841 0-7.192 1.356-10.048 4.066-2.856 2.706-4.539 5.924-5.047 9.645h29.74c-.473-3.958-2.078-7.234-4.822-9.824zm32.243 9.824l16.924-2.769c0-3.243-1.027-5.878-3.077-7.903-2.057-2.024-4.693-3.035-7.907-3.035-2.323 0-4.51.533-6.568 1.605-2.02 1.039-3.492 2.112-4.419 3.214l-1.384 1.563-4.107-4.108c.178-.237.415-.536.715-.893.328-.387 1.01-1.04 2.053-1.962a26.345 26.345 0 013.351-2.549c1.16-.744 2.677-1.397 4.552-1.962a19.355 19.355 0 015.807-.894c5.001 0 9.138 1.622 12.414 4.864 3.305 3.247 4.959 7.267 4.959 12.06v27.911h-6.389v-5.941c-.183.263-.377.516-.582.761a18.556 18.556 0 01-1.692 1.65 19.673 19.673 0 01-2.815 2.1c-1.268.7-2.618 1.24-4.02 1.609-1.655.479-3.369.72-5.092.715-4.373 0-8.065-1.297-11.075-3.887-2.976-2.59-4.465-5.55-4.465-8.884 0-3.662 1.102-6.61 3.305-8.842 2.204-2.266 5.376-3.742 9.512-4.423zm2.723 20.095c4.14 0 7.533-1.355 10.185-4.061 2.677-2.711 4.016-6.224 4.016-10.543v-2.769l-15.091 2.769c-5.479 1.044-8.231 3.633-8.264 7.774 0 1.962.806 3.6 2.411 4.91 1.638 1.28 3.887 1.92 6.743 1.92zm53.456 5.047h-6.385l-17.863-43.899h6.876l14.2 35.19 14.155-35.19h6.881l-17.864 43.899zm65.421-19.559l-35.681-.092c.237 3.962 1.863 7.383 4.868 10.272 3.035 2.89 6.594 4.332 10.672 4.332 2.743 0 5.288-.611 7.636-1.829 2.353-1.222 4.02-2.44 5.001-3.662l1.564-1.788 4.111 4.107a37.74 37.74 0 01-.807 1.027c-.324.416-1.072 1.147-2.232 2.191a24.547 24.547 0 01-3.704 2.723c-1.314.773-3.022 1.505-5.138 2.186-2.081.656-4.25.988-6.431.986-5.986 0-11.133-2.22-15.448-6.652-4.319-4.469-6.477-9.873-6.477-16.213 0-6.343 2.129-11.731 6.385-16.167 4.286-4.464 9.321-6.697 15.095-6.697 5.986 0 10.987 2.083 15.007 6.253 4.016 4.136 6.028 9.378 6.028 15.718l-.449 3.305zm-10.763-15.407c-2.706-2.59-5.986-3.887-9.823-3.887-3.841 0-7.192 1.356-10.048 4.066-2.86 2.706-4.539 5.924-5.047 9.645h29.741c-.474-3.958-2.079-7.234-4.823-9.824zm44.166-13.485V48.052h5.94v14.646h9.603v5.944h-9.603V94.72c0 4.581 1.979 6.859 5.941 6.83.981 0 1.949-.12 2.901-.357.981-.237 1.726-.445 2.233-.624l.802-.357v5.94c-1.812.923-3.883 1.368-6.207 1.339-3.783 0-6.742-1.102-8.883-3.305-2.116-2.233-3.172-5.388-3.172-9.466V68.638h-8.26v-5.94h5.042c2.445 0 3.663-1.518 3.663-4.552zm35.68-15.59v26.531c.121-.179.3-.432.541-.761a30.36 30.36 0 011.692-1.787 16.835 16.835 0 012.86-2.233c1.01-.652 2.336-1.234 3.974-1.741a16.393 16.393 0 015.134-.803c5.3 0 9.586 1.713 12.862 5.134 3.305 3.426 4.955 7.965 4.955 13.623v26.078h-6.385V80.519c0-3.841-1.114-6.926-3.346-9.245-2.237-2.353-5.093-3.53-8.577-3.53-3.899 0-7.158 1.372-9.777 4.112-2.619 2.735-3.933 6.235-3.933 10.492v24.249h-6.385V42.56h6.385v-.004zm46.668 64.041V62.698h6.386v43.899h-6.386zm.225-55.598a4.088 4.088 0 01-1.164-2.947c0-1.164.386-2.128 1.164-2.902a4.007 4.007 0 012.947-1.205 3.869 3.869 0 012.902 1.205c.802.774 1.205 1.742 1.205 2.902 0 1.164-.403 2.145-1.205 2.947a3.934 3.934 0 01-2.902 1.164 4.089 4.089 0 01-2.951-1.164h.004zm47.378 16.745l-4.597 4.557a8.682 8.682 0 00-1.073-1.248c-.449-.507-1.505-1.18-3.172-2.012a11.484 11.484 0 00-5.358-1.297c-2.44 0-4.419.641-5.941 1.921-1.517 1.28-2.274 2.769-2.274 4.465 0 1.758.815 3.172 2.453 4.24 1.638 1.077 3.617 1.937 5.94 2.594a89.62 89.62 0 016.968 2.187 13.71 13.71 0 015.936 4.02c1.638 1.845 2.457 4.211 2.457 7.1 0 3.783-1.442 6.938-4.332 9.466-2.885 2.502-6.772 3.754-11.652 3.754-2.087 0-4.049-.271-5.895-.807a18.326 18.326 0 01-4.51-1.916 28.408 28.408 0 01-3.127-2.233 16.21 16.21 0 01-1.92-1.966l-.582-.848 4.602-4.556c.116.179.283.415.49.715.208.266.666.773 1.385 1.517a20.918 20.918 0 002.369 1.966c.832.566 1.904 1.073 3.214 1.518 1.309.445 2.631.669 3.974.669 3.093 0 5.462-.686 7.1-2.054 1.663-1.371 2.499-3.109 2.499-5.225 0-1.817-.832-3.288-2.499-4.419a19.195 19.195 0 00-5.944-2.727 170.872 170.872 0 01-6.918-2.232 15.222 15.222 0 01-5.986-3.883c-1.638-1.788-2.453-4.078-2.453-6.88 0-3.305 1.384-6.194 4.153-8.664 2.798-2.469 6.294-3.704 10.493-3.704 1.696 0 3.35.208 4.955.624 1.638.386 2.981.881 4.02 1.476a20.018 20.018 0 012.769 1.787c.831.595 1.43 1.069 1.787 1.426l.669.669zm41.351 5.093c-3.184 3.367-4.78 7.308-4.78 11.835 0 4.494 1.596 8.439 4.78 11.831 3.218 3.368 6.806 5.047 10.763 5.047 3.783 0 7.163-1.638 10.14-4.909 3.005-3.305 4.51-7.296 4.51-11.973 0-4.698-1.505-8.688-4.51-11.964-2.977-3.305-6.357-4.96-10.14-4.96-3.957 0-7.545 1.701-10.763 5.093zm-4.78 26.884v26.078h-6.381V62.698h6.385v6.88c.116-.179.328-.449.623-.807a27.836 27.836 0 011.921-1.92 20.47 20.47 0 013.172-2.366 17.967 17.967 0 014.332-1.875 18.103 18.103 0 015.491-.848c5.6 0 10.497 2.245 14.692 6.743 4.227 4.494 6.343 9.886 6.343 16.167 0 6.252-2.099 11.624-6.298 16.122-4.198 4.464-9.108 6.693-14.737 6.693a18.54 18.54 0 01-5.446-.799 18.682 18.682 0 01-4.377-1.92 28.396 28.396 0 01-3.126-2.233 20.167 20.167 0 01-1.967-1.966l-.623-.848h-.004zm57.609-18.266l16.928-2.769c0-3.243-1.027-5.878-3.084-7.903-2.054-2.024-4.69-3.035-7.903-3.035-2.324 0-4.511.533-6.564 1.605-2.025 1.039-3.501 2.112-4.423 3.214l-1.385 1.563-4.107-4.108c.179-.237.416-.536.715-.893.328-.387 1.014-1.04 2.054-1.962a26.55 26.55 0 013.35-2.549c1.16-.744 2.677-1.397 4.556-1.962a19.336 19.336 0 015.804-.894c5.001 0 9.141 1.622 12.413 4.864 3.305 3.247 4.959 7.267 4.959 12.06v27.911h-6.385v-5.941c-.184.262-.378.515-.582.761a18.095 18.095 0 01-1.696 1.65 19.93 19.93 0 01-2.814 2.1 17.56 17.56 0 01-4.02 1.609 18.176 18.176 0 01-5.089.715c-4.377 0-8.069-1.297-11.074-3.887-2.981-2.59-4.469-5.55-4.469-8.884 0-3.662 1.101-6.61 3.305-8.842 2.203-2.266 5.375-3.742 9.511-4.423zm2.727 20.095c4.137 0 7.529-1.355 10.181-4.061 2.677-2.711 4.02-6.224 4.02-10.543v-2.769l-15.094 2.769c-5.48 1.044-8.232 3.633-8.265 7.774 0 1.962.807 3.6 2.415 4.91 1.634 1.28 3.883 1.92 6.743 1.92zm67.163 2.324v-5.496c-.175.257-.354.51-.536.761a17.689 17.689 0 01-1.696 1.788 16.326 16.326 0 01-2.861 2.278c-1.039.623-2.423 1.205-4.153 1.737a18.61 18.61 0 01-5.358.761c-5.537 0-10.36-2.128-14.467-6.385-4.078-4.286-6.119-9.479-6.119-15.585 0-6.103 2.041-11.283 6.119-15.54 4.078-4.29 8.901-6.431 14.467-6.431 1.875 0 3.646.25 5.313.761 1.7.474 3.097 1.081 4.198 1.829 1.102.715 2.042 1.443 2.815 2.187.802.748 1.384 1.355 1.742 1.829l.536.719v-6.389h6.431v41.176c0 6.161-2.099 11.357-6.298 15.585-4.17 4.228-9.245 6.34-15.228 6.34a22.398 22.398 0 01-6.655-.981c-2.083-.624-3.796-1.385-5.134-2.279a32.473 32.473 0 01-3.571-2.635 13.526 13.526 0 01-2.191-2.32l-.715-.939 4.111-4.108c.117.179.312.433.578.757.3.358.894.956 1.788 1.788a18.399 18.399 0 002.901 2.232c1.015.657 2.324 1.235 3.933 1.746 1.605.532 3.259.798 4.955.798 4.137 0 7.683-1.53 10.63-4.598 2.977-3.068 4.465-6.859 4.465-11.39v.004zm-24.519-31.482c-2.856 3.093-4.286 6.876-4.286 11.341 0 4.464 1.43 8.247 4.286 11.344 2.889 3.093 6.194 4.644 9.915 4.644 3.962 0 7.383-1.538 10.272-4.602 2.889-3.064 4.332-6.859 4.332-11.386 0-4.523-1.443-8.323-4.332-11.391-2.889-3.064-6.31-4.598-10.272-4.598-3.721 0-7.026 1.551-9.915 4.644v.004zm84.448 14.646l-35.681-.092c.237 3.962 1.859 7.383 4.868 10.272 3.035 2.89 6.594 4.332 10.672 4.332 2.656.02 5.278-.608 7.636-1.829 2.353-1.222 4.02-2.44 5.001-3.662l1.564-1.788 4.107 4.107c-.179.241-.445.582-.803 1.027-.328.416-1.072 1.147-2.232 2.191a24.05 24.05 0 01-3.708 2.723c-1.31.773-3.022 1.505-5.134 2.186-2.081.656-4.25.988-6.431.986-5.982 0-11.133-2.22-15.452-6.652-4.315-4.469-6.473-9.873-6.473-16.213 0-6.343 2.129-11.731 6.385-16.167 4.286-4.464 9.317-6.697 15.095-6.697 5.982 0 10.983 2.083 15.003 6.253 4.02 4.136 6.028 9.378 6.028 15.718l-.445 3.305zm-10.763-15.407c-2.71-2.59-5.982-3.887-9.823-3.887s-7.192 1.356-10.048 4.066c-2.86 2.706-4.539 5.924-5.047 9.645h29.741c-.474-3.958-2.083-7.234-4.823-9.824zm75.249 14.825h8.214v6.431h-8.214v13.71h-6.881v-13.71h-32.463v-7.77l30.68-42.557h8.664v43.9-.004zm-6.881 0V50.33l-26.031 36.126h26.031zm36.172-31.345c-3.692 4.697-5.538 11.207-5.538 19.513 0 8.273 1.846 14.767 5.538 19.468 3.691 4.673 8.131 7.013 13.311 7.013 5.117 0 9.511-2.353 13.174-7.058 3.658-4.731 5.491-11.225 5.491-19.468 0-8.306-1.845-14.8-5.537-19.472-3.692-4.702-8.098-7.055-13.22-7.055-5.121 0-9.528 2.353-13.219 7.055v.004zm31.261-4.378c5.059 6.012 7.591 13.96 7.591 23.846 0 9.885-2.515 17.846-7.545 23.891-5.034 6.011-11.033 9.021-17.996 9.021-7.026 0-13.07-3.01-18.134-9.021-5.03-6.045-7.545-14.01-7.545-23.891 0-9.886 2.532-17.834 7.591-23.846 5.059-6.044 11.062-9.066 17.996-9.066 6.968 0 12.983 3.022 18.042 9.062v.004zm55.107 35.723h8.215v6.431h-8.215v13.71h-6.876v-13.71h-32.467v-7.77l30.68-42.557h8.663v43.9-.004zm-6.876 0V50.33L738.04 86.456h26.036zM6.385 150.646v64.036H0v-64.036h6.385zm53.989 44.477l-35.681-.092c.237 3.962 1.863 7.384 4.868 10.273 3.035 2.889 6.594 4.331 10.672 4.331 2.743 0 5.288-.611 7.636-1.829 2.353-1.222 4.02-2.44 5.006-3.662l1.558-1.788 4.112 4.108c-.179.241-.449.582-.807 1.026-.324.416-1.068 1.148-2.232 2.191a24.529 24.529 0 01-3.704 2.723c-1.31.773-3.022 1.505-5.138 2.187-2.081.655-4.25.988-6.431.985-5.982 0-11.133-2.22-15.448-6.651-4.319-4.469-6.477-9.874-6.477-16.213 0-6.344 2.128-11.732 6.385-16.167 4.286-4.465 9.321-6.697 15.095-6.697 5.986 0 10.987 2.082 15.007 6.252 4.016 4.136 6.028 9.378 6.028 15.718l-.449 3.305zm-10.763-15.406c-2.706-2.59-5.986-3.887-9.823-3.887-3.841 0-7.192 1.355-10.048 4.065-2.856 2.707-4.539 5.924-5.047 9.645h29.74c-.473-3.958-2.078-7.233-4.822-9.823zm32.243 9.823l16.924-2.769c0-3.242-1.027-5.878-3.077-7.902-2.057-2.025-4.693-3.035-7.907-3.035-2.323 0-4.51.532-6.568 1.605-2.02 1.039-3.492 2.116-4.419 3.217l-1.384 1.559-4.107-4.107c.178-.237.415-.536.715-.894.328-.387 1.01-1.039 2.053-1.962a26.43 26.43 0 013.351-2.548c1.16-.745 2.677-1.397 4.552-1.963a19.354 19.354 0 015.807-.893c5.001 0 9.138 1.621 12.414 4.863 3.305 3.247 4.959 7.267 4.959 12.06v27.911h-6.389v-5.94c-.183.262-.377.516-.582.76a18.7 18.7 0 01-1.692 1.651 19.742 19.742 0 01-2.815 2.099 17.524 17.524 0 01-4.02 1.609c-1.655.479-3.369.72-5.092.715-4.373 0-8.065-1.297-11.075-3.887-2.976-2.59-4.465-5.55-4.465-8.884 0-3.662 1.102-6.61 3.305-8.842 2.204-2.266 5.376-3.741 9.512-4.423zm2.723 20.095c4.14 0 7.533-1.355 10.185-4.061 2.677-2.71 4.016-6.223 4.016-10.543v-2.768l-15.091 2.768c-5.479 1.044-8.231 3.634-8.264 7.774 0 1.962.806 3.6 2.411 4.91 1.638 1.28 3.887 1.92 6.743 1.92zm53.456 5.047h-6.385l-17.863-43.899h6.876l14.2 35.19 14.155-35.19h6.881l-17.864 43.899zm65.421-19.559l-35.681-.092c.237 3.962 1.863 7.384 4.868 10.273 3.035 2.889 6.594 4.331 10.672 4.331 2.743 0 5.288-.611 7.636-1.829 2.353-1.222 4.02-2.44 5.001-3.662l1.564-1.788 4.111 4.108c-.179.241-.449.582-.807 1.026-.324.416-1.072 1.148-2.232 2.191a24.478 24.478 0 01-3.704 2.723c-1.314.773-3.022 1.505-5.138 2.187-2.081.655-4.25.988-6.431.985-5.986 0-11.133-2.22-15.448-6.651-4.319-4.469-6.477-9.874-6.477-16.213 0-6.344 2.129-11.732 6.385-16.167 4.286-4.465 9.321-6.697 15.095-6.697 5.986 0 10.987 2.082 15.007 6.252 4.016 4.136 6.028 9.378 6.028 15.718l-.449 3.305zm-10.763-15.406c-2.706-2.59-5.986-3.887-9.823-3.887-3.841 0-7.192 1.355-10.048 4.065-2.86 2.707-4.539 5.924-5.047 9.645h29.741c-.474-3.958-2.079-7.233-4.823-9.823zm44.166-13.486v-10.094h5.94v14.646h9.603v5.945h-9.603v26.077c0 4.581 1.979 6.86 5.941 6.83.981 0 1.949-.12 2.901-.357.981-.237 1.726-.445 2.233-.624l.802-.357v5.94c-1.812.923-3.883 1.368-6.207 1.339-3.783 0-6.742-1.102-8.883-3.305-2.116-2.232-3.172-5.388-3.172-9.466v-26.082h-8.26v-5.94h5.042c2.445 0 3.663-1.517 3.663-4.552zm35.68-15.589v26.53c.121-.178.3-.432.541-.76a30.068 30.068 0 011.692-1.788 16.829 16.829 0 012.86-2.232c1.01-.653 2.336-1.235 3.974-1.742a16.392 16.392 0 015.134-.802c5.3 0 9.586 1.712 12.862 5.134 3.305 3.425 4.955 7.965 4.955 13.623v26.077h-6.385v-26.077c0-3.842-1.114-6.922-3.346-9.246-2.237-2.353-5.093-3.529-8.577-3.529-3.899 0-7.158 1.372-9.777 4.111-2.619 2.736-3.933 6.236-3.933 10.493v24.248h-6.385v-64.036h6.385v-.004zm46.668 64.04v-43.899h6.386v43.899h-6.386zm.225-55.597a4.092 4.092 0 01-1.164-2.948c0-1.164.386-2.128 1.164-2.901a4.008 4.008 0 012.947-1.206 3.87 3.87 0 012.902 1.206c.802.773 1.205 1.742 1.205 2.901 0 1.164-.403 2.145-1.205 2.948a3.942 3.942 0 01-2.902 1.164 4.089 4.089 0 01-2.951-1.164h.004zm47.378 16.745l-4.597 4.556a8.674 8.674 0 00-1.073-1.247c-.449-.512-1.505-1.181-3.172-2.012a11.472 11.472 0 00-5.358-1.297c-2.44 0-4.419.64-5.941 1.92-1.517 1.281-2.274 2.769-2.274 4.465 0 1.759.815 3.172 2.453 4.24 1.638 1.077 3.617 1.938 5.94 2.594a90.052 90.052 0 016.968 2.187 13.72 13.72 0 015.936 4.02c1.638 1.846 2.457 4.215 2.457 7.1 0 3.783-1.442 6.939-4.332 9.47-2.885 2.499-6.772 3.75-11.652 3.75-2.087 0-4.049-.27-5.895-.806a18.33 18.33 0 01-4.51-1.917 28.434 28.434 0 01-3.127-2.236 16.184 16.184 0 01-1.92-1.963l-.582-.848 4.602-4.556c.116.179.283.416.49.715.208.266.666.773 1.385 1.518a21.025 21.025 0 002.369 1.966c.832.565 1.904 1.072 3.214 1.517 1.309.445 2.631.669 3.974.669 3.093 0 5.462-.685 7.1-2.053 1.663-1.372 2.499-3.11 2.499-5.226 0-1.816-.832-3.288-2.499-4.419a19.195 19.195 0 00-5.944-2.727 167.776 167.776 0 01-6.918-2.232 15.222 15.222 0 01-5.986-3.883c-1.638-1.787-2.453-4.078-2.453-6.88 0-3.301 1.384-6.194 4.153-8.663 2.798-2.47 6.294-3.704 10.493-3.704 1.696 0 3.35.207 4.955.623 1.638.387 2.981.881 4.02 1.476a20.02 20.02 0 012.769 1.788c.831.594 1.43 1.068 1.787 1.425l.669.67zm41.351 5.092c-3.184 3.367-4.78 7.308-4.78 11.836 0 4.493 1.596 8.439 4.78 11.831 3.218 3.367 6.806 5.046 10.763 5.046 3.783 0 7.163-1.637 10.14-4.909 3.005-3.305 4.51-7.296 4.51-11.973 0-4.697-1.505-8.688-4.51-11.964-2.977-3.305-6.357-4.959-10.14-4.959-3.957 0-7.545 1.696-10.763 5.092zm-4.78 26.884v26.078h-6.381v-63.101h6.385v6.88c.116-.179.328-.449.623-.806a27.63 27.63 0 011.921-1.921 20.4 20.4 0 013.172-2.365 17.927 17.927 0 014.332-1.875 18.072 18.072 0 015.491-.848c5.6 0 10.497 2.244 14.692 6.742 4.227 4.494 6.343 9.882 6.343 16.168 0 6.252-2.099 11.623-6.298 16.117-4.198 4.469-9.108 6.701-14.737 6.701a18.543 18.543 0 01-5.446-.806 18.672 18.672 0 01-4.377-1.917 28.422 28.422 0 01-3.126-2.236 20.137 20.137 0 01-1.967-1.963l-.623-.848h-.004zm57.609-18.266l16.928-2.769c0-3.242-1.027-5.878-3.084-7.902-2.054-2.025-4.69-3.035-7.903-3.035-2.324 0-4.511.532-6.564 1.605-2.025 1.039-3.501 2.116-4.423 3.217l-1.385 1.559-4.107-4.107c.179-.237.416-.536.715-.894.328-.387 1.014-1.039 2.054-1.962a26.636 26.636 0 013.35-2.548c1.16-.745 2.677-1.397 4.556-1.963a19.335 19.335 0 015.804-.893c5.001 0 9.141 1.621 12.413 4.863 3.305 3.247 4.959 7.267 4.959 12.06v27.911h-6.385v-5.94c-.184.261-.378.515-.582.76a18.106 18.106 0 01-1.696 1.651 19.923 19.923 0 01-2.814 2.099 17.515 17.515 0 01-4.02 1.609c-1.654.479-3.367.72-5.089.715-4.377 0-8.069-1.297-11.074-3.887-2.981-2.59-4.469-5.55-4.469-8.884 0-3.662 1.101-6.61 3.305-8.842 2.203-2.266 5.375-3.741 9.511-4.423zm2.727 20.095c4.137 0 7.529-1.355 10.181-4.061 2.677-2.71 4.02-6.223 4.02-10.543v-2.768l-15.094 2.768c-5.48 1.044-8.232 3.634-8.265 7.774 0 1.962.807 3.6 2.415 4.91 1.634 1.28 3.883 1.92 6.743 1.92zm67.163 2.324v-5.495c-.175.256-.354.51-.536.76a17.689 17.689 0 01-1.696 1.788 16.326 16.326 0 01-2.861 2.278c-1.039.624-2.423 1.206-4.153 1.742a18.646 18.646 0 01-5.358.756c-5.537 0-10.36-2.128-14.467-6.385-4.078-4.286-6.119-9.478-6.119-15.585 0-6.103 2.041-11.282 6.119-15.539 4.078-4.29 8.901-6.431 14.467-6.431 1.875 0 3.646.249 5.313.756 1.7.478 3.097 1.089 4.198 1.829 1.102.72 2.042 1.447 2.815 2.191.802.748 1.384 1.355 1.742 1.829l.536.719v-6.389h6.431v41.176c0 6.161-2.099 11.358-6.298 15.585-4.17 4.228-9.245 6.34-15.228 6.34a22.334 22.334 0 01-6.655-.981c-2.083-.624-3.796-1.384-5.134-2.278a32.482 32.482 0 01-3.571-2.636 13.556 13.556 0 01-2.191-2.319l-.715-.94 4.111-4.107c.117.179.312.432.578.756.3.358.894.957 1.788 1.788a18.28 18.28 0 002.901 2.232c1.015.657 2.324 1.235 3.933 1.746 1.605.532 3.259.798 4.955.798 4.137 0 7.683-1.529 10.63-4.597 2.977-3.068 4.465-6.86 4.465-11.391v.004zm-24.519-31.482c-2.856 3.093-4.286 6.876-4.286 11.341 0 4.465 1.43 8.248 4.286 11.341 2.889 3.097 6.194 4.647 9.915 4.647 3.962 0 7.383-1.538 10.272-4.602 2.889-3.063 4.332-6.859 4.332-11.386 0-4.527-1.443-8.323-4.332-11.391-2.889-3.063-6.31-4.597-10.272-4.597-3.721 0-7.026 1.55-9.915 4.643v.004zm84.448 14.646l-35.681-.092c.237 3.962 1.859 7.384 4.868 10.273 3.035 2.889 6.594 4.331 10.672 4.331a16.318 16.318 0 007.636-1.829c2.353-1.222 4.02-2.44 5.001-3.662l1.564-1.788 4.107 4.108c-.179.241-.445.582-.803 1.026-.328.416-1.072 1.148-2.232 2.191a24.05 24.05 0 01-3.708 2.723c-1.31.773-3.022 1.505-5.134 2.187-2.081.655-4.25.988-6.431.985-5.982 0-11.133-2.22-15.452-6.651-4.315-4.469-6.473-9.874-6.473-16.213 0-6.344 2.129-11.732 6.385-16.167 4.286-4.465 9.317-6.697 15.095-6.697 5.982 0 10.983 2.082 15.003 6.252 4.02 4.136 6.028 9.378 6.028 15.718l-.445 3.305zm-10.763-15.406c-2.71-2.59-5.982-3.887-9.823-3.887s-7.192 1.355-10.048 4.065c-2.86 2.707-4.539 5.924-5.047 9.645h29.741c-.474-3.958-2.083-7.233-4.823-9.823zm75.249 14.824h8.214v6.431h-8.214v13.71h-6.881v-13.71h-32.463v-7.77l30.68-42.556h8.664v43.899-.004zm-6.881 0v-36.126l-26.031 36.126h26.031zm36.172-31.345c-3.692 4.698-5.538 11.204-5.538 19.514 0 8.272 1.846 14.766 5.538 19.468 3.691 4.676 8.131 7.013 13.311 7.013 5.117 0 9.511-2.353 13.174-7.059 3.658-4.731 5.491-11.224 5.491-19.468 0-8.306-1.845-14.799-5.537-19.472-3.692-4.702-8.098-7.055-13.22-7.055-5.121 0-9.528 2.353-13.219 7.055v.004zm31.261-4.377c5.059 6.011 7.591 13.959 7.591 23.845 0 9.882-2.515 17.847-7.545 23.891-5.034 6.015-11.033 9.021-17.996 9.021-7.026 0-13.07-3.01-18.134-9.021-5.03-6.044-7.545-14.009-7.545-23.891 0-9.886 2.532-17.834 7.591-23.845 5.059-6.045 11.062-9.067 17.996-9.067 6.968 0 12.983 3.022 18.042 9.063v.004zm55.107 35.722h8.215v6.431h-8.215v13.71h-6.876v-13.71h-32.467v-7.77l30.68-42.556h8.663v43.899-.004zm-6.876 0v-36.126l-26.036 36.126h26.036zM6.385 258.731v64.037H0v-64.037h6.385zm53.989 44.477l-35.681-.091c.237 3.962 1.863 7.383 4.868 10.272 3.035 2.889 6.594 4.332 10.672 4.332 2.743 0 5.288-.611 7.636-1.829 2.353-1.222 4.02-2.445 5.006-3.663l1.558-1.787 4.112 4.107c-.179.241-.449.582-.807 1.031-.324.416-1.068 1.143-2.232 2.187a24.597 24.597 0 01-3.704 2.723c-1.31.773-3.022 1.504-5.138 2.186-2.081.656-4.25.988-6.431.985-5.982 0-11.133-2.22-15.448-6.651-4.319-4.469-6.477-9.873-6.477-16.213 0-6.344 2.128-11.731 6.385-16.167 4.286-4.465 9.321-6.697 15.095-6.697 5.986 0 10.987 2.083 15.007 6.252 4.016 4.137 6.028 9.379 6.028 15.718l-.449 3.305zm-10.763-15.406c-2.706-2.59-5.986-3.887-9.823-3.887-3.841 0-7.192 1.355-10.048 4.066-2.856 2.706-4.539 5.924-5.047 9.644h29.74c-.473-3.957-2.078-7.233-4.822-9.823zm32.243 9.823l16.924-2.768c0-3.243-1.027-5.879-3.077-7.903-2.057-2.025-4.693-3.035-7.907-3.035-2.323 0-4.51.532-6.568 1.605-2.02 1.039-3.492 2.112-4.419 3.213l-1.384 1.563-4.107-4.107c.178-.237.415-.536.715-.894.328-.386 1.01-1.039 2.053-1.962a26.43 26.43 0 013.351-2.548c1.16-.744 2.677-1.397 4.552-1.962a19.355 19.355 0 015.807-.894c5.001 0 9.138 1.621 12.414 4.864 3.305 3.247 4.959 7.266 4.959 12.06v27.911h-6.389v-5.941a11.01 11.01 0 01-.582.761 18.689 18.689 0 01-1.692 1.65 19.749 19.749 0 01-2.815 2.1 17.52 17.52 0 01-4.02 1.608c-1.655.48-3.369.72-5.092.715-4.373 0-8.065-1.297-11.075-3.887-2.976-2.589-4.465-5.549-4.465-8.883 0-3.663 1.102-6.61 3.305-8.843 2.204-2.265 5.376-3.741 9.512-4.423zm2.723 20.096c4.14 0 7.533-1.355 10.185-4.062 2.677-2.71 4.016-6.223 4.016-10.542v-2.769l-15.091 2.769c-5.479 1.043-8.231 3.633-8.264 7.774 0 1.962.806 3.6 2.411 4.909 1.638 1.281 3.887 1.921 6.743 1.921zm53.456 5.047h-6.385l-17.863-43.9h6.876l14.2 35.19 14.155-35.19h6.881l-17.864 43.9zm65.421-19.56l-35.681-.091c.237 3.962 1.863 7.383 4.868 10.272 3.035 2.889 6.594 4.332 10.672 4.332 2.743 0 5.288-.611 7.636-1.829 2.353-1.222 4.02-2.445 5.001-3.663l1.564-1.787 4.111 4.107c-.179.241-.449.582-.807 1.031-.324.416-1.072 1.143-2.232 2.187a24.547 24.547 0 01-3.704 2.723c-1.314.773-3.022 1.504-5.138 2.186-2.081.656-4.25.988-6.431.985-5.986 0-11.133-2.22-15.448-6.651-4.319-4.469-6.477-9.873-6.477-16.213 0-6.344 2.129-11.731 6.385-16.167 4.286-4.465 9.321-6.697 15.095-6.697 5.986 0 10.987 2.083 15.007 6.252 4.016 4.137 6.028 9.379 6.028 15.718l-.449 3.305zm-10.763-15.406c-2.706-2.59-5.986-3.887-9.823-3.887-3.841 0-7.192 1.355-10.048 4.066-2.86 2.706-4.539 5.924-5.047 9.644h29.741c-.474-3.957-2.079-7.233-4.823-9.823zm44.166-13.486v-10.093h5.94v14.645h9.603v5.945h-9.603v26.078c0 4.581 1.979 6.859 5.941 6.83.981 0 1.949-.121 2.901-.358.981-.237 1.726-.444 2.233-.623l.802-.358v5.941c-1.812.923-3.883 1.368-6.207 1.338-3.783 0-6.742-1.101-8.883-3.305-2.116-2.232-3.172-5.387-3.172-9.465v-26.082h-8.26v-5.941h5.042c2.445 0 3.663-1.517 3.663-4.552zm35.68-15.589v26.531c.121-.179.3-.433.541-.761a30.05 30.05 0 011.692-1.787 16.835 16.835 0 012.86-2.233c1.01-.653 2.336-1.235 3.974-1.742a16.42 16.42 0 015.134-.802c5.3 0 9.586 1.713 12.862 5.134 3.305 3.426 4.955 7.965 4.955 13.623v26.078h-6.385V296.69c0-3.841-1.114-6.926-3.346-9.246-2.237-2.352-5.093-3.529-8.577-3.529-3.899 0-7.158 1.372-9.777 4.111-2.619 2.736-3.933 6.236-3.933 10.493v24.249h-6.385v-64.037h6.385v-.004zm46.668 64.041v-43.9h6.386v43.9h-6.386zm.225-55.598a4.091 4.091 0 01-1.164-2.947c0-1.164.386-2.129 1.164-2.902a4.007 4.007 0 012.947-1.205 3.865 3.865 0 012.902 1.205c.802.773 1.205 1.742 1.205 2.902 0 1.164-.403 2.145-1.205 2.947a3.938 3.938 0 01-2.902 1.164 4.089 4.089 0 01-2.951-1.164h.004zm47.378 16.745l-4.597 4.556a8.728 8.728 0 00-1.073-1.247c-.449-.511-1.505-1.18-3.172-2.012a11.484 11.484 0 00-5.358-1.297c-2.44 0-4.419.64-5.941 1.921-1.517 1.28-2.274 2.768-2.274 4.464 0 1.759.815 3.172 2.453 4.241 1.638 1.076 3.617 1.937 5.94 2.594a89.608 89.608 0 016.968 2.186 13.72 13.72 0 015.936 4.02c1.638 1.846 2.457 4.216 2.457 7.101 0 3.783-1.442 6.938-4.332 9.47-2.885 2.498-6.772 3.749-11.652 3.749-2.087 0-4.049-.27-5.895-.806a18.33 18.33 0 01-4.51-1.917 28.434 28.434 0 01-3.127-2.236 16.249 16.249 0 01-1.92-1.962l-.582-.848 4.602-4.556c.116.178.283.415.49.715.208.266.666.773 1.385 1.517a20.918 20.918 0 002.369 1.966c.832.566 1.904 1.073 3.214 1.518 1.309.444 2.631.669 3.974.669 3.093 0 5.462-.686 7.1-2.054 1.663-1.372 2.499-3.109 2.499-5.225 0-1.817-.832-3.289-2.499-4.419a19.172 19.172 0 00-5.944-2.727 169.324 169.324 0 01-6.918-2.233 15.2 15.2 0 01-5.986-3.883c-1.638-1.787-2.453-4.078-2.453-6.88 0-3.3 1.384-6.194 4.153-8.663 2.798-2.469 6.294-3.704 10.493-3.704 1.696 0 3.35.208 4.955.624 1.638.386 2.981.881 4.02 1.475a20.113 20.113 0 012.769 1.788c.831.594 1.43 1.068 1.787 1.426l.669.669zm41.351 5.093c-3.184 3.367-4.78 7.308-4.78 11.835 0 4.494 1.596 8.439 4.78 11.831 3.218 3.367 6.806 5.047 10.763 5.047 3.783 0 7.163-1.638 10.14-4.91 3.005-3.305 4.51-7.295 4.51-11.972 0-4.698-1.505-8.689-4.51-11.964-2.977-3.305-6.357-4.96-10.14-4.96-3.957 0-7.545 1.7-10.763 5.093zm-4.78 26.884v26.077h-6.381v-63.101h6.385v6.88c.116-.178.328-.449.623-.806a28.074 28.074 0 011.921-1.921 20.528 20.528 0 013.172-2.365 17.967 17.967 0 014.332-1.875 18.103 18.103 0 015.491-.848c5.6 0 10.497 2.245 14.692 6.743 4.227 4.494 6.343 9.881 6.343 16.167 0 6.252-2.099 11.623-6.298 16.117-4.198 4.469-9.108 6.701-14.737 6.701a18.543 18.543 0 01-5.446-.806 18.672 18.672 0 01-4.377-1.917 28.422 28.422 0 01-3.126-2.236 20.238 20.238 0 01-1.967-1.962l-.623-.848h-.004zm57.609-18.267l16.928-2.768c0-3.243-1.027-5.879-3.084-7.903-2.054-2.025-4.69-3.035-7.903-3.035-2.324 0-4.511.532-6.564 1.605-2.025 1.039-3.501 2.112-4.423 3.213l-1.385 1.563-4.107-4.107c.179-.237.416-.536.715-.894.328-.386 1.014-1.039 2.054-1.962a26.636 26.636 0 013.35-2.548c1.16-.744 2.677-1.397 4.556-1.962a19.336 19.336 0 015.804-.894c5.001 0 9.141 1.621 12.413 4.864 3.305 3.247 4.959 7.266 4.959 12.06v27.911h-6.385v-5.941c-.184.261-.378.515-.582.761a18.222 18.222 0 01-1.696 1.65 20.007 20.007 0 01-2.814 2.1c-1.269.7-2.619 1.24-4.02 1.608-1.654.479-3.367.72-5.089.715-4.377 0-8.069-1.297-11.074-3.887-2.981-2.589-4.469-5.549-4.469-8.883 0-3.663 1.101-6.61 3.305-8.843 2.203-2.265 5.375-3.741 9.511-4.423zm2.727 20.096c4.137 0 7.529-1.355 10.181-4.062 2.677-2.71 4.02-6.223 4.02-10.542v-2.769l-15.094 2.769c-5.48 1.043-8.232 3.633-8.265 7.774 0 1.962.807 3.6 2.415 4.909 1.634 1.281 3.883 1.921 6.743 1.921zm67.163 2.324v-5.496c-.175.256-.354.51-.536.761a17.679 17.679 0 01-1.696 1.787 16.234 16.234 0 01-2.861 2.278c-1.039.624-2.423 1.206-4.153 1.742a18.612 18.612 0 01-5.358.757c-5.537 0-10.36-2.129-14.467-6.386-4.078-4.286-6.119-9.478-6.119-15.585 0-6.102 2.041-11.282 6.119-15.539 4.078-4.286 8.901-6.431 14.467-6.431 1.875 0 3.646.249 5.313.757 1.7.478 3.097 1.089 4.198 1.829 1.102.719 2.042 1.446 2.815 2.191.802.748 1.384 1.355 1.742 1.829l.536.719v-6.39h6.431v41.177c0 6.161-2.099 11.357-6.298 15.585-4.17 4.228-9.245 6.339-15.228 6.339a22.334 22.334 0 01-6.655-.981c-2.083-.623-3.796-1.384-5.134-2.278a32.602 32.602 0 01-3.571-2.635 13.562 13.562 0 01-2.191-2.32l-.715-.94 4.111-4.107c.117.179.312.433.578.757.3.357.894.956 1.788 1.787a18.347 18.347 0 002.901 2.233c1.015.657 2.324 1.234 3.933 1.746 1.605.532 3.259.798 4.955.798 4.137 0 7.683-1.53 10.63-4.598 2.977-3.068 4.465-6.859 4.465-11.39v.004zm-24.519-31.482c-2.856 3.093-4.286 6.876-4.286 11.34 0 4.465 1.43 8.248 4.286 11.341 2.889 3.097 6.194 4.648 9.915 4.648 3.962 0 7.383-1.538 10.272-4.602 2.889-3.064 4.332-6.859 4.332-11.387 0-4.523-1.443-8.322-4.332-11.39-2.889-3.064-6.31-4.598-10.272-4.598-3.721 0-7.026 1.551-9.915 4.648zm84.448 14.645l-35.681-.091c.237 3.962 1.859 7.383 4.868 10.272 3.035 2.889 6.594 4.332 10.672 4.332 2.656.02 5.278-.608 7.636-1.829 2.353-1.222 4.02-2.445 5.001-3.663l1.564-1.787 4.107 4.107c-.179.241-.445.582-.803 1.031-.328.416-1.072 1.143-2.232 2.187a24.115 24.115 0 01-3.708 2.723c-1.31.773-3.022 1.504-5.134 2.186-2.081.656-4.25.988-6.431.985-5.982 0-11.133-2.22-15.452-6.651-4.315-4.469-6.473-9.873-6.473-16.213 0-6.344 2.129-11.731 6.385-16.167 4.286-4.465 9.317-6.697 15.095-6.697 5.982 0 10.983 2.083 15.003 6.252 4.02 4.137 6.028 9.379 6.028 15.718l-.445 3.305zm-10.763-15.406c-2.71-2.59-5.982-3.887-9.823-3.887s-7.192 1.355-10.048 4.066c-2.86 2.706-4.539 5.924-5.047 9.644h29.741c-.474-3.957-2.083-7.233-4.823-9.823zm75.249 14.824h8.214v6.431h-8.214v13.711h-6.881v-13.711h-32.463v-7.769l30.68-42.557h8.664v43.899-.004zm-6.881 0v-36.125l-26.031 36.125h26.031zm36.172-31.344c-3.692 4.697-5.538 11.207-5.538 19.513 0 8.273 1.846 14.766 5.538 19.468 3.691 4.673 8.131 7.013 13.311 7.013 5.117 0 9.511-2.353 13.174-7.059 3.658-4.731 5.491-11.224 5.491-19.468 0-8.306-1.845-14.799-5.537-19.472-3.692-4.701-8.098-7.054-13.22-7.054-5.121 0-9.528 2.353-13.219 7.054v.005zm31.261-4.378c5.059 6.011 7.591 13.96 7.591 23.845 0 9.882-2.515 17.847-7.545 23.891-5.034 6.016-11.033 9.021-17.996 9.021-7.026 0-13.07-3.009-18.134-9.021-5.03-6.044-7.545-14.009-7.545-23.891 0-9.885 2.532-17.834 7.591-23.849 5.059-6.04 11.062-9.063 17.996-9.063 6.968 0 12.983 3.023 18.042 9.063v.004zm55.107 35.722h8.215v6.431h-8.215v13.711h-6.876v-13.711h-32.467v-7.769l30.68-42.557h8.663v43.899-.004zm-6.876 0v-36.125l-26.036 36.125h26.036zM6.385 366.817v64.036H0v-64.036h6.385zm53.989 44.477l-35.681-.092c.237 3.962 1.863 7.383 4.868 10.273 3.035 2.889 6.594 4.331 10.672 4.331 2.743 0 5.288-.611 7.636-1.829 2.353-1.222 4.02-2.444 5.006-3.662l1.558-1.788 4.112 4.107c-.179.241-.449.582-.807 1.031-.324.416-1.068 1.144-2.232 2.187a24.312 24.312 0 01-3.704 2.723c-1.31.773-3.022 1.505-5.138 2.191-2.081.653-4.25.984-6.431.981-5.982 0-11.133-2.22-15.448-6.656-4.319-4.465-6.477-9.869-6.477-16.208 0-6.344 2.128-11.732 6.385-16.168 4.286-4.464 9.321-6.697 15.095-6.697 5.986 0 10.987 2.083 15.007 6.253 4.016 4.136 6.028 9.378 6.028 15.718l-.449 3.305zm-10.763-15.407c-2.706-2.59-5.986-3.887-9.823-3.887-3.841 0-7.192 1.356-10.048 4.066-2.856 2.711-4.539 5.924-5.047 9.645h29.74c-.473-3.958-2.078-7.234-4.822-9.824zm32.243 9.824l16.924-2.769c0-3.243-1.027-5.878-3.077-7.903-2.057-2.024-4.693-3.034-7.907-3.034-2.323 0-4.51.532-6.568 1.604-2.02 1.044-3.492 2.112-4.419 3.214l-1.384 1.563-4.107-4.107c.178-.237.415-.537.715-.894.328-.387 1.01-1.039 2.053-1.962a26.345 26.345 0 013.351-2.549c1.16-.744 2.677-1.396 4.552-1.962a19.355 19.355 0 015.807-.894c5.001 0 9.138 1.622 12.414 4.864 3.305 3.247 4.959 7.267 4.959 12.06v27.911h-6.389v-5.941c-.183.263-.377.516-.582.761a18.313 18.313 0 01-1.692 1.651 19.408 19.408 0 01-2.815 2.099 17.697 17.697 0 01-4.02 1.609c-1.654.48-3.369.72-5.092.715-4.373 0-8.065-1.297-11.075-3.887-2.976-2.59-4.465-5.55-4.465-8.884 0-3.662 1.102-6.61 3.305-8.842 2.204-2.266 5.376-3.737 9.512-4.423zm2.723 20.095c4.14 0 7.533-1.355 10.185-4.061 2.677-2.711 4.016-6.224 4.016-10.543v-2.768l-15.091 2.768c-5.479 1.044-8.231 3.634-8.264 7.774 0 1.962.806 3.6 2.411 4.91 1.638 1.28 3.887 1.92 6.743 1.92zm53.456 5.047h-6.385l-17.863-43.899h6.876l14.2 35.19 14.155-35.19h6.881l-17.864 43.899zm65.421-19.559l-35.681-.092c.237 3.962 1.863 7.383 4.868 10.273 3.035 2.889 6.594 4.331 10.672 4.331 2.743 0 5.288-.611 7.636-1.829 2.353-1.222 4.02-2.444 5.001-3.662l1.564-1.788 4.111 4.107c-.179.241-.449.582-.807 1.031-.324.416-1.072 1.144-2.232 2.187a24.312 24.312 0 01-3.704 2.723c-1.314.773-3.022 1.505-5.138 2.191-2.081.653-4.25.983-6.431.981-5.986 0-11.133-2.22-15.448-6.656-4.319-4.465-6.477-9.869-6.477-16.208 0-6.344 2.129-11.732 6.385-16.168 4.286-4.464 9.321-6.697 15.095-6.697 5.986 0 10.987 2.083 15.007 6.253 4.016 4.136 6.028 9.378 6.028 15.718l-.449 3.305zm-10.763-15.407c-2.706-2.59-5.986-3.887-9.823-3.887-3.841 0-7.192 1.356-10.048 4.066-2.86 2.711-4.539 5.924-5.047 9.645h29.741c-.474-3.958-2.079-7.234-4.823-9.824zm44.166-13.485v-10.094h5.94v14.646h9.603v5.944h-9.603v26.078c0 4.581 1.979 6.859 5.941 6.83.981 0 1.949-.12 2.901-.357.981-.237 1.726-.445 2.233-.624l.802-.357v5.94c-1.812.923-3.883 1.368-6.207 1.339-3.783 0-6.742-1.102-8.883-3.305-2.116-2.233-3.172-5.388-3.172-9.466v-26.082h-8.26v-5.94h5.042c2.445 0 3.663-1.518 3.663-4.552zm35.68-15.59v26.531c.121-.179.3-.432.541-.761a30.36 30.36 0 011.692-1.787 16.779 16.779 0 012.86-2.232c1.01-.653 2.336-1.235 3.974-1.742a16.393 16.393 0 015.134-.803c5.3 0 9.586 1.713 12.862 5.134 3.305 3.426 4.955 7.965 4.955 13.623v26.078h-6.385v-26.078c0-3.841-1.114-6.921-3.346-9.245-2.237-2.353-5.093-3.53-8.577-3.53-3.899 0-7.158 1.372-9.777 4.112-2.619 2.735-3.933 6.236-3.933 10.492v24.249h-6.385v-64.036h6.385v-.005zm46.668 64.041v-43.899h6.386v43.899h-6.386zm.225-55.597a4.092 4.092 0 01-1.164-2.948c0-1.164.386-2.128 1.164-2.902a4.007 4.007 0 012.947-1.205 3.869 3.869 0 012.902 1.205c.802.774 1.205 1.742 1.205 2.902 0 1.164-.403 2.145-1.205 2.948a3.942 3.942 0 01-2.902 1.164 4.093 4.093 0 01-2.951-1.164h.004zM366.808 392l-4.597 4.557a8.833 8.833 0 00-1.073-1.252c-.449-.507-1.505-1.176-3.172-2.008a11.484 11.484 0 00-5.358-1.297c-2.44 0-4.419.641-5.941 1.921-1.517 1.28-2.274 2.769-2.274 4.465 0 1.758.815 3.172 2.453 4.244 1.638 1.073 3.617 1.933 5.94 2.59a89.62 89.62 0 016.968 2.187 13.748 13.748 0 015.936 4.02c1.638 1.845 2.457 4.211 2.457 7.1 0 3.783-1.442 6.938-4.332 9.466-2.885 2.502-6.772 3.754-11.652 3.754a21.024 21.024 0 01-5.895-.807 18.181 18.181 0 01-4.51-1.916 28.31 28.31 0 01-3.127-2.237 16.104 16.104 0 01-1.92-1.962l-.582-.848 4.602-4.556c.116.179.283.416.49.715.208.266.666.773 1.385 1.517a21.034 21.034 0 002.369 1.967c.832.565 1.904 1.072 3.214 1.517 1.309.445 2.631.669 3.974.669 3.093 0 5.462-.686 7.1-2.053 1.663-1.368 2.499-3.11 2.499-5.226 0-1.817-.832-3.288-2.499-4.419-1.638-1.164-3.616-2.07-5.944-2.727a160.998 160.998 0 01-6.918-2.232 15.222 15.222 0 01-5.986-3.883c-1.638-1.788-2.453-4.078-2.453-6.88 0-3.301 1.384-6.194 4.153-8.664 2.798-2.469 6.294-3.704 10.493-3.704 1.696 0 3.35.208 4.955.624 1.638.387 2.981.881 4.02 1.476a20.111 20.111 0 012.769 1.787c.831.595 1.43 1.069 1.787 1.426l.669.669zm41.351 5.093c-3.184 3.363-4.78 7.308-4.78 11.835 0 4.494 1.596 8.439 4.78 11.831 3.218 3.368 6.806 5.047 10.763 5.047 3.783 0 7.163-1.638 10.14-4.913 3.005-3.301 4.51-7.292 4.51-11.965 0-4.706-1.505-8.696-4.51-11.968-2.977-3.305-6.357-4.96-10.14-4.96-3.957 0-7.545 1.697-10.763 5.093zm-4.78 26.884v26.078h-6.381v-63.101h6.385v6.88c.116-.179.328-.449.623-.807a27.836 27.836 0 011.921-1.92 20.47 20.47 0 013.172-2.366 17.967 17.967 0 014.332-1.875 18.103 18.103 0 015.491-.848c5.6 0 10.497 2.245 14.692 6.743 4.227 4.494 6.343 9.886 6.343 16.167 0 6.248-2.099 11.624-6.298 16.122-4.198 4.464-9.108 6.697-14.737 6.697-1.875 0-3.691-.27-5.446-.807a18.528 18.528 0 01-4.377-1.916 28.298 28.298 0 01-3.126-2.237 20.016 20.016 0 01-1.967-1.962l-.623-.848h-.004zm57.609-18.266l16.928-2.769c0-3.243-1.027-5.878-3.084-7.903-2.054-2.024-4.69-3.034-7.903-3.034-2.324 0-4.511.532-6.564 1.604-2.025 1.044-3.501 2.112-4.423 3.214l-1.385 1.563-4.107-4.107a23 23 0 01.715-.894c.328-.387 1.014-1.039 2.054-1.962a26.55 26.55 0 013.35-2.549c1.16-.744 2.677-1.396 4.556-1.962a19.336 19.336 0 015.804-.894c5.001 0 9.141 1.622 12.413 4.864 3.305 3.247 4.959 7.267 4.959 12.06v27.911h-6.385v-5.941c-.184.262-.378.515-.582.761a17.862 17.862 0 01-1.696 1.651 19.602 19.602 0 01-2.814 2.099 17.65 17.65 0 01-4.02 1.609c-1.654.479-3.367.72-5.089.715-4.377 0-8.069-1.297-11.074-3.887-2.981-2.59-4.469-5.55-4.469-8.884 0-3.662 1.101-6.61 3.305-8.842 2.203-2.266 5.375-3.737 9.511-4.423zm2.727 20.095c4.137 0 7.529-1.355 10.181-4.061 2.677-2.711 4.02-6.224 4.02-10.543v-2.768l-15.094 2.768c-5.48 1.044-8.232 3.634-8.265 7.774 0 1.962.807 3.6 2.415 4.91 1.634 1.28 3.883 1.92 6.743 1.92zm67.163 2.324v-5.496c-.175.257-.354.51-.536.761a17.689 17.689 0 01-1.696 1.788 16.544 16.544 0 01-2.861 2.278 19.324 19.324 0 01-9.511 2.498c-5.537 0-10.36-2.128-14.467-6.385-4.078-4.286-6.119-9.483-6.119-15.585 0-6.103 2.041-11.283 6.119-15.54 4.078-4.286 8.901-6.431 14.467-6.431 1.875 0 3.646.25 5.313.757 1.7.478 3.097 1.089 4.198 1.829 1.102.719 2.042 1.447 2.815 2.191.802.748 1.384 1.355 1.742 1.829l.536.719v-6.389h6.431v41.176c0 6.161-2.099 11.357-6.298 15.585-4.17 4.228-9.245 6.34-15.228 6.34a22.463 22.463 0 01-6.655-.981c-2.083-.628-3.796-1.385-5.134-2.278a32.61 32.61 0 01-3.571-2.636 13.602 13.602 0 01-2.191-2.32l-.715-.939 4.111-4.107c.117.178.312.432.578.756.3.358.894.952 1.788 1.788a18.34 18.34 0 002.901 2.232c1.015.657 2.324 1.235 3.933 1.742a15.55 15.55 0 004.955.802c4.137 0 7.683-1.53 10.63-4.598 2.977-3.068 4.465-6.863 4.465-11.386zm-24.519-31.486c-2.856 3.097-4.286 6.88-4.286 11.345 0 4.465 1.43 8.248 4.286 11.345 2.889 3.092 6.194 4.643 9.915 4.643 3.962 0 7.383-1.534 10.272-4.602 2.889-3.064 4.332-6.859 4.332-11.386 0-4.527-1.443-8.323-4.332-11.387-2.889-3.068-6.31-4.602-10.272-4.602-3.721 0-7.026 1.551-9.915 4.644zm84.448 14.65l-35.681-.092c.237 3.962 1.859 7.383 4.868 10.273 3.035 2.889 6.594 4.331 10.672 4.331 2.739 0 5.284-.611 7.636-1.829 2.353-1.222 4.02-2.444 5.001-3.662l1.564-1.788 4.107 4.107c-.262.348-.53.692-.803 1.031-.328.416-1.072 1.144-2.232 2.187a24.115 24.115 0 01-3.708 2.723c-1.31.773-3.022 1.505-5.134 2.191-2.081.653-4.25.984-6.431.981-5.982 0-11.133-2.22-15.452-6.656-4.315-4.465-6.473-9.869-6.473-16.208 0-6.344 2.129-11.732 6.385-16.168 4.286-4.464 9.317-6.697 15.095-6.697 5.982 0 10.983 2.083 15.003 6.253 4.02 4.136 6.028 9.378 6.028 15.718l-.445 3.305zm-10.763-15.407c-2.71-2.59-5.982-3.887-9.823-3.887s-7.192 1.356-10.048 4.066c-2.86 2.711-4.539 5.924-5.047 9.645h29.741c-.474-3.958-2.083-7.234-4.823-9.824zm75.249 14.825h8.214v6.431h-8.214v13.71h-6.881v-13.71h-32.463v-7.77l30.68-42.556h8.664v43.895zm-6.881 0v-36.126l-26.031 36.126h26.031zm36.172-31.345c-3.692 4.697-5.538 11.208-5.538 19.514 0 8.272 1.846 14.766 5.538 19.467 3.691 4.677 8.131 7.013 13.311 7.013 5.117 0 9.511-2.353 13.174-7.058 3.658-4.731 5.491-11.22 5.491-19.468 0-8.306-1.845-14.8-5.537-19.472-3.692-4.702-8.098-7.055-13.22-7.055-5.121 0-9.528 2.353-13.219 7.055v.004zm31.261-4.378c5.059 6.012 7.591 13.96 7.591 23.846 0 9.881-2.515 17.846-7.545 23.891-5.034 6.015-11.033 9.021-17.996 9.021-7.026 0-13.07-3.006-18.134-9.021-5.03-6.045-7.545-14.01-7.545-23.891 0-9.886 2.532-17.834 7.591-23.85 5.059-6.04 11.062-9.062 17.996-9.062 6.968 0 12.983 3.022 18.042 9.062v.004zm55.107 35.723h8.215v6.431h-8.215v13.71h-6.876v-13.71h-32.467v-7.77l30.68-42.556h8.663v43.895zm-6.876 0v-36.126l-26.036 36.126h26.036zM6.385 474.902v64.036H0v-64.036h6.385zm53.989 44.477l-35.681-.091c.237 3.961 1.863 7.383 4.868 10.272 3.035 2.889 6.594 4.332 10.672 4.332 2.743 0 5.288-.611 7.636-1.83 2.353-1.222 4.02-2.444 5.006-3.662l1.558-1.788 4.112 4.108c-.179.241-.449.582-.807 1.031-.324.415-1.068 1.143-2.232 2.186a24.245 24.245 0 01-3.704 2.723c-1.31.773-3.022 1.505-5.138 2.191-2.081.653-4.25.984-6.431.981-5.982 0-11.133-2.22-15.448-6.655-4.319-4.465-6.477-9.869-6.477-16.209 0-6.344 2.128-11.731 6.385-16.167 4.286-4.465 9.321-6.697 15.095-6.697 5.986 0 10.987 2.082 15.007 6.252 4.016 4.136 6.028 9.379 6.028 15.718l-.449 3.305zm-10.763-15.406c-2.706-2.59-5.986-3.887-9.823-3.887-3.841 0-7.192 1.355-10.048 4.066-2.856 2.71-4.539 5.923-5.047 9.644h29.74c-.473-3.958-2.078-7.233-4.822-9.823zm32.243 9.823l16.924-2.769c0-3.242-1.027-5.878-3.077-7.902-2.057-2.025-4.693-3.039-7.907-3.039-2.323 0-4.51.536-6.568 1.609-2.02 1.043-3.492 2.111-4.419 3.213l-1.384 1.563-4.107-4.107c.178-.237.415-.536.715-.894.328-.386 1.01-1.039 2.053-1.962a26.43 26.43 0 013.351-2.548c1.16-.744 2.677-1.397 4.552-1.962a19.23 19.23 0 015.807-.894c5.001 0 9.138 1.621 12.414 4.868 3.305 3.242 4.959 7.262 4.959 12.055v27.911h-6.389v-5.94a11.01 11.01 0 01-.582.761 18.302 18.302 0 01-1.692 1.65 19.408 19.408 0 01-2.815 2.099 17.65 17.65 0 01-4.02 1.609c-1.654.48-3.369.721-5.092.715-4.373 0-8.065-1.297-11.075-3.887-2.976-2.59-4.465-5.55-4.465-8.884 0-3.662 1.102-6.609 3.305-8.842 2.204-2.265 5.376-3.737 9.512-4.423zm2.723 20.096c4.14 0 7.533-1.356 10.185-4.062 2.677-2.71 4.016-6.223 4.016-10.542v-2.769l-15.091 2.769c-5.479 1.043-8.231 3.633-8.264 7.773 0 1.963.806 3.601 2.411 4.91 1.638 1.28 3.887 1.921 6.743 1.921zm53.456 5.046h-6.385l-17.863-43.899h6.876l14.2 35.19 14.155-35.19h6.881l-17.864 43.899zm65.421-19.559l-35.681-.091c.237 3.961 1.863 7.383 4.868 10.272 3.035 2.889 6.594 4.332 10.672 4.332 2.743 0 5.288-.611 7.636-1.83 2.353-1.222 4.02-2.444 5.001-3.662l1.564-1.788 4.111 4.108c-.179.241-.449.582-.807 1.031-.324.415-1.072 1.143-2.232 2.186a24.245 24.245 0 01-3.704 2.723c-1.314.773-3.022 1.505-5.138 2.191-2.081.653-4.25.984-6.431.981-5.986 0-11.133-2.22-15.448-6.655-4.319-4.465-6.477-9.869-6.477-16.209 0-6.344 2.129-11.731 6.385-16.167 4.286-4.465 9.321-6.697 15.095-6.697 5.986 0 10.987 2.082 15.007 6.252 4.016 4.136 6.028 9.379 6.028 15.718l-.449 3.305zm-10.763-15.406c-2.706-2.59-5.986-3.887-9.823-3.887-3.841 0-7.192 1.355-10.048 4.066-2.86 2.71-4.539 5.923-5.047 9.644h29.741c-.474-3.958-2.079-7.233-4.823-9.823zm44.166-13.486v-10.093h5.94v14.645h9.603v5.941h-9.603v26.081c0 4.582 1.979 6.86 5.941 6.831.981 0 1.949-.121 2.901-.358.981-.237 1.726-.445 2.233-.623l.802-.358v5.941c-1.812.922-3.883 1.367-6.207 1.338-3.783 0-6.742-1.101-8.883-3.305-2.116-2.232-3.172-5.387-3.172-9.466V500.98h-8.26v-5.941h5.042c2.445 0 3.663-1.517 3.663-4.552zm35.68-15.585v26.527c.121-.179.3-.433.541-.761.266-.329.831-.923 1.692-1.788a17.054 17.054 0 012.86-2.232c1.01-.653 2.336-1.235 3.974-1.742a16.363 16.363 0 015.134-.802c5.3 0 9.586 1.712 12.862 5.134 3.305 3.425 4.955 7.965 4.955 13.623v26.077h-6.385v-26.077c0-3.841-1.114-6.922-3.346-9.246-2.237-2.353-5.093-3.529-8.577-3.529-3.899 0-7.158 1.372-9.777 4.111-2.619 2.736-3.933 6.236-3.933 10.493v24.248h-6.385v-64.036h6.385zm46.668 64.036v-43.899h6.386v43.899h-6.386zm.225-55.597a4.091 4.091 0 01-1.164-2.947c0-1.16.386-2.129 1.164-2.902a4.004 4.004 0 012.947-1.206c1.16 0 2.129.399 2.902 1.206.802.773 1.205 1.742 1.205 2.902a4.008 4.008 0 01-1.205 2.947 3.946 3.946 0 01-2.902 1.16 4.092 4.092 0 01-2.951-1.16h.004zm47.378 16.745l-4.597 4.556a8.77 8.77 0 00-1.073-1.251c-.449-.507-1.505-1.177-3.172-2.008a11.46 11.46 0 00-5.358-1.297c-2.44 0-4.419.64-5.941 1.92-1.517 1.281-2.274 2.769-2.274 4.465 0 1.759.815 3.172 2.453 4.245 1.638 1.072 3.617 1.933 5.94 2.59a89.608 89.608 0 016.968 2.186 13.757 13.757 0 015.936 4.02c1.638 1.846 2.457 4.211 2.457 7.1 0 3.783-1.442 6.939-4.332 9.466-2.885 2.503-6.772 3.754-11.652 3.754a21.06 21.06 0 01-5.895-.806 18.184 18.184 0 01-4.51-1.917 28.434 28.434 0 01-3.127-2.236 16.249 16.249 0 01-1.92-1.962l-.582-.849 4.602-4.556c.116.179.283.416.49.715.208.266.666.774 1.385 1.518a21.025 21.025 0 002.369 1.966c.832.565 1.904 1.073 3.214 1.517 1.309.445 2.631.67 3.974.67 3.093 0 5.462-.686 7.1-2.054 1.663-1.368 2.499-3.11 2.499-5.226 0-1.816-.832-3.288-2.499-4.419-1.638-1.164-3.616-2.07-5.944-2.727a160.998 160.998 0 01-6.918-2.232 15.2 15.2 0 01-5.986-3.883c-1.638-1.787-2.453-4.078-2.453-6.88 0-3.301 1.384-6.19 4.153-8.663 2.798-2.47 6.294-3.704 10.493-3.704 1.696 0 3.35.208 4.955.623 1.638.387 2.981.877 4.02 1.476a20.484 20.484 0 012.769 1.783c.831.599 1.43 1.073 1.787 1.431l.669.669zm41.351 5.092c-3.184 3.363-4.78 7.309-4.78 11.836 0 4.494 1.596 8.439 4.78 11.831 3.218 3.367 6.806 5.047 10.763 5.047 3.783 0 7.163-1.638 10.14-4.914 3.005-3.301 4.51-7.292 4.51-11.964 0-4.706-1.505-8.697-4.51-11.969-2.977-3.305-6.357-4.959-10.14-4.959-3.957 0-7.545 1.696-10.763 5.092zm-4.78 26.884v26.078h-6.381v-63.101h6.385v6.88c.116-.179.328-.449.623-.806.333-.387.969-1.027 1.921-1.921a20.464 20.464 0 013.172-2.365 17.871 17.871 0 014.332-1.875 18.072 18.072 0 015.491-.848c5.6 0 10.497 2.249 14.692 6.743 4.227 4.493 6.343 9.885 6.343 16.167 0 6.248-2.099 11.623-6.298 16.121-4.198 4.465-9.108 6.697-14.737 6.697-1.875 0-3.691-.27-5.446-.806a18.53 18.53 0 01-4.377-1.917 28.422 28.422 0 01-3.126-2.236 20.238 20.238 0 01-1.967-1.962l-.623-.849h-.004zm57.609-18.266l16.928-2.769c0-3.242-1.027-5.878-3.084-7.902-2.054-2.025-4.69-3.039-7.903-3.039-2.324 0-4.511.536-6.564 1.609-2.025 1.043-3.501 2.111-4.423 3.213l-1.385 1.563-4.107-4.107c.179-.237.416-.536.715-.894.328-.386 1.014-1.039 2.054-1.962a26.636 26.636 0 013.35-2.548c1.16-.744 2.677-1.397 4.556-1.962a19.21 19.21 0 015.804-.894c5.001 0 9.141 1.621 12.413 4.868 3.305 3.242 4.959 7.262 4.959 12.055v27.911h-6.385v-5.94c-.184.261-.378.515-.582.761a17.851 17.851 0 01-1.696 1.65 19.528 19.528 0 01-2.814 2.099c-1.269.7-2.619 1.24-4.02 1.609-1.654.48-3.367.72-5.089.715-4.377 0-8.069-1.297-11.074-3.887-2.981-2.59-4.469-5.55-4.469-8.884 0-3.662 1.101-6.609 3.305-8.842 2.203-2.265 5.375-3.737 9.511-4.423zm2.727 20.096c4.137 0 7.529-1.356 10.181-4.062 2.677-2.71 4.02-6.223 4.02-10.542v-2.769l-15.094 2.769c-5.48 1.043-8.232 3.633-8.265 7.773 0 1.963.807 3.601 2.415 4.91 1.634 1.28 3.883 1.921 6.743 1.921zm67.163 2.323v-5.495c-.175.256-.354.51-.536.76a17.689 17.689 0 01-1.696 1.788 16.496 16.496 0 01-2.861 2.278 19.325 19.325 0 01-9.511 2.499c-5.537 0-10.36-2.129-14.467-6.386-4.078-4.286-6.119-9.482-6.119-15.585 0-6.103 2.041-11.282 6.119-15.539 4.078-4.29 8.901-6.431 14.467-6.431 1.875 0 3.646.253 5.313.756 1.7.478 3.097 1.089 4.198 1.834 1.102.715 2.042 1.442 2.815 2.186.802.744 1.384 1.355 1.742 1.834l.536.715v-6.39h6.431v41.176c0 6.161-2.099 11.358-6.298 15.586-4.17 4.227-9.245 6.339-15.228 6.339a22.43 22.43 0 01-6.655-.981c-2.083-.628-3.796-1.384-5.134-2.278a32.61 32.61 0 01-3.571-2.636 13.595 13.595 0 01-2.191-2.319l-.715-.94 4.111-4.107c.117.179.312.432.578.757.3.357.894.951 1.788 1.787a18.28 18.28 0 002.901 2.232c1.015.657 2.324 1.235 3.933 1.742 1.605.537 3.259.803 4.955.803 4.137 0 7.683-1.53 10.63-4.598 2.977-3.068 4.465-6.864 4.465-11.387zm-24.519-31.486c-2.856 3.097-4.286 6.88-4.286 11.345 0 4.465 1.43 8.248 4.286 11.345 2.889 3.093 6.194 4.643 9.915 4.643 3.962 0 7.383-1.534 10.272-4.601 2.889-3.064 4.332-6.86 4.332-11.387s-1.443-8.322-4.332-11.386c-2.889-3.068-6.31-4.602-10.272-4.602-3.721 0-7.026 1.55-9.915 4.643zm84.448 14.65l-35.681-.091c.237 3.961 1.859 7.383 4.868 10.272 3.035 2.889 6.594 4.332 10.672 4.332 2.739 0 5.284-.611 7.636-1.83 2.353-1.222 4.02-2.444 5.001-3.662l1.564-1.788 4.107 4.108c-.262.348-.53.691-.803 1.031-.328.415-1.072 1.143-2.232 2.186a24.05 24.05 0 01-3.708 2.723c-1.31.773-3.022 1.505-5.134 2.191-2.081.653-4.25.984-6.431.981-5.982 0-11.133-2.22-15.452-6.655-4.315-4.465-6.473-9.869-6.473-16.209 0-6.344 2.129-11.731 6.385-16.167 4.286-4.465 9.317-6.697 15.095-6.697 5.982 0 10.983 2.082 15.003 6.252 4.02 4.136 6.028 9.379 6.028 15.718l-.445 3.305zm-10.763-15.406c-2.71-2.59-5.982-3.887-9.823-3.887s-7.192 1.355-10.048 4.066c-2.86 2.71-4.539 5.923-5.047 9.644h29.741c-.474-3.958-2.083-7.233-4.823-9.823zm75.249 14.824h8.214v6.431h-8.214v13.71h-6.881v-13.71h-32.463v-7.77l30.68-42.556h8.664v43.895zm-6.881 0v-36.125l-26.031 36.125h26.031zm36.172-31.349c-3.692 4.706-5.538 11.212-5.538 19.518 0 8.273 1.846 14.766 5.538 19.468 3.691 4.676 8.131 7.013 13.311 7.013 5.117 0 9.511-2.353 13.174-7.059 3.658-4.731 5.491-11.22 5.491-19.468 0-8.306-1.845-14.795-5.537-19.472-3.692-4.702-8.098-7.054-13.22-7.054-5.121 0-9.528 2.352-13.219 7.054zm31.261-4.373c5.059 6.011 7.591 13.959 7.591 23.845 0 9.882-2.515 17.847-7.545 23.891-5.034 6.016-11.033 9.021-17.996 9.021-7.026 0-13.07-3.005-18.134-9.021-5.03-6.044-7.545-14.009-7.545-23.891 0-9.886 2.532-17.834 7.591-23.845 5.059-6.045 11.062-9.067 17.996-9.067 6.968 0 12.983 3.022 18.042 9.067zm55.107 35.722h8.215v6.431h-8.215v13.71h-6.876v-13.71h-32.467v-7.77l30.68-42.556h8.663v43.895zm-6.876 0v-36.125l-26.036 36.125h26.036z" fill="#fff" fill-rule="nonzero"/><path d="M156.385-11.606V52.43H150v-64.036h6.385zm53.989 44.477l-35.681-.092c.237 3.962 1.863 7.384 4.868 10.273 3.035 2.889 6.594 4.331 10.672 4.331 2.743 0 5.288-.611 7.636-1.829 2.353-1.222 4.02-2.44 5.001-3.662l1.563-1.788 4.112 4.108c-.179.241-.449.582-.807 1.026-.324.416-1.068 1.148-2.232 2.191a24.529 24.529 0 01-3.704 2.723c-1.31.773-3.022 1.505-5.138 2.187-2.081.655-4.25.988-6.431.985-5.982 0-11.133-2.22-15.448-6.651-4.319-4.469-6.477-9.874-6.477-16.213 0-6.34 2.128-11.732 6.385-16.167 4.286-4.465 9.321-6.697 15.095-6.697 5.986 0 10.987 2.082 15.007 6.252 4.016 4.136 6.028 9.378 6.028 15.718l-.449 3.305zm-10.763-15.406c-2.706-2.59-5.986-3.887-9.823-3.887-3.841 0-7.192 1.355-10.048 4.065-2.86 2.711-4.539 5.924-5.047 9.645h29.74c-.473-3.958-2.078-7.234-4.822-9.823zm32.243 9.823l16.924-2.769c0-3.242-1.027-5.878-3.077-7.902-2.057-2.025-4.693-3.035-7.907-3.035-2.323 0-4.51.532-6.568 1.604-2.02 1.04-3.492 2.112-4.419 3.218l-1.384 1.559-4.107-4.107c.178-.237.415-.536.715-.894.328-.387 1.01-1.039 2.053-1.962a26.43 26.43 0 013.351-2.548c1.16-.745 2.677-1.397 4.552-1.963a19.354 19.354 0 015.807-.893c5.001 0 9.138 1.621 12.414 4.863 3.305 3.247 4.959 7.267 4.959 12.06V52.43h-6.389v-5.94c-.183.262-.377.516-.582.76a18.7 18.7 0 01-1.692 1.651A19.742 19.742 0 01243.689 51a17.524 17.524 0 01-4.02 1.609c-1.655.479-3.369.72-5.092.715-4.373 0-8.065-1.297-11.075-3.887-2.976-2.59-4.465-5.55-4.465-8.884 0-3.662 1.102-6.61 3.305-8.842 2.204-2.266 5.376-3.741 9.512-4.423zm2.723 20.095c4.14 0 7.533-1.355 10.185-4.061 2.677-2.711 4.016-6.223 4.016-10.543v-2.768l-15.091 2.768c-5.479 1.044-8.231 3.634-8.264 7.774 0 1.962.806 3.6 2.411 4.91 1.638 1.28 3.887 1.92 6.743 1.92zm53.456 5.047h-6.385L263.785 8.531h6.876l14.2 35.19 14.155-35.19h6.881L288.033 52.43zm65.421-19.559l-35.681-.092c.237 3.962 1.863 7.384 4.868 10.273 3.035 2.889 6.594 4.331 10.672 4.331 2.743 0 5.288-.611 7.636-1.829 2.353-1.222 4.02-2.44 5.001-3.662l1.564-1.788 4.111 4.108c-.179.241-.449.582-.807 1.026-.324.416-1.072 1.148-2.232 2.191a24.478 24.478 0 01-3.704 2.723c-1.314.773-3.022 1.505-5.138 2.187-2.081.655-4.25.988-6.431.985-5.986 0-11.133-2.22-15.448-6.651-4.319-4.469-6.477-9.874-6.477-16.213 0-6.34 2.129-11.732 6.385-16.167 4.286-4.465 9.321-6.697 15.095-6.697 5.986 0 10.987 2.082 15.007 6.252 4.016 4.136 6.028 9.378 6.028 15.718l-.449 3.305zm-10.763-15.406c-2.706-2.59-5.986-3.887-9.823-3.887-3.841 0-7.192 1.355-10.048 4.065-2.86 2.711-4.539 5.924-5.047 9.645h29.741c-.474-3.958-2.079-7.234-4.823-9.823zm44.166-13.486V-6.115h5.94V8.531h9.603v5.945h-9.603v26.077c0 4.581 1.979 6.86 5.941 6.83.981 0 1.949-.12 2.901-.357.981-.237 1.726-.445 2.233-.624l.802-.357v5.94c-1.812.923-3.883 1.368-6.207 1.339-3.783 0-6.742-1.102-8.883-3.305-2.116-2.232-3.172-5.388-3.172-9.466V14.471h-8.26v-5.94h5.042c2.445 0 3.663-1.517 3.663-4.552zm35.68-15.589v26.53c.121-.178.3-.432.537-.76a31.816 31.816 0 011.696-1.788 16.097 16.097 0 016.834-3.974 16.42 16.42 0 015.134-.802c5.3 0 9.586 1.712 12.862 5.134 3.305 3.425 4.955 7.965 4.955 13.623V52.43h-6.385V26.353c0-3.842-1.114-6.922-3.346-9.246-2.233-2.353-5.093-3.529-8.577-3.529-3.899 0-7.158 1.372-9.777 4.111-2.623 2.735-3.933 6.236-3.933 10.493V52.43h-6.385v-64.036h6.385v-.004zm46.668 64.04V8.531h6.386V52.43h-6.386zm.225-55.597a4.082 4.082 0 01-1.164-2.948c0-1.164.386-2.128 1.164-2.901a4.004 4.004 0 012.947-1.206c1.16 0 2.129.399 2.902 1.206a3.867 3.867 0 011.205 2.901c0 1.164-.403 2.145-1.205 2.948a3.942 3.942 0 01-2.902 1.164 4.088 4.088 0 01-2.947-1.164zm47.378 16.745l-4.597 4.556a8.981 8.981 0 00-1.073-1.247c-.449-.507-1.505-1.181-3.172-2.012a11.484 11.484 0 00-5.358-1.297c-2.44 0-4.419.64-5.941 1.92-1.517 1.281-2.278 2.769-2.278 4.465 0 1.758.819 3.172 2.457 4.24 1.638 1.077 3.617 1.938 5.94 2.594a90.052 90.052 0 016.968 2.187c2.3.789 4.349 2.177 5.936 4.02 1.638 1.846 2.457 4.211 2.457 7.1 0 3.783-1.442 6.939-4.332 9.466-2.885 2.503-6.772 3.754-11.652 3.754a21.06 21.06 0 01-5.895-.806 18.297 18.297 0 01-4.51-1.917 28.267 28.267 0 01-3.127-2.232 16.073 16.073 0 01-1.92-1.967l-.582-.848 4.602-4.556c.116.179.283.416.49.715.208.266.67.773 1.385 1.517a21.245 21.245 0 002.365 1.967c.836.565 1.904 1.072 3.218 1.517 1.309.445 2.631.669 3.974.669 3.093 0 5.462-.685 7.1-2.053 1.667-1.372 2.499-3.11 2.499-5.226 0-1.816-.832-3.288-2.499-4.419-1.638-1.164-3.621-2.07-5.94-2.727a166.443 166.443 0 01-6.922-2.232 15.2 15.2 0 01-5.986-3.883c-1.634-1.787-2.453-4.078-2.453-6.88 0-3.301 1.384-6.194 4.153-8.663 2.798-2.47 6.294-3.704 10.493-3.704 1.696 0 3.35.207 4.955.623 1.638.387 2.981.877 4.02 1.476a19.871 19.871 0 012.769 1.787c.835.595 1.43 1.069 1.787 1.426l.669.67zm41.351 5.092c-3.184 3.367-4.776 7.308-4.776 11.836 0 4.493 1.592 8.438 4.776 11.831 3.218 3.367 6.806 5.046 10.763 5.046 3.783 0 7.163-1.637 10.14-4.909 3.005-3.305 4.51-7.296 4.51-11.973 0-4.697-1.505-8.688-4.51-11.964-2.977-3.305-6.357-4.959-10.14-4.959-3.957 0-7.545 1.7-10.763 5.092zm-4.776 26.884v26.078h-6.385V8.531h6.385v6.88c.196-.278.404-.547.623-.807.329-.386.969-1.026 1.921-1.916a20.622 20.622 0 013.172-2.37 17.964 17.964 0 014.332-1.874 18.072 18.072 0 015.491-.848c5.6 0 10.497 2.244 14.692 6.742 4.227 4.494 6.343 9.882 6.343 16.168 0 6.252-2.099 11.623-6.298 16.117-4.198 4.469-9.108 6.701-14.737 6.701a18.543 18.543 0 01-5.446-.806 18.672 18.672 0 01-4.377-1.917 28.255 28.255 0 01-3.126-2.232 20.29 20.29 0 01-1.967-1.967l-.623-.848zm57.605-18.266l16.928-2.769c0-3.242-1.027-5.878-3.084-7.902-2.054-2.025-4.69-3.035-7.903-3.035-2.324 0-4.511.532-6.564 1.604-2.025 1.04-3.501 2.112-4.423 3.218l-1.385 1.559-4.107-4.107c.179-.237.416-.536.715-.894.328-.387 1.014-1.039 2.054-1.962a26.636 26.636 0 013.35-2.548c1.16-.745 2.677-1.397 4.556-1.963a19.335 19.335 0 015.804-.893c5.001 0 9.141 1.621 12.413 4.863 3.305 3.247 4.959 7.267 4.959 12.06V52.43h-6.385v-5.94c-.184.261-.378.515-.582.76a18.106 18.106 0 01-1.696 1.651A19.923 19.923 0 01622.824 51a17.515 17.515 0 01-4.02 1.609 18.14 18.14 0 01-5.089.715c-4.377 0-8.069-1.297-11.074-3.887-2.981-2.59-4.469-5.55-4.469-8.884 0-3.662 1.101-6.61 3.305-8.842 2.203-2.266 5.375-3.741 9.511-4.423zm2.727 20.095c4.137 0 7.529-1.355 10.181-4.061 2.677-2.711 4.02-6.223 4.02-10.543v-2.768l-15.094 2.768c-5.48 1.044-8.232 3.634-8.265 7.774 0 1.962.807 3.6 2.415 4.91 1.634 1.28 3.883 1.92 6.743 1.92zm67.163 2.324v-5.495c-.175.256-.354.509-.536.76a17.689 17.689 0 01-1.696 1.788 16.326 16.326 0 01-2.861 2.278c-1.039.624-2.423 1.206-4.153 1.738a18.61 18.61 0 01-5.358.76c-5.537 0-10.36-2.128-14.467-6.385-4.078-4.286-6.119-9.478-6.119-15.585 0-6.103 2.041-11.282 6.119-15.539 4.078-4.291 8.901-6.431 14.467-6.431 1.875 0 3.646.249 5.313.76 1.7.474 3.097 1.081 4.198 1.829 1.102.715 2.042 1.443 2.815 2.187.802.748 1.384 1.355 1.742 1.829l.536.719V8.531h6.431v41.176c0 6.161-2.099 11.358-6.298 15.585-4.17 4.228-9.245 6.34-15.228 6.34-2.255.01-4.499-.32-6.655-.981-2.083-.624-3.796-1.384-5.134-2.278a32.61 32.61 0 01-3.571-2.636 13.556 13.556 0 01-2.191-2.319l-.715-.94 4.111-4.107c.117.179.312.432.578.756.3.358.894.956 1.788 1.788a18.28 18.28 0 002.901 2.232c1.015.657 2.324 1.235 3.933 1.746 1.605.532 3.259.798 4.955.798 4.137 0 7.683-1.529 10.63-4.597 2.977-3.068 4.465-6.86 4.465-11.391v.004zm-24.519-31.482c-2.856 3.093-4.286 6.876-4.286 11.341 0 4.465 1.43 8.248 4.286 11.345 2.889 3.093 6.194 4.643 9.915 4.643 3.962 0 7.383-1.538 10.272-4.602 2.889-3.063 4.332-6.859 4.332-11.386 0-4.523-1.443-8.323-4.332-11.391-2.889-3.063-6.31-4.597-10.272-4.597-3.721 0-7.026 1.55-9.915 4.643v.004zm84.448 14.646l-35.681-.092c.237 3.962 1.859 7.384 4.868 10.273 3.035 2.889 6.594 4.331 10.672 4.331a16.318 16.318 0 007.636-1.829c2.353-1.222 4.02-2.44 5.001-3.662l1.564-1.788 4.107 4.108c-.179.241-.445.582-.803 1.026-.328.416-1.072 1.148-2.232 2.191a24.05 24.05 0 01-3.708 2.723c-1.31.773-3.022 1.505-5.134 2.187-2.081.655-4.25.988-6.431.985-5.982 0-11.133-2.22-15.452-6.651-4.315-4.469-6.473-9.874-6.473-16.213 0-6.34 2.129-11.732 6.385-16.167 4.286-4.465 9.317-6.697 15.095-6.697 5.982 0 10.983 2.082 15.003 6.252 4.02 4.136 6.028 9.378 6.028 15.718l-.445 3.305zm-10.763-15.406c-2.71-2.59-5.982-3.887-9.823-3.887s-7.192 1.355-10.048 4.065c-2.86 2.711-4.539 5.924-5.047 9.645h29.741c-.474-3.958-2.083-7.234-4.823-9.823zm75.249 14.824h8.214v6.431h-8.214v13.71h-6.881V38.72h-32.463v-7.77l30.68-42.556h8.664v43.899-.004zm-6.881 0V-3.837l-26.031 36.126h26.031zM834.584.944c-3.692 4.698-5.538 11.204-5.538 19.514 0 8.272 1.846 14.766 5.538 19.468 3.691 4.672 8.131 7.013 13.311 7.013 5.117 0 9.511-2.353 13.174-7.059 3.658-4.731 5.491-11.224 5.491-19.468 0-8.306-1.845-14.799-5.537-19.472-3.692-4.702-8.098-7.055-13.22-7.055-5.121 0-9.528 2.353-13.219 7.055v.004zm31.261-4.377c5.059 6.011 7.591 13.959 7.591 23.845 0 9.881-2.515 17.847-7.545 23.891-5.034 6.011-11.033 9.021-17.996 9.021-7.026 0-13.07-3.01-18.134-9.021-5.03-6.044-7.545-14.01-7.545-23.891 0-9.886 2.532-17.834 7.591-23.845 5.059-6.045 11.062-9.067 17.996-9.067 6.968 0 12.983 3.022 18.042 9.063v.004zm55.107 35.722h8.215v6.431h-8.215v13.71h-6.876V38.72h-32.467v-7.77l30.68-42.556h8.663v43.899-.004zm-6.876 0V-3.837L888.04 32.289h26.036zm-757.691 64.19v64.037H150V96.479h6.385zm53.989 44.477l-35.681-.091c.237 3.962 1.863 7.383 4.868 10.272 3.035 2.889 6.594 4.332 10.672 4.332 2.743 0 5.288-.611 7.636-1.829 2.353-1.223 4.02-2.441 5.001-3.663l1.563-1.787 4.112 4.107a37.74 37.74 0 01-.807 1.027c-.324.415-1.068 1.147-2.232 2.191a24.523 24.523 0 01-3.704 2.722c-1.31.774-3.022 1.505-5.138 2.187-2.081.656-4.25.988-6.431.985-5.982 0-11.133-2.22-15.448-6.651-4.319-4.469-6.477-9.873-6.477-16.213 0-6.344 2.128-11.731 6.385-16.167 4.286-4.465 9.321-6.697 15.095-6.697 5.986 0 10.987 2.083 15.007 6.252 4.016 4.137 6.028 9.379 6.028 15.718l-.449 3.305zm-10.763-15.406c-2.706-2.59-5.986-3.887-9.823-3.887-3.841 0-7.192 1.355-10.048 4.066-2.86 2.706-4.539 5.924-5.047 9.644h29.74c-.473-3.957-2.078-7.233-4.822-9.823zm32.243 9.823l16.924-2.768c0-3.243-1.027-5.879-3.077-7.903-2.057-2.025-4.693-3.035-7.907-3.035-2.323 0-4.51.532-6.568 1.605-2.02 1.039-3.492 2.116-4.419 3.217l-1.384 1.559-4.107-4.107c.178-.237.415-.536.715-.894.328-.386 1.01-1.039 2.053-1.962a26.43 26.43 0 013.351-2.548c1.16-.744 2.677-1.397 4.552-1.962a19.355 19.355 0 015.807-.894c5.001 0 9.138 1.621 12.414 4.864 3.305 3.246 4.959 7.266 4.959 12.06v27.911h-6.389v-5.941a11.01 11.01 0 01-.582.761 18.689 18.689 0 01-1.692 1.65 19.749 19.749 0 01-2.815 2.1 17.52 17.52 0 01-4.02 1.608c-1.655.479-3.369.72-5.092.715-4.373 0-8.065-1.297-11.075-3.887-2.976-2.589-4.465-5.549-4.465-8.883 0-3.663 1.102-6.61 3.305-8.843 2.204-2.265 5.376-3.741 9.512-4.423zm2.723 20.096c4.14 0 7.533-1.355 10.185-4.062 2.677-2.71 4.016-6.223 4.016-10.542v-2.769l-15.091 2.769c-5.479 1.043-8.231 3.633-8.264 7.774 0 1.962.806 3.6 2.411 4.909 1.638 1.281 3.887 1.921 6.743 1.921zm53.456 5.047h-6.385l-17.863-43.9h6.876l14.2 35.19 14.155-35.19h6.881l-17.864 43.9zm65.421-19.56l-35.681-.091c.237 3.962 1.863 7.383 4.868 10.272 3.035 2.889 6.594 4.332 10.672 4.332 2.743 0 5.288-.611 7.636-1.829 2.353-1.223 4.02-2.441 5.001-3.663l1.564-1.787 4.111 4.107a37.74 37.74 0 01-.807 1.027c-.324.415-1.072 1.147-2.232 2.191a24.473 24.473 0 01-3.704 2.722c-1.314.774-3.022 1.505-5.138 2.187-2.081.656-4.25.988-6.431.985-5.986 0-11.133-2.22-15.448-6.651-4.319-4.469-6.477-9.873-6.477-16.213 0-6.344 2.129-11.731 6.385-16.167 4.286-4.465 9.321-6.697 15.095-6.697 5.986 0 10.987 2.083 15.007 6.252 4.016 4.137 6.028 9.379 6.028 15.718l-.449 3.305zm-10.763-15.406c-2.706-2.59-5.986-3.887-9.823-3.887-3.841 0-7.192 1.355-10.048 4.066-2.86 2.706-4.539 5.924-5.047 9.644h29.741c-.474-3.957-2.079-7.233-4.823-9.823zm44.166-13.486v-10.093h5.94v14.645h9.603v5.945h-9.603v26.078c0 4.581 1.979 6.859 5.941 6.83.981 0 1.949-.121 2.901-.358.981-.237 1.726-.444 2.233-.623l.802-.358v5.941c-1.812.923-3.883 1.367-6.207 1.338-3.783 0-6.742-1.101-8.883-3.305-2.116-2.232-3.172-5.387-3.172-9.465v-26.082h-8.26v-5.941h5.042c2.445 0 3.663-1.517 3.663-4.552zm35.68-15.589v26.531c.121-.179.3-.433.537-.761a32.518 32.518 0 011.696-1.788 16.117 16.117 0 016.834-3.974 16.42 16.42 0 015.134-.802c5.3 0 9.586 1.713 12.862 5.134 3.305 3.425 4.955 7.965 4.955 13.623v26.078h-6.385v-26.078c0-3.841-1.114-6.922-3.346-9.246-2.233-2.352-5.093-3.529-8.577-3.529-3.899 0-7.158 1.372-9.777 4.111-2.623 2.736-3.933 6.236-3.933 10.493v24.249h-6.385V96.479h6.385v-.004zm46.668 64.041v-43.9h6.386v43.9h-6.386zm.225-55.598a4.081 4.081 0 01-1.164-2.947c0-1.164.386-2.129 1.164-2.902a4.004 4.004 0 012.947-1.206c1.16 0 2.129.4 2.902 1.206a3.869 3.869 0 011.205 2.902c0 1.164-.403 2.145-1.205 2.947a3.938 3.938 0 01-2.902 1.164 4.08 4.08 0 01-2.947-1.164zm47.378 16.745l-4.597 4.556a9.04 9.04 0 00-1.073-1.247c-.449-.511-1.505-1.181-3.172-2.012a11.484 11.484 0 00-5.358-1.297c-2.44 0-4.419.64-5.941 1.921-1.517 1.28-2.278 2.768-2.278 4.464 0 1.759.819 3.172 2.457 4.241 1.638 1.076 3.617 1.937 5.94 2.594a89.608 89.608 0 016.968 2.186 13.72 13.72 0 015.936 4.02c1.638 1.846 2.457 4.216 2.457 7.101 0 3.783-1.442 6.938-4.332 9.47-2.885 2.498-6.772 3.749-11.652 3.749a21.023 21.023 0 01-5.895-.806 18.26 18.26 0 01-4.51-1.917 28.301 28.301 0 01-3.127-2.236 16.03 16.03 0 01-1.92-1.962l-.582-.848 4.602-4.557c.116.179.283.416.49.716.208.266.67.773 1.385 1.517a21.235 21.235 0 002.365 1.966c.836.566 1.904 1.073 3.218 1.518 1.309.444 2.631.669 3.974.669 3.093 0 5.462-.686 7.1-2.054 1.667-1.372 2.499-3.109 2.499-5.225 0-1.817-.832-3.289-2.499-4.419-1.638-1.164-3.621-2.071-5.94-2.727a166.457 166.457 0 01-6.922-2.233 15.2 15.2 0 01-5.986-3.883c-1.634-1.787-2.453-4.078-2.453-6.88 0-3.3 1.384-6.194 4.153-8.663 2.798-2.469 6.294-3.704 10.493-3.704 1.696 0 3.35.208 4.955.624 1.638.386 2.981.881 4.02 1.475a19.873 19.873 0 012.769 1.788c.835.594 1.43 1.068 1.787 1.426l.669.669zm41.351 5.093c-3.184 3.367-4.776 7.308-4.776 11.835 0 4.494 1.592 8.439 4.776 11.831 3.218 3.367 6.806 5.047 10.763 5.047 3.783 0 7.163-1.638 10.14-4.91 3.005-3.305 4.51-7.296 4.51-11.972 0-4.698-1.505-8.689-4.51-11.964-2.977-3.305-6.357-4.96-10.14-4.96-3.957 0-7.545 1.696-10.763 5.093zm-4.776 26.884v26.077h-6.385v-63.101h6.385v6.88c.196-.277.404-.546.623-.806.329-.387.969-1.027 1.921-1.921a20.919 20.919 0 013.172-2.365 17.927 17.927 0 014.332-1.875 18.103 18.103 0 015.491-.848c5.6 0 10.497 2.245 14.692 6.743 4.227 4.494 6.343 9.881 6.343 16.167 0 6.252-2.099 11.623-6.298 16.117-4.198 4.469-9.108 6.701-14.737 6.701a18.543 18.543 0 01-5.446-.806 18.672 18.672 0 01-4.377-1.917 28.195 28.195 0 01-3.126-2.236 20.238 20.238 0 01-1.967-1.962l-.623-.848zm57.605-18.267l16.928-2.768c0-3.243-1.027-5.879-3.084-7.903-2.054-2.025-4.69-3.035-7.903-3.035-2.324 0-4.511.532-6.564 1.605-2.025 1.039-3.501 2.116-4.423 3.217l-1.385 1.559-4.107-4.107c.179-.237.416-.536.715-.894.328-.386 1.014-1.039 2.054-1.962a26.636 26.636 0 013.35-2.548c1.16-.744 2.677-1.397 4.556-1.962a19.336 19.336 0 015.804-.894c5.001 0 9.141 1.621 12.413 4.864 3.305 3.246 4.959 7.266 4.959 12.06v27.911h-6.385v-5.941c-.184.261-.378.515-.582.761a18.222 18.222 0 01-1.696 1.65 20.007 20.007 0 01-2.814 2.1c-1.269.7-2.619 1.24-4.02 1.608-1.654.479-3.367.72-5.089.715-4.377 0-8.069-1.297-11.074-3.887-2.981-2.589-4.469-5.549-4.469-8.883 0-3.663 1.101-6.61 3.305-8.843 2.203-2.265 5.375-3.741 9.511-4.423zm2.727 20.096c4.137 0 7.529-1.355 10.181-4.062 2.677-2.71 4.02-6.223 4.02-10.542v-2.769l-15.094 2.769c-5.48 1.043-8.232 3.633-8.265 7.774 0 1.962.807 3.6 2.415 4.909 1.634 1.281 3.883 1.921 6.743 1.921zm67.163 2.324v-5.496c-.175.256-.354.51-.536.761a17.679 17.679 0 01-1.696 1.787 16.234 16.234 0 01-2.861 2.278c-1.039.624-2.423 1.206-4.153 1.742a18.612 18.612 0 01-5.358.757c-5.537 0-10.36-2.129-14.467-6.386-4.078-4.286-6.119-9.478-6.119-15.585 0-6.102 2.041-11.282 6.119-15.539 4.078-4.29 8.901-6.431 14.467-6.431 1.875 0 3.646.249 5.313.757 1.7.478 3.097 1.089 4.198 1.829 1.102.719 2.042 1.446 2.815 2.19.802.749 1.384 1.356 1.742 1.83l.536.719v-6.39h6.431v41.177c0 6.161-2.099 11.357-6.298 15.585-4.17 4.228-9.245 6.339-15.228 6.339a22.334 22.334 0 01-6.655-.981c-2.083-.623-3.796-1.384-5.134-2.278a32.602 32.602 0 01-3.571-2.635 13.562 13.562 0 01-2.191-2.32l-.715-.94 4.111-4.107c.117.179.312.432.578.757.3.357.894.956 1.788 1.787a18.347 18.347 0 002.901 2.233c1.015.656 2.324 1.234 3.933 1.746 1.605.532 3.259.798 4.955.798 4.137 0 7.683-1.53 10.63-4.598 2.977-3.068 4.465-6.859 4.465-11.39v.004zm-24.519-31.482c-2.856 3.093-4.286 6.876-4.286 11.34 0 4.465 1.43 8.248 4.286 11.341 2.889 3.097 6.194 4.648 9.915 4.648 3.962 0 7.383-1.538 10.272-4.602 2.889-3.064 4.332-6.86 4.332-11.387s-1.443-8.322-4.332-11.39c-2.889-3.064-6.31-4.598-10.272-4.598-3.721 0-7.026 1.551-9.915 4.644v.004zm84.448 14.645l-35.681-.091c.237 3.962 1.859 7.383 4.868 10.272 3.035 2.889 6.594 4.332 10.672 4.332 2.656.02 5.278-.608 7.636-1.829 2.353-1.223 4.02-2.441 5.001-3.663l1.564-1.787 4.107 4.107c-.179.241-.445.582-.803 1.027-.328.415-1.072 1.147-2.232 2.191a24.109 24.109 0 01-3.708 2.722c-1.31.774-3.022 1.505-5.134 2.187-2.081.656-4.25.988-6.431.985-5.982 0-11.133-2.22-15.452-6.651-4.315-4.469-6.473-9.873-6.473-16.213 0-6.344 2.129-11.731 6.385-16.167 4.286-4.465 9.317-6.697 15.095-6.697 5.982 0 10.983 2.083 15.003 6.252 4.02 4.137 6.028 9.379 6.028 15.718l-.445 3.305zm-10.763-15.406c-2.71-2.59-5.982-3.887-9.823-3.887s-7.192 1.355-10.048 4.066c-2.86 2.706-4.539 5.924-5.047 9.644h29.741c-.474-3.957-2.083-7.233-4.823-9.823zm75.249 14.824h8.214v6.431h-8.214v13.711h-6.881v-13.711h-32.463v-7.769l30.68-42.557h8.664v43.899-.004zm-6.881 0v-36.125l-26.031 36.125h26.031zm36.172-31.344c-3.692 4.697-5.538 11.203-5.538 19.513 0 8.273 1.846 14.766 5.538 19.468 3.691 4.677 8.131 7.013 13.311 7.013 5.117 0 9.511-2.353 13.174-7.059 3.658-4.731 5.491-11.224 5.491-19.468 0-8.306-1.845-14.799-5.537-19.472-3.692-4.701-8.098-7.054-13.22-7.054-5.121 0-9.528 2.353-13.219 7.054v.005zm31.261-4.378c5.059 6.011 7.591 13.96 7.591 23.845 0 9.882-2.515 17.847-7.545 23.891-5.034 6.016-11.033 9.021-17.996 9.021-7.026 0-13.07-3.009-18.134-9.021-5.03-6.044-7.545-14.009-7.545-23.891 0-9.885 2.532-17.834 7.591-23.845 5.059-6.044 11.062-9.067 17.996-9.067 6.968 0 12.983 3.023 18.042 9.063v.004zm55.107 35.722h8.215v6.431h-8.215v13.711h-6.876v-13.711h-32.467v-7.769l30.68-42.557h8.663v43.899-.004zm-6.876 0v-36.125l-26.036 36.125h26.036zm-757.691 64.191v64.036H150v-64.036h6.385zm53.989 44.477l-35.681-.092c.237 3.962 1.863 7.383 4.868 10.272 3.035 2.89 6.594 4.332 10.672 4.332 2.743 0 5.288-.611 7.636-1.829 2.353-1.222 4.02-2.444 5.001-3.662l1.563-1.788 4.112 4.107c-.179.241-.449.582-.807 1.031-.324.416-1.068 1.143-2.232 2.187a24.529 24.529 0 01-3.704 2.723c-1.31.773-3.022 1.505-5.138 2.186-2.081.656-4.25.988-6.431.986-5.982 0-11.133-2.22-15.448-6.652-4.319-4.469-6.477-9.873-6.477-16.212 0-6.344 2.128-11.732 6.385-16.168 4.286-4.464 9.321-6.697 15.095-6.697 5.986 0 10.987 2.083 15.007 6.253 4.016 4.136 6.028 9.378 6.028 15.718l-.449 3.305zm-10.763-15.407c-2.706-2.59-5.986-3.887-9.823-3.887-3.841 0-7.192 1.356-10.048 4.066-2.86 2.706-4.539 5.924-5.047 9.645h29.74c-.473-3.958-2.078-7.234-4.822-9.824zm32.243 9.824l16.924-2.769c0-3.243-1.027-5.878-3.077-7.903-2.057-2.024-4.693-3.034-7.907-3.034-2.323 0-4.51.532-6.568 1.604-2.02 1.04-3.492 2.112-4.419 3.214l-1.384 1.563-4.107-4.107c.178-.237.415-.537.715-.894.328-.387 1.01-1.04 2.053-1.962a26.345 26.345 0 013.351-2.549c1.16-.744 2.677-1.397 4.552-1.962a19.355 19.355 0 015.807-.894c5.001 0 9.138 1.622 12.414 4.864 3.305 3.247 4.959 7.267 4.959 12.06v27.911h-6.389v-5.941c-.183.263-.377.516-.582.761a18.7 18.7 0 01-1.692 1.651 19.742 19.742 0 01-2.815 2.099 17.524 17.524 0 01-4.02 1.609c-1.655.479-3.369.72-5.092.715-4.373 0-8.065-1.297-11.075-3.887-2.976-2.59-4.465-5.55-4.465-8.884 0-3.662 1.102-6.61 3.305-8.842 2.204-2.266 5.376-3.742 9.512-4.423zm2.723 20.095c4.14 0 7.533-1.355 10.185-4.061 2.677-2.711 4.016-6.224 4.016-10.543v-2.768l-15.091 2.768c-5.479 1.044-8.231 3.634-8.264 7.774 0 1.962.806 3.6 2.411 4.91 1.638 1.28 3.887 1.92 6.743 1.92zm53.456 5.047h-6.385l-17.863-43.899h6.876l14.2 35.19 14.155-35.19h6.881l-17.864 43.899zm65.421-19.559l-35.681-.092c.237 3.962 1.863 7.383 4.868 10.272 3.035 2.89 6.594 4.332 10.672 4.332 2.743 0 5.288-.611 7.636-1.829 2.353-1.222 4.02-2.444 5.001-3.662l1.564-1.788 4.111 4.107c-.179.241-.449.582-.807 1.031-.324.416-1.072 1.143-2.232 2.187a24.478 24.478 0 01-3.704 2.723c-1.314.773-3.022 1.505-5.138 2.186-2.081.656-4.25.988-6.431.986-5.986 0-11.133-2.22-15.448-6.652-4.319-4.469-6.477-9.873-6.477-16.212 0-6.344 2.129-11.732 6.385-16.168 4.286-4.464 9.321-6.697 15.095-6.697 5.986 0 10.987 2.083 15.007 6.253 4.016 4.136 6.028 9.378 6.028 15.718l-.449 3.305zm-10.763-15.407c-2.706-2.59-5.986-3.887-9.823-3.887-3.841 0-7.192 1.356-10.048 4.066-2.86 2.706-4.539 5.924-5.047 9.645h29.741c-.474-3.958-2.079-7.234-4.823-9.824zm44.166-13.485v-10.094h5.94v14.646h9.603v5.944h-9.603v26.078c0 4.581 1.979 6.859 5.941 6.83.981 0 1.949-.12 2.901-.357.981-.237 1.726-.445 2.233-.624l.802-.357v5.94c-1.812.923-3.883 1.368-6.207 1.339-3.783 0-6.742-1.102-8.883-3.305-2.116-2.233-3.172-5.388-3.172-9.466v-26.082h-8.26v-5.94h5.042c2.445 0 3.663-1.518 3.663-4.552zm35.68-15.59v26.531c.121-.179.3-.432.537-.761a32.144 32.144 0 011.696-1.787 16.097 16.097 0 016.834-3.974 16.393 16.393 0 015.134-.803c5.3 0 9.586 1.713 12.862 5.134 3.305 3.426 4.955 7.965 4.955 13.623v26.078h-6.385v-26.078c0-3.841-1.114-6.925-3.346-9.245-2.233-2.353-5.093-3.53-8.577-3.53-3.899 0-7.158 1.372-9.777 4.112-2.623 2.735-3.933 6.236-3.933 10.492v24.249h-6.385v-64.036h6.385v-.005zm46.668 64.041v-43.899h6.386v43.899h-6.386zm.225-55.597a4.083 4.083 0 01-1.164-2.948c0-1.164.386-2.128 1.164-2.902a4.007 4.007 0 012.947-1.205c1.16 0 2.129.399 2.902 1.205a3.869 3.869 0 011.205 2.902c0 1.164-.403 2.145-1.205 2.948a3.937 3.937 0 01-2.902 1.163 4.083 4.083 0 01-2.947-1.163zm47.378 16.744l-4.597 4.557a9.048 9.048 0 00-1.073-1.248c-.449-.511-1.505-1.18-3.172-2.012a11.496 11.496 0 00-5.358-1.297c-2.44 0-4.419.641-5.941 1.921-1.517 1.28-2.278 2.769-2.278 4.465 0 1.758.819 3.172 2.457 4.24 1.638 1.077 3.617 1.937 5.94 2.594a89.62 89.62 0 016.968 2.187c2.3.789 4.349 2.177 5.936 4.02 1.638 1.845 2.457 4.215 2.457 7.1 0 3.783-1.442 6.938-4.332 9.47-2.885 2.498-6.772 3.75-11.652 3.75a21.024 21.024 0 01-5.895-.807 18.256 18.256 0 01-4.51-1.916 28.31 28.31 0 01-3.127-2.237 16.03 16.03 0 01-1.92-1.962l-.582-.848 4.602-4.556c.116.179.283.416.49.715.208.266.67.773 1.385 1.517a21.355 21.355 0 002.365 1.967c.836.565 1.904 1.072 3.218 1.517 1.309.445 2.631.669 3.974.669 3.093 0 5.462-.686 7.1-2.053 1.667-1.372 2.499-3.11 2.499-5.226 0-1.817-.832-3.288-2.499-4.419-1.638-1.164-3.621-2.07-5.94-2.727a167.951 167.951 0 01-6.922-2.232 15.222 15.222 0 01-5.986-3.883c-1.634-1.788-2.453-4.078-2.453-6.88 0-3.301 1.384-6.194 4.153-8.664 2.798-2.469 6.294-3.704 10.493-3.704 1.696 0 3.35.208 4.955.624 1.638.386 2.981.881 4.02 1.476a19.871 19.871 0 012.769 1.787c.835.595 1.43 1.069 1.787 1.426l.669.669zm41.351 5.093c-3.184 3.367-4.776 7.308-4.776 11.835 0 4.494 1.592 8.439 4.776 11.831 3.218 3.368 6.806 5.047 10.763 5.047 3.783 0 7.163-1.638 10.14-4.909 3.005-3.305 4.51-7.296 4.51-11.973 0-4.697-1.505-8.688-4.51-11.964-2.977-3.305-6.357-4.96-10.14-4.96-3.957 0-7.545 1.697-10.763 5.093zm-4.776 26.884v26.078h-6.385v-63.101h6.385v6.88c.196-.278.404-.547.623-.807.329-.386.969-1.027 1.921-1.92.985-.89 2.041-1.68 3.172-2.366a17.967 17.967 0 014.332-1.875 18.103 18.103 0 015.491-.848c5.6 0 10.497 2.245 14.692 6.743 4.227 4.494 6.343 9.882 6.343 16.167 0 6.253-2.099 11.624-6.298 16.117-4.198 4.469-9.108 6.702-14.737 6.702a18.544 18.544 0 01-5.446-.807 18.67 18.67 0 01-4.377-1.916 28.204 28.204 0 01-3.126-2.237 20.238 20.238 0 01-1.967-1.962l-.623-.848zm57.605-18.266l16.928-2.769c0-3.243-1.027-5.878-3.084-7.903-2.054-2.024-4.69-3.034-7.903-3.034-2.324 0-4.511.532-6.564 1.604-2.025 1.04-3.501 2.112-4.423 3.214l-1.385 1.563-4.107-4.107a23 23 0 01.715-.894c.328-.387 1.014-1.04 2.054-1.962a26.55 26.55 0 013.35-2.549c1.16-.744 2.677-1.397 4.556-1.962a19.336 19.336 0 015.804-.894c5.001 0 9.141 1.622 12.413 4.864 3.305 3.247 4.959 7.267 4.959 12.06v27.911h-6.385v-5.941c-.184.262-.378.515-.582.761a18.232 18.232 0 01-1.696 1.651 20 20 0 01-2.814 2.099 17.56 17.56 0 01-4.02 1.609 18.176 18.176 0 01-5.089.715c-4.377 0-8.069-1.297-11.074-3.887-2.981-2.59-4.469-5.55-4.469-8.884 0-3.662 1.101-6.61 3.305-8.842 2.203-2.266 5.375-3.742 9.511-4.423zm2.727 20.095c4.137 0 7.529-1.355 10.181-4.061 2.677-2.711 4.02-6.224 4.02-10.543v-2.768l-15.094 2.768c-5.48 1.044-8.232 3.634-8.265 7.774 0 1.962.807 3.6 2.415 4.91 1.634 1.28 3.883 1.92 6.743 1.92zm67.163 2.324v-5.496c-.175.257-.354.51-.536.761a17.689 17.689 0 01-1.696 1.788 16.326 16.326 0 01-2.861 2.278c-1.039.623-2.423 1.205-4.153 1.742a18.646 18.646 0 01-5.358.756c-5.537 0-10.36-2.128-14.467-6.385-4.078-4.286-6.119-9.478-6.119-15.585 0-6.103 2.041-11.283 6.119-15.54 4.078-4.29 8.901-6.431 14.467-6.431 1.875 0 3.646.25 5.313.757 1.7.478 3.097 1.089 4.198 1.829 1.102.719 2.042 1.447 2.815 2.191.802.748 1.384 1.355 1.742 1.829l.536.719v-6.389h6.431v41.176c0 6.161-2.099 11.357-6.298 15.585-4.17 4.228-9.245 6.34-15.228 6.34a22.398 22.398 0 01-6.655-.981c-2.083-.624-3.796-1.385-5.134-2.278a32.61 32.61 0 01-3.571-2.636 13.526 13.526 0 01-2.191-2.32l-.715-.939 4.111-4.108c.117.179.312.433.578.757.3.358.894.956 1.788 1.788a18.399 18.399 0 002.901 2.232c1.015.657 2.324 1.235 3.933 1.746 1.605.532 3.259.798 4.955.798 4.137 0 7.683-1.53 10.63-4.598 2.977-3.068 4.465-6.859 4.465-11.39v.004zm-24.519-31.482c-2.856 3.093-4.286 6.876-4.286 11.341 0 4.464 1.43 8.247 4.286 11.34 2.889 3.097 6.194 4.648 9.915 4.648 3.962 0 7.383-1.538 10.272-4.602 2.889-3.064 4.332-6.859 4.332-11.386 0-4.523-1.443-8.323-4.332-11.391-2.889-3.064-6.31-4.598-10.272-4.598-3.721 0-7.026 1.551-9.915 4.644v.004zm84.448 14.646l-35.681-.092c.237 3.962 1.859 7.383 4.868 10.272 3.035 2.89 6.594 4.332 10.672 4.332 2.656.02 5.278-.608 7.636-1.829 2.353-1.222 4.02-2.444 5.001-3.662l1.564-1.788 4.107 4.107c-.179.241-.445.582-.803 1.031-.328.416-1.072 1.143-2.232 2.187a24.05 24.05 0 01-3.708 2.723c-1.31.773-3.022 1.505-5.134 2.186-2.081.656-4.25.988-6.431.986-5.982 0-11.133-2.22-15.452-6.652-4.315-4.469-6.473-9.873-6.473-16.212 0-6.344 2.129-11.732 6.385-16.168 4.286-4.464 9.317-6.697 15.095-6.697 5.982 0 10.983 2.083 15.003 6.253 4.02 4.136 6.028 9.378 6.028 15.718l-.445 3.305zm-10.763-15.407c-2.71-2.59-5.982-3.887-9.823-3.887s-7.192 1.356-10.048 4.066c-2.86 2.706-4.539 5.924-5.047 9.645h29.741c-.474-3.958-2.083-7.234-4.823-9.824zm75.249 14.825h8.214v6.431h-8.214v13.71h-6.881v-13.71h-32.463v-7.77l30.68-42.556h8.664v43.899-.004zm-6.881 0v-36.126l-26.031 36.126h26.031zm36.172-31.345c-3.692 4.697-5.538 11.203-5.538 19.513 0 8.273 1.846 14.767 5.538 19.468 3.691 4.673 8.131 7.013 13.311 7.013 5.117 0 9.511-2.353 13.174-7.058 3.658-4.731 5.491-11.225 5.491-19.468 0-8.306-1.845-14.8-5.537-19.472-3.692-4.702-8.098-7.055-13.22-7.055-5.121 0-9.528 2.353-13.219 7.055v.004zm31.261-4.378c5.059 6.012 7.591 13.96 7.591 23.846 0 9.881-2.515 17.846-7.545 23.891-5.034 6.015-11.033 9.021-17.996 9.021-7.026 0-13.07-3.01-18.134-9.021-5.03-6.045-7.545-14.01-7.545-23.891 0-9.886 2.532-17.834 7.591-23.846 5.059-6.044 11.062-9.066 17.996-9.066 6.968 0 12.983 3.022 18.042 9.062v.004zm55.107 35.723h8.215v6.431h-8.215v13.71h-6.876v-13.71h-32.467v-7.77l30.68-42.556h8.663v43.899-.004zm-6.876 0v-36.126L888.04 248.46h26.036zm-757.691 64.19v64.036H150V312.65h6.385zm53.989 44.477l-35.681-.091c.237 3.961 1.863 7.383 4.868 10.272 3.035 2.889 6.594 4.332 10.672 4.332 2.743 0 5.288-.612 7.636-1.83 2.353-1.222 4.02-2.444 5.001-3.662l1.563-1.788 4.112 4.108c-.179.241-.449.582-.807 1.031-.324.415-1.068 1.143-2.232 2.186a24.529 24.529 0 01-3.704 2.723c-1.31.773-3.022 1.505-5.138 2.187-2.081.655-4.25.988-6.431.985-5.982 0-11.133-2.22-15.448-6.651-4.319-4.469-6.477-9.873-6.477-16.213 0-6.344 2.128-11.732 6.385-16.167 4.286-4.465 9.321-6.697 15.095-6.697 5.986 0 10.987 2.082 15.007 6.252 4.016 4.136 6.028 9.378 6.028 15.718l-.449 3.305zm-10.763-15.406c-2.706-2.59-5.986-3.887-9.823-3.887-3.841 0-7.192 1.355-10.048 4.065-2.86 2.707-4.539 5.924-5.047 9.645h29.74c-.473-3.958-2.078-7.233-4.822-9.823zm32.243 9.823l16.924-2.769c0-3.242-1.027-5.878-3.077-7.902-2.057-2.025-4.693-3.035-7.907-3.035-2.323 0-4.51.532-6.568 1.605-2.02 1.039-3.492 2.111-4.419 3.213l-1.384 1.563-4.107-4.107c.178-.237.415-.536.715-.894.328-.386 1.01-1.039 2.053-1.962a26.43 26.43 0 013.351-2.548c1.16-.744 2.677-1.397 4.552-1.963a19.354 19.354 0 015.807-.893c5.001 0 9.138 1.621 12.414 4.864 3.305 3.246 4.959 7.266 4.959 12.059v27.911h-6.389v-5.94a11.01 11.01 0 01-.582.761 18.824 18.824 0 01-1.692 1.65 19.667 19.667 0 01-2.815 2.099 17.479 17.479 0 01-4.02 1.609c-1.655.479-3.369.72-5.092.715-4.373 0-8.065-1.297-11.075-3.887-2.976-2.59-4.465-5.55-4.465-8.884 0-3.662 1.102-6.609 3.305-8.842 2.204-2.265 5.376-3.741 9.512-4.423zm2.723 20.096c4.14 0 7.533-1.356 10.185-4.062 2.677-2.71 4.016-6.223 4.016-10.542v-2.769l-15.091 2.769c-5.479 1.043-8.231 3.633-8.264 7.773 0 1.963.806 3.6 2.411 4.91 1.638 1.28 3.887 1.921 6.743 1.921zm53.456 5.046h-6.385l-17.863-43.899h6.876l14.2 35.19 14.155-35.19h6.881l-17.864 43.899zm65.421-19.559l-35.681-.091c.237 3.961 1.863 7.383 4.868 10.272 3.035 2.889 6.594 4.332 10.672 4.332 2.743 0 5.288-.612 7.636-1.83 2.353-1.222 4.02-2.444 5.001-3.662l1.564-1.788 4.111 4.108c-.179.241-.449.582-.807 1.031-.324.415-1.072 1.143-2.232 2.186a24.478 24.478 0 01-3.704 2.723c-1.314.773-3.022 1.505-5.138 2.187-2.081.655-4.25.988-6.431.985-5.986 0-11.133-2.22-15.448-6.651-4.319-4.469-6.477-9.873-6.477-16.213 0-6.344 2.129-11.732 6.385-16.167 4.286-4.465 9.321-6.697 15.095-6.697 5.986 0 10.987 2.082 15.007 6.252 4.016 4.136 6.028 9.378 6.028 15.718l-.449 3.305zm-10.763-15.406c-2.706-2.59-5.986-3.887-9.823-3.887-3.841 0-7.192 1.355-10.048 4.065-2.86 2.707-4.539 5.924-5.047 9.645h29.741c-.474-3.958-2.079-7.233-4.823-9.823zm44.166-13.486v-10.094h5.94v14.646h9.603v5.945h-9.603v26.077c0 4.582 1.979 6.86 5.941 6.831.981 0 1.949-.121 2.901-.358.981-.237 1.726-.445 2.233-.624l.802-.357v5.941c-1.812.922-3.883 1.367-6.207 1.338-3.783 0-6.742-1.102-8.883-3.305-2.116-2.232-3.172-5.387-3.172-9.466v-26.081h-8.26v-5.941h5.042c2.445 0 3.663-1.517 3.663-4.552zm35.68-15.589v26.531c.121-.179.3-.433.537-.761a32.163 32.163 0 011.696-1.788 16.097 16.097 0 016.834-3.974 16.42 16.42 0 015.134-.802c5.3 0 9.586 1.712 12.862 5.134 3.305 3.425 4.955 7.965 4.955 13.623v26.077h-6.385v-26.077c0-3.842-1.114-6.926-3.346-9.246-2.233-2.353-5.093-3.529-8.577-3.529-3.899 0-7.158 1.372-9.777 4.111-2.623 2.736-3.933 6.236-3.933 10.493v24.248h-6.385V312.65h6.385v-.004zm46.668 64.04v-43.899h6.386v43.899h-6.386zm.225-55.597a4.082 4.082 0 01-1.164-2.948c0-1.164.386-2.128 1.164-2.901a4.004 4.004 0 012.947-1.206c1.16 0 2.129.399 2.902 1.206a3.867 3.867 0 011.205 2.901c0 1.164-.403 2.146-1.205 2.948a3.942 3.942 0 01-2.902 1.164 4.08 4.08 0 01-2.947-1.164zm47.378 16.745l-4.597 4.556a9.04 9.04 0 00-1.073-1.247c-.449-.511-1.505-1.181-3.172-2.012a11.484 11.484 0 00-5.358-1.297c-2.44 0-4.419.64-5.941 1.92-1.517 1.281-2.278 2.769-2.278 4.465 0 1.759.819 3.172 2.457 4.24 1.638 1.077 3.617 1.938 5.94 2.594a90.052 90.052 0 016.968 2.187 13.71 13.71 0 015.936 4.02c1.638 1.846 2.457 4.215 2.457 7.1 0 3.783-1.442 6.939-4.332 9.47-2.885 2.499-6.772 3.75-11.652 3.75a21.06 21.06 0 01-5.895-.806 18.297 18.297 0 01-4.51-1.917 28.434 28.434 0 01-3.127-2.236 16.04 16.04 0 01-1.92-1.963l-.582-.848 4.602-4.556c.116.179.283.416.49.715.208.266.67.773 1.385 1.518a21.345 21.345 0 002.365 1.966c.836.565 1.904 1.072 3.218 1.517 1.309.445 2.631.67 3.974.67 3.093 0 5.462-.686 7.1-2.054 1.667-1.372 2.499-3.11 2.499-5.226 0-1.816-.832-3.288-2.499-4.419-1.638-1.164-3.621-2.07-5.94-2.727a166.443 166.443 0 01-6.922-2.232 15.2 15.2 0 01-5.986-3.883c-1.634-1.787-2.453-4.078-2.453-6.88 0-3.301 1.384-6.194 4.153-8.663 2.798-2.47 6.294-3.704 10.493-3.704 1.696 0 3.35.208 4.955.623 1.638.387 2.981.882 4.02 1.476a19.783 19.783 0 012.769 1.788c.835.594 1.43 1.068 1.787 1.425l.669.67zm41.351 5.092c-3.184 3.368-4.776 7.309-4.776 11.836 0 4.493 1.592 8.439 4.776 11.831 3.218 3.367 6.806 5.047 10.763 5.047 3.783 0 7.163-1.638 10.14-4.91 3.005-3.305 4.51-7.296 4.51-11.973 0-4.697-1.505-8.688-4.51-11.964-2.977-3.305-6.357-4.959-10.14-4.959-3.957 0-7.545 1.7-10.763 5.092zm-4.776 26.884v26.078h-6.385v-63.101h6.385v6.88c.196-.278.404-.547.623-.806.329-.387.969-1.027 1.921-1.921a20.852 20.852 0 013.172-2.365 17.927 17.927 0 014.332-1.875 18.072 18.072 0 015.491-.848c5.6 0 10.497 2.245 14.692 6.743 4.227 4.493 6.343 9.881 6.343 16.167 0 6.252-2.099 11.623-6.298 16.117-4.198 4.469-9.108 6.701-14.737 6.701a18.543 18.543 0 01-5.446-.806 18.672 18.672 0 01-4.377-1.917 28.327 28.327 0 01-3.126-2.236 20.248 20.248 0 01-1.967-1.963l-.623-.848zm57.605-18.266l16.928-2.769c0-3.242-1.027-5.878-3.084-7.902-2.054-2.025-4.69-3.035-7.903-3.035-2.324 0-4.511.532-6.564 1.605-2.025 1.039-3.501 2.111-4.423 3.213l-1.385 1.563-4.107-4.107c.179-.237.416-.536.715-.894.328-.386 1.014-1.039 2.054-1.962a26.636 26.636 0 013.35-2.548c1.16-.744 2.677-1.397 4.556-1.963a19.335 19.335 0 015.804-.893c5.001 0 9.141 1.621 12.413 4.864 3.305 3.246 4.959 7.266 4.959 12.059v27.911h-6.385v-5.94c-.184.261-.378.515-.582.761a18.222 18.222 0 01-1.696 1.65 19.923 19.923 0 01-2.814 2.099 17.515 17.515 0 01-4.02 1.609c-1.654.479-3.367.72-5.089.715-4.377 0-8.069-1.297-11.074-3.887-2.981-2.59-4.469-5.55-4.469-8.884 0-3.662 1.101-6.609 3.305-8.842 2.203-2.265 5.375-3.741 9.511-4.423zm2.727 20.096c4.137 0 7.529-1.356 10.181-4.062 2.677-2.71 4.02-6.223 4.02-10.542v-2.769l-15.094 2.769c-5.48 1.043-8.232 3.633-8.265 7.773 0 1.963.807 3.6 2.415 4.91 1.634 1.28 3.883 1.921 6.743 1.921zm67.163 2.323v-5.495c-.175.256-.354.51-.536.76a17.689 17.689 0 01-1.696 1.788 16.326 16.326 0 01-2.861 2.278c-1.039.624-2.423 1.206-4.153 1.742a18.681 18.681 0 01-5.358.757c-5.537 0-10.36-2.129-14.467-6.386-4.078-4.286-6.119-9.478-6.119-15.585 0-6.103 2.041-11.282 6.119-15.539 4.078-4.286 8.901-6.431 14.467-6.431 1.875 0 3.646.249 5.313.756 1.7.478 3.097 1.089 4.198 1.829 1.102.72 2.042 1.447 2.815 2.191.802.749 1.384 1.355 1.742 1.829l.536.72v-6.39h6.431v41.176c0 6.161-2.099 11.358-6.298 15.585-4.17 4.228-9.245 6.34-15.228 6.34a22.43 22.43 0 01-6.655-.981c-2.083-.628-3.796-1.384-5.134-2.278a32.61 32.61 0 01-3.571-2.636 13.595 13.595 0 01-2.191-2.319l-.715-.94 4.111-4.107c.117.179.312.432.578.756.3.358.894.952 1.788 1.788a18.28 18.28 0 002.901 2.232c1.015.657 2.324 1.235 3.933 1.742 1.605.537 3.259.803 4.955.803 4.137 0 7.683-1.53 10.63-4.598 2.977-3.068 4.465-6.859 4.465-11.391v.004zm-24.519-31.482c-2.856 3.093-4.286 6.876-4.286 11.341 0 4.465 1.43 8.248 4.286 11.341 2.889 3.097 6.194 4.647 9.915 4.647 3.962 0 7.383-1.538 10.272-4.602 2.889-3.063 4.332-6.859 4.332-11.386 0-4.523-1.443-8.322-4.332-11.39-2.889-3.064-6.31-4.598-10.272-4.598-3.721 0-7.026 1.55-9.915 4.647zm84.448 14.646l-35.681-.091c.237 3.961 1.859 7.383 4.868 10.272 3.035 2.889 6.594 4.332 10.672 4.332a16.33 16.33 0 007.636-1.83c2.353-1.222 4.02-2.444 5.001-3.662l1.564-1.788 4.107 4.108c-.179.241-.445.582-.803 1.031-.328.415-1.072 1.143-2.232 2.186a24.05 24.05 0 01-3.708 2.723c-1.31.773-3.022 1.505-5.134 2.187-2.081.655-4.25.988-6.431.985-5.982 0-11.133-2.22-15.452-6.651-4.315-4.469-6.473-9.873-6.473-16.213 0-6.344 2.129-11.732 6.385-16.167 4.286-4.465 9.317-6.697 15.095-6.697 5.982 0 10.983 2.082 15.003 6.252 4.02 4.136 6.028 9.378 6.028 15.718l-.445 3.305zm-10.763-15.406c-2.71-2.59-5.982-3.887-9.823-3.887s-7.192 1.355-10.048 4.065c-2.86 2.707-4.539 5.924-5.047 9.645h29.741c-.474-3.958-2.083-7.233-4.823-9.823zm75.249 14.824h8.214v6.431h-8.214v13.71h-6.881v-13.71h-32.463v-7.77l30.68-42.556h8.664v43.899-.004zm-6.881 0V320.42l-26.031 36.125h26.031zm36.172-31.345c-3.692 4.698-5.538 11.208-5.538 19.514 0 8.273 1.846 14.766 5.538 19.468 3.691 4.672 8.131 7.013 13.311 7.013 5.117 0 9.511-2.353 13.174-7.059 3.658-4.731 5.491-11.224 5.491-19.468 0-8.306-1.845-14.799-5.537-19.472-3.692-4.702-8.098-7.055-13.22-7.055-5.121 0-9.528 2.353-13.219 7.055v.004zm31.261-4.377c5.059 6.011 7.591 13.959 7.591 23.845 0 9.882-2.515 17.847-7.545 23.891-5.034 6.016-11.033 9.021-17.996 9.021-7.026 0-13.07-3.01-18.134-9.021-5.03-6.044-7.545-14.009-7.545-23.891 0-9.886 2.532-17.834 7.591-23.849 5.059-6.041 11.062-9.063 17.996-9.063 6.968 0 12.983 3.022 18.042 9.063v.004zm55.107 35.722h8.215v6.431h-8.215v13.71h-6.876v-13.71h-32.467v-7.77l30.68-42.556h8.663v43.899-.004zm-6.876 0V320.42l-26.036 36.125h26.036zm-757.691 64.19v64.037H150v-64.037h6.385zm53.989 44.477l-35.681-.091c.237 3.962 1.863 7.383 4.868 10.272 3.035 2.889 6.594 4.332 10.672 4.332 2.743 0 5.288-.611 7.636-1.829 2.353-1.222 4.02-2.445 5.001-3.663l1.563-1.787 4.112 4.107c-.179.241-.449.582-.807 1.031-.324.416-1.068 1.143-2.232 2.187a24.38 24.38 0 01-3.704 2.723c-1.31.773-3.022 1.504-5.138 2.19-2.081.653-4.25.984-6.431.981-5.982 0-11.133-2.219-15.448-6.655-4.319-4.465-6.477-9.869-6.477-16.209 0-6.344 2.128-11.731 6.385-16.167 4.286-4.465 9.321-6.697 15.095-6.697 5.986 0 10.987 2.083 15.007 6.252 4.016 4.137 6.028 9.379 6.028 15.718l-.449 3.305zm-10.763-15.406c-2.706-2.59-5.986-3.887-9.823-3.887-3.841 0-7.192 1.355-10.048 4.066-2.86 2.71-4.539 5.924-5.047 9.644h29.74c-.473-3.957-2.078-7.233-4.822-9.823zm32.243 9.823l16.924-2.768c0-3.243-1.027-5.878-3.077-7.903-2.057-2.024-4.693-3.039-7.907-3.039-2.323 0-4.51.536-6.568 1.609-2.02 1.043-3.492 2.112-4.419 3.213l-1.384 1.564-4.107-4.108c.178-.237.415-.536.715-.894.328-.386 1.01-1.039 2.053-1.962a26.43 26.43 0 013.351-2.548c1.16-.744 2.677-1.397 4.552-1.962a19.261 19.261 0 015.807-.894c5.001 0 9.138 1.621 12.414 4.868 3.305 3.243 4.959 7.263 4.959 12.056v27.911h-6.389v-5.941a11.01 11.01 0 01-.582.761 18.302 18.302 0 01-1.692 1.65 19.415 19.415 0 01-2.815 2.1 17.648 17.648 0 01-4.02 1.608c-1.654.48-3.369.721-5.092.715-4.373 0-8.065-1.297-11.075-3.886-2.976-2.59-4.465-5.55-4.465-8.884 0-3.663 1.102-6.61 3.305-8.842 2.204-2.266 5.376-3.738 9.512-4.424zm2.723 20.096c4.14 0 7.533-1.355 10.185-4.062 2.677-2.71 4.016-6.223 4.016-10.542v-2.769l-15.091 2.769c-5.479 1.043-8.231 3.633-8.264 7.774 0 1.962.806 3.6 2.411 4.909 1.638 1.281 3.887 1.921 6.743 1.921zm53.456 5.047h-6.385l-17.863-43.9h6.876l14.2 35.191 14.155-35.191h6.881l-17.864 43.9zm65.421-19.56l-35.681-.091c.237 3.962 1.863 7.383 4.868 10.272 3.035 2.889 6.594 4.332 10.672 4.332 2.743 0 5.288-.611 7.636-1.829 2.353-1.222 4.02-2.445 5.001-3.663l1.564-1.787 4.111 4.107c-.179.241-.449.582-.807 1.031-.324.416-1.072 1.143-2.232 2.187a24.38 24.38 0 01-3.704 2.723c-1.314.773-3.022 1.504-5.138 2.19-2.081.653-4.25.984-6.431.981-5.986 0-11.133-2.219-15.448-6.655-4.319-4.465-6.477-9.869-6.477-16.209 0-6.344 2.129-11.731 6.385-16.167 4.286-4.465 9.321-6.697 15.095-6.697 5.986 0 10.987 2.083 15.007 6.252 4.016 4.137 6.028 9.379 6.028 15.718l-.449 3.305zm-10.763-15.406c-2.706-2.59-5.986-3.887-9.823-3.887-3.841 0-7.192 1.355-10.048 4.066-2.86 2.71-4.539 5.924-5.047 9.644h29.741c-.474-3.957-2.079-7.233-4.823-9.823zm44.166-13.486v-10.093h5.94v14.645h9.603v5.941h-9.603v26.082c0 4.581 1.979 6.859 5.941 6.83.981 0 1.949-.121 2.901-.358.981-.237 1.726-.444 2.233-.623l.802-.358v5.941c-1.812.923-3.883 1.368-6.207 1.338-3.783 0-6.742-1.101-8.883-3.304-2.116-2.233-3.172-5.388-3.172-9.466v-26.082h-8.26v-5.941h5.042c2.445 0 3.663-1.517 3.663-4.552zm35.68-15.585v26.527c.121-.179.3-.432.537-.761.27-.328.835-.923 1.696-1.787a17.009 17.009 0 012.86-2.233c1.01-.652 2.336-1.234 3.974-1.742a16.42 16.42 0 015.134-.802c5.3 0 9.586 1.713 12.862 5.134 3.305 3.426 4.955 7.965 4.955 13.623v26.078h-6.385v-26.078c0-3.841-1.114-6.922-3.346-9.245-2.233-2.353-5.093-3.53-8.577-3.53-3.899 0-7.158 1.372-9.777 4.112-2.623 2.735-3.933 6.235-3.933 10.492v24.249h-6.385v-64.037h6.385zm46.668 64.037v-43.9h6.386v43.9h-6.386zm.225-55.598a4.071 4.071 0 01-1.164-2.947c0-1.16.386-2.129 1.164-2.902a3.988 3.988 0 012.947-1.205c1.16 0 2.129.399 2.902 1.205a3.869 3.869 0 011.205 2.902 4.016 4.016 0 01-1.205 2.947 3.942 3.942 0 01-2.902 1.16 4.087 4.087 0 01-2.947-1.16zm47.378 16.745l-4.597 4.556a9.132 9.132 0 00-1.073-1.251c-.449-.507-1.505-1.176-3.172-2.008a11.484 11.484 0 00-5.358-1.297c-2.44 0-4.419.64-5.941 1.921-1.517 1.28-2.278 2.768-2.278 4.465 0 1.758.819 3.171 2.457 4.244 1.638 1.072 3.617 1.933 5.94 2.59a89.608 89.608 0 016.968 2.186 13.748 13.748 0 015.936 4.02c1.638 1.846 2.457 4.212 2.457 7.101 0 3.783-1.442 6.938-4.332 9.466-2.885 2.502-6.772 3.753-11.652 3.753-2.087 0-4.049-.27-5.895-.806a18.181 18.181 0 01-4.51-1.916 28.31 28.31 0 01-3.127-2.237 15.958 15.958 0 01-1.92-1.962l-.582-.848 4.602-4.556c.116.178.283.415.49.715.208.266.67.773 1.385 1.517a21.235 21.235 0 002.365 1.966c.836.566 1.904 1.073 3.218 1.518 1.309.444 2.631.669 3.974.669 3.093 0 5.462-.686 7.1-2.054 1.667-1.367 2.499-3.109 2.499-5.225 0-1.817-.832-3.288-2.499-4.419-1.638-1.164-3.621-2.07-5.94-2.727a158.425 158.425 0 01-6.922-2.233 15.209 15.209 0 01-5.986-3.882c-1.634-1.788-2.453-4.079-2.453-6.88 0-3.301 1.384-6.19 4.153-8.664 2.798-2.469 6.294-3.704 10.493-3.704 1.696 0 3.35.208 4.955.624 1.638.386 2.981.877 4.02 1.475a20.237 20.237 0 012.769 1.784c.63.431 1.228.909 1.787 1.43l.669.669zm41.351 5.093c-3.184 3.363-4.776 7.308-4.776 11.835 0 4.494 1.592 8.439 4.776 11.831 3.218 3.367 6.806 5.047 10.763 5.047 3.783 0 7.163-1.638 10.14-4.914 3.005-3.301 4.51-7.291 4.51-11.964 0-4.706-1.505-8.697-4.51-11.968-2.977-3.305-6.357-4.96-10.14-4.96-3.957 0-7.545 1.696-10.763 5.093zm-4.776 26.884v26.077h-6.385v-63.101h6.385v6.88c.196-.277.404-.546.623-.806a29.01 29.01 0 011.921-1.921 20.919 20.919 0 013.172-2.365 17.91 17.91 0 014.332-1.875 18.103 18.103 0 015.491-.848c5.6 0 10.497 2.249 14.692 6.743 4.227 4.494 6.343 9.886 6.343 16.167 0 6.248-2.099 11.623-6.298 16.121-4.198 4.465-9.108 6.697-14.737 6.697-1.875 0-3.691-.27-5.446-.806a18.528 18.528 0 01-4.377-1.916 28.204 28.204 0 01-3.126-2.237 20.238 20.238 0 01-1.967-1.962l-.623-.848zm57.605-18.267l16.928-2.768c0-3.243-1.027-5.878-3.084-7.903-2.054-2.024-4.69-3.039-7.903-3.039-2.324 0-4.511.536-6.564 1.609-2.025 1.043-3.501 2.112-4.423 3.213l-1.385 1.564-4.107-4.108c.179-.237.416-.536.715-.894.328-.386 1.014-1.039 2.054-1.962a26.636 26.636 0 013.35-2.548c1.16-.744 2.677-1.397 4.556-1.962a19.242 19.242 0 015.804-.894c5.001 0 9.141 1.621 12.413 4.868 3.305 3.243 4.959 7.263 4.959 12.056v27.911h-6.385v-5.941c-.184.261-.378.515-.582.761a17.851 17.851 0 01-1.696 1.65 19.534 19.534 0 01-2.814 2.1 17.648 17.648 0 01-4.02 1.608 18.03 18.03 0 01-5.089.715c-4.377 0-8.069-1.297-11.074-3.886-2.981-2.59-4.469-5.55-4.469-8.884 0-3.663 1.101-6.61 3.305-8.842 2.203-2.266 5.375-3.738 9.511-4.424zm2.727 20.096c4.137 0 7.529-1.355 10.181-4.062 2.677-2.71 4.02-6.223 4.02-10.542v-2.769l-15.094 2.769c-5.48 1.043-8.232 3.633-8.265 7.774 0 1.962.807 3.6 2.415 4.909 1.634 1.281 3.883 1.921 6.743 1.921zm67.163 2.324v-5.496c-.175.256-.354.51-.536.761a17.679 17.679 0 01-1.696 1.787 16.45 16.45 0 01-2.861 2.278 19.325 19.325 0 01-9.511 2.499c-5.537 0-10.36-2.129-14.467-6.385-4.078-4.286-6.119-9.483-6.119-15.586 0-6.102 2.041-11.282 6.119-15.539 4.078-4.29 8.901-6.431 14.467-6.431 1.875 0 3.646.254 5.313.757 1.7.478 3.097 1.089 4.198 1.833 1.102.715 2.042 1.442 2.815 2.187.802.744 1.384 1.355 1.742 1.833l.536.715v-6.39h6.431v41.177c0 6.161-2.099 11.357-6.298 15.585-4.17 4.228-9.245 6.339-15.228 6.339a22.398 22.398 0 01-6.655-.981c-2.083-.627-3.796-1.384-5.134-2.278a32.602 32.602 0 01-3.571-2.635 13.639 13.639 0 01-2.191-2.32l-.715-.94 4.111-4.107c.117.179.312.433.578.757.3.357.894.952 1.788 1.787a18.347 18.347 0 002.901 2.233c1.015.657 2.324 1.234 3.933 1.742a15.55 15.55 0 004.955.802c4.137 0 7.683-1.53 10.63-4.598 2.977-3.068 4.465-6.863 4.465-11.386zm-24.519-31.486c-2.856 3.097-4.286 6.88-4.286 11.344 0 4.465 1.43 8.248 4.286 11.345 2.889 3.093 6.194 4.644 9.915 4.644 3.962 0 7.383-1.534 10.272-4.602 2.889-3.064 4.332-6.859 4.332-11.387 0-4.527-1.443-8.322-4.332-11.386-2.889-3.068-6.31-4.602-10.272-4.602-3.721 0-7.026 1.551-9.915 4.644zm84.448 14.649l-35.681-.091c.237 3.962 1.859 7.383 4.868 10.272 3.035 2.889 6.594 4.332 10.672 4.332 2.739 0 5.284-.611 7.636-1.829 2.353-1.222 4.02-2.445 5.001-3.663l1.564-1.787 4.107 4.107c-.262.348-.53.692-.803 1.031-.328.416-1.072 1.143-2.232 2.187a24.181 24.181 0 01-3.708 2.723c-1.31.773-3.022 1.504-5.134 2.19-2.081.653-4.25.984-6.431.981-5.982 0-11.133-2.219-15.452-6.655-4.315-4.465-6.473-9.869-6.473-16.209 0-6.344 2.129-11.731 6.385-16.167 4.286-4.465 9.317-6.697 15.095-6.697 5.982 0 10.983 2.083 15.003 6.252 4.02 4.137 6.028 9.379 6.028 15.718l-.445 3.305zm-10.763-15.406c-2.71-2.59-5.982-3.887-9.823-3.887s-7.192 1.355-10.048 4.066c-2.86 2.71-4.539 5.924-5.047 9.644h29.741c-.474-3.957-2.083-7.233-4.823-9.823zm75.249 14.824h8.214v6.431h-8.214v13.711h-6.881v-13.711h-32.463v-7.769l30.68-42.557h8.664v43.895zm-6.881 0v-36.125l-26.031 36.125h26.031zm36.172-31.349c-3.692 4.706-5.538 11.212-5.538 19.518 0 8.273 1.846 14.766 5.538 19.468 3.691 4.677 8.131 7.013 13.311 7.013 5.117 0 9.511-2.353 13.174-7.059 3.658-4.73 5.491-11.22 5.491-19.468 0-8.305-1.845-14.795-5.537-19.472-3.692-4.701-8.098-7.054-13.22-7.054-5.121 0-9.528 2.353-13.219 7.054zm31.261-4.373c5.059 6.011 7.591 13.96 7.591 23.845 0 9.882-2.515 17.847-7.545 23.892-5.034 6.015-11.033 9.02-17.996 9.02-7.026 0-13.07-3.005-18.134-9.02-5.03-6.045-7.545-14.01-7.545-23.892 0-9.885 2.532-17.834 7.591-23.845 5.059-6.044 11.062-9.067 17.996-9.067 6.968 0 12.983 3.023 18.042 9.067zm55.107 35.722h8.215v6.431h-8.215v13.711h-6.876v-13.711h-32.467v-7.769l30.68-42.557h8.663v43.895zm-6.876 0v-36.125L888.04 464.63h26.036z" fill="#fff" fill-rule="nonzero"/></svg>