<svg viewBox="0 0 77 241" fill="none" xmlns="http://www.w3.org/2000/svg"><path d="M1.531 15.162V28.23h73.206V12.558H21.44V0h-9.955c-.272 2.246-.8 4.305-1.582 6.177-.817 1.872-1.685 3.318-2.604 4.34-.919 1.054-1.804 1.94-2.654 2.654-.885.748-1.634 1.276-2.247 1.582l-.868.409zM20.369 63.76c4.186-3.096 10.108-4.645 17.765-4.645s13.58 1.549 17.765 4.646c4.186 3.097 6.28 6.773 6.28 11.027s-2.094 7.93-6.28 11.026c-4.186 3.097-10.108 4.646-17.765 4.646s-13.58-1.549-17.765-4.646c-4.186-3.097-6.28-6.772-6.28-11.026s2.094-7.93 6.28-11.027zm-9.853 33.234c6.977 6.092 16.183 9.138 27.618 9.138 11.435 0 20.658-3.046 27.669-9.138 7.01-6.092 10.516-13.494 10.516-22.206 0-8.713-3.505-16.115-10.516-22.207-7.01-6.092-16.234-9.138-27.669-9.138-11.435 0-20.641 3.046-27.618 9.138C3.506 58.673 0 66.075 0 74.788 0 83.5 3.505 90.902 10.516 96.994zM36.041 154.782c.136.341.34.8.613 1.379.238.612.85 1.667 1.837 3.165a18.67 18.67 0 003.319 3.931c1.259 1.157 3.011 2.212 5.258 3.165 2.212.953 4.645 1.429 7.3 1.429 5.99 0 11.146-2.501 15.468-7.504 4.322-4.969 6.483-11.537 6.483-19.705 0-3.472-.408-6.824-1.225-10.057-.783-3.199-1.736-5.82-2.859-7.862s-2.229-3.846-3.318-5.411c-1.123-1.532-2.11-2.638-2.96-3.318l-1.175-1.072-9.904 9.444c.205.136.494.357.868.664.34.306.97 1.003 1.889 2.093a29.444 29.444 0 012.4 3.42c.68 1.225 1.293 2.774 1.837 4.645.545 1.906.817 3.863.817 5.871 0 4.05-.885 7.147-2.655 9.291-1.77 2.178-4.016 3.267-6.738 3.267-2.723 0-4.97-1.072-6.739-3.216-1.77-2.11-2.654-5.037-2.654-8.78v-7.862H30.834v7.3c0 3.063-.817 5.479-2.45 7.249-1.634 1.804-3.778 2.706-6.433 2.706-2.45 0-4.458-.885-6.024-2.655-1.565-1.77-2.348-4.203-2.348-7.3 0-2.654.579-5.156 1.736-7.504 1.157-2.314 2.28-3.982 3.37-5.003l1.684-1.583-9.393-9.393a24 24 0 00-1.123.919c-.51.409-1.413 1.378-2.706 2.91a28.364 28.364 0 00-3.318 5.003c-.953 1.77-1.821 4.118-2.604 7.045C.408 134.38 0 137.443 0 140.642c0 7.385 1.957 13.324 5.87 17.816 3.88 4.492 8.713 6.738 14.499 6.738 2.144 0 4.152-.374 6.024-1.123 1.837-.714 3.335-1.582 4.492-2.603 1.157-.987 2.144-1.991 2.96-3.012.784-.987 1.345-1.872 1.686-2.655l.51-1.021zM20.369 198.123c4.186-3.097 10.108-4.645 17.765-4.645s13.58 1.548 17.765 4.645c4.186 3.097 6.28 6.773 6.28 11.027s-2.094 7.93-6.28 11.027c-4.186 3.097-10.108 4.645-17.765 4.645s-13.58-1.548-17.765-4.645c-4.186-3.097-6.28-6.773-6.28-11.027s2.094-7.93 6.28-11.027zm-9.853 33.234c6.977 6.092 16.183 9.138 27.618 9.138 11.435 0 20.658-3.046 27.669-9.138 7.01-6.092 10.516-13.494 10.516-22.207 0-8.712-3.505-16.114-10.516-22.206-7.01-6.092-16.234-9.138-27.669-9.138-11.435 0-20.641 3.046-27.618 9.138C3.506 193.036 0 200.438 0 209.15c0 8.713 3.505 16.115 10.516 22.207z" fill="#000"/></svg>