<svg width="32" height="229" fill="none" xmlns="http://www.w3.org/2000/svg"><path d="M0 228.315c8.437-.975 15.46-3.899 21.066-8.771 7.011-6.092 10.517-13.494 10.517-22.207 0-8.712-3.506-16.115-10.517-22.206-5.607-4.873-12.629-7.797-21.066-8.772v15.75c4.55.661 8.27 2.062 11.163 4.201 4.186 3.097 6.279 6.773 6.279 11.027s-2.093 7.93-6.28 11.027c-2.892 2.14-6.613 3.54-11.162 4.202v15.749zM0 153.487a25.89 25.89 0 002.331 1.122c2.212.952 4.646 1.429 7.3 1.429 5.99 0 11.146-2.501 15.468-7.504 4.322-4.969 6.483-11.538 6.483-19.705 0-3.472-.408-6.824-1.225-10.057-.782-3.199-1.735-5.82-2.858-7.862s-2.23-3.846-3.319-5.411c-1.123-1.532-2.11-2.638-2.96-3.318l-1.175-1.072-9.903 9.444c.204.136.493.357.868.663.34.307.97 1.004 1.888 2.093a29.541 29.541 0 012.4 3.421c.68 1.225 1.293 2.773 1.838 4.645.544 1.906.816 3.863.816 5.871 0 4.05-.885 7.147-2.654 9.291-1.77 2.178-4.016 3.267-6.739 3.267-2.722 0-4.969-1.072-6.738-3.216-.778-.927-1.385-2.012-1.821-3.255v20.154zM0 93.953c8.437-.976 15.46-3.9 21.066-8.772 7.011-6.092 10.517-13.494 10.517-22.206 0-8.713-3.506-16.115-10.517-22.207C15.46 35.896 8.437 32.972 0 31.996v15.75c4.55.661 8.27 2.062 11.163 4.202 4.186 3.097 6.279 6.772 6.279 11.027 0 4.254-2.093 7.93-6.28 11.026C8.27 76.141 4.55 77.541 0 78.203v15.75zM0 16.417h30V.745H0v15.672z" fill="#000"/></svg>