<svg xmlns="http://www.w3.org/2000/svg" width="550" height="812" fill="none" viewBox="0 0 550 812"><path stroke="#262626" stroke-width="1.181" d="M141.723 809.085l-.008-.006c-1.095-.741-57.01-40.898-98.118-111.572C2.504 626.86-23.796 525.73 34.25 402.933c32.61-68.922 59.792-120.527 81.78-161.972v-.001c27.144-51.367 45.828-86.727 56.319-120.133 10.502-33.438 12.791-64.905 7.205-108.5-.24-1.94.066-3.944.892-5.703l.001-.003a10.374 10.374 0 0113.82-5.05h0l.008.005c.932.416 49.486 23.588 99.905 73.12 50.413 49.526 102.666 125.379 111.081 231.174 6.598 84.102 3.17 141.784-3.513 180.941l1.096.391a387.297 387.297 0 0049.92-212.486l-.001-.01-.001-.009a10.496 10.496 0 014.377-9.472c4.676-3.282 11.18-2.153 14.489 2.52.103.155.268.398.491.727 4.218 6.216 29.24 43.099 49.691 96.101 21.553 55.859 38.004 129.56 19.724 204.103l.574.141-.574-.14c-36.165 147.988-148.438 236.037-153.269 239.777-2.572 1.939-5.881 2.612-8.991 1.786-5.57-1.503-8.836-7.226-7.355-12.779.322-1.181 24.789-92.281 30.769-150.541l.13-1.268-1.051.72c-10.69 7.322-24.708 16.606-38.877 24.911-14.177 8.31-28.466 15.616-39.711 19.011-4.227 1.241-8.799-.285-11.387-3.809l-.007-.008-.007-.009c-3.755-4.734-81.866-113.579-78.259-258.679l.031-1.273-.992.798c-21.462 17.264-57.266 53.073-79.262 112.757-21.998 59.692-30.164 143.214 3.577 255.867l.012.041.019.04a10.639 10.639 0 011.025 4.358c.087 5.767-4.503 10.49-10.271 10.579a10.343 10.343 0 01-5.935-1.871zm-88.829-397.25l-.399.844h.162c-42.446 90.286-37.06 167.365-14.388 228.03 22.735 60.834 62.84 105.133 89.443 129.709l1.442 1.332-.468-1.907c-32.935-134.312-5.479-227.335 30.369-286.895 35.246-58.561 78.633-84.819 80.846-86.159l.069-.042a10.127 10.127 0 016.037-1.322l.005.001c5.724.478 9.967 5.528 9.467 11.228l-.001.002c-10.712 128.245 50.788 233.911 68.315 260.835l.265.407.451-.181c16.103-6.476 36.852-19.104 53.625-30.148 16.717-11.009 29.53-20.475 29.935-20.784 1.781-1.323 3.932-2.019 6.176-2.019 5.721 0 10.381 4.678 10.381 10.426 0 37.409-14.125 102.293-23.882 142.698l-.491 2.035 1.483-1.478c35.066-34.951 95.459-106.553 119.325-204.228 24.206-99.338-18.902-199.815-46.379-250.398l-1.028-1.893-.081 2.153A396.952 396.952 0 01372.24 564.374a10.386 10.386 0 01-14.233-.281l-.001-.001c-4.112-4.003-4.179-10.598-.173-14.713l.015-.015.014-.017a46.933 46.933 0 006.774-10.683c12.075-24.249 30.673-86.431 19.377-231.3C371.408 145.279 249.47 57.691 203.099 30.062l-.978-.583.087 1.136c6.124 79.733-17.138 123.772-67.898 219.866l-.05.094h0l-2.448 4.651c-21.339 40.524-47.708 90.601-78.918 156.609z" opacity=".2"/></svg>