<svg xmlns="http://www.w3.org/2000/svg" fill="none" viewBox="0 0 78 11">
  <path fill="#2684FF" d="M.352 1.087a.347.347 0 00-.348.403l1.476 8.96a.473.473 0 00.463.395h7.08a.348.348 0 00.348-.292l1.48-9.06a.348.348 0 00-.348-.403L.353 1.087zm6.215 6.475h-2.26l-.612-3.195h3.42l-.548 3.195z"/>
  <path fill="url(#paint0_linear)" d="M10.378 4.367H7.115l-.548 3.195h-2.26l-2.668 3.17a.471.471 0 00.304.115h7.083a.348.348 0 00.347-.293l1.005-6.187z"/>
  <path fill="#253858" d="M20.322.794c2.05 0 3.044 1.01 3.044 2.633 0 1.217-.55 1.957-1.683 2.234 1.485.245 2.219 1.055 2.219 2.479 0 1.606-1.087 2.708-3.335 2.708h-4.146V.794h3.901zm-2.524 1.317v2.997h2.34c1.3 0 1.836-.597 1.836-1.565s-.58-1.438-1.836-1.438l-2.34.006zm0 4.222v3.13h2.815c1.316 0 1.912-.475 1.912-1.485 0-1.071-.567-1.652-1.942-1.652l-2.785.007zM26.151.259a.859.859 0 01.918.918.918.918 0 11-1.835 0 .857.857 0 01.917-.918zm-.672 2.936h1.316v7.65h-1.316v-7.65zm6.34 6.367c.278-.009.555-.045.826-.108v1.269a3.161 3.161 0 01-.887.122c-1.637 0-2.434-.963-2.434-2.387V4.419h-1.24V3.202h1.24V1.575h1.278v1.622h2.034v1.217h-2.034v4.014c0 .673.398 1.134 1.217 1.134zm6.25 1.436c-1.116 0-1.973-.505-2.434-1.499v1.346h-1.316V0h1.325v4.572c.49-1.01 1.408-1.53 2.585-1.53 2.034 0 3.06 1.728 3.06 3.978-.008 2.157-1.078 3.978-3.22 3.978zm-.2-6.732c-1.182 0-2.225.751-2.225 2.448v.612c0 1.699.963 2.448 2.086 2.448 1.484 0 2.25-.979 2.25-2.754-.014-1.836-.748-2.754-2.111-2.754zm4.789-1.071h1.316v4.628c0 1.377.552 1.99 1.805 1.99 1.217 0 2.065-.811 2.065-2.357v-4.26h1.316v7.649h-1.316V9.59A2.683 2.683 0 0145.428 11c-1.76 0-2.77-1.217-2.77-3.321V3.195zm13.891 7.451c-.46.246-1.163.348-1.867.348-2.723 0-3.999-1.651-3.999-3.998 0-2.31 1.27-3.962 3.999-3.962a4.043 4.043 0 011.823.377v1.217a3.856 3.856 0 00-1.738-.362c-1.989 0-2.799 1.255-2.799 2.738s.833 2.732 2.837 2.732a4.833 4.833 0 001.739-.275l.005 1.185zm1.501.199V0h1.315v6.78l3.29-3.58h1.714l-3.597 3.754 3.748 3.89h-1.79l-3.366-3.579v3.58h-1.315zm10.83.153c-2.861 0-4.115-1.652-4.115-3.999 0-2.31 1.285-3.962 3.61-3.962 2.356 0 3.304 1.638 3.304 3.962v.596h-5.584c.184 1.3 1.026 2.142 2.83 2.142a6.76 6.76 0 002.326-.413v1.216c-.627.336-1.59.458-2.371.458zm-2.799-4.52h4.268c-.077-1.422-.72-2.234-2.034-2.234-1.394-.007-2.097.895-2.234 2.227v.007zm10.188 3.084c.278-.009.554-.045.825-.108v1.269a3.162 3.162 0 01-.886.122c-1.638 0-2.434-.963-2.434-2.387V4.419h-1.24V3.202h1.24V1.575h1.285v1.622h2.034v1.217h-2.034v4.014c.001.673.396 1.134 1.21 1.134z"/>
  <defs>
    <linearGradient id="paint0_linear" x1="11.133" x2="5.74" y1="5.261" y2="9.471" gradientUnits="userSpaceOnUse">
      <stop offset=".18" stop-color="#0052CC"/>
      <stop offset="1" stop-color="#2684FF"/>
    </linearGradient>
  </defs>
</svg>
