<svg xmlns="http://www.w3.org/2000/svg" fill="none" viewBox="0 0 128 20">
  <path fill="#757575" d="M76.232 7.24l1.818 4.773h-3.523l1.705-4.773zm-.682-1.591l-3.977 10.456h1.477l1.023-2.842h4.432l1.023 2.842h1.478L77.028 5.649h-1.477zm21.48 10.456h1.363V5.649H97.03v10.456zM83.046 9.967c.455-.682 1.363-1.25 2.273-1.25 1.818 0 2.728 1.25 2.728 3.069v4.432h-1.364v-4.205c0-1.478-.795-2.045-1.818-2.045-1.137 0-1.932 1.136-1.932 2.159v3.978h-1.364V8.83h1.364l.113 1.137zm6.138 3.978c0-1.59 1.477-2.5 3.182-2.5 1.023 0 1.705.228 1.932.455v-.227c0-1.137-.91-1.705-1.818-1.705-.795 0-1.478.34-1.705 1.023l-1.247-.57c.228-.681 1.137-1.704 2.96-1.704 1.705 0 3.182 1.023 3.182 3.068v4.32h-1.25v-1.029h-.114c-.34.568-1.136 1.25-2.386 1.25-1.478 0-2.728-.909-2.728-2.386l-.008.005zm5.122-.914s-.568-.455-1.705-.455c-1.363 0-1.932.795-1.932 1.363 0 .795.795 1.137 1.478 1.137 1.023 0 2.159-.91 2.159-2.045"/>
  <path fill="#757575" fill-rule="evenodd" d="M100.32 19.286l1.591-3.755-2.84-6.591h1.363l2.159 5 2.159-5h1.364l-4.432 10.346h-1.364zm20.002-7.955c-.342-.91-1.137-1.477-1.932-1.477-1.137 0-2.159 1.023-2.159 2.5s1.023 2.5 2.159 2.5c.795 0 1.591-.568 1.932-1.364l1.137.682c-.568 1.25-1.705 2.046-3.069 2.046-1.932 0-3.523-1.706-3.523-3.864 0-2.273 1.591-3.864 3.523-3.864 1.364 0 2.5.795 3.069 2.045l-1.137.795v.001z" clip-rule="evenodd"/>
  <path fill="#757575" d="M125.209 16.332c1.818 0 2.728-1.023 2.728-2.274 0-2.727-3.978-1.704-3.978-3.295 0-.568.455-.909 1.25-.909.795 0 1.591.341 1.932.91l.795-.796c-.455-.568-1.705-1.363-2.841-1.363-1.705 0-2.614 1.023-2.614 2.273 0 2.613 4.092 1.705 4.092 3.068 0 .682-.455 1.137-1.364 1.137s-1.364-.568-1.818-1.137l-1.023.795c.682.682 1.705 1.591 2.841 1.591zm-12.956-.228h1.364V8.831h-1.364v7.274z"/>
  <path fill="#757575" fill-rule="evenodd" d="M112.822 5.308c.568 0 .909.455.909.909 0 .568-.455.91-.909.91s-.909-.456-.909-.91.455-.91.909-.91zm-1.932 9.66l.227 1.024h-1.363c-1.25 0-1.818-.91-1.818-2.274v-3.523h-1.364V8.832h1.364v-2.16h1.363v2.16h1.591v1.363h-1.591v3.755c0 1.023.795 1.023 1.591 1.023v-.005z" clip-rule="evenodd"/>
  <path fill="#757575" d="M27.132 9.854v1.705h3.978c-.114.909-.455 1.59-.91 2.045-.567.568-1.477 1.25-3.068 1.25-2.387 0-4.319-1.932-4.319-4.432 0-2.387 1.932-4.433 4.319-4.433 1.364 0 2.273.569 2.96 1.137l1.136-1.137c-1.023-.909-2.273-1.705-4.091-1.705-3.295 0-6.137 2.728-6.137 6.024s2.837 6.023 6.133 6.023c1.818 0 3.182-.568 4.205-1.705 1.136-1.137 1.477-2.614 1.477-3.865 0-.34 0-.795-.113-1.023h-5.566l-.004.116zm10.115-1.36c-2.16 0-3.865 1.592-3.865 3.865s1.706 3.864 3.865 3.864a3.833 3.833 0 003.864-3.864c0-2.273-1.705-3.864-3.864-3.864zm0 6.25c-1.137 0-2.16-1.022-2.16-2.386 0-1.363 1.023-2.386 2.16-2.386 1.136 0 2.159.909 2.159 2.386 0 1.478-1.023 2.387-2.16 2.387zM55.885 9.29c-.455-.455-1.137-.91-2.16-.91-1.931 0-3.636 1.706-3.636 3.865 0 2.159 1.705 3.864 3.637 3.864.909 0 1.705-.456 2.045-.91h.113v.569c0 1.477-.795 2.273-2.045 2.273-1.023 0-1.705-.796-1.932-1.364l-1.478.568c.455 1.023 1.591 2.273 3.41 2.273 2.045 0 3.754-1.136 3.754-4.091V8.38h-1.59v.91l-.118-.001zm-1.932 5.455c-1.137 0-2.046-1.023-2.046-2.387 0-1.363.91-2.386 2.046-2.386 1.136 0 2.045 1.023 2.045 2.386 0 1.364-.91 2.387-2.045 2.387zm-8.297-6.25c-2.159 0-3.864 1.59-3.864 3.864 0 2.273 1.705 3.864 3.864 3.864a3.833 3.833 0 003.864-3.864c.114-2.273-1.705-3.864-3.864-3.864zm0 6.25c-1.136 0-2.159-1.023-2.159-2.387 0-1.363 1.023-2.386 2.16-2.386 1.135 0 2.158.909 2.158 2.386 0 1.478-1.023 2.387-2.159 2.387zM58.84 4.399h1.706v11.819H58.84V4.398zm6.365 10.341c-.91 0-1.478-.454-1.932-1.136l5.227-2.16-.227-.454c-.341-.91-1.364-2.5-3.295-2.5-2.046 0-3.637 1.59-3.637 3.864a3.832 3.832 0 003.864 3.864c1.818 0 2.841-1.137 3.296-1.706l-1.364-.909c-.455.683-1.023 1.137-1.932 1.137zm-.114-4.773c.682 0 1.25.341 1.478.91l-3.523 1.477c0-1.705 1.136-2.387 2.045-2.387z"/>
  <path fill="#F9AB00" d="M10.855 2.072V15.1c0 1.457 1.007 2.27 2.073 2.27.986 0 2.072-.692 2.072-2.27V2.17C15 .835 14.013 0 12.928 0c-1.086 0-2.073.92-2.073 2.072z"/>
  <path fill="#E37400" d="M5.427 8.684V15.1c0 1.457 1.007 2.27 2.073 2.27.987 0 2.072-.692 2.072-2.27V8.782c0-1.336-.987-2.171-2.072-2.171-1.086 0-2.073.92-2.073 2.072zm-3.355 8.684a2.072 2.072 0 100-4.144 2.072 2.072 0 000 4.144z"/>
</svg>
