<svg xmlns="http://www.w3.org/2000/svg" fill="none" viewBox="0 0 85 26">
  <path fill="#144E8C" fill-rule="evenodd" d="M25.02 1.235a.727.727 0 00-.727-.727H1.514a.727.727 0 00-.727.727v22.778c0 .401.326.727.727.727h22.778a.727.727 0 00.727-.727V1.235z" clip-rule="evenodd"/>
  <path fill="#1B72BE" fill-rule="evenodd" d="M25.02 1.235a.727.727 0 00-.727-.727H1.514a.727.727 0 00-.727.727v22.778c0 .401.326.727.727.727h22.778a.727.727 0 00.727-.727V1.235z" clip-rule="evenodd"/>
  <path fill="#0568AA" fill-rule="evenodd" d="M25.02 1.235a.727.727 0 00-.727-.727h-13.57L.787 17.716v6.297c0 .401.326.727.727.727h22.778a.727.727 0 00.727-.727V1.235z" clip-rule="evenodd"/>
  <path fill="#074F7F" fill-rule="evenodd" d="M11.991 24.74h-1.69l-4.365-8.776L14.442.508h1.37L6.905 15.932l5.085 8.808zm4.578 0h-4.214l-4.966-8.6H25.02l-.002 1.606-8.45 6.995zM12.38.508h-1.415L.787 18.136v2.451L12.38.507zm2.459 15.314h-4.793c-.56 0-1.08-.293-1.36-.777a1.568 1.568 0 010-1.566l2.4-4.157 3.753 6.5zm10.18 0h-9.817l-3.934-6.815 4.907-8.5 1.778.002-2.583 8.785 1.199 2.463 8.45 3.323v.742z" clip-rule="evenodd"/>
  <path fill="url(#paint0_radial)" fill-rule="evenodd" d="M25.02 24.74H12.717l-4.784-8.287h17.085v8.287zm-13.392 0H.788v-5.974L11.327.508h4.12L6.542 15.932l5.086 8.808zm2.666-9.231H10.13a1.297 1.297 0 01-1.127-1.948l2.084-3.61 3.208 5.558zm10.725 0h-9.634l-3.754-6.502 4.907-8.5h8.481V15.51z" clip-rule="evenodd"/>
  <path fill="url(#paint1_linear)" fill-rule="evenodd" d="M25.578 25.185H12.97l-5.04-8.732h17.639l.009 8.732zM6.538 15.93l5.343 9.254H.04L0 20.12 11.617 0h4.12l-9.2 15.931zm1.896.812l4.705 8.151h12.148l-.008-8.15H8.434zM11.784.291L.292 20.198l.037 4.696h11.05l-5.175-8.963 9.03-15.64h-3.448zm2.506 15.217h-4.203l-.021-.002h-.017l-.005-.001h-.011l-.005-.001-.022-.002h-.01L9.99 15.5l-.005-.001H9.98l-.006-.001H9.97l-.01-.002h-.006l-.005-.002-.016-.002h-.006l-.005-.001-.005-.001H9.91l-.01-.003-.011-.002h-.006l-.005-.002h-.005l-.005-.002h-.006l-.005-.002h-.005l-.005-.002-.005-.001-.006-.001-.005-.001-.005-.002h-.005l-.01-.003-.006-.002-.01-.002-.01-.003-.02-.006-.01-.002-.006-.002-.005-.002H9.74l-.005-.003-.005-.001-.005-.002-.005-.001-.015-.005-.005-.002-.01-.003-.005-.002-.01-.004-.005-.002-.005-.002-.005-.001-.005-.002-.005-.002-.015-.006-.004-.002-.005-.002-.005-.002-.005-.002-.01-.004-.005-.002-.004-.002-.005-.002-.01-.005-.01-.004-.004-.002-.005-.002-.005-.003-.004-.002-.005-.002-.014-.008-.01-.004-.009-.005-.005-.003-.004-.002-.005-.002-.004-.003-.005-.003-.014-.007-.004-.003-.005-.002-.004-.003-.005-.003-.005-.002-.004-.003-.005-.003-.004-.002-.005-.003-.004-.003-.004-.003-.005-.002-.009-.006-.009-.006-.004-.003-.004-.003-.005-.003-.004-.003-.004-.002-.005-.004-.004-.003-.004-.002-.005-.004-.004-.003-.013-.009-.004-.003-.004-.003-.004-.003-.005-.004-.004-.003-.004-.003-.004-.003-.008-.007-.004-.003-.005-.003-.004-.004-.004-.003-.008-.007-.004-.003-.004-.003-.004-.004-.004-.003-.008-.007-.004-.004-.004-.003-.008-.007-.004-.004-.011-.01-.004-.004-.004-.004-.004-.004-.004-.003-.003-.004-.004-.003-.008-.008-.003-.004-.008-.007-.007-.008-.004-.004-.004-.004-.003-.004-.004-.003-.003-.004-.004-.004-.004-.004-.003-.004-.004-.004-.003-.004-.01-.012-.011-.012-.004-.004-.003-.004-.003-.004-.004-.005-.003-.004-.003-.004-.004-.004-.003-.004-.003-.005L9.09 15l-.006-.008-.004-.005-.003-.004-.003-.004-.003-.005-.003-.004-.003-.005-.004-.004-.006-.009-.003-.004-.003-.005-.003-.004-.006-.01-.003-.004-.006-.009-.003-.004-.003-.005-.002-.004-.003-.005-.003-.005-.003-.004-.006-.01-.002-.004-.003-.005L9 14.866l-.005-.01-.003-.005-.003-.004-.002-.005-.003-.005-.003-.005-.005-.009-.002-.005-.003-.005-.002-.005-.003-.004-.002-.005-.003-.005-.002-.005-.003-.005-.002-.005-.002-.004-.005-.01-.002-.005-.005-.01-.002-.005-.004-.01-.003-.004-.004-.01-.004-.01-.002-.005-.002-.005-.002-.005-.002-.005-.002-.005-.004-.01-.004-.01-.002-.005-.003-.01-.002-.005-.002-.005-.002-.005-.001-.005-.002-.005-.002-.005-.001-.005-.002-.005-.002-.006-.001-.005-.002-.005-.001-.005-.002-.005-.001-.005-.002-.005-.001-.005-.002-.005-.001-.005-.002-.005-.001-.006-.001-.005-.002-.005-.001-.005-.001-.005-.002-.005-.001-.005-.001-.005-.003-.011v-.005l-.002-.005-.001-.005-.002-.01-.003-.011-.002-.01v-.006l-.002-.005v-.005l-.001-.005-.001-.005-.001-.006-.001-.005v-.005l-.002-.005v-.006l-.001-.005-.001-.005v-.005l-.001-.005-.001-.006-.002-.01v-.011l-.001-.005-.001-.01v-.006l-.001-.005v-.005l-.001-.005-.001-.01v-.006l-.001-.005v-.011l-.001-.005v-.016l-.001-.01v-.028l-.001-.01v-.057l.001-.01v-.006l.001-.01v-.011l.001-.01v-.006l.002-.01v-.006l.001-.01v-.005l.001-.006v-.005l.001-.005.002-.01v-.01l.002-.006v-.005l.001-.006v-.005l.002-.005v-.005l.002-.01.002-.011v-.005l.002-.006v-.005l.001-.005.001-.005.002-.01.002-.006v-.005l.003-.01.001-.005.001-.006.001-.005.002-.005v-.005l.002-.005.001-.005.002-.005v-.006l.004-.01v-.005l.004-.01.001-.005.002-.006.001-.005.002-.005.001-.005.002-.005.001-.005.002-.005.001-.005.002-.005.002-.005.001-.005.004-.01.001-.005.002-.006.002-.005.002-.004.002-.005.001-.006.002-.005.004-.01.004-.01.002-.005.002-.004.002-.005.002-.005.002-.005.004-.01.004-.01.003-.005.002-.005.002-.005.002-.005.003-.005.002-.005.002-.005.002-.004.003-.005.002-.005.005-.01.002-.005.003-.004.002-.005.005-.01.003-.005.002-.005.005-.009.003-.005.003-.005.002-.004.003-.005.003-.005.002-.004 2.084-3.61 3.208 5.558zm11.273 0H15.381l-3.754-6.502L16.827 0h8.63l.106 15.508zM9.25 13.705l-.002.004-.002.003-.002.004-.002.004-.002.003-.002.004-.002.004-.004.007-.002.004-.006.011-.002.004-.002.004-.002.004-.001.003-.004.008-.002.003-.002.004-.001.004-.002.004-.002.003-.002.004-.001.004-.002.004-.002.004-.003.008-.002.004-.001.003-.002.004-.001.004-.002.004-.001.004-.002.004-.001.003-.002.004-.001.004-.002.004-.001.004-.002.004-.001.004-.001.004-.002.004-.001.003-.001.005-.002.003-.001.004-.001.004-.003.008-.001.004-.001.004-.001.004-.002.004v.004l-.002.004-.001.004-.001.004-.001.004-.001.004-.001.004-.003.008v.004l-.003.008v.004l-.001.004-.001.004-.001.004-.002.008-.002.008-.001.008-.001.004-.001.004v.004l-.002.004v.004l-.002.008-.001.008v.004l-.001.004-.001.004v.004l-.001.004v.004l-.002.008v.009l-.001.004v.004l-.001.004v.004l-.001.004v.008l-.001.004-.001.008v.013l-.001.004v.008l-.001.008v.02l-.001.005v.073l.001.008v.009l.001.008v.004l.001.004v.008l.001.004v.008l.002.008v.01l.002.008v.004l.001.008v.004l.001.004.002.008v.008l.002.004v.004l.002.008v.005l.002.008v.004l.002.004.001.008.001.004.002.008v.004l.003.008v.004l.001.004.001.004.001.004.001.004.003.008v.004l.002.004v.004l.002.004.001.004.001.004.003.007v.004l.002.004.002.008.002.004.001.004.001.004.002.004v.004l.002.004.002.004.001.004.001.004.002.003.001.004.002.004.001.004.003.008.002.004.001.004.002.003.001.004.002.004.005.011.001.005.002.003.002.004.001.004.002.004.002.004.003.007.002.004.002.004.002.004.002.003.001.004.002.004.002.004.002.003.002.004.002.004.006.011.002.004.002.003.002.004.002.004.002.003.002.004.002.004.002.004.002.003.002.004.003.003.002.004.002.003.002.004.002.004.002.003.003.004.002.004.002.003.002.004.003.003.002.003.005.008.002.003.002.003.003.004.002.003.002.004.005.007.003.003.002.003.005.007.003.003.002.004.003.003.002.003.003.003.005.007.002.003.003.003.002.004.003.003.003.003.002.003.003.004.003.003.002.003.003.003.003.003.002.003.003.003.003.004.002.002.003.004.003.003.003.003.002.003.003.003.003.003.003.003.003.003.002.003.003.003.003.003.003.003.006.005.003.003.003.003.003.003.003.003.003.003.002.002.003.003.003.003.003.003.003.002.003.003.003.003.004.003.002.003.004.002.003.003.003.003.003.002.003.003.003.003.003.002.003.003.003.003.004.002.003.003.003.002.003.003.003.002.003.003.004.002.003.003.003.002.003.003.004.002.003.003.003.002.003.003.004.002.003.002.003.003.004.002.003.002.003.003.004.002.003.002.007.005.003.002.003.003.004.002.003.002.004.002.003.002.007.005.004.002.003.002.003.002.004.002.014.009.004.002.003.002.003.002.004.002.004.002.003.002.004.002.003.002.004.002.004.002.003.002.004.001.003.002.004.002.007.004.004.001.007.004.004.002.004.002.004.001.003.002.004.002.004.002.003.001.004.002.004.002.003.001.004.002.004.001.004.002.004.002.003.001.008.003.004.002.004.001.003.002.004.001.008.003.004.002.003.001.004.001.004.002.004.001.004.001.004.002.004.001.004.002h.004l.003.002.008.002.004.002.004.001.008.002.004.002h.004l.004.002h.004l.004.002.004.001.004.001.004.001.004.001.004.001.004.001.004.001.004.001.004.001.004.001.004.001H9.9l.004.002h.004l.004.002h.004l.004.001.004.001.004.001h.004l.004.002h.01l.004.002.008.001h.004l.004.002h.008l.004.001h.005l.004.002h.008l.008.001.005.001h.008l.004.001h.004l.004.001h.004l.005.001h.012l.005.001h.008l.004.001h.017l.004.001h3.7l-2.705-4.684-1.832 3.173zM16.995.29l-5.032 8.715 3.586 6.21h9.721L25.17.292h-8.174z" clip-rule="evenodd"/>
  <path fill="#000" d="M34.877 11.747h-3.08v9.237h2.982c3.038 0 4.813-1.498 4.813-4.632 0-3.149-1.817-4.605-4.715-4.605zm-.292 7.808h-.984v-6.38h1.095c1.928 0 3.038.847 3.038 3.204 0 2.344-1.11 3.176-3.149 3.176zm12.579-2.024c0-2.455-1.276-3.662-3.287-3.662-2.052 0-3.425 1.581-3.425 3.675 0 2.066 1.192 3.634 3.439 3.634 1.678 0 2.704-.832 3.024-1.831l-1.457-.596c-.25.707-.707 1.178-1.553 1.178-1.137 0-1.65-.984-1.72-1.996h4.979v-.402zm-3.287-2.427c1.013 0 1.512.735 1.58 1.775H42.2c.153-1.055.75-1.776 1.678-1.776zm6.92 6.074c1.845 0 2.94-.874 2.94-2.247 0-1.498-1.275-1.803-2.704-2.122-.887-.194-1.359-.347-1.359-.915 0-.486.32-.846 1.054-.846.624 0 1.138.277 1.317 1.054l1.54-.402c-.25-1.151-1.192-1.83-2.829-1.83-1.9 0-2.788.928-2.788 2.135 0 1.386 1.096 1.789 2.525 2.108 1.025.222 1.525.347 1.525.943 0 .569-.486.915-1.22.915-.791 0-1.263-.374-1.43-1.123l-1.552.388c.152 1.068 1.123 1.942 2.981 1.942zm4.785-8.155c.597 0 1.026-.457 1.026-1.026s-.43-1.013-1.026-1.013c-.61 0-1.04.444-1.04 1.013s.43 1.026 1.04 1.026zm-.86 7.96h1.734v-6.906h-1.734v6.907zm8.57-1.067c-.415-.208-.997-.319-1.747-.319h-.79c-.874 0-1.193-.055-1.193-.36 0-.292.389-.333.902-.375.915-.07 1.664-.195 2.233-.57.554-.373 1.012-.997 1.012-1.954 0-.888-.389-1.554-1.027-1.97.209-.236.5-.304.763-.304.306 0 .61.096.777.221l.18-1.359a1.726 1.726 0 00-.776-.167c-.708 0-1.304.361-1.554 1.318a3.81 3.81 0 00-1.289-.208c-1.872 0-2.954 1.11-2.954 2.538 0 1.012.555 1.803 1.373 2.108-.694.041-1.18.389-1.18.93 0 .512.375.79.777.9v.042c-.582.07-1.372.458-1.372 1.443 0 1.15 1.123 2.038 3.37 2.038 2.288 0 3.439-.915 3.439-2.33 0-.79-.305-1.317-.943-1.622zM60.77 15.02c.846 0 1.29.61 1.29 1.346 0 .734-.416 1.359-1.29 1.359-.846 0-1.304-.625-1.304-1.36 0-.734.458-1.344 1.304-1.344zm.055 7.67c-1.29 0-1.775-.486-1.775-1.054 0-.583.555-.833.971-.902h.832c.999 0 1.734.097 1.734.887 0 .625-.514 1.069-1.762 1.069zm4.424-1.706h1.734v-3.786c0-1.332.624-1.914 1.512-1.914.762 0 1.15.457 1.15 1.442v4.258h1.734V16.49c0-1.788-.957-2.621-2.33-2.621-.97 0-1.734.43-2.121 1.443H66.9l-.042-1.235h-1.609v6.907zm13.938-3.453c0-2.455-1.276-3.662-3.287-3.662-2.052 0-3.425 1.581-3.425 3.675 0 2.066 1.192 3.634 3.439 3.634 1.678 0 2.704-.832 3.023-1.831l-1.456-.596c-.25.707-.707 1.178-1.553 1.178-1.137 0-1.65-.984-1.72-1.996h4.98v-.402zM75.9 15.104c1.013 0 1.512.735 1.581 1.775h-3.259c.153-1.055.749-1.776 1.678-1.776zm4.369 5.88H82v-2.968c0-1.845.86-2.635 1.83-2.635.348 0 .61.083.778.166l.236-1.54c-.112-.055-.347-.138-.791-.138-.735 0-1.692.36-2.122 1.79h-.028l-.027-1.582h-1.61v6.907z"/>
  <path fill="#000" fill-rule="evenodd" d="M42.569 1.096h-2.997v2.49h1.715v.582h-1.715v3.125h-.625V.508h3.622v.588zm15.62 6.197h-.632V.508h.632v6.785zm-8.808 0h-.632V.508h.632v6.785zM47.47 1.096h-2.997v2.49h1.715v.582h-1.715v3.125h-.625V.508h3.622v.588zm16.24 0h-1.802v6.197h-.633V1.096h-1.811V.508h4.245v.588zM51.285 7.293h-.624V.508h.672l4.307 5.721V.508h.632v6.785h-.616l-4.37-5.822v5.822zm16.49 0h-.64v-1.66L64.21.509h.721l2.525 4.398L69.981.508h.721l-2.926 5.126v1.659zm-29.387 0h-.673L35.088 1.37c-.164.38-1.764 4.016-1.934 4.402.335 0 3.202.028 3.366.029l.261.57c-.571-.003-3.134-.011-3.893-.011-.07.146-.36.793-.417.932h-.673L34.804.508h.578l3.007 6.785z" clip-rule="evenodd"/>
  <defs>
    <radialGradient id="paint0_radial" cx="0" cy="0" r="1" gradientTransform="translate(19.309 -4.046) scale(28.7862)" gradientUnits="userSpaceOnUse">
      <stop stop-color="#6BE1FB"/>
      <stop offset="1" stop-color="#38BDFA"/>
    </radialGradient>
    <linearGradient id="paint1_linear" x1="42852" x2="42852" y1="23.992" y2="-.24" gradientUnits="userSpaceOnUse">
      <stop stop-color="#4AC5FA"/>
      <stop offset="1" stop-color="#97E8FC"/>
    </linearGradient>
  </defs>
</svg>
