<svg xmlns="http://www.w3.org/2000/svg" fill="none" viewBox="0 0 80 19">
  <path fill="#FF2D20" fill-rule="evenodd" d="M17.865 4.225c.007.025.01.051.01.077V8.31a.295.295 0 01-.144.253l-3.316 1.938v3.84a.294.294 0 01-.143.253l-6.92 4.043c-.017.01-.034.015-.051.021-.007.003-.013.007-.02.009a.286.286 0 01-.147 0l-.023-.01c-.016-.006-.032-.01-.047-.02l-6.92-4.043A.29.29 0 010 14.341V2.314c0-.026.004-.051.01-.076.002-.009.007-.016.01-.025.006-.015.01-.03.019-.045.005-.01.013-.017.02-.026.008-.012.015-.024.025-.034.008-.008.019-.015.028-.022a.196.196 0 01.032-.025L3.604.039a.285.285 0 01.288 0l3.46 2.022c.012.007.022.016.032.025a.21.21 0 01.028.022c.01.01.017.022.026.034.006.009.014.016.02.026.008.015.012.03.018.045.003.009.008.016.01.025a.3.3 0 01.01.076v7.512l2.883-1.684v-3.84c0-.026.004-.052.01-.077l.01-.024c.006-.016.011-.032.019-.046.005-.01.013-.017.02-.026.008-.011.015-.023.025-.034l.029-.022c.01-.008.02-.018.031-.025l3.46-2.022a.285.285 0 01.288 0l3.46 2.022c.012.007.022.017.032.025a.21.21 0 01.028.022c.01.01.017.023.026.034l.02.026c.008.014.012.03.018.046.003.008.008.016.01.024zM17.3 8.142V4.808l-1.211.707-1.673.978v3.333L17.3 8.142zm-3.46 6.03v-3.336l-1.645.954-4.698 2.721v3.368l6.343-3.707zM.577 2.82v11.352l6.342 3.706v-3.366l-3.313-1.904h-.001l-.002-.001-.03-.024c-.01-.008-.02-.013-.028-.021v-.002c-.01-.009-.017-.02-.025-.03-.007-.01-.015-.018-.021-.029-.007-.012-.011-.025-.016-.037-.004-.011-.01-.021-.013-.033-.004-.014-.005-.029-.006-.043-.002-.011-.004-.022-.004-.033v-7.85l-1.673-.978-1.21-.706zM3.748.63L.866 2.314l2.882 1.684L6.63 2.314 3.748.63zm1.5 10.51l1.672-.977V2.82l-1.211.708-1.673.977v7.343l1.211-.708zm8.88-8.522l-2.883 1.684 2.883 1.684 2.88-1.686-2.882-1.683zm-.289 3.875l-1.672-.978-1.211-.707v3.334l1.672.977 1.211.707V6.493zm-6.632 7.512l4.228-2.45 2.113-1.223-2.88-1.683-3.316 1.937-3.022 1.766 2.877 1.653z" clip-rule="evenodd"/>
  <g clip-path="url(#clip0)">
    <path fill="#FF2D20" fill-rule="evenodd" d="M29.181 2.903v10.532h3.81v1.817h-5.839V2.902h2.03zm10.973 5.24V7.03h1.923v8.221h-1.923V14.14c-.26.412-.626.736-1.103.97a3.217 3.217 0 01-1.437.353 4.174 4.174 0 01-1.712-.343 4 4 0 01-1.332-.945 4.44 4.44 0 01-1.173-3.034 4.465 4.465 0 011.173-3.034 4.005 4.005 0 011.332-.944 4.174 4.174 0 011.712-.344c.482 0 .961.118 1.437.353.477.235.844.559 1.103.97zm-.177 4.004a2.85 2.85 0 00.177-1.005c0-.354-.06-.689-.177-1.006a2.55 2.55 0 00-.493-.83 2.391 2.391 0 00-.768-.564c-.3-.14-.632-.212-.996-.212a2.26 2.26 0 00-.989.212 2.417 2.417 0 00-.758.565 2.43 2.43 0 00-.485.829c-.113.323-.17.663-.168 1.005 0 .353.056.688.168 1.005.111.318.273.595.485.83.213.236.471.428.759.565.293.14.623.211.987.211.365 0 .697-.07.997-.211a2.402 2.402 0 001.261-1.395zm3.617 3.105V7.03h5.222v1.892h-3.3v6.33h-1.922v-.001zm12.19-7.11V7.031h1.923v8.221h-1.923V14.14a2.649 2.649 0 01-1.103.97 3.216 3.216 0 01-1.437.353 4.174 4.174 0 01-1.711-.343 4 4 0 01-1.333-.945 4.386 4.386 0 01-.864-1.375 4.441 4.441 0 01-.309-1.659A4.465 4.465 0 0150.2 8.107a4.006 4.006 0 011.333-.944 4.174 4.174 0 011.71-.344c.483 0 .962.118 1.438.353.477.235.844.559 1.103.97zm-.176 4.005c.118-.322.178-.662.176-1.005 0-.354-.06-.689-.176-1.006a2.55 2.55 0 00-.494-.83 2.391 2.391 0 00-.768-.564c-.3-.14-.632-.212-.996-.212-.365 0-.695.071-.988.212a2.417 2.417 0 00-.759.565c-.215.24-.38.523-.485.829-.113.323-.17.663-.168 1.005 0 .353.056.688.168 1.005.112.318.273.595.485.83.213.236.47.428.759.565.293.14.623.211.988.211.364 0 .697-.07.996-.211a2.38 2.38 0 00.768-.565c.216-.243.383-.524.494-.83zm9.808-5.116h1.948l-3.156 8.221h-2.417l-3.156-8.221h1.947L63 13.326l2.417-6.295zm6.142-.212c2.618 0 4.403 2.32 4.068 5.037h-6.38c0 .709.717 2.08 2.417 2.08 1.463 0 2.443-1.286 2.444-1.287l1.299 1.005c-1.162 1.24-2.113 1.81-3.602 1.81-2.661 0-4.465-1.684-4.465-4.322 0-2.387 1.864-4.323 4.218-4.323zm-2.306 3.608h4.608c-.014-.158-.264-2.08-2.318-2.08-2.054 0-2.276 1.922-2.29 2.08zm7.626 4.825V2.902h1.923v12.35h-1.923z" clip-rule="evenodd"/>
  </g>
  <defs>
    <clipPath id="clip0">
      <path fill="#fff" d="M0 0h52.097v13.253H0z" transform="translate(27 2.484)"/>
    </clipPath>
  </defs>
</svg>
