<svg xmlns="http://www.w3.org/2000/svg" fill="none" viewBox="0 0 98 18">
  <path fill="#3893FF" d="M64.817 4.915l1.958 8.051 6.416-8.051h2.777l-7.754 9.734h-3.857l-2.33-9.734h2.79zm18.023 0c1.32 0 2.197.239 2.635.716.438.476.501 1.276.19 2.398l-.188.673c-.314 1.132-.794 1.924-1.439 2.377-.645.454-1.627.68-2.945.68h-4.488l-.802 2.89h-2.428l2.705-9.734h6.76zm.281 3.535l.055-.197c.103-.374.088-.636-.049-.785-.136-.15-.428-.224-.877-.224h-4.39l-.608 2.187h4.446c.42 0 .738-.072.951-.217.213-.145.37-.4.472-.764zm7.167-3.535h4.447c1.261 0 2.14.225 2.632.674.492.448.608 1.14.35 2.075h-2.61c.086-.308.063-.52-.068-.638-.132-.117-.447-.175-.942-.175h-4.092c-.383 0-.695.063-.931.189-.236.126-.403.367-.502.723-.1.355-.056.588.127.7.136.085.41.127.82.127l4.442.168c1.263 0 2.077.164 2.445.491.465.412.53 1.225.191 2.44-.293 1.057-.756 1.815-1.388 2.273-.633.458-1.58.687-2.843.687h-5.02c-1.254 0-2.074-.22-2.462-.66-.387-.438-.447-1.14-.18-2.103h2.47c-.068.243-.012.44.165.589.178.15.445.225.8.225h4.054c.561 0 .985-.07 1.271-.21.288-.141.483-.398.587-.772.103-.374.07-.64-.1-.8-.202-.187-.626-.28-1.281-.28l-3.835-.155c-1.456 0-2.381-.154-2.773-.463-.457-.364-.526-1.126-.204-2.286.286-1.028.766-1.755 1.441-2.18.675-.426 1.671-.639 2.989-.639z"/>
  <path fill="#000" d="M61.913 4.915l-.549 1.978H57.1l-2.154 7.756h-2.413l2.155-7.756h-4.264l.55-1.978h10.94zm-27.813 0h-3.828l-7.936 9.734h2.833l1.885-2.342h6.143l.584 2.342h2.833L34.1 4.915zm-5.452 5.442l3.011-3.618h.112l.916 3.618h-4.04zm13.981-5.442h4.446c1.262 0 2.14.225 2.632.674.493.448.609 1.14.349 2.075h-2.609c.086-.308.063-.52-.068-.638-.13-.117-.447-.175-.942-.175h-4.091c-.384 0-.696.063-.932.189-.236.126-.404.367-.502.723-.099.355-.056.588.128.7.135.085.409.127.82.127l4.442.168c1.262 0 2.077.164 2.444.491.465.412.53 1.225.191 2.44-.293 1.057-.756 1.815-1.388 2.273-.633.458-1.58.687-2.842.687h-5.021c-1.254 0-2.074-.22-2.461-.66-.388-.438-.447-1.14-.18-2.103h2.469c-.068.243-.012.44.165.589.179.15.445.225.8.225h4.054c.561 0 .985-.07 1.272-.21.287-.141.482-.398.586-.772.104-.374.07-.64-.1-.8-.2-.187-.626-.28-1.28-.28l-3.836-.155c-1.456 0-2.38-.154-2.772-.463-.458-.364-.526-1.126-.204-2.286.286-1.028.766-1.755 1.44-2.18.675-.426 1.671-.639 2.99-.639zm-27.843 0h10.365l-.538 1.936H16.69l-.499 1.795h7.672l-.541 1.95h-7.673l-1.126 4.053h-2.386l2.65-9.734zM0 4.915l.93 1.341h11.874l.365-1.341H0zm6.872 9.735h3.771l.366-1.346H5.94l.933 1.345zM2.89 9.07h9.148l.38-1.397H1.912l.978 1.398zm1.993 2.8h6.455l.38-1.398H3.882l1.001 1.398z"/>
</svg>
