<svg width="90" height="90" viewBox="0 0 90 90" fill="none" xmlns="http://www.w3.org/2000/svg">
<path fill-rule="evenodd" clip-rule="evenodd" d="M88.5 1.5H1.5V88.5H88.5V1.5ZM0 0V90H90V0H0Z" fill="#FF5000"/>
<path d="M73.2226 37.9086C69.1463 33.2115 63.5134 27.8125 56.0268 27.8125C53.0033 27.8125 50.2319 28.6673 47.3074 30.494C44.8419 32.0417 42.3133 34.2193 38.84 37.8006L38.75 37.8906L39.3529 38.5115C44.311 43.5866 48.5942 47.9688 56.0268 47.9688C59.3112 47.9688 62.4966 46.8979 65.763 44.6934C68.5435 42.8127 70.91 40.4282 72.8087 38.5025L73.3036 38.0076L73.2226 37.9086ZM56.0268 45.0893C52.0585 45.0893 48.8281 41.8589 48.8281 37.8906C48.8281 33.9224 52.0585 30.692 56.0268 30.692C59.995 30.692 63.2254 33.9224 63.2254 37.8906C63.2254 41.8589 59.995 45.0893 56.0268 45.0893Z" fill="#FF5000"/>
<path d="M55.5231 35.2629C55.5231 34.642 55.703 34.0571 56.018 33.5712C53.6334 33.5712 51.7078 35.5148 51.7078 37.9084C51.7078 40.3019 53.6424 42.2366 56.018 42.2366C58.3935 42.2366 60.3372 40.3019 60.3372 37.9084C59.8512 38.2233 59.2664 38.4033 58.6455 38.4033C56.9268 38.3943 55.5231 36.9905 55.5231 35.2629Z" fill="#FF5000"/>
<path fill-rule="evenodd" clip-rule="evenodd" d="M58.0527 39.8634C57.5381 40.4018 56.8145 40.7366 56.018 40.7366C54.4749 40.7366 53.2078 39.4776 53.2078 37.9084C53.2078 37.1056 53.536 36.3843 54.0625 35.8699C54.3347 37.9459 55.9831 39.5902 58.0527 39.8634ZM58.7946 38.3998C59.3598 38.3734 59.8903 38.198 60.3372 37.9084C60.3372 38.5556 60.1951 39.1692 59.9407 39.7201C59.2545 41.2067 57.7512 42.2366 56.018 42.2366C53.6424 42.2366 51.7078 40.3019 51.7078 37.9084C51.7078 36.1653 52.729 34.6608 54.205 33.9718C54.7558 33.7147 55.3699 33.5712 56.018 33.5712C55.7282 34.0182 55.5527 34.5489 55.5265 35.1144C55.5242 35.1636 55.5231 35.2131 55.5231 35.2629C55.5231 36.9905 56.9268 38.3943 58.6455 38.4033C58.6954 38.4033 58.7451 38.4021 58.7946 38.3998Z" fill="#FF5000"/>
<path d="M66.7626 70.5925H63.4789V55.7517C63.4789 55.269 63.4789 54.8775 63.4789 54.8775H52.8245V70.5924H50.805V49.6053C50.805 49.1226 50.805 48.7311 50.805 48.7311H40.1506C40.1506 48.7311 40.1506 49.1226 40.1506 49.6053V70.5925H38.1312V63.433C38.1312 62.9503 38.1312 62.5588 38.1312 62.5588H27.4768C27.4768 62.5588 27.4768 62.9503 27.4768 63.433V70.5925H25.4984V35.0003C25.4984 35.0003 25.1071 35 24.6242 35C24.1414 35 23.75 35.0003 23.75 35.0003V72.3408C23.75 72.3408 24.1414 72.3408 24.6242 72.3408H66.7626C66.7626 72.3408 66.7626 71.9494 66.7626 71.4666C66.7626 70.9839 66.7626 70.5925 66.7626 70.5925ZM36.3826 70.5925H29.2251V64.3072H36.3826L36.3826 70.5925ZM49.0564 70.5925H41.8989V50.4795H49.0564V70.5925ZM61.7305 70.5924H54.5729V56.626H61.7305V70.5924Z" fill="#FF5000"/>
</svg>
