<svg width="90" height="90" viewBox="0 0 90 90" fill="none" xmlns="http://www.w3.org/2000/svg">
<path fill-rule="evenodd" clip-rule="evenodd" d="M88.5 1.5H1.5V88.5H88.5V1.5ZM0 0V90H90V0H0Z" fill="#FF5000"/>
<path d="M51.7808 32.7036C51.1003 30.9068 50.4191 29.11 49.7392 27.3125C47.2264 27.6734 44.5279 27.5356 41.8281 27.3985L43.8697 32.7896C46.5695 32.9267 49.2693 33.0639 51.7808 32.7036Z" fill="#FF5000"/>
<path d="M45.9139 38.1801C45.2328 36.384 44.5529 34.5865 43.871 32.7904C41.1719 32.6532 38.4721 32.5167 35.9619 32.8757C36.6418 34.6731 37.3223 36.4706 38.0035 38.2668C40.5137 37.9058 43.2128 38.0436 45.9139 38.1801Z" fill="#FF5000"/>
<path d="M60.6019 35.0254C59.922 33.2279 59.2408 31.4304 58.5603 29.6343C56.6139 31.4862 54.2921 32.3433 51.7812 32.7036C52.4631 34.5004 53.1423 36.2972 53.8228 38.094C56.3343 37.7344 58.6581 36.8767 60.6019 35.0254" fill="#FF5000"/>
<path d="M31.226 41.3311L29.1824 35.942C31.1282 34.092 33.4493 33.2356 35.9615 32.8746C35.2796 31.0785 34.5991 29.281 33.9179 27.4849C31.4084 27.8445 29.0853 28.7022 27.1388 30.5535L26.434 28.695L25.3125 29.0874L39.5557 66.6873H40.842L33.2695 46.7209C35.214 44.8735 37.5352 44.0165 40.0447 43.6562L38.0031 38.2657C35.4936 38.6254 33.1731 39.4824 31.226 41.3311" fill="#FF5000"/>
<path d="M45.9136 38.18C46.5941 39.9775 47.274 41.7743 47.9552 43.5711C50.655 43.7083 53.3541 43.8454 55.865 43.4852L53.8234 38.0947C51.3119 38.4544 48.6134 38.3172 45.9136 38.18" fill="#FF5000"/>
<path d="M40.0447 43.6568C40.7246 45.4536 41.4064 47.251 42.0869 49.0479C44.5977 48.6876 47.2969 48.8247 49.9974 48.9612C49.3155 47.1651 48.6356 45.3676 47.9551 43.5708C45.256 43.4343 42.5561 43.2971 40.0447 43.6568" fill="#FF5000"/>
<path d="M62.646 40.416C60.6996 42.2673 58.3758 43.1244 55.865 43.4846C56.5468 45.2821 57.2261 47.0789 57.9066 48.8757C60.4181 48.5155 62.7412 47.6584 64.6876 45.8058C64.0064 44.009 63.3259 42.2128 62.646 40.416" fill="#FF5000"/>
</svg>
