<svg width="90" height="90" viewBox="0 0 90 90" fill="none" xmlns="http://www.w3.org/2000/svg">
<path fill-rule="evenodd" clip-rule="evenodd" d="M88.5 1.5H1.5V88.5H88.5V1.5ZM0 0V90H90V0H0Z" fill="#FF5000"/>
<path fill-rule="evenodd" clip-rule="evenodd" d="M57.2807 38.0561C57.2807 37.2559 57.5997 36.4886 58.1676 35.9228C58.7355 35.3571 59.5057 35.0392 60.3088 35.0392C61.1119 35.0392 61.8821 35.3571 62.45 35.9228C63.0178 36.4886 63.3369 37.2559 63.3369 38.0561V58.473L60.3088 62.9982L57.2807 58.473V38.0561ZM60.3088 37.0504C60.0411 37.0504 59.7844 37.1564 59.5951 37.345C59.4058 37.5336 59.2994 37.7894 59.2994 38.0561V57.8636L60.3088 59.372L61.3181 57.8636V38.0561C61.3181 37.7894 61.2118 37.5336 61.0225 37.345C60.8332 37.1564 60.5765 37.0504 60.3088 37.0504Z" fill="#FF5000"/>
<path fill-rule="evenodd" clip-rule="evenodd" d="M62.3276 42.0785H58.2902V40.0672H62.3276V42.0785Z" fill="#FF5000"/>
<path fill-rule="evenodd" clip-rule="evenodd" d="M31.0374 30.0113C30.502 30.0113 29.0187 30.0112 29.0187 30.0112C29.0187 30.0112 29.0187 31.4891 29.0187 32.0225V60.1796C29.0187 60.713 29.0187 62.1909 29.0187 62.1909C29.0187 62.1909 30.502 62.1909 31.0374 62.1909H51.2247C51.7601 62.1909 53.2434 62.1909 53.2434 62.1909C53.2434 62.1909 53.2434 60.713 53.2434 60.1796V32.0225C53.2434 31.4891 53.2434 30.0113 53.2434 30.0113C53.2434 30.0113 51.7601 30.0113 51.2247 30.0113H31.0374ZM27 32.0225C27 30.9557 27.0001 28 27.0001 28C27.0001 28 29.9666 28.0001 31.0374 28.0001H51.2247C52.2955 28.0001 55.2621 28.0001 55.2621 28.0001C55.2621 28.0001 55.2621 30.9557 55.2621 32.0225V60.1796C55.2621 61.2465 55.2621 64.2021 55.2621 64.2021C55.2621 64.2021 52.2955 64.2021 51.2247 64.2021H31.0374C29.9666 64.2021 27.0001 64.2021 27.0001 64.2021C27.0001 64.2021 27 61.2465 27 60.1796V32.0225Z" fill="#FF5000"/>
<path fill-rule="evenodd" clip-rule="evenodd" d="M41.1309 37.0504C41.1309 36.7837 41.2372 36.528 41.4265 36.3394C41.6158 36.1508 41.8725 36.0448 42.1402 36.0448H50.2151C50.4828 36.0448 50.7396 36.1508 50.9289 36.3394C51.1181 36.528 51.2245 36.7837 51.2245 37.0504C51.2245 37.3171 51.1181 37.5729 50.9289 37.7615C50.7396 37.9501 50.4828 38.0561 50.2151 38.0561H42.1402C41.8725 38.0561 41.6158 37.9501 41.4265 37.7615C41.2372 37.5729 41.1309 37.3171 41.1309 37.0504Z" fill="#FF5000"/>
<path fill-rule="evenodd" clip-rule="evenodd" d="M41.1309 41.0729C41.1309 40.8062 41.2372 40.5504 41.4265 40.3618C41.6158 40.1732 41.8725 40.0672 42.1402 40.0672H50.2151C50.4828 40.0672 50.7396 40.1732 50.9289 40.3618C51.1181 40.5504 51.2245 40.8062 51.2245 41.0729C51.2245 41.3396 51.1181 41.5953 50.9289 41.7839C50.7396 41.9725 50.4828 42.0785 50.2151 42.0785H42.1402C41.8725 42.0785 41.6158 41.9725 41.4265 41.7839C41.2372 41.5953 41.1309 41.3396 41.1309 41.0729Z" fill="#FF5000"/>
<path fill-rule="evenodd" clip-rule="evenodd" d="M41.1309 50.1236C41.1309 49.8568 41.1309 49.1178 41.1309 49.1178C41.1309 49.1178 41.8726 49.1179 42.1403 49.1179H50.2152C50.4829 49.1179 51.2245 49.1177 51.2245 49.1177C51.2245 49.1177 51.2245 49.8568 51.2245 50.1236C51.2245 50.3903 51.2245 51.1292 51.2245 51.1292C51.2245 51.1292 50.4829 51.1292 50.2152 51.1292H42.1403C41.8726 51.1292 41.1311 51.1292 41.1311 51.1292C41.1311 51.1292 41.1309 50.3903 41.1309 50.1236Z" fill="#FF5000"/>
<path fill-rule="evenodd" clip-rule="evenodd" d="M41.1309 54.1462C41.1309 53.8795 41.1309 53.1403 41.1309 53.1403C41.1309 53.1403 41.8725 53.1406 42.1402 53.1406H50.2151C50.4828 53.1406 51.2245 53.1406 51.2245 53.1406C51.2245 53.1406 51.2245 53.8795 51.2245 54.1462C51.2245 54.4129 51.2245 55.1518 51.2245 55.1518C51.2245 55.1518 50.4828 55.1518 50.2151 55.1518H42.1402C41.8725 55.1518 41.1311 55.1518 41.1311 55.1518C41.1311 55.1518 41.1309 54.4129 41.1309 54.1462Z" fill="#FF5000"/>
<path fill-rule="evenodd" clip-rule="evenodd" d="M33.0562 50.1234V53.1403H36.0843V50.1234H33.0562ZM32.0468 48.1122H37.0937C37.3614 48.1122 38.103 48.1121 38.103 48.1121C38.103 48.1121 38.103 48.8511 38.103 49.1178V54.1459C38.103 54.4126 38.103 55.1515 38.103 55.1515C38.103 55.1515 37.3614 55.1515 37.0937 55.1515H32.0468C31.7791 55.1515 31.0375 55.1515 31.0375 55.1515C31.0375 55.1515 31.0375 54.4126 31.0375 54.1459V49.1178C31.0375 48.8511 31.0375 48.1121 31.0375 48.1121C31.0375 48.1121 31.7791 48.1122 32.0468 48.1122Z" fill="#FF5000"/>
<path fill-rule="evenodd" clip-rule="evenodd" d="M38.8162 36.3395C39.0055 36.5281 39.1118 36.7838 39.1118 37.0505C39.1118 37.3171 39.0055 37.5729 38.8162 37.7614L34.0652 42.4948L31.3328 39.7727C31.2364 39.6799 31.1595 39.5689 31.1066 39.4462C31.0537 39.3236 31.0259 39.1916 31.0247 39.0581C31.0236 38.9246 31.0491 38.7921 31.0998 38.6685C31.1506 38.545 31.2255 38.4327 31.3203 38.3383C31.4151 38.2438 31.5278 38.1692 31.6518 38.1186C31.7759 38.068 31.9088 38.0426 32.0428 38.0438C32.1768 38.0449 32.3093 38.0727 32.4324 38.1254C32.5556 38.1781 32.667 38.2547 32.7601 38.3507L34.0652 39.651L37.389 36.3395C37.5783 36.151 37.835 36.0451 38.1026 36.0451C38.3703 36.0451 38.6269 36.151 38.8162 36.3395Z" fill="#FF5000"/>
</svg>
