<svg width="28" height="28" viewBox="0 0 28 28" fill="none" xmlns="http://www.w3.org/2000/svg">
<path d="M27.5334 13.5333C20.3285 13.5333 14.4667 7.67154 14.4667 0.466675C14.4667 0.466675 14.2576 0.466678 14 0.466678C13.7424 0.466678 13.5334 0.466675 13.5334 0.466675C13.5334 7.67154 7.67157 13.5333 0.466705 13.5333V14V14.4667C7.67157 14.4667 13.5334 20.3285 13.5334 27.5333H14H14.4667C14.4667 20.3285 20.3285 14.4667 27.5334 14.4667C27.5334 14.4667 27.5334 14.2576 27.5334 14C27.5334 13.7424 27.5334 13.5333 27.5334 13.5333ZM14 23.9503C12.7162 19.1053 8.89471 15.2838 4.04977 14C8.89471 12.7162 12.7162 8.89467 14 4.04974C15.2838 8.89467 19.1054 12.7162 23.9503 14C19.1054 15.2838 15.2838 19.1053 14 23.9503Z" fill="#FF5000"/>
</svg>
