<svg width="306" height="114" viewBox="0 0 306 114" fill="none" xmlns="http://www.w3.org/2000/svg">
<path d="M33.26 38.33V38.7H33.52L33.26 38.33ZM33.26 38.33L33.03 38H33.26V38.33ZM33.26 38.33V75.7H24.35V45.85H9.9V75H15.5C17.7639 74.9854 20.025 75.1594 22.26 75.52C24.187 75.8012 26.0411 76.4532 27.72 77.44C29.2384 78.3366 30.4804 79.634 31.31 81.19C32.2448 83.0761 32.6918 85.1665 32.61 87.27C32.6946 89.393 32.2478 91.5035 31.31 93.41C30.4736 94.9715 29.2339 96.2802 27.72 97.2C26.0319 98.1687 24.1819 98.8226 22.26 99.13C20.0291 99.5019 17.7717 99.6925 15.51 99.7H9.9V112.7H1V1H9.95V18.42L22.64 1H32.93L19.31 18.63L33.01 38L33.26 38.33ZM259.67 38L243.67 62.44V38H235.08V75.7H243.67L259.67 51.26V75.7H268.26V38H259.67ZM272.27 38V45.8H284.33V75.7H293.26V45.8H305.38V38H272.27ZM186.62 48.87C185.74 46.5613 184.376 44.4678 182.62 42.73C180.866 40.9745 178.76 39.6112 176.44 38.73C171.318 36.8634 165.702 36.8634 160.58 38.73C158.265 39.6257 156.158 40.9872 154.39 42.73C152.66 44.489 151.3 46.5767 150.39 48.87C149.429 51.4262 148.954 54.1394 148.99 56.87C148.954 59.6006 149.429 62.3139 150.39 64.87C151.297 67.1645 152.658 69.2527 154.39 71.01C156.155 72.756 158.263 74.1179 160.58 75.01H160.66H149.89L136.2 56.36L149.77 38H139.48L131.1 49.39L122.78 38H112.33L125.85 56.51L111.71 75.7H116.05L115.83 75.78C113.511 76.6395 111.402 77.9843 109.645 79.7243C107.888 81.4644 106.522 83.5597 105.64 85.87C103.763 91.0381 103.763 96.7019 105.64 101.87C106.522 104.18 107.888 106.276 109.645 108.016C111.402 109.756 113.511 111.1 115.83 111.96C120.949 113.84 126.571 113.84 131.69 111.96C134.013 111.08 136.123 109.717 137.88 107.96C139.636 106.222 140.999 104.128 141.88 101.82C143.824 96.6638 143.824 90.9762 141.88 85.82C140.997 83.513 139.633 81.4201 137.88 79.68C136.121 77.9264 134.012 76.5634 131.69 75.68C129.165 74.7194 126.481 74.2444 123.78 74.28C123.49 74.28 123.2 74.28 122.91 74.28L130.91 63.36L139.91 75.58H143.44V82.68H155.5V112.7H164.44V82.8H176.56V75H176.32H176.4C178.722 74.1227 180.829 72.7588 182.58 71C184.338 69.264 185.703 67.17 186.58 64.86C187.577 62.3125 188.07 59.5954 188.03 56.86C188.081 54.1306 187.602 51.4172 186.62 48.87ZM123.78 81.7C125.12 81.6898 126.447 81.9553 127.68 82.48C128.926 82.9954 130.032 83.7971 130.91 84.82C131.896 85.9157 132.638 87.2072 133.09 88.61C133.678 90.2998 133.959 92.0812 133.92 93.87C133.956 95.6717 133.675 97.4657 133.09 99.17C132.622 100.568 131.881 101.86 130.91 102.97C130.018 103.963 128.914 104.742 127.68 105.25C126.447 105.775 125.12 106.04 123.78 106.03C122.408 106.042 121.047 105.777 119.78 105.25C118.559 104.724 117.462 103.947 116.56 102.97C115.611 101.843 114.869 100.556 114.37 99.17C113.822 97.4579 113.558 95.6674 113.59 93.87C113.555 92.0854 113.818 90.3076 114.37 88.61C114.853 87.219 115.596 85.9328 116.56 84.82C117.448 83.8127 118.548 83.0137 119.78 82.48C121.047 81.9533 122.408 81.688 123.78 81.7ZM177.83 62.17C177.362 63.5685 176.621 64.8601 175.65 65.97C174.758 66.9631 173.654 67.7424 172.42 68.25C171.187 68.7747 169.86 69.0402 168.52 69.03C167.165 69.0353 165.822 68.7701 164.57 68.25C163.349 67.7242 162.252 66.9474 161.35 65.97C160.397 64.8456 159.655 63.5583 159.16 62.17C158.612 60.4579 158.348 58.6674 158.38 56.87C158.345 55.0854 158.608 53.3076 159.16 51.61C159.639 50.2173 160.382 48.9303 161.35 47.82C162.238 46.8127 163.338 46.0137 164.57 45.48C165.822 44.9599 167.165 44.6947 168.52 44.7C169.86 44.6898 171.187 44.9553 172.42 45.48C173.666 45.9954 174.772 46.7971 175.65 47.82C176.636 48.9157 177.378 50.2072 177.83 51.61C178.414 53.3008 178.695 55.0815 178.66 56.87C178.693 58.6747 178.412 60.4713 177.83 62.18V62.17ZM224.81 67.85V38H197.26L196.74 51.21C196.64 53.77 196.5 56.1 196.33 58.21C196.231 59.9802 195.97 61.7375 195.55 63.46C195.317 64.639 194.814 65.748 194.08 66.7C193.754 67.0795 193.346 67.3802 192.887 67.5793C192.428 67.7785 191.93 67.8711 191.43 67.85H189.26V75H186.87L172.7 112.7H182.17L184.4 105.99H198.96L201.26 112.7H210.93L197.67 77.7V75.7H221.38V83.24H229.75V67.85H224.81ZM186.81 98.76L191.7 84.41L196.53 98.76H186.81ZM215.88 67.85H201.67C202.945 66.1157 203.832 64.1274 204.27 62.02C204.917 59.2561 205.299 56.4366 205.41 53.6L205.78 45.85H215.92L215.88 67.85ZM111.77 48.87C110.89 46.5613 109.526 44.4678 107.77 42.73C106.014 40.9766 103.909 39.6136 101.59 38.73L101.36 38.7H109.02L94.82 18.63L108.44 1H98.15L85.46 18.42V1H76.52V38.7H85.41V20.45L97.71 37.7C96.3892 37.47 95.0507 37.3562 93.71 37.36C90.9789 37.3176 88.2644 37.7926 85.71 38.76C83.3917 39.6262 81.2842 40.9756 79.5273 42.7187C77.7705 44.4618 76.4045 46.5586 75.52 48.87C74.5593 51.4262 74.0845 54.1394 74.12 56.87C74.084 59.6006 74.5589 62.3139 75.52 64.87C76.4056 67.1796 77.7722 69.2744 79.529 71.0157C81.2858 72.757 83.3927 74.1049 85.71 74.97H85.79H70.26V112.7H86.81C88.9062 112.717 90.9981 112.509 93.05 112.08C94.7706 111.727 96.3986 111.018 97.83 110C99.1716 109.035 100.245 107.745 100.95 106.25C101.732 104.465 102.104 102.528 102.04 100.58C102.103 98.668 101.73 96.7667 100.95 95.02C100.268 93.5828 99.2061 92.3589 97.88 91.48C96.4901 90.5359 94.9152 89.8985 93.26 89.61C91.2852 89.2121 89.2744 89.0211 87.26 89.04H79.11V82.49H99.44V75.7C100.165 75.5044 100.879 75.2707 101.58 75C103.9 74.1202 106.007 72.7567 107.76 71C109.518 69.264 110.883 67.17 111.76 64.86C112.757 62.3125 113.25 59.5954 113.21 56.86C113.251 54.1286 112.762 51.4151 111.77 48.87ZM86.91 95.64C90.7167 95.64 92.6233 97.2367 92.63 100.43C92.6367 103.623 90.73 105.217 86.91 105.21H79.11V95.64H86.91ZM102.98 62.18C102.512 63.5785 101.771 64.8701 100.8 65.98C99.9056 66.97 98.8024 67.7488 97.57 68.26C96.3372 68.7846 95.0097 69.0501 93.67 69.04C92.2977 69.0528 90.937 68.7875 89.67 68.26C88.447 67.7321 87.347 66.9557 86.44 65.98C85.4937 64.8526 84.7556 63.5659 84.26 62.18C83.7118 60.4679 83.4483 58.6774 83.48 56.88C83.4448 55.0954 83.7084 53.3176 84.26 51.62C84.7394 50.2297 85.4793 48.9434 86.44 47.83C87.3339 46.8246 88.4361 46.0261 89.67 45.49C90.937 44.9625 92.2977 44.6972 93.67 44.71C95.0097 44.6998 96.3372 44.9653 97.57 45.49C98.8141 46.0081 99.9201 46.8093 100.8 47.83C101.786 48.9257 102.528 50.2172 102.98 51.62C103.564 53.3108 103.845 55.0915 103.81 56.88C103.841 58.6813 103.561 60.4745 102.98 62.18ZM67.44 40.44C65.7612 39.4532 63.907 38.8012 61.98 38.52C59.7582 38.1616 57.5105 37.9877 55.26 38H44.53L46.53 32H61.09L63.38 38.7H73.05L58.8 1H49.03L34.83 38.7H40.71V75.7H42.47L28.54 112.7H38L40.26 105.99H54.8L57.08 112.7H66.76L52.51 75H49.61V62.7H55.26C57.5237 62.7096 59.7844 62.5357 62.02 62.18C63.9419 61.8726 65.7919 61.2187 67.48 60.25C68.9939 59.3302 70.2336 58.0215 71.07 56.46C72.0078 54.5535 72.4546 52.443 72.37 50.32C72.4518 48.2165 72.0048 46.1261 71.07 44.24C70.237 42.6604 68.9799 41.3444 67.44 40.44ZM53.86 10.41L58.7 24.76H48.98L53.86 10.41ZM52.4 98.76H42.68L47.57 84.41L52.4 98.76ZM62.4 52.76C62.0034 53.3955 61.4441 53.9134 60.78 54.26C60.0472 54.6346 59.2558 54.8814 58.44 54.99C57.4768 55.1345 56.5039 55.2047 55.53 55.2H49.61V45.49H55.48C56.454 45.4853 57.4268 45.5555 58.39 45.7C59.212 45.7726 60.0094 46.0179 60.73 46.42C61.3979 46.7427 61.9598 47.2492 62.35 47.88C62.757 48.6088 62.9543 49.436 62.92 50.27C62.9535 51.1167 62.7565 51.9565 62.35 52.7L62.4 52.76ZM15.77 82.49C16.7439 82.4853 17.7168 82.5555 18.68 82.7C19.502 82.7726 20.2994 83.0179 21.02 83.42C21.6848 83.7472 22.2457 84.2527 22.64 84.88C23.0645 85.6037 23.2792 86.4312 23.26 87.27C23.2782 88.1213 23.0639 88.9615 22.64 89.7C22.2408 90.3334 21.6822 90.8507 21.02 91.2C20.2872 91.5746 19.4958 91.8214 18.68 91.93C17.7168 92.0745 16.7439 92.1447 15.77 92.14H9.9V82.49H15.77ZM9.9 38V20.45L22.4 38H9.9Z" stroke="#262626" stroke-width="0.5" stroke-miterlimit="10"/>
</svg>
