<svg width="417" height="140" viewBox="0 0 417 140" fill="none" xmlns="http://www.w3.org/2000/svg">
<path d="M400 68.1V137.7H416.4V68.1H400Z" stroke="#262626" stroke-width="0.75" stroke-miterlimit="10"/>
<path d="M389.3 103C387.7 99.9 385.5 97.5 382.7 95.8C379.9 94.1 376.5 92.9 372.6 92.3C368.8 91.6 364.6 91.2 360.1 91.2H353.6V71.7H364.7L338.4 2.1H320.4L295.5 68.1H287.7V2.1H262.1L248.5 52L235.2 2.1H209.3V71.7H213.1C210.6 73.1 208.3 74.8 206.2 76.8C203.1 79.9 200.6 83.7 198.8 88.1C197.1 92.5 196.2 97.4 196.2 102.9C196.2 108.4 197.1 113.3 198.8 117.7C200.6 122.1 203.1 125.9 206.2 129C209.4 132.1 213.2 134.6 217.6 136.3C222 138 226.9 138.9 232.3 138.9C237.6 138.9 242.5 138 246.9 136.3C251.4 134.6 255.2 132.1 258.3 129C261.5 125.9 264 122.1 265.7 117.7C267.5 113.3 268.4 108.4 268.4 102.9C268.4 97.4 267.5 92.5 265.7 88.1C264 83.7 261.5 79.9 258.3 76.8C256.3 74.8 254 73.1 251.5 71.7H256.3L271.8 15.9V68.1H268.6V82.5H290.9V137.7H307.4V82.5H329.8V68.1H312.9L315.8 59.3H342.7L345.7 68.1H337.2V137.7H360.1C364.6 137.7 368.7 137.4 372.6 136.7C376.5 136.1 379.9 134.9 382.7 133.2C385.5 131.5 387.7 129.1 389.3 126.1C390.9 123.1 391.7 119.3 391.7 114.6C391.7 109.9 390.9 106 389.3 103ZM225.2 16L239.7 67.6C237.3 67.2 234.9 67 232.3 67C229.8 67 227.5 67.2 225.2 67.5V16ZM249.5 112.7C248.5 115.5 247.2 117.8 245.5 119.7C243.8 121.6 241.9 123 239.5 123.9C237.3 124.9 234.9 125.3 232.3 125.3C229.7 125.3 227.3 124.8 225 123.9C222.8 122.9 220.8 121.5 219.1 119.7C217.4 117.8 216.1 115.4 215.1 112.7C214.1 109.9 213.7 106.6 213.7 102.9C213.7 99.2 214.2 95.9 215.1 93.2C216.1 90.4 217.5 88.1 219.1 86.2C220.8 84.3 222.8 82.8 225 81.9C227.3 80.9 229.7 80.5 232.3 80.5C234.9 80.5 237.3 81 239.5 81.9C241.8 82.9 243.8 84.3 245.5 86.2C247.2 88.1 248.6 90.4 249.5 93.2C250.5 96 251 99.2 251 102.9C251 106.6 250.5 109.9 249.5 112.7ZM320.3 46L329.3 19.5L338.2 46H320.3ZM373.3 119.3C372.6 120.5 371.6 121.5 370.3 122.2C369.1 122.8 367.6 123.3 366 123.5C364.3 123.8 362.5 123.9 360.6 123.9H353.6V105.1H360.6C362.5 105.1 364.3 105.2 366 105.5C367.7 105.8 369.1 106.2 370.3 106.9C371.6 107.6 372.6 108.6 373.3 109.8C374 111 374.4 112.6 374.4 114.6C374.4 116.5 374 118 373.3 119.3Z" stroke="#262626" stroke-width="0.75" stroke-miterlimit="10"/>
<path d="M198.4 16.5V2.1H145V68.1H136.5L112.9 36L138 2.1H119L103.5 23.1L88.1 2.1H68.9L93.9 36.3L67.8 71.7H81.3L56.4 137.7H73.9L78 125.3H104.9L109.1 137.7H127L100.7 68.1H89.3L103.3 49.1L119.9 71.7H133.4V137.7H164C168.2 137.7 172.1 137.3 175.5 136.5C178.9 135.7 181.9 134.5 184.3 132.7C186.8 130.9 188.7 128.6 190.1 125.8C191.4 123 192.1 119.5 192.1 115.3C192.1 111.2 191.4 107.8 190.1 105C188.8 102.2 186.9 100.1 184.4 98.5C182 96.8 179.2 95.7 175.9 95C172.6 94.3 168.9 93.9 164.9 93.9H149.8V81.9H187.3V71.7H198.3V57.2H161.3V43.2H196.3V28.7H161.3V16.5H198.4ZM91.6 85.5L100.5 112H82.5L91.6 85.5ZM164.2 106.2C171.2 106.2 174.8 109.2 174.8 115C174.8 120.9 171.3 123.8 164.2 123.8H149.8V106.1H164.2V106.2Z" stroke="#262626" stroke-width="0.75" stroke-miterlimit="10"/>
<path d="M64.9 56.8C66.8 53.5 68.1 49.8 68.7 45.8H52.7C52.2 48.4 51.4 50.6 50.2 52.4C49 54.1 47.7 55.5 46.2 56.6C44.7 57.6 43 58.4 41.2 58.8C39.4 59.2 37.6 59.4 35.8 59.4C33.3 59.4 31 58.9 28.8 58C26.7 57 24.8 55.6 23.2 53.7C21.7 51.8 20.4 49.4 19.6 46.6C18.7 43.8 18.3 40.6 18.3 36.9C18.3 33.4 18.8 30.2 19.6 27.5C20.5 24.7 21.7 22.3 23.2 20.4C24.8 18.5 26.7 17 28.8 16.1C30.9 15.1 33.2 14.6 35.6 14.6C37.5 14.6 39.4 14.9 41.2 15.5C43.1 16 44.7 16.8 46.2 17.9C47.7 19 48.9 20.4 50 22.1C51.1 23.8 51.9 25.9 52.3 28.2H68.4C67.8 24.2 66.6 20.6 64.9 17.2C63.1 13.9 60.8 11 58 8.7C55.2 6.3 52 4.4 48.3 3C44.6 1.7 40.6 1 36.3 1C30.9 1 26 1.8 21.6 3.5C17.3 5.2 13.5 7.6 10.5 10.7C7.4 13.8 5.1 17.6 3.4 22C1.8 26.4 1 31.4 1 36.9C1 42.5 1.8 47.5 3.4 52C5 56.4 7.3 60.2 10.3 63.3C12.1 65.2 14.2 66.8 16.4 68.2H5.6V137.7H22V113.6H32.4C36.9 113.6 41 113.3 44.9 112.6C48.8 111.9 52.2 110.7 55 109.1C57.8 107.4 60 105 61.6 102.1C63.2 99.2 64 95.4 64 90.8C64 86.3 63.2 82.5 61.6 79.6C60 76.7 57.8 74.4 55 72.7C53.5 71.8 51.7 71 49.8 70.4C52.8 69.2 55.5 67.6 57.8 65.6C60.7 63 63.1 60.2 64.9 56.8ZM45.5 95.3C44.8 96.4 43.8 97.4 42.5 98.1C41.3 98.7 39.8 99.2 38.2 99.5C36.5 99.7 34.7 99.9 32.8 99.9H22V81.9H32.8C34.7 81.9 36.5 82 38.2 82.3C39.9 82.5 41.3 82.9 42.5 83.6C43.8 84.2 44.8 85.1 45.5 86.3C46.2 87.4 46.6 88.9 46.6 90.7C46.6 92.6 46.2 94.1 45.5 95.3Z" stroke="#262626" stroke-width="0.75" stroke-miterlimit="10"/>
</svg>
