<svg width="270" height="672" fill="none" xmlns="http://www.w3.org/2000/svg"><g clip-path="url(#clip0_22:95)"><path fill-rule="evenodd" clip-rule="evenodd" d="M630.019 658.315L701 639.299v-.001l-8.164-2.187-56.84 15.228-5.977 5.976zm4.39-7.276l-6.667 6.666-1.666 1.666 2.276.61 40.98 10.981 2.276.61 1.667-1.667 30.001-29.997 1.667-1.666-2.276-.61-9.107-2.44-11.383-3.05-11.383-3.05-9.107-2.44-2.277-.611-1.666 1.667-6.667 6.666-8.334 8.332-8.334 8.333zm18.254-15.365l-5.977 5.976 31.547-8.452-8.163-2.187-17.407 4.663zm14.187-5.526l-11.83 3.169 5-4.999 6.83 1.83zm14.603 3.913l-37.124 9.946-5.976 5.975 51.264-13.734-8.164-2.187zm-28.667 30.354l-8.164-2.187 45.687-12.24-5.977 5.976-31.546 8.451zm3.219.863l8.164 2.187 11.83-3.169 5.976-5.976-25.97 6.958zm14.994 4.017l-3.611-.967 6.253-1.675-2.642 2.642zm21.667-21.664l-51.264 13.734-8.163-2.187 65.404-17.523-5.977 5.976zm-119.563-4.567l70.981-19.016-8.164-2.188-56.84 15.229-5.977 5.975zm4.39-7.276l-6.667 6.666-1.666 1.667 2.276.61 40.98 10.98 2.276.61 1.667-1.666 30.002-29.997 1.666-1.667-2.276-.61-9.107-2.44-11.383-3.05-11.383-3.05-9.107-2.44-2.277-.61-1.666 1.666-6.667 6.666-8.334 8.333-8.334 8.332zm18.254-15.364l-5.977 5.975 31.547-8.451-8.163-2.188-17.407 4.664zm14.187-5.527l-11.83 3.17 5-5 6.83 1.83zm14.603 3.913l-37.124 9.946-5.976 5.976 51.264-13.734-8.164-2.188zm-28.667 30.355l-8.164-2.188 45.687-12.24-5.977 5.976-31.546 8.452zm3.219.862l8.164 2.188 11.83-3.17 5.976-5.975-25.97 6.957zm14.994 4.018l-3.611-.968 6.253-1.675-2.642 2.643zm21.667-21.665l-51.264 13.734-8.163-2.187 65.404-17.522-5.977 5.975zm-119.563-4.566l5.977-5.976 56.84-15.228 8.164 2.187-70.981 19.017zm-2.277-.61l6.667-6.666 8.334-8.333 8.334-8.332 6.667-6.666 1.666-1.667 2.277.61 9.107 2.44 11.383 3.051 11.383 3.05 9.107 2.44 2.276.61-1.666 1.666-30.002 29.997-1.667 1.667-2.276-.61-40.98-10.981-2.276-.61 1.666-1.666zm18.944-16.055l5.977-5.976 17.406-4.664 8.164 2.188-31.547 8.452zm8.334-8.333l11.83-3.169-6.83-1.83-5 4.999zm-10.691 10.689l37.124-9.945 8.164 2.187-51.264 13.734 5.976-5.976zm.294 18.222l8.162 2.187 31.547-8.452 5.977-5.975-45.686 12.24zm19.546 5.237l-8.163-2.187 25.969-6.958-5.976 5.976-11.83 3.169zm3.22.863l3.61.967 2.642-2.643-6.252 1.676zm-25.987-6.963l51.264-13.734 5.977-5.976-65.404 17.523 8.163 2.187zm144.118-14.211l70.98-19.017-8.163-2.187-56.841 15.228-5.976 5.976zm4.39-7.276l-6.667 6.666-1.667 1.666 2.277.61L711 629.299l2.277.611 1.667-1.667 30.001-29.997 1.667-1.666-2.277-.61-9.106-2.44-11.384-3.051-11.383-3.05-9.106-2.44-2.277-.61-1.667 1.667-6.667 6.666-8.333 8.332-8.334 8.333zm18.254-15.365l-5.977 5.976 31.547-8.452-8.164-2.187-17.406 4.663zm14.187-5.526l-11.83 3.169 5-4.999 6.83 1.83zm14.603 3.913l-37.124 9.945-5.977 5.976 51.264-13.734-8.163-2.187zm-28.668 30.354l-8.163-2.188 45.686-12.239-5.976 5.975-31.547 8.452zm3.22.863l8.163 2.187 11.83-3.169 5.977-5.976-25.97 6.958zm14.993 4.017l-3.61-.967 6.253-1.676-2.643 2.643zm21.668-21.664l-51.264 13.734-8.164-2.188 65.404-17.522-5.976 5.976zm-119.563-4.567l5.976-5.976 56.841-15.228 8.163 2.188-70.98 19.016zm-2.277-.61l6.667-6.666 8.334-8.332 8.333-8.333 6.667-6.666 1.667-1.666 2.277.61 9.106 2.44 11.383 3.05 11.384 3.05 9.106 2.44 2.277.61-1.667 1.667-30.001 29.996-1.667 1.667-2.277-.61-40.979-10.981-2.277-.61 1.667-1.666zm18.944-16.055l5.977-5.976 17.406-4.663 8.164 2.187-31.547 8.452zm8.334-8.332l11.83-3.17-6.83-1.83-5 5zm-10.691 10.689l37.124-9.946 8.163 2.187-51.264 13.735 5.977-5.976zm.293 18.221l8.163 2.187 31.547-8.451 5.976-5.976-45.686 12.24zm19.546 5.237l-8.163-2.187 25.97-6.958-5.977 5.976-11.83 3.169zm3.22.863l3.61.967 2.643-2.642-6.253 1.675zm-25.986-6.963l51.264-13.734 5.976-5.976-65.404 17.523 8.164 2.187zm-68.299-18.301l70.98-19.016-8.164-2.188-56.84 15.229-5.976 5.975zm4.39-7.276l-6.667 6.666-1.667 1.667 2.277.61 40.979 10.98 2.277.61 1.667-1.666 30.001-29.997 1.667-1.666-2.277-.611-9.106-2.44-11.384-3.05-11.383-3.05-9.106-2.44-2.277-.61-1.667 1.667-6.667 6.665-8.333 8.333-8.334 8.332zm18.254-15.364l-5.977 5.975 31.547-8.451-8.164-2.188-17.406 4.664zm14.187-5.526l-11.83 3.169 5-4.999 6.83 1.83zm14.602 3.912l-37.123 9.946-5.977 5.976 51.264-13.734-8.164-2.188zm-28.667 30.355l-8.163-2.188 45.686-12.24-5.976 5.976-31.547 8.452zm3.22.862l8.163 2.188 11.83-3.17 5.977-5.975-25.97 6.957zm14.993 4.018l-3.61-.967 6.253-1.676-2.643 2.643zm21.668-21.664l-51.264 13.733-8.163-2.187 65.403-17.522-5.976 5.976zm92.853-.478l5.977-5.976 56.84-15.227 8.164 2.187-70.981 19.016zm-2.277-.61l6.667-6.666 8.334-8.332 8.334-8.333 6.667-6.666 1.667-1.666 2.276.61 9.107 2.44 11.383 3.05 11.383 3.05 9.107 2.44 2.276.61-1.666 1.667-30.002 29.997-1.667 1.666-2.276-.61-40.98-10.98-2.276-.61 1.666-1.667zm18.944-16.055l5.977-5.976 17.407-4.663 8.164 2.188-31.548 8.451zm8.334-8.332l11.83-3.169-6.83-1.831-5 5zm-10.69 10.689l37.123-9.946 8.164 2.188-51.264 13.734 5.977-5.976zm.292 18.221l8.164 2.188 31.547-8.452 5.976-5.975-45.687 12.239zm19.547 5.238l-8.164-2.188 25.97-6.957-5.976 5.975-11.83 3.17zm3.219.862l3.611.968 2.642-2.642-6.253 1.674zm-25.986-6.963l51.264-13.734 5.976-5.975-65.403 17.522 8.163 2.187zm-68.299-18.3l70.981-19.017-8.164-2.187-56.84 15.228-5.977 5.976zm4.39-7.276l-6.667 6.666-1.666 1.666 2.276.61 40.98 10.981 2.276.61 1.667-1.667 30.002-29.997 1.666-1.666-2.276-.61-9.107-2.44-11.383-3.05-11.383-3.051-9.107-2.44-2.276-.61-1.667 1.667-6.667 6.666-8.334 8.332-8.334 8.333zm18.254-15.365l-5.977 5.976 31.548-8.452-8.164-2.187-17.407 4.663zm14.187-5.526l-11.83 3.169 5-4.999 6.83 1.83zm14.603 3.913l-37.123 9.945-5.977 5.976 51.264-13.734-8.164-2.187zm-28.667 30.354l-8.164-2.187 45.687-12.24-5.976 5.975-31.547 8.452zm3.219.863l8.164 2.187 11.83-3.169 5.976-5.976-25.97 6.958zm14.994 4.017l-3.61-.967 6.252-1.675-2.642 2.642zm21.667-21.664l-51.263 13.734-8.164-2.188 65.403-17.521-5.976 5.975zm-119.563-4.567l5.977-5.976 56.84-15.228 8.164 2.188-70.981 19.016zm-2.277-.61l6.667-6.666 8.334-8.332 8.334-8.333 6.667-6.666 1.667-1.666 2.276.61 9.107 2.44 11.383 3.05 11.383 3.05 9.107 2.44 2.276.61-1.666 1.667-30.002 29.997-1.667 1.666-2.276-.61-40.98-10.98-2.276-.61 1.666-1.667zm18.945-16.055l5.976-5.976 17.407-4.663 8.164 2.187-31.547 8.452zm8.333-8.332l11.83-3.17-6.83-1.83-5 5zm-10.69 10.689l37.123-9.946 8.164 2.188-51.264 13.734 5.977-5.976zm.293 18.221l8.162 2.187 31.548-8.451 5.976-5.976-45.686 12.24zm19.546 5.237l-8.163-2.187 25.969-6.957-5.976 5.975-11.83 3.169zm3.22.863l3.61.968 2.642-2.643-6.252 1.675zm-25.987-6.963l51.264-13.734 5.976-5.975-65.403 17.522 8.163 2.187zm-151.636 65.024l70.981-19.016-8.164-2.188-56.84 15.228-5.977 5.976zm4.39-7.276l-6.667 6.666-1.666 1.666 2.276.611 40.98 10.98 2.276.61 1.667-1.667 30.002-29.996 1.666-1.667-2.276-.61-9.107-2.44-11.383-3.05-11.383-3.05-9.107-2.44-2.277-.61-1.666 1.666-6.667 6.666-8.334 8.333-8.334 8.332zm18.254-15.365l-5.977 5.976 31.547-8.452-8.164-2.187-17.406 4.663zm14.187-5.526l-11.83 3.17 5-5 6.83 1.83zm14.603 3.913l-37.124 9.946-5.976 5.976 51.264-13.734-8.164-2.188zm-28.668 30.354l-8.162-2.187 45.686-12.24-5.977 5.976-31.547 8.451zm3.221.863l8.163 2.187 11.83-3.169 5.976-5.976-25.969 6.958zm14.993 4.017l-3.61-.967 6.252-1.675-2.642 2.642zm21.667-21.664l-51.264 13.734-8.163-2.187 65.404-17.522-5.977 5.975zm-119.563-4.567l70.981-19.016-8.164-2.188-56.84 15.229-5.977 5.975zm4.39-7.276l-6.667 6.666-1.666 1.667 2.276.61 40.98 10.98 2.276.61 1.667-1.666 30.002-29.997 1.666-1.666-2.276-.61-9.107-2.441-11.383-3.05-11.383-3.05-9.107-2.44-2.277-.61-1.666 1.667-6.667 6.666-8.334 8.332-8.334 8.332zm18.254-15.364l-5.977 5.976 31.547-8.452-8.164-2.188-17.406 4.664zm14.187-5.526l-11.83 3.169 5-4.999 6.83 1.83zm14.603 3.912l-37.124 9.946-5.976 5.976 51.264-13.734-8.164-2.188zm-28.668 30.355l-8.162-2.188 45.686-12.24-5.977 5.976-31.547 8.452zm3.221.863l8.163 2.187 11.83-3.169 5.976-5.976-25.969 6.958zm14.993 4.017l-3.61-.967 6.252-1.676-2.642 2.643zm21.667-21.664l-51.264 13.734-8.163-2.188 65.404-17.522-5.977 5.976zm-48.582-23.583l-70.981 19.016 5.977-5.976 56.84-15.228 8.164 2.187v.001zm-73.258 18.406l6.667-6.666 8.334-8.333 8.334-8.332 6.667-6.666 1.666-1.667 2.277.611 9.107 2.44 11.383 3.05 11.383 3.05 9.107 2.44 2.276.61-1.666 1.666-30.002 29.997-1.667 1.667-2.276-.61-40.98-10.981-2.276-.61 1.666-1.666zm18.944-16.055l5.977-5.976 17.406-4.663 8.165 2.187-31.548 8.452zm8.334-8.333l11.83-3.169-6.83-1.83-5 4.999zm-10.691 10.69l37.124-9.946 8.164 2.187-51.264 13.734 5.976-5.975zm.294 18.221l8.162 2.187 31.547-8.451 5.977-5.976-45.686 12.24zm19.546 5.237l-8.163-2.187 25.969-6.958-5.976 5.976-11.83 3.169zm3.22.863l3.61.967 2.643-2.642-6.253 1.675zm-25.987-6.963l51.264-13.734 5.977-5.976-65.404 17.523 8.163 2.187zm144.118-14.211l70.98-19.016v-.001l-8.164-2.187-56.84 15.228-5.976 5.976zm4.39-7.276l-6.667 6.666-1.667 1.666 2.277.61 40.979 10.981 2.277.61 1.667-1.667 30.001-29.997 1.667-1.666-2.277-.61-9.106-2.44-11.384-3.05-11.383-3.05-9.106-2.441-2.277-.61-1.667 1.667-6.667 6.666-8.333 8.332-8.334 8.333zm18.254-15.365l-5.977 5.976 31.547-8.452-8.164-2.187-17.406 4.663zm14.187-5.526l-11.83 3.169 5-4.999 6.83 1.83zm14.602 3.913l-37.123 9.946-5.977 5.975 51.264-13.734-8.164-2.187zm-28.667 30.354l-8.163-2.187 45.686-12.24-5.976 5.975-31.547 8.452zm3.22.863l8.163 2.187 11.83-3.169 5.977-5.976-25.97 6.958zm14.993 4.017l-3.61-.967 6.253-1.675-2.643 2.642zm21.668-21.664l-51.264 13.734-8.163-2.187 65.403-17.523-5.976 5.976zm-119.563-4.567l5.976-5.976 56.84-15.228 8.164 2.188-70.98 19.016zm-2.277-.61l6.667-6.666 8.334-8.332 8.333-8.333 6.667-6.666 1.667-1.666 2.277.61 9.106 2.44 11.383 3.05 11.384 3.05 9.106 2.44 2.277.61-1.667 1.667-30.001 29.997-1.667 1.666-2.277-.61-40.979-10.98-2.277-.61 1.667-1.667zm18.944-16.055l5.977-5.975 17.406-4.664 8.164 2.188-31.547 8.451zm8.334-8.332l11.83-3.17-6.83-1.83-5 5zm-10.691 10.689l37.123-9.946 8.164 2.188-51.264 13.734 5.977-5.976zm.293 18.221l8.163 2.187 31.547-8.451 5.976-5.976-45.686 12.24zm19.546 5.238l-8.163-2.188 25.97-6.957-5.977 5.975-11.83 3.17zm3.22.862l3.61.968 2.643-2.643-6.253 1.675zm-25.986-6.963l51.264-13.734 5.976-5.975-65.403 17.522 8.163 2.187zm-62.323-24.276l-5.976 5.976 70.98-19.017-8.164-2.187-56.84 15.228zm-1.586-1.3l-6.667 6.666-1.667 1.666 2.277.61 40.979 10.98 2.277.611 1.667-1.667 30.001-29.997 1.667-1.666-2.277-.61-9.106-2.44-11.384-3.051-11.383-3.05-9.106-2.44-2.277-.61-1.667 1.667-6.667 6.666-8.333 8.332-8.334 8.333zm18.254-15.365l-5.977 5.976 31.547-8.452-8.164-2.188-17.406 4.664zm14.187-5.526l-11.83 3.169 5-4.999 6.83 1.83zm14.602 3.913l-37.123 9.945-5.977 5.976 51.264-13.734-8.164-2.187zM409.874 546.5l-8.163-2.187 45.686-12.24-5.976 5.975-31.547 8.452zm3.22.863l8.163 2.187 11.83-3.169 5.977-5.976-25.97 6.958zm14.993 4.017l-3.61-.967 6.253-1.676-2.643 2.643zm21.668-21.664l-51.264 13.734-8.163-2.188 65.403-17.522-5.976 5.976zm92.853-.477l5.977-5.977 56.84-15.227 8.164 2.187-70.981 19.017zm-2.277-.611l6.667-6.665 8.334-8.333 8.334-8.332 6.667-6.666 1.667-1.667 2.276.61 9.107 2.44 11.383 3.05 11.383 3.051 9.107 2.44 2.276.61-1.666 1.666-30.002 29.997-1.666 1.666-2.277-.61-40.98-10.98-2.276-.61 1.666-1.667zm18.945-16.054l5.976-5.976 17.407-4.664 8.164 2.188-31.547 8.452zm8.333-8.333l11.83-3.169-6.83-1.83-5 4.999zm-10.69 10.689l37.123-9.946 8.164 2.188-51.264 13.734 5.977-5.976zm.293 18.222l8.162 2.187 31.548-8.452 5.976-5.975-45.686 12.24zm19.546 5.237l-8.163-2.187 25.969-6.958-5.976 5.975-11.83 3.17zm3.22.863l3.61.967 2.642-2.642-6.252 1.675zm-25.987-6.963l51.264-13.734 5.976-5.976-65.403 17.522 8.163 2.188zm-68.299-18.301l70.981-19.016-8.164-2.188-56.84 15.228-5.977 5.976zm4.39-7.276l-6.667 6.666-1.666 1.666 2.276.61 40.98 10.981 2.277.61 1.666-1.667 30.002-29.996 1.666-1.667-2.276-.61-9.107-2.44-11.383-3.05-11.383-3.05-9.107-2.44-2.276-.61-1.667 1.666-6.667 6.666-8.334 8.332-8.334 8.333zm18.254-15.365l-5.976 5.976 31.547-8.452-8.164-2.187-17.407 4.663zm14.187-5.526l-11.83 3.17 5-5 6.83 1.83zm14.603 3.913l-37.123 9.945-5.977 5.976 51.264-13.734-8.164-2.187zm-28.667 30.354l-8.163-2.187 45.686-12.24-5.976 5.975-31.547 8.452zm3.22.863l8.163 2.187 11.83-3.169 5.976-5.975-25.969 6.957zm14.993 4.017l-3.61-.967 6.252-1.675-2.642 2.642zm21.667-21.664l-51.264 13.734-8.163-2.187 65.403-17.522-5.976 5.975zm-48.582-23.583l-70.981 19.016 5.977-5.976 56.84-15.228 8.164 2.188zm-73.258 18.406l6.667-6.666 8.334-8.332 8.334-8.333 6.667-6.666 1.667-1.666 2.276.61 9.107 2.44 11.383 3.05 11.383 3.05 9.107 2.44 2.276.61-1.666 1.667-30.002 29.997-1.666 1.666-2.277-.61-40.98-10.98-2.276-.61 1.666-1.667zm18.945-16.055l5.976-5.976 17.407-4.663 8.164 2.188-31.547 8.451zm8.333-8.332l11.83-3.169-6.83-1.831-5 5zm-10.69 10.689l37.123-9.946 8.164 2.188-51.264 13.734 5.977-5.976zm.293 18.221l8.163 2.188 31.547-8.452 5.976-5.975-45.686 12.239zm19.546 5.238l-8.163-2.188 25.969-6.957-5.976 5.975-11.83 3.17zm3.22.863l3.61.967 2.642-2.642-6.252 1.675zm-25.987-6.964l51.264-13.734 5.976-5.975-65.403 17.522 8.163 2.187zm144.118-14.211l5.977-5.976 56.839-15.228 8.164 2.188-70.98 19.016zm-2.277-.61l6.667-6.666 8.334-8.332 8.333-8.333 6.667-6.666 1.667-1.666 2.277.61 9.106 2.44 11.383 3.05 11.384 3.05 9.106 2.44 2.277.61-1.667 1.667-30.001 29.997-1.667 1.666-2.277-.61-40.979-10.98-2.277-.61 1.667-1.667zm18.944-16.055l5.977-5.976 17.406-4.663 8.164 2.188-31.547 8.451zm8.334-8.332l11.83-3.169-6.83-1.831-5 5zm-10.691 10.689l37.123-9.946 8.164 2.188-51.264 13.734 5.977-5.976zm.293 18.221l8.163 2.187 31.547-8.451 5.976-5.975-45.686 12.239zm19.546 5.238l-8.163-2.188 25.969-6.957-5.976 5.975-11.83 3.17zm3.221.862l3.609.968 2.643-2.643-6.252 1.675zm-25.987-6.963l51.264-13.734 5.976-5.975-65.403 17.522 8.163 2.187zm-68.299-18.3l5.977-5.976 56.839-15.228 8.165 2.187-70.981 19.017zm-2.277-.61l6.667-6.666 8.334-8.333 8.333-8.332 6.667-6.666 1.667-1.667 2.277.61 9.106 2.44 11.383 3.051 11.384 3.05 9.106 2.44 2.277.61-1.667 1.666-30.001 29.997-1.667 1.667-2.277-.61-40.979-10.981-2.277-.61 1.667-1.666zm18.944-16.055l5.977-5.976 17.406-4.664 8.164 2.188-31.547 8.452zm8.334-8.333l11.83-3.169-6.83-1.83-5 4.999zm-10.691 10.689l37.123-9.945 8.164 2.187-51.264 13.734 5.977-5.976zm.293 18.222l8.163 2.187 31.547-8.452 5.976-5.975-45.686 12.24zm19.546 5.237l-8.163-2.187 25.969-6.958-5.976 5.976-11.83 3.169zm3.221.863l3.609.967 2.643-2.642-6.252 1.675zm-25.987-6.963l51.264-13.734 5.976-5.975-65.403 17.522 8.163 2.187zm2.682-37.317l-8.165-2.188-56.839 15.228-5.977 5.976 70.981-19.016zm-66.591 11.74l-6.667 6.666-1.667 1.667 2.277.61 40.979 10.98 2.277.61 1.667-1.666 30.001-29.997 1.667-1.667-2.277-.61-9.106-2.44-11.384-3.05-11.383-3.05-9.106-2.44-2.277-.61-1.667 1.666-6.667 6.666-8.333 8.333-8.334 8.332zm18.254-15.365l-5.977 5.976 31.547-8.452-8.164-2.187-17.406 4.663zm14.187-5.526l-11.83 3.17 5-5 6.83 1.83zm14.602 3.913l-37.123 9.946-5.977 5.976 51.264-13.734-8.164-2.188zm-28.667 30.354l-8.163-2.187 45.686-12.24-5.976 5.976-31.547 8.451zm3.22.863l8.163 2.187 11.83-3.169 5.976-5.975-25.969 6.957zm14.993 4.017l-3.609-.967 6.252-1.675-2.643 2.642zm21.668-21.664l-51.264 13.734-8.163-2.187 65.403-17.522-5.976 5.975zm92.853-.477l5.977-5.976 56.84-15.228 8.164 2.188-70.981 19.016zm-2.276-.61l6.667-6.666 8.333-8.332 8.334-8.333 6.667-6.666 1.667-1.666 2.276.61 9.107 2.44 11.383 3.05 11.383 3.05 9.107 2.44 2.276.61-1.666 1.667-30.002 29.996-1.666 1.667-2.277-.61-40.98-10.981-2.276-.61 1.667-1.666zm18.944-16.055l5.977-5.976 17.406-4.663 8.164 2.187-31.547 8.452zm8.333-8.332l11.83-3.17-6.829-1.83-5.001 5zm-10.69 10.689l37.123-9.946 8.164 2.187-51.264 13.735 5.977-5.976zm.293 18.221l8.163 2.187 31.547-8.451 5.976-5.976-45.686 12.24zm19.546 5.237l-8.163-2.187 25.969-6.957-5.976 5.975-11.83 3.169zm3.22.863l3.61.967 2.642-2.642-6.252 1.675zm-25.987-6.963l51.264-13.734 5.976-5.975-65.403 17.522 8.163 2.187zm-68.299-18.301l70.981-19.016-8.164-2.188-56.84 15.228-5.977 5.976zm4.39-7.276l-6.666 6.666-1.667 1.667 2.276.61 40.98 10.98 2.277.61 1.666-1.666 30.002-29.997 1.666-1.666-2.276-.61-9.107-2.441-11.383-3.05-11.383-3.05-9.107-2.44-2.276-.61-1.667 1.667-6.667 6.666-8.334 8.332-8.334 8.332zm18.255-15.365l-5.977 5.977 31.547-8.452-8.164-2.188-17.406 4.663zm14.186-5.525l-11.83 3.169 5.001-4.999 6.829 1.83zm14.603 3.912l-37.123 9.946-5.977 5.976 51.264-13.734-8.164-2.188zm-28.667 30.355l-8.163-2.188 45.686-12.239-5.976 5.975-31.547 8.452zm3.22.863l8.163 2.187 11.83-3.17 5.976-5.975-25.969 6.958zm14.993 4.017l-3.61-.967 6.252-1.675-2.642 2.642zm21.667-21.665l-51.264 13.735-8.163-2.188 65.403-17.522-5.976 5.975zm-119.563-4.566l5.977-5.976 56.84-15.228 8.164 2.187-70.981 19.017zm-2.276-.61l6.667-6.666 8.333-8.333 8.334-8.332 6.667-6.666 1.667-1.667 2.276.61 9.107 2.441 11.383 3.05 11.383 3.05 9.107 2.44 2.276.61-1.666 1.666-30.002 29.997-1.666 1.667-2.277-.61-40.98-10.981-2.276-.61 1.667-1.666zm18.944-16.055l5.977-5.976 17.406-4.663 8.164 2.187-31.547 8.452zm8.333-8.333l11.83-3.169-6.829-1.83-5.001 4.999zm-10.69 10.689l37.123-9.945 8.164 2.187-51.264 13.734 5.977-5.976zm.293 18.222l8.163 2.187 31.547-8.452 5.976-5.975-45.686 12.24zm19.546 5.237l-8.163-2.187 25.969-6.957-5.976 5.975-11.83 3.169zm3.22.863l3.61.967 2.642-2.642-6.252 1.675zm-25.987-6.963l51.264-13.734 5.976-5.975-65.402 17.522 8.162 2.187zm144.118-14.211l70.981-19.017-8.164-2.187-56.84 15.228-5.977 5.976zm4.39-7.276l-6.667 6.666-1.667 1.666 2.277.61 40.979 10.981 2.277.61 1.667-1.667 30.001-29.997 1.667-1.666-2.277-.61-9.106-2.44-11.383-3.05-11.384-3.05-9.106-2.441-2.277-.61-1.667 1.667-6.667 6.666-8.333 8.332-8.334 8.333zm18.254-15.365l-5.977 5.976 31.547-8.452-8.164-2.187-17.406 4.663zm14.187-5.526l-11.83 3.169 5-4.999 6.83 1.83zm14.602 3.913l-37.123 9.945-5.977 5.976 51.264-13.734-8.164-2.187zm-28.667 30.354l-8.163-2.187 45.686-12.24-5.976 5.975-31.547 8.452zm3.22.863l8.163 2.187 11.83-3.169 5.977-5.975-25.97 6.957zm14.993 4.017l-3.609-.967 6.252-1.675-2.643 2.642zm21.668-21.664l-51.264 13.734-8.163-2.187 65.403-17.522-5.976 5.975zm-119.563-4.567l5.977-5.976 56.84-15.228 8.164 2.188-70.981 19.016zm-2.277-.61l6.667-6.666 8.334-8.332 8.333-8.333 6.667-6.666 1.667-1.666 2.277.61 9.106 2.44 11.384 3.05 11.383 3.05 9.106 2.44 2.277.61-1.667 1.667-30.001 29.997-1.667 1.666-2.277-.61-40.979-10.98-2.277-.61 1.667-1.667zm18.944-16.055l5.977-5.976 17.406-4.663 8.164 2.188-31.547 8.451zm8.334-8.332l11.83-3.17-6.83-1.83-5 5zm-10.691 10.689l37.123-9.946 8.164 2.188-51.264 13.734 5.977-5.976zm.293 18.221l8.163 2.187 31.547-8.451 5.976-5.976-45.686 12.24zm19.546 5.238l-8.163-2.188 25.97-6.957-5.977 5.975-11.83 3.17zm3.221.862l3.609.968 2.643-2.643-6.252 1.675zm-25.987-6.963l51.264-13.734 5.976-5.975-65.403 17.522 8.163 2.187zm2.682-37.317l-8.164-2.187-56.84 15.228-5.977 5.976 70.981-19.017zm-66.591 11.741l-6.667 6.666-1.667 1.666 2.277.61 40.979 10.98 2.277.611 1.667-1.667 30.001-29.997 1.667-1.666-2.277-.61-9.106-2.44-11.383-3.051-11.384-3.05-9.106-2.44-2.277-.61-1.667 1.667-6.667 6.666-8.333 8.332-8.334 8.333zm18.254-15.365l-5.977 5.976 31.547-8.452-8.164-2.188-17.406 4.664zm14.187-5.526l-11.83 3.169 5-4.999 6.83 1.83zm14.602 3.912l-37.123 9.946-5.977 5.976 51.264-13.734-8.164-2.188zm-28.667 30.355l-8.163-2.187 45.686-12.24-5.976 5.975-31.547 8.452zm3.22.863l8.163 2.187 11.83-3.17 5.977-5.975-25.97 6.958zm14.993 4.017l-3.609-.967 6.252-1.675-2.643 2.642zm21.668-21.664l-51.264 13.734-8.163-2.188 65.403-17.522-5.976 5.976zM294.5 560.836l-5.977 5.975 70.981-19.016-8.164-2.188-56.84 15.229zm-1.587-1.301l-6.667 6.666-1.666 1.667 2.276.61 40.98 10.98 2.276.61 1.667-1.666 30.002-29.997 1.666-1.667-2.276-.61-9.107-2.44-11.383-3.05-11.383-3.05-9.107-2.44-2.277-.61-1.666 1.666-6.667 6.666-8.334 8.333-8.334 8.332zm18.254-15.364l-5.977 5.975 31.547-8.451-8.164-2.188-17.406 4.664zm14.187-5.527l-11.83 3.17 5-5 6.83 1.83zm14.603 3.913l-37.124 9.946-5.976 5.976 51.264-13.734-8.164-2.188zm-28.668 30.354l-8.162-2.187 45.686-12.24-5.977 5.976-31.547 8.451zm3.221.863l8.163 2.188 11.83-3.17 5.976-5.975-25.969 6.957zm14.993 4.018l-3.61-.968 6.253-1.675-2.643 2.643zm21.667-21.665l-51.264 13.734-8.163-2.187 65.404-17.522-5.977 5.975zm-113.586-10.542l-5.977 5.976 70.981-19.017-8.164-2.187-56.84 15.228zm-1.587-1.3l-6.667 6.666-1.666 1.666 2.276.61 40.98 10.981 2.276.61 1.667-1.667 30.002-29.997 1.666-1.666-2.276-.61-9.107-2.44-11.383-3.05-11.383-3.051-9.107-2.44-2.277-.61-1.666 1.667-6.667 6.666-8.334 8.332-8.334 8.333zm18.254-15.365l-5.977 5.976 31.547-8.452-8.164-2.188-17.406 4.664zm14.187-5.526l-11.83 3.169 5-4.999 6.83 1.83zm14.603 3.913l-37.124 9.945-5.976 5.976 51.264-13.734-8.164-2.187zm-28.668 30.354l-8.162-2.187 45.686-12.24-5.977 5.975-31.547 8.452zm3.221.863l8.163 2.187 11.83-3.169 5.976-5.976-25.969 6.958zm14.993 4.017l-3.61-.967 6.253-1.676-2.643 2.643zm21.667-21.664l-51.264 13.734-8.163-2.187 65.404-17.523-5.977 5.976zm-48.582-23.583l-70.981 19.016 5.977-5.976 56.84-15.228 8.164 2.188zM172.414 535.7l6.667-6.666 8.334-8.332 8.334-8.333 6.667-6.666 1.666-1.666 2.277.61 9.107 2.44 11.383 3.05 11.383 3.05 9.107 2.44 2.276.61-1.666 1.667-30.002 29.996-1.667 1.667-2.276-.61-40.98-10.98-2.276-.611 1.666-1.666zm18.944-16.055l5.977-5.976 17.406-4.663 8.165 2.187-31.548 8.452zm8.334-8.332l11.83-3.17-6.83-1.83-5 5zm-10.691 10.689l37.124-9.946 8.164 2.188-51.264 13.734 5.976-5.976zm.294 18.221l8.162 2.187 31.547-8.451 5.977-5.976-45.686 12.24zm19.546 5.237l-8.163-2.187 25.969-6.958-5.976 5.976-11.83 3.169zm3.22.863l3.61.967 2.643-2.642-6.253 1.675zm-25.987-6.963l51.264-13.734 5.977-5.975-65.404 17.522 8.163 2.187zm150.094-20.187l-5.976 5.976 70.98-19.016-8.164-2.188-56.84 15.228zm-1.586-1.3l-6.667 6.666-1.667 1.666 2.277.61 40.979 10.981 2.277.61 1.667-1.667 30.001-29.996 1.667-1.667-2.277-.61-9.106-2.44-11.384-3.05-11.383-3.05-9.106-2.44-2.277-.61-1.667 1.666-6.667 6.666-8.333 8.333-8.334 8.332zm18.254-15.365l-5.977 5.976 31.547-8.452-8.164-2.187-17.406 4.663zm14.187-5.526l-11.83 3.17 5-5 6.83 1.83zm14.602 3.913l-37.123 9.946-5.977 5.976 51.264-13.735-8.164-2.187zm-28.667 30.354l-8.163-2.187 45.686-12.24-5.976 5.976-31.547 8.451zm3.22.863l8.163 2.187 11.83-3.169 5.977-5.976-25.97 6.958zm14.993 4.017l-3.61-.967 6.253-1.675-2.643 2.642zm21.668-21.664l-51.264 13.734-8.163-2.187 65.403-17.523-5.976 5.976zm-56.747-25.771l8.164 2.188-70.98 19.016 5.976-5.975 56.84-15.229zm-65.093 20.594l6.667-6.666L286 494.29l8.333-8.333 6.667-6.665 1.667-1.667 2.277.61 9.106 2.44 11.383 3.05 11.384 3.05 9.106 2.44 2.277.611-1.667 1.666-30.001 29.997-1.667 1.666-2.277-.61-40.979-10.98-2.277-.61 1.667-1.667zm18.944-16.055l5.977-5.975 17.406-4.664 8.164 2.188-31.547 8.451zm8.334-8.332l11.83-3.169-6.83-1.83-5 4.999zm-10.691 10.689l37.123-9.946 8.164 2.188-51.264 13.734 5.977-5.976zm.293 18.221l8.163 2.188 31.547-8.452 5.976-5.976-45.686 12.24zm19.546 5.238l-8.163-2.188 25.97-6.957-5.977 5.975-11.83 3.17zm3.22.863l3.61.967 2.643-2.643-6.253 1.676zm-25.986-6.964l51.264-13.733 5.976-5.976-65.403 17.522 8.163 2.187zm-62.323-24.276l-5.976 5.976 70.98-19.017-8.164-2.187-56.84 15.228zm-1.586-1.3l-6.667 6.666-1.667 1.666 2.277.61 40.979 10.981 2.277.61 1.667-1.667 30.001-29.997 1.667-1.666-2.277-.61-9.106-2.44-11.384-3.05-11.383-3.05-9.106-2.441-2.277-.61-1.667 1.667-6.667 6.666-8.333 8.332-8.334 8.333zm18.254-15.365l-5.977 5.976 31.547-8.452-8.164-2.187-17.406 4.663zm14.187-5.526l-11.83 3.169 5-4.999 6.83 1.83zm14.602 3.913l-37.123 9.946-5.977 5.975 51.264-13.734-8.164-2.187zm-28.667 30.354l-8.163-2.187 45.686-12.24-5.976 5.975-31.547 8.452zm3.22.863l8.163 2.187 11.83-3.169 5.977-5.976-25.97 6.958zm14.993 4.017l-3.61-.967 6.253-1.675-2.643 2.642zm21.668-21.664l-51.264 13.734-8.163-2.187 65.403-17.523-5.976 5.976zm155.67-21.681l8.164 2.187-70.981 19.017 5.977-5.976 56.84-15.228zm-65.094 20.594l6.667-6.666 8.334-8.333 8.334-8.332 6.667-6.666 1.667-1.667 2.276.61 9.107 2.44 11.383 3.051 11.383 3.05 9.107 2.44 2.276.61-1.666 1.666-30.002 29.997-1.666 1.667-2.277-.61-40.98-10.981-2.276-.61 1.666-1.666zm18.945-16.055l5.976-5.976 17.407-4.663 8.164 2.187-31.547 8.452zm8.333-8.333l11.83-3.169-6.83-1.83-5 4.999zm-10.69 10.689l37.123-9.945 8.164 2.187-51.264 13.734 5.977-5.976zm.293 18.222l8.163 2.187 31.547-8.452 5.976-5.975-45.686 12.24zm19.546 5.237l-8.163-2.187 25.969-6.958-5.976 5.976-11.83 3.169zm3.22.863l3.61.967 2.642-2.642-6.252 1.675zm-25.987-6.963l51.264-13.734 5.976-5.975-65.403 17.522 8.163 2.187zm-62.322-24.277l-5.977 5.976 70.981-19.016-8.164-2.188-56.84 15.228zm-1.587-1.3l-6.667 6.666-1.666 1.667 2.276.61 40.98 10.98 2.277.61 1.666-1.666 30.002-29.997 1.666-1.667-2.276-.61-9.107-2.44-11.383-3.05-11.383-3.05-9.107-2.44-2.276-.61-1.667 1.666-6.667 6.666-8.334 8.333-8.334 8.332zm18.254-15.365l-5.976 5.976 31.547-8.452-8.164-2.187-17.407 4.663zm14.187-5.526l-11.83 3.17 5-5 6.83 1.83zm14.603 3.913l-37.123 9.946-5.977 5.976 51.264-13.734-8.164-2.188zm-28.667 30.354l-8.163-2.187 45.686-12.24-5.976 5.976-31.547 8.451zm3.22.863l8.163 2.187 11.83-3.169 5.976-5.975-25.969 6.957zm14.993 4.018l-3.61-.968 6.252-1.675-2.642 2.643zm21.667-21.665l-51.264 13.734-8.163-2.187 65.403-17.522-5.976 5.975zm-56.746-25.77l8.164 2.187-70.981 19.017 5.977-5.977 56.84-15.227zm-65.094 20.593l6.667-6.665 8.334-8.333 8.334-8.332 6.667-6.666 1.667-1.667 2.276.61 9.107 2.44 11.383 3.05 11.383 3.051 9.107 2.44 2.276.61-1.666 1.666-30.002 29.997-1.666 1.666-2.277-.61-40.98-10.98-2.276-.61 1.666-1.667zm18.945-16.054l5.976-5.976 17.407-4.664 8.164 2.188-31.547 8.452zm8.333-8.333l11.83-3.169-6.83-1.83-5 4.999zm-10.69 10.689l37.123-9.946 8.164 2.188-51.264 13.734 5.977-5.976zm.293 18.222l8.163 2.187 31.547-8.452 5.976-5.975-45.686 12.24zm19.546 5.237l-8.163-2.187 25.969-6.958-5.976 5.975-11.83 3.17zm3.22.863l3.61.967 2.642-2.642-6.252 1.675zm-25.987-6.963l51.264-13.734 5.976-5.976-65.403 17.522 8.163 2.188zm144.118-14.212l5.977-5.976 56.839-15.227 8.165 2.187-70.981 19.016zm-2.277-.61l6.667-6.666 8.334-8.332 8.333-8.332 6.667-6.666 1.667-1.667 2.277.61 9.106 2.44 11.384 3.05 11.383 3.05 9.106 2.441 2.277.61-1.667 1.666-30.001 29.997-1.667 1.666-2.277-.61-40.979-10.98-2.277-.61 1.667-1.667zm18.944-16.054l5.977-5.976 17.406-4.664 8.164 2.188-31.547 8.452zm8.334-8.333l11.83-3.169-6.83-1.83-5 4.999zm-10.691 10.689l37.123-9.946 8.164 2.188-51.264 13.734 5.977-5.976zm.293 18.221l8.163 2.188 31.547-8.452 5.976-5.975-45.686 12.239zm19.546 5.238l-8.163-2.187 25.97-6.958-5.977 5.975-11.83 3.17zm3.221.863l3.609.967 2.643-2.642-6.252 1.675zm-25.987-6.963l51.264-13.734 5.976-5.976-65.403 17.522 8.163 2.188zm-68.299-18.301l5.977-5.976 56.84-15.228 8.164 2.187-70.981 19.017zm-2.277-.61l6.667-6.666 8.334-8.333 8.333-8.332 6.667-6.666 1.667-1.666 2.277.61 9.106 2.44 11.384 3.05 11.383 3.05 9.106 2.44 2.277.61-1.667 1.666-30.001 29.997-1.667 1.667-2.277-.61-40.979-10.981-2.277-.61 1.667-1.666zm18.944-16.055l5.977-5.976 17.406-4.663 8.164 2.187-31.547 8.452zm8.334-8.332l11.83-3.17-6.83-1.83-5 5zm-10.691 10.688l37.123-9.945 8.164 2.187-51.264 13.734 5.977-5.976zm.293 18.222l8.163 2.187 31.547-8.452 5.976-5.975-45.686 12.24zm19.546 5.237l-8.163-2.187 25.97-6.957-5.977 5.975-11.83 3.169zm3.221.863l3.609.967 2.643-2.642-6.252 1.675zm-25.987-6.963l51.264-13.734 5.976-5.975-65.403 17.522 8.163 2.187zm2.682-37.317l-8.164-2.188-56.84 15.228-5.977 5.976 70.981-19.016zm-66.591 11.74l-6.667 6.666-1.667 1.667 2.277.61 40.979 10.98 2.277.61 1.667-1.666 30.001-29.997 1.667-1.667-2.277-.61-9.106-2.44-11.383-3.05-11.384-3.05-9.106-2.44-2.277-.61-1.667 1.666-6.667 6.666-8.333 8.333-8.334 8.332zm18.254-15.365l-5.977 5.976 31.547-8.451-8.164-2.188-17.406 4.663zm14.187-5.526l-11.83 3.17 5-5 6.83 1.83zm14.602 3.913l-37.123 9.946-5.977 5.976 51.264-13.734-8.164-2.188zm-28.667 30.354l-8.163-2.187 45.686-12.239-5.976 5.975-31.547 8.451zm3.22.863l8.163 2.188 11.83-3.17 5.977-5.975-25.97 6.957zm14.993 4.018l-3.609-.968 6.252-1.675-2.643 2.643zm21.668-21.665l-51.264 13.734-8.163-2.187 65.403-17.522-5.976 5.975zm92.853-.477l5.977-5.976 56.84-15.228 8.164 2.188-70.981 19.016zm-2.276-.61l6.667-6.666 8.333-8.332 8.334-8.333 6.667-6.666 1.667-1.666 2.276.61 9.107 2.44 11.383 3.05 11.383 3.05 9.107 2.44 2.276.61-1.666 1.667-30.002 29.997-1.666 1.666-2.277-.61-40.98-10.98-2.276-.61 1.667-1.667zm18.944-16.055l5.977-5.976 17.406-4.663 8.164 2.188-31.547 8.451zm8.333-8.332l11.83-3.17-6.829-1.83-5.001 5zm-10.69 10.689l37.123-9.946 8.164 2.188-51.264 13.734 5.977-5.976zm.293 18.221l8.163 2.187 31.547-8.451 5.976-5.975-45.686 12.239zm19.546 5.238l-8.163-2.188 25.969-6.957-5.976 5.975-11.83 3.17zm3.22.862l3.61.968 2.642-2.643-6.252 1.675zm-25.987-6.963l51.264-13.734 5.976-5.975-65.402 17.522 8.162 2.187zm2.682-37.317l-8.164-2.187-56.84 15.228-5.977 5.976 70.981-19.017zm-66.59 11.741l-6.667 6.666-1.667 1.666 2.276.61 40.98 10.981 2.277.61 1.666-1.667 30.002-29.997 1.666-1.666-2.276-.61-9.107-2.44-11.383-3.051-11.383-3.05-9.107-2.44-2.276-.61-1.667 1.667-6.667 6.666-8.334 8.332-8.333 8.333zm18.254-15.365l-5.977 5.976 31.547-8.452-8.164-2.188-17.406 4.664zm14.186-5.526l-11.83 3.169 5.001-4.999 6.829 1.83zm14.603 3.913l-37.123 9.945-5.977 5.976 51.264-13.734-8.164-2.187zm-28.667 30.354l-8.163-2.187 45.686-12.24-5.976 5.975-31.547 8.452zm3.22.863l8.163 2.187 11.83-3.169 5.976-5.976-25.969 6.958zm14.993 4.017l-3.61-.967 6.252-1.675-2.642 2.642zm21.667-21.664l-51.264 13.734-8.162-2.188 65.402-17.522-5.976 5.976zm-119.563-4.567l5.977-5.976 56.84-15.228 8.164 2.188-70.981 19.016zm-2.276-.61l6.667-6.666 8.333-8.332 8.334-8.333 6.667-6.666 1.667-1.666 2.276.61 9.107 2.44 11.383 3.05 11.383 3.05 9.107 2.44 2.276.61-1.666 1.667-30.002 29.996-1.666 1.667-2.277-.61-40.98-10.981-2.276-.61 1.667-1.666zm18.944-16.055l5.977-5.976 17.406-4.663 8.164 2.187-31.547 8.452zm8.333-8.332l11.83-3.17-6.829-1.83-5.001 5zm-10.69 10.689l37.123-9.946 8.164 2.187-51.264 13.735 5.977-5.976zm.293 18.221l8.163 2.187 31.547-8.451 5.976-5.976-45.686 12.24zm19.546 5.237l-8.163-2.187 25.969-6.957-5.976 5.975-11.83 3.169zm3.22.863l3.61.967 2.642-2.642-6.252 1.675zm-25.987-6.963l51.264-13.734 5.976-5.975-65.402 17.522 8.162 2.187zm215.099-33.227l-8.164-2.188-56.84 15.228-5.977 5.976 70.981-19.016zm-66.591 11.74l-6.667 6.666-1.667 1.666 2.277.61 40.98 10.981 2.276.61 1.667-1.667 30.001-29.996 1.667-1.667-2.277-.61-9.106-2.44-11.383-3.05-11.384-3.05-9.106-2.44-2.277-.61-1.667 1.666-6.667 6.666-8.333 8.333-8.334 8.332zm18.254-15.365l-5.977 5.976 31.547-8.452-8.164-2.187-17.406 4.663zm14.187-5.526l-11.83 3.17 5-5 6.83 1.83zm14.602 3.913l-37.123 9.945-5.977 5.976 51.264-13.734-8.164-2.187zM519.632 364.6l-8.163-2.187 45.686-12.24-5.976 5.975-31.547 8.452zm3.22.863l8.163 2.187 11.83-3.169 5.977-5.975-25.97 6.957zm14.993 4.017l-3.609-.967 6.252-1.675-2.643 2.642zm21.668-21.664l-51.264 13.734-8.163-2.187 65.403-17.522-5.976 5.975zm-119.563-4.567l5.977-5.976 56.84-15.228 8.164 2.188-70.981 19.016zm-2.277-.61l6.667-6.666 8.334-8.332 8.333-8.333 6.667-6.666 1.667-1.666 2.277.61 9.106 2.44 11.384 3.05 11.383 3.05 9.106 2.44 2.277.61-1.667 1.667-30.001 29.997-1.667 1.666-2.276-.61-40.98-10.98-2.277-.61 1.667-1.667zm18.944-16.055l5.977-5.976L480 315.945l8.164 2.188-31.547 8.451zm8.334-8.332l11.83-3.169-6.83-1.83-5 4.999zm-10.691 10.689l37.123-9.946 8.164 2.188-51.264 13.734 5.977-5.976zm.293 18.221l8.163 2.188 31.547-8.452 5.976-5.975-45.686 12.239zm19.546 5.238l-8.163-2.188 25.97-6.957-5.977 5.975-11.83 3.17zm3.221.863l3.609.967 2.643-2.642-6.252 1.675zm-25.987-6.964l51.264-13.734 5.976-5.975-65.403 17.522 8.163 2.187zm2.682-37.317l-8.164-2.187-56.84 15.228-5.977 5.976 70.981-19.017zm-66.591 11.741l-6.667 6.666-1.667 1.666 2.277.61 40.98 10.981 2.276.61 1.667-1.667 30.001-29.997 1.667-1.666-2.277-.61-9.106-2.44-11.383-3.05-11.384-3.05-9.106-2.441-2.277-.61-1.667 1.667-6.667 6.666-8.333 8.332-8.334 8.333zm18.254-15.365l-5.977 5.976 31.547-8.452-8.164-2.187-17.406 4.663zm14.187-5.526l-11.83 3.169 5-4.999 6.83 1.83zm14.602 3.913l-37.123 9.945-5.977 5.976 51.264-13.734-8.164-2.187zM405.8 334.099l-8.163-2.187 45.686-12.24-5.976 5.975-31.547 8.452zm3.22.863l8.163 2.187 11.831-3.169 5.976-5.975-25.97 6.957zm14.993 4.017l-3.609-.967 6.252-1.675-2.643 2.642zm21.668-21.664l-51.264 13.734-8.163-2.187 65.403-17.522-5.976 5.975zM123.752 515.084l-5.977 5.975 70.981-19.016-8.164-2.188-56.84 15.229zm-1.587-1.301l-6.667 6.666-1.666 1.667 2.276.61 40.98 10.98 2.276.61 1.667-1.666 30.002-29.997 1.666-1.666-2.276-.61-9.107-2.441-11.383-3.05-11.383-3.05-9.107-2.44-2.277-.61-1.666 1.667-6.667 6.666-8.334 8.332-8.334 8.332zm18.254-15.364l-5.977 5.976 31.548-8.452-8.164-2.188-17.407 4.664zm14.187-5.526l-11.83 3.169 5-4.999 6.83 1.83zm14.603 3.912l-37.124 9.946-5.976 5.976 51.264-13.734-8.164-2.188zm-28.668 30.355l-8.162-2.188 45.686-12.24-5.977 5.976-31.547 8.452zm3.221.863l8.163 2.187 11.83-3.169 5.976-5.976-25.969 6.958zm14.993 4.017l-3.61-.967 6.253-1.676-2.643 2.643zm21.667-21.664l-51.264 13.734-8.163-2.188 65.404-17.522-5.977 5.976zM66.836 499.833l-5.977 5.976 70.981-19.017-8.164-2.187-56.84 15.228zm-1.587-1.3l-6.667 6.666-1.666 1.666 2.276.61 40.98 10.981 2.276.61 1.667-1.667 30.002-29.997 1.666-1.666-2.276-.61-9.107-2.44-11.383-3.05-11.383-3.05-9.107-2.44-2.276-.611-1.667 1.667-6.667 6.666-8.334 8.332-8.334 8.333zm18.254-15.365l-5.977 5.976 31.548-8.452-8.164-2.187-17.407 4.663zm14.187-5.526l-11.83 3.169 5-4.999 6.83 1.83zm14.603 3.913l-37.124 9.946-5.976 5.975 51.264-13.734-8.164-2.187zm-28.668 30.354l-8.162-2.187 45.686-12.24-5.977 5.975-31.547 8.452zm3.22.863l8.164 2.187 11.83-3.169 5.976-5.976-25.97 6.958zm14.994 4.017l-3.61-.967 6.253-1.675-2.643 2.642zm21.667-21.664l-51.264 13.734-8.163-2.187 65.404-17.523-5.977 5.976zm-48.582-23.583L3.943 490.558l5.977-5.975 56.84-15.229 8.164 2.188zM1.666 489.948l6.667-6.666 8.334-8.332 8.334-8.333 6.667-6.666 1.666-1.666 2.277.61 9.107 2.44 11.383 3.05 11.383 3.05 9.107 2.44 2.276.61-1.666 1.667-30.002 29.997-1.666 1.666-2.277-.61-40.98-10.98-2.276-.61 1.666-1.667zm18.944-16.055l5.977-5.975 17.406-4.664 8.165 2.188-31.548 8.451zm8.334-8.332l11.83-3.17-6.83-1.83-5 5zm-10.69 10.689l37.123-9.946 8.164 2.188-51.264 13.734 5.976-5.976zm.293 18.221l8.162 2.187 31.547-8.451 5.977-5.976-45.687 12.24zm19.546 5.238l-8.163-2.188 25.97-6.957-5.977 5.975-11.83 3.17zm3.22.862l3.61.968 2.642-2.643-6.252 1.675zm-25.987-6.963l51.264-13.734 5.977-5.975-65.404 17.522 8.163 2.187zm150.094-20.187l-5.976 5.976 70.98-19.016-8.164-2.188-56.84 15.228zm-1.586-1.3l-6.667 6.666-1.667 1.667 2.277.61 40.979 10.98 2.277.61 1.667-1.666 30.001-29.997 1.667-1.667-2.277-.61-9.106-2.44-11.384-3.05-11.383-3.05-9.106-2.44-2.277-.61-1.667 1.666-6.667 6.666-8.333 8.333-8.334 8.332zm18.254-15.364l-5.977 5.975 31.547-8.451-8.164-2.188-17.406 4.664zm14.187-5.527l-11.83 3.17 5-5 6.83 1.83zm14.602 3.913l-37.123 9.946-5.977 5.976 51.264-13.734-8.164-2.188zm-28.667 30.354l-8.163-2.187 45.686-12.24-5.976 5.976-31.547 8.451zm3.22.863l8.163 2.188 11.83-3.17 5.977-5.975-25.97 6.957zm14.993 4.018l-3.609-.968 6.252-1.675-2.643 2.643zm21.668-21.665l-51.264 13.734-8.163-2.187 65.403-17.522-5.976 5.975zm-56.747-25.77l8.164 2.187-70.98 19.017 5.976-5.976 56.84-15.228zm-65.093 20.594l6.667-6.666 8.334-8.333 8.333-8.332 6.667-6.666 1.667-1.667 2.277.61 9.106 2.44 11.383 3.05 11.384 3.051 9.106 2.44 2.277.61-1.667 1.666-30.001 29.997-1.667 1.667-2.277-.611-40.979-10.98-2.277-.61 1.667-1.666zm18.944-16.055l5.977-5.976 17.406-4.664 8.164 2.188-31.547 8.452zm8.334-8.333l11.83-3.169-6.83-1.83-5 4.999zm-10.691 10.689l37.123-9.945 8.164 2.187-51.264 13.734 5.977-5.976zm.293 18.222l8.163 2.187 31.547-8.452 5.976-5.975-45.686 12.24zm19.546 5.237l-8.163-2.187 25.97-6.958-5.977 5.976-11.83 3.169zm3.22.863l3.61.967 2.643-2.643-6.253 1.676zm-25.986-6.963l51.264-13.734 5.976-5.976-65.403 17.522 8.163 2.188zM51.588 442.92l-5.976 5.976 70.98-19.016-8.164-2.188-56.84 15.228zm-1.586-1.3l-6.667 6.666-1.667 1.666 2.277.61 40.98 10.981 2.276.61 1.667-1.667 30.001-29.996 1.667-1.667-2.277-.61-9.106-2.44-11.384-3.05-11.383-3.05-9.106-2.44-2.277-.61-1.667 1.666-6.667 6.666-8.333 8.333-8.334 8.332zm18.254-15.365l-5.977 5.976 31.547-8.452-8.164-2.187-17.406 4.663zm14.187-5.526l-11.83 3.17 5-5 6.83 1.83zm14.602 3.913l-37.123 9.946-5.977 5.976 51.264-13.735-8.164-2.187zm-28.667 30.354l-8.163-2.187 45.686-12.24-5.976 5.976-31.547 8.451zm3.22.863l8.163 2.187 11.83-3.169 5.977-5.976-25.97 6.958zm14.993 4.017l-3.61-.967 6.253-1.675-2.643 2.642zm21.668-21.664l-51.264 13.734-8.163-2.187 65.403-17.523-5.976 5.976zm155.67-21.681l8.164 2.188-70.981 19.016 5.977-5.976 56.84-15.228zm-65.094 20.594l6.667-6.666 8.334-8.333 8.334-8.332 6.667-6.666 1.667-1.666 2.276.61 9.107 2.44 11.383 3.05 11.383 3.05 9.107 2.44 2.276.61-1.666 1.667-30.002 29.996-1.666 1.667-2.277-.61-40.98-10.981-2.276-.61 1.666-1.666zm18.945-16.055l5.976-5.976 17.407-4.663 8.164 2.187-31.547 8.452zm8.333-8.332l11.83-3.17-6.83-1.83-5 5zm-10.69 10.688l37.123-9.945 8.164 2.187-51.264 13.734 5.977-5.976zm.293 18.222l8.163 2.187 31.547-8.452 5.976-5.975-45.686 12.24zm19.546 5.237l-8.163-2.187 25.969-6.957-5.976 5.975-11.83 3.169zm3.22.863l3.61.967 2.642-2.642-6.252 1.675zm-25.987-6.963l51.264-13.734 5.976-5.975-65.403 17.522 8.163 2.187zm-62.322-24.277l-5.977 5.976 70.981-19.016-8.164-2.188-56.84 15.228zm-1.587-1.3l-6.667 6.666-1.666 1.667 2.276.61 40.98 10.98 2.277.61 1.666-1.666 30.002-29.997 1.666-1.667-2.276-.61-9.107-2.44-11.383-3.05-11.383-3.05-9.107-2.44-2.276-.61-1.667 1.666-6.667 6.666-8.334 8.333-8.334 8.332zm18.254-15.365l-5.976 5.976 31.547-8.451-8.164-2.188-17.407 4.663zm14.187-5.525l-11.83 3.169 5-5 6.83 1.831zm14.603 3.912l-37.123 9.946-5.977 5.976 51.264-13.734-8.164-2.188zm-28.667 30.355l-8.163-2.188 45.686-12.239-5.976 5.975-31.547 8.452zm3.22.862l8.163 2.188 11.83-3.17 5.976-5.975-25.969 6.957zm14.993 4.018l-3.61-.967 6.252-1.675-2.642 2.642zm21.667-21.665l-51.264 13.734-8.163-2.187 65.403-17.522-5.976 5.975zm-56.746-25.77l8.164 2.187-70.98 19.017 5.976-5.976 56.84-15.228zm-65.094 20.594l6.668-6.666 8.333-8.333 8.334-8.332 6.667-6.666 1.667-1.667 2.276.61 9.107 2.44 11.383 3.051 11.383 3.05 9.107 2.44 2.276.61-1.666 1.666-30.002 29.997-1.666 1.667-2.277-.61-40.98-10.981-2.276-.61 1.666-1.666zm18.945-16.055l5.976-5.976 17.407-4.663 8.164 2.187-31.547 8.452zm8.333-8.333l11.83-3.169-6.83-1.83-5 4.999zm-10.69 10.689l37.123-9.945 8.164 2.187-51.264 13.734 5.977-5.976zm.293 18.222l8.163 2.187 31.547-8.452 5.976-5.975-45.686 12.24zm19.546 5.237l-8.163-2.187 25.969-6.958-5.976 5.976-11.83 3.169zm3.22.863l3.61.967 2.642-2.642-6.252 1.675zm-25.987-6.963l51.264-13.734 5.976-5.975-65.402 17.522 8.162 2.187zm144.118-14.211l5.977-5.976 56.84-15.228 8.164 2.187-70.981 19.017zm-2.277-.61l6.667-6.666 8.334-8.333 8.333-8.332 6.667-6.666 1.667-1.667 2.277.61 9.106 2.44 11.384 3.051 11.383 3.05 9.106 2.44 2.277.61-1.667 1.666-30.001 29.997-1.667 1.667-2.277-.61-40.979-10.981-2.277-.61 1.667-1.666zm18.944-16.055l5.977-5.976 17.406-4.664 8.164 2.188-31.547 8.452zm8.334-8.333l11.83-3.169-6.83-1.83-5 4.999zm-10.691 10.689l37.123-9.945 8.164 2.187-51.264 13.734 5.977-5.976zm.293 18.222l8.163 2.187 31.547-8.452 5.976-5.975-45.686 12.24zm19.546 5.237l-8.163-2.187 25.969-6.958-5.976 5.976-11.83 3.169zm3.221.863l3.609.967 2.643-2.642-6.252 1.675zm-25.987-6.963l51.264-13.734 5.976-5.975-65.403 17.522 8.163 2.187zm-68.299-18.301l5.977-5.976 56.839-15.228 8.165 2.188-70.981 19.016zm-2.277-.61l6.667-6.666 8.334-8.332 8.333-8.333 6.667-6.666 1.667-1.666 2.277.61 9.106 2.44 11.384 3.05 11.383 3.05 9.106 2.44 2.277.61-1.667 1.667-30.001 29.997-1.667 1.666-2.277-.61-40.979-10.98-2.277-.61 1.667-1.667zm18.944-16.055l5.977-5.976 17.406-4.663 8.164 2.187-31.547 8.452zm8.334-8.332l11.83-3.17-6.83-1.83-5 5zm-10.691 10.689l37.123-9.946 8.164 2.188-51.264 13.734 5.977-5.976zm.293 18.221l8.163 2.187 31.547-8.451 5.976-5.976-45.686 12.24zm19.546 5.237l-8.163-2.187 25.97-6.957-5.977 5.975-11.83 3.169zm3.221.863l3.609.967 2.643-2.642-6.252 1.675zm-25.987-6.963l51.264-13.734 5.976-5.975-65.403 17.522 8.163 2.187zm2.682-37.317l-8.164-2.187-56.84 15.227-5.977 5.976 70.981-19.016zm-66.591 11.74l-6.667 6.666-1.667 1.667 2.277.61 40.979 10.98 2.277.61 1.667-1.666 30.001-29.997 1.667-1.666-2.277-.61-9.106-2.441-11.383-3.05-11.384-3.05-9.106-2.44-2.277-.61-1.667 1.667-6.667 6.666-8.333 8.332-8.334 8.332zm18.254-15.364l-5.977 5.976 31.547-8.452-8.164-2.188-17.406 4.664zm14.187-5.526l-11.83 3.169 5-4.999 6.83 1.83zm14.602 3.912l-37.123 9.946-5.977 5.976 51.264-13.734-8.164-2.188zm-28.667 30.355l-8.163-2.188 45.686-12.239-5.976 5.975-31.547 8.452zm3.22.863l8.163 2.187 11.83-3.17 5.977-5.975-25.97 6.958zm14.993 4.017l-3.609-.967 6.252-1.675-2.643 2.642zm21.668-21.664l-51.264 13.734-8.163-2.188 65.403-17.522-5.976 5.976zm92.853-.478l5.977-5.976 56.84-15.228 8.164 2.188-70.981 19.016zm-2.276-.61l6.667-6.666 8.333-8.332 8.334-8.332 6.667-6.666 1.667-1.667 2.276.61 9.107 2.44 11.383 3.05 11.383 3.05 9.107 2.441 2.276.61-1.666 1.666-30.002 29.997-1.666 1.666-2.277-.61-40.98-10.98-2.276-.61 1.667-1.667zm18.944-16.054l5.977-5.977 17.406-4.663 8.164 2.188-31.547 8.452zm8.333-8.333l11.83-3.169-6.829-1.83-5.001 4.999zm-10.69 10.689l37.123-9.946 8.164 2.188-51.264 13.734 5.977-5.976zm.293 18.221l8.163 2.188 31.547-8.452 5.976-5.975-45.686 12.239zm19.546 5.238l-8.163-2.187 25.969-6.958-5.976 5.975-11.83 3.17zm3.22.863l3.61.967 2.642-2.642-6.252 1.675zm-25.987-6.963l51.264-13.735 5.976-5.975-65.402 17.522 8.162 2.188zm2.682-37.318l-8.164-2.187-56.84 15.228-5.977 5.976 70.981-19.017zm-66.59 11.741l-6.667 6.666-1.667 1.666 2.276.61 40.98 10.981 2.277.61 1.666-1.667 30.002-29.997 1.667-1.666-2.277-.61-9.107-2.44-11.383-3.05-11.383-3.05-9.107-2.441-2.276-.61-1.667 1.667-6.667 6.666-8.334 8.332-8.333 8.333zm18.254-15.365l-5.977 5.976 31.547-8.452-8.164-2.187-17.406 4.663zm14.186-5.526l-11.83 3.169 5.001-4.999 6.829 1.83zm14.603 3.913l-37.123 9.945-5.977 5.976 51.264-13.734-8.164-2.187zM250.3 345.26l-8.163-2.187 45.686-12.24-5.976 5.975-31.547 8.452zm3.22.863l8.163 2.187 11.83-3.169 5.976-5.975-25.969 6.957zm14.993 4.017l-3.61-.967 6.252-1.675-2.642 2.642zm21.667-21.664l-51.264 13.734-8.162-2.187 65.402-17.522-5.976 5.975zm-119.563-4.567l5.977-5.976 56.84-15.228 8.164 2.188-70.981 19.016zm-2.276-.61l6.667-6.666 8.333-8.332 8.334-8.333 6.667-6.666 1.667-1.666 2.276.61 9.107 2.44 11.383 3.05 11.383 3.05 9.107 2.44 2.277.61-1.667 1.667-30.002 29.997-1.666 1.666-2.277-.61-40.98-10.98-2.276-.61 1.667-1.667zm18.944-16.055l5.977-5.976 17.406-4.663 8.164 2.188-31.547 8.451zm8.333-8.332l11.83-3.17-6.829-1.83-5.001 5zm-10.69 10.689l37.123-9.946 8.164 2.188-51.264 13.734 5.977-5.976zm.293 18.221l8.163 2.187 31.547-8.451 5.976-5.976-45.686 12.24zm19.546 5.238l-8.163-2.188 25.969-6.957-5.976 5.975-11.83 3.17zm3.22.862l3.61.968 2.642-2.643-6.252 1.675zM182 326.959l51.264-13.734 5.976-5.975-65.402 17.522 8.162 2.187zm215.099-33.227l-8.164-2.188-56.84 15.228-5.977 5.976 70.981-19.016zm-66.591 11.74l-6.667 6.666-1.667 1.667 2.277.61 40.98 10.98 2.276.61 1.667-1.666 30.001-29.997 1.667-1.667-2.277-.61-9.106-2.44-11.383-3.05-11.384-3.05-9.106-2.44-2.277-.61-1.667 1.666-6.666 6.666-8.334 8.333-8.334 8.332zm18.254-15.365l-5.977 5.976 31.547-8.451-8.164-2.188-17.406 4.663zm14.187-5.526l-11.83 3.17 5-5 6.83 1.83zm14.602 3.913l-37.123 9.946-5.977 5.976 51.264-13.734-8.164-2.188zm-28.667 30.354l-8.163-2.187 45.686-12.24-5.976 5.976-31.547 8.451zm3.22.863l8.163 2.188 11.83-3.17 5.977-5.975-25.97 6.957zm14.993 4.018l-3.609-.968 6.252-1.675-2.643 2.643zm21.668-21.665l-51.264 13.734-8.163-2.187 65.403-17.522-5.976 5.975zm-119.563-4.566l5.977-5.976 56.84-15.228 8.164 2.187-70.981 19.017zm-2.277-.61l6.667-6.666 8.334-8.333 8.334-8.332 6.666-6.666 1.667-1.667 2.277.61 9.106 2.44 11.384 3.05 11.383 3.051 9.106 2.44 2.277.61-1.667 1.666-30.001 29.997-1.667 1.667-2.276-.611-40.98-10.98-2.277-.61 1.667-1.666zm18.944-16.055l5.977-5.976 17.406-4.664 8.164 2.188-31.547 8.452zm8.334-8.333l11.83-3.169-6.83-1.83-5 4.999zm-10.691 10.689l37.123-9.946 8.164 2.188-51.264 13.734 5.977-5.976zm.293 18.222l8.163 2.187 31.547-8.452 5.976-5.975-45.686 12.24zm19.546 5.237l-8.163-2.187 25.97-6.958-5.977 5.975-11.83 3.17zm3.221.863l3.609.967 2.643-2.642-6.252 1.675zm-25.987-6.963l51.264-13.734 5.976-5.976-65.403 17.522 8.163 2.188zm2.682-37.317l-8.164-2.188-56.84 15.228-5.977 5.976 70.981-19.016zm-66.591 11.74l-6.667 6.666-1.667 1.666 2.277.61 40.98 10.981 2.276.61 1.667-1.667 30.001-29.996 1.667-1.667-2.277-.61-9.106-2.44-11.383-3.05-11.384-3.05-9.106-2.44-2.277-.61-1.667 1.666-6.666 6.666-8.334 8.333-8.334 8.332zm18.254-15.365l-5.977 5.976 31.547-8.452-8.164-2.187-17.406 4.663zm14.187-5.526l-11.83 3.17 5-5 6.83 1.83zm14.602 3.913l-37.123 9.945-5.977 5.976 51.264-13.734-8.164-2.187zm-28.667 30.354l-8.163-2.187 45.686-12.24-5.976 5.975-31.547 8.452zm3.22.863l8.163 2.187 11.831-3.169 5.976-5.975-25.97 6.957zm14.993 4.017l-3.609-.967 6.252-1.675-2.643 2.642zm21.668-21.664l-51.264 13.734-8.163-2.187 65.403-17.522-5.976 5.975zm480.092 261.765l70.98-19.016-8.163-2.188-56.84 15.228-5.977 5.976zm4.39-7.276l-6.667 6.666-1.667 1.667 2.277.61 40.979 10.98 2.277.61 1.667-1.666 30.001-29.997 1.667-1.667-2.277-.61-9.106-2.44-11.384-3.05-11.383-3.05-9.106-2.44-2.277-.61-1.667 1.666-6.667 6.666-8.333 8.333-8.334 8.332zm18.254-15.365l-5.977 5.976 31.547-8.452-8.163-2.187-17.407 4.663zm14.187-5.526l-11.83 3.17 5-5 6.83 1.83zm14.603 3.913l-37.124 9.946-5.977 5.976 51.264-13.734-8.163-2.188zm-28.668 30.354l-8.163-2.187 45.686-12.24-5.976 5.976-31.547 8.451zm3.22.863l8.163 2.187 11.83-3.169 5.976-5.975-25.969 6.957zm14.993 4.017l-3.61-.967 6.253-1.675-2.643 2.642zm21.668-21.664l-51.264 13.734-8.164-2.187 65.404-17.522-5.976 5.975zm-119.563-4.567v.001l70.98-19.017-8.163-2.187-56.84 15.227-5.977 5.976zm4.39-7.276l-6.667 6.666-1.667 1.667 2.277.61 40.979 10.98 2.277.61 1.667-1.666 30.001-29.997 1.667-1.666-2.277-.61-9.106-2.441-11.384-3.05-11.383-3.05-9.106-2.44-2.277-.61-1.667 1.667-6.667 6.666-8.333 8.332-8.334 8.332zm18.254-15.364l-5.977 5.976 31.547-8.452-8.163-2.188-17.407 4.664zm14.187-5.526l-11.83 3.169 5-4.999 6.83 1.83zm14.603 3.913l-37.124 9.945-5.977 5.976 51.264-13.734-8.163-2.187zm-28.668 30.354l-8.163-2.188 45.686-12.239-5.976 5.975-31.547 8.452zm3.22.862l8.163 2.188 11.83-3.17 5.976-5.975-25.969 6.957zm14.993 4.018l-3.61-.967 6.253-1.675-2.643 2.642zm21.668-21.664l-51.264 13.734-8.164-2.188 65.404-17.522-5.976 5.976zm-119.563-4.567l5.977-5.976 56.839-15.228 8.164 2.187-70.98 19.017zm-2.277-.61l6.667-6.666 8.334-8.333 8.333-8.332 6.667-6.666 1.667-1.666 2.277.61 9.106 2.44 11.383 3.05 11.384 3.05 9.106 2.44 2.277.61-1.667 1.666-30.001 29.997-1.667 1.667-2.277-.61-40.979-10.981-2.277-.61 1.667-1.666zm18.944-16.055l5.977-5.976 17.406-4.663 8.164 2.187-31.547 8.452zm8.334-8.332l11.83-3.17-6.83-1.83-5 5zm-10.691 10.688l37.123-9.945 8.164 2.187-51.264 13.734 5.977-5.976zm.293 18.222l8.163 2.187 31.547-8.452 5.976-5.975-45.686 12.24zm19.546 5.237l-8.163-2.187 25.969-6.957-5.976 5.975-11.83 3.169zm3.221.863l3.609.967 2.643-2.642-6.252 1.675zm-25.987-6.963l51.264-13.734 5.976-5.975-65.403 17.522 8.163 2.187zm144.117-14.211l70.981-19.017-8.164-2.187-56.84 15.228-5.977 5.976zm4.39-7.276l-6.666 6.666-1.667 1.666 2.276.61 40.98 10.981 2.277.61 1.666-1.667 30.002-29.997 1.666-1.666-2.276-.61-9.107-2.44-11.383-3.05-11.383-3.05-9.107-2.441-2.276-.61-1.667 1.667-6.667 6.666-8.334 8.332-8.334 8.333zm18.254-15.365l-5.976 5.976 31.547-8.452-8.164-2.187-17.407 4.663zm14.187-5.526l-11.83 3.169 5.001-4.999 6.829 1.83zm14.603 3.913l-37.123 9.945-5.977 5.976 51.264-13.734-8.164-2.187zm-28.667 30.354l-8.164-2.187 45.687-12.24-5.976 5.975-31.547 8.452zm3.219.863l8.164 2.187 11.83-3.169 5.976-5.975-25.97 6.957zm14.994 4.017l-3.61-.967 6.252-1.675-2.642 2.642zm21.667-21.664l-51.263 13.734-8.164-2.187 65.403-17.522-5.976 5.975zm-119.563-4.567l5.977-5.976 56.84-15.228 8.164 2.188-70.981 19.016zm-2.276-.61l6.666-6.666 8.334-8.332 8.334-8.333 6.667-6.666 1.667-1.666 2.276.61 9.107 2.44 11.383 3.05 11.383 3.05 9.107 2.44 2.276.61-1.666 1.667-30.002 29.997-1.666 1.666-2.277-.61-40.98-10.98-2.276-.61 1.667-1.667zm18.944-16.055l5.977-5.976 17.406-4.663 8.164 2.188-31.547 8.451zm8.333-8.332l11.83-3.17-6.829-1.83-5.001 5zm-10.69 10.689l37.123-9.946 8.164 2.188-51.264 13.734 5.977-5.976zm.292 18.221l8.164 2.188 31.547-8.452 5.976-5.975-45.687 12.239zm19.547 5.238l-8.164-2.188 25.97-6.957-5.976 5.975-11.83 3.17zm3.22.862l3.61.968 2.642-2.643-6.252 1.675zm-25.986-6.963l51.263-13.734 5.976-5.975-65.403 17.522 8.164 2.187zm-68.3-18.3l70.981-19.017-8.164-2.187-56.84 15.228-5.977 5.976zm4.39-7.276l-6.666 6.666-1.667 1.666 2.276.61 40.98 10.981 2.277.61 1.666-1.667 30.002-29.997 1.666-1.666-2.276-.61-9.107-2.44-11.383-3.051-11.383-3.05-9.107-2.44-2.276-.61-1.667 1.667-6.667 6.666-8.334 8.332-8.334 8.333zm18.255-15.365l-5.977 5.976 31.547-8.452-8.164-2.188-17.406 4.664zm14.186-5.526l-11.83 3.169 5.001-4.999 6.829 1.83zm14.603 3.913l-37.123 9.945-5.977 5.976 51.264-13.734-8.164-2.187zm-28.667 30.354l-8.163-2.187 45.686-12.24-5.976 5.975-31.547 8.452zm3.22.863l8.163 2.187 11.83-3.169 5.976-5.976-25.969 6.958zm14.993 4.017l-3.61-.967 6.252-1.675-2.642 2.642zm21.667-21.664l-51.264 13.734-8.163-2.188 65.403-17.522-5.976 5.976zm92.854-.477l5.977-5.976 56.84-15.228 8.164 2.187-70.981 19.017zm-2.277-.61l6.667-6.666 8.334-8.333 8.333-8.332 6.667-6.666 1.667-1.667 2.277.61 9.106 2.44 11.384 3.05 11.383 3.051 9.106 2.44 2.277.61-1.667 1.666-30.001 29.997-1.667 1.667-2.277-.611-40.979-10.98-2.277-.61 1.667-1.666zm18.944-16.055l5.977-5.976 17.407-4.664 8.163 2.188-31.547 8.452zm8.334-8.333l11.83-3.169-6.83-1.83-5 4.999zm-10.691 10.689l37.124-9.945 8.163 2.187-51.264 13.734 5.977-5.976zm.293 18.221l8.163 2.188 31.547-8.452 5.976-5.975-45.686 12.239zm19.546 5.238l-8.163-2.187 25.97-6.958-5.977 5.976-11.83 3.169zm3.22.863l3.61.967 2.643-2.642-6.253 1.675zm-25.986-6.963l51.264-13.734 5.976-5.976-65.403 17.522 8.163 2.188zm-68.299-18.301l70.981-19.016-8.164-2.188-56.84 15.228-5.977 5.976zm4.39-7.276l-6.667 6.666-1.667 1.666 2.277.61 40.979 10.981 2.277.61 1.667-1.667 30.001-29.996 1.667-1.667-2.277-.61-9.106-2.44-11.383-3.05-11.384-3.05-9.106-2.44-2.277-.61-1.667 1.666-6.667 6.666-8.333 8.333-8.334 8.332zm18.254-15.365l-5.977 5.976 31.547-8.452-8.163-2.187-17.407 4.663zm14.187-5.526l-11.83 3.17 5-5 6.83 1.83zm14.603 3.913l-37.124 9.945-5.977 5.976 51.264-13.734-8.163-2.187zm-28.668 30.354l-8.163-2.187 45.686-12.24-5.976 5.975-31.547 8.452zm3.22.863l8.164 2.187 11.829-3.169 5.977-5.975-25.97 6.957zm14.993 4.017l-3.61-.967 6.253-1.675-2.643 2.642zm21.668-21.664l-51.264 13.734-8.163-2.187 65.403-17.522-5.976 5.975zm-119.563-4.567l5.977-5.976 56.84-15.228 8.164 2.188-70.981 19.016zm-2.277-.61l6.667-6.666 8.334-8.332 8.333-8.333 6.667-6.666 1.667-1.666 2.277.61 9.106 2.44 11.384 3.05 11.383 3.05 9.106 2.44 2.277.61-1.667 1.667-30.001 29.997-1.667 1.666-2.277-.61-40.979-10.98-2.277-.61 1.667-1.667zm18.944-16.055l5.977-5.976 17.406-4.663 8.164 2.188-31.547 8.451zm8.334-8.332l11.83-3.169-6.83-1.83-5 4.999zm-10.691 10.689l37.123-9.946 8.164 2.188-51.264 13.734 5.977-5.976zm.293 18.221l8.163 2.188 31.547-8.452 5.976-5.975-45.686 12.239zm19.546 5.238l-8.163-2.188 25.97-6.957-5.977 5.975-11.83 3.17zm3.221.863l3.609.967 2.643-2.642-6.252 1.675zm-25.987-6.964l51.264-13.734 5.976-5.975-65.403 17.522 8.163 2.187z" fill="#DFDDDF"/></g><defs><clipPath id="clip0_22:95"><path fill="#fff" transform="matrix(-.96593 -.25882 .70716 -.70705 671.608 671.572)" d="M0 0h695.3v695.3H0z"/></clipPath></defs></svg>