<svg width="370" height="473" fill="none" xmlns="http://www.w3.org/2000/svg"><path d="M10.033 303.684l67.024-7.676 115.395 85.742-13.128 68.066m-102.6-153.652l55.065-36.538m60.637 121.995l48.958-44.633" stroke="#FF5000" stroke-miterlimit="1.5" stroke-linecap="round" stroke-linejoin="round"/><path d="M150.84 272.282l-18.486-13.328-65.806 9.46-57.21 35.034 169.016 146.394 48.176-46.618 14.365-65.998-17.099-12.325" stroke="#FF5000" stroke-miterlimit="1.5" stroke-linecap="round" stroke-linejoin="round"/><path clip-rule="evenodd" d="M250.272 299.986l-48.986 42.47-47.435-35.349-1.876-182.137 57.156-28.57 163.745 95.322.954 55.998-43.157 42.455-72.701-30.809-7.7 40.62z" stroke="#FF5000" stroke-miterlimit="1.5" stroke-linecap="round" stroke-linejoin="round"/><path d="M151.255 125.093l66.938 119.174-17.655 97.787m18.555-98.043l39.456 15.403m71.849 30.67l-1.46-60.289 44.036-38.023m-43.987 38.057L151.988 124.788" stroke="#FF5000" stroke-miterlimit="1.5" stroke-linecap="round" stroke-linejoin="round"/><path d="M308.7 281.206l-44.2 39.456-24.152 118.576 49.678-14.623 27.333-33.282 32.347 15.803 58.943-16.981 35.935-52.353-55.596-25.007-55.596-25.007" stroke="#FF5000" stroke-miterlimit="1.5" stroke-linecap="round" stroke-linejoin="round"/><path d="M317.023 391.294l-17.531-7.766-35.237-62.733" stroke="#FF5000" stroke-miterlimit="1.5" stroke-linecap="round" stroke-linejoin="round"/><path d="M264.295 320.656l144.744 69.596" stroke="#FF5000"/><path d="M299.612 383.734l-9.855 40.725" stroke="#FF5000" stroke-miterlimit="1.5" stroke-linecap="round" stroke-linejoin="round"/></svg>