<svg width="90" height="90" viewBox="0 0 90 90" fill="none" xmlns="http://www.w3.org/2000/svg">
<path fill-rule="evenodd" clip-rule="evenodd" d="M88.5 1.5H1.5V88.5H88.5V1.5ZM0 0V90H90V0H0Z" fill="#FF5000"/>
<path d="M63.539 62.61C67.5541 58.0849 70 52.1364 70 45.625C70 38.8503 67.3527 32.6861 63.0441 28.0993C63.0406 28.094 63.0353 28.0913 63.0326 28.0869C58.5447 23.3162 52.2569 20.2624 45.263 20.023L45.2622 20.0221L44.7629 20.0088C44.6339 20.0044 44.5049 20 44.375 20C44.2451 20 44.1161 20.0044 43.9871 20.0088L43.4896 20.0221L43.4887 20.023C36.4949 20.2624 30.207 23.3162 25.7191 28.0869C25.7156 28.0913 25.7103 28.0931 25.7076 28.0984C25.7076 28.0984 25.7076 28.0993 25.7067 28.1002C21.3973 32.6861 18.75 38.8503 18.75 45.625C18.75 52.1364 21.1959 58.0849 25.211 62.61C25.2163 62.6179 25.2163 62.6267 25.2225 62.6347C25.2384 62.6568 25.2614 62.6674 25.2782 62.6877C29.79 67.7314 36.2634 70.9805 43.4878 71.2279L43.4887 71.2288L43.9862 71.2421C44.1161 71.2456 44.2451 71.25 44.375 71.25C44.5049 71.25 44.6339 71.2456 44.7629 71.2412L45.2604 71.2279L45.2613 71.227C52.4937 70.9787 58.9742 67.7235 63.4859 62.6692C63.4974 62.6541 63.516 62.6497 63.5266 62.6338C63.5337 62.6267 63.5337 62.6179 63.539 62.61ZM20.5393 46.5086H31.1454C31.2453 50.2543 31.9769 53.8939 33.2794 57.3038C30.7664 58.2131 28.3638 59.4325 26.1123 60.9541C22.8014 57.0158 20.7408 51.9959 20.5393 46.5086ZM26.5948 29.7402C28.7932 31.1698 31.1339 32.315 33.5754 33.1704C32.0803 36.7994 31.2532 40.7121 31.1454 44.7414H20.5393C20.7505 38.9917 23.002 33.7562 26.5948 29.7402ZM68.2107 44.7414H57.6046C57.4968 40.7121 56.6697 36.7994 55.1746 33.1704C57.6161 32.315 59.9568 31.1698 62.1552 29.7402C65.748 33.7562 67.9995 38.9917 68.2107 44.7414ZM43.4914 33.2216C40.9368 33.1492 38.4291 32.7683 36.0062 32.0879C37.7973 28.4138 40.3262 25.0976 43.4914 22.3363V33.2216ZM43.4914 34.9889V44.7414H32.9127C33.0214 40.8994 33.8272 37.1732 35.2684 33.7182C37.9246 34.4878 40.6823 34.9137 43.4914 34.9889ZM45.2586 34.9889C48.0677 34.9137 50.8254 34.4887 53.4825 33.7182C54.9237 37.1732 55.7295 40.8994 55.8382 44.7414H45.2586V34.9889ZM45.2586 33.2216V22.3363C48.4238 25.0976 50.9527 28.4138 52.7438 32.0879C50.3209 32.7683 47.8132 33.1492 45.2586 33.2216ZM54.4562 31.5507C52.7588 27.9941 50.4031 24.7539 47.4862 21.9767C52.6607 22.6535 57.3165 24.9933 60.9022 28.443C58.8664 29.7349 56.7068 30.774 54.4562 31.5507ZM34.2938 31.5507C32.0432 30.774 29.8836 29.7349 27.8486 28.443C31.4335 24.9933 36.0902 22.6535 41.2647 21.9767C38.3469 24.7539 35.9912 27.9941 34.2938 31.5507ZM32.9127 46.5086H43.4914V55.3784C40.5692 55.4562 37.7063 55.9121 34.9547 56.7401C33.7115 53.5104 33.0125 50.0599 32.9127 46.5086ZM43.4914 57.1456V68.9137C40.1036 65.958 37.4474 62.367 35.6413 58.3836C38.1746 57.6369 40.8061 57.2216 43.4914 57.1456ZM45.2586 68.9137V57.1456C47.9439 57.2208 50.5754 57.6369 53.1087 58.3827C51.3026 62.367 48.6464 65.958 45.2586 68.9137ZM45.2586 55.3784V46.5086H55.8373C55.7375 50.0599 55.0385 53.5104 53.7944 56.7409C51.0437 55.9121 48.1808 55.4562 45.2586 55.3784ZM57.6046 46.5086H68.2107C68.0092 51.9959 65.9495 57.0158 62.6377 60.9541C60.3862 59.4325 57.9836 58.2131 55.4706 57.3038C56.774 53.8939 57.5047 50.2543 57.6046 46.5086ZM27.3132 62.2777C29.4038 60.8887 31.6297 59.7718 33.9553 58.9367C35.674 62.7893 38.1411 66.3 41.2638 69.2733C35.8286 68.562 30.9643 66.0172 27.3132 62.2777ZM47.4862 69.2733C50.6089 66.3008 53.076 62.7902 54.7947 58.9367C57.1203 59.7718 59.3453 60.8887 61.4368 62.2777C57.7857 66.0172 52.9214 68.562 47.4862 69.2733Z" fill="#FF5000"/>
</svg>
