<svg width="90" height="90" viewBox="0 0 90 90" fill="none" xmlns="http://www.w3.org/2000/svg">
<path fill-rule="evenodd" clip-rule="evenodd" d="M88.5 1.5H1.5V88.5H88.5V1.5ZM0 0V90H90V0H0Z" fill="#FF5000"/>
<path d="M56.6111 65.25C54.6515 65.25 52.7721 64.4715 51.3864 63.0858C50.0007 61.7002 49.2222 59.8208 49.2222 57.8611C49.2222 55.9015 50.0007 54.0221 51.3864 52.6364C52.7721 51.2507 54.6515 50.4722 56.6111 50.4722C58.5708 50.4722 60.4502 51.2507 61.8358 52.6364C63.2215 54.0221 64 55.9015 64 57.8611C64 59.8208 63.2215 61.7002 61.8358 63.0858C60.4502 64.4715 58.5708 65.25 56.6111 65.25ZM56.6111 61.0278C57.451 61.0278 58.2564 60.6941 58.8503 60.1003C59.4441 59.5064 59.7778 58.701 59.7778 57.8611C59.7778 57.0213 59.4441 56.2158 58.8503 55.6219C58.2564 55.0281 57.451 54.6944 56.6111 54.6944C55.7713 54.6944 54.9658 55.0281 54.3719 55.6219C53.7781 56.2158 53.4444 57.0213 53.4444 57.8611C53.4444 58.701 53.7781 59.5064 54.3719 60.1003C54.9658 60.6941 55.7713 61.0278 56.6111 61.0278ZM33.3889 42.0278C32.4186 42.0278 31.4577 41.8367 30.5613 41.4653C29.6648 41.094 28.8503 40.5497 28.1642 39.8636C27.478 39.1775 26.9338 38.363 26.5624 37.4665C26.1911 36.57 26 35.6092 26 34.6389C26 33.6686 26.1911 32.7077 26.5624 31.8113C26.9338 30.9148 27.478 30.1003 28.1642 29.4142C28.8503 28.728 29.6648 28.1838 30.5613 27.8124C31.4577 27.4411 32.4186 27.25 33.3889 27.25C35.3485 27.25 37.2279 28.0285 38.6136 29.4142C39.9993 30.7998 40.7778 32.6792 40.7778 34.6389C40.7778 36.5985 39.9993 38.4779 38.6136 39.8636C37.2279 41.2493 35.3485 42.0278 33.3889 42.0278ZM33.3889 37.8056C34.2287 37.8056 35.0342 37.4719 35.6281 36.8781C36.2219 36.2842 36.5556 35.4787 36.5556 34.6389C36.5556 33.799 36.2219 32.9936 35.6281 32.3997C35.0342 31.8059 34.2287 31.4722 33.3889 31.4722C32.549 31.4722 31.7436 31.8059 31.1497 32.3997C30.5559 32.9936 30.2222 33.799 30.2222 34.6389C30.2222 35.4787 30.5559 36.2842 31.1497 36.8781C31.7436 37.4719 32.549 37.8056 33.3889 37.8056ZM59.9277 28.3372L62.9128 31.3223L30.0744 64.1628L27.0893 61.1777L59.9256 28.3372H59.9277Z" fill="#FF5000"/>
</svg>
