<svg width="90" height="90" viewBox="0 0 90 90" fill="none" xmlns="http://www.w3.org/2000/svg">
<path fill-rule="evenodd" clip-rule="evenodd" d="M88.5 1.5H1.5V88.5H88.5V1.5ZM0 0V90H90V0H0Z" fill="#FF5000"/>
<path d="M49.9177 31.5949C49.0939 31.6009 48.276 31.6409 47.4121 31.8725C46.471 32.128 45.578 32.5356 44.7684 33.0793C43.6314 32.4113 42.53 31.8621 41.4746 31.733C40.1639 31.5712 38.9467 31.6588 37.5321 31.6884C35.8548 31.7226 34.7608 32.5791 32.9855 33.2648C31.2116 33.9477 28.9272 34.6097 25.7031 34.6097H24.2188V48.8968L25.0545 49.3139L27.7902 50.6602L37.5321 61.514L37.5781 61.56C38.6914 62.6614 40.1936 62.9345 41.5206 62.8588C42.8491 62.7846 44.096 62.3957 45.092 61.793C47.2845 60.4705 53.2561 56.3187 53.2561 56.3187L53.3956 56.2252L53.4891 56.1331C54.1957 55.431 54.5505 54.5745 54.788 53.675L60.4924 50.7983L64.76 49.3614L65.7812 49.0348V34.6097H64.2969C61.8017 34.6267 59.3274 34.1537 57.0145 33.2173C55.2392 32.5241 54.1616 31.6766 52.4664 31.6409C51.5609 31.6231 50.7386 31.589 49.9163 31.5949H49.9177ZM49.9623 34.5637C50.6302 34.5577 51.4021 34.5934 52.3759 34.6097C52.5317 34.6156 53.9582 35.2242 55.9473 36.002C57.6291 36.6626 59.9655 37.2489 62.8125 37.4389V46.9018L59.3791 48.0626H59.2871L59.1936 48.1071L54.6959 50.3812C54.4572 49.6923 54.0781 49.0605 53.5827 48.5257L53.4891 48.3862L47.1805 40.6407L46.2528 39.4799L45.092 40.4077L41.1035 43.6555C39.7646 44.5832 38.6795 44.316 37.5781 43.795C37.259 43.6436 37.2768 43.5976 37.0215 43.4239L43.7947 37.81L43.8867 37.718C45.898 35.723 47.1345 35.0327 48.2003 34.7492C48.7347 34.6038 49.2973 34.5696 49.9637 34.5637H49.9623ZM39.6206 34.6097C40.1159 34.591 40.6118 34.6064 41.105 34.6557C41.4939 34.7017 41.9348 35.0327 42.3118 35.1663C42.1604 35.3059 42.0505 35.386 41.8932 35.5374L41.8012 35.6309L33.6831 42.3552L32.4303 43.3764L33.5436 44.5357C33.5436 44.5357 34.6168 45.6965 36.2808 46.4847C37.9448 47.2729 40.5142 47.7197 42.8209 46.1136L42.9145 46.0201L45.7897 43.6555L51.2641 50.3812L51.3101 50.4747L51.3561 50.5192C52.3358 51.4885 52.3135 53.013 51.3561 54.0001C51.3442 54.0105 51.368 54.0342 51.3561 54.0446C51.3442 54.052 51.1483 54.1678 51.1245 54.1856L49.1755 51.5405L46.7634 53.3039L48.6664 55.8541C47.8945 56.3766 47.5472 56.6497 46.7174 57.2004L44.7239 54.5092L42.3103 56.2727L44.2133 58.8228C44.0441 58.9267 43.6967 59.1598 43.5631 59.2414C43.0941 59.5249 42.1886 59.8441 41.3826 59.8901C40.6241 59.9316 40.0437 59.7565 39.7602 59.519L39.7141 59.473L29.7866 48.4797L29.6011 48.2466L27.1875 47.0413V37.4389C30.0227 37.2534 32.3769 36.6908 34.0527 36.048C36.0359 35.288 37.452 34.6616 37.6241 34.6557L39.6191 34.6097H39.6206Z" fill="#FF5000"/>
</svg>
