<svg width="90" height="90" viewBox="0 0 90 90" fill="none" xmlns="http://www.w3.org/2000/svg">
<path fill-rule="evenodd" clip-rule="evenodd" d="M88.5 1.5H1.5V88.5H88.5V1.5ZM0 0V90H90V0H0Z" fill="#FF5000"/>
<path d="M67.4702 24H54.9967V36.4735H67.4702V24ZM65.3196 34.3229H57.1473V26.1506H65.3196V34.3229ZM27.5056 52.7338C23.9184 52.7338 21 55.6526 21 59.2394C21 62.8261 23.9184 65.7449 27.5056 65.7449C31.0928 65.7449 34.0112 62.8266 34.0112 59.2394C34.0112 55.6522 31.0928 52.7338 27.5056 52.7338ZM27.5056 63.5943C25.1042 63.5943 23.1506 61.6403 23.1506 59.2394C23.1506 56.8376 25.1042 54.8844 27.5056 54.8844C29.9069 54.8844 31.8605 56.8376 31.8605 59.2394C31.8605 61.6403 29.9069 63.5943 27.5056 63.5943ZM28.5809 51.0103H26.4303V44.4871H26.4526V43.4776H60.1582V38.603H62.3088L62.3097 51.0103H60.1591V45.6282H28.5809V51.0103ZM65.1282 52.4787H57.3215L53.4186 59.2394L57.3215 66H65.1274L69.0307 59.2394L65.1282 52.4787ZM63.8865 63.849H58.5637L55.9021 59.2394L58.5637 54.6289H63.8865L66.5481 59.2394L63.8865 63.849Z" fill="#FF5000"/>
</svg>
