<svg width="99" height="99" viewBox="0 0 99 99" fill="none" xmlns="http://www.w3.org/2000/svg">
<path d="M99 0H0V99H99V0ZM96.03 2.97V96.03H2.97V2.97H96.03Z" fill="#262626"/>
<path d="M74.2678 36.9855H61.3978V43.3868H74.2678V36.9855ZM61.3978 60.1842C61.3978 66.734 56.0686 72.0632 49.5188 72.0632C42.9689 72.0632 37.6398 66.734 37.6398 60.1842V46.3568H24.7698V60.1842C24.7698 73.8304 35.8716 84.9332 49.5188 84.9332C63.1649 84.9332 74.2678 73.8304 74.2678 60.1842V46.3568H61.3978V60.1842ZM37.6398 36.9855H24.7698V43.3868H37.6398V36.9855ZM69.1158 8.10327L65.8914 21.8781L60.2801 15.1045L60.5048 33.3146L63.2432 24.7115L68.8555 31.4851L69.1158 8.10327ZM29.9217 8.10327L33.1462 21.8781L38.7575 15.1045L38.5328 33.3146L35.7944 24.7115L30.1821 31.4851L29.9217 8.10327Z" fill="#262626"/>
</svg>
