<svg width="793" height="140" viewBox="0 0 793 140" fill="none" xmlns="http://www.w3.org/2000/svg">
<path d="M361.62 68.1501H343.62L317.36 137.75H334.84L338.96 125.37H365.85L370.07 137.75H387.92L361.62 68.1501ZM343.47 112.02L352.47 85.5301L361.47 112.02H343.47ZM731.01 2.15009V16.5501H753.29V71.7501H769.8V16.5501H792.17V2.15009H731.01ZM707.76 2.15009L678.19 47.2701V2.15009H662.35V71.7501H678.19L707.76 26.6301V71.7501H723.6V2.15009H707.76ZM643.47 57.2501V2.15009H592.65L591.65 26.5301C591.457 31.2701 591.203 35.5601 590.89 39.4001C590.714 42.6667 590.239 45.9103 589.47 49.0901C589.021 51.2805 588.066 53.3353 586.68 55.0901C586.077 55.7875 585.323 56.3395 584.477 56.7049C583.63 57.0703 582.711 57.2396 581.79 57.2001H577.87V85.6701H593.33V71.7501H637.1V85.6701H652.56V57.2501H643.47ZM627.05 57.2501H600.75C603.096 54.049 604.733 50.384 605.55 46.5001C606.744 41.3952 607.45 36.1885 607.66 30.9501L608.33 16.6501H627.05V57.2501ZM572.96 22.2501C571.333 17.9923 568.813 14.1323 565.57 10.9301C562.317 7.71885 558.422 5.23119 554.14 3.63009C544.686 0.176637 534.314 0.176637 524.86 3.63009C520.597 5.26291 516.712 7.74671 513.44 10.9301C510.236 14.1641 507.721 18.0153 506.05 22.2501C504.276 26.9623 503.401 31.9654 503.47 37.0001C503.389 42.0331 504.254 47.0365 506.02 51.7501C507.691 55.9879 510.205 59.8424 513.41 63.0801C516.682 66.2635 520.567 68.7473 524.83 70.3801C529.522 72.1521 534.505 73.0305 539.52 72.9701C544.502 73.0263 549.451 72.1478 554.11 70.3801C558.392 68.779 562.287 66.2913 565.54 63.0801C568.783 59.8732 571.302 56.0102 572.93 51.7501C574.776 47.0443 575.69 42.0245 575.62 36.9701C575.685 31.9225 574.772 26.9102 572.93 22.2101L572.96 22.2501ZM556.71 46.7501C555.857 49.3267 554.497 51.7067 552.71 53.7501C551.057 55.5944 549.005 57.0376 546.71 57.9701C544.434 58.9375 541.983 59.4276 539.51 59.4101C537.008 59.4215 534.529 58.9319 532.22 57.9701C529.946 57.0004 527.901 55.5626 526.22 53.7501C524.482 51.6723 523.128 49.3021 522.22 46.7501C521.208 43.5875 520.721 40.2802 520.78 36.9601C520.715 33.669 521.202 30.3904 522.22 27.2601C523.1 24.6956 524.458 22.3206 526.22 20.2601C527.879 18.3974 529.927 16.9225 532.22 15.9401C534.529 14.9783 537.008 14.4887 539.51 14.5001C541.983 14.4826 544.434 14.9727 546.71 15.9401C549.024 16.8843 551.081 18.365 552.71 20.2601C554.521 22.2858 555.884 24.6712 556.71 27.2601C557.789 30.3775 558.307 33.6617 558.24 36.9601C558.301 40.2874 557.784 43.6001 556.71 46.7501ZM479.85 36.0401L504.9 2.15009H485.9L470.47 23.1701L455.11 2.17009H435.79L460.74 36.3501L434.63 71.7501H453.55L470.15 49.1901L486.76 71.7501H506.06L479.85 36.0401ZM434.74 22.2101C433.113 17.9523 430.594 14.0923 427.35 10.8901C424.1 7.67908 420.209 5.19136 415.93 3.59009C406.475 0.136637 396.105 0.136637 386.65 3.59009C382.372 5.1809 378.481 7.66399 375.236 10.8744C371.991 14.0847 369.466 17.9489 367.83 22.2101C366.047 26.9342 365.169 31.9513 365.24 37.0001C365.172 42.0356 366.05 47.0391 367.83 51.7501C369.464 56.0138 371.988 59.8805 375.233 63.0928C378.478 66.3051 382.37 68.7893 386.65 70.3801C396.105 73.8335 406.475 73.8335 415.93 70.3801C420.209 68.7788 424.1 66.2911 427.35 63.0801C430.593 59.8732 433.112 56.0102 434.74 51.7501C436.596 47.0564 437.523 42.0471 437.47 37.0001C437.526 31.9398 436.599 26.9168 434.74 22.2101ZM418.52 46.7501C417.663 49.3252 416.304 51.7045 414.52 53.7501C412.864 55.5912 410.813 57.0339 408.52 57.9701C406.244 58.9375 403.793 59.4276 401.32 59.4101C398.818 59.4215 396.34 58.9319 394.03 57.9701C391.772 56.9978 389.744 55.5598 388.08 53.7501C386.339 51.6745 384.984 49.3037 384.08 46.7501C383.068 43.5875 382.581 40.2802 382.64 36.9601C382.575 33.669 383.062 30.3904 384.08 27.2601C384.957 24.694 386.314 22.3184 388.08 20.2601C389.721 18.3996 391.753 16.9245 394.03 15.9401C396.34 14.9783 398.818 14.4887 401.32 14.5001C403.793 14.4826 406.244 14.9727 408.52 15.9401C410.832 16.888 412.888 18.3681 414.52 20.2601C416.328 22.2881 417.691 24.6728 418.52 27.2601C419.599 30.3775 420.117 33.6617 420.05 36.9601C420.111 40.2874 419.594 43.6001 418.52 46.7501Z" stroke="#262626" stroke-width="0.75" stroke-miterlimit="10"/>
<path d="M359.54 13.5701C358.007 10.7013 355.713 8.31047 352.91 6.66009C349.814 4.82946 346.39 3.62339 342.83 3.11009C338.705 2.43409 334.53 2.09962 330.35 2.11009H303.57V68.1101H289.78V2.15009H230.26V67.1501C229.26 67.0801 228.14 67.0401 227.05 67.0401C222.037 66.9738 217.057 67.8524 212.37 69.6301C208.092 71.2209 204.201 73.704 200.956 76.9144C197.711 80.1247 195.186 83.9889 193.55 88.2501C191.767 92.9742 190.889 97.9913 190.96 103.04C190.897 108.062 191.775 113.052 193.55 117.75C195.184 122.014 197.708 125.88 200.953 129.093C204.198 132.305 208.09 134.789 212.37 136.38C221.825 139.834 232.195 139.834 241.65 136.38C245.927 134.776 249.819 132.289 253.07 129.08C256.316 125.874 258.839 122.011 260.47 117.75C262.316 113.044 263.23 108.025 263.16 102.97C263.225 97.9225 262.312 92.9102 260.47 88.2101C258.843 83.9523 256.324 80.0923 253.08 76.8901C251.051 74.8703 248.753 73.1406 246.25 71.7501H246.67V16.6501H273.36V68.1501H263.36V82.5501H285.63V137.75H302.17V82.5501H324.54V68.1501H319.99V47.6501H330.35C334.53 47.6606 338.705 47.3261 342.83 46.6501C346.376 46.0817 349.79 44.8792 352.91 43.1001C355.705 41.4006 357.995 38.9835 359.54 36.1001C361.268 32.5848 362.093 28.6942 361.94 24.7801C362.082 20.9022 361.257 17.05 359.54 13.5701ZM244.24 112.75C243.383 115.325 242.024 117.705 240.24 119.75C238.584 121.591 236.533 123.034 234.24 123.97C231.964 124.938 229.513 125.428 227.04 125.41C224.538 125.422 222.06 124.932 219.75 123.97C217.492 122.998 215.464 121.56 213.8 119.75C212.059 117.674 210.704 115.304 209.8 112.75C208.788 109.588 208.301 106.28 208.36 102.96C208.295 99.669 208.782 96.3904 209.8 93.2601C210.677 90.694 212.034 88.3184 213.8 86.2601C215.441 84.3996 217.473 82.9245 219.75 81.9401C222.06 80.9783 224.538 80.4887 227.04 80.5001C229.513 80.4826 231.964 80.9727 234.24 81.9401C236.552 82.888 238.608 84.3681 240.24 86.2601C242.048 88.2881 243.411 90.6727 244.24 93.2601C245.319 96.3775 245.838 99.6617 245.77 102.96C245.831 106.287 245.314 109.6 244.24 112.75ZM343.47 29.3201C342.734 30.4959 341.698 31.4552 340.47 32.1001C339.114 32.7834 337.654 33.2395 336.15 33.4501C334.369 33.7102 332.57 33.8373 330.77 33.8301H319.99V15.9701H330.83C332.631 15.9611 334.429 16.0914 336.21 16.3601C337.73 16.5221 339.201 16.9952 340.53 17.7501C341.766 18.343 342.806 19.2762 343.53 20.4401C344.263 21.7936 344.609 23.3229 344.53 24.8601C344.587 26.4153 344.22 27.9567 343.47 29.3201Z" stroke="#262626" stroke-width="0.75" stroke-miterlimit="10"/>
<path d="M179.23 98.5801C176.661 96.8353 173.75 95.659 170.69 95.1301C167.07 94.3944 163.384 94.0391 159.69 94.0701H144.58V81.9701H182.12V71.7501H199.79L173.58 34.6901L198.73 2.15009H179.73L156.3 34.3101H156.2V2.15009H139.79V68.1501H132.03L107.09 2.15009H89.04L62.83 71.7501H76.06L51.21 137.75H68.68L72.81 125.37H99.69L103.91 137.75H121.77L95.47 68.1501H81.47L84.47 59.3701H111.35L115.54 71.7501H128.16V137.75H158.79C162.66 137.787 166.523 137.402 170.31 136.6C173.489 135.951 176.497 134.642 179.14 132.76C181.619 130.987 183.602 128.608 184.9 125.85C186.333 122.551 187.016 118.975 186.9 115.38C187.018 111.85 186.334 108.338 184.9 105.11C183.645 102.454 181.684 100.195 179.23 98.5801ZM156.23 38.0501H156.33L177.68 68.1501H156.2L156.23 38.0501ZM86.34 85.5301L95.27 112.02H77.27L86.34 85.5301ZM88.95 46.0201L97.95 19.5301L106.88 46.0201H88.95ZM144.55 123.93V106.26H158.95C165.99 106.26 169.51 109.203 169.51 115.09C169.51 120.977 166 123.923 158.98 123.93H144.55Z" stroke="#262626" stroke-width="0.75" stroke-miterlimit="10"/>
<path d="M49.73 72.6601C49.1944 72.3255 48.6402 72.0217 48.07 71.7501H60.38L34.17 34.6901L59.33 2.15009H40.33L16.89 34.3101H16.8V2.15009H0.380005V137.75H16.8V113.65H27.17C31.3504 113.661 35.5246 113.326 39.65 112.65C43.1951 112.078 46.609 110.876 49.73 109.1C52.5202 107.397 54.8054 104.981 56.35 102.1C58.0782 98.5848 58.9031 94.6942 58.75 90.7801C58.8969 86.8922 58.072 83.029 56.35 79.5401C54.8131 76.6852 52.5236 74.3058 49.73 72.6601ZM16.8 38.0501H16.89L38.84 68.9901C34.9773 68.4116 31.0758 68.1307 27.17 68.1501H16.8V38.0501ZM40.32 95.3201C39.5836 96.4959 38.5484 97.4552 37.32 98.1001C35.9647 98.7863 34.5049 99.2425 33 99.4501C31.222 99.7103 29.427 99.8373 27.63 99.8301H16.8V81.9701H27.65C29.4474 81.961 31.2428 82.0914 33.02 82.3601C34.541 82.5181 36.0123 82.9915 37.34 83.7501C38.5756 84.343 39.6164 85.2762 40.34 86.4401C41.0729 87.7936 41.4189 89.3229 41.34 90.8601C41.4089 92.4116 41.0565 93.9528 40.32 95.3201Z" stroke="#262626" stroke-width="0.75" stroke-miterlimit="10"/>
</svg>
