<svg xmlns="http://www.w3.org/2000/svg" width="6" height="304" fill="none"><path fill="#000" d="M4.258 302.718l-.176-1.367h-.39l-.181 1.367v1.172h.747v-1.172zm-1.768 0l-.18-1.367h-.391l-.18 1.367v1.172h.751v-1.172zm2.75-15.126h-.85V286h-.801v1.592H.59v.61l2.72 4.688H4.39v-4.6h.85v-.698zm-1.651.698v3.809L1.4 288.29H3.59zM5.742 275h-.84l-.761 2.412H1.88L1.108 275h-.83l2.251 6.89h.962L5.742 275zm-1.83 3.11l-.904 2.852-.899-2.852h1.802zm-.582-7.098a.489.489 0 00.366-.157c.101-.1.152-.223.152-.366a.512.512 0 00-.152-.376.488.488 0 00-.366-.151.527.527 0 000 1.05zM3.701 264H2.94v4.429H1.44v.659h2.261V264zm-2.68-4.11h1.357c.902 0 1.624-.308 2.168-.923.544-.612.815-1.454.815-2.525 0-1.093-.276-1.941-.83-2.544-.55-.599-1.256-.898-2.119-.898H1.021v6.89zm.8-6.192h.567c.654 0 1.172.243 1.552.728.381.485.572 1.157.572 2.016 0 .853-.192 1.524-.576 2.012-.381.492-.897.737-1.548.737H1.82v-5.493zm-.053-8.109c.43.348.896.522 1.401.522.583 0 1.068-.187 1.455-.561.39-.371.586-.851.586-1.441 0-.647-.173-1.183-.518-1.606-.345-.423-.805-.635-1.381-.635-.736 0-1.319.337-1.748 1.011-.43.677-.645 1.504-.645 2.48 0 1.042.223 1.913.669 2.613.45.7 1.063 1.049 1.84 1.049.538 0 1.002-.079 1.392-.239l-.127-.713c-.452.166-.866.249-1.24.249-.53 0-.944-.254-1.24-.761-.296-.508-.444-1.164-.444-1.968zm.024-.689c0-.589.138-1.124.415-1.606.277-.482.625-.723 1.045-.723.355 0 .628.13.82.391.192.26.288.62.288 1.079 0 .423-.105.757-.317 1.001-.212.244-.51.366-.894.366-.498 0-.95-.169-1.357-.508zM4.971 231H1.348v.698h1.46v5.352l-1.377-.689v.801l1.489.767h.688v-6.231h1.363V231zm-.02-11H4.19v.732a1.812 1.812 0 00-.673-.62 1.854 1.854 0 00-.918-.244c-.583 0-1.044.259-1.382.777-.339.52-.508 1.18-.508 1.977 0 .746.176 1.362.527 1.851.355.491.824.737 1.407.737.64 0 1.157-.26 1.547-.781v2.461h.762V220zm-.762 1.558v2.114c-.364.586-.804.879-1.318.879-.42 0-.752-.187-.996-.562-.244-.371-.366-.841-.366-1.411 0-.586.114-1.071.342-1.455.23-.381.546-.571.947-.571.192 0 .386.052.58.156.196.104.38.26.553.469.172.208.258.335.258.381zM4.971 209H1.348v.698h1.46v5.352l-1.377-.689v.801l1.489.767h.688v-6.231h1.363V209zm-.523-12.318h-1.9v8.208h1.9v-.669H3.311v-6.88h1.137v-.659zm-2.636-5.253c.169.234.397.423.683.566.29.143.594.215.913.215.586 0 1.045-.243 1.377-.728.335-.481.503-1.11.503-1.884 0-.782-.176-1.433-.527-1.953-.349-.518-.819-.777-1.411-.777-.316 0-.612.078-.89.235-.272.159-.489.369-.648.629v-2.744H1.05v7.1h.762v-.659zm0-.757v-2.114c.143-.287.336-.526.58-.718.245-.192.497-.288.757-.288.41 0 .736.192.977.576.244.384.366.861.366 1.431 0 .586-.115 1.064-.346 1.435-.232.371-.554.557-.967.557-.537 0-.993-.293-1.367-.879zm1.616-10.971c.42-.117.757-.332 1.01-.644.254-.31.381-.658.381-1.045 0-.606-.236-1.115-.708-1.529a2.465 2.465 0 00-1.67-.615 2.98 2.98 0 00-1.47.361l.157.66c.452-.212.9-.318 1.343-.318.416 0 .771.129 1.064.386.296.26.444.594.444 1.001 0 .4-.157.726-.473.977-.316.25-.734.376-1.255.376h-.21v.659H2.1c.5 0 .914.117 1.24.351.325.238.488.557.488.957 0 .326-.117.58-.351.762-.235.186-.557.278-.967.278-.355 0-.752-.096-1.192-.288l-.107.689c.443.202.889.302 1.338.302.615 0 1.121-.162 1.518-.488.4-.322.601-.737.601-1.245 0-.351-.122-.68-.366-.986a1.543 1.543 0 00-.874-.572v-.029zm1.25-15.722l-.298-.419c-.726.55-1.28 1.189-1.66 1.919a4.919 4.919 0 00-.572 2.309c0 .817.19 1.587.567 2.31.377.726.932 1.364 1.665 1.914l.298-.42c-.596-.534-1.026-1.094-1.29-1.68-.26-.583-.39-1.287-.39-2.114 0-.856.135-1.577.405-2.163.274-.583.699-1.135 1.275-1.656zm.302-7.811c0-.798-.162-1.38-.488-1.748-.322-.368-.814-.552-1.474-.552-1.332 0-1.997.76-1.997 2.28v4.742h.8v-4.668c0-1.101.4-1.651 1.197-1.651.4 0 .693.13.878.391.19.26.284.684.284 1.269v4.659h.8v-4.722zM5.68 143H4.79l-1.748 2.822L1.309 143h-.89l2.203 3.511L.43 149.89h.918l1.694-2.73 1.709 2.73h.879l-2.158-3.379L5.679 143zm-.699-11h-.8v3.418H1.82V132h-.8v6.89h.8v-2.769H4.18v2.769h.8V132zm-.722-5.282l-.176-1.367h-.39l-.181 1.367v1.172h.747v-1.172zm-1.768 0l-.18-1.367h-.391l-.18 1.367v1.172h.751v-1.172zm2.75-15.126h-.85V110h-.801v1.592H.59v.61l2.72 4.688H4.39v-4.6h.85v-.698zm-1.651.698v3.809L1.4 112.29H3.59zM5.742 99h-.84l-.761 2.412H1.88L1.108 99h-.83l2.251 6.89h.962L5.742 99zm-1.83 3.11l-.904 2.852-.899-2.852h1.802zm-.582-7.098a.491.491 0 00.366-.156c.101-.101.152-.224.152-.367a.51.51 0 00-.152-.376.489.489 0 00-.366-.151.49.49 0 00-.356.156.526.526 0 00.356.894zM3.701 88H2.94v4.429H1.44v.659h2.261V88zm-2.68-4.11h1.357c.902 0 1.624-.308 2.168-.923.544-.612.815-1.454.815-2.525 0-1.093-.276-1.941-.83-2.544C3.981 77.3 3.275 77 2.412 77H1.021v6.89zm.8-6.192h.567c.654 0 1.172.243 1.552.728.381.485.572 1.157.572 2.016 0 .853-.192 1.524-.576 2.012-.381.492-.897.737-1.548.737H1.82v-5.493zm-.053-8.11c.43.35.896.523 1.401.523.583 0 1.068-.187 1.455-.561.39-.371.586-.851.586-1.44 0-.648-.173-1.184-.518-1.607-.345-.423-.805-.635-1.381-.635-.736 0-1.319.337-1.748 1.01-.43.678-.645 1.505-.645 2.481 0 1.042.223 1.913.669 2.613.45.7 1.063 1.05 1.84 1.05.538 0 1.002-.08 1.392-.24l-.127-.713c-.452.166-.866.25-1.24.25-.53 0-.944-.255-1.24-.762-.296-.508-.444-1.164-.444-1.968zm.024-.688c0-.589.138-1.124.415-1.606.277-.482.625-.723 1.045-.723.355 0 .628.13.82.39.192.261.288.621.288 1.08 0 .423-.105.757-.317 1.001-.212.244-.51.366-.894.366-.498 0-.95-.17-1.357-.508zM4.971 55H1.348v.698h1.46v5.352L1.43 60.36v.801l1.489.767h.688v-6.23h1.363V55zm-.02-11H4.19v.732a1.806 1.806 0 00-.673-.62 1.846 1.846 0 00-.918-.244c-.583 0-1.044.259-1.382.776-.339.521-.508 1.18-.508 1.978 0 .745.176 1.362.527 1.85.355.492.824.738 1.407.738.64 0 1.157-.26 1.547-.781v2.46h.762V44zm-.762 1.558v2.114c-.364.586-.804.879-1.318.879-.42 0-.752-.187-.996-.562-.244-.37-.366-.841-.366-1.41 0-.587.114-1.072.342-1.456.23-.38.546-.571.947-.571.192 0 .386.052.58.156.196.104.38.26.553.469.172.208.258.335.258.38zm-1.2-5.536c.728 0 1.288-.315 1.679-.943.394-.625.59-1.504.59-2.637 0-1.097-.19-1.967-.57-2.612-.381-.641-.948-.962-1.7-.962-.726 0-1.286.313-1.68.938-.393.625-.59 1.504-.59 2.636 0 1.1.19 1.971.571 2.613.384.644.95.967 1.7.967zm0-6.45c.481 0 .837.227 1.069.683.234.459.351 1.188.351 2.187 0 1.003-.117 1.73-.351 2.183-.232.456-.588.684-1.07.684-.475 0-.83-.233-1.064-.699-.235-.465-.352-1.188-.352-2.168 0-.992.116-1.72.347-2.182.234-.46.59-.689 1.07-.689zm-.02 3.603a.695.695 0 00.517-.215.695.695 0 00.215-.518.773.773 0 00-.215-.547.69.69 0 00-.517-.224.685.685 0 00-.513.224.783.783 0 00-.21.547c0 .209.068.383.205.523.14.14.313.21.518.21zM3.428 25.7c.42-.117.757-.332 1.01-.644.254-.31.381-.658.381-1.045 0-.606-.236-1.115-.708-1.529a2.464 2.464 0 00-1.67-.615c-.546 0-1.036.12-1.47.362l.157.659a3.15 3.15 0 011.343-.318c.416 0 .771.129 1.064.386.296.26.444.594.444 1.001 0 .4-.157.726-.473.977-.316.25-.734.376-1.255.376h-.21v.659H2.1c.5 0 .914.117 1.24.351.325.238.488.557.488.957 0 .326-.117.58-.351.762-.235.186-.557.278-.967.278-.355 0-.752-.096-1.192-.288l-.107.689a3.2 3.2 0 001.338.302c.615 0 1.121-.162 1.518-.488.4-.322.601-.737.601-1.245 0-.352-.122-.68-.366-.986a1.538 1.538 0 00-.874-.572v-.029zm-.44-7.68c.73 0 1.29-.314 1.68-.942.394-.625.59-1.504.59-2.637 0-1.097-.19-1.967-.57-2.612-.381-.641-.948-.962-1.7-.962-.726 0-1.286.313-1.68.938-.393.625-.59 1.504-.59 2.636 0 1.1.19 1.971.571 2.613.384.644.95.966 1.7.966zm0-6.45c.482 0 .838.228 1.07.684.234.459.351 1.188.351 2.187 0 1.003-.117 1.73-.351 2.183-.232.456-.588.684-1.07.684-.475 0-.83-.233-1.064-.699-.235-.465-.352-1.188-.352-2.168 0-.992.116-1.72.347-2.182.234-.46.59-.689 1.07-.689zm-.02 3.604a.695.695 0 00.518-.215.695.695 0 00.215-.518.773.773 0 00-.215-.546.69.69 0 00-.517-.225.685.685 0 00-.513.225.783.783 0 00-.21.546c0 .209.068.383.205.523.14.14.313.21.518.21zM4.972 0H1.348v.698h1.46V6.05L1.43 5.36v.801l1.489.767h.688V.699h1.363V0z"/></svg>