<svg xmlns="http://www.w3.org/2000/svg" width="6" height="404" fill="none"><path fill="#000" d="M4.258 402.718l-.176-1.367h-.39l-.181 1.367v1.172h.747v-1.172zm-1.768 0l-.18-1.367h-.391l-.18 1.367v1.172h.751v-1.172zm2.75-15.126h-.85V386h-.801v1.592H.59v.61l2.72 4.688H4.39v-4.6h.85v-.698zm-1.651.698v3.809L1.4 388.29H3.59zM5.742 375h-.84l-.761 2.412H1.88L1.108 375h-.83l2.251 6.89h.962L5.742 375zm-1.83 3.11l-.904 2.852-.899-2.852h1.802zm-.582-7.098a.489.489 0 00.366-.157c.101-.1.152-.223.152-.366a.512.512 0 00-.152-.376.488.488 0 00-.366-.151.527.527 0 000 1.05zM3.701 364H2.94v4.429H1.44v.659h2.261V364zm-2.68-4.11h1.357c.902 0 1.624-.308 2.168-.923.544-.612.815-1.454.815-2.525 0-1.093-.276-1.941-.83-2.544-.55-.599-1.256-.898-2.119-.898H1.021v6.89zm.8-6.192h.567c.654 0 1.172.243 1.552.728.381.485.572 1.157.572 2.016 0 .853-.192 1.524-.576 2.012-.381.492-.897.737-1.548.737H1.82v-5.493zm-.053-8.109c.43.348.896.522 1.401.522.583 0 1.068-.187 1.455-.561.39-.371.586-.851.586-1.441 0-.647-.173-1.183-.518-1.606-.345-.423-.805-.635-1.381-.635-.736 0-1.319.337-1.748 1.011-.43.677-.645 1.504-.645 2.48 0 1.042.223 1.913.669 2.613.45.7 1.063 1.049 1.84 1.049.538 0 1.002-.079 1.392-.239l-.127-.713c-.452.166-.866.249-1.24.249-.53 0-.944-.254-1.24-.761-.296-.508-.444-1.164-.444-1.968zm.024-.689c0-.589.138-1.124.415-1.606.277-.482.625-.723 1.045-.723.355 0 .628.13.82.391.192.26.288.62.288 1.079 0 .423-.105.757-.317 1.001-.212.244-.51.366-.894.366-.498 0-.95-.169-1.357-.508zM4.971 331H1.348v.698h1.46v5.352l-1.377-.689v.801l1.489.767h.688v-6.231h1.363V331zm-.02-11H4.19v.732a1.812 1.812 0 00-.673-.62 1.854 1.854 0 00-.918-.244c-.583 0-1.044.259-1.382.777-.339.52-.508 1.18-.508 1.977 0 .746.176 1.362.527 1.851.355.491.824.737 1.407.737.64 0 1.157-.26 1.547-.781v2.461h.762V320zm-.762 1.558v2.114c-.364.586-.804.879-1.318.879-.42 0-.752-.187-.996-.562-.244-.371-.366-.841-.366-1.411 0-.586.114-1.071.342-1.455.23-.381.546-.571.947-.571.192 0 .386.052.58.156.196.104.38.26.553.469.172.208.258.335.258.381zM4.971 309H1.348v.698h1.46v5.352l-1.377-.689v.801l1.489.767h.688v-6.231h1.363V309zm-.523-12.318h-1.9v8.208h1.9v-.669H3.311v-6.88h1.137v-.659zm-2.636-5.253c.169.234.397.423.683.566.29.143.594.215.913.215.586 0 1.045-.243 1.377-.728.335-.481.503-1.11.503-1.884 0-.782-.176-1.433-.527-1.953-.349-.518-.819-.777-1.411-.777-.316 0-.612.078-.89.235-.272.159-.489.369-.648.629v-2.744H1.05v7.1h.762v-.659zm0-.757v-2.114c.143-.287.336-.526.58-.718.245-.192.497-.288.757-.288.41 0 .736.192.977.576.244.384.366.861.366 1.431 0 .586-.115 1.064-.346 1.435-.232.371-.554.557-.967.557-.537 0-.993-.293-1.367-.879zm1.616-10.971c.42-.117.757-.332 1.01-.644.254-.31.381-.658.381-1.045 0-.606-.236-1.115-.708-1.529a2.465 2.465 0 00-1.67-.615 2.98 2.98 0 00-1.47.361l.157.66c.452-.212.9-.318 1.343-.318.416 0 .771.129 1.064.386.296.26.444.594.444 1.001 0 .4-.157.726-.473.977-.316.25-.734.376-1.255.376h-.21v.659H2.1c.5 0 .914.117 1.24.351.325.238.488.557.488.957 0 .326-.117.58-.351.762-.235.186-.557.278-.967.278-.355 0-.752-.096-1.192-.288l-.107.689c.443.202.889.302 1.338.302.615 0 1.121-.162 1.518-.488.4-.322.601-.737.601-1.245 0-.351-.122-.68-.366-.986a1.543 1.543 0 00-.874-.572v-.029zm1.25-15.722l-.298-.419c-.726.55-1.28 1.189-1.66 1.919a4.919 4.919 0 00-.572 2.309c0 .817.19 1.587.567 2.31.377.726.932 1.364 1.665 1.914l.298-.42c-.596-.534-1.026-1.094-1.29-1.68-.26-.583-.39-1.287-.39-2.114 0-.856.135-1.577.405-2.163.274-.583.699-1.135 1.275-1.656zm.302-7.811c0-.798-.162-1.38-.488-1.748-.322-.368-.814-.552-1.474-.552-1.332 0-1.997.76-1.997 2.28v4.742h.8v-4.668c0-1.101.4-1.651 1.197-1.651.4 0 .693.13.878.391.19.26.284.684.284 1.269v4.659h.8v-4.722zM5.68 243H4.79l-1.748 2.822L1.309 243h-.89l2.203 3.511L.43 249.89h.918l1.694-2.73 1.709 2.73h.879l-2.158-3.379L5.679 243zm-.699-11h-.8v3.418H1.82V232h-.8v6.89h.8v-2.769H4.18v2.769h.8V232zm-.722-5.282l-.176-1.367h-.39l-.181 1.367v1.172h.747v-1.172zm-1.768 0l-.18-1.367h-.391l-.18 1.367v1.172h.751v-1.172zm2.75-15.126h-.85V210h-.801v1.592H.59v.61l2.72 4.688H4.39v-4.6h.85v-.698zm-1.651.698v3.809L1.4 212.29H3.59zM5.742 199h-.84l-.761 2.412H1.88L1.108 199h-.83l2.251 6.89h.962L5.742 199zm-1.83 3.11l-.904 2.852-.899-2.852h1.802zm-.582-7.098a.489.489 0 00.366-.157c.101-.1.152-.223.152-.366a.512.512 0 00-.152-.376.488.488 0 00-.366-.151.527.527 0 000 1.05zM3.701 188H2.94v4.429H1.44v.659h2.261V188zm-2.68-4.11h1.357c.902 0 1.624-.308 2.168-.923.544-.612.815-1.454.815-2.525 0-1.093-.276-1.941-.83-2.544-.55-.599-1.256-.898-2.119-.898H1.021v6.89zm.8-6.192h.567c.654 0 1.172.243 1.552.728.381.485.572 1.157.572 2.016 0 .853-.192 1.524-.576 2.012-.381.492-.897.737-1.548.737H1.82v-5.493zm-.053-8.109c.43.348.896.522 1.401.522.583 0 1.068-.187 1.455-.561.39-.371.586-.851.586-1.441 0-.647-.173-1.183-.518-1.606-.345-.423-.805-.635-1.381-.635-.736 0-1.319.337-1.748 1.011-.43.677-.645 1.504-.645 2.48 0 1.042.223 1.913.669 2.613.45.7 1.063 1.049 1.84 1.049.538 0 1.002-.079 1.392-.239l-.127-.713c-.452.166-.866.249-1.24.249-.53 0-.944-.254-1.24-.761-.296-.508-.444-1.164-.444-1.968zm.024-.689c0-.589.138-1.124.415-1.606.277-.482.625-.723 1.045-.723.355 0 .628.13.82.391.192.26.288.62.288 1.079 0 .423-.105.757-.317 1.001-.212.244-.51.366-.894.366-.498 0-.95-.169-1.357-.508zM4.971 155H1.348v.698h1.46v5.352l-1.377-.689v.801l1.489.767h.688v-6.231h1.363V155zm-.02-11H4.19v.732a1.812 1.812 0 00-.673-.62 1.854 1.854 0 00-.918-.244c-.583 0-1.044.259-1.382.777-.339.52-.508 1.18-.508 1.977 0 .746.176 1.362.527 1.851.355.491.824.737 1.407.737.64 0 1.157-.26 1.547-.781v2.461h.762V144zm-.762 1.558v2.114c-.364.586-.804.879-1.318.879-.42 0-.752-.187-.996-.562-.244-.371-.366-.841-.366-1.411 0-.586.114-1.071.342-1.455.23-.381.546-.571.947-.571.192 0 .386.052.58.156.196.104.38.26.553.469.172.208.258.335.258.381zM4.971 133H1.348v.698h1.46v5.352l-1.377-.689v.801l1.489.767h.688v-6.231h1.363V133zm-.069-4.809H2.051v-2.251h2.597v-.698H2.051V122H1.25v6.89h3.652v-.699zm.67-12.103L4.838 111h-.581l-1.196 2.881L1.86 111h-.58l-.718 5.088h.756c.27-2.376.41-3.623.42-3.74l.933 2.212h.781l.928-2.198.41 3.726h.781zm-2.144-12.387c.42-.117.757-.332 1.01-.644.254-.31.381-.658.381-1.045 0-.606-.236-1.115-.708-1.529a2.464 2.464 0 00-1.67-.615c-.546 0-1.036.12-1.47.361l.157.66c.452-.212.9-.318 1.343-.318.416 0 .771.129 1.064.386.296.26.444.594.444 1.001 0 .4-.157.726-.473.977-.316.25-.734.376-1.255.376h-.21v.659H2.1c.5 0 .914.117 1.24.351.325.238.488.557.488.957 0 .326-.117.58-.351.762-.235.186-.557.278-.967.278-.355 0-.752-.096-1.192-.288l-.107.689c.443.202.889.302 1.338.302.615 0 1.121-.162 1.518-.488.4-.322.601-.737.601-1.245 0-.351-.122-.68-.366-.986a1.543 1.543 0 00-.874-.572v-.029zM1.812 93.429c.169.234.397.423.683.566.29.143.594.215.913.215.586 0 1.045-.243 1.377-.728.335-.481.503-1.11.503-1.884 0-.782-.176-1.433-.527-1.954-.349-.517-.819-.776-1.411-.776-.316 0-.612.078-.89.235-.272.159-.489.369-.648.63v-2.745H1.05v7.1h.762v-.66zm0-.757v-2.114a2.09 2.09 0 01.58-.718c.245-.192.497-.288.757-.288.41 0 .736.192.977.576.244.384.366.86.366 1.43 0 .586-.115 1.065-.346 1.436-.232.371-.554.557-.967.557-.537 0-.993-.293-1.367-.88zm1.518-7.66a.491.491 0 00.366-.156c.101-.101.152-.224.152-.367a.51.51 0 00-.152-.376.489.489 0 00-.366-.151.49.49 0 00-.356.156.526.526 0 00.356.894zm.371-7.27c0-.639-.11-1.09-.332-1.353-.218-.267-.6-.4-1.147-.4-.352 0-.743.066-1.172.2l.2.62c.361-.105.685-.157.972-.157.273 0 .46.079.561.235.104.153.156.464.156.932v4.61H1.44v.659h2.261V77.74zm.127-6.963c.46-.107.819-.316 1.08-.625.26-.309.39-.677.39-1.103 0-.625-.228-1.123-.684-1.494C4.162 67.186 3.617 67 2.98 67H1.02v6.89H2.93c.664 0 1.183-.147 1.557-.44.375-.29.562-.7.562-1.23 0-.326-.11-.615-.327-.87-.215-.253-.513-.437-.894-.551v-.02zm-2.007.371h.938c.98 0 1.47.35 1.47 1.05 0 .32-.12.563-.362.733-.24.172-.594.258-1.06.258h-.986v-2.04zm0-3.452h.908c.531 0 .951.12 1.26.362.313.24.469.57.469.99 0 .447-.153.792-.459 1.036-.306.244-.749.366-1.328.366h-.85v-2.754zM4.678 54.98l-.298-.42c-.726.55-1.28 1.19-1.66 1.918a4.92 4.92 0 00-.572 2.31c0 .817.19 1.587.567 2.31.377.726.932 1.364 1.665 1.914l.298-.42c-.596-.534-1.026-1.094-1.29-1.68-.26-.583-.39-1.287-.39-2.114 0-.856.135-1.577.405-2.163.274-.583.699-1.135 1.275-1.655zM4.96 45h-.762v.752c-.547-.583-1.123-.874-1.728-.874-.954 0-1.431.578-1.431 1.733v3.477h.762V46.83c0-.433.068-.757.205-.972.137-.211.368-.317.693-.317.466 0 .965.29 1.5.87v3.676h.76V45zm.928-11H4.878l-2.33 3.379-.727-.791V34h-.8v6.89h.8v-3.301l3.057 3.3H5.8l-2.69-2.91L5.888 34zm-1.04-11H1.25v6.89h3.57v-.699H2.05v-2.133h2.662v-.699H2.05V23.7h2.798V23zm-1.08-5.311h-.551l-1.519 1.47h1.099l.972-1.47zM4.962 1h-.762v.752C3.652 1.169 3.076.878 2.471.878c-.954 0-1.431.578-1.431 1.733v3.477h.762V2.83c0-.433.068-.757.205-.972.137-.211.368-.317.693-.317.466 0 .965.29 1.5.87v3.676h.76V1z"/></svg>