<svg viewBox="0 0 616 366" fill="none" xmlns="http://www.w3.org/2000/svg"><path fill-rule="evenodd" clip-rule="evenodd" d="M319.54 356.171c-17.334 4.425-21.882 5.778-19.731 5.778.172 0 4.567.231 11.305.586 5.293.278 12.031.633 19.305 1.012l29.996 1.598 16.596-5.348c9.158-2.95 16.842-5.593 17.088-5.839.184-.185-.615-.43-1.783-.43-1.229 0-7.991-.246-14.998-.615l-12.785-.615-8.113 2.951-8.052 3.012-3.381-3.258c-1.783-1.783-3.872-3.381-4.61-3.504-.738-.184-10.081 1.906-20.837 4.672zM501.112 82.338c-34.114 19.301-62.081 35.22-62.204 35.343-.123.123-10.388 31.717-22.743 70.133-4.629 14.347-9.285 28.762-13.455 41.678-7.016 21.725-12.662 39.208-14.512 44.99-3.012 9.22-5.655 17.579-5.839 18.501-.431 1.599 1.352 2.889 35.896 27.66a22623.245 22623.245 0 0133.095 23.715l.048.034.033.024.001.001.007.005a9499.68 9499.68 0 0016.05 11.503c7.069 5.102 12.908 9.22 13.031 9.097.062-.123 15.305-58.27 33.807-129.264l6.812-26.163.005-.02.006-.023.018-.067.005-.022c28.641-110.006 28.664-110.095 36.734-140.77 3.011-11.679 5.47-21.268 5.347-21.39-.123-.062-28.09 15.673-62.142 35.035zm50.771 16.289c.553-1.844 24.402-53.906 25.508-55.75.369-.553 3.627-.062 7.561 1.168 1.475.491 8.851 2.52 16.534 4.548 7.622 2.09 14.138 3.995 14.445 4.303.369.307-4.979 12.047-12.847 28.274-7.437 15.305-13.584 27.66-13.707 27.537-.123-.123 1.414-6.392 3.442-13.891 3.258-11.925 3.873-15.49 2.459-14.076-.246.184-16.596 59.561-36.388 131.907-22.005 80.275-36.265 131.476-36.695 131.415-.677-.184-27.476-18.378-28.705-19.485-.369-.369 55.627-217.283 58.393-225.95zm-362.79-28.481l-.005.01c-4.038 9.188-8.404 19.12-12.949 29.454-19.915 45.424-36.511 82.857-36.818 83.226-1.844 1.905-.922-1.353 2.643-9.466l4.056-9.22-3.319-6.454-3.319-6.516-34.175-3.749c-18.809-2.09-34.421-3.688-34.79-3.565-.308.184.922 3.38 2.704 7.13 1.528 3.107 10.06 21.024 20.319 42.565l.002.005.125.262 6.415 13.471 23.542 49.419 7.437-.061c4.057-.062 10.45-.246 14.076-.492l6.7-.369-13.953-18.071c-7.622-9.958-13.891-18.378-13.891-18.747 0-.369 5.839-2.029 12.969-3.688 7.192-1.721 13.154-3.196 13.338-3.381.185-.184-1.782-4.057-4.302-8.728l-4.549-8.421 37.126-84.025c20.407-46.222 37.371-84.331 37.617-84.639.308-.246 10.081 10.388 21.698 23.726 11.678 13.338 21.267 24.218 21.39 24.095.062-.123 2.09-4.364 4.426-9.466l4.179-9.281-5.654-10.02-5.655-10.08-18.686-8.912-5.639-2.687c-16.158-7.702-18.281-8.714-18.84-8.158-.084.085-.133.205-.189.343-.03.075-.062.155-.103.237-.285.475-10.215 23.063-23.926 54.253zm49.68-70.05c0 .123 4.057 7.437 9.097 16.288l.01.018c4.976 8.845 9.948 17.686 11.054 19.59 3.749 6.762 55.504 98.469 58.332 103.448l2.889 4.979 11.063 3.503c31.963 10.142 52.862 16.658 53.107 16.412.123-.123-18.009-30.119-40.26-66.691l-40.506-66.445-32.209-15.674-2.112-1.028C239.478.018 238.773-.324 238.773.096zM143.131 194.76l36.634-82.918c20.1-45.608 36.819-82.918 37.126-82.918.246 0 22.743 25.508 49.911 56.61 27.168 31.164 51.447 58.885 53.906 61.651 2.458 2.766 4.548 5.47 4.548 6.024 0 .553-3.565 10.08-7.867 21.144-1.302 3.347-2.648 6.8-3.934 10.099-2.966 7.606-5.61 14.387-6.639 17.131a743.115 743.115 0 00-2.352 6.027 219.12 219.12 0 01-1.151 2.947l-.738 1.844-2.09-1.906c-5.101-4.856-59.069-51.877-59.438-51.877-.245.061-.368.43-.245.922.245 1.106 61.22 54.582 62.204 54.582.43 0 2.151-3.627 3.872-8.052 1.659-4.487 3.258-8.237 3.442-8.36.184-.123 1.475.738 2.827 1.844l2.521 2.09-3.934 8.974c-2.152 4.918-3.934 9.159-3.934 9.405 0 .123 1.935.293 5.052.462l24.022-59.286s11.74 1.23 23.91 2.643c7.413.857 15.436 1.804 21.674 2.541 4.055.478 7.355.868 9.244 1.086 4.794.492 8.789 1.045 8.851 1.106.307.308-30.978 70.778-31.716 71.516-.553.492-13.553 33.561-13.553 33.561l-45.823-41.969-5.042.51-37.371-30.487c-21.145-17.211-37.249-30.795-37.065-31.225.185-.431 2.398-3.442 5.041-6.639 3.012-3.811 5.286-6.023 6.331-6.269 2.704-.553 3.196-.799 3.196-1.537 0-.43-1.106-.553-3.073-.307l-3.074.369-7.068-6.27c-3.873-3.442-7.13-6.024-7.253-5.655-.738 2.028-57.41 91.462-57.963 91.462-.369 0-5.655-9.22-11.802-20.468l-11.187-20.407zM510.762 58.612c-34.052 14.076-61.958 25.816-61.958 26.062 0 .615 22.743 11.371 23.972 11.371.43 0 21.329-11.617 46.407-25.816 25.017-14.26 45.793-25.693 46.038-25.57.308.185-1.905 9.59-4.794 20.837-2.95 11.249-5.286 20.592-5.225 20.653.123.123 4.918-10.019 10.696-22.558 1.656-3.539 3.228-6.91 4.634-9.925l.003-.006c3.552-7.616 6.049-12.97 6.181-13.057.123-.185 1.598.061 3.257.491 1.598.43 3.012.676 3.135.553.246-.184-8.236-7.498-9.65-8.297-.43-.185-28.582 11.125-62.696 25.262zM264.589 79.941c0-.308 1.598-4.242 3.627-8.667 2.028-4.487 3.934-7.93 4.179-7.622.431.43 38.11 66.937 39.892 70.44.738 1.476.738 1.537-.123.677-2.889-2.828-47.575-54.398-47.575-54.828zm169.524 23.357c-.184.43-15.489 37.802-33.99 83.041-18.502 45.178-33.5 82.365-33.315 82.55.43.43 21.882-3.012 22.373-3.627.246-.246 9.651-29.073 20.899-64.048 11.248-34.913 22.066-68.35 23.972-74.19l3.442-10.633 7.437-4.119c4.119-2.213 7.438-4.241 7.438-4.487 0-.43-16.412-5.347-17.518-5.286-.246 0-.553.369-.738.799zM40.913 218.67C19.46 176.258 1.882 141.284 1.882 140.977c0-.308.368-.431.799-.246.43.123 15.981 4.425 34.544 9.527l33.683 9.282 9.282 15.182 1.37 2.242c3.703 6.051 6.046 9.882 8.241 13.797 3.787 6.755 7.132 13.757 16.247 32.843l2.048 4.286 14.69 30.795H131.944l3.504 5.655c1.9 3.064 3.86 6.25 4.36 7.061l.001.003.001.001.002.003c.861 1.291.799 1.414-1.659 1.906-2.275.492-4.365 2.581-23.911 24.402-11.74 13.092-21.329 24.095-21.39 24.402 0 .307.369.43.86.307.43-.122 10.081-10.633 21.452-23.234 3.442-3.832 6.715-7.479 9.616-10.711 6.684-7.447 11.394-12.696 11.652-12.953.737-.676 52.369-2.459 52.984-1.844.676.676-22.989 38.785-26.062 41.981l-3.074 3.074-10.941.983c-12.6 1.106-13.829 1.352-13.829 2.336 0 .491 1.167.553 3.872.307l3.872-.43 1.045 2.274c.615 1.229.984 2.336.799 2.52-.43.43-39.953 1.906-40.383 1.475-.185-.246 8.851-11.494 20.038-25.078 18.317-22.189 21.575-26.492 19.915-26.308-.246 0-10.019 11.556-21.636 25.755-18.317 22.251-21.452 25.754-23.234 26.062-2.275.43-19.117.676-19.485.307-.43-.43-79.845-168.664-80.214-169.893-.246-.922-.061-1.107.86-.861.677.185 2.89.676 4.918 1.107l3.626.737 33.991 67.306c18.686 37.003 34.299 67.797 34.79 68.474 4.119 5.654-3.75-10.634-37.371-77.141zm179.666-65.646c-4.057 6.577-4.303 7.13-2.889 7.438.676.123 1.906-1.721 3.934-6.085 1.598-3.443 2.889-6.516 2.766-6.823-.061-.246-1.844 2.151-3.811 5.47zm104.923-2.766c-1.229-1.291-2.213-2.52-2.213-2.705 0-.245 2.951.554 6.639 1.66 1.368.441 3.874 1.231 7.029 2.227 5.207 1.643 12.18 3.843 18.725 5.948 10.572 3.319 19.116 6.085 18.993 6.208-.061.123-9.22-.86-20.284-2.151-11.064-1.291-20.222-2.274-20.345-2.09-.123.123-2.274 5.04-4.733 10.88-2.52 5.839-4.917 10.756-5.286 10.879-.369.123-1.844-.922-3.258-2.274l-2.52-2.459 4.733-11.924 4.671-11.925-2.151-2.274zm-277.89-2.151c.43.184.984.184 1.23-.062.184-.184-.185-.368-.86-.307-.739 0-.923.184-.37.369zm25.202 6.515c-.185.492-18.747-4.302-22.497-5.839-2.213-.861.86-.307 10.941 1.844 10.51 2.336 11.986 2.827 11.556 3.995zm156.309 1.783c-1.107 2.397-1.967 4.426-1.967 4.548 0 .185 1.721.246 3.872.246 3.319 0 4.18-.184 5.163-1.413.677-.799 1.23-1.66 1.23-1.967.061-.492-4.856-5.163-5.778-5.471-.246-.123-1.414 1.721-2.52 4.057zm-31.643 35.596c-.723-1.075.974-3.776 6.085-11.914l.008-.012.043-.069c.607-.966 1.261-2.008 1.965-3.133 5.163-8.236 9.589-14.998 9.896-14.998.308 0 .861.369 1.23.861.553.676-.861 4.364-6.147 15.735l-6.823 14.937-2.336-.369c-.421-.067-.814-.121-1.176-.172-1.431-.199-2.386-.332-2.745-.866zm21.931-29.265c0 .123 1.905 1.721 4.241 3.627l4.303 3.442 2.458-2.828c1.353-1.536 2.521-3.012 2.521-3.257 0-.615-4.365-1.168-9.22-1.168-2.398 0-4.303.061-4.303.184zm.612 13.594c1.192-2.61 2.363-5.174 2.646-5.911.307-.799.738-1.475.922-1.475.922 0 2.889 1.414 2.889 2.028 0 .799-8.482 11.679-8.851 11.31-.123-.123.799-2.52 2.09-5.286l.304-.666zm-5.761 13.231l-.044.055-.004.005-.061.076-.012.014-.026.033c-5.573 6.923-13.246 16.456-20.151 24.993-10.142 12.6-18.317 22.988-18.194 23.111.492.553 46.038-16.412 47.268-17.579.676-.677 6.454-7.499 12.785-15.183 6.331-7.622 11.924-14.321 12.416-14.875.738-.922-.246-1.966-8.974-9.097-5.471-4.425-10.142-8.175-10.511-8.42-.369-.185-4.18 4.056-8.482 9.404a8008.399 8008.399 0 00-6.01 7.463zm10.927 31.261c0-.369 15.92-19.731 21.759-26.492l3.504-4.057 3.503 2.766c2.029 1.536 3.381 3.135 3.258 3.688-.123.737-22.558 35.527-23.972 37.31-.184.246-8.052-12.662-8.052-13.215zm-47.821.922c-5.839 9.404-10.941 17.272-11.248 17.333-.369.123-3.504-5.163-7.069-11.801-3.565-6.577-6.761-12.355-7.13-12.847-.492-.738-2.213-.492-9.65 1.291-2.951.692-6.117 1.449-8.591 2.04-1.701.407-3.074.735-3.825.91-1.906.431-3.381.984-3.381 1.23 0 .245 5.778 7.99 12.908 17.21s14.445 18.686 16.289 21.083c1.844 2.459 3.626 4.303 3.995 4.18.369-.185 13.707-4.549 29.688-9.773 15.981-5.225 29.135-9.651 29.258-9.773.43-.369-10.265-13.277-11.31-13.646-.491-.184-8.236 2.336-17.149 5.593l-1.835.67-1.556.568-.148.054-.151.055-.04.015-.075.027-.01.004h-.001c-12.534 4.576-14.406 5.259-14.658 4.876-.045-.067-.039-.167-.032-.285.002-.046.005-.094.005-.144 0-.431 5.102-7.13 11.31-14.875 7.499-9.343 11.187-14.383 10.879-14.936-.983-1.66-4.979-6.331-5.347-6.331-.246.061-5.225 7.806-11.126 17.272zm50.267 26.461c1.884-2.066 3.97-4.352 5.913-6.485l8.114-8.912 3.196.368c1.783.185 15.613 1.045 30.672 1.967 15.059.922 28.705 1.783 30.241 1.967l2.828.369-3.75 3.811c-2.089 2.151-4.302 3.811-4.917 3.811-.676 0-1.168.246-1.168.553 0 .43 83.779 80.152 94.105 89.618l3.688 3.319-1.967.799c-.65.23-2.085.768-3.713 1.379-.989.372-2.049.77-3.048 1.141-2.643.984-12.478 4.61-21.882 8.053l-17.026 6.331-54.705-54.767c-30.119-30.119-54.644-54.828-54.521-54.951.123-.123 6.823-.799 14.875-1.414 13.891-1.106 15.858-1.475 14.998-2.335-.615-.615-32.332 1.782-33.069 2.397-.369.369 5.778 7.007 15.674 16.842l16.288 16.35-6.392 6.331c-3.504 3.503-6.7 6.269-7.069 6.146-.307-.123-8.667-7.621-18.44-16.596l-17.825-16.411 3.381-3.627a6290.28 6290.28 0 015.519-6.054zm-49.072 47.357l-.003.005c-3.593 5.905-6.694 11.002-8.568 14.073a10471.853 10471.853 0 01-19.3 31.84c-7.745 12.723-13.953 23.234-13.769 23.419.308.307 50.034-2.828 51.202-3.258.369-.123 6.761-9.835 14.199-21.575 7.437-11.74 13.768-21.329 14.075-21.329.308 0 8.298 7.438 17.764 16.535a2931.503 2931.503 0 0018.544 17.872l1.556 1.49 2.889 2.766 29.012-1.906 9.916-.647.007-.001h.008c11.574-.755 20.613-1.345 21.724-1.442l2.52-.184-26.062-23.849c-7.316-6.72-15.9-14.594-23.759-21.805-7.525-6.904-14.387-13.199-18.837-17.288-30.979-28.397-44.01-40.321-44.563-40.506-.246-.061-1.783 1.967-3.381 4.549-2.764 4.413-15.682 25.643-25.174 41.241zm12.082-41.487l2.274-.86c1.229-.492 2.766-.922 3.319-.922 1.107-.062 3.811 3.073 3.811 4.302 0 .799-7.437 13.031-8.605 14.138-.738.676-30.426 2.151-44.317 2.151h-4.426l-4.241-6.823c-2.336-3.749-4.241-7.069-4.241-7.314 0-.308 4.118-.676 9.158-.861l9.22-.369 1.598 1.721c.861.922 2.213 2.52 2.889 3.504l1.291 1.782 11.617-3.933c10.388-3.565 12.355-3.996 18.256-4.303 4.978-.246 6.638-.553 6.638-1.229 0-.554-.799-.922-2.151-.922l-2.09-.062zm182.125 20.776c-7.376 1.721-13.523 3.196-13.646 3.319-.307.307 80.46 75.665 81.382 75.911 1.106.246 13.215-5.102 13.031-5.778-.123-.246-16.473-12.17-36.327-26.369-19.915-14.199-36.388-26.185-36.695-26.676-.308-.431.922-5.225 3.073-11.802 1.967-6.085 3.626-11.248 3.626-11.433 0-.031.003-.061.006-.09.005-.054.01-.101-.008-.138-.128-.267-1.436.037-12.225 2.541l-1.021.237-1.196.278zm-112.053 21.205c0-.307 2.151-3.933 4.856-8.113l4.917-7.499 9.281 9.281c7.13 7.131 9.097 9.405 8.36 9.774-.554.307-5.348 1.045-10.695 1.721l-9.774 1.106-3.503-2.827c-1.906-1.599-3.442-3.135-3.442-3.443zm22.066 8.421c-3.688 2.029-6.946 3.996-7.253 4.303-.676.676 38.355 36.757 39.646 36.634.43-.062 3.319-1.906 6.392-4.18l5.655-4.057-18.255-18.255c-10.081-10.081-18.563-18.256-18.932-18.194-.307 0-3.626 1.721-7.253 3.749zm-13.461-.43c.123-.123 2.09-.491 4.364-.799 4.795-.614 8.298-.799 8.298-.43 0 .184-1.905 1.352-4.18 2.643l-4.241 2.336-2.274-1.721c-1.229-.984-2.151-1.844-1.967-2.029zm-37.126 34.421l-.738 1.967-13.338 1.107c-7.253.614-13.83 1.229-14.567 1.413-1.291.246-4.979 5.348-4.487 6.147.737 1.106 9.035 1.106 20.407-.061 6.822-.738 12.846-1.291 13.276-1.291.492 0 1.66-1.598 2.582-3.565l1.782-3.565-2.089-2.09-2.09-2.029-.738 1.967zm103.448 7.991c-1.168 0-8.544-6.516-8.113-7.192.614-.983 1.229-.614 5.101 3.319 2.152 2.152 3.442 3.873 3.012 3.873zm-98.776-2.028c-.738 1.475-1.353 2.889-1.353 3.196 0 .307 1.721.246 3.873-.061 2.151-.369 3.872-.8 3.811-1.045 0-.185-1.168-1.353-2.52-2.521l-2.521-2.151-1.29 2.582zm-3.811 5.347c.123.307 2.213.123 4.733-.369 6.7-1.352 7.56-1.229 9.65.861l1.783 1.905-1.537.369c-2.09.43-24.464 1.844-24.771 1.537-.123-.123.43-1.107 1.229-2.09 1.23-1.537 2.152-1.967 5.102-2.274 2.028-.246 3.749-.185 3.811.061z" fill="#131313"/></svg>