<svg width="370" height="473" viewBox="0 0 370 473" fill="none" xmlns="http://www.w3.org/2000/svg">
<path d="M10.033 303.684L77.0567 296.008L192.452 381.75L179.324 449.816" stroke="#FF5000" stroke-miterlimit="1.5" stroke-linecap="round" stroke-linejoin="round"/>
<path d="M76.7237 296.164L131.789 259.626" stroke="#FF5000" stroke-miterlimit="1.5" stroke-linecap="round" stroke-linejoin="round"/>
<path d="M192.426 381.621L241.384 336.988" stroke="#FF5000" stroke-miterlimit="1.5" stroke-linecap="round" stroke-linejoin="round"/>
<path d="M150.84 272.282L132.354 258.954L66.5477 268.414L9.3375 303.448L178.354 449.842L226.53 403.224L240.895 337.226L223.796 324.901" stroke="#FF5000" stroke-miterlimit="1.5" stroke-linecap="round" stroke-linejoin="round"/>
<path fill-rule="evenodd" clip-rule="evenodd" d="M250.272 299.986L201.286 342.456L153.851 307.107L151.975 124.97L209.131 96.3993L372.876 191.722L373.83 247.72L330.673 290.175L257.972 259.366L250.272 299.986Z" stroke="#FF5000" stroke-miterlimit="1.5" stroke-linecap="round" stroke-linejoin="round"/>
<path d="M151.255 125.093L218.193 244.267L200.538 342.054" stroke="#FF5000" stroke-miterlimit="1.5" stroke-linecap="round" stroke-linejoin="round"/>
<path d="M219.093 244.011L258.549 259.414" stroke="#FF5000" stroke-miterlimit="1.5" stroke-linecap="round" stroke-linejoin="round"/>
<path d="M330.398 290.084L328.938 229.795L372.974 191.772" stroke="#FF5000" stroke-miterlimit="1.5" stroke-linecap="round" stroke-linejoin="round"/>
<path d="M328.987 229.829L151.988 124.788" stroke="#FF5000" stroke-miterlimit="1.5" stroke-linecap="round" stroke-linejoin="round"/>
<path d="M308.7 281.206L264.5 320.662L240.348 439.238L290.026 424.615L317.359 391.333L349.706 407.136L408.649 390.155L444.584 337.802L388.988 312.795L333.392 287.788" stroke="#FF5000" stroke-miterlimit="1.5" stroke-linecap="round" stroke-linejoin="round"/>
<path d="M317.023 391.294L299.492 383.528L264.255 320.795" stroke="#FF5000" stroke-miterlimit="1.5" stroke-linecap="round" stroke-linejoin="round"/>
<path d="M264.295 320.656L409.039 390.252" stroke="#FF5000"/>
<path d="M299.612 383.734L289.757 424.459" stroke="#FF5000" stroke-miterlimit="1.5" stroke-linecap="round" stroke-linejoin="round"/>
</svg>
