<svg width="87" height="87" fill="none" xmlns="http://www.w3.org/2000/svg"><path d="M43.231 11.431v17.834h17.834c0-9.85-7.984-17.834-17.834-17.834z" fill="#7CB72E"/><path d="M61.065 29.262H43.231l12.611 12.61a17.778 17.778 0 005.223-12.61z" fill="#F4D7A5"/><path d="M43.231 18.573v10.694c6.96 0 13.225-4.52 14.273-10.694H43.231z" fill="#658434"/><path d="M43.231 29.262v17.834a17.78 17.78 0 0012.611-5.223l-12.61-12.61z" fill="#ECAC19"/><path d="M25.398 29.262c0 4.925 1.995 9.383 5.223 12.61l12.61-12.61H25.397z" fill="#7CB72E"/><path d="M43.231 29.262l-12.61 12.611a17.78 17.78 0 0012.61 5.223V29.263z" fill="#204C3D"/><path d="M54.03 14.086h8.974c0 2.615-1.802 4.487-4.486 4.487h-4.311l-.176-4.487z" fill="#DC590C"/><path d="M43.231 29.263l-16.793-5.995c-.162.455-.303.915-.428 1.38h-.002l-.038.15a24.094 24.094 0 00-.128.527 16.415 16.415 0 00-.214 1.105 17.67 17.67 0 00-.151 1.179c-.006.07-.015.14-.02.21h.003c-.04.48-.062.962-.062 1.444h17.833z" fill="#ECAC19"/><path d="M33.514 4.332c-.14 4.353 1.859 7.841 5.576 9.752a11.152 11.152 0 005.494 1.44h4.502l-.243-11.192H33.514z" fill="#204C3D"/><path d="M58.596 14.084c0 5.385-4.367 9.751-9.753 9.751s-9.752-4.366-9.752-9.752c0-5.386 4.366-9.752 9.752-9.752 5.386 0 9.752 4.366 9.752 9.753z" fill="#7CB72E"/><path d="M58.596 14.082c-1.899-3.439-5.554-5.768-9.753-5.768-4.2 0-7.854 2.33-9.753 5.768h19.505z" fill="#fff"/><path d="M55.792 14.085a1.664 1.664 0 11-3.327 0 1.664 1.664 0 013.327 0z" fill="#204C3D"/><path d="M37.838 70.124c2.963 0 5.528.87 5.528 3.982 0 3.113-2.416 3.982-5.263 3.982-2.036 0-3.582.002-3.582.002v4.527h-2.035V70.124h5.352zm.444 1.712H34.52v4.538s1.675.002 3.67.002c1.92 0 3.25-.422 3.25-2.27 0-1.82-1.33-2.27-3.16-2.27zm-8.487 10.779L24.16 70.113h-2.226L16.28 82.615h2.073l.492-1.106c.766-1.038 2.538-2.567 5.76-2.567h1.504l1.656 3.673h2.03zm-5.229-5.396c-1.762 0-3.101.32-4.192.881l2.664-5.925 2.295 5.044h-.766zm62.41-7.095v1.72h-4.562v10.771h-2.035v-10.77h-4.555v-1.721h11.152zM54.551 76.37l4.447-6.246h-2.339l-3.838 5.373h-4.325l.01-5.373h-2.037v12.491h2.036V77.22h4.321l3.876 5.395h2.44l-4.59-6.246zm-43.008-6.246L6.82 75.936l-4.723-5.812H.063v12.492h2.034v-9.513l4.723 5.796 4.723-5.796v9.513h2.034V70.124h-2.034zm61.357 0v1.72h-8.694v3.653h6.982v1.723h-6.982v3.683H72.9v1.712H62.17V70.124H72.9z" fill="#7CB72E"/><path d="M58.45 59.859a2.711 2.711 0 00-2.735 2.734 2.711 2.711 0 002.735 2.736 2.706 2.706 0 002.735-2.735 2.706 2.706 0 00-2.735-2.735zm0 4.664c-1.067 0-1.868-.847-1.868-1.93 0-1.082.8-1.929 1.868-1.929s1.869.847 1.869 1.93c0 1.082-.801 1.93-1.869 1.93zm-18.331-4.664a2.71 2.71 0 00-2.735 2.734 2.711 2.711 0 002.735 2.736 2.707 2.707 0 002.735-2.735 2.706 2.706 0 00-2.735-2.735zm0 4.664c-1.068 0-1.868-.847-1.868-1.93 0-1.082.8-1.929 1.868-1.929s1.869.847 1.869 1.93c0 1.082-.8 1.93-1.869 1.93zm-6.052-4.59c1.26 0 2.352.371 2.352 1.695 0 1.325-1.028 1.695-2.24 1.695h-1.524v1.927h-.866v-5.317h2.278zm.188.73h-1.6v1.93h1.562c.817 0 1.383-.178 1.383-.965 0-.775-.566-.966-1.345-.966zm18.995 1.928l1.891-2.658h-.995l-1.633 2.287h-1.841l.004-2.287h-.866v5.316h.866v-2.296h1.839l1.65 2.296h1.038l-1.954-2.658zm-25.006-.727h-1.525V60.67h2.958v-.733h-3.823v5.317h2.277c1.26 0 2.352-.371 2.352-1.695 0-1.325-1.028-1.695-2.24-1.695zm.076 2.66h-1.601v-1.93l1.562-.001c.817 0 1.383.18 1.383.966 0 .774-.566.966-1.344.966zm19.793-.704a1.825 1.825 0 01-1.46.703c-1.067 0-1.868-.847-1.868-1.93 0-1.082.801-1.929 1.869-1.929.6 0 1.115.267 1.451.693l.5-.697a2.73 2.73 0 00-1.951-.801 2.71 2.71 0 00-2.735 2.734 2.71 2.71 0 002.735 2.736 2.73 2.73 0 001.96-.812l-.5-.697z" fill="#204C3D"/></svg>