<svg xmlns="http://www.w3.org/2000/svg" fill="none" viewBox="0 0 87 90"><g fill="#131313" filter="url(#filter0_d)"><path d="M4.985 0h77.394v63H4.985zM63.526 63H82.35l.029 19-18.853-19z"/></g><path stroke="#FF5000" stroke-linecap="round" stroke-linejoin="round" stroke-miterlimit="1.5" d="M9.427 24.076l7.254 2.587 7.539 14.673-4.751 6.37M16.656 26.662l7.472-1M24.253 41.347l7.25-2.143"/><path stroke="#FF5000" stroke-linecap="round" stroke-linejoin="round" stroke-miterlimit="1.5" d="M9.426 24.066L19.43 47.709l7.269-2.387 4.774-6.093-5.04-9.476-2.17-4.082-7.218-2.34-7.618.735z" clip-rule="evenodd"/><path stroke="#FF5000" stroke-linecap="round" stroke-linejoin="round" stroke-miterlimit="1.5" d="M34.265 35.804l-7.146 1.917-3.094-6.042 8.919-18.91 7.287-.07L52.247 30.8l-2.703 5.832-6.548 2.21-5.911-6.847-2.82 3.808z" clip-rule="evenodd"/><path stroke="#FF5000" stroke-linecap="round" stroke-linejoin="round" stroke-miterlimit="1.5" d="M32.893 12.773l.9 15.685-6.7 9.212M33.862 28.444l3.274 3.581M42.956 38.842l2.865-6.303 6.416-1.707M45.853 32.542l-12.89-19.774"/><path stroke="#FF5000" stroke-linecap="round" stroke-linejoin="round" stroke-miterlimit="1.5" d="M47.382 43.83l8.444 9.752 5.758-3.576 13.292-28.04-4.923.979-13.608 4.032-8.963 16.853z" clip-rule="evenodd"/><path stroke="#FF5000" stroke-linecap="round" stroke-linejoin="round" stroke-miterlimit="1.5" d="M55.785 53.578L69.912 22.94"/><path stroke="#FF5000" stroke-linecap="round" stroke-linejoin="round" stroke-miterlimit="1.5" d="M26.256 49.685l5.822.994 4.467-2.06 2.525 3.263 6.891 1.218 6.303-3.596-10.686-12.808-6.916 1.959-8.406 11.03z" clip-rule="evenodd"/><path stroke="#FF5000" stroke-linecap="round" stroke-linejoin="round" stroke-miterlimit="1.5" d="M36.55 48.633l-1.409-1.686-.473-8.256 11.447 14.388M35.132 46.953l-3.046 3.71"/><path fill="#FF5000" d="M82.379 0h-3.97l.497 79.041L82.379 82V0z"/><defs><filter id="filter0_d" width="85.394" height="90" x=".985" y="0" color-interpolation-filters="sRGB" filterUnits="userSpaceOnUse"><feFlood flood-opacity="0" result="BackgroundImageFix"/><feColorMatrix in="SourceAlpha" result="hardAlpha" type="matrix" values="0 0 0 0 0 0 0 0 0 0 0 0 0 0 0 0 0 0 127 0"/><feOffset dy="4"/><feGaussianBlur stdDeviation="2"/><feColorMatrix type="matrix" values="0 0 0 0 0 0 0 0 0 0 0 0 0 0 0 0 0 0 0.25 0"/><feBlend in2="BackgroundImageFix" mode="normal" result="effect1_dropShadow"/><feBlend in="SourceGraphic" in2="effect1_dropShadow" mode="normal" result="shape"/></filter></defs></svg>