<svg xmlns="http://www.w3.org/2000/svg" fill="none" viewBox="0 0 618 924"><path stroke="#262626" stroke-width="1.18" d="M159.366 914.832l-.007-.005c-1.234-.833-63.937-45.765-110.038-124.843-46.086-79.05-75.58-192.211-10.483-329.613 36.564-77.106 67.043-134.839 91.697-181.206l.001-.001c30.436-57.467 51.382-97.019 63.143-134.384 11.772-37.398 14.338-72.591 8.076-121.356-.651-5.065-2.251-14.624-6.813-22.305 6.545 2.35 11.711 4.763 17.566 7.496 1.859.868 3.787 1.768 5.851 2.71l.004.001c1.05.469 55.5 26.396 112.04 81.817 56.535 55.414 115.135 140.288 124.572 258.664 7.399 94.093 3.556 158.629-3.939 202.442l1.094.391c41.114-72.25 60.535-154.757 55.964-237.675l-.001-.01-.001-.01c-.193-2.191-.95-9.944-1.658-17.144l-.55-5.579-.4-4.052-.254-2.566a396.188 396.188 0 018.368 8.847c5.341 5.827 11.798 13.246 16.309 19.653l.693.978c6.294 8.869 34.536 48.662 57.025 106.152 23.465 59.984 40.649 139.188 20.146 222.605l.573.141-.573-.141c-39.439 161.026-150.207 244.274-161.254 252.577-.317.238-.551.414-.7.529-3.327 2.569-9.136 6.439-14.931 9.993-4.948 3.035-9.846 5.816-13.157 7.359 6.005-11.088 9.681-21.089 12.164-28.341 3.256-9.509 8.666-33.698 14.096-63.621 5.433-29.94 10.896-65.666 14.25-98.275l.13-1.265-1.049.718c-23.787 16.256-83.141 48.689-105.511 59.266l-4.885-7.318-.007-.012a89.791 89.791 0 00-1.261-1.957c-11.335-17.348-87.224-133.502-83.393-287.285l.032-1.27-.991.795c-24.013 19.272-65.43 53.237-93.204 113.666-27.778 60.437-41.881 147.28-11.409 272.271.973 3.989 2.599 10.383 6.49 20.749 1.312 4.765 3.917 10.939 6.671 16.556 2.378 4.849 4.888 9.326 6.801 12.156-3.387-.788-6.954-2.348-10.011-3.94-3.484-1.815-6.26-3.648-7.276-4.358zM59.874 470.39l-.4.843h.179C15.067 565.041 19.52 643.649 42.434 708.512c20.824 58.944 56.893 106.525 85.157 143.809 2.915 3.846 5.748 7.582 8.472 11.21l1.042-.506c-38.02-143.477-5.339-245.591 37.039-311.973 41.631-65.214 92.645-95.978 95.298-97.578l.09-.054c.369-.215.988-.605 1.811-1.122 3.947-2.48 12.581-7.906 20.784-11.209-3.426 7.557-4.482 16.124-5.098 23.483-6.005 71.73 8.717 142.011 26.55 196.127 8.918 27.061 18.617 50.089 26.899 67.246 4.141 8.578 7.929 15.692 11.091 21.111 3.153 5.405 5.703 9.159 7.368 10.988l.276.303.38-.152c36.052-14.466 87.703-49.863 99.908-59.616 6.227-4.977 14.872-12.362 22.47-23.295.829 14.154-.197 22.178-1.533 32.63-.375 2.93-.774 6.05-1.163 9.55-2.587 23.256-18.433 104.063-29.367 149.241l-.491 2.03 1.481-1.472c39.314-39.097 107.02-119.19 133.776-228.444l-.573-.14.573.14c27.135-111.105-21.189-223.492-51.997-280.076l-1.026-1.886-.081 2.145c-1.957 51.864-16.628 103.469-33.245 144.915-16.624 41.461-35.167 72.688-44.821 83.814-9.689 11.168-20.028 20.527-27.947 27.097a243.362 243.362 0 01-9.673 7.632c-.77.575-1.434 1.062-1.979 1.457.48-1.172 1.145-2.912 1.973-5.36 1.814-5.361 4.41-14.115 7.553-27.718.264-1.141.541-2.322.828-3.549 6.586-28.073 18.883-80.494 6.746-235.799-14.13-181.295-150.829-279.265-202.816-310.17l-.977-.582.087 1.134c6.868 89.219-19.224 138.504-76.134 245.998l-.061.115v.001l-2.745 5.201c-23.927 45.336-53.493 101.358-88.486 175.202z" opacity=".2"/></svg>
