<svg xmlns="http://www.w3.org/2000/svg" fill="none" viewBox="0 0 44 39"><path fill="#262626" fill-rule="evenodd" d="M44 39l-44-.103L22.088 0 44 39zM3.242 36.992l37.525.09L22.08 3.822 3.242 36.993z" clip-rule="evenodd"/><path fill="#262626" d="M20.597 14.41h1.939l-.347 11.561h-1.27l-.322-11.56zm.97 16.634c-.34 0-.632-.118-.878-.354a1.253 1.253 0 01-.346-.873c0-.346.115-.629.346-.85.23-.235.523-.353.877-.353.339 0 .623.118.854.354.231.22.347.503.347.85 0 .33-.116.62-.347.872-.23.236-.515.354-.854.354z"/></svg>
