<svg width="87" height="87" viewBox="0 0 87 87" fill="none" xmlns="http://www.w3.org/2000/svg">
<path d="M43.2315 11.4312V29.2647H61.0651C61.0651 19.4155 53.0808 11.4312 43.2315 11.4312Z" fill="#7CB72E"/>
<path d="M61.0651 29.2625H43.2315L55.842 41.8726C59.069 38.6452 61.0651 34.1873 61.0651 29.2625Z" fill="#F4D7A5"/>
<path d="M43.2315 18.5732V29.2672C50.1913 29.2672 56.4558 24.7463 57.5044 18.5732H43.2315Z" fill="#658434"/>
<path d="M43.2315 29.2625V47.096C48.1563 47.096 52.6146 45.0999 55.842 41.873L43.2315 29.2625Z" fill="#ECAC19"/>
<path d="M25.3975 29.2625C25.3975 34.1873 27.3935 38.6452 30.6209 41.8726L43.231 29.2625H25.3975Z" fill="#7CB72E"/>
<path d="M43.2314 29.2625L30.6213 41.873C33.8487 45.0999 38.307 47.096 43.2314 47.096V29.2625Z" fill="#204C3D"/>
<path d="M54.0309 14.0864H63.0041C63.0041 16.7009 61.2018 18.5731 58.5175 18.5731H54.2068L54.0309 14.0864Z" fill="#DC590C"/>
<path d="M43.2314 29.2626L26.438 23.2676C26.276 23.7227 26.1351 24.1833 26.0103 24.6482L26.0078 24.6473C25.9947 24.6968 25.9832 24.7472 25.9701 24.7971C25.9439 24.899 25.9185 25.0014 25.8936 25.1038C25.8762 25.1774 25.8589 25.2514 25.8424 25.325C25.8132 25.4519 25.7857 25.5792 25.7595 25.7069C25.7485 25.7611 25.7379 25.8148 25.7273 25.8689C25.6998 26.0115 25.6736 26.1545 25.6495 26.2974C25.6419 26.3418 25.6347 26.3858 25.6275 26.4303C25.6034 26.5783 25.5814 26.7268 25.5611 26.8752C25.5552 26.9201 25.5493 26.9649 25.5433 27.0097C25.5251 27.1531 25.5087 27.2965 25.4938 27.4403C25.4879 27.4966 25.4824 27.5524 25.4769 27.6087C25.4706 27.6785 25.4621 27.7483 25.4566 27.8181L25.46 27.8185C25.4202 28.299 25.3983 28.7808 25.3983 29.2626H43.2314Z" fill="#ECAC19"/>
<path d="M33.5143 4.33203C33.3734 8.68457 35.3729 12.1734 39.0901 14.0844C40.7127 14.9998 42.5886 15.5239 44.5843 15.5239H49.0857L48.8429 4.33203H33.5143Z" fill="#204C3D"/>
<path d="M58.5955 14.0835C58.5955 19.4694 54.2294 23.8354 48.8431 23.8354C43.4572 23.8354 39.0907 19.4694 39.0907 14.0835C39.0907 8.69715 43.4572 4.33065 48.8431 4.33065C54.2294 4.33065 58.5955 8.69715 58.5955 14.0835Z" fill="#7CB72E"/>
<path d="M58.5955 14.0819C56.6971 10.6434 53.0421 8.31445 48.8431 8.31445C44.6437 8.31445 40.9886 10.6434 39.0903 14.0819H58.5955Z" fill="white"/>
<path d="M55.7925 14.0849C55.7925 15.0037 55.0476 15.7485 54.1289 15.7485C53.2101 15.7485 52.4653 15.0037 52.4653 14.0849C52.4653 13.1662 53.2101 12.4213 54.1289 12.4213C55.0476 12.4213 55.7925 13.1662 55.7925 14.0849Z" fill="#204C3D"/>
<path d="M37.8381 70.1235C40.8007 70.1235 43.3657 70.9945 43.3657 74.106C43.3657 77.2191 40.9504 78.0875 38.1033 78.0875C36.0666 78.0875 34.5206 78.0901 34.5206 78.0901V82.6169H32.4865V70.1235H37.8381ZM38.2818 71.8362H34.5206V76.3736C34.5206 76.3736 36.1956 76.3757 38.1917 76.3757C40.1104 76.3757 41.4402 75.9536 41.4402 74.106C41.4402 72.2858 40.1104 71.8362 38.2818 71.8362Z" fill="#7CB72E"/>
<path d="M29.795 82.615L24.1596 70.1128H21.9342L16.2802 82.615H18.3532L18.8451 81.5089C19.6108 80.4705 21.3826 78.9418 24.6058 78.9418H26.1091L27.7651 82.615H29.795ZM24.5665 77.2194C22.8039 77.2194 21.4647 77.5396 20.3742 78.1001L23.0378 72.1753L25.3329 77.2194H24.5665Z" fill="#7CB72E"/>
<path d="M86.9762 70.1235V71.8442H82.4139V82.6152H80.3793V71.8442H75.8237V70.1235H86.9762Z" fill="#7CB72E"/>
<path d="M54.5511 76.3694L58.998 70.1235H56.6593L52.8211 75.4967H48.4956L48.5054 70.1235H46.4691V82.6152H48.5054V77.2196H52.8262L56.7024 82.6152H59.1418L54.5511 76.3694Z" fill="#7CB72E"/>
<path d="M11.5429 70.1243L6.81985 75.9361L2.09677 70.1243H0.0626221V82.6159H2.09677V73.1029L6.81985 78.8987L11.5429 73.1029V82.6159H13.5771V70.1243H11.5429Z" fill="#7CB72E"/>
<path d="M72.9007 70.1235V71.8442H64.2058V75.4967H71.1876V77.2196H64.2058V80.9025H72.9007V82.6152H62.1716V70.1235H72.9007Z" fill="#7CB72E"/>
<path d="M58.4504 59.8589C56.9361 59.8589 55.7153 61.0492 55.7153 62.5935C55.7153 64.1378 56.9361 65.3285 58.4504 65.3285C59.9719 65.3285 61.185 64.1378 61.185 62.5935C61.185 61.0492 59.9719 59.8589 58.4504 59.8589ZM58.4504 64.5232C57.3827 64.5232 56.582 63.6763 56.582 62.5935C56.582 61.5107 57.3827 60.6643 58.4504 60.6643C59.518 60.6643 60.3187 61.5107 60.3187 62.5935C60.3187 63.6763 59.518 64.5232 58.4504 64.5232Z" fill="#204C3D"/>
<path d="M40.119 59.8589C38.6051 59.8589 37.3844 61.0492 37.3844 62.5935C37.3844 64.1378 38.6051 65.3285 40.119 65.3285C41.6409 65.3285 42.8541 64.1378 42.8541 62.5935C42.8541 61.0492 41.6409 59.8589 40.119 59.8589ZM40.119 64.5232C39.0514 64.5232 38.2507 63.6763 38.2507 62.5935C38.2507 61.5107 39.0514 60.6643 40.119 60.6643C41.1871 60.6643 41.9878 61.5107 41.9878 62.5935C41.9878 63.6763 41.1871 64.5232 40.119 64.5232Z" fill="#204C3D"/>
<path d="M34.0667 59.9333C35.3272 59.9333 36.419 60.3043 36.419 61.6283C36.419 62.9531 35.3911 63.3227 34.1797 63.3227C33.3125 63.3227 32.6548 63.3236 32.6548 63.3236V65.2503H31.7889V59.9333H34.0667ZM34.2554 60.6622H32.6548V62.5931C32.6548 62.5931 33.368 62.5939 34.2173 62.5939C35.0337 62.5939 35.5996 62.4146 35.5996 61.6283C35.5996 60.8533 35.0337 60.6622 34.2554 60.6622Z" fill="#204C3D"/>
<path d="M53.2492 62.5914L55.1413 59.9333H54.1464L52.5128 62.22H50.672L50.6762 59.9333H49.8099V65.2495H50.6762V62.953H52.5149L54.1646 65.2495H55.2026L53.2492 62.5914Z" fill="#204C3D"/>
<path d="M28.2439 61.8643C27.3772 61.8643 26.719 61.8635 26.719 61.8635V60.6698H29.677V59.9368H26.719H26.7059H25.8536V65.2537H28.1309C29.3914 65.2537 30.4832 64.8828 30.4832 63.5588C30.4832 62.2336 29.4553 61.8643 28.2439 61.8643ZM28.3196 64.5245H26.719V62.5936C26.719 62.5936 27.4317 62.5927 28.2811 62.5927C29.0979 62.5927 29.6638 62.7725 29.6638 63.5588C29.6638 64.3333 29.0979 64.5245 28.3196 64.5245Z" fill="#204C3D"/>
<path d="M48.1131 63.8202C47.7764 64.252 47.2582 64.5232 46.6537 64.5232C45.5861 64.5232 44.7854 63.6763 44.7854 62.5935C44.7854 61.5107 45.5861 60.6643 46.6537 60.6643C47.2535 60.6643 47.7687 60.9312 48.1054 61.3571L48.6041 60.6596C48.1097 60.1617 47.421 59.8589 46.6537 59.8589C45.1394 59.8589 43.9191 61.0492 43.9191 62.5935C43.9191 64.1378 45.1394 65.3285 46.6537 65.3285C47.4261 65.3285 48.1185 65.0214 48.6139 64.5172L48.1131 63.8202Z" fill="#204C3D"/>
</svg>
