<svg width="97" height="97" viewBox="0 0 97 97" fill="none" xmlns="http://www.w3.org/2000/svg">
<path fill-rule="evenodd" clip-rule="evenodd" d="M48.387 0C44.7822 0 41.2763 0.405539 37.8983 1.15557V48.4234C37.8983 54.2157 42.6208 58.9398 48.4147 58.9398C54.2056 58.9398 58.9267 54.2158 58.9267 48.4263C58.9267 42.8621 54.5791 38.2951 49.1138 37.9317V29.5142C59.213 29.8805 67.3398 38.2355 67.3398 48.4263C67.3398 58.8482 58.838 67.3543 48.4147 67.3543C37.9869 67.3543 29.4866 58.8482 29.4866 48.4234V3.83009C28.2918 4.33738 27.1246 4.8999 25.9807 5.50457V48.4234C25.9821 60.777 36.061 70.8516 48.4147 70.8516C60.7698 70.8516 70.8443 60.7771 70.8443 48.4263C70.8443 36.3052 61.1492 26.3789 49.1138 26.0054V17.5908C65.7802 17.9673 79.2531 31.6742 79.2531 48.4263C79.2531 65.4153 65.3993 79.2661 48.4147 79.2661C31.4256 79.2661 17.5675 65.4153 17.5675 48.4234V11.0862C6.84038 19.9572 0 33.3719 0 48.387C0 75.1105 21.6636 96.7799 48.3885 96.7799C75.1177 96.7799 96.7755 75.1105 96.7755 48.387C96.7755 21.6636 75.1177 0 48.387 0Z" fill="#FF5000"/>
</svg>
