<svg width="371" height="473" viewBox="0 0 371 473" fill="none" xmlns="http://www.w3.org/2000/svg">
<path d="M11.033 303.684L78.0567 296.008L193.452 381.75L180.324 449.816" stroke="#FF5000" stroke-miterlimit="1.5" stroke-linecap="round" stroke-linejoin="round"/>
<path d="M77.7237 296.164L132.789 259.626" stroke="#FF5000" stroke-miterlimit="1.5" stroke-linecap="round" stroke-linejoin="round"/>
<path d="M193.426 381.621L242.384 336.988" stroke="#FF5000" stroke-miterlimit="1.5" stroke-linecap="round" stroke-linejoin="round"/>
<path d="M151.84 272.282L133.354 258.954L67.5477 268.414L10.3375 303.448L179.354 449.842L227.53 403.224L241.895 337.226L224.796 324.901" stroke="#FF5000" stroke-miterlimit="1.5" stroke-linecap="round" stroke-linejoin="round"/>
<path fill-rule="evenodd" clip-rule="evenodd" d="M251.272 299.986L202.286 342.456L154.851 307.107L152.975 124.97L210.131 96.3993L373.876 191.722L374.83 247.72L331.673 290.175L258.972 259.366L251.272 299.986Z" stroke="#FF5000" stroke-miterlimit="1.5" stroke-linecap="round" stroke-linejoin="round"/>
<path d="M152.255 125.093L219.193 244.267L201.538 342.054" stroke="#FF5000" stroke-miterlimit="1.5" stroke-linecap="round" stroke-linejoin="round"/>
<path d="M220.093 244.011L259.549 259.414" stroke="#FF5000" stroke-miterlimit="1.5" stroke-linecap="round" stroke-linejoin="round"/>
<path d="M331.398 290.084L329.938 229.795L373.974 191.772" stroke="#FF5000" stroke-miterlimit="1.5" stroke-linecap="round" stroke-linejoin="round"/>
<path d="M329.987 229.829L152.988 124.788" stroke="#FF5000" stroke-miterlimit="1.5" stroke-linecap="round" stroke-linejoin="round"/>
<path d="M309.7 281.206L265.5 320.662L241.348 439.238L291.026 424.615L318.359 391.333L350.706 407.136L409.649 390.155L445.584 337.802L389.988 312.795L334.392 287.788" stroke="#FF5000" stroke-miterlimit="1.5" stroke-linecap="round" stroke-linejoin="round"/>
<path d="M318.023 391.294L300.492 383.528L265.255 320.795" stroke="#FF5000" stroke-miterlimit="1.5" stroke-linecap="round" stroke-linejoin="round"/>
<path d="M265.295 320.656L410.039 390.252" stroke="#FF5000"/>
<path d="M300.612 383.734L290.757 424.459" stroke="#FF5000" stroke-miterlimit="1.5" stroke-linecap="round" stroke-linejoin="round"/>
</svg>
