<svg width="68" height="68" viewBox="0 0 68 68" fill="none" xmlns="http://www.w3.org/2000/svg">
<path d="M23.0172 67.9991C15.4582 43.0911 31.4301 33.9966 31.4301 33.9966C30.3126 47.2877 37.8657 57.6424 37.8657 57.6424C40.6436 56.8043 45.9457 52.8871 45.9457 52.8871C45.9457 57.6424 43.148 67.9932 43.148 67.9932C43.148 67.9932 52.942 60.4203 56.0251 47.8425C59.1041 35.2647 50.1602 22.6373 50.1602 22.6373C50.6991 31.5397 47.6874 40.2954 41.7868 46.9846C42.0821 46.6438 42.3297 46.2653 42.5199 45.8552C43.58 43.7351 45.282 38.2249 44.2854 25.4648C42.8825 7.55304 26.653 0 26.653 0C28.0519 10.9135 23.8573 13.4278 14.0316 34.1432C4.20591 54.8546 23.0172 67.9991 23.0172 67.9991Z" fill="#131313"/>
</svg>
