<svg width="73" height="73" viewBox="0 0 73 73" fill="none" xmlns="http://www.w3.org/2000/svg">
<path fill-rule="evenodd" clip-rule="evenodd" d="M60.1006 20.5799C60.1006 18.9859 60.7338 17.4572 61.8609 16.3301C62.988 15.203 64.5167 14.5698 66.1107 14.5698C67.7046 14.5698 69.2333 15.203 70.3604 16.3301C71.4875 17.4572 72.1207 18.9859 72.1207 20.5799V61.2541L66.1107 70.2692L60.1006 61.2541V20.5799ZM66.1107 18.5765C65.5793 18.5765 65.0698 18.7876 64.6941 19.1633C64.3184 19.539 64.1073 20.0486 64.1073 20.5799V60.04L66.1107 63.0451L68.114 60.04V20.5799C68.114 20.0486 67.903 19.539 67.5272 19.1633C67.1515 18.7876 66.642 18.5765 66.1107 18.5765Z" fill="#262626"/>
<path fill-rule="evenodd" clip-rule="evenodd" d="M70.1174 28.5934H62.104V24.5867H70.1174V28.5934Z" fill="#262626"/>
<path fill-rule="evenodd" clip-rule="evenodd" d="M8.01343 4.55331C6.95079 4.55331 4.00672 4.5531 4.00672 4.5531C4.00672 4.5531 4.00672 7.49738 4.00672 8.56002V64.6541C4.00672 65.7167 4.00672 68.6608 4.00672 68.6608C4.00672 68.6608 6.95079 68.6608 8.01343 68.6608H48.0806C49.1432 68.6608 52.0873 68.6608 52.0873 68.6608C52.0873 68.6608 52.0873 65.7167 52.0873 64.6541V8.56002C52.0873 7.49738 52.0873 4.55331 52.0873 4.55331C52.0873 4.55331 49.1432 4.55331 48.0806 4.55331H8.01343ZM0 8.56002C0 6.43473 0.000196713 0.546387 0.000196713 0.546387C0.000196713 0.546387 5.88814 0.546591 8.01343 0.546591H48.0806C50.2059 0.546591 56.094 0.546505 56.094 0.546505C56.094 0.546505 56.094 6.43473 56.094 8.56002V64.6541C56.094 66.7794 56.094 72.6675 56.094 72.6675C56.094 72.6675 50.2059 72.6675 48.0806 72.6675H8.01343C5.88814 72.6675 0.000122349 72.6675 0.000122349 72.6675C0.000122349 72.6675 0 66.7794 0 64.6541V8.56002Z" fill="#262626"/>
<path fill-rule="evenodd" clip-rule="evenodd" d="M28.0469 18.5766C28.0469 18.0453 28.2579 17.5357 28.6336 17.16C29.0093 16.7843 29.5189 16.5732 30.0502 16.5732H46.0771C46.6084 16.5732 47.118 16.7843 47.4937 17.16C47.8694 17.5357 48.0805 18.0453 48.0805 18.5766C48.0805 19.1079 47.8694 19.6175 47.4937 19.9932C47.118 20.3689 46.6084 20.58 46.0771 20.58H30.0502C29.5189 20.58 29.0093 20.3689 28.6336 19.9932C28.2579 19.6175 28.0469 19.1079 28.0469 18.5766Z" fill="#262626"/>
<path fill-rule="evenodd" clip-rule="evenodd" d="M28.0469 26.59C28.0469 26.0587 28.2579 25.5491 28.6336 25.1734C29.0093 24.7977 29.5189 24.5867 30.0502 24.5867H46.0771C46.6084 24.5867 47.118 24.7977 47.4937 25.1734C47.8694 25.5491 48.0805 26.0587 48.0805 26.59C48.0805 27.1214 47.8694 27.6309 47.4937 28.0066C47.118 28.3823 46.6084 28.5934 46.0771 28.5934H30.0502C29.5189 28.5934 29.0093 28.3823 28.6336 28.0066C28.2579 27.6309 28.0469 27.1214 28.0469 26.59Z" fill="#262626"/>
<path fill-rule="evenodd" clip-rule="evenodd" d="M28.047 44.6206C28.047 44.0893 28.0469 42.617 28.0469 42.617C28.0469 42.617 29.519 42.6172 30.0503 42.6172H46.0772C46.6085 42.6172 48.0805 42.6167 48.0805 42.6167C48.0805 42.6167 48.0805 44.0893 48.0805 44.6206C48.0805 45.1519 48.0805 46.6239 48.0805 46.6239C48.0805 46.6239 46.6085 46.6239 46.0772 46.6239H30.0503C29.519 46.6239 28.0474 46.6239 28.0474 46.6239C28.0474 46.6239 28.047 45.1519 28.047 44.6206Z" fill="#262626"/>
<path fill-rule="evenodd" clip-rule="evenodd" d="M28.0469 52.6339C28.0469 52.1026 28.0469 50.6301 28.0469 50.6301C28.0469 50.6301 29.5189 50.6305 30.0502 50.6305H46.0771C46.6084 50.6305 48.0805 50.6306 48.0805 50.6306C48.0805 50.6306 48.0805 52.1026 48.0805 52.6339C48.0805 53.1652 48.0805 54.6373 48.0805 54.6373C48.0805 54.6373 46.6084 54.6373 46.0771 54.6373H30.0502C29.5189 54.6373 28.0474 54.6373 28.0474 54.6373C28.0474 54.6373 28.0469 53.1652 28.0469 52.6339Z" fill="#262626"/>
<path fill-rule="evenodd" clip-rule="evenodd" d="M12.0199 44.6205V50.6306H18.03V44.6205H12.0199ZM10.0166 40.6138H20.0334C20.5647 40.6138 22.0367 40.6136 22.0367 40.6136C22.0367 40.6136 22.0367 42.0858 22.0367 42.6171V52.6339C22.0367 53.1653 22.0367 54.6373 22.0367 54.6373C22.0367 54.6373 20.5647 54.6373 20.0334 54.6373H10.0166C9.48527 54.6373 8.0133 54.6373 8.0133 54.6373C8.0133 54.6373 8.01323 53.1653 8.01323 52.6339V42.6171C8.01323 42.0858 8.01318 40.6135 8.01318 40.6135C8.01318 40.6135 9.48527 40.6138 10.0166 40.6138Z" fill="#262626"/>
<path fill-rule="evenodd" clip-rule="evenodd" d="M23.453 17.1603C23.8286 17.536 24.0396 18.0454 24.0396 18.5767C24.0396 19.1079 23.8286 19.6173 23.453 19.993L14.0232 29.4228L8.60013 23.9998C8.40879 23.8149 8.25617 23.5939 8.15117 23.3495C8.04618 23.1051 7.99091 22.8422 7.9886 22.5762C7.98629 22.3102 8.03698 22.0464 8.13771 21.8002C8.23844 21.554 8.3872 21.3303 8.5753 21.1422C8.7634 20.9541 8.98708 20.8053 9.23328 20.7046C9.47949 20.6039 9.74329 20.5532 10.0093 20.5555C10.2753 20.5578 10.5382 20.6131 10.7826 20.718C11.027 20.823 11.2481 20.9757 11.4329 21.167L14.0232 23.7573L20.6203 17.1603C20.996 16.7847 21.5054 16.5737 22.0367 16.5737C22.5679 16.5737 23.0773 16.7847 23.453 17.1603Z" fill="#262626"/>
</svg>
