<svg width="96" height="93" viewBox="0 0 96 93" fill="none" xmlns="http://www.w3.org/2000/svg">
<path d="M25.8327 52.4382L33.1016 56.7294L23.6414 37.9553L2.46258 38.5862L9.30172 42.6428L0 59.8595C0 59.8595 7.47003 73.3976 12.5628 81.4802C14.6444 84.7839 17.4301 86.6553 20.1029 86.6553H47.301V67.0461L17.7592 67.0369L25.8327 52.4382Z" fill="#131313"/>
<path d="M50.8704 30.2774L71.4823 31.5117L81.3662 12.7772L74.4661 16.7302L64.0641 0.153483C64.0641 0.153483 48.6029 -0.0232864 39.0665 0.436923C35.1654 0.625884 32.1603 2.12538 30.8467 4.44471L17.4458 28.1166L34.5101 37.7779L49.0723 12.0702L57.798 26.2879L50.8704 30.2774Z" fill="#131313"/>
<path d="M95.1809 54.1968L82.2432 30.272L64.996 39.6042L79.037 65.5923L62.3567 65.4308L62.6066 57.8754L50.6594 74.2509L61.2869 92.5801L61.6008 84.6377L81.1735 84.6285C81.1735 84.6285 89.5304 71.6146 94.2087 63.2943C96.1318 59.89 96.4518 56.5527 95.1809 54.1968Z" fill="#131313"/>
</svg>
