<svg width="96" height="97" viewBox="0 0 96 97" fill="none" xmlns="http://www.w3.org/2000/svg">
<path d="M57.5658 21.9895C59.0427 21.9895 60.4019 22.2777 61.6438 22.8542C65.33 24.729 67.5066 28.2921 67.5343 32.2652V59.6332C66.8428 63.9839 61.9143 62.8009 61.7949 59.6332V33.7913C61.3557 32.3176 58.5395 32.9287 58.4721 33.7913V93.1056C57.756 99.1623 50.0103 97.3844 49.8127 93.0039V56.6828C49.3175 54.34 46.0579 55.4045 45.9864 56.7845C46.1247 68.8572 46.0871 80.9306 46.0871 93.0039C45.3147 99.0295 37.6066 97.4877 37.4277 93.1056L37.3271 33.7913C36.8756 32.3494 34.266 32.9025 34.2055 33.7913V59.6332C33.514 63.9839 28.5855 62.8009 28.4662 59.6332V32.2652C28.5359 28.4615 29.9155 24.6509 33.1987 22.8542C34.2727 22.2777 35.5817 21.9894 37.1256 21.9894L57.5658 21.9895ZM57.4643 9.56072C57.4643 14.841 53.2279 19.1215 48.002 19.1215C42.7763 19.1215 38.5399 14.841 38.5399 9.56072C38.5398 4.28053 42.7762 0 48.0019 0C53.2279 0 57.4643 4.28053 57.4643 9.56072Z" fill="#131313"/>
</svg>
