<svg width="270" height="672" viewBox="0 0 270 672" fill="none" xmlns="http://www.w3.org/2000/svg">
<g clip-path="url(#clip0_22:95)">
<path fill-rule="evenodd" clip-rule="evenodd" d="M630.019 658.315L630.019 658.315L701 639.299L701 639.298L692.836 637.111L635.996 652.339L630.019 658.315ZM634.409 651.039L627.742 657.705L626.076 659.371L628.352 659.981L669.332 670.962L671.608 671.572L673.275 669.905L703.276 639.908L704.943 638.242L702.667 637.632L693.56 635.192L682.177 632.142L670.794 629.092L661.687 626.652L659.41 626.041L657.744 627.708L651.077 634.374L642.743 642.706L634.409 651.039ZM652.663 635.674L646.686 641.65L678.233 633.198L670.07 631.011L652.663 635.674ZM666.85 630.148L655.02 633.317L660.02 628.318L666.85 630.148ZM681.453 634.061L644.329 644.007L638.353 649.982L689.617 636.248L681.453 634.061ZM652.786 664.415L644.622 662.228L690.309 649.988L684.332 655.964L652.786 664.415ZM656.005 665.278L664.169 667.465L675.999 664.296L681.975 658.32L656.005 665.278ZM670.999 669.295L667.388 668.328L673.641 666.653L670.999 669.295ZM692.666 647.631L641.402 661.365L633.239 659.178L698.643 641.655L692.666 647.631ZM573.103 643.064L573.103 643.064L644.084 624.048L644.084 624.048L635.92 621.86L579.08 637.089L573.103 643.064ZM577.493 635.788L570.826 642.454L569.16 644.121L571.436 644.731L612.416 655.711L614.692 656.321L616.359 654.655L646.361 624.658L648.027 622.991L645.751 622.381L636.644 619.941L625.261 616.891L613.878 613.841L604.771 611.401L602.494 610.791L600.828 612.457L594.161 619.123L585.827 627.456L577.493 635.788ZM595.747 620.424L589.77 626.399L621.317 617.948L613.154 615.76L595.747 620.424ZM609.934 614.897L598.104 618.067L603.104 613.067L609.934 614.897ZM624.537 618.81L587.413 628.756L581.437 634.732L632.701 620.998L624.537 618.81ZM595.87 649.165L587.706 646.977L633.393 634.737L627.416 640.713L595.87 649.165ZM599.089 650.027L607.253 652.215L619.083 649.045L625.059 643.07L599.089 650.027ZM614.083 654.045L610.472 653.077L616.725 651.402L614.083 654.045ZM635.75 632.38L584.486 646.114L576.323 643.927L641.727 626.405L635.75 632.38ZM516.187 627.814L522.164 621.838L579.004 606.61L587.168 608.797L587.168 608.797L516.187 627.814ZM513.91 627.204L520.577 620.538L528.911 612.205L537.245 603.873L543.912 597.207L545.578 595.54L547.855 596.15L556.962 598.59L568.345 601.641L579.728 604.691L588.835 607.131L591.111 607.741L589.445 609.407L559.443 639.404L557.776 641.071L555.5 640.461L514.52 629.48L512.244 628.87L513.91 627.204ZM532.854 611.149L538.831 605.173L556.237 600.509L564.401 602.697L532.854 611.149ZM541.188 602.816L553.018 599.647L546.188 597.817L541.188 602.816ZM530.497 613.505L567.621 603.56L575.785 605.747L524.521 619.481L530.497 613.505ZM530.791 631.727L538.953 633.914L570.5 625.462L576.477 619.487L530.791 631.727ZM550.337 636.964L542.174 634.777L568.143 627.819L562.167 633.795L550.337 636.964ZM553.557 637.827L557.167 638.794L559.809 636.151L553.557 637.827ZM527.57 630.864L578.834 617.13L584.811 611.154L519.407 628.677L527.57 630.864ZM671.688 616.653L671.688 616.653L742.668 597.636L742.668 597.636L734.505 595.449L677.664 610.677L671.688 616.653ZM676.078 609.377L669.411 616.043L667.744 617.709L670.021 618.319L711 629.299L713.277 629.91L714.944 628.243L744.945 598.246L746.612 596.58L744.335 595.97L735.229 593.53L723.845 590.479L712.462 587.429L703.356 584.989L701.079 584.379L699.412 586.046L692.745 592.712L684.412 601.044L676.078 609.377ZM694.332 594.012L688.355 599.988L719.902 591.536L711.738 589.349L694.332 594.012ZM708.519 588.486L696.689 591.655L701.689 586.656L708.519 588.486ZM723.122 592.399L685.998 602.344L680.021 608.32L731.285 594.586L723.122 592.399ZM694.454 622.753L686.291 620.565L731.977 608.326L726.001 614.301L694.454 622.753ZM697.674 623.616L705.837 625.803L717.667 622.634L723.644 616.658L697.674 623.616ZM712.667 627.633L709.057 626.666L715.31 624.99L712.667 627.633ZM734.335 605.969L683.071 619.703L674.907 617.515L740.311 599.993L734.335 605.969ZM614.772 601.402L614.772 601.402L620.748 595.426L677.589 580.198L685.752 582.386L685.752 582.386L614.772 601.402ZM612.495 600.792L619.162 594.126L627.496 585.794L635.829 577.461L642.496 570.795L644.163 569.129L646.44 569.739L655.546 572.179L666.929 575.229L678.313 578.279L687.419 580.719L689.696 581.329L688.029 582.996L658.028 612.992L656.361 614.659L654.084 614.049L613.105 603.068L610.828 602.458L612.495 600.792ZM631.439 584.737L637.416 578.761L654.822 574.098L662.986 576.285L631.439 584.737ZM639.773 576.405L651.603 573.235L644.773 571.405L639.773 576.405ZM629.082 587.094L666.206 577.148L674.369 579.335L623.105 593.07L629.082 587.094ZM629.375 605.315L637.538 607.502L669.085 599.051L675.061 593.075L629.375 605.315ZM648.921 610.552L640.758 608.365L666.728 601.407L660.751 607.383L648.921 610.552ZM652.141 611.415L655.751 612.382L658.394 609.74L652.141 611.415ZM626.155 604.452L677.419 590.718L683.395 584.742L617.991 602.265L626.155 604.452ZM557.856 586.151L628.836 567.135L628.836 567.135L620.672 564.947L563.832 580.176L557.856 586.151ZM562.246 578.875L555.579 585.541L553.912 587.208L556.189 587.818L597.168 598.798L599.445 599.408L601.112 597.742L631.113 567.745L632.78 566.079L630.503 565.468L621.397 563.028L610.013 559.978L598.63 556.928L589.524 554.488L587.247 553.878L585.58 555.545L578.913 562.21L570.58 570.543L562.246 578.875ZM580.5 563.511L574.523 569.486L606.07 561.035L597.906 558.847L580.5 563.511ZM594.687 557.985L582.857 561.154L587.857 556.155L594.687 557.985ZM609.289 561.897L572.166 571.843L566.189 577.819L617.453 564.085L609.289 561.897ZM580.622 592.252L572.459 590.064L618.145 577.824L612.169 583.8L580.622 592.252ZM583.842 593.114L592.005 595.302L603.835 592.132L609.812 586.157L583.842 593.114ZM598.835 597.132L595.225 596.165L601.478 594.489L598.835 597.132ZM620.503 575.468L569.239 589.201L561.076 587.014L626.479 569.492L620.503 575.468ZM713.356 574.99L713.356 574.99L719.333 569.014L776.173 553.787L784.337 555.974L713.356 574.99ZM711.079 574.38L717.746 567.714L726.08 559.382L734.414 551.049L741.081 544.383L742.748 542.717L745.024 543.327L754.131 545.767L765.514 548.817L776.897 551.867L786.004 554.307L788.28 554.917L786.614 556.584L756.612 586.581L754.945 588.247L752.669 587.637L711.689 576.657L709.413 576.047L711.079 574.38ZM730.023 558.325L736 552.349L753.407 547.686L761.571 549.874L730.023 558.325ZM738.357 549.993L750.187 546.824L743.357 544.993L738.357 549.993ZM727.667 560.682L764.79 550.736L772.954 552.924L721.69 566.658L727.667 560.682ZM727.959 578.903L736.123 581.091L767.67 572.639L773.646 566.664L727.959 578.903ZM747.506 584.141L739.342 581.953L765.312 574.996L759.336 580.971L747.506 584.141ZM750.725 585.003L754.336 585.971L756.978 583.329L750.725 585.003ZM724.739 578.04L776.003 564.306L781.979 558.331L716.576 575.853L724.739 578.04ZM656.44 559.74L656.44 559.74L727.421 540.723L719.257 538.536L662.417 553.764L656.44 559.74ZM660.83 552.464L654.163 559.13L652.497 560.796L654.773 561.406L695.753 572.387L698.029 572.997L699.696 571.33L729.698 541.333L731.364 539.667L729.088 539.057L719.981 536.617L708.598 533.567L697.215 530.516L688.108 528.076L685.832 527.466L684.165 529.133L677.498 535.799L669.164 544.131L660.83 552.464ZM679.084 537.099L673.107 543.075L704.655 534.623L696.491 532.436L679.084 537.099ZM693.271 531.573L681.441 534.742L686.441 529.743L693.271 531.573ZM707.874 535.486L670.751 545.431L664.774 551.407L716.038 537.673L707.874 535.486ZM679.207 565.84L671.043 563.653L716.73 551.413L710.754 557.388L679.207 565.84ZM682.426 566.703L690.59 568.89L702.42 565.721L708.396 559.745L682.426 566.703ZM697.42 570.72L693.81 569.753L700.062 568.078L697.42 570.72ZM719.087 549.056L667.824 562.79L659.66 560.602L725.063 543.081L719.087 549.056ZM599.524 544.489L605.501 538.513L662.341 523.285L670.505 525.473L599.524 544.489ZM597.247 543.879L603.914 537.213L612.248 528.881L620.582 520.548L627.249 513.882L628.916 512.216L631.192 512.826L640.299 515.266L651.682 518.316L663.065 521.366L672.172 523.806L674.448 524.416L672.782 526.083L642.78 556.08L641.113 557.746L638.837 557.136L597.857 546.156L595.581 545.546L597.247 543.879ZM616.192 527.824L622.168 521.848L639.575 517.185L647.739 519.372L616.192 527.824ZM624.525 519.492L636.355 516.322L629.525 514.492L624.525 519.492ZM613.835 530.181L650.958 520.235L659.122 522.423L607.858 536.157L613.835 530.181ZM614.128 548.402L622.29 550.589L653.838 542.138L659.814 536.162L614.128 548.402ZM633.674 553.639L625.511 551.452L651.48 544.495L645.504 550.47L633.674 553.639ZM636.894 554.502L640.504 555.47L643.146 552.827L636.894 554.502ZM610.907 547.539L662.171 533.805L668.147 527.83L602.744 545.352L610.907 547.539ZM459.271 612.563L530.252 593.547L530.252 593.547L522.088 591.359L465.248 606.587L459.271 612.563ZM463.661 605.287L456.994 611.953L455.328 613.619L457.604 614.23L498.584 625.21L500.86 625.82L502.527 624.153L532.529 594.157L534.195 592.49L531.919 591.88L522.812 589.44L511.429 586.39L500.046 583.34L490.939 580.9L488.662 580.29L486.996 581.956L480.329 588.622L471.995 596.955L463.661 605.287ZM481.915 589.922L475.938 595.898L507.485 587.446L499.321 585.259L481.915 589.922ZM496.102 584.396L484.272 587.566L489.272 582.566L496.102 584.396ZM510.705 588.309L473.581 598.255L467.605 604.231L518.869 590.497L510.705 588.309ZM482.037 618.663L473.875 616.476L519.561 604.236L513.584 610.212L482.037 618.663ZM485.258 619.526L493.421 621.713L505.251 618.544L511.227 612.568L485.258 619.526ZM500.251 623.543L496.641 622.576L502.893 620.901L500.251 623.543ZM521.918 601.879L470.654 615.613L462.491 613.426L527.895 595.904L521.918 601.879ZM402.355 597.312L473.336 578.296L473.336 578.296L465.172 576.108L408.332 591.337L402.355 597.312ZM406.745 590.036L400.078 596.702L398.412 598.369L400.688 598.979L441.668 609.959L443.944 610.569L445.611 608.903L475.613 578.906L477.279 577.24L475.003 576.63L465.896 574.189L454.513 571.139L443.13 568.089L434.023 565.649L431.746 565.039L430.08 566.706L423.413 573.372L415.079 581.704L406.745 590.036ZM424.999 574.672L419.022 580.648L450.569 572.196L442.405 570.008L424.999 574.672ZM439.186 569.146L427.356 572.315L432.356 567.316L439.186 569.146ZM453.789 573.058L416.665 583.004L410.689 588.98L461.953 575.246L453.789 573.058ZM425.121 603.413L416.959 601.225L462.645 588.985L456.668 594.961L425.121 603.413ZM428.342 604.276L436.505 606.463L448.335 603.294L454.311 597.318L428.342 604.276ZM443.335 608.293L439.725 607.326L445.977 605.65L443.335 608.293ZM465.002 586.629L413.738 600.363L405.575 598.175L470.979 580.653L465.002 586.629ZM416.42 563.046L345.439 582.062L351.416 576.086L408.256 560.858L416.42 563.045L416.42 563.046ZM343.162 581.452L349.829 574.786L358.163 566.453L366.497 558.121L373.164 551.455L374.83 549.788L377.107 550.399L386.214 552.839L397.597 555.889L408.98 558.939L418.087 561.379L420.363 561.989L418.697 563.655L388.695 593.652L387.028 595.319L384.752 594.709L343.772 583.728L341.496 583.118L343.162 581.452ZM362.106 565.397L368.083 559.421L385.489 554.758L393.654 556.945L362.106 565.397ZM370.44 557.064L382.27 553.895L375.44 552.065L370.44 557.064ZM359.749 567.754L396.873 557.808L405.037 559.995L353.773 573.729L359.749 567.754ZM360.043 585.975L368.205 588.162L399.752 579.711L405.729 573.735L360.043 585.975ZM379.589 591.212L371.426 589.025L397.395 582.067L391.419 588.043L379.589 591.212ZM382.809 592.075L386.419 593.042L389.062 590.4L382.809 592.075ZM356.822 585.112L408.086 571.378L414.063 565.402L348.659 582.925L356.822 585.112ZM500.94 570.901L571.92 551.885L571.92 551.884L563.756 549.697L506.916 564.925L500.94 570.901ZM505.33 563.625L498.663 570.291L496.996 571.957L499.273 572.567L540.252 583.548L542.529 584.158L544.196 582.491L574.197 552.494L575.864 550.828L573.587 550.218L564.481 547.778L553.097 544.728L541.714 541.678L532.608 539.237L530.331 538.627L528.664 540.294L521.997 546.96L513.664 555.292L505.33 563.625ZM523.584 548.26L517.607 554.236L549.154 545.784L540.99 543.597L523.584 548.26ZM537.771 542.734L525.941 545.903L530.941 540.904L537.771 542.734ZM552.373 546.647L515.25 556.593L509.273 562.568L560.537 548.834L552.373 546.647ZM523.706 577.001L515.543 574.814L561.229 562.574L555.253 568.549L523.706 577.001ZM526.926 577.864L535.089 580.051L546.919 576.882L552.896 570.906L526.926 577.864ZM541.919 581.881L538.309 580.914L544.562 579.239L541.919 581.881ZM563.587 560.217L512.323 573.951L504.16 571.764L569.563 554.241L563.587 560.217ZM444.024 555.65L450 549.674L506.84 534.446L515.004 536.634L515.004 536.634L444.024 555.65ZM441.747 555.04L448.414 548.374L456.748 540.042L465.081 531.709L471.748 525.043L473.415 523.377L475.692 523.987L484.798 526.427L496.181 529.477L507.565 532.527L516.671 534.967L518.948 535.577L517.281 537.244L487.28 567.241L485.613 568.907L483.336 568.297L442.357 557.317L440.08 556.707L441.747 555.04ZM460.691 538.985L466.668 533.01L484.074 528.346L492.238 530.534L460.691 538.985ZM469.025 530.653L480.855 527.483L474.025 525.653L469.025 530.653ZM458.334 541.342L495.457 531.396L503.621 533.584L452.357 547.318L458.334 541.342ZM458.627 559.563L466.79 561.75L498.337 553.299L504.313 547.323L458.627 559.563ZM478.173 564.801L470.01 562.613L495.98 555.656L490.003 561.631L478.173 564.801ZM481.393 565.663L485.003 566.631L487.646 563.988L481.393 565.663ZM455.407 558.7L506.671 544.966L512.647 538.991L447.244 556.513L455.407 558.7ZM393.084 534.424L387.108 540.4L458.088 521.383L458.088 521.383L449.924 519.196L393.084 534.424ZM391.498 533.124L384.831 539.79L383.164 541.456L385.441 542.066L426.42 553.046L428.697 553.657L430.364 551.99L460.365 521.993L462.032 520.327L459.755 519.717L450.649 517.277L439.265 514.226L427.882 511.176L418.776 508.736L416.499 508.126L414.832 509.793L408.165 516.459L399.832 524.791L391.498 533.124ZM409.752 517.759L403.775 523.735L435.322 515.283L427.158 513.095L409.752 517.759ZM423.939 512.233L412.109 515.402L417.109 510.403L423.939 512.233ZM438.541 516.146L401.418 526.091L395.441 532.067L446.705 518.333L438.541 516.146ZM409.874 546.5L401.711 544.313L447.397 532.073L441.421 538.048L409.874 546.5ZM413.094 547.363L421.257 549.55L433.087 546.381L439.064 540.405L413.094 547.363ZM428.087 551.38L424.477 550.413L430.73 548.737L428.087 551.38ZM449.755 529.716L398.491 543.45L390.328 541.262L455.731 523.74L449.755 529.716ZM542.608 529.239L548.585 523.262L605.425 508.035L613.589 510.222L542.608 529.239ZM540.331 528.628L546.998 521.963L555.332 513.63L563.666 505.298L570.333 498.632L572 496.965L574.276 497.575L583.383 500.015L594.766 503.065L606.149 506.116L615.256 508.556L617.532 509.166L615.866 510.832L585.864 540.829L584.198 542.495L581.921 541.885L540.941 530.905L538.665 530.295L540.331 528.628ZM559.276 512.574L565.252 506.598L582.659 501.934L590.823 504.122L559.276 512.574ZM567.609 504.241L579.439 501.072L572.609 499.242L567.609 504.241ZM556.919 514.93L594.042 504.984L602.206 507.172L550.942 520.906L556.919 514.93ZM557.212 533.152L565.374 535.339L596.922 526.887L602.898 520.912L557.212 533.152ZM576.758 538.389L568.595 536.202L594.564 529.244L588.588 535.219L576.758 538.389ZM579.978 539.252L583.588 540.219L586.23 537.577L579.978 539.252ZM553.991 532.289L605.255 518.555L611.231 512.579L545.828 530.101L553.991 532.289ZM485.692 513.988L556.673 494.972L548.509 492.784L491.669 508.012L485.692 513.988ZM490.082 506.712L483.415 513.378L481.749 515.044L484.025 515.654L525.005 526.635L527.282 527.245L528.948 525.578L558.95 495.582L560.616 493.915L558.34 493.305L549.233 490.865L537.85 487.815L526.467 484.765L517.36 482.325L515.084 481.715L513.417 483.381L506.75 490.047L498.416 498.379L490.082 506.712ZM508.336 491.347L502.36 497.323L533.907 488.871L525.743 486.684L508.336 491.347ZM522.523 485.821L510.693 488.991L515.693 483.991L522.523 485.821ZM537.126 489.734L500.003 499.679L494.026 505.655L545.29 491.921L537.126 489.734ZM508.459 520.088L500.296 517.901L545.982 505.661L540.006 511.636L508.459 520.088ZM511.679 520.951L519.842 523.138L531.672 519.969L537.648 513.994L511.679 520.951ZM526.672 524.968L523.062 524.001L529.314 522.326L526.672 524.968ZM548.339 503.304L497.075 517.038L488.912 514.851L554.315 497.329L548.339 503.304ZM499.757 479.721L428.776 498.737L434.753 492.761L491.593 477.533L499.757 479.721ZM426.499 498.127L433.166 491.461L441.5 483.129L449.834 474.796L456.501 468.13L458.168 466.464L460.444 467.074L469.551 469.514L480.934 472.564L492.317 475.614L501.424 478.054L503.7 478.664L502.034 480.331L472.032 510.328L470.366 511.994L468.089 511.384L427.109 500.404L424.833 499.794L426.499 498.127ZM445.444 482.072L451.42 476.096L468.827 471.433L476.991 473.621L445.444 482.072ZM453.777 473.74L465.607 470.571L458.777 468.74L453.777 473.74ZM443.087 484.429L480.21 474.483L488.374 476.671L437.11 490.405L443.087 484.429ZM443.38 502.65L451.543 504.838L483.09 496.386L489.066 490.411L443.38 502.65ZM462.926 507.888L454.763 505.7L480.732 498.743L474.756 504.718L462.926 507.888ZM466.146 508.751L469.756 509.718L472.398 507.076L466.146 508.751ZM440.159 501.787L491.423 488.053L497.399 482.078L431.996 499.6L440.159 501.787ZM584.277 487.576L590.254 481.6L647.093 466.372L655.257 468.56L584.277 487.576ZM582 486.966L588.667 480.3L597.001 471.968L605.334 463.635L612.001 456.969L613.668 455.303L615.945 455.913L625.051 458.353L636.434 461.403L647.818 464.453L656.924 466.893L659.201 467.503L657.534 469.17L627.533 499.167L625.866 500.833L623.589 500.223L582.61 489.243L580.333 488.633L582 486.966ZM600.944 470.911L606.921 464.935L624.327 460.272L632.491 462.46L600.944 470.911ZM609.278 462.579L621.108 459.41L614.278 457.579L609.278 462.579ZM598.587 473.268L635.71 463.322L643.874 465.51L592.61 479.244L598.587 473.268ZM598.88 491.489L607.043 493.676L638.59 485.225L644.566 479.25L598.88 491.489ZM618.426 496.727L610.263 494.539L636.232 487.582L630.256 493.557L618.426 496.727ZM621.647 497.589L625.256 498.557L627.899 495.914L621.647 497.589ZM595.66 490.626L646.924 476.892L652.9 470.917L587.497 488.439L595.66 490.626ZM527.361 472.326L533.338 466.35L590.177 451.122L598.342 453.309L527.361 472.326ZM525.084 471.716L531.751 465.05L540.085 456.717L548.418 448.385L555.085 441.719L556.752 440.052L559.029 440.662L568.135 443.102L579.518 446.153L590.902 449.203L600.008 451.643L602.285 452.253L600.618 453.919L570.617 483.916L568.95 485.583L566.673 484.973L525.694 473.992L523.417 473.382L525.084 471.716ZM544.028 455.661L550.005 449.685L567.411 445.021L575.575 447.209L544.028 455.661ZM552.362 447.328L564.192 444.159L557.362 442.329L552.362 447.328ZM541.671 458.017L578.794 448.072L586.958 450.259L535.694 463.993L541.671 458.017ZM541.964 476.239L550.127 478.426L581.674 469.974L587.65 463.999L541.964 476.239ZM561.51 481.476L553.347 479.289L579.316 472.331L573.34 478.307L561.51 481.476ZM564.731 482.339L568.34 483.306L570.983 480.664L564.731 482.339ZM538.744 475.376L590.008 461.642L595.984 455.667L530.581 473.189L538.744 475.376ZM541.426 438.059L533.261 435.871L476.422 451.099L470.445 457.075L541.426 438.059ZM474.835 449.799L468.168 456.465L466.501 458.132L468.778 458.742L509.757 469.722L512.034 470.332L513.701 468.666L543.702 438.669L545.369 437.002L543.092 436.392L533.986 433.952L522.602 430.902L511.219 427.852L502.113 425.412L499.836 424.802L498.169 426.468L491.502 433.134L483.169 441.467L474.835 449.799ZM493.089 434.434L487.112 440.41L518.659 431.958L510.495 429.771L493.089 434.434ZM507.276 428.908L495.446 432.078L500.446 427.078L507.276 428.908ZM521.878 432.821L484.755 442.767L478.778 448.743L530.042 435.009L521.878 432.821ZM493.211 463.175L485.048 460.988L530.734 448.748L524.758 454.724L493.211 463.175ZM496.431 464.038L504.594 466.225L516.424 463.056L522.4 457.081L496.431 464.038ZM511.424 468.055L507.815 467.088L514.067 465.413L511.424 468.055ZM533.092 446.391L481.828 460.125L473.665 457.938L539.068 440.416L533.092 446.391ZM625.945 445.914L631.922 439.938L688.762 424.71L696.926 426.898L625.945 445.914ZM623.669 445.304L630.336 438.638L638.669 430.306L647.003 421.973L653.67 415.307L655.337 413.641L657.613 414.251L666.72 416.691L678.103 419.741L689.486 422.791L698.593 425.231L700.869 425.841L699.203 427.508L669.201 457.504L667.535 459.171L665.258 458.561L624.278 447.58L622.002 446.97L623.669 445.304ZM642.613 429.249L648.59 423.273L665.996 418.61L674.16 420.797L642.613 429.249ZM650.946 420.917L662.776 417.747L655.947 415.917L650.946 420.917ZM640.256 431.606L677.379 421.66L685.543 423.847L634.279 437.582L640.256 431.606ZM640.549 449.827L648.712 452.014L680.259 443.563L686.235 437.587L640.549 449.827ZM660.095 455.064L651.932 452.877L677.901 445.92L671.925 451.895L660.095 455.064ZM663.315 455.927L666.925 456.894L669.567 454.252L663.315 455.927ZM637.328 448.964L688.592 435.23L694.568 429.255L629.165 446.777L637.328 448.964ZM569.029 430.663L640.01 411.647L631.846 409.459L575.006 424.687L569.029 430.663ZM573.419 423.387L566.753 430.053L565.086 431.72L567.362 432.33L608.342 443.31L610.619 443.92L612.285 442.254L642.287 412.257L643.953 410.591L641.677 409.981L632.57 407.54L621.187 404.49L609.804 401.44L600.697 399L598.421 398.39L596.754 400.057L590.087 406.723L581.753 415.055L573.419 423.387ZM591.674 408.022L585.697 413.999L617.244 405.547L609.08 403.359L591.674 408.022ZM605.86 402.497L594.03 405.666L599.031 400.667L605.86 402.497ZM620.463 406.409L583.34 416.355L577.363 422.331L628.627 408.597L620.463 406.409ZM591.796 436.764L583.633 434.576L629.319 422.337L623.343 428.312L591.796 436.764ZM595.016 437.627L603.179 439.814L615.009 436.644L620.985 430.669L595.016 437.627ZM610.009 441.644L606.399 440.677L612.651 439.002L610.009 441.644ZM631.676 419.979L580.412 433.714L572.249 431.526L637.652 414.004L631.676 419.979ZM512.113 415.413L518.09 409.437L574.93 394.209L583.094 396.396L512.113 415.413ZM509.837 414.803L516.504 408.137L524.837 399.804L533.171 391.472L539.838 384.806L541.505 383.139L543.781 383.749L552.888 386.19L564.271 389.24L575.654 392.29L584.761 394.73L587.037 395.34L585.371 397.006L555.369 427.003L553.703 428.67L551.426 428.06L510.446 417.079L508.17 416.469L509.837 414.803ZM528.781 398.748L534.758 392.772L552.164 388.109L560.328 390.296L528.781 398.748ZM537.114 390.415L548.944 387.246L542.115 385.416L537.114 390.415ZM526.424 401.104L563.547 391.159L571.711 393.346L520.447 407.08L526.424 401.104ZM526.717 419.326L534.88 421.513L566.427 413.061L572.403 407.086L526.717 419.326ZM546.263 424.563L538.1 422.376L564.069 415.419L558.093 421.394L546.263 424.563ZM549.483 425.426L553.093 426.393L555.735 423.751L549.483 425.426ZM523.496 418.463L574.76 404.729L580.736 398.754L515.334 416.276L523.496 418.463ZM667.614 404.252L738.595 385.235L730.431 383.048L673.591 398.276L667.614 404.252ZM672.004 396.976L665.337 403.642L663.67 405.308L665.947 405.918L706.926 416.899L709.203 417.509L710.87 415.842L740.871 385.845L742.538 384.179L740.261 383.569L731.155 381.129L719.772 378.079L708.388 375.029L699.282 372.588L697.005 371.978L695.338 373.645L688.671 380.311L680.338 388.643L672.004 396.976ZM690.258 381.611L684.281 387.587L715.828 379.135L707.664 376.948L690.258 381.611ZM704.445 376.085L692.615 379.254L697.615 374.255L704.445 376.085ZM719.047 379.998L681.924 389.943L675.947 395.919L727.211 382.185L719.047 379.998ZM690.38 410.352L682.217 408.165L727.903 395.925L721.927 401.9L690.38 410.352ZM693.6 411.215L701.763 413.402L713.593 410.233L719.57 404.258L693.6 411.215ZM708.593 415.232L704.984 414.265L711.236 412.59L708.593 415.232ZM730.261 393.568L678.997 407.302L670.834 405.115L736.237 387.593L730.261 393.568ZM610.698 389.001L616.675 383.025L673.515 367.797L681.679 369.985L610.698 389.001ZM608.421 388.391L615.088 381.725L623.422 373.393L631.755 365.06L638.422 358.394L640.089 356.728L642.366 357.338L651.472 359.778L662.856 362.828L674.239 365.878L683.345 368.318L685.622 368.928L683.955 370.595L653.954 400.592L652.287 402.258L650.01 401.648L609.031 390.668L606.754 390.058L608.421 388.391ZM627.365 372.336L633.342 366.36L650.748 361.697L658.912 363.885L627.365 372.336ZM635.699 364.004L647.529 360.834L640.699 359.004L635.699 364.004ZM625.008 374.693L662.131 364.747L670.295 366.935L619.031 380.669L625.008 374.693ZM625.301 392.914L633.464 395.101L665.011 386.65L670.987 380.674L625.301 392.914ZM644.847 398.152L636.684 395.964L662.654 389.007L656.677 394.982L644.847 398.152ZM648.068 399.014L651.677 399.982L654.32 397.339L648.068 399.014ZM622.081 392.051L673.345 378.317L679.321 372.342L613.918 389.864L622.081 392.051ZM624.763 354.734L616.599 352.547L559.759 367.775L553.782 373.751L624.763 354.734ZM558.172 366.475L551.505 373.141L549.838 374.807L552.115 375.417L593.094 386.397L595.371 387.008L597.038 385.341L627.039 355.344L628.706 353.678L626.429 353.068L617.323 350.628L605.94 347.577L594.556 344.527L585.45 342.087L583.173 341.477L581.506 343.144L574.839 349.81L566.506 358.142L558.172 366.475ZM576.426 351.11L570.449 357.086L601.996 348.634L593.832 346.446L576.426 351.11ZM590.613 345.584L578.783 348.753L583.783 343.754L590.613 345.584ZM605.215 349.496L568.092 359.442L562.115 365.418L613.379 351.684L605.215 349.496ZM576.548 379.851L568.385 377.664L614.071 365.424L608.095 371.399L576.548 379.851ZM579.768 380.714L587.931 382.901L599.761 379.731L605.738 373.756L579.768 380.714ZM594.761 384.731L591.152 383.764L597.404 382.089L594.761 384.731ZM616.429 363.067L565.165 376.801L557.002 374.613L622.405 357.091L616.429 363.067ZM294.5 560.836L288.523 566.811L359.504 547.795L351.34 545.607L294.5 560.836ZM292.913 559.535L286.246 566.201L284.58 567.868L286.856 568.478L327.836 579.458L330.112 580.068L331.779 578.402L361.781 548.405L363.447 546.738L361.171 546.128L352.064 543.688L340.681 540.638L329.298 537.588L320.191 535.148L317.914 534.538L316.248 536.204L309.581 542.87L301.247 551.203L292.913 559.535ZM311.167 544.171L305.19 550.146L336.737 541.695L328.573 539.507L311.167 544.171ZM325.354 538.644L313.524 541.814L318.524 536.814L325.354 538.644ZM339.957 542.557L302.833 552.503L296.857 558.479L348.121 544.745L339.957 542.557ZM311.289 572.911L303.127 570.724L348.813 558.484L342.836 564.46L311.289 572.911ZM314.51 573.774L322.673 575.962L334.503 572.792L340.479 566.817L314.51 573.774ZM329.503 577.792L325.893 576.824L332.146 575.149L329.503 577.792ZM351.17 556.127L299.906 569.861L291.743 567.674L357.147 550.152L351.17 556.127ZM237.584 545.585L231.607 551.561L302.588 532.544L294.424 530.357L237.584 545.585ZM235.997 544.285L229.33 550.951L227.664 552.617L229.94 553.227L270.92 564.208L273.196 564.818L274.863 563.151L304.865 533.154L306.531 531.488L304.255 530.878L295.148 528.438L283.765 525.388L272.382 522.337L263.275 519.897L260.998 519.287L259.332 520.954L252.665 527.62L244.331 535.952L235.997 544.285ZM254.251 528.92L248.274 534.896L279.821 526.444L271.657 524.256L254.251 528.92ZM268.438 523.394L256.608 526.563L261.608 521.564L268.438 523.394ZM283.041 527.307L245.917 537.252L239.941 543.228L291.205 529.494L283.041 527.307ZM254.373 557.661L246.211 555.474L291.897 543.234L285.92 549.209L254.373 557.661ZM257.594 558.524L265.757 560.711L277.587 557.542L283.563 551.566L257.594 558.524ZM272.587 562.541L268.977 561.574L275.23 559.898L272.587 562.541ZM294.254 540.877L242.99 554.611L234.827 552.424L300.231 534.901L294.254 540.877ZM245.672 517.294L174.691 536.31L180.668 530.334L237.508 515.106L245.672 517.294ZM172.414 535.7L179.081 529.034L187.415 520.702L195.749 512.369L202.416 505.703L204.082 504.037L206.359 504.647L215.466 507.087L226.849 510.137L238.232 513.187L247.339 515.627L249.615 516.237L247.949 517.904L217.947 547.9L216.28 549.567L214.004 548.957L173.024 537.977L170.748 537.366L172.414 535.7ZM191.358 519.645L197.335 513.669L214.741 509.006L222.906 511.193L191.358 519.645ZM199.692 511.313L211.522 508.143L204.692 506.313L199.692 511.313ZM189.001 522.002L226.125 512.056L234.289 514.244L183.025 527.978L189.001 522.002ZM189.295 540.223L197.457 542.41L229.004 533.959L234.981 527.983L189.295 540.223ZM208.841 545.46L200.678 543.273L226.647 536.315L220.671 542.291L208.841 545.46ZM212.061 546.323L215.671 547.29L218.314 544.648L212.061 546.323ZM186.074 539.36L237.338 525.626L243.315 519.651L177.911 537.173L186.074 539.36ZM336.168 519.173L330.192 525.149L401.172 506.133L393.008 503.945L336.168 519.173ZM334.582 517.873L327.915 524.539L326.248 526.205L328.525 526.815L369.504 537.796L371.781 538.406L373.448 536.739L403.449 506.743L405.116 505.076L402.839 504.466L393.733 502.026L382.349 498.976L370.966 495.926L361.86 493.486L359.583 492.876L357.916 494.542L351.249 501.208L342.916 509.541L334.582 517.873ZM352.836 502.508L346.859 508.484L378.406 500.032L370.242 497.845L352.836 502.508ZM367.023 496.982L355.193 500.152L360.193 495.152L367.023 496.982ZM381.625 500.895L344.502 510.841L338.525 516.817L389.789 503.082L381.625 500.895ZM352.958 531.249L344.795 529.062L390.481 516.822L384.505 522.798L352.958 531.249ZM356.178 532.112L364.341 534.299L376.171 531.13L382.148 525.154L356.178 532.112ZM371.171 536.129L367.561 535.162L373.814 533.487L371.171 536.129ZM392.839 514.465L341.575 528.199L333.412 526.012L398.815 508.489L392.839 514.465ZM336.092 488.694L344.256 490.882L273.276 509.898L279.252 503.923L336.092 488.694ZM270.999 509.288L277.666 502.622L286 494.29L294.333 485.957L301 479.292L302.667 477.625L304.944 478.235L314.05 480.675L325.433 483.725L336.817 486.775L345.923 489.215L348.2 489.826L346.533 491.492L316.532 521.489L314.865 523.155L312.588 522.545L271.609 511.565L269.332 510.955L270.999 509.288ZM289.943 493.233L295.92 487.258L313.326 482.594L321.49 484.782L289.943 493.233ZM298.277 484.901L310.107 481.732L303.277 479.902L298.277 484.901ZM287.586 495.59L324.709 485.644L332.873 487.832L281.609 501.566L287.586 495.59ZM287.879 513.811L296.042 515.999L327.589 507.547L333.565 501.571L287.879 513.811ZM307.425 519.049L299.262 516.861L325.232 509.904L319.255 515.879L307.425 519.049ZM310.645 519.912L314.255 520.879L316.898 518.236L310.645 519.912ZM284.659 512.948L335.923 499.215L341.899 493.239L276.496 510.761L284.659 512.948ZM222.336 488.672L216.36 494.648L287.34 475.631L279.176 473.444L222.336 488.672ZM220.75 487.372L214.083 494.038L212.416 495.704L214.693 496.314L255.672 507.295L257.949 507.905L259.616 506.238L289.617 476.241L291.284 474.575L289.007 473.965L279.901 471.525L268.517 468.475L257.134 465.425L248.028 462.984L245.751 462.374L244.084 464.041L237.417 470.707L229.084 479.039L220.75 487.372ZM239.004 472.007L233.027 477.983L264.574 469.531L256.41 467.344L239.004 472.007ZM253.191 466.481L241.361 469.65L246.361 464.651L253.191 466.481ZM267.793 470.394L230.67 480.34L224.693 486.315L275.957 472.581L267.793 470.394ZM239.126 500.748L230.963 498.561L276.649 486.321L270.673 492.296L239.126 500.748ZM242.346 501.611L250.509 503.798L262.339 500.629L268.316 494.653L242.346 501.611ZM257.339 505.628L253.729 504.661L259.982 502.986L257.339 505.628ZM279.007 483.964L227.743 497.698L219.58 495.511L284.983 477.988L279.007 483.964ZM434.677 462.283L442.841 464.47L371.86 483.487L377.837 477.511L434.677 462.283ZM369.583 482.877L376.25 476.211L384.584 467.878L392.918 459.546L399.585 452.88L401.252 451.213L403.528 451.823L412.635 454.263L424.018 457.314L435.401 460.364L444.508 462.804L446.784 463.414L445.118 465.08L415.116 495.077L413.45 496.744L411.173 496.134L370.193 485.153L367.917 484.543L369.583 482.877ZM388.528 466.822L394.504 460.846L411.911 456.183L420.075 458.37L388.528 466.822ZM396.861 458.489L408.691 455.32L401.861 453.49L396.861 458.489ZM386.171 469.178L423.294 459.233L431.458 461.42L380.194 475.154L386.171 469.178ZM386.464 487.4L394.627 489.587L426.174 481.135L432.15 475.16L386.464 487.4ZM406.01 492.637L397.847 490.45L423.816 483.492L417.84 489.468L406.01 492.637ZM409.23 493.5L412.84 494.467L415.482 491.825L409.23 493.5ZM383.243 486.537L434.507 472.803L440.483 466.828L375.08 484.35L383.243 486.537ZM320.921 462.26L314.944 468.236L385.925 449.22L377.761 447.032L320.921 462.26ZM319.334 460.96L312.667 467.626L311.001 469.293L313.277 469.903L354.257 480.883L356.534 481.493L358.2 479.827L388.202 449.83L389.868 448.163L387.592 447.553L378.485 445.113L367.102 442.063L355.719 439.013L346.612 436.573L344.336 435.963L342.669 437.629L336.002 444.295L327.668 452.628L319.334 460.96ZM337.588 445.595L331.612 451.571L363.159 443.119L354.995 440.932L337.588 445.595ZM351.775 440.069L339.945 443.239L344.945 438.239L351.775 440.069ZM366.378 443.982L329.255 453.928L323.278 459.904L374.542 446.17L366.378 443.982ZM337.711 474.336L329.548 472.149L375.234 459.909L369.258 465.885L337.711 474.336ZM340.931 475.199L349.094 477.386L360.924 474.217L366.9 468.242L340.931 475.199ZM355.924 479.217L352.314 478.249L358.566 476.574L355.924 479.217ZM377.591 457.552L326.327 471.286L318.164 469.099L383.567 451.577L377.591 457.552ZM320.845 431.782L329.009 433.969L258.028 452.986L264.005 447.009L320.845 431.782ZM255.751 452.375L262.418 445.71L270.752 437.377L279.086 429.045L285.753 422.379L287.42 420.712L289.696 421.322L298.803 423.762L310.186 426.812L321.569 429.863L330.676 432.303L332.952 432.913L331.286 434.579L301.284 464.576L299.618 466.242L297.341 465.632L256.361 454.652L254.085 454.042L255.751 452.375ZM274.696 436.321L280.672 430.345L298.079 425.681L306.243 427.869L274.696 436.321ZM283.029 427.988L294.859 424.819L288.029 422.989L283.029 427.988ZM272.339 438.677L309.462 428.731L317.626 430.919L266.362 444.653L272.339 438.677ZM272.632 456.899L280.795 459.086L312.342 450.634L318.318 444.659L272.632 456.899ZM292.178 462.136L284.015 459.949L309.984 452.991L304.008 458.966L292.178 462.136ZM295.398 462.999L299.008 463.966L301.65 461.324L295.398 462.999ZM269.411 456.036L320.675 442.302L326.651 436.326L261.248 453.848L269.411 456.036ZM413.529 441.824L419.506 435.848L476.345 420.621L484.51 422.808L413.529 441.824ZM411.252 441.214L417.919 434.548L426.253 426.216L434.586 417.884L441.253 411.218L442.92 409.551L445.197 410.161L454.303 412.601L465.687 415.651L477.07 418.701L486.176 421.142L488.453 421.752L486.786 423.418L456.785 453.415L455.118 455.081L452.841 454.471L411.862 443.491L409.585 442.881L411.252 441.214ZM430.196 425.16L436.173 419.184L453.579 414.52L461.743 416.708L430.196 425.16ZM438.53 416.827L450.36 413.658L443.53 411.828L438.53 416.827ZM427.839 427.516L464.962 417.57L473.126 419.758L421.862 433.492L427.839 427.516ZM428.132 445.737L436.295 447.925L467.842 439.473L473.818 433.498L428.132 445.737ZM447.678 450.975L439.515 448.788L465.485 441.83L459.508 447.805L447.678 450.975ZM450.899 451.838L454.508 452.805L457.151 450.163L450.899 451.838ZM424.912 444.875L476.176 431.141L482.152 425.165L416.749 442.687L424.912 444.875ZM356.613 426.574L362.59 420.598L419.43 405.37L427.594 407.557L356.613 426.574ZM354.336 425.964L361.003 419.298L369.337 410.965L377.67 402.633L384.337 395.967L386.004 394.301L388.281 394.911L397.387 397.351L408.771 400.401L420.154 403.451L429.26 405.891L431.537 406.501L429.87 408.167L399.869 438.164L398.202 439.831L395.925 439.221L354.946 428.24L352.669 427.63L354.336 425.964ZM373.28 409.909L379.257 403.933L396.663 399.27L404.827 401.457L373.28 409.909ZM381.614 401.577L393.444 398.407L386.614 396.577L381.614 401.577ZM370.923 412.265L408.046 402.32L416.21 404.507L364.946 418.241L370.923 412.265ZM371.216 430.487L379.379 432.674L410.926 424.222L416.902 418.247L371.216 430.487ZM390.762 435.724L382.599 433.537L408.569 426.58L402.592 432.555L390.762 435.724ZM393.983 436.587L397.592 437.554L400.235 434.912L393.983 436.587ZM367.996 429.624L419.26 415.89L425.236 409.915L359.833 427.437L367.996 429.624ZM370.678 392.307L362.514 390.119L305.674 405.347L299.697 411.323L370.678 392.307ZM304.087 404.047L297.42 410.713L295.753 412.38L298.03 412.99L339.009 423.97L341.286 424.58L342.953 422.914L372.954 392.917L374.621 391.25L372.344 390.64L363.238 388.2L351.855 385.15L340.471 382.1L331.365 379.66L329.088 379.05L327.421 380.716L320.754 387.382L312.421 395.715L304.087 404.047ZM322.341 388.682L316.364 394.658L347.911 386.207L339.747 384.019L322.341 388.682ZM336.528 383.156L324.698 386.326L329.698 381.326L336.528 383.156ZM351.13 387.069L314.007 397.015L308.03 402.991L359.294 389.257L351.13 387.069ZM322.463 417.423L314.3 415.236L359.986 402.997L354.01 408.972L322.463 417.423ZM325.683 418.286L333.846 420.474L345.676 417.304L351.653 411.329L325.683 418.286ZM340.676 422.304L337.067 421.336L343.319 419.661L340.676 422.304ZM362.344 400.639L311.08 414.373L302.917 412.186L368.32 394.664L362.344 400.639ZM455.197 400.162L461.174 394.186L518.014 378.958L526.178 381.146L455.197 400.162ZM452.921 399.552L459.588 392.886L467.921 384.554L476.255 376.221L482.922 369.555L484.589 367.889L486.865 368.499L495.972 370.939L507.355 373.989L518.738 377.039L527.845 379.479L530.121 380.089L528.455 381.756L498.453 411.753L496.787 413.419L494.51 412.809L453.53 401.829L451.254 401.219L452.921 399.552ZM471.865 383.497L477.842 377.521L495.248 372.858L503.412 375.046L471.865 383.497ZM480.198 375.165L492.028 371.995L485.199 370.165L480.198 375.165ZM469.508 385.854L506.631 375.908L514.795 378.096L463.531 391.83L469.508 385.854ZM469.801 404.075L477.964 406.262L509.511 397.811L515.487 391.836L469.801 404.075ZM489.347 409.313L481.184 407.125L507.153 400.168L501.177 406.143L489.347 409.313ZM492.567 410.175L496.177 411.143L498.819 408.5L492.567 410.175ZM466.58 403.212L517.844 389.478L523.82 383.503L458.418 401.025L466.58 403.212ZM469.262 365.895L461.098 363.708L404.258 378.936L398.281 384.912L469.262 365.895ZM402.672 377.636L396.005 384.302L394.338 385.968L396.614 386.578L437.594 397.559L439.871 398.169L441.537 396.502L471.539 366.505L473.205 364.839L470.929 364.229L461.822 361.789L450.439 358.738L439.056 355.688L429.949 353.248L427.673 352.638L426.006 354.305L419.339 360.971L411.005 369.303L402.672 377.636ZM420.926 362.271L414.949 368.247L446.496 359.795L438.332 357.607L420.926 362.271ZM435.112 356.745L423.282 359.914L428.283 354.915L435.112 356.745ZM449.715 360.658L412.592 370.603L406.615 376.579L457.879 362.845L449.715 360.658ZM421.048 391.012L412.885 388.825L458.571 376.585L452.595 382.56L421.048 391.012ZM424.268 391.875L432.431 394.062L444.261 390.893L450.237 384.917L424.268 391.875ZM439.261 395.892L435.651 394.925L441.903 393.25L439.261 395.892ZM460.928 374.228L409.664 387.962L401.502 385.774L466.904 368.252L460.928 374.228ZM341.365 369.661L347.342 363.685L404.182 348.457L412.346 350.645L341.365 369.661ZM339.089 369.051L345.756 362.385L354.089 354.053L362.423 345.72L369.09 339.054L370.757 337.388L373.033 337.998L382.14 340.438L393.523 343.488L404.906 346.538L414.013 348.978L416.289 349.588L414.623 351.255L384.621 381.251L382.955 382.918L380.678 382.308L339.698 371.327L337.422 370.717L339.089 369.051ZM358.033 352.996L364.01 347.02L381.416 342.357L389.58 344.544L358.033 352.996ZM366.366 344.664L378.196 341.494L371.367 339.664L366.366 344.664ZM355.676 355.353L392.799 345.407L400.963 347.594L349.699 361.329L355.676 355.353ZM355.969 373.574L364.132 375.761L395.679 367.31L401.655 361.334L355.969 373.574ZM375.515 378.811L367.352 376.624L393.321 369.667L387.345 375.642L375.515 378.811ZM378.735 379.674L382.345 380.641L384.987 377.999L378.735 379.674ZM352.748 372.711L404.012 358.977L409.988 353.002L344.586 370.524L352.748 372.711ZM567.847 339.484L559.683 337.296L502.843 352.524L496.866 358.5L567.847 339.484ZM501.256 351.224L494.589 357.89L492.922 359.556L495.199 360.166L536.179 371.147L538.455 371.757L540.122 370.09L570.123 340.094L571.79 338.427L569.513 337.817L560.407 335.377L549.024 332.327L537.64 329.277L528.534 326.837L526.257 326.227L524.59 327.893L517.923 334.559L509.59 342.892L501.256 351.224ZM519.51 335.859L513.533 341.835L545.08 333.383L536.916 331.196L519.51 335.859ZM533.697 330.333L521.867 333.503L526.867 328.503L533.697 330.333ZM548.299 334.246L511.176 344.191L505.199 350.167L556.463 336.433L548.299 334.246ZM519.632 364.6L511.469 362.413L557.155 350.173L551.179 356.148L519.632 364.6ZM522.852 365.463L531.015 367.65L542.845 364.481L548.822 358.506L522.852 365.463ZM537.845 369.48L534.236 368.513L540.488 366.838L537.845 369.48ZM559.513 347.816L508.249 361.55L500.086 359.363L565.489 341.841L559.513 347.816ZM439.95 343.249L445.927 337.273L502.767 322.045L510.931 324.233L439.95 343.249ZM437.673 342.639L444.34 335.973L452.674 327.641L461.007 319.308L467.674 312.642L469.341 310.976L471.618 311.586L480.724 314.026L492.108 317.076L503.491 320.126L512.597 322.566L514.874 323.176L513.207 324.843L483.206 354.84L481.539 356.506L479.263 355.896L438.283 344.916L436.006 344.306L437.673 342.639ZM456.617 326.584L462.594 320.608L480 315.945L488.164 318.133L456.617 326.584ZM464.951 318.252L476.781 315.083L469.951 313.253L464.951 318.252ZM454.26 328.941L491.383 318.995L499.547 321.183L448.283 334.917L454.26 328.941ZM454.553 347.162L462.716 349.35L494.263 340.898L500.239 334.923L454.553 347.162ZM474.099 352.4L465.936 350.212L491.906 343.255L485.929 349.23L474.099 352.4ZM477.32 353.263L480.929 354.23L483.572 351.588L477.32 353.263ZM451.333 346.299L502.597 332.565L508.573 326.59L443.17 344.112L451.333 346.299ZM454.015 308.982L445.851 306.795L389.011 322.023L383.034 327.999L454.015 308.982ZM387.424 320.723L380.757 327.389L379.09 329.055L381.367 329.665L422.347 340.646L424.623 341.256L426.29 339.589L456.291 309.592L457.958 307.926L455.681 307.316L446.575 304.876L435.192 301.826L423.808 298.776L414.702 296.335L412.425 295.725L410.758 297.392L404.091 304.058L395.758 312.39L387.424 320.723ZM405.678 305.358L399.701 311.334L431.248 302.882L423.084 300.695L405.678 305.358ZM419.865 299.832L408.035 303.001L413.035 298.002L419.865 299.832ZM434.467 303.745L397.344 313.69L391.367 319.666L442.631 305.932L434.467 303.745ZM405.8 334.099L397.637 331.912L443.323 319.672L437.347 325.647L405.8 334.099ZM409.02 334.962L417.183 337.149L429.014 333.98L434.99 328.005L409.02 334.962ZM424.013 338.979L420.404 338.012L426.656 336.337L424.013 338.979ZM445.681 317.315L394.417 331.049L386.254 328.862L451.657 311.34L445.681 317.315ZM123.752 515.084L117.775 521.059L188.756 502.043L180.592 499.855L123.752 515.084ZM122.165 513.783L115.498 520.449L113.832 522.116L116.108 522.726L157.088 533.706L159.364 534.316L161.031 532.65L191.033 502.653L192.699 500.987L190.423 500.377L181.316 497.936L169.933 494.886L158.55 491.836L149.443 489.396L147.166 488.786L145.5 490.453L138.833 497.119L130.499 505.451L122.165 513.783ZM140.419 498.419L134.442 504.395L165.99 495.943L157.826 493.755L140.419 498.419ZM154.606 492.893L142.776 496.062L147.776 491.063L154.606 492.893ZM169.209 496.805L132.085 506.751L126.109 512.727L177.373 498.993L169.209 496.805ZM140.541 527.16L132.379 524.972L178.065 512.732L172.088 518.708L140.541 527.16ZM143.762 528.023L151.925 530.21L163.755 527.041L169.731 521.065L143.762 528.023ZM158.755 532.04L155.145 531.073L161.398 529.397L158.755 532.04ZM180.422 510.376L129.158 524.11L120.995 521.922L186.399 504.4L180.422 510.376ZM66.8356 499.833L60.859 505.809L131.84 486.792L123.676 484.605L66.8356 499.833ZM65.2494 498.533L58.5824 505.199L56.9157 506.865L59.1923 507.475L100.172 518.456L102.448 519.066L104.115 517.399L134.117 487.402L135.783 485.736L133.507 485.126L124.4 482.686L113.017 479.636L101.634 476.586L92.5271 474.146L90.2505 473.535L88.5838 475.202L81.9168 481.868L73.5831 490.2L65.2494 498.533ZM83.5031 483.168L77.5265 489.144L109.074 480.692L100.91 478.505L83.5031 483.168ZM97.6903 477.642L85.8602 480.811L90.8604 475.812L97.6903 477.642ZM112.293 481.555L75.1693 491.501L69.1927 497.476L120.457 483.742L112.293 481.555ZM83.6254 511.909L75.4625 509.722L121.149 497.482L115.172 503.457L83.6254 511.909ZM86.8457 512.772L95.0087 514.959L106.839 511.79L112.815 505.814L86.8457 512.772ZM101.839 516.789L98.2289 515.822L104.482 514.147L101.839 516.789ZM123.506 495.125L72.2423 508.859L64.0794 506.672L129.483 489.149L123.506 495.125ZM74.9237 471.542L3.94304 490.558L9.91962 484.583L66.7599 469.354L74.9237 471.542ZM1.66642 489.948L8.33339 483.282L16.6671 474.95L25.0008 466.617L31.6678 459.951L33.3345 458.285L35.6111 458.895L44.7177 461.335L56.1009 464.385L67.4841 467.435L76.5906 469.875L78.8673 470.485L77.2006 472.152L47.1992 502.149L45.5325 503.815L43.2558 503.205L2.2763 492.225L-0.000320443 491.615L1.66642 489.948ZM20.6105 473.893L26.5871 467.918L43.9935 463.254L52.1576 465.442L20.6105 473.893ZM28.9442 465.561L40.7743 462.391L33.9444 460.561L28.9442 465.561ZM18.2534 476.25L55.3767 466.304L63.5407 468.492L12.2768 482.226L18.2534 476.25ZM18.5465 494.471L26.7095 496.658L58.2563 488.207L64.2329 482.231L18.5465 494.471ZM38.0927 499.709L29.9297 497.521L55.8992 490.564L49.9227 496.539L38.0927 499.709ZM41.313 500.571L44.9226 501.539L47.5655 498.896L41.313 500.571ZM15.3263 493.608L66.59 479.874L72.5666 473.899L7.16337 491.421L15.3263 493.608ZM165.42 473.421L159.444 479.397L230.424 460.381L222.26 458.193L165.42 473.421ZM163.834 472.121L157.167 478.787L155.5 480.454L157.777 481.064L198.756 492.044L201.033 492.654L202.7 490.988L232.701 460.991L234.368 459.324L232.091 458.714L222.985 456.274L211.601 453.224L200.218 450.174L191.112 447.734L188.835 447.124L187.168 448.79L180.501 455.456L172.168 463.789L163.834 472.121ZM182.088 456.757L176.111 462.732L207.658 454.281L199.494 452.093L182.088 456.757ZM196.275 451.23L184.445 454.4L189.445 449.4L196.275 451.23ZM210.877 455.143L173.754 465.089L167.777 471.065L219.041 457.331L210.877 455.143ZM182.21 485.497L174.047 483.31L219.733 471.07L213.757 477.046L182.21 485.497ZM185.43 486.36L193.593 488.548L205.423 485.378L211.4 479.403L185.43 486.36ZM200.423 490.378L196.814 489.41L203.066 487.735L200.423 490.378ZM222.091 468.713L170.827 482.447L162.664 480.26L228.067 462.738L222.091 468.713ZM165.344 442.943L173.508 445.13L102.528 464.147L108.504 458.171L165.344 442.943ZM100.251 463.537L106.918 456.871L115.252 448.538L123.585 440.206L130.252 433.54L131.919 431.873L134.196 432.483L143.302 434.923L154.685 437.973L166.069 441.024L175.175 443.464L177.452 444.074L175.785 445.74L145.784 475.737L144.117 477.404L141.84 476.793L100.861 465.813L98.5842 465.203L100.251 463.537ZM119.195 447.482L125.172 441.506L142.578 436.842L150.742 439.03L119.195 447.482ZM127.529 439.149L139.359 435.98L132.529 434.15L127.529 439.149ZM116.838 449.838L153.961 439.893L162.125 442.08L110.861 455.814L116.838 449.838ZM117.131 468.06L125.294 470.247L156.841 461.795L162.817 455.82L117.131 468.06ZM136.677 473.297L128.514 471.11L154.484 464.152L148.507 470.128L136.677 473.297ZM139.897 474.16L143.507 475.127L146.15 472.484L139.897 474.16ZM113.911 467.197L165.175 453.463L171.151 447.487L105.748 465.009L113.911 467.197ZM51.5882 442.92L45.6116 448.896L116.592 429.88L108.428 427.692L51.5882 442.92ZM50.0019 441.62L43.335 448.286L41.6682 449.952L43.9448 450.562L84.9244 461.543L87.201 462.153L88.8678 460.486L118.869 430.49L120.536 428.823L118.259 428.213L109.153 425.773L97.7695 422.723L86.3862 419.673L77.2797 417.233L75.0031 416.623L73.3363 418.289L66.6693 424.955L58.3356 433.288L50.0019 441.62ZM68.2556 426.255L62.279 432.231L93.8261 423.779L85.6621 421.592L68.2556 426.255ZM82.4429 420.729L70.6127 423.899L75.6129 418.899L82.4429 420.729ZM97.0452 424.642L59.9219 434.588L53.9453 440.564L105.209 426.829L97.0452 424.642ZM68.378 454.996L60.2151 452.809L105.901 440.569L99.9249 446.545L68.378 454.996ZM71.5983 455.859L79.7612 458.046L91.5912 454.877L97.5678 448.901L71.5983 455.859ZM86.5911 459.876L82.9815 458.909L89.234 457.234L86.5911 459.876ZM108.259 438.212L56.9948 451.946L48.8319 449.759L114.235 432.236L108.259 438.212ZM263.929 416.531L272.093 418.719L201.112 437.735L207.089 431.759L263.929 416.531ZM198.835 437.125L205.502 430.459L213.836 422.126L222.17 413.794L228.837 407.128L230.504 405.462L232.78 406.072L241.887 408.512L253.27 411.562L264.653 414.612L273.76 417.052L276.036 417.662L274.37 419.329L244.368 449.325L242.702 450.992L240.425 450.382L199.445 439.401L197.169 438.791L198.835 437.125ZM217.78 421.07L223.756 415.094L241.163 410.431L249.327 412.618L217.78 421.07ZM226.113 412.738L237.943 409.568L231.113 407.738L226.113 412.738ZM215.423 423.426L252.546 413.481L260.71 415.668L209.446 429.402L215.423 423.426ZM215.716 441.648L223.879 443.835L255.426 435.383L261.402 429.408L215.716 441.648ZM235.262 446.885L227.099 444.698L253.068 437.741L247.092 443.716L235.262 446.885ZM238.482 447.748L242.092 448.715L244.734 446.073L238.482 447.748ZM212.495 440.785L263.759 427.051L269.735 421.076L204.332 438.598L212.495 440.785ZM150.173 416.508L144.196 422.484L215.177 403.468L207.013 401.28L150.173 416.508ZM148.586 415.208L141.919 421.874L140.253 423.541L142.529 424.151L183.509 435.131L185.786 435.741L187.452 434.075L217.454 404.078L219.12 402.411L216.844 401.801L207.737 399.361L196.354 396.311L184.971 393.261L175.864 390.821L173.588 390.211L171.921 391.877L165.254 398.543L156.92 406.876L148.586 415.208ZM166.84 399.843L160.864 405.819L192.411 397.368L184.247 395.18L166.84 399.843ZM181.027 394.318L169.197 397.487L174.197 392.487L181.027 394.318ZM195.63 398.23L158.507 408.176L152.53 414.152L203.794 400.418L195.63 398.23ZM166.963 428.585L158.8 426.397L204.486 414.158L198.51 420.133L166.963 428.585ZM170.183 429.447L178.346 431.635L190.176 428.465L196.152 422.49L170.183 429.447ZM185.176 433.465L181.566 432.498L187.818 430.823L185.176 433.465ZM206.843 411.8L155.579 425.534L147.416 423.347L212.819 405.825L206.843 411.8ZM150.097 386.03L158.261 388.217L87.2801 407.234L93.2571 401.258L150.097 386.03ZM85.0035 406.624L91.6705 399.958L100.004 391.625L108.338 383.293L115.005 376.627L116.672 374.96L118.948 375.57L128.055 378.01L139.438 381.061L150.821 384.111L159.928 386.551L162.204 387.161L160.538 388.827L130.536 418.824L128.87 420.491L126.593 419.881L85.6134 408.9L83.3368 408.29L85.0035 406.624ZM103.948 390.569L109.924 384.593L127.331 379.93L135.495 382.117L103.948 390.569ZM112.281 382.236L124.111 379.067L117.281 377.237L112.281 382.236ZM101.591 392.925L138.714 382.98L146.878 385.167L95.6138 398.901L101.591 392.925ZM101.884 411.147L110.047 413.334L141.594 404.882L147.57 398.907L101.884 411.147ZM121.43 416.384L113.267 414.197L139.236 407.239L133.26 413.215L121.43 416.384ZM124.65 417.247L128.26 418.214L130.902 415.572L124.65 417.247ZM98.6634 410.284L149.927 396.55L155.903 390.575L90.5005 408.097L98.6634 410.284ZM242.781 396.073L248.758 390.097L305.598 374.869L313.762 377.056L242.781 396.073ZM240.504 395.463L247.171 388.797L255.505 380.464L263.838 372.132L270.505 365.466L272.172 363.799L274.449 364.409L283.555 366.849L294.939 369.9L306.322 372.95L315.428 375.39L317.705 376L316.038 377.666L286.037 407.663L284.37 409.33L282.093 408.72L241.114 397.739L238.837 397.129L240.504 395.463ZM259.448 379.408L265.425 373.432L282.831 368.768L290.995 370.956L259.448 379.408ZM267.782 371.075L279.612 367.906L272.782 366.076L267.782 371.075ZM257.091 381.764L294.214 371.819L302.378 374.006L251.114 387.74L257.091 381.764ZM257.384 399.986L265.547 402.173L297.094 393.721L303.07 387.746L257.384 399.986ZM276.93 405.223L268.767 403.036L294.736 396.078L288.76 402.054L276.93 405.223ZM280.151 406.086L283.76 407.053L286.403 404.411L280.151 406.086ZM254.164 399.123L305.428 385.389L311.404 379.414L246.001 396.936L254.164 399.123ZM185.865 380.822L191.842 374.846L248.681 359.618L256.846 361.806L185.865 380.822ZM183.588 380.212L190.255 373.546L198.589 365.214L206.922 356.881L213.589 350.215L215.256 348.549L217.533 349.159L226.639 351.599L238.023 354.649L249.406 357.699L258.512 360.139L260.789 360.749L259.122 362.416L229.121 392.413L227.454 394.079L225.177 393.469L184.198 382.489L181.921 381.879L183.588 380.212ZM202.532 364.157L208.509 358.181L225.915 353.518L234.079 355.705L202.532 364.157ZM210.866 355.825L222.696 352.655L215.866 350.825L210.866 355.825ZM200.175 366.514L237.298 356.568L245.462 358.756L194.198 372.49L200.175 366.514ZM200.468 384.735L208.631 386.922L240.178 378.471L246.154 372.495L200.468 384.735ZM220.014 389.972L211.851 387.785L237.821 380.828L231.844 386.803L220.014 389.972ZM223.235 390.835L226.844 391.802L229.487 389.16L223.235 390.835ZM197.248 383.872L248.512 370.138L254.488 364.163L189.085 381.685L197.248 383.872ZM199.93 346.555L191.766 344.368L134.926 359.595L128.949 365.571L199.93 346.555ZM133.339 358.295L126.672 364.961L125.005 366.628L127.282 367.238L168.261 378.218L170.538 378.828L172.205 377.162L202.206 347.165L203.873 345.499L201.596 344.889L192.49 342.448L181.107 339.398L169.723 336.348L160.617 333.908L158.34 333.298L156.673 334.965L150.006 341.631L141.673 349.963L133.339 358.295ZM151.593 342.931L145.616 348.907L177.163 340.455L168.999 338.267L151.593 342.931ZM165.78 337.405L153.95 340.574L158.95 335.575L165.78 337.405ZM180.382 341.317L143.259 351.263L137.282 357.239L188.546 343.505L180.382 341.317ZM151.715 371.672L143.552 369.484L189.238 357.245L183.262 363.22L151.715 371.672ZM154.935 372.535L163.098 374.722L174.928 371.552L180.905 365.577L154.935 372.535ZM169.928 376.552L166.319 375.585L172.571 373.91L169.928 376.552ZM191.596 354.888L140.332 368.622L132.169 366.434L197.572 348.912L191.596 354.888ZM284.449 354.41L290.426 348.434L347.266 333.206L355.43 335.394L284.449 354.41ZM282.173 353.8L288.84 347.134L297.173 338.802L305.507 330.47L312.174 323.804L313.841 322.137L316.117 322.747L325.224 325.187L336.607 328.237L347.99 331.287L357.097 333.728L359.373 334.338L357.707 336.004L327.705 366.001L326.039 367.667L323.762 367.057L282.782 356.077L280.506 355.467L282.173 353.8ZM301.117 337.746L307.094 331.769L324.5 327.106L332.664 329.294L301.117 337.746ZM309.45 329.413L321.28 326.244L314.451 324.414L309.45 329.413ZM298.76 340.102L335.883 330.156L344.047 332.344L292.783 346.078L298.76 340.102ZM299.053 358.323L307.216 360.511L338.763 352.059L344.739 346.084L299.053 358.323ZM318.599 363.561L310.436 361.374L336.405 354.416L330.429 360.391L318.599 363.561ZM321.819 364.424L325.429 365.391L328.071 362.749L321.819 364.424ZM295.832 357.461L347.096 343.726L353.072 337.751L287.67 355.273L295.832 357.461ZM298.514 320.143L290.35 317.956L233.51 333.184L227.533 339.16L298.514 320.143ZM231.924 331.884L225.257 338.55L223.59 340.216L225.866 340.826L266.846 351.807L269.123 352.417L270.789 350.75L300.791 320.753L302.458 319.087L300.181 318.477L291.074 316.037L279.691 312.987L268.308 309.937L259.201 307.496L256.925 306.886L255.258 308.553L248.591 315.219L240.257 323.551L231.924 331.884ZM250.178 316.519L244.201 322.495L275.748 314.043L267.584 311.856L250.178 316.519ZM264.364 310.993L252.534 314.162L257.535 309.163L264.364 310.993ZM278.967 314.906L241.844 324.851L235.867 330.827L287.131 317.093L278.967 314.906ZM250.3 345.26L242.137 343.073L287.823 330.833L281.847 336.808L250.3 345.26ZM253.52 346.123L261.683 348.31L273.513 345.141L279.489 339.166L253.52 346.123ZM268.513 350.14L264.903 349.173L271.155 347.498L268.513 350.14ZM290.18 328.476L238.916 342.21L230.754 340.023L296.156 322.501L290.18 328.476ZM170.617 323.909L176.594 317.933L233.434 302.705L241.598 304.893L170.617 323.909ZM168.341 323.299L175.008 316.633L183.341 308.301L191.675 299.968L198.342 293.302L200.009 291.636L202.285 292.246L211.392 294.686L222.775 297.736L234.158 300.786L243.265 303.226L245.542 303.836L243.875 305.503L213.873 335.5L212.207 337.166L209.93 336.556L168.95 325.576L166.674 324.966L168.341 323.299ZM187.285 307.244L193.262 301.268L210.668 296.605L218.832 298.793L187.285 307.244ZM195.618 298.912L207.448 295.742L200.619 293.912L195.618 298.912ZM184.928 309.601L222.051 299.655L230.215 301.843L178.951 315.577L184.928 309.601ZM185.221 327.822L193.384 330.009L224.931 321.558L230.907 315.582L185.221 327.822ZM204.767 333.06L196.604 330.872L222.573 323.915L216.597 329.89L204.767 333.06ZM207.987 333.922L211.597 334.89L214.239 332.247L207.987 333.922ZM182 326.959L233.264 313.225L239.24 307.25L173.838 324.772L182 326.959ZM397.099 293.732L388.935 291.544L332.095 306.772L326.118 312.748L397.099 293.732ZM330.508 305.472L323.841 312.138L322.174 313.805L324.451 314.415L365.431 325.395L367.707 326.005L369.374 324.339L399.375 294.342L401.042 292.675L398.765 292.065L389.659 289.625L378.276 286.575L366.892 283.525L357.786 281.085L355.509 280.475L353.842 282.141L347.176 288.807L338.842 297.14L330.508 305.472ZM348.762 290.107L342.785 296.083L374.332 287.632L366.168 285.444L348.762 290.107ZM362.949 284.581L351.119 287.751L356.119 282.751L362.949 284.581ZM377.551 288.494L340.428 298.44L334.451 304.416L385.715 290.682L377.551 288.494ZM348.884 318.848L340.721 316.661L386.407 304.421L380.431 310.397L348.884 318.848ZM352.104 319.711L360.267 321.899L372.097 318.729L378.074 312.754L352.104 319.711ZM367.097 323.729L363.488 322.761L369.74 321.086L367.097 323.729ZM388.765 302.064L337.501 315.798L329.338 313.611L394.741 296.089L388.765 302.064ZM269.202 297.498L275.179 291.522L332.019 276.294L340.183 278.481L269.202 297.498ZM266.925 296.888L273.592 290.222L281.926 281.889L290.26 273.557L296.926 266.891L298.593 265.224L300.87 265.834L309.976 268.274L321.36 271.324L332.743 274.375L341.849 276.815L344.126 277.425L342.459 279.091L312.458 309.088L310.791 310.755L308.515 310.144L267.535 299.164L265.258 298.554L266.925 296.888ZM285.869 280.833L291.846 274.857L309.252 270.193L317.416 272.381L285.869 280.833ZM294.203 272.5L306.033 269.331L299.203 267.501L294.203 272.5ZM283.512 283.189L320.635 273.243L328.799 275.431L277.535 289.165L283.512 283.189ZM283.805 301.411L291.968 303.598L323.515 295.146L329.491 289.171L283.805 301.411ZM303.351 306.648L295.188 304.461L321.158 297.503L315.181 303.478L303.351 306.648ZM306.572 307.511L310.181 308.478L312.824 305.836L306.572 307.511ZM280.585 300.548L331.849 286.814L337.825 280.838L272.422 298.36L280.585 300.548ZM283.267 263.231L275.103 261.043L218.263 276.271L212.286 282.247L283.267 263.231ZM216.676 274.971L210.009 281.637L208.342 283.303L210.619 283.913L251.599 294.894L253.875 295.504L255.542 293.837L285.543 263.841L287.21 262.174L284.933 261.564L275.827 259.124L264.444 256.074L253.06 253.024L243.954 250.584L241.677 249.974L240.01 251.64L233.344 258.306L225.01 266.639L216.676 274.971ZM234.93 259.606L228.953 265.582L260.5 257.13L252.336 254.943L234.93 259.606ZM249.117 254.08L237.287 257.25L242.287 252.25L249.117 254.08ZM263.719 257.993L226.596 267.938L220.619 273.914L271.883 260.18L263.719 257.993ZM235.052 288.347L226.889 286.16L272.575 273.92L266.599 279.895L235.052 288.347ZM238.272 289.21L246.435 291.397L258.266 288.228L264.242 282.253L238.272 289.21ZM253.265 293.227L249.656 292.26L255.908 290.585L253.265 293.227ZM274.933 271.563L223.669 285.297L215.506 283.11L280.909 265.588L274.933 271.563ZM755.025 533.328L755.025 533.328L826.005 514.312L817.842 512.124L761.002 527.352L755.025 533.328ZM759.415 526.052L752.748 532.718L751.081 534.385L753.358 534.995L794.337 545.975L796.614 546.585L798.281 544.919L828.282 514.922L829.949 513.255L827.672 512.645L818.566 510.205L807.182 507.155L795.799 504.105L786.693 501.665L784.416 501.055L782.749 502.721L776.082 509.387L767.749 517.72L759.415 526.052ZM777.669 510.687L771.692 516.663L803.239 508.211L795.076 506.024L777.669 510.687ZM791.856 505.161L780.026 508.331L785.026 503.331L791.856 505.161ZM806.459 509.074L769.335 519.02L763.358 524.996L814.622 511.262L806.459 509.074ZM777.791 539.428L769.628 537.241L815.314 525.001L809.338 530.977L777.791 539.428ZM781.011 540.291L789.174 542.478L801.004 539.309L806.98 533.334L781.011 540.291ZM796.004 544.308L792.394 543.341L798.647 541.666L796.004 544.308ZM817.672 522.644L766.408 536.378L758.244 534.191L823.648 516.669L817.672 522.644ZM698.109 518.077L698.109 518.078L769.089 499.061L760.926 496.874L704.086 512.101L698.109 518.077ZM702.499 510.801L695.832 517.467L694.165 519.134L696.442 519.744L737.421 530.724L739.698 531.334L741.365 529.668L771.366 499.671L773.033 498.005L770.756 497.395L761.65 494.954L750.266 491.904L738.883 488.854L729.777 486.414L727.5 485.804L725.833 487.471L719.166 494.137L710.833 502.469L702.499 510.801ZM720.753 495.437L714.776 501.413L746.323 492.961L738.16 490.773L720.753 495.437ZM734.94 489.911L723.11 493.08L728.11 488.081L734.94 489.911ZM749.543 493.824L712.419 503.769L706.442 509.745L757.706 496.011L749.543 493.824ZM720.875 524.178L712.712 521.99L758.398 509.751L752.422 515.726L720.875 524.178ZM724.095 525.04L732.258 527.228L744.088 524.058L750.064 518.083L724.095 525.04ZM739.088 529.058L735.478 528.091L741.731 526.416L739.088 529.058ZM760.756 507.394L709.492 521.128L701.328 518.94L766.732 501.418L760.756 507.394ZM641.193 502.827L647.17 496.851L704.009 481.623L712.173 483.81L641.193 502.827ZM638.916 502.217L645.583 495.551L653.917 487.218L662.25 478.886L668.917 472.22L670.584 470.554L672.861 471.164L681.967 473.604L693.35 476.654L704.734 479.704L713.84 482.144L716.117 482.754L714.45 484.42L684.449 514.417L682.782 516.084L680.505 515.474L639.526 504.493L637.249 503.883L638.916 502.217ZM657.86 486.162L663.837 480.186L681.243 475.523L689.407 477.71L657.86 486.162ZM666.194 477.83L678.024 474.66L671.194 472.83L666.194 477.83ZM655.503 488.518L692.626 478.573L700.79 480.76L649.526 494.494L655.503 488.518ZM655.796 506.74L663.959 508.927L695.506 500.475L701.482 494.5L655.796 506.74ZM675.342 511.977L667.179 509.79L693.148 502.833L687.172 508.808L675.342 511.977ZM678.563 512.84L682.172 513.807L684.815 511.165L678.563 512.84ZM652.576 505.877L703.84 492.143L709.816 486.168L644.413 503.69L652.576 505.877ZM796.693 491.666L796.693 491.666L867.674 472.649L859.51 470.462L802.67 485.69L796.693 491.666ZM801.083 484.39L794.417 491.056L792.75 492.722L795.026 493.332L836.006 504.313L838.283 504.923L839.949 503.256L869.951 473.259L871.617 471.593L869.341 470.983L860.234 468.543L848.851 465.493L837.468 462.443L828.361 460.002L826.085 459.392L824.418 461.059L817.751 467.725L809.417 476.057L801.083 484.39ZM819.337 469.025L813.361 475.001L844.908 466.549L836.744 464.362L819.337 469.025ZM833.524 463.499L821.694 466.668L826.695 461.669L833.524 463.499ZM848.127 467.412L811.004 477.357L805.027 483.333L856.291 469.599L848.127 467.412ZM819.46 497.766L811.296 495.579L856.983 483.339L851.007 489.314L819.46 497.766ZM822.679 498.629L830.843 500.816L842.673 497.647L848.649 491.672L822.679 498.629ZM837.673 502.646L834.063 501.679L840.315 500.004L837.673 502.646ZM859.34 480.982L808.077 494.716L799.913 492.529L865.316 475.007L859.34 480.982ZM739.777 476.415L739.777 476.415L745.754 470.439L802.594 455.211L810.758 457.399L739.777 476.415ZM737.501 475.805L744.167 469.139L752.501 460.807L760.835 452.474L767.502 445.808L769.169 444.142L771.445 444.752L780.552 447.192L791.935 450.242L803.318 453.292L812.425 455.732L814.701 456.342L813.035 458.009L783.033 488.006L781.367 489.672L779.09 489.062L738.11 478.082L735.834 477.472L737.501 475.805ZM756.445 459.75L762.422 453.774L779.828 449.111L787.992 451.299L756.445 459.75ZM764.778 451.418L776.608 448.248L769.779 446.418L764.778 451.418ZM754.088 462.107L791.211 452.161L799.375 454.349L748.111 468.083L754.088 462.107ZM754.38 480.328L762.544 482.516L794.091 474.064L800.067 468.089L754.38 480.328ZM773.927 485.566L765.763 483.378L791.733 476.421L785.757 482.396L773.927 485.566ZM777.147 486.428L780.757 487.396L783.399 484.753L777.147 486.428ZM751.161 479.465L802.424 465.731L808.4 459.756L742.997 477.278L751.161 479.465ZM682.861 461.165L753.842 442.148L745.678 439.961L688.838 455.189L682.861 461.165ZM687.251 453.889L680.585 460.555L678.918 462.221L681.194 462.831L722.174 473.812L724.451 474.422L726.117 472.755L756.119 442.758L757.785 441.092L755.509 440.482L746.402 438.042L735.019 434.991L723.636 431.941L714.529 429.501L712.253 428.891L710.586 430.558L703.919 437.224L695.585 445.556L687.251 453.889ZM705.506 438.524L699.529 444.5L731.076 436.048L722.912 433.86L705.506 438.524ZM719.692 432.998L707.862 436.167L712.863 431.168L719.692 432.998ZM734.295 436.911L697.172 446.856L691.195 452.832L742.459 439.098L734.295 436.911ZM705.628 467.265L697.465 465.078L743.151 452.838L737.175 458.813L705.628 467.265ZM708.848 468.128L717.011 470.315L728.841 467.146L734.817 461.17L708.848 468.128ZM723.841 472.145L720.231 471.178L726.483 469.503L723.841 472.145ZM745.508 450.481L694.244 464.215L686.081 462.027L751.484 444.505L745.508 450.481ZM838.362 450.004L838.362 450.004L844.339 444.028L901.179 428.8L909.343 430.987L838.362 450.004ZM836.085 449.394L842.752 442.728L851.086 434.395L859.419 426.063L866.086 419.397L867.753 417.73L870.03 418.34L879.136 420.78L890.52 423.83L901.903 426.881L911.009 429.321L913.286 429.931L911.619 431.597L881.618 461.594L879.951 463.261L877.674 462.65L836.695 451.67L834.418 451.06L836.085 449.394ZM855.029 433.339L861.006 427.363L878.413 422.699L886.576 424.887L855.029 433.339ZM863.363 425.006L875.193 421.837L868.363 420.007L863.363 425.006ZM852.672 435.695L889.796 425.75L897.959 427.937L846.695 441.671L852.672 435.695ZM852.965 453.916L861.128 456.104L892.675 447.652L898.651 441.677L852.965 453.916ZM872.511 459.154L864.348 456.967L890.318 450.009L884.341 455.985L872.511 459.154ZM875.731 460.017L879.341 460.984L881.984 458.342L875.731 460.017ZM849.745 453.054L901.009 439.32L906.985 433.344L841.582 450.866L849.745 453.054ZM781.446 434.753L781.446 434.753L852.427 415.737L844.263 413.549L787.423 428.777L781.446 434.753ZM785.836 427.477L779.169 434.143L777.502 435.809L779.779 436.419L820.758 447.4L823.035 448.01L824.702 446.343L854.703 416.347L856.37 414.68L854.093 414.07L844.987 411.63L833.604 408.58L822.22 405.53L813.114 403.09L810.837 402.48L809.17 404.146L802.503 410.812L794.17 419.145L785.836 427.477ZM804.09 412.112L798.113 418.088L829.66 409.636L821.497 407.449L804.09 412.112ZM818.277 406.586L806.447 409.756L811.447 404.756L818.277 406.586ZM832.88 410.499L795.756 420.444L789.779 426.42L841.043 412.686L832.88 410.499ZM804.212 440.853L796.049 438.666L841.735 426.426L835.759 432.401L804.212 440.853ZM807.432 441.716L815.596 443.903L827.425 440.734L833.402 434.759L807.432 441.716ZM822.425 445.733L818.815 444.766L825.068 443.091L822.425 445.733ZM844.093 424.069L792.829 437.803L784.666 435.616L850.069 418.094L844.093 424.069ZM724.53 419.502L730.507 413.526L787.347 398.298L795.511 400.486L724.53 419.502ZM722.253 418.892L728.92 412.226L737.254 403.894L745.587 395.561L752.254 388.895L753.921 387.229L756.198 387.839L765.304 390.279L776.688 393.329L788.071 396.379L797.177 398.819L799.454 399.429L797.787 401.096L767.786 431.093L766.119 432.759L763.842 432.149L722.863 421.169L720.586 420.559L722.253 418.892ZM741.197 402.837L747.174 396.861L764.58 392.198L772.744 394.386L741.197 402.837ZM749.531 394.505L761.361 391.336L754.531 389.506L749.531 394.505ZM738.84 405.194L775.963 395.248L784.127 397.436L732.863 411.17L738.84 405.194ZM739.133 423.415L747.296 425.603L778.843 417.151L784.819 411.176L739.133 423.415ZM758.679 428.653L750.516 426.465L776.486 419.508L770.509 425.483L758.679 428.653ZM761.9 429.516L765.509 430.483L768.152 427.841L761.9 429.516ZM735.913 422.552L787.177 408.818L793.153 402.843L727.75 420.365L735.913 422.552Z" fill="#DFDDDF"/>
</g>
<defs>
<clipPath id="clip0_22:95">
<rect width="695.3" height="695.3" fill="white" transform="matrix(-0.965926 -0.258819 0.70716 -0.707053 671.608 671.572)"/>
</clipPath>
</defs>
</svg>
