<svg width="123" height="512" viewBox="0 0 123 512" fill="none" xmlns="http://www.w3.org/2000/svg">
<g clip-path="url(#clip0_22:682)">
<rect x="86.0625" y="-49" width="704" height="108" transform="rotate(90 86.0625 -49)" fill="white"/>
<path fill-rule="evenodd" clip-rule="evenodd" d="M78.0181 -24.3839L81.4888 -15.179L88.735 -11.9688L85.4122 -4.77366L88.8695 4.39542L98.0596 -15.5053L78.0181 -24.3839ZM99.3692 -63.1583L74.807 -36.1866L87.4179 -30.2211L100.947 -48.1385L99.3692 -63.1583ZM130.581 19.605L94.3257 15.5651L99.8584 2.75844L121.849 7.28302L130.581 19.605ZM126.692 -26.2951L99.6602 -33.7722L94.2664 -27.0228L109.713 -19.893L102.819 -4.33984L111.326 -2.83193L126.692 -26.2951Z" fill="#262626"/>
<path fill-rule="evenodd" clip-rule="evenodd" d="M171.833 42.4962L168.362 33.2913L161.116 30.0811L164.438 22.886L160.981 13.7169L151.791 33.6176L171.833 42.4962ZM150.481 81.2707L175.044 54.2989L162.433 48.3334L148.904 66.2508L150.481 81.2707ZM119.27 -1.49274L155.525 2.54723L149.992 15.3539L128.001 10.8293L119.27 -1.49274ZM123.158 44.4074L150.19 51.8845L155.584 45.1351L140.137 38.0053L147.031 22.4521L138.524 20.9442L123.158 44.4074Z" fill="#262626"/>
<path fill-rule="evenodd" clip-rule="evenodd" d="M125.501 -42.3639L128.972 -33.1589L136.218 -29.9488L132.896 -22.7536L136.353 -13.5846L145.543 -33.4853L125.501 -42.3639ZM146.853 -81.1383L122.29 -54.1665L134.901 -48.201L148.43 -66.1185L146.853 -81.1383ZM178.064 1.62505L141.809 -2.41492L147.342 -15.2215L169.333 -10.697L178.064 1.62505ZM174.176 -44.2751L147.144 -51.7522L141.75 -45.0027L157.197 -37.873L150.303 -22.3198L158.81 -20.8119L174.176 -44.2751Z" fill="#262626"/>
<path fill-rule="evenodd" clip-rule="evenodd" d="M73.9966 117.897L77.4673 127.102L84.7136 130.312L81.3907 137.507L84.848 146.676L94.0381 126.775L73.9966 117.897ZM95.3477 79.1224L70.7855 106.094L83.3964 112.06L96.9255 94.1422L95.3477 79.1224ZM126.56 161.886L90.3042 157.846L95.8369 145.039L117.828 149.564L126.56 161.886ZM122.671 115.986L95.6388 108.509L90.2449 115.258L105.692 122.388L98.7977 137.941L107.305 139.449L122.671 115.986Z" fill="#262626"/>
<path fill-rule="evenodd" clip-rule="evenodd" d="M167.811 184.777L164.34 175.572L157.094 172.362L160.417 165.167L156.96 155.998L147.769 175.898L167.811 184.777ZM146.46 223.551L171.022 196.58L158.411 190.614L144.882 208.532L146.46 223.551ZM115.248 140.788L151.503 144.828L145.971 157.635L123.98 153.11L115.248 140.788ZM119.137 186.688L146.169 194.165L151.563 187.416L136.116 180.286L143.01 164.733L134.503 163.225L119.137 186.688Z" fill="#262626"/>
<path fill-rule="evenodd" clip-rule="evenodd" d="M126.935 60.1466L123.464 50.9417L116.218 47.7315L119.541 40.5364L116.084 31.3673L106.894 51.268L126.935 60.1466ZM105.584 98.921L130.146 71.9493L117.535 65.9837L104.006 83.9012L105.584 98.921ZM74.3721 16.1577L110.627 20.1976L105.095 33.0043L83.1037 28.4797L74.3721 16.1577ZM78.2606 62.0578L105.293 69.5349L110.687 62.7855L95.2398 55.6557L102.134 40.1025L93.6267 38.5946L78.2606 62.0578Z" fill="#262626"/>
<path fill-rule="evenodd" clip-rule="evenodd" d="M121.48 99.9169L124.951 109.122L132.197 112.332L128.874 119.527L132.331 128.696L141.522 108.795L121.48 99.9169ZM142.831 61.1424L118.269 88.1142L130.88 94.0797L144.409 76.1623L142.831 61.1424ZM174.043 143.906L137.788 139.866L143.32 127.059L165.311 131.584L174.043 143.906ZM170.154 98.0057L143.122 90.5286L137.728 97.278L153.175 104.408L146.281 119.961L154.788 121.469L170.154 98.0057Z" fill="#262626"/>
<path fill-rule="evenodd" clip-rule="evenodd" d="M-13.479 11.4442L-10.0082 20.6492L-2.76203 23.8594L-6.08487 31.0545L-2.62761 40.2235L6.56253 20.3228L-13.479 11.4442ZM7.87212 -27.3302L-16.69 -0.35844L-4.07921 5.60707L9.4499 -12.3104L7.87212 -27.3302ZM39.0839 55.4332L2.82859 51.3932L8.36128 38.5866L30.3523 43.1111L39.0839 55.4332ZM35.1954 9.533L8.16317 2.05592L2.76933 8.80536L18.2163 15.9351L11.3221 31.4883L19.8294 32.9962L35.1954 9.533Z" fill="#262626"/>
<path fill-rule="evenodd" clip-rule="evenodd" d="M80.3355 78.3243L76.8647 69.1194L69.6185 65.9092L72.9413 58.7141L69.4841 49.545L60.2939 69.4458L80.3355 78.3243ZM58.9843 117.099L83.5465 90.127L70.9357 84.1615L57.4065 102.079L58.9843 117.099ZM27.7725 34.3354L64.0279 38.3754L58.4952 51.182L36.5041 46.6574L27.7725 34.3354ZM31.661 80.2356L58.6933 87.7126L64.0871 80.9632L48.6402 73.8335L55.5344 58.2803L47.0271 56.7724L31.661 80.2356Z" fill="#262626"/>
<path fill-rule="evenodd" clip-rule="evenodd" d="M34.0044 -6.53622L37.4752 2.6687L44.7214 5.87889L41.3985 13.074L44.8558 22.2431L54.0459 2.34233L34.0044 -6.53622ZM55.3555 -45.3107L30.7934 -18.3389L43.4042 -12.3734L56.9333 -30.2909L55.3555 -45.3107ZM86.5673 37.4527L50.312 33.4127L55.8447 20.6061L77.8357 25.1307L86.5673 37.4527ZM82.6788 -8.44747L55.6466 -15.9245L50.2527 -9.17511L65.6997 -2.04538L58.8055 13.5078L67.3128 15.0157L82.6788 -8.44747Z" fill="#262626"/>
<path fill-rule="evenodd" clip-rule="evenodd" d="M-17.5005 153.725L-14.0297 162.93L-6.78351 166.14L-10.1064 173.335L-6.64909 182.504L2.54105 162.604L-17.5005 153.725ZM3.85064 114.951L-20.7115 141.922L-8.10069 147.888L5.42842 129.97L3.85064 114.951ZM35.0625 197.714L-1.19289 193.674L4.3398 180.867L26.3308 185.392L35.0625 197.714ZM31.1739 151.814L4.14169 144.337L-1.25216 151.086L14.1948 158.216L7.30058 173.769L15.8079 175.277L31.1739 151.814Z" fill="#262626"/>
<path fill-rule="evenodd" clip-rule="evenodd" d="M73.5669 222.576L70.0961 213.371L62.8499 210.161L66.1728 202.966L62.7155 193.796L53.5254 213.697L73.5669 222.576ZM52.2158 261.35L76.7779 234.378L64.1671 228.413L50.638 246.33L52.2158 261.35ZM21.004 178.587L57.2593 182.627L51.7266 195.433L29.7356 190.909L21.004 178.587ZM24.8925 224.487L51.9247 231.964L57.3186 225.215L41.8716 218.085L48.7658 202.532L40.2585 201.024L24.8925 224.487Z" fill="#262626"/>
<path fill-rule="evenodd" clip-rule="evenodd" d="M35.438 95.9742L31.9672 86.7693L24.721 83.5591L28.0438 76.364L24.5866 67.1949L15.3964 87.0957L35.438 95.9742ZM14.0869 134.749L38.649 107.777L26.0382 101.811L12.5091 119.729L14.0869 134.749ZM-17.125 51.9853L19.1304 56.0253L13.5977 68.8319L-8.39332 64.3073L-17.125 51.9853ZM-13.2364 97.8855L13.7958 105.363L19.1897 98.6131L3.7427 91.4834L10.6369 75.9302L2.12959 74.4223L-13.2364 97.8855Z" fill="#262626"/>
<path fill-rule="evenodd" clip-rule="evenodd" d="M29.9829 135.745L33.4537 144.949L40.6999 148.16L37.377 155.355L40.8343 164.524L50.0245 144.623L29.9829 135.745ZM51.334 96.9701L26.7719 123.942L39.3827 129.907L52.9118 111.99L51.334 96.9701ZM82.5458 179.733L46.2905 175.693L51.8232 162.887L73.8142 167.411L82.5458 179.733ZM78.6573 133.833L51.6251 126.356L46.2312 133.106L61.6782 140.235L54.784 155.789L63.2913 157.297L78.6573 133.833Z" fill="#262626"/>
<path fill-rule="evenodd" clip-rule="evenodd" d="M69.06 260.835L72.5308 270.04L79.777 273.25L76.4542 280.445L79.9115 289.614L89.1016 269.713L69.06 260.835ZM90.4112 222.06L65.849 249.032L78.4599 254.998L91.989 237.08L90.4112 222.06ZM121.623 304.824L85.3677 300.784L90.9003 287.977L112.891 292.502L121.623 304.824ZM117.734 258.924L90.7022 251.447L85.3084 258.196L100.755 265.326L93.8611 280.879L102.368 282.387L117.734 258.924Z" fill="#262626"/>
<path fill-rule="evenodd" clip-rule="evenodd" d="M162.874 327.715L159.403 318.51L152.157 315.3L155.479 308.105L152.022 298.936L142.832 318.836L162.874 327.715ZM141.522 366.489L166.085 339.518L153.474 333.552L139.945 351.47L141.522 366.489ZM110.311 283.726L146.566 287.766L141.033 300.573L119.042 296.048L110.311 283.726ZM114.199 329.626L141.231 337.103L146.625 330.354L131.178 323.224L138.072 307.671L129.565 306.163L114.199 329.626Z" fill="#262626"/>
<path fill-rule="evenodd" clip-rule="evenodd" d="M121.998 203.084L118.527 193.879L111.281 190.669L114.603 183.474L111.146 174.305L101.956 194.206L121.998 203.084ZM100.646 241.859L125.209 214.887L112.598 208.921L99.0686 226.839L100.646 241.859ZM69.4346 159.095L105.69 163.135L100.157 175.942L78.1662 171.417L69.4346 159.095ZM73.3231 204.995L100.355 212.472L105.749 205.723L90.3023 198.593L97.1965 183.04L88.6892 181.532L73.3231 204.995Z" fill="#262626"/>
<path fill-rule="evenodd" clip-rule="evenodd" d="M116.543 242.854L120.014 252.059L127.26 255.269L123.938 262.465L127.395 271.634L136.585 251.733L116.543 242.854ZM137.895 204.08L113.332 231.052L125.943 237.017L139.472 219.1L137.895 204.08ZM169.106 286.843L132.851 282.803L138.384 269.997L160.375 274.521L169.106 286.843ZM165.218 240.943L138.186 233.466L132.792 240.216L148.239 247.345L141.345 262.898L149.852 264.406L165.218 240.943Z" fill="#262626"/>
<path fill-rule="evenodd" clip-rule="evenodd" d="M-23.2232 296.533L-19.7524 305.738L-12.5062 308.948L-15.829 316.143L-12.3717 325.312L-3.18161 305.412L-23.2232 296.533ZM-1.87202 257.759L-26.4342 284.73L-13.8234 290.696L-0.294238 272.778L-1.87202 257.759ZM29.3398 340.522L-6.91555 336.482L-1.38286 323.675L20.6082 328.2L29.3398 340.522ZM25.4513 294.622L-1.58097 287.145L-6.97481 293.894L8.47214 301.024L1.57792 316.577L10.0853 318.085L25.4513 294.622Z" fill="#262626"/>
<path fill-rule="evenodd" clip-rule="evenodd" d="M70.5903 363.413L67.1196 354.209L59.8734 350.998L63.1962 343.803L59.7389 334.634L50.5488 354.535L70.5903 363.413ZM49.2392 402.188L73.8014 375.216L61.1905 369.251L47.6614 387.168L49.2392 402.188ZM18.0274 319.425L54.2827 323.464L48.75 336.271L26.759 331.747L18.0274 319.425ZM21.9159 365.325L48.9482 372.802L54.342 366.052L38.8951 358.923L45.7893 343.369L37.2819 341.861L21.9159 365.325Z" fill="#262626"/>
<path fill-rule="evenodd" clip-rule="evenodd" d="M29.7144 238.782L26.2436 229.577L18.9974 226.367L22.3202 219.172L18.863 210.003L9.67281 229.904L29.7144 238.782ZM8.36323 277.557L32.9254 250.585L20.3146 244.619L6.78545 262.537L8.36323 277.557ZM-22.8486 194.793L13.4068 198.833L7.87407 211.64L-14.117 207.115L-22.8486 194.793ZM-18.9601 240.694L8.07218 248.171L13.466 241.421L-1.98092 234.291L4.91329 218.738L-3.59404 217.23L-18.9601 240.694Z" fill="#262626"/>
<path fill-rule="evenodd" clip-rule="evenodd" d="M24.2602 278.553L27.731 287.758L34.9772 290.968L31.6544 298.163L35.1117 307.332L44.3018 287.431L24.2602 278.553ZM45.6114 239.778L21.0492 266.75L33.66 272.715L47.1892 254.798L45.6114 239.778ZM76.8232 322.542L40.5679 318.502L46.1005 305.695L68.0916 310.22L76.8232 322.542ZM72.9347 276.641L45.9024 269.164L40.5086 275.914L55.9555 283.043L49.0613 298.597L57.5687 300.105L72.9347 276.641Z" fill="#262626"/>
<path fill-rule="evenodd" clip-rule="evenodd" d="M64.1225 403.772L67.5933 412.977L74.8395 416.187L71.5167 423.383L74.974 432.552L84.1641 412.651L64.1225 403.772ZM85.4737 364.998L60.9115 391.97L73.5224 397.935L87.0515 380.018L85.4737 364.998ZM116.685 447.761L80.4302 443.721L85.9628 430.915L107.954 435.439L116.685 447.761ZM112.797 401.861L85.7647 394.384L80.3709 401.133L95.8178 408.263L88.9236 423.816L97.431 425.324L112.797 401.861Z" fill="#262626"/>
<path fill-rule="evenodd" clip-rule="evenodd" d="M157.937 470.653L154.466 461.448L147.22 458.238L150.543 451.043L147.086 441.874L137.895 461.774L157.937 470.653ZM136.586 509.427L161.148 482.456L148.537 476.49L135.008 494.408L136.586 509.427ZM105.374 426.664L141.629 430.704L136.097 443.511L114.106 438.986L105.374 426.664ZM109.263 472.564L136.295 480.041L141.689 473.292L126.242 466.162L133.136 450.609L124.629 449.101L109.263 472.564Z" fill="#262626"/>
<path fill-rule="evenodd" clip-rule="evenodd" d="M117.061 346.022L113.59 336.817L106.344 333.607L109.667 326.412L106.21 317.243L97.0195 337.144L117.061 346.022ZM95.7099 384.797L120.272 357.825L107.661 351.859L94.1321 369.777L95.7099 384.797ZM64.4981 302.033L100.753 306.073L95.2207 318.88L73.2297 314.355L64.4981 302.033ZM68.3866 347.933L95.4189 355.41L100.813 348.661L85.3658 341.531L92.26 325.978L83.7526 324.47L68.3866 347.933Z" fill="#262626"/>
<path fill-rule="evenodd" clip-rule="evenodd" d="M111.606 385.792L115.077 394.997L122.323 398.208L119 405.403L122.457 414.572L131.647 394.671L111.606 385.792ZM132.957 347.018L108.395 373.99L121.006 379.955L134.535 362.038L132.957 347.018ZM164.169 429.781L127.914 425.741L133.446 412.935L155.437 417.459L164.169 429.781ZM160.28 383.881L133.248 376.404L127.854 383.154L143.301 390.283L136.407 405.836L144.914 407.344L160.28 383.881Z" fill="#262626"/>
<path fill-rule="evenodd" clip-rule="evenodd" d="M-24.6275 437.629L-21.1567 446.834L-13.9105 450.044L-17.2333 457.24L-13.776 466.409L-4.5859 446.508L-24.6275 437.629ZM-3.27632 398.855L-27.8385 425.827L-15.2277 431.792L-1.69854 413.875L-3.27632 398.855ZM27.9355 481.618L-8.31985 477.578L-2.78716 464.772L19.2039 469.296L27.9355 481.618ZM24.047 435.718L-2.98527 428.241L-8.37911 434.99L7.06784 442.12L0.173624 457.673L8.68095 459.181L24.047 435.718Z" fill="#262626"/>
<path fill-rule="evenodd" clip-rule="evenodd" d="M69.187 504.51L65.7163 495.305L58.47 492.094L61.7929 484.899L58.3356 475.73L49.1455 495.631L69.187 504.51ZM47.8359 543.284L72.398 516.312L59.7872 510.347L46.2581 528.264L47.8359 543.284ZM16.6241 460.521L52.8794 464.561L47.3467 477.367L25.3557 472.843L16.6241 460.521ZM20.5126 506.421L47.5448 513.898L52.9387 507.148L37.4917 500.019L44.3859 484.466L35.8786 482.958L20.5126 506.421Z" fill="#262626"/>
<path fill-rule="evenodd" clip-rule="evenodd" d="M28.311 379.879L24.8403 370.674L17.5941 367.464L20.9169 360.269L17.4596 351.1L8.26949 371L28.311 379.879ZM6.95991 418.653L31.5221 391.682L18.9112 385.716L5.38213 403.634L6.95991 418.653ZM-24.2519 335.89L12.0034 339.93L6.47075 352.737L-15.5203 348.212L-24.2519 335.89ZM-20.3634 381.79L6.66886 389.267L12.0627 382.518L-3.38425 375.388L3.50997 359.835L-4.99736 358.327L-20.3634 381.79Z" fill="#262626"/>
<path fill-rule="evenodd" clip-rule="evenodd" d="M22.8559 419.649L26.3267 428.854L33.5729 432.064L30.2501 439.259L33.7074 448.428L42.8975 428.527L22.8559 419.649ZM44.2071 380.874L19.6449 407.846L32.2558 413.812L45.7849 395.894L44.2071 380.874ZM75.4189 463.638L39.1636 459.598L44.6962 446.791L66.6873 451.316L75.4189 463.638ZM71.5304 417.738L44.4981 410.261L39.1043 417.01L54.5512 424.14L47.657 439.693L56.1644 441.201L71.5304 417.738Z" fill="#262626"/>
<path fill-rule="evenodd" clip-rule="evenodd" d="M62.7192 544.869L66.19 554.073L73.4362 557.284L70.1134 564.479L73.5706 573.648L82.7608 553.747L62.7192 544.869ZM84.0704 506.094L59.5082 533.066L72.119 539.031L85.6481 521.114L84.0704 506.094ZM115.282 588.857L79.0268 584.818L84.5595 572.011L106.551 576.535L115.282 588.857ZM111.394 542.957L84.3614 535.48L78.9676 542.23L94.4145 549.359L87.5203 564.913L96.0276 566.421L111.394 542.957Z" fill="#262626"/>
<path fill-rule="evenodd" clip-rule="evenodd" d="M115.657 487.118L112.186 477.913L104.94 474.703L108.263 467.508L104.805 458.339L95.6152 478.24L115.657 487.118ZM94.3056 525.893L118.868 498.921L106.257 492.955L92.7278 510.873L94.3056 525.893ZM63.0938 443.129L99.3491 447.169L93.8164 459.976L71.8254 455.451L63.0938 443.129ZM66.9823 489.03L94.0146 496.507L99.4084 489.757L83.9615 482.627L90.8557 467.074L82.3483 465.566L66.9823 489.03Z" fill="#262626"/>
<path fill-rule="evenodd" clip-rule="evenodd" d="M110.203 526.888L113.673 536.093L120.92 539.303L117.597 546.499L121.054 555.668L130.244 535.767L110.203 526.888ZM131.554 488.114L106.992 515.086L119.602 521.051L133.132 503.134L131.554 488.114ZM162.766 570.877L126.51 566.837L132.043 554.031L154.034 558.555L162.766 570.877ZM158.877 524.977L131.845 517.5L126.451 524.249L141.898 531.379L135.004 546.932L143.511 548.44L158.877 524.977Z" fill="#262626"/>
</g>
<defs>
<clipPath id="clip0_22:682">
<rect width="512" height="123" fill="white" transform="translate(123) rotate(90)"/>
</clipPath>
</defs>
</svg>
