<svg width="153" height="70" viewBox="0 0 153 70" fill="none" xmlns="http://www.w3.org/2000/svg">
<path d="M61.1752 58.199C66.6593 52.0184 70 43.8936 70 35C70 25.7467 66.3841 17.3274 60.4993 11.0624V11.0612C60.4945 11.054 60.4872 11.0516 60.4836 11.0455C54.3538 4.52948 45.7655 0.358448 36.2129 0.0313793L36.2117 0.0301724L35.5298 0.012069C35.3536 0.00603448 35.1774 0 35 0C34.8226 0 34.6464 0.00603448 34.4702 0.012069L33.7907 0.0301724L33.7895 0.0313793C24.2369 0.358448 15.6486 4.52948 9.51879 11.0455C9.51397 11.0516 9.50672 11.054 9.5031 11.0612C9.5031 11.0612 9.5031 11.0624 9.5019 11.0636C3.61586 17.3274 0 25.7467 0 35C0 43.8936 3.34069 52.0184 8.82483 58.199C8.83207 58.2098 8.83207 58.2219 8.84052 58.2328C8.86224 58.2629 8.89362 58.2774 8.91655 58.3052C15.079 65.1941 23.9207 69.6319 33.7883 69.9698L33.7895 69.971L34.469 69.9891C34.6464 69.994 34.8226 70 35 70C35.1774 70 35.3536 69.994 35.5298 69.9879L36.2093 69.9698L36.2105 69.9686C46.089 69.6295 54.9403 65.1833 61.1028 58.2798C61.1184 58.2593 61.1438 58.2533 61.1583 58.2316C61.1679 58.2219 61.1679 58.2098 61.1752 58.199ZM2.44397 36.2069H16.9303C17.0667 41.3229 18.066 46.2941 19.845 50.9515C16.4126 52.1934 13.131 53.859 10.0559 55.9372C5.53362 50.5581 2.71914 43.7017 2.44397 36.2069ZM10.7148 13.3036C13.7176 15.2564 16.9147 16.8205 20.2493 17.9888C18.2072 22.9455 17.0776 28.2897 16.9303 33.7931H2.44397C2.73241 25.9398 5.80759 18.789 10.7148 13.3036ZM67.556 33.7931H53.0697C52.9224 28.2897 51.7928 22.9455 49.7507 17.9888C53.0853 16.8205 56.2824 15.2564 59.2852 13.3036C64.1924 18.789 67.2676 25.9398 67.556 33.7931ZM33.7931 18.0588C30.304 17.9598 26.8788 17.4397 23.5695 16.5103C26.0159 11.4921 29.47 6.96259 33.7931 3.19103V18.0588ZM33.7931 20.4726V33.7931H19.3441C19.4926 28.5455 20.5933 23.456 22.5617 18.7371C26.1897 19.7883 29.9564 20.37 33.7931 20.4726ZM36.2069 20.4726C40.0436 20.37 43.8103 19.7895 47.4395 18.7371C49.4079 23.456 50.5086 28.5455 50.6571 33.7931H36.2069V20.4726ZM36.2069 18.0588V3.19103C40.53 6.96259 43.9841 11.4921 46.4305 16.5103C43.1212 17.4397 39.696 17.9598 36.2069 18.0588ZM48.7695 15.7766C46.451 10.9188 43.2334 6.4931 39.2495 2.69983C46.3171 3.62431 52.6762 6.82017 57.5738 11.5319C54.7931 13.2964 51.8434 14.7157 48.7695 15.7766ZM21.2305 15.7766C18.1566 14.7157 15.2069 13.2964 12.4274 11.5319C17.3238 6.82017 23.6841 3.62431 30.7517 2.69983C26.7666 6.4931 23.549 10.9188 21.2305 15.7766ZM19.3441 36.2069H33.7931V48.3217C29.8019 48.4279 25.8916 49.0507 22.1333 50.1815C20.4352 45.7703 19.4805 41.0574 19.3441 36.2069ZM33.7931 50.7355V66.809C29.1659 62.7719 25.5379 57.8671 23.071 52.4264C26.5312 51.4066 30.1253 50.8393 33.7931 50.7355ZM36.2069 66.809V50.7355C39.8747 50.8381 43.4688 51.4066 46.929 52.4252C44.4621 57.8671 40.8341 62.7719 36.2069 66.809ZM36.2069 48.3217V36.2069H50.6559C50.5195 41.0574 49.5648 45.7703 47.8655 50.1828C44.1084 49.0507 40.1981 48.4279 36.2069 48.3217ZM53.0697 36.2069H67.556C67.2809 43.7017 64.4676 50.5581 59.9441 55.9372C56.869 53.859 53.5874 52.1934 50.155 50.9515C51.9352 46.2941 52.9333 41.3229 53.0697 36.2069ZM11.696 57.7452C14.5516 55.8479 17.5917 54.3224 20.7683 53.1819C23.1157 58.444 26.4853 63.239 30.7505 67.3002C23.3269 66.3286 16.6829 62.8528 11.696 57.7452ZM39.2495 67.3002C43.5147 63.2402 46.8843 58.4452 49.2317 53.1819C52.4083 54.3224 55.4472 55.8479 58.304 57.7452C53.3171 62.8528 46.6731 66.3286 39.2495 67.3002Z" fill="#F7EAEA"/>
<g clip-path="url(#clip0_22:803)">
<mask id="mask0_22:803" style="mask-type:alpha" maskUnits="userSpaceOnUse" x="87" y="0" width="35" height="70">
<path d="M87 0C91.5963 -5.48099e-08 96.1475 0.905302 100.394 2.66422C104.64 4.42313 108.499 7.00121 111.749 10.2513C114.999 13.5013 117.577 17.3597 119.336 21.6061C121.095 25.8525 122 30.4037 122 35C122 39.5963 121.095 44.1475 119.336 48.3939C117.577 52.6403 114.999 56.4987 111.749 59.7487C108.499 62.9988 104.64 65.5769 100.394 67.3358C96.1475 69.0947 91.5963 70 87 70L87 35V0Z" fill="#C4C4C4"/>
</mask>
<g mask="url(#mask0_22:803)">
<path d="M58.8248 58.199C53.3407 52.0184 50 43.8936 50 35C50 25.7467 53.6159 17.3274 59.5007 11.0624V11.0612C59.5055 11.054 59.5128 11.0516 59.5164 11.0455C65.6462 4.52948 74.2345 0.358448 83.7871 0.0313793L83.7883 0.0301724L84.4702 0.012069C84.6464 0.00603448 84.8226 0 85 0C85.1774 0 85.3536 0.00603448 85.5298 0.012069L86.2093 0.0301724L86.2105 0.0313793C95.7631 0.358448 104.351 4.52948 110.481 11.0455C110.486 11.0516 110.493 11.054 110.497 11.0612C110.497 11.0612 110.497 11.0624 110.498 11.0636C116.384 17.3274 120 25.7467 120 35C120 43.8936 116.659 52.0184 111.175 58.199C111.168 58.2098 111.168 58.2219 111.159 58.2328C111.138 58.2629 111.106 58.2774 111.083 58.3052C104.921 65.1941 96.0793 69.6319 86.2117 69.9698L86.2105 69.971L85.531 69.9891C85.3536 69.994 85.1774 70 85 70C84.8226 70 84.6464 69.994 84.4702 69.9879L83.7907 69.9698L83.7895 69.9686C73.911 69.6295 65.0597 65.1833 58.8972 58.2798C58.8816 58.2593 58.8562 58.2533 58.8417 58.2316C58.8321 58.2219 58.8321 58.2098 58.8248 58.199ZM117.556 36.2069H103.07C102.933 41.3229 101.934 46.2941 100.155 50.9515C103.587 52.1934 106.869 53.859 109.944 55.9372C114.466 50.5581 117.281 43.7017 117.556 36.2069ZM109.285 13.3036C106.282 15.2564 103.085 16.8205 99.7507 17.9888C101.793 22.9455 102.922 28.2897 103.07 33.7931H117.556C117.268 25.9398 114.192 18.789 109.285 13.3036ZM52.444 33.7931H66.9303C67.0776 28.2897 68.2072 22.9455 70.2493 17.9888C66.9147 16.8205 63.7176 15.2564 60.7148 13.3036C55.8076 18.789 52.7324 25.9398 52.444 33.7931ZM86.2069 18.0588C89.696 17.9598 93.1212 17.4397 96.4305 16.5103C93.9841 11.4921 90.53 6.96259 86.2069 3.19103V18.0588ZM86.2069 20.4726V33.7931H100.656C100.507 28.5455 99.4067 23.456 97.4383 18.7371C93.8103 19.7883 90.0436 20.37 86.2069 20.4726ZM83.7931 20.4726C79.9564 20.37 76.1897 19.7895 72.5605 18.7371C70.5921 23.456 69.4914 28.5455 69.3429 33.7931H83.7931V20.4726ZM83.7931 18.0588V3.19103C79.47 6.96259 76.0159 11.4921 73.5695 16.5103C76.8788 17.4397 80.304 17.9598 83.7931 18.0588ZM71.2305 15.7766C73.549 10.9188 76.7666 6.4931 80.7505 2.69983C73.6829 3.62431 67.3238 6.82017 62.4262 11.5319C65.2069 13.2964 68.1566 14.7157 71.2305 15.7766ZM98.7695 15.7766C101.843 14.7157 104.793 13.2964 107.573 11.5319C102.676 6.82017 96.3159 3.62431 89.2483 2.69983C93.2334 6.4931 96.451 10.9188 98.7695 15.7766ZM100.656 36.2069H86.2069V48.3217C90.1981 48.4279 94.1084 49.0507 97.8667 50.1815C99.5648 45.7703 100.519 41.0574 100.656 36.2069ZM86.2069 50.7355V66.809C90.8341 62.7719 94.4621 57.8671 96.929 52.4264C93.4688 51.4066 89.8747 50.8393 86.2069 50.7355ZM83.7931 66.809V50.7355C80.1253 50.8381 76.5312 51.4066 73.071 52.4252C75.5379 57.8671 79.1659 62.7719 83.7931 66.809ZM83.7931 48.3217V36.2069H69.3441C69.4805 41.0574 70.4352 45.7703 72.1345 50.1828C75.8916 49.0507 79.8019 48.4279 83.7931 48.3217ZM66.9303 36.2069H52.444C52.7191 43.7017 55.5324 50.5581 60.0559 55.9372C63.131 53.859 66.4126 52.1934 69.845 50.9515C68.0648 46.2941 67.0667 41.3229 66.9303 36.2069ZM108.304 57.7452C105.448 55.8479 102.408 54.3224 99.2317 53.1819C96.8843 58.444 93.5147 63.239 89.2495 67.3002C96.6731 66.3286 103.317 62.8528 108.304 57.7452ZM80.7505 67.3002C76.4853 63.2402 73.1157 58.4452 70.7683 53.1819C67.5917 54.3224 64.5528 55.8479 61.696 57.7452C66.6829 62.8528 73.3269 66.3286 80.7505 67.3002Z" fill="#F7EAEA"/>
</g>
</g>
<g clip-path="url(#clip1_22:803)">
<mask id="mask1_22:803" style="mask-type:alpha" maskUnits="userSpaceOnUse" x="138" y="0" width="35" height="70">
<path d="M138 0C142.596 -5.48099e-08 147.148 0.905302 151.394 2.66422C155.64 4.42313 159.499 7.00121 162.749 10.2513C165.999 13.5013 168.577 17.3597 170.336 21.6061C172.095 25.8525 173 30.4037 173 35C173 39.5963 172.095 44.1475 170.336 48.3939C168.577 52.6403 165.999 56.4987 162.749 59.7487C159.499 62.9988 155.64 65.5769 151.394 67.3358C147.148 69.0947 142.596 70 138 70L138 35V0Z" fill="#C4C4C4"/>
</mask>
<g mask="url(#mask1_22:803)">
<path d="M91.8248 58.199C86.3407 52.0184 83 43.8936 83 35C83 25.7467 86.6159 17.3274 92.5007 11.0624V11.0612C92.5055 11.054 92.5128 11.0516 92.5164 11.0455C98.6462 4.52948 107.234 0.358448 116.787 0.0313793L116.788 0.0301724L117.47 0.012069C117.646 0.00603448 117.823 0 118 0C118.177 0 118.354 0.00603448 118.53 0.012069L119.209 0.0301724L119.211 0.0313793C128.763 0.358448 137.351 4.52948 143.481 11.0455C143.486 11.0516 143.493 11.054 143.497 11.0612C143.497 11.0612 143.497 11.0624 143.498 11.0636C149.384 17.3274 153 25.7467 153 35C153 43.8936 149.659 52.0184 144.175 58.199C144.168 58.2098 144.168 58.2219 144.159 58.2328C144.138 58.2629 144.106 58.2774 144.083 58.3052C137.921 65.1941 129.079 69.6319 119.212 69.9698L119.211 69.971L118.531 69.9891C118.354 69.994 118.177 70 118 70C117.823 70 117.646 69.994 117.47 69.9879L116.791 69.9698L116.789 69.9686C106.911 69.6295 98.0597 65.1833 91.8972 58.2798C91.8816 58.2593 91.8562 58.2533 91.8417 58.2316C91.8321 58.2219 91.8321 58.2098 91.8248 58.199ZM150.556 36.2069H136.07C135.933 41.3229 134.934 46.2941 133.155 50.9515C136.587 52.1934 139.869 53.859 142.944 55.9372C147.466 50.5581 150.281 43.7017 150.556 36.2069ZM142.285 13.3036C139.282 15.2564 136.085 16.8205 132.751 17.9888C134.793 22.9455 135.922 28.2897 136.07 33.7931H150.556C150.268 25.9398 147.192 18.789 142.285 13.3036ZM85.444 33.7931H99.9303C100.078 28.2897 101.207 22.9455 103.249 17.9888C99.9147 16.8205 96.7176 15.2564 93.7148 13.3036C88.8076 18.789 85.7324 25.9398 85.444 33.7931ZM119.207 18.0588C122.696 17.9598 126.121 17.4397 129.431 16.5103C126.984 11.4921 123.53 6.96259 119.207 3.19103V18.0588ZM119.207 20.4726V33.7931H133.656C133.507 28.5455 132.407 23.456 130.438 18.7371C126.81 19.7883 123.044 20.37 119.207 20.4726ZM116.793 20.4726C112.956 20.37 109.19 19.7895 105.561 18.7371C103.592 23.456 102.491 28.5455 102.343 33.7931H116.793V20.4726ZM116.793 18.0588V3.19103C112.47 6.96259 109.016 11.4921 106.569 16.5103C109.879 17.4397 113.304 17.9598 116.793 18.0588ZM104.231 15.7766C106.549 10.9188 109.767 6.4931 113.751 2.69983C106.683 3.62431 100.324 6.82017 95.4262 11.5319C98.2069 13.2964 101.157 14.7157 104.231 15.7766ZM131.769 15.7766C134.843 14.7157 137.793 13.2964 140.573 11.5319C135.676 6.82017 129.316 3.62431 122.248 2.69983C126.233 6.4931 129.451 10.9188 131.769 15.7766ZM133.656 36.2069H119.207V48.3217C123.198 48.4279 127.108 49.0507 130.867 50.1815C132.565 45.7703 133.519 41.0574 133.656 36.2069ZM119.207 50.7355V66.809C123.834 62.7719 127.462 57.8671 129.929 52.4264C126.469 51.4066 122.875 50.8393 119.207 50.7355ZM116.793 66.809V50.7355C113.125 50.8381 109.531 51.4066 106.071 52.4252C108.538 57.8671 112.166 62.7719 116.793 66.809ZM116.793 48.3217V36.2069H102.344C102.481 41.0574 103.435 45.7703 105.134 50.1828C108.892 49.0507 112.802 48.4279 116.793 48.3217ZM99.9303 36.2069H85.444C85.7191 43.7017 88.5324 50.5581 93.0559 55.9372C96.131 53.859 99.4126 52.1934 102.845 50.9515C101.065 46.2941 100.067 41.3229 99.9303 36.2069ZM141.304 57.7452C138.448 55.8479 135.408 54.3224 132.232 53.1819C129.884 58.444 126.515 63.239 122.249 67.3002C129.673 66.3286 136.317 62.8528 141.304 57.7452ZM113.751 67.3002C109.485 63.2402 106.116 58.4452 103.768 53.1819C100.592 54.3224 97.5528 55.8479 94.696 57.7452C99.6829 62.8528 106.327 66.3286 113.751 67.3002Z" fill="#F7EAEA"/>
</g>
</g>
<defs>
<clipPath id="clip0_22:803">
<rect width="70" height="70" fill="white" transform="matrix(-1 0 0 1 120 0)"/>
</clipPath>
<clipPath id="clip1_22:803">
<rect width="70" height="70" fill="white" transform="matrix(-1 0 0 1 153 0)"/>
</clipPath>
</defs>
</svg>
