<svg width="99" height="98" viewBox="0 0 99 98" fill="none" xmlns="http://www.w3.org/2000/svg">
<g clip-path="url(#clip0_22:88)">
<path d="M98.9209 0H0V97.9217H98.9209V0ZM95.9533 2.93765V94.9841H2.96763V2.93765H95.9533Z" fill="#262626"/>
<path d="M15.1786 17.3239V52.0469C15.1786 54.0357 16.0422 55.9276 17.5498 57.2417L29.4154 67.5881C30.3254 68.3822 30.8477 69.526 30.8477 70.7284V88.4102H46.1429V62.1456C46.1429 59.6339 44.8807 57.2887 42.7746 55.8874L24.1102 43.469L20.6678 48.51L21.7905 49.2571L32.2475 56.3868L31.1247 58.0006L20.6678 50.8709L17.8199 49L23.2091 41.4469L20.2949 17.3239H17.7526H15.1786ZM81.1847 17.3239H78.2099L75.7349 42.63L80.1899 49L67.8125 58.0006L66.6898 56.3868L77.7149 49L74.2499 44.1L56.1626 55.8874C54.0566 57.2887 52.7943 59.6349 52.7943 62.1456V88.4102H68.0895V70.7284C68.0895 69.526 68.6118 68.3822 69.5219 67.5881L81.3874 57.2417C82.895 55.9276 83.7586 54.0357 83.7586 52.0469V17.3239H81.1847ZM50.4578 31.0976V50.9767L67.8491 41.0376V21.1585L50.4578 31.0976ZM48.4794 31.0976L31.0881 21.1585V41.0376L48.4794 50.9767V31.0976ZM32.0773 19.4625L49.4686 9.52246L66.8599 19.4625L49.4686 29.4015L32.0773 19.4625Z" fill="#262626"/>
</g>
<defs>
<clipPath id="clip0_22:88">
<rect width="99" height="98" fill="white"/>
</clipPath>
</defs>
</svg>
