<svg width="99" height="99" viewBox="0 0 99 99" fill="none" xmlns="http://www.w3.org/2000/svg">
<path d="M98.9209 0H0V98.9209H98.9209V0ZM95.9533 2.96763V95.9533H2.96763V2.96763H95.9533Z" fill="#262626"/>
<g clip-path="url(#clip0_22:58)">
<path d="M64.8478 38.752L53.0396 76.1447L81.576 38.752H64.8478Z" fill="#262626"/>
<path d="M27.415 25.5249L18.3499 36.4031H33.7607L27.415 25.5249Z" fill="#262626"/>
<path d="M72.3769 25.5249L66.0312 36.4031H81.4421L72.3769 25.5249Z" fill="#262626"/>
<path d="M34.9442 38.752H18.2159L46.7524 76.1447L34.9442 38.752Z" fill="#262626"/>
<path d="M52.7305 24.6609L63.7403 35.6707L70.1621 24.6609H52.7305Z" fill="#262626"/>
<path d="M29.6298 24.6609L36.0516 35.6707L47.0614 24.6609H29.6298Z" fill="#262626"/>
<path d="M37.4065 38.752L49.8958 78.2995L62.3852 38.752H37.4065Z" fill="#262626"/>
<path d="M49.8958 25.147L38.6395 36.4033H61.1521L49.8958 25.147Z" fill="#262626"/>
</g>
<defs>
<clipPath id="clip0_22:58">
<rect width="63.36" height="63.36" fill="white" transform="translate(18.2159 19.8)"/>
</clipPath>
</defs>
</svg>
