<svg width="601" height="139" viewBox="0 0 601 139" fill="none" xmlns="http://www.w3.org/2000/svg">
<path d="M133.6 1.1V70.7H150V1.1H133.6ZM157.5 67.1L156.8 90.5C156.7 94.5 156.5 98.5 156.2 102.3C156 106.1 155.5 109.4 154.8 112.4C154.1 115.3 153.1 117.7 151.7 119.5C150.4 121.3 148.7 122.2 146.4 122.2H144.3V136.7H149.2C153.6 136.7 157.3 135.6 160.1 133.3C162.9 131 165.3 128.1 167 124.4C168.8 120.6 170.1 116.3 170.8 111.3C171.6 106.4 172.1 101.2 172.3 95.8L172.9 81.5H189.8V136.7H206.2V67.1H157.5ZM259.4 67.1L245.8 101.9L230.1 67.1H212.3L237.8 119L235.8 121.7C235.4 122.1 234.9 122.5 234.3 122.8C233.7 123 233.1 123.1 232.4 123.3C231.8 123.4 231.1 123.4 230.4 123.4H222.1V138H229.9C235.3 138 239.8 137 243.1 134.9C246.6 132.8 249.3 129.4 251.5 124.8L277.2 67.1H259.4ZM320.4 67.1V98.7C318.7 99.2 316.8 99.5 314.5 99.7C312.3 99.9 310.3 100 308.7 100C306.2 100 304.2 99.8 302.7 99.3C301.2 98.8 300 98.1 299.1 97.1C298.3 96 297.7 94.6 297.4 92.9C297.1 91.2 297 89.1 297 86.6V67.1H280.6V90.9C280.6 98.4 282.5 104.2 286.4 108.2C290.3 112.1 296.1 114.1 303.7 114.1C306.6 114.1 309.6 113.9 312.4 113.4C315.3 112.9 318 112.5 320.5 112V136.7H336.9V67.1H320.4ZM387.6 67.1H369.6L343.3 136.7H360.8L364.9 124.3H391.8L396 136.7H413.9L387.6 67.1ZM369.4 111L378.4 84.5L387.3 111H369.4ZM473.6 81.5V67.1H420.2V136.7H473.6V122.2H436.6V108.2H471.5V93.7H436.6V81.5H473.6ZM478.1 67.1V81.5H500.4V136.7H516.9V81.5H539.3V67.1H478.1ZM600 81.5V67.1H546.6V136.7H600V122.2H563V108.2H598V93.7H563V81.5H600Z" stroke="#262626" stroke-width="0.75" stroke-miterlimit="10"/>
<path d="M139 87.2C137.3 82.8 134.8 79 131.6 75.9C128.5 72.8 124.7 70.3 120.2 68.6C118.5 67.9 116.7 67.4 114.9 67C115.4 66.8 115.8 66.5 116.2 66.2C119 64.5 121.2 62.1 122.8 59.1C124.4 56.1 125.2 52.3 125.2 47.6C125.2 42.9 124.4 39.1 122.8 36.1C121.2 33 119 30.6 116.2 28.9C113.4 27.2 110 26 106.1 25.4C102.3 24.7 98.1 24.3 93.6 24.3H87.1V1.1H70.8V70.7H86.4C83.9 72.1 81.6 73.8 79.5 75.8C76.4 78.9 73.9 82.7 72.1 87.1C70.4 91.5 69.5 96.4 69.5 101.9C69.5 107.4 70.4 112.3 72.1 116.7C73.9 121.1 76.3 124.9 79.5 128C82.7 131.1 86.5 133.6 90.9 135.3C95.3 137 100.2 137.9 105.6 137.9C110.9 137.9 115.8 137 120.2 135.3C124.7 133.6 128.5 131.1 131.6 128C134.8 124.9 137.3 121.1 139 116.7C140.8 112.3 141.7 107.4 141.7 101.9C141.7 96.4 140.8 91.6 139 87.2ZM87.2 38.1H94.2C96.1 38.1 97.9 38.2 99.6 38.5C101.3 38.8 102.7 39.2 103.9 39.9C105.2 40.6 106.2 41.6 106.9 42.8C107.6 44 107.9 45.6 107.9 47.6C107.9 49.5 107.6 51.1 106.9 52.3C106.2 53.5 105.2 54.5 103.9 55.2C102.7 55.8 101.2 56.3 99.6 56.5C97.9 56.8 96.1 56.9 94.2 56.9H87.2V38.1ZM122.8 111.7C121.8 114.5 120.5 116.8 118.8 118.7C117.1 120.6 115.2 122 112.8 122.9C110.6 123.9 108.2 124.3 105.6 124.3C103 124.3 100.6 123.8 98.3 122.9C96.1 121.9 94.1 120.5 92.4 118.7C90.7 116.8 89.4 114.4 88.4 111.7C87.4 108.9 87 105.6 87 101.9C87 98.2 87.5 94.9 88.4 92.2C89.4 89.4 90.8 87.1 92.4 85.2C94.1 83.3 96.1 81.8 98.3 80.9C100.6 79.9 103 79.5 105.6 79.5C108.2 79.5 110.6 80 112.8 80.9C115.1 81.9 117.1 83.3 118.8 85.2C120.5 87.1 121.9 89.4 122.8 92.2C123.8 95 124.3 98.2 124.3 101.9C124.3 105.6 123.8 108.9 122.8 111.7Z" stroke="#262626" stroke-width="0.75" stroke-miterlimit="10"/>
<path d="M52.9 65.9C55.4 64.2 57.3 62 58.7 59.3C60 56.5 60.7 53.2 60.7 49.3C60.7 45.1 59.7 41.7 57.6 39.2C55.6 36.6 52.9 34.8 49.6 33.6C52.3 31.9 54.3 29.9 55.7 27.6C57.1 25.2 57.8 22.4 57.8 19.1C57.8 15.4 57.1 12.5 55.8 10.2C54.5 7.8 52.6 6 50.2 4.6C47.8 3.3 45 2.3 41.7 1.8C38.5 1.3 35 1 31.1 1H1V136.7H17.4V81.6H44.1V136.7H60.5V67.1H50.9C51.6 66.7 52.3 66.3 52.9 65.9ZM17.4 14.9H31.9C34.8 14.9 37 15.5 38.5 16.7C40 17.9 40.8 19.6 40.8 21.8C40.8 24 40 25.7 38.5 27C37 28.3 34.7 28.9 31.9 28.9H17.4V14.9ZM17.4 41.1H32.8C36.3 41.1 38.9 41.8 40.7 43.2C42.5 44.6 43.4 46.5 43.4 49C43.4 51.4 42.5 53.4 40.7 54.8C39 56.2 36.4 56.9 32.8 56.9H17.4V41.1Z" stroke="#262626" stroke-width="0.75" stroke-miterlimit="10"/>
</svg>
