<svg width="334" height="141" viewBox="0 0 334 141" fill="none" xmlns="http://www.w3.org/2000/svg">
<path d="M52.69 71.16L53.13 71.75H54.39M52.69 71.16C53.2671 71.3251 53.8347 71.522 54.39 71.75M52.69 71.16C51.2331 70.7183 49.7458 70.3841 48.24 70.16C44.1146 69.484 39.9404 69.1495 35.76 69.16H21.83L36.52 49.16L52.69 71.16ZM54.39 71.75C55.7575 72.2609 57.0734 72.9005 58.32 73.66C61.1136 75.3057 63.4031 77.6851 64.94 80.54C66.662 84.0289 67.4869 87.892 67.34 91.78C67.4931 95.6941 66.6682 99.5847 64.94 103.1C63.3954 105.981 61.1101 108.397 58.32 110.1C55.199 111.876 51.7851 113.078 48.24 113.65C44.1146 114.326 39.9404 114.66 35.76 114.65H25.39V138.75H9V71.75H1L27.16 36.33L2.16 2.14998H21.45L36.82 23.15L52.28 2.14998H71.28L46.22 36.04L72.39 71.75H54.39ZM271.98 69.16V83.55H294.25V138.75H310.76V83.55H333.13V69.15L271.98 69.16ZM269.06 89.21C267.433 84.9522 264.914 81.0922 261.67 77.89C258.419 74.6811 254.527 72.1937 250.25 70.59C240.795 67.1365 230.425 67.1365 220.97 70.59C220.28 70.86 219.6 71.15 218.97 71.46V57.25H209.85V2.14998H159.06L158.06 26.53C157.86 31.27 157.603 35.56 157.29 39.4C157.107 42.6672 156.625 45.9108 155.85 49.09C155.401 51.2804 154.446 53.3352 153.06 55.09C152.457 55.7874 151.703 56.3394 150.857 56.7048C150.01 57.0702 149.091 57.2394 148.17 57.2H144.23V69.15H136.74V138.75H167.37C171.24 138.787 175.103 138.402 178.89 137.6C182.069 136.95 185.077 135.642 187.72 133.76C190.199 131.986 192.182 129.608 193.48 126.85C194.913 123.551 195.596 119.975 195.48 116.38C195.598 112.849 194.914 109.338 193.48 106.11C192.225 103.454 190.264 101.195 187.81 99.58C185.241 97.8352 182.33 96.6589 179.27 96.13C175.65 95.3943 171.964 95.039 168.27 95.07H153.17V85.67H159.7V82.97H190.7V71.75H203.46V85.67H203.79C203.173 86.8189 202.619 88.0007 202.13 89.21C200.347 93.9341 199.469 98.9512 199.54 104C199.475 109.036 200.357 114.04 202.14 118.75C203.774 123.014 206.298 126.88 209.543 130.093C212.788 133.305 216.68 135.789 220.96 137.38C230.415 140.833 240.785 140.833 250.24 137.38C254.517 135.776 258.409 133.289 261.66 130.08C264.906 126.874 267.429 123.011 269.06 118.75C270.906 114.044 271.82 109.024 271.75 103.97C271.815 98.9224 270.902 93.9101 269.06 89.21ZM167.57 107.26C174.61 107.26 178.13 110.203 178.13 116.09C178.13 121.977 174.61 124.923 167.57 124.93H153.17V107.26H167.57ZM193.39 57.26H167.06C169.41 54.0612 171.047 50.3954 171.86 46.51C173.054 41.4051 173.76 36.1984 173.97 30.96L174.64 16.66H193.36L193.39 57.26ZM252.83 113.75C251.973 116.325 250.614 118.704 248.83 120.75C247.174 122.591 245.123 124.034 242.83 124.97C240.554 125.937 238.103 126.428 235.63 126.41C233.128 126.421 230.65 125.932 228.34 124.97C226.082 123.998 224.054 122.56 222.39 120.75C220.649 118.674 219.294 116.304 218.39 113.75C217.378 110.587 216.891 107.28 216.95 103.96C216.885 100.669 217.372 97.3903 218.39 94.26C219.267 91.6939 220.624 89.3182 222.39 87.26C224.031 85.3995 226.063 83.9244 228.34 82.94C230.65 81.9782 233.128 81.4886 235.63 81.5C238.103 81.4825 240.554 81.9726 242.83 82.94C245.142 83.8879 247.198 85.368 248.83 87.26C250.638 89.288 252.001 91.6726 252.83 94.26C253.909 97.3774 254.428 100.662 254.36 103.96C254.421 107.287 253.904 110.6 252.83 113.75ZM139.3 22.21C137.673 17.9522 135.154 14.0922 131.91 10.89C128.659 7.6811 124.767 5.19368 120.49 3.58998C111.032 0.136674 100.658 0.136674 91.2 3.58998C86.9372 5.22279 83.0516 7.7066 79.78 10.89C76.5756 14.124 74.0615 17.9752 72.39 22.21C70.6073 26.9341 69.7287 31.9512 69.8 37C69.7316 42.0355 70.6102 47.039 72.39 51.75C74.0613 55.9878 76.5754 59.8423 79.78 63.08C82.2967 65.5308 85.1944 67.5571 88.36 69.08H86.06L59.8 138.75H77.27L81.4 126.37H108.28L112.5 138.75H130.36L105.51 73H105.89C110.876 73.0541 115.827 72.1757 120.49 70.41C124.767 68.8063 128.659 66.3189 131.91 63.11C135.156 59.8943 137.676 56.0208 139.3 51.75C141.146 47.0442 142.06 42.0244 141.99 36.97C142.055 31.9224 141.142 26.9101 139.3 22.21ZM85.91 113.02L94.91 86.53L103.84 113.02H85.91ZM123.06 46.75C122.203 49.3251 120.844 51.7044 119.06 53.75C117.404 55.5911 115.353 57.0338 113.06 57.97C110.784 58.9374 108.333 59.4275 105.86 59.41C103.358 59.4214 100.88 58.9318 98.57 57.97C96.2958 57.0003 94.2514 55.5624 92.57 53.75C90.8323 51.6722 89.4779 49.3019 88.57 46.75C87.5577 43.5874 87.0712 40.2801 87.13 36.96C87.0653 33.6689 87.552 30.3903 88.57 27.26C89.4504 24.6955 90.8076 22.3205 92.57 20.26C94.2289 18.3972 96.2773 16.9224 98.57 15.94C100.88 14.9782 103.358 14.4886 105.86 14.5C108.333 14.4825 110.784 14.9726 113.06 15.94C115.372 16.8879 117.428 18.368 119.06 20.26C120.868 22.288 122.231 24.6726 123.06 27.26C124.139 30.3774 124.657 33.6616 124.59 36.96C124.651 40.2873 124.134 43.6 123.06 46.75ZM48.91 96.32C48.1736 97.4958 47.1384 98.4551 45.91 99.1C44.5547 99.7862 43.0948 100.242 41.59 100.45C39.812 100.71 38.017 100.837 36.22 100.83H25.39V82.97H36.24C38.0374 82.9609 39.8328 83.0913 41.61 83.36C43.131 83.518 44.6023 83.9914 45.93 84.75C47.1656 85.3428 48.2064 86.2761 48.93 87.44C49.6629 88.7935 50.0089 90.3228 49.93 91.86C49.9989 93.4115 49.6465 94.9527 48.91 96.32Z" stroke="white" stroke-width="0.75" stroke-miterlimit="10"/>
</svg>
