<svg xmlns="http://www.w3.org/2000/svg" fill="none" viewBox="0 0 126 126"><path fill="#DFDDDF" d="M27.697 11.87c-3.1 2.156-5.456 4.096-8.154 6.736a62.263 62.263 0 0 0-16.628 28.44C1.071 53.966.43 60.723.953 67.754c.35 4.568 1.006 8.29 2.24 12.593 1.514 5.315 3.048 8.896 5.991 13.995 2.918 5.053 5.33 8.28 9.107 12.181 3.082 3.175 6.005 5.649 9.642 8.122 11.755 8.03 25.643 11.78 39.763 10.731 3.297-.257 4.799-.453 7.907-1.089 9.093-1.836 17.627-5.695 25.142-11.345 12.765-9.626 21.37-23.924 23.957-39.853.795-4.88.991-9.504.608-14.603-.249-3.15-.454-4.693-1.066-7.708a62.394 62.394 0 0 0-16.27-30.926c-3.19-3.28-5.981-5.632-9.798-8.23A62.34 62.34 0 0 0 55.493 1.294C45.6 2.51 35.839 6.225 27.697 11.87Zm-1.132 1.63c-.026.06-.123.131-.223.143-.129.014-.108-.029.023-.12.126-.072.207-.089.2-.023Zm11.947-6.898a.55.55 0 0 1-.309.178c-.093.024-.044-.05.127-.15.16-.092.249-.097.182-.028Zm-12.63 7.46c-.112.095-1.004.9-1.974 1.78-1.2 1.09-1.827 1.588-1.96 1.543-.138-.027.302-.48 1.4-1.403a163.06 163.06 0 0 0 1.75-1.483c.09-.083.34-.257.58-.396.229-.132.322-.155.205-.042Zm14.305-8.229c.29-.106.489-.13.44-.056-.049.074-.446.258-.88.402-.87.289-.48-.013.44-.346Zm-6.233 3.858c.018.111.092.45.175.752l.145.542-1.98 1.219c-1.62.996-2.003 1.202-2.162 1.111-.117-.07-.468-.202-.788-.307-.32-.105-.593-.237-.613-.271-.06-.103.909-.723 3.175-2.077 1.709-1.002 2.02-1.15 2.048-.969Zm4.08-2.173c.883-.372 1.694-.658 1.784-.633.108.029.128.063.048.109s-.319.504-.542 1.014l-.406.936-1.167.46a73.73 73.73 0 0 0-2.03.867l-.857.389-.171-.481c-.335-.95-.31-1.01.773-1.513.522-.256 1.692-.764 2.568-1.148Zm-9.23 5.954c.44.127.84.293.873.35.033.057-.177.3-.466.513-.294.23-.985.828-1.546 1.334l-1.026.943-1.03.092c-.558.063-1.252.128-1.533.169l-.522.072.796-.733c.885-.817 3.003-2.588 3.401-2.848.149-.086.553-.046 1.053.108Zm15.141-8.97c1.735-.56 3.819-1.123 4.377-1.186.447-.044.435-.038-.301.403-.588.355-1.192.55-2.716.867-1.08.242-2.176.509-2.442.602-.533.185-.87.105-.48-.12.137-.079.831-.327 1.562-.566Zm-.16 1.068c1.105-.303 2.092-.522 2.182-.498.09.024-.068.253-.36.513-.28.253-.854.844-1.288 1.307l-.765.839-1.697.415c-.932.233-1.789.439-1.912.464-.275.052-.014-.632.581-1.555.475-.762.395-.716 3.259-1.485Zm-22.61 12.932c.013.023-.207.302-.495.62-.277.313-.976 1.19-1.545 1.945-.954 1.252-1.15 1.441-2.125 2.05-.599.36-1.086.627-1.078.561-.002-.136 1.599-2.036 2.787-3.331.588-.645 1.195-1.178 1.675-1.455.412-.238.761-.425.781-.39Zm2.838-.999c.504-.077 1.167-.17 1.45-.181l.537-.02-.625.711a22.95 22.95 0 0 0-1.145 1.423l-.508.705-1.252.418c-.69.23-1.656.59-2.147.797l-.894.38.53-.748c.741-1.038 2.392-2.906 2.792-3.137.183-.105.747-.264 1.262-.348Zm10.452-5.897c.086.149.917 2.672.903 2.726-.01.036-.388.33-.83.647l-.8.569-1.318-.856c-.72-.483-1.325-.896-1.338-.92-.02-.033.125-.178.33-.327.412-.314 3.038-1.891 3.053-1.839Zm2.99-1.421c.589-.249 1.08-.426 1.107-.38.02.034-.075.53-.218 1.101a51.97 51.97 0 0 0-.364 1.72l-.124.681-.893.409c-.812.362-.9.367-1.046.116-.158-.275-.78-2.065-.837-2.428-.035-.193.147-.299 2.375-1.22Zm-5.664 4.764c.664.41 1.225.802 1.265.87.04.069-.242.399-.63.73l-.704.604-.944-.156a26.43 26.43 0 0 0-2.024-.234c-.6-.035-1.113-.104-1.15-.144-.02-.034.353-.417.842-.837.472-.424.972-.85 1.078-.957.124-.103.415-.286.65-.406.396-.213.474-.183 1.617.53ZM51.9 2.622c1-.196 5.319-.555 5.285-.43-.003.048-.573.301-1.255.573-.677.254-1.482.627-1.78.799a1.853 1.853 0 0 1-1.143.264c-.339-.033-1.379-.012-2.305.02-.932.05-1.74.075-1.783.054-.253-.068 2.192-1.114 2.98-1.28ZM41.036 8.941c1.96-.538 1.96-.538.981.881-.469.667-1.057 1.601-1.307 2.066l-.47.85-.747.157c-.41.084-.802.143-.874.124-.072-.02.047-.79.25-1.73.263-1.158.47-1.75.653-1.855.148-.086.833-.299 1.514-.493Zm9.12-4.428 2.145-.14-1.388.923a46.833 46.833 0 0 0-2.26 1.579c-.866.637-.9.657-1.647.63a21.265 21.265 0 0 0-1.652.07c-1.023.103-1.02.056.234-1.126l1.08-1.034c.586-.568 1.385-.77 3.488-.902Zm-22.62 12.755c1.274.042 3.522.345 3.547.467.01.07-.178.378-.414.682l-.447.547-1.368.165c-.769.093-1.922.287-2.588.427-1.46.325-1.62.31-1.268-.136a82.848 82.848 0 0 1 1.816-2.162c.023-.013.349-.003.722.01Zm-10.155 6.305c.013.023-.135.322-.317.64-.186.337-.63 1.233-.968 1.993-.628 1.368-.65 1.41-1.81 2.356a45.864 45.864 0 0 0-1.94 1.683c-.437.405-.791.716-.798.705-.06-.103.77-1.756 1.628-3.227 1.073-1.838 1.607-2.39 3.968-4.058.108-.078.217-.126.237-.092Zm4.148-2.029c.768-.306 1.44-.542 1.49-.51.06.027-.188.627-.546 1.353l-.645 1.286-2.639 1.554c-1.456.857-2.647 1.514-2.64 1.448 0-.213.582-1.342 1.327-2.64.82-1.404.678-1.307 3.653-2.49Zm23.933-13.36c.777-.052 1.416-.055 1.401-.001-.02.042-.73.741-1.588 1.526-.84.79-1.83 1.743-2.184 2.13l-.633.701-.666.034c-.36.01-.681-.018-.708-.064-.072-.126 2.494-3.97 2.734-4.109.115-.066.848-.17 1.644-.217Zm-18.955 11.95c2.34-.437 3.132-.543 3.205-.418.026.046-.064.312-.214.58l-.253.513-1.647.554a65.88 65.88 0 0 0-3.186 1.215c-.848.352-1.577.62-1.624.618-.08-.031.317-.824.9-1.847.177-.3.436-.617.562-.69.137-.079 1.146-.311 2.257-.526ZM54.994 4.6c1.597.206 2.843.463 2.814.57-.015.055-.533.293-1.157.532-.618.25-2.028.896-3.15 1.437l-2.027 1.003-.947-.216c-.517-.128-1.133-.245-1.352-.256-.226-.022-.402-.088-.387-.142.06-.187 2.974-2.083 4.001-2.6.97-.484 1.012-.493 2.205-.328ZM35.772 15.242c.2.372 1.013 2.494.995 2.596-.014.054-.558-.333-1.21-.856-.641-.53-1.213-.992-1.27-1.036-.048-.032.234-.256.634-.487.617-.357.752-.388.85-.217Zm1.866-1.123c.048.003.018.797-.06 1.742-.08.945-.187 1.632-.24 1.54-.165-.285-1.009-2.329-1.057-2.544-.027-.153.12-.268.615-.493.358-.145.688-.26.742-.245ZM57.936 2.674c.72-.232 1.488-.432 1.694-.445.85-.033 5.282.7 5.239.863-.01.036-.772.247-1.693.474-.91.22-2.259.603-3 .849-1.237.393-1.396.409-2.012.185-.363-.126-1.286-.325-2.026-.446l-1.355-.208.926-.428a25.275 25.275 0 0 1 2.227-.844ZM33.83 16.317c.013.023.567.48 1.226 1.014l1.193.958-1.797-.472c-.992-.266-1.811-.524-1.838-.57-.053-.091.301-.402.865-.773.176-.117.338-.18.351-.157ZM49.325 8.3l1.373.213-1.394.912c-1.986 1.314-4.462 3.018-4.702 3.263-.234.227-1.39.101-1.315-.14.06-.187 2.764-2.815 3.828-3.719.439-.375.816-.7.827-.706.005-.018.63.063 1.383.177ZM11.557 29.33c-.38 1.164-1.39 3.135-2.029 3.93-.435.541-.811.972-.847.962-.144-.038 2.527-4.706 2.8-4.894.05-.044.098-.04.076.002Zm28.138-15.82c.022.064-.226.664-.534 1.345a63.26 63.26 0 0 0-.798 1.787c-.123.315-.238.458-.24.322.007-.568.1-1.78.201-2.449l.117-.723.621-.19c.337-.104.63-.15.633-.092Zm-6.165 4.688c.882.207 1.628.417 1.66.474.034.057-.395.106-.939.115-.55-.002-1.476.03-2.054.059-.59.035-1.053-.002-1.034-.074.04-.115.557-.779.703-.894.04-.038.782.113 1.664.32Zm7.785-4.998c.496-.012.539.01.361.203-.104.136-.71.883-1.348 1.678-.627.789-1.186 1.431-1.222 1.422-.09-.024 1.391-3.136 1.54-3.221.068-.04.368-.076.669-.082ZM21.358 24.707c.172.007.194.071.106.29-.05.15-.157.73-.236 1.28-.122.923-.17 1.026-.604 1.277-.56.324-3.107 2.328-4.484 3.534-.54.464-.998.805-1.008.735-.052-.275.441-2.694.673-3.27.22-.569.354-.707 1.36-1.394 1.584-1.083 3.944-2.46 4.193-2.452Zm3.992-1.878c1.842-.744 3.628-1.348 3.68-1.256.027.046-.013.267-.082.49-.125.392-.267.49-3.613 2.482-1.919 1.138-3.503 2.038-3.523 2.003-.02-.034.078-.578.2-1.212l.25-1.15.892-.41c.488-.235 1.48-.656 2.196-.947Zm7.236-3.415c1.445-.058 2.176-.007 1.578.094-.683.136-3.637.881-3.786.967-.286.165-.32-.105-.07-.493.267-.46.413-.498 2.278-.568Zm-17.764 10.5a25.826 25.826 0 0 0-.29 1.98c-.054.672-.124.789-.81 1.474-.928.902-2.503 2.635-3.34 3.667-.347.429-.654.743-.687.686-.171-.297.828-4.533 1.214-5.106.363-.56 3.294-3.35 3.993-3.83.091-.053.051.458-.08 1.128Zm48.566-28.33c1.66-.135 4 .008 6.24.406 1.746.303 2.196.501 1.107.49-.32.001-1.438.098-2.49.202-1.645.188-2.054.165-2.963-.088a31.87 31.87 0 0 0-2.22-.547c-.642-.133-1.128-.263-1.071-.296.045-.027.674-.1 1.397-.167ZM43.223 13.257l.438.098-1.581 1.355c-.878.75-1.645 1.376-1.708 1.397-.153.027 2.033-2.683 2.317-2.877.05-.045.3-.036.534.027Zm-11.108 7.374c.861-.224 1.568-.372 1.547-.33-.01.036-.469.27-1.023.5-.565.234-1.487.645-2.062.916l-1.041.494.103-.456c.122-.527.133-.534 2.476-1.124ZM52.52 9.32c.5.26.935.512.975.581.04.069-.176.224-.552.364a92.738 92.738 0 0 0-5.55 2.534c-1.612.824-1.612.824-2.004.593-.22-.117-.4-.242-.376-.255.128-.227 3.073-2.202 4.599-3.098l1.998-1.184.91.466Zm4.121-2.973c.86-.36 1.715-.7 1.924-.76.405-.143 1.332.221 2.762 1.088 1.08.656 1.255.51-1.381 1.224-1.292.35-5.406 1.673-5.658 1.818-.023.014-.213-.105-.43-.27a5.638 5.638 0 0 0-.916-.583c-.294-.166-.558-.333-.585-.38-.066-.114 2.467-1.377 4.284-2.137Zm-11.81 7.398c.159.091.272.208.269.256-.021.043-.895.562-1.953 1.158l-1.93 1.068 1.232-1.062c1.643-1.405 2.043-1.636 2.381-1.42Zm-35.21 20.68c-.04.221-.168.844-.284 1.383-.109.55-.228 1.427-.278 1.974-.056.933-.124 1.079-1.039 2.4a41.416 41.416 0 0 0-1.686 2.65c-.391.668-.743 1.221-.779 1.211-.036-.01.06-.766.23-1.687.33-1.99.968-3.974 1.628-5.102.424-.717 2.102-3.118 2.239-3.198.023-.013.009.148-.031.369Zm19.2-11.1c.066.007.142.192.172.403.06.316-.02.439-.594.846a86.315 86.315 0 0 0-4.606 3.665c-.838.713-1.584 1.296-1.645 1.27-.162-.043-.427-1.4-.352-1.824.048-.287.232-.47.944-.926 1.401-.9 5.955-3.468 6.081-3.435Zm32.854-18.74c2.553-.727 4.472-1.073 4.979-.908.921.276 3.87 1.897 4.054 2.217.02.034-.654.134-1.512.233-1.581.165-5.716.845-5.956.984-.069.04-.441-.157-.842-.429a14.431 14.431 0 0 0-1.432-.895c-.397-.213-.8-.437-.904-.484-.251-.145.025-.274 1.613-.718ZM31.853 21.788c.95-.412 1.753-.738 1.79-.728.036.01-.846.594-1.951 1.294-1.106.699-2.048 1.258-2.09 1.237-.055-.015-.1-.172-.1-.355-.01-.39.104-.456 2.35-1.448Zm-10.65 6.347c.01.147.111.667.205 1.147l.19.881-1.286 1.26c-.697.693-2.016 2.08-2.932 3.08-.904.995-1.672 1.804-1.72 1.801-.132-.045-.522-1.909-.57-2.704-.035-.696-.014-.739.669-1.377 1.233-1.139 4.311-3.648 5.08-4.137.28-.177.334-.162.364.049Zm24.723-13.497c.138.134.242.288.232.324-.014.054-.81.391-1.775.78-.964.39-1.927.808-2.144.933-.24.14-.403.173-.404.066.006-.095.78-.603 1.923-1.263l1.91-1.102.258.263Zm3.151-1.987c2.767-1.307 4.878-2.191 5.13-2.123.09.024.422.412.738.854l.557.807-1.724.446c-1.77.473-5.486 1.613-6.468 1.997-.538.204-.574.194-.799-.194-.284-.492-.51-.33 2.566-1.787Zm-15.8 9.625c-.38.342-1.177 1.076-1.788 1.628-.605.562-1.152 1.015-1.217 1.007-.06.004-.19-.119-.283-.279-.145-.251-.103-.337.424-.717a25.983 25.983 0 0 1 2.647-1.726l.896-.533-.678.62Zm-3.67 2.805c.133.229.143.405.033.53-.095.1-.931.95-1.84 1.885a85.469 85.469 0 0 0-2.88 3.142c-.675.786-1.276 1.407-1.33 1.393-.072-.02-.374-.41-.692-.881l-.565-.848 1.427-1.25c2.013-1.742 5.25-4.266 5.538-4.295.06-.004.204.141.31.324Zm15.38-8.925c1.416-.558 1.6-.558 1.522.02-.038.251-.182.32-1.798.688-2.91.69-2.892.694-1.938.235a36.86 36.86 0 0 1 2.215-.943ZM14.51 33.57c.02.034.05.352.065.694.021.353.167 1.107.325 1.672.165.575.284 1.071.279 1.089-.01.036-.487.662-1.063 1.406a88.006 88.006 0 0 0-2.303 3.22 110.644 110.644 0 0 1-1.32 1.966c-.222.327-.791-2.058-.867-3.615l-.042-.997.89-1.124c.885-1.135 3.564-4.1 3.843-4.276.091-.053.173-.07.193-.035ZM56.986 9.426a74.88 74.88 0 0 1 5.152-1.48c.548-.133.686-.106 1.067.238.232.216.73.843 1.113 1.4l.683 1.023-.588.065c-2.008.245-4.85.682-6.445 1.008-1.052.211-1.921.316-1.986.232-.505-.638-1.12-1.731-1.007-1.797.08-.046.985-.355 2.011-.689ZM33.805 23.055c-.47.56-1.13 1.369-1.466 1.791-.336.422-.661.809-.741.855-.183.106-.712-.23-.652-.416.045-.133.908-.936 2.643-2.471.954-.856 1.043-.755.216.24Zm10.33-5.446c1.265-.319 2.319-.5 2.365-.42.04.068.024.306-.047.5-.108.367-.149.375-2.465.508-1.292.06-2.307.097-2.239.058.063-.052 1.145-.341 2.387-.646Zm-8.908 5.006c-.185.366-.685 1.295-1.087 2.076-.421.776-.801 1.438-.836 1.458-.045.026-.324.019-.61-.029l-.532-.074.28-.36c.924-1.174 2.914-3.588 3.017-3.647.069-.04-.04.221-.232.576Zm14.764-8.25a77.374 77.374 0 0 1 3.83-1.129l1.736-.453.26.505c.22.406.422 1.707.285 1.787-.023.013-.687.076-1.47.147-1.406.126-5.775.743-6.831.972-.573.117-.616.096-.708-.46-.068-.434-.275-.345 2.898-1.37ZM69.097 3.18c.647-.068 1.956-.123 2.914-.127 1.597-.007 1.83.026 3.068.56 1.372.58 4.028 2.172 3.834 2.284-.069.04-.293.047-.526.014-.662-.09-4.343-.13-5.551-.057-1.079.059-1.097.054-2.032-.641-.519-.371-1.429-.943-2.026-1.239-.604-.307-1.04-.588-.984-.62.058-.034.65-.117 1.303-.174ZM43.965 18.82c2.126-.145 2.133-.133 1.977.23-.304.74-.416.759-2.308.465-.996-.142-2.047-.298-2.327-.334l-.501-.076.515-.084c.282-.041 1.465-.13 2.644-.2Zm-8.01 5.112-.593 2.218-.606.06c-.347.033-.643.021-.663-.013-.053-.092.043-.269 1.306-2.569.55-1.002 1.037-1.848 1.071-1.868.046-.026-.19.964-.514 2.172Zm2.863-1.485c.38.817.75 1.67.836 1.896l.153.399-.69.308c-.382.158-.753.281-.825.262-.065-.008-.162-1.02-.216-2.223-.055-1.203-.054-2.179-.011-2.158.047.003.384.693.753 1.516Zm1.447-.53c1.718 1.63 1.718 1.63.746 2.19-.663.384-.567.496-1.521-1.605-.647-1.41-.87-1.983-.802-2.022.023-.014.73.63 1.577 1.437Zm1.672-.721c.82.364 1.534.73 1.574.798.04.069-.107.29-.327.463a10.4 10.4 0 0 0-.584.52c-.134.139-.324.02-.933-.559a154.214 154.214 0 0 0-1.6-1.53l-.84-.796.61.212c.326.117 1.273.515 2.1.892Zm1.066-1.165c1.02.158 1.899.306 1.943.357.105.076-.694 1.148-.838 1.109-.115-.04-3.657-1.608-3.877-1.725-.27-.15.456-.08 2.771.26Zm-5.52 3.431c.078 1.983.06 2.084-.284 2.253a4.02 4.02 0 0 1-.779.236l-.404.065.604-2.254c.327-1.256.643-2.292.689-2.318.057-.033.141.878.174 2.018Zm-6.77 2.583c.214.135.412.265.425.288.02.034-.18.348-.456.69-.65.879-2.798 4.13-3.66 5.542l-.716 1.161-.522-.217c-.564-.238-1.664-.93-1.64-1.02.1-.301 5.608-6.286 6.107-6.635.04-.038.258.05.461.19Zm-8.138 5.628c.331.495.584.959.564 1.03-.008.066-.538.784-1.175 1.609-.631.807-1.777 2.413-2.555 3.548l-1.407 2.078-.31-.248c-.175-.143-.64-.79-1.034-1.446l-.704-1.194 1.35-1.542c1.483-1.71 4.023-4.334 4.416-4.576.229-.132.303-.084.855.741Zm27.165-15.18c2.974-.499 6.27-.862 6.37-.69.098.171-.385 2.37-.545 2.463-.068.04-1.057.016-2.215-.062a97.014 97.014 0 0 0-4.226-.137l-2.123-.008.076-.502c.043-.269.133-.534.225-.587.073-.058 1.184-.272 2.438-.478ZM65 7.36c1.625-.328 3.14-.531 4.98-.695l1.536-.14.668.682c.365.369 1.025 1.222 1.462 1.9l.795 1.218-.41-.023c-1.05-.05-4.134-.006-6.163.098l-2.252.111-.82-1.234c-.448-.671-.906-1.306-1.018-1.394-.272-.208-.204-.248 1.223-.523ZM32.426 26.686c.34.063.606.153.59.178-.01.036-.251.541-.524 1.125-.608 1.297-1.854 4.287-2.305 5.539-.304.846-.348.902-.727.907-.217.019-.892-.095-1.504-.23l-1.114-.24 1.24-1.997c1.064-1.696 3.499-5.267 3.675-5.384.035-.02.333.022.669.102ZM5.01 43.414c-.092.739-.159 1.494-.16 1.677.011.283-.521 1.658-1.71 4.403-.137.292-.144.28-.095-.19.11-1.024 1.835-7.065 2.064-7.197.034-.02-.008.568-.1 1.307Zm4.104-2.37c.08.64.28 1.622.462 2.173.17.557.337 1.085.365 1.16.017.082-.267.673-.631 1.31-.37.626-1.176 2.188-1.786 3.455-.61 1.267-1.132 2.315-1.155 2.328-.103.06-.561-1.657-.715-2.742-.349-2.268-.298-2.892.383-4.17.596-1.106 2.714-4.539 2.874-4.631.046-.027.135.47.203 1.117Zm50.083-28.976c4.055-.74 5.894-.934 6.06-.648.29.503.723 2.89.619 3.423-.005.018-.85.033-1.875 0a110.55 110.55 0 0 0-4.539.06l-2.669.077-.121-.845c-.058-.47-.157-.93-.216-1.034-.114-.223-.09-.42.07-.512.045-.027 1.25-.265 2.671-.521Zm-10.77 6.584c1.69 0 5.485.156 6.396.255l.572.066-.235.517c-.33.724-1.138 2.227-1.241 2.287-.046.026-1.09-.225-2.316-.553a81.654 81.654 0 0 0-3.854-.946l-1.606-.353.279-.573c.152-.317.306-.604.352-.63.04-.038.783-.07 1.652-.07Zm-13.912 8.17.727-.009-.32 1.586c-.315 1.54-.838 4.753-.898 5.52-.044.345-.084.383-.535.446-.879.14-2.886.202-2.945.1-.113-.195 2.9-7.438 3.152-7.583.046-.026.418-.043.819-.06ZM16.057 38.468c.257.445.722 1.092 1.031 1.416.55.582.57.617.404.91-.091.16-.684 1.219-1.31 2.327a116.14 116.14 0 0 0-1.924 3.61c-.415.865-.823 1.558-.913 1.534-.282-.066-1.575-1.698-2.162-2.715l-.561-.972 1.114-1.74c1.141-1.772 3.436-4.926 3.699-5.078.114-.066.298.147.622.708Zm9.61-4.345c.17.055.292.136.283.172-.01.037-.45.885-.976 1.875-.538.996-1.425 2.759-1.977 3.916-.556 1.174-1.035 2.167-1.074 2.205-.093.13-1.775-.698-2.688-1.329l-.79-.55 1.537-2.275a73.181 73.181 0 0 1 2.623-3.694l1.104-1.415.823.501c.46.268.966.54 1.135.594Zm23.237-12.928c1.656.386 3.356.822 3.808.972l.809.265-.477.626c-.264.335-.793.976-1.181 1.414l-.697.799-.324-.164c-.177-.096-1.23-.678-2.33-1.292-1.114-.607-2.38-1.294-2.817-1.498-.427-.212-.795-.426-.821-.472-.06-.103.632-1.096.877-1.253.085-.064 1.509.211 3.153.603ZM77.421 3.421c2 .294 3.99.837 5.394 1.474 1.252.558 3.866 2.128 3.717 2.214-.046.026-.673-.084-1.4-.26-.719-.163-2.141-.409-3.156-.555-1.795-.259-1.856-.285-2.768-.993-.838-.66-1.735-1.209-2.887-1.779-.231-.11-.374-.226-.328-.252.046-.026.694.041 1.428.15ZM36.848 26.48l.805-.19.153 1.664c.08.93.242 2.452.358 3.392l.227 1.713-.522.285c-.682.349-3.064.87-3.17.688-.165-.286 1.03-7.195 1.258-7.327.045-.026.441-.133.891-.225Zm8.174-3.85c.336.187 1.326.713 2.199 1.17 2.54 1.337 3.468 1.914 3.307 2.084-.254.299-1.18 1.123-2.066 1.833l-.886.71-2.37-2.443-2.36-2.449.395-.32c.214-.183.427-.368.483-.43.376-.431.705-.468 1.298-.155Zm-5.573 2.943.675-.283.222.542c.124.294.731 1.636 1.363 2.994l1.147 2.463-.78.419c-.767.413-3.045 1.378-3.078 1.32-.1-.171-.76-6.543-.7-6.836a.4.4 0 0 1 .249-.281c.134-.032.533-.186.902-.338ZM75.992 6.41c2.76.053 3.91.197 4.284.53.739.67 1.814 2.031 2.434 3.106.363.629.63 1.145.597 1.165-.023.013-1.137-.121-2.461-.302-1.324-.18-3.17-.395-4.109-.463l-1.698-.117-.674-1.166c-.6-1.04-1.314-1.985-1.864-2.49-.157-.139 0-.184.896-.244a47.96 47.96 0 0 1 2.595-.02Zm-33.39 17.784c.904.88 4.171 4.268 4.257 4.416.145.252-.323.63-1.992 1.593l-1.418.818-.191-.331c-.106-.183-.729-1.5-1.37-2.928a242.38 242.38 0 0 0-1.244-2.682c-.026-.046.348-.322.84-.606.81-.469.904-.492 1.118-.28Zm15.633-8.645c1.732-.116 5.935-.15 6.921-.079l.72.058-.066.785c-.027.427-.202 1.366-.377 2.092-.252 1.015-.389 1.307-.579 1.295a88.134 88.134 0 0 1-2.45-.415 91.3 91.3 0 0 0-4.13-.634c-1.067-.13-1.957-.272-1.983-.318-.026-.046.052-.411.163-.826.123-.421.219-.995.23-1.291.012-.297.039-.541.073-.56.023-.014.694-.066 1.478-.107Zm9.227-4.535c1.85-.122 6.123-.166 6.744-.067l.483.071.292 1.006c.325 1.092.603 2.868.546 3.48l-.025.38-1.278-.207c-1.332-.221-5.665-.677-6.94-.719l-.764-.03-.089-1.078c-.064-.587-.216-1.43-.353-1.853-.138-.424-.209-.81-.151-.843.057-.033.75-.098 1.535-.14ZM5.01 48.46c.146 1.15.448 2.333.912 3.665.056.15-.22 1.149-.594 2.218a71.351 71.351 0 0 0-1.121 3.498c-.239.854-.463 1.548-.5 1.538-.107-.029-.589-1.84-.762-2.852-.316-1.921-.29-3.46.108-4.803.345-1.145 1.619-4.563 1.722-4.622.023-.014.13.595.235 1.358Zm22.645-13.715c.564.132 1.241.275 1.497.295l.47.048-.5 1.432c-.26.79-.835 2.647-1.249 4.12-.425 1.481-.818 2.729-.864 2.755-.263.152-4.287-.588-4.42-.817-.125-.217 3.626-7.794 3.983-8.046.023-.013.502.077 1.083.213Zm-16.742 11.45c.495.857 1.2 1.761 2.081 2.655.152.156.113.407-.237 1.173-.548 1.216-1.5 3.686-2.153 5.618-.333.955-.563 1.453-.673 1.395-.417-.247-1.77-2.011-2.477-3.234l-.786-1.36.727-1.594c.992-2.189 2.653-5.465 2.845-5.606.046-.027.35.393.673.953Zm7.818-4.834c.28.22 1.064.681 1.729 1.014l1.201.602-.401.994a89.195 89.195 0 0 0-2.128 5.847c-.289.899-.557 1.648-.591 1.668-.035.02-.568-.19-1.188-.473-1.465-.663-3.408-1.995-3.36-2.282.09-.556 3.845-7.57 4.149-7.731.034-.02.292.136.59.36Zm39.233-22.133c2.02.251 4.712.663 6 .941l.88.178-.559 1.222c-.569 1.259-1.62 3.161-1.803 3.267-.057.033-.624-.158-1.279-.42-1.365-.569-3.366-1.289-5.32-1.928-1.28-.42-1.371-.474-1.238-.719.086-.14.402-.78.714-1.403.305-.633.62-1.196.7-1.242.085-.065.94-.01 1.905.104ZM31.121 35.122c.462.008 1.276-.035 1.81-.085l.954-.093-.093.816c-.062.447-.206 2.283-.336 4.066-.123 1.793-.223 3.284-.233 3.32-.022.12-2.84.36-4.165.362l-1.343-.002.798-2.87c.68-2.359 1.638-5.427 1.727-5.509.012-.006.408-.007.881-.005ZM83.398 7.119a57.51 57.51 0 0 1 3.003.66c1.382.36 1.728.511 2.162.947 1.067 1.03 1.593 1.702 2.54 3.183l.96 1.533-2.55-.722c-1.402-.395-3.156-.845-3.905-1.008l-1.365-.278-.923-1.571c-.585-.988-1.174-1.823-1.596-2.264a13.323 13.323 0 0 1-.703-.769c-.053-.091.9.03 2.377.29Zm-27.3 16.082c1.05.34 2.839.983 3.989 1.417l2.088.791-.559.75c-.693.964-2.475 3.105-2.907 3.492l-.342.304-1.955-1.325c-1.084-.716-2.58-1.697-3.353-2.165-.964-.587-1.348-.883-1.254-.983 1.111-1.297 1.557-1.845 1.88-2.29.213-.29.41-.557.444-.576.034-.02.931.24 1.97.585Zm12.131-7.583c2.026.157 5.236.514 6.396.728l.932.163-.092 1.029c-.08 1.022-.845 4.45-1.005 4.543-.045.027-2.039-.469-4.437-1.111l-4.351-1.147.306-1.107c.165-.613.35-1.558.407-2.094.056-.536.146-1.014.215-1.054.057-.033.792 0 1.629.05Zm8.819-4.527c1.836.144 3.885.393 5.48.647.878.148 1.121.252 1.297.531.46.77 1.063 3.716 1.048 5.142l-.007.568-2.103-.554a82.65 82.65 0 0 0-5.913-1.343l-.7-.129-.071-1.102c-.07-1.072-.493-3.282-.698-3.637-.052-.091-.064-.19-.03-.21.046-.027.806.022 1.697.087ZM36.564 34.357c.88-.218 1.678-.42 1.771-.443.105-.03.252.54.438 1.683.152.949.443 2.64.646 3.758.215 1.111.361 2.078.342 2.15-.056.246-4.976 1.547-5.7 1.508-.183-.001-.19-.592-.057-2.635.257-3.99.445-5.486.725-5.556a74.63 74.63 0 0 0 1.835-.465Zm16.183-7.376c1.952 1.19 5.217 3.36 5.204 3.443-.077.288-4.68 4.196-4.856 4.13-.025-.016-.83-.909-1.787-1.987a372.297 372.297 0 0 0-2.51-2.788c-.43-.454-.767-.853-.762-.871.01-.037.453-.43.977-.87a36.203 36.203 0 0 0 1.54-1.346c.302-.296.587-.567.621-.587.028-.031.732.37 1.573.876ZM88.695 6.973c1.959.912 4.017 1.995 3.99 2.132-.021.043-.184 0-.372-.09-.178-.096-1.181-.461-2.22-.807-1.521-.524-2.07-.787-2.863-1.395a34.026 34.026 0 0 1-1.08-.84c-.2-.19.77.196 2.545 1ZM23.233 43.426c.476.137 1.505.335 2.304.453l1.432.21-.428 2.03c-.252 1.122-.607 3.095-.802 4.366-.208 1.278-.404 2.337-.443 2.375-.29.212-5.9-.847-6.072-1.144-.132-.229 2.761-8.286 3.04-8.463.07-.04.512.04.969.173Zm18.308-10.799 1.636-.73.274.633c.164.363.888 1.881 1.612 3.4.735 1.51 1.32 2.788 1.317 2.836-.058.216-5.632 2.627-5.914 2.56-.097-.035-.672-3.117-1.149-6.134l-.24-1.524.418-.149a50.941 50.941 0 0 0 2.046-.892Zm6.108-3.176c.386.326 4.94 5.44 4.916 5.531-.073.27-5.315 3.495-5.574 3.416-.047-.003-.733-1.376-1.518-3.026s-1.503-3.157-1.602-3.328l-.184-.32 1.82-1.204c1-.669 1.837-1.228 1.853-1.252.005-.018.146.068.289.183ZM2.466 57.093c.17.877.464 2.018.654 2.533.334.92.332.998-.036 3.131-.206 1.201-.43 2.688-.488 3.3-.058.613-.123 1.108-.16 1.098-.071-.02-.473-1.586-.674-2.674-.269-1.415-.337-3.038-.214-4.831.1-1.49.45-4.055.563-4.121.023-.013.184.687.355 1.564Zm4.309-3.098c.514.892 1.58 2.289 2.406 3.138l.699.71-.67 2.719c-.379 1.484-.788 3.336-.914 4.094-.156.944-.292 1.343-.409 1.273-.614-.377-1.793-1.892-2.744-3.538L4.11 60.626l.476-1.815c.506-1.923 1.582-5.288 1.735-5.392.046-.026.257.233.455.576Zm7.458-4.138c.774.575 2.335 1.457 3.27 1.862l.85.363-.757 2.967c-.417 1.628-.861 3.577-.994 4.324-.144.754-.318 1.403-.387 1.443-.34.227-4.532-2.094-5.395-2.983-.227-.234-.171-.48.55-2.558.96-2.72 2.11-5.639 2.275-5.75.028-.03.297.119.588.332Zm54.366-28.66c1.64.41 3.576.939 4.312 1.184l1.333.435-.61 1.373c-1.014 2.308-2.397 4.692-2.663 4.602-.078-.031-1.09-.515-2.246-1.066a132.79 132.79 0 0 0-3.84-1.792c-.953-.41-1.734-.813-1.715-.885.02-.072.37-.732.781-1.472.411-.74.892-1.704 1.078-2.147.18-.454.392-.851.473-.898.068-.04 1.465.267 3.097.666Zm-39.583 22.9c.693.01 1.531-.016 1.86-.053.336-.026.993-.101 1.47-.148l.864-.087-.03 2.06c-.015 1.136-.018 3.059.003 4.282.043 2.002.021 2.228-.278 2.37-.569.283-6.416.61-6.838.381-.227-.128 1.3-8.6 1.574-8.759.057-.033.671-.052 1.375-.047ZM91.141 9.203c1.937.741 3.638 1.497 4.248 1.892.8.514 2.452 2.425 3.496 4.048.547.843.963 1.563.917 1.59-.034.02-.598-.219-1.232-.524-1.273-.621-3.775-1.707-4.948-2.128l-.731-.263-.95-1.647c-.534-.896-1.287-2.016-1.682-2.49-.802-.939-.855-1.03-.786-1.07.023-.013.773.255 1.668.592Zm-13.337 7.685c1.848.35 6.937 1.665 7.023 1.814.079.137-.027 1.433-.19 2.549-.19 1.283-.946 4.143-1.118 4.242-.08.047-.737-.168-1.466-.48-.722-.3-2.423-.948-3.76-1.442-1.347-.486-2.63-.965-2.842-1.041l-.382-.16.45-1.861c.253-1.015.483-2.307.526-2.865.05-.547.099-1.017.122-1.03.034-.02.763.107 1.637.274Zm10.082-3.977c1.616.424 3.284.91 3.725 1.066l.787.308.299.834c.589 1.733 1.218 5.806.909 5.984-.057.033-.57-.143-1.148-.405-1.167-.515-4.403-1.71-5.959-2.215l-.97-.308-.076-1.16c-.093-1.456-.356-2.966-.727-4.032-.237-.702-.233-.826-.02-.827.147-.009 1.581.337 3.18.755ZM65.632 26.935c3.824 1.74 5.101 2.42 4.98 2.658-.457.873-4.626 5.902-4.826 5.82-.043-.021-.96-.712-2.05-1.545a167.538 167.538 0 0 0-3.282-2.435c-.722-.513-1.337-.996-1.383-1.076-.04-.069.387-.65.957-1.3a34.241 34.241 0 0 0 1.856-2.276l.804-1.09.471.156c.254.097 1.372.58 2.473 1.088Zm-44.95 25.83c1.351.332 2.916.587 4.499.74.029-.001-.066 1.075-.213 2.38-.135 1.297-.327 3.313-.399 4.483-.072 1.169-.178 2.145-.224 2.172-.435.25-7.16-1.05-7.378-1.426-.047-.08.072-.957.268-1.939.394-1.904 1.594-6.743 1.686-6.796.034-.02.826.163 1.762.385Zm14.78-9.387a46.528 46.528 0 0 0 2.971-.74c1.286-.361 1.549-.407 1.584-.214.072.416 1.276 5.88 1.534 6.935.165.682.182 1.053.067 1.12-.594.343-6.588 1.868-7.497 1.904-.254.01-.277-.084-.308-1.194-.094-3.832-.041-7.384.119-7.477.057-.033.734-.18 1.53-.334ZM6.741 65.66c.46.481.919.933 1.013 1.016.111.088.1.78-.019 1.764-.205 1.704-.379 4.228-.376 5.552-.01.433-.079.762-.157.731-.084-.012-.6-.537-1.152-1.149-1.21-1.329-3.014-4.296-3.025-4.976-.012-.786.312-3.762.584-5.352l.28-1.626 1.007 1.584c.606.946 1.34 1.925 1.844 2.456Zm5.045-6.388c.698.496 1.96 1.201 2.786 1.577.827.376 1.521.707 1.541.742.02.034-.1.91-.255 1.96-.162 1.04-.375 2.915-.5 4.177-.253 2.89-.195 2.673-.692 2.472-1.658-.628-5.042-2.607-5.877-3.42-.151-.157-.132-.625.094-1.976.302-1.774 1.402-6.312 1.539-6.39.034-.02.655.368 1.364.858ZM59.01 31.123c.64.423 4.919 3.609 5.696 4.242.342.275.6.538.59.574-.096.36-6.12 5.53-6.354 5.468-.054-.015-.779-.847-1.62-1.855-.835-.996-2.031-2.41-2.66-3.129-.782-.905-1.105-1.359-1.026-1.434.073-.058.783-.65 1.595-1.303a52.453 52.453 0 0 0 2.18-1.899c1.005-1.006 1.04-1.026 1.6-.664Zm-16.48 10.11c.723-.28 1.932-.826 2.702-1.21l1.406-.705.444.796c.24.44 1.086 2.117 1.869 3.738l1.436 2.936-.804.403c-2.042 1.057-6.808 3.046-7.12 2.982-.119-.022-1.021-3.724-1.629-6.65-.303-1.502-.311-1.543.037-1.653.203-.07.955-.353 1.66-.637Zm10.714-5.576c.36.386 4.64 5.476 4.91 5.838.25.328.246.347-.36.803-.339.257-2.008 1.327-3.708 2.37-2.67 1.632-3.122 1.878-3.208 1.73-.23-.4-3.014-6.065-3.293-6.681l-.283-.675 1.571-.923a60.527 60.527 0 0 0 2.604-1.64l1.29-.882c.17-.129.319-.108.477.06Zm22.622-12.33c3.075 1.076 7.29 2.727 7.383 2.887.205.355-3.175 7.016-3.717 7.345-.069.04-.917-.4-1.874-.976-1.511-.927-4.763-2.784-5.69-3.255-.31-.14-.296-.195.23-1.078.653-1.063 2.105-3.96 2.38-4.697.107-.29.21-.533.252-.542.034-.02.498.124 1.036.317ZM1.972 67.698c.33 1.045.417 1.62.403 2.573-.025.67-.008 1.727.029 2.346.03.607.037 1.121.003 1.141-.068.04-.592-2.874-.69-3.915-.222-2.311-.308-3.542-.247-3.516.036.01.268.623.502 1.372ZM87.245 19.38c2.186.75 3.372 1.193 5.035 1.91l1.415.6-.063 1.028c-.113 1.574-.434 3.314-.972 5.287l-.49 1.792-.673-.374c-1.101-.614-5.488-2.853-6.461-3.297l-.9-.396.488-1.927c.53-2.014.754-3.21.814-4.373.018-.391.07-.725.115-.752.046-.026.805.206 1.692.502Zm8.161-3.95c.661.274 2.03.901 3.03 1.392l1.827.895.266.777c.668 1.87 1.211 4.712 1.197 6.245l-.018.68-1.146-.664c-1.758-1.012-4.53-2.46-5.448-2.86l-.814-.354-.03-1.004c-.024-1.282-.358-3.39-.708-4.606a20.243 20.243 0 0 1-.336-1.163c-.05-.245.136-.185 2.18.662ZM26.692 53.563c.891.064 4.052-.084 5.332-.244.634-.09 1.189-.106 1.222-.05.033.058.113 1.2.2 2.538.085 1.337.241 3.244.342 4.238.12.998.184 1.875.166 1.977-.098.438-8.574.911-8.819.488-.204-.354.58-8.764.832-8.91.069-.04.404-.065.725-.037Zm72.935-40.036c1.98 1.342 3.332 2.497 4.527 3.88.789.917 2.552 3.496 2.427 3.569-.035.02-.779-.45-1.661-1.054a64.554 64.554 0 0 0-2.822-1.8l-1.227-.725-1.306-2.157c-.723-1.199-1.49-2.342-1.692-2.56-.679-.675-.113-.408 1.754.847ZM73.64 30.955c2.367 1.301 5.299 3.053 5.391 3.213.1.172-.548 1.11-2.27 3.277-1.462 1.85-3.495 4.137-3.64 4.098-.035-.01-.92-.749-1.955-1.645a153.883 153.883 0 0 0-3.282-2.754c-.771-.622-1.42-1.192-1.453-1.25-.04-.068.548-.819 1.307-1.669.753-.861 1.86-2.217 2.456-3.034.968-1.306 1.102-1.444 1.35-1.358.139.057 1.086.562 2.096 1.122Zm-51.093 32.06c.983.118 1.81.204 1.835.22.03-.001.027.945.007 2.1a116.88 116.88 0 0 0 .015 4.488c.033 1.323.028 2.423-.018 2.45-.252.145-4.217-.492-6.26-1.02l-2.408-.607.203-2.343c.105-1.295.329-3.284.502-4.436l.307-2.083 2.006.519c1.105.277 2.816.6 3.81.712ZM5.286 73.62c.31.354.88.97 1.276 1.367l.724.725.131 2.393c.055 1.31.179 2.977.264 3.705.097.721.09 1.29.017 1.27-.09-.024-.6-.537-1.14-1.156-.766-.853-1.238-1.51-2.076-2.962l-1.07-1.852-.19-1.491a50.404 50.404 0 0 1-.236-3.446l-.05-1.937.898 1.372c.483.757 1.147 1.67 1.451 2.012Zm7.975-3.4c1.791.78 1.847.823 1.82 1.174-.072.85-.062 4.564-.001 6.175.05 1.037.079 1.905.07 1.941-.072.484-5.442-2.453-6.856-3.74-.37-.35-.398-.426-.384-1.379.026-1.54.184-3.826.373-5.505l.164-1.512 1.657 1.101c.912.602 2.325 1.387 3.157 1.745Zm24.476-17.99a68.254 68.254 0 0 0 3.032-.82c.615-.203 1.154-.3 1.193-.232.046.08.377 1.261.726 2.63.36 1.363.865 3.19 1.118 4.05.26.871.46 1.64.44 1.712-.064.311-8.947 2.59-9.517 2.446-.18-.048-.606-4.376-.783-8.009l-.045-.949.966-.176c.526-.091 1.822-.382 2.87-.652Zm29.66-14.715c2.38 1.933 5.266 4.475 5.196 4.591-.176.33-3.011 2.943-4.984 4.57-1.865 1.549-2.813 2.203-2.919 2.02-.052-.091-1.25-1.61-2.662-3.37-1.42-1.773-2.604-3.269-2.637-3.326-.033-.057.4-.444.97-.88 1.21-.943 4.576-3.877 4.884-4.268.484-.615.635-.565 2.151.663Zm19.051-9.826c2.76 1.349 5.29 2.693 5.396 2.876.099.172-.79 2.301-1.711 4.113-.698 1.378-2.461 4.424-2.598 4.503-.035.02-.633-.382-1.308-.892a171.02 171.02 0 0 0-3.71-2.598c-1.357-.924-2.451-1.71-2.446-1.728l.843-1.417c.951-1.6 1.983-3.614 2.534-4.984.21-.533.431-.996.477-1.022.046-.027 1.183.49 2.523 1.15ZM45.372 49.745a80.018 80.018 0 0 0 3.51-1.524c.931-.446 1.72-.795 1.768-.792.072.019 2.147 4.035 3.395 6.591l.584 1.172-1.555.791c-2.33 1.193-7.811 3.474-8.136 3.387-.09-.024-.381-1.03-1.523-5.173l-.896-3.294.514-.22a215 215 0 0 1 2.338-.938Zm15.837-4.464a603.254 603.254 0 0 1 2.73 3.408l.379.498-.407.326c-.89.728-4.816 3.223-6.688 4.258l-2.009 1.114-.393-.734c-1.047-1.971-3.267-6.345-3.408-6.72l-.167-.423 2.474-1.443c1.366-.804 2.917-1.76 3.45-2.13.528-.38 1.125-.771 1.338-.878l.36-.194 2.34 2.918Zm35.073-22.155c2.116 1.05 5.222 2.838 5.354 3.067.317.549-.533 5.81-1.265 7.895-.193.538-.374.963-.417.942-.036-.01-1.299-.85-2.81-1.884-1.516-1.015-3.14-2.059-3.593-2.316l-.839-.476.573-2.175a34.55 34.55 0 0 0 .811-4.035c.128-1.02.26-1.873.294-1.893.035-.02.886.373 1.892.874Zm7.464-3.258a66.18 66.18 0 0 1 2.717 1.907l.838.66.405 1.23c.231.69.52 1.772.659 2.408.289 1.373.553 4.285.416 4.364-.064.021-.825-.53-1.7-1.229a55.79 55.79 0 0 0-3.137-2.29l-1.54-1.031-.151-1.925c-.139-1.719-.556-3.947-.968-5.188l-.158-.458.365.156c.2.082 1.219.713 2.254 1.396ZM26.139 63.272c1.67.042 4.413-.093 6.21-.308a37.22 37.22 0 0 1 1.692-.184c.03-.002.16.883.302 1.975.212 1.555.91 5.984 1.08 6.86.049.217-1.041.389-4.204.614-2.466.19-5.96.21-6.06.038-.165-.285-.287-8.919-.127-9.011.012-.007.521.004 1.107.016Zm81.26-43.15c1.891 1.956 3.088 3.37 3.863 4.553l.717 1.11-1.496-1.377a82.698 82.698 0 0 0-2.086-1.844c-.528-.412-.709-.673-1.45-2.09-.468-.888-.836-1.605-.8-1.596.036.01.602.567 1.252 1.244ZM16.927 71.579c1.608.489 3.422.859 5.603 1.124l1.984.242.117 1.365c.148 1.973.525 5.292.698 6.304.082.486.145.938.114 1.017-.072.377-5.9-.557-8.33-1.334l-1.352-.439-.077-1.693c-.14-3.304-.08-6.738.103-6.843.057-.033.567.084 1.14.257ZM81.55 35.762c2.217 1.464 5.338 3.701 5.47 3.93.1.171-1.168 2.016-2.614 3.841-.946 1.187-3.882 4.498-4.1 4.623-.102.06-.347-.074-.605-.336-.837-.843-2.62-2.558-4.33-4.147-.959-.894-1.725-1.64-1.715-1.677.016-.024.591-.692 1.29-1.461 1.424-1.6 2.994-3.527 3.964-4.91.353-.525.693-.965.743-1.01.046-.026.905.485 1.897 1.147ZM9.405 77.324a26.859 26.859 0 0 0 4.847 2.613l.945.369.235 2.15c.13 1.175.345 2.79.488 3.59.143.802.284 1.681.336 1.956l.071.493-.946-.399c-2.16-.888-4.709-2.373-6.308-3.69-.46-.375-.462-.405-.678-1.941-.186-1.326-.555-6.083-.475-6.129.012-.006.684.444 1.485.988Zm-3.417 4.853c.407.467 1.027 1.145 1.397 1.496l.66.64.286 1.527c.17.847.525 2.334.796 3.306.265.96.424 1.737.351 1.717-.078-.03-.52-.477-.988-.999-.629-.72-1.148-1.487-2.07-3.058-1.294-2.24-1.584-3.033-2.365-6.393l-.29-1.266.746 1.079a29.732 29.732 0 0 0 1.477 1.951ZM35.89 62.444c1.592-.279 4.518-.993 6.441-1.57 1.115-.338 2.057-.608 2.093-.598.037.01.51 1.383 1.03 3.05.537 1.67 1.155 3.585 1.397 4.268.328.939.377 1.261.24 1.34-.812.469-10.387 2.842-10.898 2.695-.162-.044-.44-1.53-.987-5.116-.586-3.945-.587-3.868-.295-3.916.141-.02.575-.087.979-.153Zm58.664-30.272c1.015.649 2.616 1.706 3.547 2.342l1.697 1.17-.23.682c-.644 1.896-2.78 6.117-4.114 8.137l-.514.8-1.192-1.035c-.66-.564-2.19-1.814-3.403-2.806-1.218-.974-2.214-1.801-2.24-1.847-.02-.034.375-.75.88-1.59 1.058-1.785 2.337-4.322 3.003-5.942.257-.636.517-1.137.59-1.117.072.019.961.557 1.976 1.206ZM74.986 44.14c2.248 2.072 4.76 4.523 4.741 4.595-.034.126-2.574 2.538-4.075 3.847-1.68 1.473-4.824 3.974-4.95 3.94-.048-.003-.695-.834-1.441-1.836a306.41 306.41 0 0 0-2.678-3.53c-.725-.938-1.311-1.742-1.297-1.797.01-.036.81-.71 1.757-1.471 1.744-1.388 4.357-3.674 5.304-4.648.841-.867.69-.917 2.639.9Zm29.238-16.316c.964.693 2.4 1.754 3.164 2.365 1.397 1.1 1.397 1.1 1.415 1.607.037 1.594-.844 6.432-1.525 8.289l-.304.846-1.562-1.385c-.85-.76-2.27-1.952-3.146-2.65-.876-.699-1.61-1.311-1.637-1.357-.026-.046.175-.832.446-1.736.542-1.807 1.046-4.445 1.16-6.096.037-.57.102-1.065.148-1.091.034-.02.865.521 1.841 1.208Zm5.416-3.371c1.278 1.183 2.544 2.48 3.175 3.228.421.519 1.059 2.284 1.451 4.07.31 1.437.627 4.547.454 4.51-.061-.026-.602-.567-1.191-1.218a58.863 58.863 0 0 0-2.579-2.566l-1.479-1.372-.107-1.797c-.088-1.764-.552-4.362-.933-5.392-.118-.282-.163-.546-.117-.572.045-.027.644.482 1.326 1.109ZM47.939 58.918a71.075 71.075 0 0 0 3.725-1.602c3.745-1.75 3.34-1.608 3.475-1.214.065.191.703 1.454 1.423 2.807.702 1.347 1.303 2.494 1.324 2.558.015.052.307.585.64 1.186l.608 1.081-.697.403c-2.012 1.162-9.775 4.455-10.445 4.43-.213 0-.477-.746-2.038-5.668l-.918-2.885.405-.142c.232-.073 1.354-.507 2.498-.955Zm17.976-7.65c3.073 4.002 4.22 5.566 4.198 5.686-.056.246-3.305 2.38-6.822 4.502l-3.584 2.161-.198-.343a342.168 342.168 0 0 1-2.04-3.929 472.056 472.056 0 0 0-1.903-3.718c-.053-.092 1.085-.84 3.75-2.455 2.1-1.274 4.147-2.562 4.555-2.858.396-.29.778-.526.833-.511.065.007.613.666 1.211 1.465Zm-39.583 21.71c1.667.089 4.763-.067 7.124-.333 1.298-.155 2.118-.186 2.148-.082.024.093.246 1.139.489 2.325.247 1.168.68 3.052.953 4.16.28 1.118.502 2.057.5 2.105-.012.113-3.337.478-5.5.614-2.511.139-5.64.131-5.846-.04-.223-.176-1.224-8.668-1.03-8.78.023-.013.54.009 1.162.03Zm-5.427 8.819c1.124.204 2.633.415 3.352.473.91.07 1.336.174 1.363.326.036.116.25 1.227.472 2.456.24 1.233.624 3.008.864 3.952.252.937.4 1.72.365 1.74-.188.124-4.285-.452-6.065-.842-1.912-.406-4.127-1.047-4.226-1.219-.178-.309-.88-4.827-1.07-6.79l-.115-1.336 1.505.442c.831.252 2.426.611 3.555.798ZM9.886 85.735c1.448 1.054 3.161 2.016 4.996 2.817l1.681.721.183.977c.184.9.89 3.388 1.534 5.349.146.464.218.88.156.931-.136.109-2.695-1.05-4.025-1.823-.563-.315-1.624-1.044-2.378-1.584-1.078-.81-1.385-1.106-1.52-1.47-.556-1.493-1.808-6.486-1.653-6.56.034-.02.5.26 1.026.642ZM88.683 40.88c.85.653 5.133 4.217 5.666 4.717.207.2.173.327-.261.974-1.03 1.57-3.008 4.084-4.958 6.277-1.126 1.245-2.097 2.308-2.177 2.355-.092.052-.612-.425-1.365-1.255a239.77 239.77 0 0 0-2.983-3.186c-.984-1.018-1.811-1.897-1.857-1.977-.04-.068.427-.658 1.038-1.316 1.462-1.56 3.716-4.31 4.811-5.872.492-.68.952-1.281 1.014-1.332.08-.047.558.226 1.072.615ZM38.378 71.876c2.402-.487 5.431-1.26 7.566-1.944 1.068-.342 1.472-.408 1.552-.27.059.102.566 1.456 1.133 3.018a203.42 203.42 0 0 0 1.477 4.01c.25.618.426 1.187.4 1.248-.266.49-11.863 3.374-12.26 3.055-.088-.072-.345-.914-.574-1.865-.704-2.962-1.523-6.757-1.455-6.797.023-.013.998-.225 2.161-.455ZM9.056 91.32l1.093 1.153.586 1.491c.321.82.83 1.99 1.125 2.582.29.61.453 1.05.355.984-.706-.43-3.445-4.779-4.588-7.26-.49-1.058-.478-1.065-.083-.592.229.264.912.998 1.512 1.642Zm92.798-54.003c1.647 1.32 4.637 3.939 4.782 4.19.37.64-4.57 10.382-5.168 10.164-.073-.02-.656-.582-1.275-1.23a112.467 112.467 0 0 0-2.755-2.74c-.873-.852-1.695-1.642-1.816-1.771-.164-.18-.077-.398.531-1.404 1.46-2.383 2.984-5.366 3.778-7.425.194-.508.407-.905.467-.88.066.008.723.513 1.456 1.096Zm7.905-5.159c.121.129.787.781 1.482 1.431a60.51 60.51 0 0 1 2.422 2.505l1.153 1.285-.118 1.486c-.145 2.02-.732 5.041-1.308 6.868-.27.826-.508 1.497-.526 1.492-.036-.01-.429-.453-.869-.977-.428-.53-1.624-1.836-2.641-2.91l-1.849-1.936.576-1.933c.624-2.114 1.068-4.382 1.221-6.254.05-.654.134-1.22.162-1.252.046-.026.175.066.295.195Zm-28.43 18.137c1.499 1.513 5.06 5.386 5.032 5.494-.092.343-4.794 4.582-7.408 6.655-2.704 2.156-2.573 2.065-2.665 1.905-.046-.08-1.144-1.611-2.447-3.42-1.308-1.79-2.458-3.413-2.557-3.584-.172-.297-.14-.347.454-.796 2.135-1.584 6.616-5.466 7.972-6.92.173-.176.359-.329.434-.357.07-.01.606.443 1.185 1.023Zm35.265-17.494c1.543 2.462 1.904 3.351 2.39 5.83.305 1.531.556 3.84.419 3.92-.046.026-.484-.575-.985-1.337a41.03 41.03 0 0 0-1.932-2.711l-1.037-1.322-.115-1.915c-.068-1.043-.288-2.639-.484-3.532a240.83 240.83 0 0 1-.401-1.856c-.072-.416.797.774 2.145 2.923ZM50.457 68.348c2.463-.935 4.89-1.985 6.692-2.904.758-.376 1.569-.768 1.806-.86l.45-.168 1.42 2.641a373.365 373.365 0 0 1 2.101 3.984l.66 1.327-.79.456c-2.217 1.28-10.99 4.989-11.512 4.878-.101-.017-.386-.615-.702-1.454-.843-2.227-2.421-6.544-2.452-6.755-.044-.234.014-.267 2.327-1.145Zm-22.284 14.13c1.564.042 5.785-.199 7.739-.458a210.12 210.12 0 0 1 1.767-.213c.036.01.388 1.148.79 2.531.403 1.384.98 3.2 1.267 4.04.293.853.516 1.608.508 1.674-.045.239-6.06.83-8.42.836-1.573-.006-3.646-.059-3.731-.101-.178-.096-1.445-5.644-1.816-7.976l-.072-.416.457.026c.255.02.925.045 1.512.057Zm42.588-24.77c.12.128 1.178 1.59 2.36 3.24 1.17 1.658 2.273 3.2 2.446 3.42.343.488.398.426-1.74 1.95-1.69 1.19-9.45 5.837-9.59 5.75-.13-.092-3.005-5.414-3.749-6.966l-.492-1.011 4.172-2.516c2.306-1.392 4.5-2.766 4.902-3.074 1.319-.99 1.462-1.058 1.691-.794ZM23.197 90.914c1.188.183 3.677.454 4.132.45.195-.006.304.236.653 1.422.482 1.627 1.492 4.565 1.901 5.564.16.38.26.688.226.708-.034.02-.604-.017-1.271-.09-3.076-.312-6.608-1.017-8.506-1.69l-.979-.349-.395-1.159c-.622-1.79-1.359-4.413-1.718-6.066-.025-.122.841.033 2.343.416 1.315.323 2.94.681 3.614.794Zm-11.333 2.84c1.23.996 4.031 2.52 6.144 3.327.83.329.917.4 1.106.886.405 1.046 1.746 3.976 2.252 4.904.285.521.466.966.409.999-.183.105-2.738-1.072-4.186-1.944-.773-.468-1.889-1.211-2.454-1.662l-1.055-.824-1.04-1.96c-1.126-2.11-2.072-4.276-1.843-4.195.079.03.381.237.667.468ZM95.33 46.48c3.105 2.948 5.878 5.798 5.823 5.967-.085.247-2.507 3.551-3.548 4.838-1.145 1.423-4.32 4.979-4.572 5.124-.103.06-.403-.224-.909-.862-.417-.537-1.626-1.972-2.683-3.222-1.05-1.238-1.967-2.325-2.027-2.428-.073-.125.233-.546 1.013-1.361 1.572-1.686 4.136-4.797 5.379-6.551.589-.828 1.126-1.535 1.206-1.58.062-.052.218-.02.318.075ZM41.316 81.11c2.338-.466 6.705-1.615 8.536-2.245.446-.151.847-.276.901-.262.059-.003.31.538.575 1.208a244.1 244.1 0 0 0 1.662 4.04l1.193 2.833-.362.163c-.938.435-6.875 2.034-9.645 2.596-2.851.58-3.069.598-3.262.344-.23-.294-.982-2.573-2.01-6.096-.505-1.72-.56-2.024-.348-2.055.13-.013 1.363-.253 2.76-.526Zm67.343-37.63a65.59 65.59 0 0 1 2.601 2.842c1.1 1.27 1.352 1.628 1.312 1.85-.05.257-.923 2.361-1.649 3.955-.905 1.97-3.501 6.426-3.717 6.368-.054-.015-.596-.662-1.21-1.436-.973-1.237-3.195-3.871-3.814-4.52-.183-.184-.144-.329.272-.98 1.393-2.13 3.318-5.819 4.249-8.14.246-.63.516-1.166.586-1.176.075-.028.689.532 1.37 1.236Zm8.272-3.39c.69.959 1.547 2.232 1.904 2.85.633 1.097.642 1.138.587 2.1-.092 1.714-.594 4.595-1.165 6.694-.311 1.124-.604 2.07-.649 2.097-.058.033-.555-.67-1.122-1.547a49.469 49.469 0 0 0-2.072-2.981l-1.034-1.37.718-2.61c.647-2.339 1.107-4.815 1.217-6.525.03-.398.089-.585.206-.515.092.053.726.861 1.41 1.808ZM87.698 57.183c1.416 1.606 4.768 5.722 4.75 5.824-.055.169-2.926 2.879-4.797 4.523a107.22 107.22 0 0 1-5.409 4.388l-.502.397-.727-1.075c-.396-.58-1.505-2.21-2.47-3.619-.949-1.404-1.73-2.599-1.716-2.653.015-.054.748-.66 1.624-1.334 2.067-1.62 5.075-4.226 6.813-5.915.76-.743 1.438-1.364 1.513-1.392.082-.017.49.373.921.856ZM13.56 99.94c.032.134-.03.078-.143-.116-.13-.2-.149-.31-.08-.244.08.06.173.22.223.36Zm106.743-60.134c1.412 3.422 2.106 5.918 2.29 8.296l.081.96-.295-.67c-.163-.362-.743-1.551-1.282-2.643l-.995-1.986-.063-1.457a27.33 27.33 0 0 0-.265-2.729c-.119-.708-.182-1.267-.146-1.257.029-.002.33.678.675 1.486Zm-90.2 51.665c1.93.043 7.217-.28 9.146-.555.674-.1 1.247-.11 1.287-.042.04.069.346.837.664 1.705.542 1.44 2.156 5.371 2.314 5.645.12.206-.295.308-2.062.52-2.62.294-5.816.462-8.313.44-1.864-.006-2.234-.067-2.373-.307-.343-.594-2.506-6.876-2.495-7.279-.004-.165-.063-.161 1.832-.127ZM53.78 77.48c2.233-.831 5.606-2.276 8.261-3.565 1.023-.5 1.904-.901 1.922-.896.108.029 4.162 7.658 4.138 7.748-.039.144-3.78 1.954-6.46 3.12-2.375 1.036-6.584 2.643-6.783 2.59-.126-.034-.728-1.394-2.231-5.053-1.219-2.956-1.232-2.978-.962-3.119.114-.066 1.062-.43 2.115-.825ZM25.554 99.143a56.94 56.94 0 0 0 3.249.426c1.528.139 1.68.189 1.794.519.137.424 1.37 3.035 2.34 5.005l.706 1.407-1.356-.132a41.343 41.343 0 0 1-7.05-1.28l-2.345-.628-1.014-1.915c-.548-1.055-1.202-2.4-1.464-3.01-.8-1.916-.948-1.801 1.442-1.2 1.148.298 2.82.66 3.698.808ZM76.553 65.81c.721.88 4.615 6.726 4.58 6.852-.175.514-9.244 6.298-11.535 7.347l-.847.382-.91-1.578a204.602 204.602 0 0 1-2.13-3.847l-1.213-2.287 3.2-1.848c2.767-1.597 7.29-4.483 7.36-4.706.02-.043.282-.224.59-.402.572-.33.579-.319.905.087Zm-57.576 37.571c.634.305 1.654.752 2.255 1l1.102.431 1.327 2.008c.729 1.104 1.558 2.302 1.846 2.669.281.356.514.679.504.715-.027.138-2.592-1.11-3.948-1.928-2.565-1.537-3.83-2.727-5.796-5.418-1.437-1.961-1.439-1.99.143-.967.781.509 1.927 1.173 2.567 1.49Zm83.594-49.483c1.116 1.246 2.851 3.354 3.515 4.267.27.362.565.74.659.824.372.38-4.47 6.62-7.91 10.221l-.522.546-.36-.463c-.192-.255-.767-1.066-1.283-1.774a96.948 96.948 0 0 0-2.112-2.866c-.649-.86-1.166-1.598-1.147-1.67.014-.054.458-.554.98-1.1 2.147-2.276 5.54-6.46 6.818-8.417.204-.332.401-.598.419-.593.037.01.454.47.943 1.025Zm11.811-3.648c.463.617 1.314 1.879 1.901 2.79l1.063 1.657-.506 1.314c-.771 1.939-2.657 5.696-3.868 7.69l-1.078 1.75-.826-1.245a526.777 526.777 0 0 0-2.116-3.138c-1.078-1.603-1.263-1.923-1.172-2.082.058-.11.692-1.177 1.405-2.397 1.439-2.446 2.378-4.33 3.289-6.502.696-1.698.554-1.708 1.908.163ZM47.83 89.224c1.462-.372 3.54-.946 4.618-1.295 1.086-.337 1.98-.61 1.999-.605.029-.001.61 1.218 1.304 2.708.692 1.49 1.499 3.204 1.79 3.814.453.942.498 1.1.293 1.141a34.93 34.93 0 0 0-1.213.38c-2.842.94-7.474 2.105-10.51 2.654a41.2 41.2 0 0 1-1.856.325c-.149-.021-3.077-7.31-3.06-7.624.003-.047.901-.26 1.99-.462a98.214 98.214 0 0 0 4.645-1.036Zm72.959-42.794c.927 1.843 1.909 4.31 1.929 4.847.038.725-.139 2.504-.419 4.159-.269 1.619-1.204 5.253-1.33 5.22-.048-.004-.44-.814-.871-1.8-.437-.967-1.09-2.282-1.459-2.922l-.662-1.173.488-1.532c.592-1.85 1.157-4.463 1.395-6.507.105-.822.205-1.52.239-1.54.023-.013.346.547.69 1.248ZM93.21 63.877c1.35 1.705 4.63 6.199 4.608 6.318-.024.09-2.08 2.1-3.425 3.335-1.916 1.776-6.843 5.81-7.61 6.252-.16.093-.357-.144-1.417-1.849a535.059 535.059 0 0 0-2.26-3.543l-1.017-1.577 2.141-1.678c2.366-1.869 5.67-4.753 7.38-6.44.619-.617 1.155-1.14 1.194-1.178.046-.026.215.135.406.36ZM33.353 99.793c2.397.033 5.804-.166 8.434-.495l2.078-.255.569 1.196a140.78 140.78 0 0 0 1.677 3.3c.619 1.152 1.1 2.17 1.08 2.242-.116.433-9.668 1.024-12.374.773l-.481-.043-.831-1.623c-.831-1.624-1.821-3.736-2.177-4.643-.12-.312-.13-.489-.024-.49.095.007 1.019.022 2.049.038Zm-4.034 6.795c1.003.153 2.48.336 3.272.413l1.445.126 1.116 1.749c.62.968 1.47 2.23 1.9 2.79.425.577.763 1.083.754 1.119-.039.145-4.01-.398-6.017-.81-2.755-.573-4.355-1.128-4.867-1.671-.583-.639-2.55-3.36-3.078-4.275l-.455-.789 2.054.522a43.65 43.65 0 0 0 3.876.826Zm31.338-21.63c2.365-1 6.014-2.679 6.974-3.233.366-.212.742-.352.834-.299.085.042 1.035 1.689 2.112 3.659l1.942 3.574-.687.396c-2.515 1.452-12.586 5.711-13.133 5.555-.199-.053-3.567-7.102-3.564-7.44.003-.047.8-.384 1.765-.744a99.328 99.328 0 0 0 3.757-1.468Zm21.28-11.22c.548.737 4.184 6.427 4.16 6.517-.126.47-12.502 8.209-12.905 8.091-.097-.035-1.07-1.669-2.165-3.643l-1.978-3.584 4.406-2.666c2.42-1.458 5.07-3.125 5.876-3.712 2.38-1.71 2.144-1.619 2.607-1.002Zm-57.462 36.5c.432.193 1.136.488 1.577.645.684.26.938.464 1.875 1.478.6.644 1.45 1.51 1.883 1.916.444.399.803.756.793.792-.068.252-3.635-1.834-5.442-3.169-.942-.706-3.703-3.06-3.81-3.272-.027-.046.492.218 1.147.587a42.64 42.64 0 0 0 1.977 1.023Zm99.266-59.064c.301 1.472.237 1.784-.141.6-.22-.697-.353-2.037-.209-1.999.036.01.198.633.35 1.399Zm-16.304 8.803c.207.2 2.043 2.906 3.25 4.785l.81 1.27-.979 1.42c-2.465 3.572-7.522 9.494-7.847 9.194-.069-.066-.867-1.343-1.78-2.844-.923-1.494-1.817-2.884-1.99-3.104l-.313-.383 1.08-1.142c2.384-2.55 4.996-5.735 6.694-8.179.871-1.265.843-1.233 1.075-1.017Zm11.118-2.974a71.204 71.204 0 0 1 1.432 3.06l.66 1.54-.283.804c-.684 2.01-2.67 5.962-4.522 9.013l-.577.928-.224-.572c-.13-.306-.813-1.726-1.525-3.144l-1.29-2.578.879-1.407c1.581-2.544 3.618-6.54 4.268-8.424.116-.327.257-.637.314-.67.057-.033.425.578.868 1.45Zm5.274-2.191c.827 3.517.85 4.692.19 8.488-.308 1.763-.906 3.922-1.05 3.883-.054-.014-.235-.565-.387-1.224a36.512 36.512 0 0 0-.763-2.67l-.478-1.461.734-2.741c.401-1.497.831-3.498.964-4.429.122-.924.268-1.648.313-1.598.049.033.262.824.477 1.752ZM53.752 96.84c1.629-.453 3.343-.97 3.8-1.127l.852-.294.215.531c.125.295.92 1.832 1.786 3.436.858 1.593 1.518 2.919 1.472 2.946-.057.033-1.038.34-2.188.699-2.845.881-6.656 1.831-9.382 2.337l-2.276.415-.693-1.2c-.713-1.235-2.707-5.19-2.765-5.477-.03-.105 1.123-.404 3.093-.795 1.718-.351 4.464-1.007 6.086-1.471Zm-16.949 10.38c2.214.033 6.693-.236 9.182-.545l1.714-.227 1.382 2.235c.772 1.231 1.606 2.518 1.887 2.874.264.351.442.659.396.686-.045.026-.908.143-1.906.262-2.548.313-6.516.515-8.791.457l-1.937-.056-.765-1.006c-1.189-1.585-3.223-4.633-3.132-4.686.023-.013.91-.007 1.97.006Zm62.072-35.486c.362.522 1.273 1.993 2.023 3.267l1.376 2.33-1.487 1.438a134.84 134.84 0 0 1-3.452 3.183c-1.967 1.715-6.2 5.103-6.337 5.076-.043-.021-.984-1.52-2.07-3.347l-2.004-3.34.377-.218c1.223-.706 7.133-5.704 9.416-7.982.614-.599 1.201-1.166 1.316-1.232.153-.104.298.041.842.825Zm-68.758 40.459c2.12.529 4.66.968 6.758 1.144 1.492.129 1.613.181 2.177.893.428.53 2.94 3.165 3.275 3.429.342.275.059.286-1.663.076-2.294-.277-5.042-.839-6.695-1.379-1.158-.368-1.555-.581-2.321-1.221-.766-.64-3.58-3.375-3.505-3.403.012-.007.894.201 1.974.461ZM61.548 94.29c2.21-.819 6.81-2.804 8.722-3.77a55.372 55.372 0 0 1 1.977-.959l.669-.294 1.88 3.335 1.886 3.347-1.151.619c-3.06 1.644-8.578 4.022-12.299 5.286l-.701.238-1.02-1.926c-.56-1.05-1.37-2.61-1.804-3.44l-.783-1.515.348-.11c.187-.047 1.212-.41 2.276-.81Zm25.246-12.96c.212.29 1.13 1.772 2.014 3.304l1.617 2.801-.36.3c-1.596 1.302-8.495 5.697-11.007 6.995l-1.807.936-1.934-3.35-1.934-3.35 3.475-2.006c3.27-1.888 6.586-3.985 8.29-5.259 1.314-.972 1.191-.947 1.646-.37Zm25.803-13.129c.746 1.292 1.637 3.125 2.086 4.299.175.462.143.512-.926 2.013a82.155 82.155 0 0 1-2.284 3.041c-1.275 1.62-4.784 5.628-5.093 5.806-.137.08-.224.008-.34-.352-.091-.237-.777-1.61-1.555-3.035l-1.385-2.585 2.283-2.567c2.294-2.575 4.109-4.843 5.504-6.837.408-.586.768-1.099.825-1.132.039-.037.443.583.885 1.35Zm9.123-3.102c.909 3.316.911 3.346.281 4.974-.291.763-.966 2.235-1.472 3.259-.917 1.87-2.935 5.399-3.061 5.365-.036-.01-.232-.613-.435-1.334a49.885 49.885 0 0 0-.915-2.826c-.298-.834-.536-1.535-.531-1.553-.006-.012.436-.724.953-1.571 1.604-2.634 3.461-6.282 4.126-8.114.141-.417.245-.553.345-.459.064.085.385 1.09.709 2.259Zm-69.56 40.495a84.341 84.341 0 0 0 7.874-2.045l2.235-.697 1.255 1.989c.686 1.083 1.515 2.388 1.842 2.9l.598.905-.606.243c-2.184.865-12.07 3.28-12.992 3.187-.375-.042-.973-.84-2.758-3.667l-1.307-2.08.93-.157c.516-.084 1.831-.34 2.93-.578ZM32.654 116.72c.429.347.442.37.138.24-.187-.059-.572-.279-.85-.469l-.529-.335.39.095c.217.058.596.266.85.469Zm92.223-52.33c-.036 2.947-.523 6.75-1.056 8.414-.184.579-.182.608-.396-1.768-.078-1.007-.19-1.887-.23-1.956-.046-.08.184-.975.501-2.011.327-1.043.684-2.484.824-3.22.127-.73.275-1.318.312-1.308.036.01.062.848.045 1.849Zm-83.28 49.179c2.52.009 6.02-.213 8.561-.537l1.725-.234 1.01 1.276a47.72 47.72 0 0 0 1.821 2.15c.461.481.838.949.88 1.047.104.367-6.435.895-9.989.813-1.93-.044-1.948-.049-2.542-.575-1.332-1.198-3.845-3.862-3.72-3.935.023-.013 1.047-.009 2.253-.005Zm-2.18 4.596c.771.12 1.969.267 2.676.331 1.266.107 1.285.112 2.36.97.607.472 1.493 1.135 1.985 1.46.5.337.896.626.88.651-.018.102-2.654-.266-4.44-.638-3.197-.654-4.724-1.266-7.345-2.954l-1.317-.856 1.9.413c1.049.232 2.538.516 3.302.623Zm63.898-39.162c.627 1.086 2.516 4.859 2.491 4.949-.033.126-3.526 3.423-4.935 4.679-1.35 1.175-5.748 4.75-6.148 4.982-.114.066-3.417-5.786-3.369-5.967.015-.054.747-.66 1.635-1.34 3.04-2.365 7.514-6.259 8.924-7.804.71-.776.656-.79 1.402.501Zm-38.187 22.809a108.469 108.469 0 0 0 9.03-3.871l2.874-1.385 1.757 2.964 1.757 2.964-1.395.699a109.384 109.384 0 0 1-6.367 2.913c-2.56 1.083-5.967 2.363-6.148 2.315-.108-.029-2.808-4.125-3.618-5.502-.152-.263-.14-.269 2.11-1.097Zm50.111-27.925c.185.32 1.113 3.168 1.463 4.46l.306 1.165-.851 1.192c-1.487 2.124-3.252 4.348-5.297 6.641-1.103 1.231-2.019 2.233-2.055 2.223-.054-.014-.296-.591-.544-1.286-.367-.978-1.577-3.998-1.676-4.17-.013-.023.508-.598 1.136-1.28 2.4-2.575 5.725-6.69 6.828-8.424.481-.75.543-.802.69-.521Zm-23.103 16.54c.741 1.31 1.48 2.667 1.625 3.025l.263.64-1.247.903c-2.925 2.116-10.23 6.624-11.378 7.012l-.424.138-1.649-2.935-1.648-2.936 4.396-2.63c2.42-1.458 5.116-3.151 5.99-3.777a84.21 84.21 0 0 1 2.152-1.472l.559-.353 1.361 2.385Zm30.769-18.497c.178 2.87.101 3.555-.57 5.192-1.067 2.613-3.631 7.493-3.908 7.409-.047-.003-.154-.689-.244-1.505a43.854 43.854 0 0 0-.368-2.486c-.123-.661-.129-1.069-.002-1.218.793-.977 3.463-5.963 4.399-8.196.229-.528.453-.932.497-.881.056.044.143.801.196 1.685Zm-66.088 39.91c2.568-.568 5.887-1.447 7.934-2.126.813-.256 1.498-.468 1.534-.459.036.01.64.82 1.355 1.794a98.692 98.692 0 0 0 1.732 2.339l.452.546-.606.244c-1.906.765-8.6 2.45-11.6 2.932-.996.148-1.186.136-1.39-.112-.14-.163-.685-.763-1.205-1.347-1.178-1.302-2.412-2.831-2.387-2.921.014-.054.457-.157 1.002-.243.534-.08 1.965-.373 3.18-.647Zm-10.506 6.859c2.17.012 6.077-.246 8.271-.538l1.761-.224.722.696c.408.39 1.268 1.113 1.895 1.619.64.5 1.15.937 1.141.973-.029.108-3.964.474-6.076.566-1.162.046-2.8.061-3.63.022-1.482-.059-1.525-.08-2.704-.801-1.35-.836-3.232-2.22-3.118-2.286.035-.019.82-.031 1.738-.027Zm60.225-33.14c.592 1.29 1.726 4.415 1.666 4.602-.045.133-2.186 2.207-4.127 3.968-1.092 1.012-4.509 3.808-5.743 4.733l-.81.605-.206-.384c-.112-.194-.703-1.377-1.31-2.612l-1.103-2.23 2.366-1.868c2.574-2.035 5.537-4.615 7.296-6.347 1.607-1.598 1.473-1.567 1.971-.467Zm-62.203 36.263c.14.057 1.226.222 2.417.358 1.942.221 2.314.311 3.563.916.882.42 1.245.652 1.008.637-1.481-.136-7.665-1.764-7.368-1.935.069-.04.236-.014.38.024Zm24.857-13.634c3.402-1.263 8.973-3.732 10.802-4.789l.812-.468.442.766c.238.411.945 1.558 1.56 2.544l1.136 1.783-.862.407c-.477.229-1.64.778-2.56 1.218-3.236 1.549-9.651 4.14-10.024 4.05-.245-.057-3.527-4.473-3.474-4.671.015-.054.152-.134.297-.172.157-.045.991-.343 1.87-.668Zm48.129-26.949c.09.42.236 1.571.314 2.578l.162 1.812-.963 1.394a72.363 72.363 0 0 1-2.074 2.798c-1.154 1.46-4.471 5.219-4.579 5.19-.037-.01-.168-.529-.305-1.135a40.857 40.857 0 0 0-.561-2.344l-.334-1.24 1.759-1.915c2.314-2.54 5.307-6.28 6.123-7.666.098-.148.197-.267.233-.257.036.01.134.365.225.785Zm5.358-2.758c-.1.987-.972 4.204-1.453 5.35-.919 2.132-2.432 5.109-2.933 5.719-.1.118-.113-.195-.04-.861.059-.584.115-1.439.116-1.912-.005-.774.071-.986.755-2.097a46.813 46.813 0 0 0 2.829-5.186c.388-.833.719-1.527.742-1.54.011-.007.007.224-.016.527ZM95.219 96.162c1.028 2.044 1.702 3.53 1.664 3.673-.087.325-3.495 2.582-7.692 5.081-3.911 2.335-4.695 2.772-4.82 2.661-.076-.078-.781-1.195-1.568-2.478l-1.419-2.352 3.201-1.848c3.076-1.776 6.614-4.017 8.263-5.228.435-.327.969-.697 1.18-.833l.398-.26.793 1.584Zm-35.448 21.137c2.922-.59 5.95-1.363 8.3-2.125 2.222-.719 2.193-.717 2.672-.125.353.452 2.148 2.373 2.587 2.79.231.217.168.239-3.082 1.185-2.598.753-5.806 1.507-7.85 1.849-1.246.217-1.3.202-1.923-.216-.759-.522-3.389-2.754-3.309-2.8.035-.02 1.214-.274 2.605-.558Zm-7.611 5.141c2.076.005 4.397-.146 6.846-.447 1.99-.249 2.055-.241 2.61.139.32.212 1.068.634 1.672.941.597.295 1.045.57.977.61-.206.119-4.387.429-6.154.458-2.926.028-3.545-.042-5.044-.579-1.706-.631-2.634-1.024-2.531-1.084.034-.02.772-.034 1.624-.038Zm56.362-31.382c.165.285.82 2.925.965 3.863.133.838.337.583-2.642 3.37-1.887 1.775-5.142 4.508-6.51 5.466l-.845.594-.085-.332c-.058-.179-.447-1.144-.874-2.147l-.778-1.823.56-.43c2.97-2.248 6.441-5.212 8.647-7.385.698-.693 1.301-1.285 1.358-1.318.039-.038.138.027.204.142Zm9.169-3.023c-.213 2.562-.338 3.03-1.181 4.264-1.358 2.004-5.692 7.25-5.933 7.176-.048-.003-.127-.826-.21-1.815-.109-1.72-.103-1.816.282-2.205 1.799-1.847 5.125-5.856 6.476-7.794.255-.376.519-.711.576-.744.057-.033.046.476-.01 1.118Zm-44.179 25.263c3.065-1.16 8.74-3.689 10.386-4.639.292-.154.458.055 2.036 2.497l.777 1.214-1.686.881c-2.117 1.086-5.673 2.636-8.328 3.635-2.425.897-2.6.937-2.89.617-.12-.129-.817-.885-1.538-1.658-.727-.785-1.347-1.463-1.374-1.509-.026-.046.093-.13.273-.188.175-.04 1.228-.434 2.344-.85Zm23.953-12.427c.091.237.465 1.149.838 2.032.367.9.646 1.7.629 1.801-.08.336-3.083 2.344-7.336 4.906l-4.293 2.57-.76-1.131a57.157 57.157 0 0 1-1.25-2.007l-.502-.869 1.87-.987c1.765-.928 6.923-4.166 8.789-5.502.465-.33 1.072-.756 1.347-.915l.501-.32.167.422Zm-33.014 20.204a67.105 67.105 0 0 0 7.582-1.969l1.963-.615.711.626c.393.337.972.811 1.287 1.04.334.235.626.477.66.535.138.24-5.245 1.716-8.677 2.372-1.538.293-2.384.385-2.638.288-1.217-.471-3.448-1.668-3.288-1.76.046-.027 1.132-.257 2.4-.517Zm53.968-30.38c-.016.13-.201.496-.395.821-.263.442-.33.511-.296.278.036-.173.187-.52.355-.784.356-.571.383-.602.336-.316ZM60.943 124.61c.825-.05 2.213-.181 3.075-.297 1.262-.165 1.742-.152 2.565.059.559.149.953.303.884.343-.332.191-7.321.309-8.018.132-.354-.085.01-.142 1.494-.237Zm48.866-26.597c.118 2.37.185 2.195-1.567 3.861-2.547 2.401-7.191 6.317-7.443 6.249-.072-.019-1.039-3.013-1.003-3.11.01-.036.935-.783 2.059-1.661 2.157-1.703 5.029-4.2 6.542-5.698 1.414-1.38 1.324-1.404 1.412.359Zm6.771-4.641c.053.091-.695 1.727-1.164 2.577-.614 1.102-2.213 3.244-3.908 5.244-.746.873-1.377 1.603-1.411 1.623-.034.02.014-.451.102-1.065l.181-1.111 1.35-1.465c1.427-1.54 3.87-4.49 4.356-5.26.287-.454.448-.624.494-.543Zm-39.84 24.144c2.343-.88 5.906-2.418 8.365-3.625 1.034-.505 1.903-.901 1.94-.891.083.013 1.464 1.929 1.752 2.403.14.24.107.289-.395.502-.288.136-1.38.645-2.415 1.151-1.822.884-6.572 2.849-7.826 3.238-.569.176-.67.158-1.349-.304-1.016-.678-2.152-1.669-2.015-1.748.023-.013.902-.338 1.944-.726Zm-8.48 6.116c1.264-.212 5.244-1.214 7.34-1.86 1.04-.311 1.912-.57 1.923-.577.248.086 1.824.914 1.809.968-.039.144-4.194 1.263-6.444 1.724-2.424.5-3.8.547-5.1.17-.662-.197-.6-.248.472-.425Zm31.059-17.993c.191.332.859 2.782.804 2.951-.155.577-10.37 6.856-10.706 6.592-.087-.072-.525-.672-.974-1.343l-.812-1.223 3.274-1.906c2.95-1.703 7.296-4.471 7.361-4.676.01-.036.225-.191.477-.337.366-.211.483-.218.576-.058Zm10.219-3.659c-.031.262-.214.87-.387 1.336-.301.799-.449.991-1.832 2.292-1.477 1.402-3.979 3.563-5.071 4.392-.312.225-.684.532-.847.672l-.287.242-.132-1.022-.126-1.009.702-.527c2.105-1.582 5.284-4.286 7.016-5.987.497-.485.941-.879.982-.887.029-.002.025.229-.018.498Zm-29.077 18.099c2.498-.955 7.45-3.174 8.663-3.874.137-.079.31.035.571.356.21.26.484.574.61.715l.246.239-1.361.679c-3.533 1.75-8.351 3.648-8.945 3.518-.42-.093-1.797-.685-1.87-.81-.026-.046.065-.099.2-.131.133-.031.979-.336 1.886-.692Zm19.92-10.251c.169 1.35.124 1.483-.658 2.056-2.157 1.597-7.427 4.852-8.343 5.168-.341.121-.444.074-.764-.321a15.578 15.578 0 0 0-.566-.664c-.214-.212-.191-.225 3.237-2.235 1.891-1.107 4.125-2.519 4.97-3.114 2.308-1.652 2.037-1.541 2.124-.89Zm-14.867 10.687a85.542 85.542 0 0 0 3.772-1.705c1.534-.749 1.94-.892 1.877-.657-.073.27-7.314 3.384-8.079 3.46l-.352.05.324-.125c.18-.059 1.288-.515 2.458-1.023Zm17.764-10.394c-1.179 1.047-2.305 1.895-2.263 1.703.043-.162 2.293-1.994 2.865-2.324.194-.113-.073.164-.602.621ZM100 112.654c-.331.588-7.98 5.294-8.31 5.118-.092-.053.716-.581 2.344-1.536 1.372-.792 2.98-1.782 3.583-2.191 1.659-1.14 2.528-1.642 2.383-1.391Z"/></svg>