<svg xmlns="http://www.w3.org/2000/svg" fill-rule="evenodd" clip-rule="evenodd" viewBox="0 0 592 332"><path fill="none" stroke="#262626" stroke-width="1.07" d="M127.641 151.258V1.069H98.018v61.318H30.692V1.069H1.069v298.722h29.623v-52.824h22.58c8.701 0 16.987-.691 24.859-2.071 7.872-1.382 14.777-3.798 20.716-7.251 6.076-3.591 10.841-8.494 14.293-14.709 3.592-6.214 5.387-14.086 5.387-23.616 0-7.595-.967-14.086-2.9-19.472-1.796-5.386-4.282-9.875-7.458-13.465-3.177-3.729-6.905-6.698-11.187-8.908-4.281-2.21-8.907-3.867-13.879-4.972-4.834-1.243-9.875-2.002-15.123-2.278a197.024 197.024 0 00-15.536-.622H30.692V86.417h67.326v64.841h29.623zm-96.949 72.715v-51.169h22.373c4.005 0 8.079.277 12.222.829 4.143.414 7.872 1.519 11.187 3.315 3.452 1.795 6.215 4.488 8.286 8.079 2.21 3.452 3.315 8.286 3.315 14.501 0 4.972-.898 9.045-2.693 12.222-1.658 3.177-4.005 5.663-7.044 7.458-2.9 1.795-6.353 3.038-10.358 3.728-4.005.691-8.286 1.037-12.843 1.037H30.692zM229.653 1.069h-29.829L143.89 151.258h17.916L106.49 299.791h30.245L147.3 269.34h58.418l10.565 30.451h32.109l-56.139-150.188h-17.544l9.992-28.798h58.418l10.565 30.453h32.109L229.653 1.069zM213.91 37.321l20.715 59.247h-41.431l20.716-59.247zm-37.401 148.535l20.716 59.246h-41.432l20.716-59.246z"/><path fill="none" stroke="#262626" stroke-width="1.07" d="M332.035 149.603h56.126v126.159h19.68v54.482h-25.895v-30.453H277.539v30.453h-25.895v-54.482h4.972c5.248 0 9.598-1.795 13.051-5.387 3.452-3.59 6.283-8.769 8.493-15.536 2.21-6.767 3.798-14.916 4.765-24.445 1.105-9.529 1.864-20.301 2.279-32.317l1.45-48.474h15.758V1.069h105.236v24.03h-75.613v124.504zm26.502 24.03v102.129h-66.083c2.901-3.177 5.524-6.837 7.872-10.98 2.486-4.143 4.695-8.976 6.629-14.501 1.933-5.662 3.453-12.153 4.558-19.473 1.243-7.319 2.071-15.813 2.485-25.48l1.243-31.695h43.296zM429.574 299.791V149.603h29.624v52.204h15.536c9.529 0 18.299.69 26.31 2.071 8.148 1.381 15.191 3.936 21.129 7.665 5.939 3.59 10.565 8.562 13.88 14.915 3.315 6.353 4.972 14.501 4.972 24.445 0 9.806-1.657 17.884-4.972 24.237-3.315 6.353-7.941 11.393-13.88 15.123-5.938 3.59-12.981 6.076-21.129 7.457-8.011 1.381-16.781 2.071-26.31 2.071h-45.16zm29.624-24.029h16.365c4.833 0 9.391-.277 13.673-.829 4.28-.691 8.01-1.933 11.186-3.729 3.314-1.934 5.869-4.488 7.665-7.665 1.933-3.177 2.9-7.388 2.9-12.636 0-5.249-.967-9.529-2.9-12.844-1.796-3.315-4.351-5.869-7.665-7.665-3.176-1.795-6.906-2.969-11.186-3.521-4.282-.691-8.84-1.037-13.673-1.037h-16.365v49.926zm102.128 24.029V149.603h29.624v150.188h-29.624z"/></svg>