<svg xmlns="http://www.w3.org/2000/svg" fill-rule="evenodd" clip-rule="evenodd" viewBox="0 0 592 371"><path fill="none" stroke="#262626" stroke-width="1.3" d="M105.777 5.924C93.334 3.234 79.881 1.889 65.42 1.889H11.191v182.867h33.957c-5.82 1.922-11.254 4.446-16.301 7.57-6.894 4.204-12.612 9.67-17.152 16.395-4.372 6.559-6.558 14.462-6.558 23.71 0 7.903 1.429 14.882 4.288 20.935 3.027 5.886 6.978 11.015 11.855 15.386 5.044 4.204 10.846 7.651 17.404 10.342 6.726 2.69 13.788 4.793 21.187 6.306l23.205 4.287c4.877.842 9.333 1.935 13.369 3.279 4.204 1.177 7.819 2.775 10.846 4.793 3.026 1.849 5.381 4.204 7.062 7.062 1.682 2.691 2.522 5.97 2.522 9.837 0 4.876-1.177 8.997-3.531 12.36-2.186 3.194-5.128 5.8-8.828 7.819-3.531 1.85-7.483 3.195-11.855 4.036-4.204.84-8.323 1.26-12.359 1.26-5.381 0-10.594-.503-15.638-1.513-4.877-1.177-9.333-3.111-13.369-5.802-3.867-2.689-7.146-6.221-9.837-10.593-2.69-4.54-4.54-10.173-5.549-16.899H1.101c.841 9.921 3.279 18.834 7.315 26.737 4.036 7.735 9.417 14.377 16.143 19.926 6.726 5.38 14.629 9.584 23.71 12.611 9.248 2.859 19.506 4.288 30.772 4.288 9.248 0 18.245-1.093 26.989-3.279 8.912-2.354 16.815-5.885 23.709-10.594 7.062-4.708 12.696-10.509 16.9-17.403 4.372-7.063 6.558-15.302 6.558-24.72 0-9.416-1.851-17.319-5.55-23.708-3.699-6.559-8.575-11.856-14.629-15.892-5.885-4.204-12.611-7.483-20.178-9.836a178.62 178.62 0 00-22.197-5.55l-23.962-4.288c-7.398-1.345-13.536-3.867-18.412-7.566-4.709-3.7-7.063-8.745-7.063-15.134 0-4.036 1.009-7.483 3.027-10.341 2.186-3.028 4.96-5.382 8.323-7.063 3.364-1.85 7.147-3.195 11.351-4.036a64.222 64.222 0 0112.611-1.261c4.204 0 8.492.504 12.864 1.514 4.372.84 8.324 2.438 11.855 4.792 3.531 2.185 6.558 5.129 9.08 8.828 2.523 3.531 4.12 7.987 4.793 13.368h34.808c-.505-8.744-2.775-16.647-6.81-23.71-3.868-7.062-9.081-13.031-15.639-17.908-6.558-5.044-14.125-8.912-22.701-11.603a82.062 82.062 0 00-5.401-1.526c2.166-.379 4.303-.795 6.41-1.252 12.444-2.689 23.206-7.483 32.285-14.377 9.081-7.062 16.144-16.479 21.189-28.25 5.212-11.77 7.818-26.736 7.818-44.897 0-18.16-2.606-33.126-7.818-44.897-5.045-11.771-12.108-21.103-21.189-27.997-9.079-6.895-19.841-11.687-32.285-14.378zm18.413 54.482c3.7 8.24 5.549 19.17 5.549 32.79 0 13.789-1.849 24.887-5.549 33.295-3.699 8.239-8.66 14.629-14.882 19.17-6.221 4.371-13.284 7.314-21.187 8.828-7.903 1.345-15.975 2.018-24.214 2.018H47.26V30.139h16.647c8.239 0 16.311.756 24.214 2.27 7.903 1.345 14.966 4.288 21.187 8.828 6.222 4.372 11.183 10.762 14.882 19.169zM192.043 1.889h133.178v29.259h-97.108v45.401h91.812v29.259h-91.812v49.689h97.108v23.983c.698-.012 1.398-.018 2.103-.018 10.761 0 20.599 1.514 29.51 4.541 8.913 2.858 16.648 6.894 23.205 12.106 6.727 5.214 12.192 11.436 16.395 18.666 4.373 7.23 7.315 15.05 8.828 23.458h-34.303c-2.859-10.091-8.323-17.573-16.394-22.45-8.072-5.044-17.237-7.566-27.493-7.566-7.568 0-14.545 1.344-20.936 4.035-6.39 2.691-11.939 6.727-16.647 12.108-4.541 5.38-8.072 12.19-10.593 20.43-2.523 8.072-3.784 17.573-3.784 28.502 0 21.861 4.708 38.507 14.125 49.943 9.416 11.266 21.944 16.898 37.582 16.898 4.877 0 10.006-.672 15.386-2.018 5.381-1.344 10.257-3.531 14.629-6.557 4.541-3.027 8.24-6.978 11.099-11.855 3.026-5.045 4.54-11.266 4.54-18.665v-3.027h-45.654V268.5h78.948v97.109h-28.502l-1.008-21.44c-5.214 7.567-12.444 13.621-21.692 18.161-9.249 4.372-20.347 6.558-33.295 6.558-12.947 0-24.55-2.186-34.808-6.558-10.257-4.54-19.002-10.931-26.232-19.169-7.23-8.408-12.779-18.498-16.647-30.269-3.867-11.77-5.802-24.971-5.802-39.6 0-14.125 2.018-26.989 6.054-38.591 4.036-11.603 9.921-21.439 17.656-29.511 7.735-8.24 17.152-14.545 28.251-18.917a83.44 83.44 0 013.999-1.517h-82.543v180.853h-36.069V182.742h16.914V1.889zM543.848 365.609l-73.147-139.483v139.483H436.65V182.742h46.915l73.147 139.483V182.742h34.051v182.867h-46.915z"/></svg>