<svg xmlns="http://www.w3.org/2000/svg" fill-rule="evenodd" stroke-linejoin="round" stroke-miterlimit="2" clip-rule="evenodd" viewBox="0 0 620 424"><path fill-rule="nonzero" d="M538.412.042c-8.763.404-16.811 2.029-24.077 4.86-.85.33-2.859 1.187-3.367 1.433a3.609 3.609 0 01-.418.185c-.02 0-.808.384-1.748.85a64.818 64.818 0 00-5.697 3.188c-2.249 1.385-5.937 4.134-7.782 5.787-.219.198-.657.589-.973.863-1.001.878-3.86 3.778-4.792 4.861-5.703 6.623-9.934 14.157-13.005 23.179-2.399 7.062-3.722 13.91-4.312 22.316-.159 2.317-.185 10.53-.034 12.669.541 7.788 1.521 13.574 3.358 19.902 3.545 12.183 10.168 23.275 18.394 30.803 4.422 4.044 9.339 7.445 14.52 10.043l1.028.514v63.154l-.663-.973c-.37-.54-10.044-14.828-21.506-31.755l-20.843-30.782-.83-.007h-.829l-14.521-28.321c-7.985-15.569-14.52-28.341-14.52-28.376 0-.034.48-.288 1.064-.569 3.694-1.762 7.177-3.976 10.208-6.485 1.145-.953 3.428-3.229 4.36-4.347 3.07-3.695 5.504-8.137 7.069-12.923.96-2.934 1.534-5.758 1.899-9.323.178-1.776.178-6.952-.008-9.071-.568-6.608-1.878-11.661-4.265-16.426-3.853-7.699-10.803-13.505-20.614-17.221-4.155-1.577-9.222-2.88-14.685-3.778-5.136-.843-9.782-1.289-17.455-1.672-1.165-.055-9.694-.09-28.779-.11l-27.115-.028v143.545h30.734V90.955l13.499.021 13.506.02 13.944 27.512 13.938 27.512 1.056.007h1.055l22.226 31.509c12.232 17.33 22.234 31.556 22.234 31.618 0 .062-11.181 17.064-24.853 37.775-13.662 20.718-24.844 37.685-24.844 37.706 0 .013 4.702.042 10.462.055l10.461.013-30.275 46.881-30.282 46.879-.013-49.341-.021-49.347h-29.15v143.393l14.301-.02 14.301-.014 31.79-49.218 31.783-49.209.013 49.23.021 49.231h29.225V279.775h-14.76l15.645-23.447a47428.939 47428.939 0 0120.848-31.221l5.189-7.767v62.435h-4.75v143.393h105.386V397.83h-74.577v-35.205h70.545v-25.482h-70.545v-31.886h74.577v-20.588h4.902c4.655 0 4.902-.006 4.874-.13-.021-.068-11.189-16.981-24.817-37.59-13.636-20.608-24.798-37.513-24.812-37.576-.013-.062 10.579-15.433 23.536-34.154l23.562-34.053-17.027-.013c-13.562-.021-17.045 0-17.113.068-.047.048-9.715 14.315-21.486 31.694-11.765 17.378-21.423 31.632-21.459 31.666-.026.042-.055-12.491-.055-27.971v-28.04l3.149-.048c5.82-.075 10.31-.528 15.28-1.529 6.116-1.233 11.394-3.043 17.092-5.861 3.887-1.927 6.657-3.627 10.077-6.191 7.534-5.649 13.8-13.231 18.353-22.205 4.491-8.858 7.212-18.888 8.138-30.056.22-2.68.267-3.709.301-7.308.075-6.554-.28-11.517-1.24-17.31-1.604-9.681-4.943-18.97-9.578-26.697a63.813 63.813 0 00-14.857-16.94c-3.447-2.742-7.232-5.114-11.482-7.192-8.535-4.168-17.058-6.382-27.313-7.088-1.927-.131-7.768-.192-9.756-.103zm9.07 1.583c5.087.329 9.337.947 13.628 1.982 6.692 1.611 13.561 4.497 19.492 8.192 7.876 4.902 14.883 12.025 19.764 20.094 4.636 7.665 7.98 16.941 9.558 26.525.911 5.546 1.281 10.777 1.206 17.029-.055 4.203-.191 6.479-.595 10.078-2.16 19.004-9.989 34.855-22.646 45.831-8.192 7.116-19.209 12.278-30.651 14.376-4.95.905-9.146 1.261-14.926 1.261l-3.577.007v31.153c0 29.136.006 31.158.123 31.139.068-.015 9.926-14.501 22.678-33.34l22.562-33.312h15.186c8.35 0 15.177.021 15.177.048 0 .021-10.364 15.021-23.035 33.332l-23.035 33.291 24.386 36.864c13.41 20.272 24.392 36.89 24.407 36.924.014.036-1.906.054-4.265.054h-4.283v20.588l-37.31.021-37.308.021-.015 17.434-.021 17.442h70.545v22.458l-35.251.021-35.258.013v38.153l37.308.021 37.31.02v22.452H506.34V281.283h4.683v-34.341c0-30.481-.013-34.339-.11-34.318-.089.02-45.892 68.521-45.892 68.632 0 .019 3.613.027 8.029.027h8.027v140.514l-13.101.007h-13.101l-.021-51.123-.02-51.116-66.007 102.232h-26.168V281.283h26.127l.021 51.164.02 51.157 32.406-50.183c17.833-27.601 32.416-50.205 32.416-50.226 0-.021-4.698-.042-10.435-.042-5.745 0-10.442-.005-10.442-.026 0-.013 10.956-16.638 24.352-36.945 13.396-20.306 24.371-36.952 24.399-36.986.021-.042-10.208-14.604-22.732-32.36l-22.777-32.283-.986-.041-.994-.034-13.938-27.499-13.944-27.498-14.726-.014-14.726-.02v55.065h-27.718V3.997l24.454.007c23.145 0 27.381.028 31.297.213 18.12.857 30.939 4.113 39.592 10.064 3.358 2.304 6.225 5.087 8.281 8.042 2.076 2.968 3.819 6.869 4.86 10.866 1.085 4.168 1.544 8.097 1.544 13.279-.008 3.045-.07 4.141-.399 6.445-.843 5.93-2.878 11.284-6.157 16.2-3.934 5.903-9.988 10.674-18.044 14.219-.384.164-.699.335-.699.37 0 .034 6.788 13.307 15.091 29.5l15.094 29.438.9.021.905.02 22.548 33.291c12.401 18.312 22.596 33.305 22.659 33.32.102.019.115-3.347.115-33.313v-33.332l4.909-.041-.816-.316c-2.345-.897-5.554-2.399-7.801-3.64-7.22-3.983-13.327-9.049-18.059-14.986-8.761-11.004-14.025-25.058-15.342-40.984-.22-2.708-.269-3.716-.303-7.233-.06-5.34.125-8.898.699-13.574 1.503-12.066 5.528-23.343 11.635-32.551 4.169-6.279 9.386-11.579 15.788-16.014a62.552 62.552 0 017.166-4.272c8.87-4.565 18.407-6.958 29.766-7.479 1.646-.076 7.26-.034 8.817.068z"/><path fill-rule="nonzero" d="M539.708 23.66c-9.543.713-17.956 4.662-24.29 11.401-2.832 3.003-5.053 6.252-7.124 10.4-3.613 7.246-5.293 13.951-5.922 23.652-.125 1.817-.125 8.206 0 10.078.35 5.573 1.083 10.242 2.288 14.575.871 3.14 2.189 6.492 3.772 9.612 5.21 10.235 13.018 17.002 23.103 19.998 9.263 2.756 19.464 1.837 27.965-2.509 3.256-1.666 6.04-3.682 8.74-6.328 4.155-4.079 7.247-8.871 9.722-15.09.501-1.241 1.386-3.784 1.845-5.285 1.967-6.451 2.906-14.486 2.64-22.549-.261-7.657-1.255-13.396-3.389-19.566-1.473-4.257-2.747-7.061-4.661-10.256a38.317 38.317 0 00-6.231-7.884c-2.859-2.804-5.684-4.792-9.289-6.54-4.148-2.016-8.249-3.168-13.012-3.648-1.023-.102-5.087-.144-6.157-.061zm5.011 1.508c4.881.329 9.392 1.522 13.636 3.62 3.434 1.693 6.013 3.53 8.802 6.273 2.497 2.447 4.182 4.593 5.992 7.61 2.16 3.592 4.073 8.158 5.499 13.087 2.769 9.612 3.099 23.035.822 33.641-.98 4.566-2.749 9.625-4.745 13.574-2.042 4.045-4.132 7-7.088 10.003-2.81 2.859-5.491 4.84-8.891 6.561-5.355 2.707-11.058 3.996-17.099 3.866-4.237-.096-7.856-.754-11.62-2.111-6.561-2.379-11.935-6.397-16.262-12.156-2.338-3.119-4.414-6.924-6.094-11.174-2.119-5.341-3.319-11.346-3.791-18.915-.117-1.879-.117-7.864 0-9.722.603-9.591 2.283-16.289 5.882-23.425 3.585-7.11 8.536-12.553 14.581-16.043 4.635-2.667 10.106-4.319 15.509-4.682 1.281-.089 3.618-.089 4.867-.007zM376.7 25.655v42.341h11.496c10.996 0 14.857-.055 17.153-.22 8.413-.603 14.473-2.399 18.388-5.471 3.668-2.865 5.834-6.794 6.595-11.929.212-1.432.267-4.538.11-6.067-.363-3.435-1.247-5.889-3.107-8.672-1.939-2.887-4.662-5.087-8.294-6.698-4.004-1.783-8.598-2.66-16.283-3.133-.775-.048-6.102-.096-13.664-.117l-12.394-.034zm25.846 1.673c2.982.144 6.032.459 8.425.857 5.801.966 10.098 2.913 13.171 5.978 2.199 2.193 3.756 4.998 4.414 7.939.37 1.679.433 2.365.433 4.764 0 2.749-.152 3.97-.728 6.047a16.026 16.026 0 01-5.314 8.097c-3.029 2.433-7.855 4.127-13.964 4.895-3.812.473-4.944.507-18.593.507h-12.182v-39.16h11.436c6.772 0 12.031.028 12.902.076zM538.733 246.942v34.341h45.858l-.542-.809c-12.36-18.655-45.116-67.83-45.199-67.85-.109-.021-.117 2.927-.117 34.318zm22.604 2.092c9.961 14.987 18.64 28.033 19.279 28.993l1.164 1.748h-41.532v-62.448l1.488 2.233c.816 1.229 9.639 14.494 19.601 29.474zM223.659 2.489v138.643h-56.723v138.643h-17.784v-20.588H130.8V141.132H32.839l-.041 1.028c-.028.562-.336 10.839-.693 22.836-.829 28.143-.87 29.09-1.371 36.856-.583 9.05-1.686 19.657-2.626 25.263-2.187 13.047-5.759 22.166-10.743 27.402C15 257 12.231 258.44 8.768 258.981c-.857.138-1.364.159-4.86.185L0 259.2v53.975h27.286v-28.506h58.808v138.499H191.48V397.83h-74.577v-35.205h70.545v-25.482h-70.545v-31.886h5.039v7.918h27.21l.021-3.942.014-3.942 21.15-.013 21.143-.021v-20.588h21.452v138.499h30.741v-60.543h59.959v60.543h30.741V279.775h-.584c-.321 0-.574-.029-.561-.063.013-.034 13.628-21.122 30.261-46.865l30.233-46.811.015 49.313.019 49.32h29.227V141.132h-14.274l-14.267.007-31.817 49.271c-17.502 27.108-31.844 49.292-31.873 49.313-.026.021-.054-22.158-.054-49.279v-49.312h-29.15v143.537h2.084v52.474h-59.959v-54.092l1.198-.247c6.067-1.213 12.368-3.585 17.235-6.47 1.482-.879 2.277-1.414 3.483-2.319 4.429-3.339 7.844-7.273 10.592-12.217 2.702-4.86 4.168-10.344 4.567-17.043.11-1.823.04-6.183-.11-7.774-.151-1.487-.432-3.42-.659-4.525-.582-2.784-1.604-5.792-2.865-8.432-1.891-3.934-4.648-7.459-7.857-10.036-1.693-1.359-5.252-3.757-7.219-4.868-.412-.227-.712-.438-.686-.467.034-.034.261-.219.509-.425 2.447-2.014 5.189-5.121 7.273-8.254 2.173-3.256 3.538-6.047 4.764-9.749 1.495-4.476 1.933-7.342 1.852-11.949-.076-4.381-.624-7.829-1.79-11.333-.816-2.44-1.714-4.257-3.344-6.752-3.258-4.984-6.856-8.337-12.259-11.429-1.494-.85-3.511-1.872-4.75-2.406l-.762-.322.775-.007h.775V96.645h9.446c5.197-.007 10.148-.02 10.996-.034.85-.021 2.345-.055 3.313-.075 8.22-.179 17.468-1.276 23.961-2.846 7.307-1.768 13.915-4.696 18.762-8.309 4.936-3.681 8.645-8.192 11.478-13.965.898-1.83 1.289-2.776 1.912-4.682 1.775-5.389 2.565-12.025 2.275-19.073-.253-6.053-1.027-10.729-2.543-15.261-2.166-6.492-4.565-10.633-8.815-15.199-2.153-2.31-5.41-4.86-8.262-6.471-1.925-1.09-4.771-2.393-7.13-3.277-2.167-.809-4.025-1.365-7.014-2.091-5.943-1.454-8.959-1.899-15.911-2.366-7.583-.507-7.479-.507-36.987-.507h-26.217zm54.381 1.584c3.503.103 5.004.185 10.297.541 4.902.336 8.439.871 13.279 2.023 3.599.85 5.903 1.549 8.501 2.571 5.614 2.2 9.66 4.751 13.279 8.364 4.327 4.319 6.939 8.679 9.125 15.219 1.536 4.6 2.256 8.94 2.502 15.083.268 6.732-.499 13.231-2.166 18.318-1.74 5.354-4.949 10.572-8.96 14.582-2.859 2.859-5.896 5.012-9.846 6.993-6.245 3.119-12.723 4.957-21.649 6.136-3.682.487-6.061.706-11.153 1.028-.9.055-5.786.096-14.83.124l-13.498.041-.021 24.708-.021 24.708-5.23.006-5.239.007 1.132.24c4.592.988 9.105 2.599 12.601 4.504 5.243 2.866 8.212 5.245 11.264 9.029.884 1.104 2.453 3.442 3.167 4.717 1.912 3.428 3.044 7.302 3.509 12.018.159 1.57.219 5.259.11 6.479-.267 3.037-.734 5.272-1.727 8.267-1.151 3.483-2.544 6.295-4.71 9.517-2.467 3.673-5.738 7.129-8.611 9.104a41.74 41.74 0 00-.672.473c-.034.034.385.281.933.563 2.515 1.273 5.251 3.002 8.069 5.092 3.723 2.763 6.678 6.527 8.666 11.004 2.234 5.06 3.159 9.79 3.159 16.138-.005 9.803-2.275 17.146-7.396 23.947-2.504 3.326-6.02 6.582-9.372 8.687-5.403 3.4-12.298 6.011-19.08 7.232-.575.104-1.104.206-1.172.227-.117.034-.123 1.453-.123 28.464v28.432h62.99v-55.506h-2.092V142.64h26.127l.021 51.151.021 51.142 33.031-51.142 33.031-51.151h26.187v140.513h-26.202l-.021-51.128-.02-51.13-32.406 50.177-32.408 50.177 2.441.041v140.507h-27.71v-60.68h-62.99v60.68h-27.712V283.153h-24.473v20.588l-21.151.021-21.143.021-.02 3.942-.021 3.936h-24.18v-7.92l-4.051.021-4.052.021-.014 17.434-.02 17.442h70.545v22.458l-35.252.021-35.259.013v38.153l37.308.021 37.31.02v22.452H87.677V283.153H25.771v28.514l-12.114-.021-12.108-.021-.02-25.454-.021-25.455 3.188-.034c2.413-.029 3.387-.068 4.018-.159 4.963-.713 8.597-3.009 11.901-7.548 4.628-6.362 7.973-16.906 9.721-30.678.234-1.824.844-7.404 1.084-9.9.589-6.183 1.048-13.033 1.371-20.52.103-2.447 1.474-47.681 1.474-48.709v-.528h95.02v118.055h18.359v20.588h20.8V142.64h56.725V3.997l25.25.007c14.65 0 26.242.028 27.621.069z"/><path fill-rule="nonzero" d="M252.913 25.757c-.013.048-.021 10.832-.013 23.954l.021 23.865 11.374.021c13.484.027 15.986-.035 19.756-.46 6.295-.706 10.265-1.954 14.042-4.401 2.693-1.755 4.626-3.935 6.162-6.966.652-1.288.989-2.125 1.352-3.359 1.549-5.272 1.233-13.478-.707-18.442-.72-1.837-2.03-4.017-3.462-5.772-1.954-2.379-4.511-4.216-7.85-5.635-2.46-1.049-4.868-1.66-8.131-2.064-6.149-.761-7.897-.823-22.411-.83-8.015 0-10.105.021-10.133.089zm26.752 1.66c3.139.26 6.635.678 8.254.994 3.791.74 7.383 2.317 9.919 4.36 2.517 2.029 4.813 5.299 5.869 8.35.838 2.434 1.255 5.108 1.344 8.625.11 4.593-.535 8.11-2.043 11.126-1.803 3.613-4.066 5.869-7.781 7.754-3.859 1.968-8.111 2.886-15.384 3.339-1.049.068-4.683.096-13.424.096h-11.99l-.014-22.404-.02-22.412 11.893.028c10.299.02 12.094.041 13.377.144zM196.21 164.352c-.027.035-.047 8.2-.047 18.147v18.093h15.06c15.05 0 16.104-.015 18.052-.261 6.157-.769 10.866-3.326 13.623-7.403 1.474-2.194 2.419-4.992 2.747-8.139.152-1.398.152-4.079.008-5.299-.699-5.862-3.723-10.133-9-12.731-2.614-1.282-5.087-1.927-8.893-2.311-.932-.096-31.454-.185-31.55-.096zm32.489 1.707c4.265.583 7.218 1.666 9.866 3.62.897.665 2.468 2.228 3.029 3.017 1.268 1.796 2.092 3.914 2.483 6.375.185 1.166.185 4.875 0 6.184-.576 4.099-2.113 7.13-4.752 9.405-2.351 2.03-5.416 3.389-8.974 3.984-2.434.404-1.59.383-17.763.412l-14.917.028v-33.196l15.06.027c13.693.021 15.146.034 15.968.144zM61.009 165.84c-.021.404-.281 6.993-.576 14.63-.658 17.015-.706 18.004-1.049 22.569-.59 7.884-1.803 16.597-3.243 23.322-2.152 10.057-5.443 18.353-10.455 26.382-1.611 2.583-3.304 4.853-5.724 7.67l-.247.289 30.912-.02 30.906-.021v-95.52l-20.238-.021-20.238-.021-.048.741zm39.015.809v92.504l-28.492.013c-15.665.013-28.485.008-28.485-.021 0-.021.219-.315.493-.665 3.106-3.942 6.63-10.009 8.913-15.335 2.996-6.986 4.854-13.692 6.403-23.118 1.248-7.602 1.899-13.581 2.365-21.814.089-1.529 1.262-30.783 1.262-31.42v-.179l18.771.021 18.77.014zM196.176 241.492l.021 19.964 14.794.021c14.945.021 18.339-.021 20.58-.24 8.878-.871 14.596-4.14 17.463-9.983 1.432-2.92 2.048-6.155 1.954-10.242-.091-3.66-.652-6.251-1.954-8.925-2.291-4.711-6.644-7.919-12.788-9.427-1.768-.431-3.482-.707-6.183-.987-.61-.07-5.149-.096-17.366-.117l-16.542-.021.021 19.957zm32.557-18.366c6.143.357 10.852 1.701 14.103 4.018 2.809 2.008 4.586 4.393 5.655 7.623.637 1.92.919 3.662.981 6.135.11 3.827-.453 6.898-1.735 9.558-2.762 5.717-8.412 8.727-17.598 9.371-.665.047-6.843.076-16.756.076h-15.712v-36.856h14.917c9.049 0 15.404.026 16.145.075z"/></svg>