<svg width="619" height="424" viewBox="0 0 619 424" fill="none" xmlns="http://www.w3.org/2000/svg">
<path d="M287.513 5.03307L287.434 6.02997L287.447 6.031L287.46 6.03169L287.513 5.03307ZM301.664 7.16553L301.415 8.13403L301.431 8.13814L301.447 8.14172L301.664 7.16553ZM314.653 11.8182L315.112 10.9296V10.9296L314.653 11.8182ZM325.121 20.1541L324.36 20.8026L324.366 20.8097L324.372 20.8167L325.121 20.1541ZM332.1 32.755L331.152 33.0713L331.155 33.0821L331.159 33.0929L332.1 32.755ZM329.774 73.0779L328.908 72.5777L328.904 72.5849L328.9 72.5923L329.774 73.0779ZM316.398 86.842L316.9 87.7065L316.906 87.7029L316.398 86.842ZM297.012 93.6271L296.839 92.6421L297.012 93.6271ZM252.618 95.5657V94.5657H251.618V95.5657H252.618ZM252.618 145V146H253.618V145H252.618ZM224.896 145H223.896V146H224.896V145ZM224.896 4.4515V3.4515H223.896V4.4515H224.896ZM252.618 26.1638V25.1638H251.618V26.1638H252.618ZM252.618 74.0472H251.618V75.0472H252.618V74.0472ZM287.513 73.0779L287.343 72.0925L287.513 73.0779ZM297.206 69.5885L296.697 68.7275L296.688 68.7328L296.679 68.7382L297.206 69.5885ZM303.797 62.6095L302.926 62.1174L302.918 62.132L302.91 62.1469L303.797 62.6095ZM303.215 37.6016L302.349 38.1013L302.361 38.1212L302.373 38.1406L303.215 37.6016ZM295.461 30.041L294.985 30.9203L294.992 30.9243L295 30.9282L295.461 30.041ZM284.992 26.9393L284.86 27.9305L284.877 27.9327L284.893 27.9343L284.992 26.9393ZM272.973 5.4515C277.728 5.4515 282.548 5.64426 287.434 6.02997L287.591 4.03617C282.655 3.64645 277.782 3.4515 272.973 3.4515V5.4515ZM287.46 6.03169C292.308 6.28686 296.96 6.98826 301.415 8.13403L301.913 6.19704C297.322 5.01649 292.539 4.29624 287.565 4.03445L287.46 6.03169ZM301.447 8.14172C306.021 9.15804 310.269 10.6806 314.194 12.7068L315.112 10.9296C311.025 8.82006 306.613 7.24087 301.881 6.18935L301.447 8.14172ZM314.194 12.7068C318.083 14.714 321.471 17.4104 324.36 20.8026L325.883 19.5057C322.827 15.9189 319.236 13.058 315.112 10.9296L314.194 12.7068ZM324.372 20.8167C327.241 24.0593 329.506 28.1355 331.152 33.0713L333.049 32.4388C331.334 27.2939 328.947 22.9694 325.87 19.4916L324.372 20.8167ZM331.159 33.0929C332.919 37.9959 333.814 43.9494 333.814 50.9779H335.814C335.814 43.79 334.9 37.5949 333.042 32.4172L331.159 33.0929ZM333.814 50.9779C333.814 59.7755 332.156 66.9559 328.908 72.5777L330.64 73.5782C334.112 67.5684 335.814 60.0154 335.814 50.9779H333.814ZM328.9 72.5923C325.755 78.2539 321.421 82.7119 315.889 85.9811L316.906 87.7029C322.747 84.2516 327.332 79.5335 330.648 73.5636L328.9 72.5923ZM315.895 85.9775C310.455 89.1404 304.108 91.3669 296.839 92.6421L297.185 94.6121C304.649 93.3025 311.226 91.0056 316.9 87.7065L315.895 85.9775ZM296.839 92.6421C289.534 93.9237 281.838 94.5657 273.749 94.5657V96.5657C281.944 96.5657 289.756 95.9153 297.185 94.6121L296.839 92.6421ZM273.749 94.5657H252.618V96.5657H273.749V94.5657ZM251.618 95.5657V145H253.618V95.5657H251.618ZM252.618 144H224.896V146H252.618V144ZM225.896 145V4.4515H223.896V145H225.896ZM224.896 5.4515H272.973V3.4515H224.896V5.4515ZM251.618 26.1638V74.0472H253.618V26.1638H251.618ZM252.618 75.0472H275.493V73.0472H252.618V75.0472ZM275.493 75.0472C279.808 75.0472 283.872 74.7204 287.683 74.0634L287.343 72.0925C283.657 72.7279 279.708 73.0472 275.493 73.0472V75.0472ZM287.683 74.0634C291.533 73.3995 294.89 72.1979 297.732 70.4387L296.679 68.7382C294.093 70.3392 290.988 71.464 287.343 72.0925L287.683 74.0634ZM297.714 70.4494C300.721 68.6728 303.048 66.2074 304.683 63.0721L302.91 62.1469C301.444 64.9567 299.377 67.1439 296.697 68.7275L297.714 70.4494ZM304.667 63.1016C306.458 59.9342 307.317 55.9369 307.317 51.1718H305.317C305.317 55.7118 304.496 59.3397 302.926 62.1174L304.667 63.1016ZM307.317 51.1718C307.317 45.2566 306.269 40.5173 304.058 37.0625L302.373 38.1406C304.298 41.1478 305.317 45.4553 305.317 51.1718H307.317ZM304.081 37.1018C302.054 33.5878 299.334 30.9277 295.922 29.1538L295 30.9282C298.05 32.5146 300.499 34.8949 302.349 38.1013L304.081 37.1018ZM295.937 29.1617C292.707 27.4121 289.087 26.3438 285.092 25.9442L284.893 27.9343C288.652 28.3102 292.011 29.3097 294.985 30.9203L295.937 29.1617ZM285.125 25.948C281.205 25.4255 277.349 25.1638 273.555 25.1638V27.1638C277.257 27.1638 281.025 27.4191 284.86 27.9305L285.125 25.948ZM273.555 25.1638H252.618V27.1638H273.555V25.1638ZM405.897 89.9438L406.789 89.4915L406.512 88.9438H405.897V89.9438ZM376.431 89.9438V88.9438H375.431V89.9438H376.431ZM376.431 145V146H377.431V145H376.431ZM348.709 145H347.709V146H348.709V145ZM348.709 4.4515V3.4515H347.709V4.4515H348.709ZM424.314 6.97168L424.109 7.9504L424.112 7.95104L424.314 6.97168ZM444.088 14.7261L443.519 15.5483L443.528 15.5549L444.088 14.7261ZM455.332 28.1024L454.413 28.4963L454.416 28.5044L455.332 28.1024ZM452.618 69.0069L451.775 68.4678L451.773 68.4722L452.618 69.0069ZM433.426 84.128L433.033 83.2081L432.046 83.6292L432.536 84.5842L433.426 84.128ZM464.637 145V146H466.274L465.527 144.544L464.637 145ZM433.813 145L432.921 145.452L433.199 146H433.813V145ZM376.431 26.1638V25.1638H375.431V26.1638H376.431ZM376.431 68.4253H375.431V69.4253H376.431V68.4253ZM422.957 63.1911L423.536 64.0063L423.543 64.0013L423.55 63.9961L422.957 63.1911ZM427.804 37.2138L426.935 37.71L426.944 37.7252L426.953 37.7402L427.804 37.2138ZM421.212 30.6226L420.704 31.4835V31.4835L421.212 30.6226ZM410.938 27.1331L410.779 28.1204L410.938 27.1331ZM405.897 88.9438H399.306V90.9438H405.897V88.9438ZM399.306 88.9438H376.431V90.9438H399.306V88.9438ZM375.431 89.9438V145H377.431V89.9438H375.431ZM376.431 144H348.709V146H376.431V144ZM349.709 145V4.4515H347.709V145H349.709ZM348.709 5.4515H394.847V3.4515H348.709V5.4515ZM394.847 5.4515C406.436 5.4515 416.185 6.28895 424.109 7.95039L424.519 5.99296C416.417 4.29416 406.522 3.4515 394.847 3.4515V5.4515ZM424.112 7.95104C432.167 9.61309 438.621 12.1574 443.519 15.5483L444.657 13.9039C439.474 10.3158 432.746 7.69049 424.516 5.99231L424.112 7.95104ZM443.528 15.5549C448.548 18.9433 452.166 23.2549 454.413 28.4963L456.251 27.7085C453.845 22.0938 449.967 17.4878 444.647 13.8972L443.528 15.5549ZM454.416 28.5044C456.674 33.647 457.821 39.836 457.821 47.1007H459.821C459.821 39.632 458.642 33.1555 456.247 27.7004L454.416 28.5044ZM457.821 47.1007C457.821 55.064 455.802 62.1768 451.775 68.4678L453.46 69.5459C457.705 62.913 459.821 55.4216 459.821 47.1007H457.821ZM451.773 68.4722C447.901 74.592 441.686 79.5178 433.033 83.2081L433.818 85.0478C442.741 81.2421 449.322 76.0873 453.463 69.5415L451.773 68.4722ZM432.536 84.5842L463.747 145.456L465.527 144.544L434.315 83.6717L432.536 84.5842ZM464.637 144H433.813V146H464.637V144ZM434.705 144.548L406.789 89.4915L405.006 90.396L432.921 145.452L434.705 144.548ZM375.431 26.1638V68.4253H377.431V26.1638H375.431ZM376.431 69.4253H399.306V67.4253H376.431V69.4253ZM399.306 69.4253C410.224 69.4253 418.367 67.6792 423.536 64.0063L422.378 62.3759C417.725 65.6819 410.1 67.4253 399.306 67.4253V69.4253ZM423.55 63.9961C428.757 60.1599 431.324 54.5389 431.324 47.2946H429.324C429.324 54.0082 426.98 58.9848 422.364 62.386L423.55 63.9961ZM431.324 47.2946C431.324 43.1493 430.454 39.5954 428.654 36.6875L426.953 37.7402C428.513 40.2603 429.324 43.427 429.324 47.2946H431.324ZM428.672 36.7177C427.03 33.8443 424.705 31.5249 421.721 29.7617L420.704 31.4835C423.406 33.0805 425.476 35.1553 426.935 37.71L428.672 36.7177ZM421.721 29.7617C418.749 28.0053 415.2 26.8076 411.097 26.1459L410.779 28.1204C414.689 28.7511 417.989 29.8797 420.704 31.4835L421.721 29.7617ZM411.097 26.1459C407.031 25.4901 402.648 25.1638 397.949 25.1638V27.1638C402.556 27.1638 406.832 27.4838 410.779 28.1204L411.097 26.1459ZM397.949 25.1638H376.431V27.1638H397.949V25.1638ZM505.13 96.535L504.179 96.8454L504.182 96.8541L504.185 96.8628L505.13 96.535ZM513.853 112.432L514.616 111.785L513.853 112.432ZM526.648 122.125L527.056 121.212L526.648 122.125ZM557.666 122.125L557.257 121.212L557.666 122.125ZM570.46 112.432L569.698 111.785L570.46 112.432ZM578.99 96.535L578.045 96.2072L578.042 96.2159L578.04 96.2246L578.99 96.535ZM578.99 52.9165L578.04 53.2269L578.043 53.2387L578.048 53.2503L578.99 52.9165ZM557.666 27.327L558.074 26.4142V26.4142L557.666 27.327ZM526.648 27.327L526.24 26.4142V26.4142L526.648 27.327ZM513.853 37.02L513.091 36.373L513.853 37.02ZM505.13 52.9165L504.185 52.5887L504.181 52.6003L505.13 52.9165ZM606.131 104.483L607.071 104.824L607.072 104.82L606.131 104.483ZM592.173 127.553L591.444 126.868L591.444 126.868L592.173 127.553ZM570.46 142.286L570.082 141.36L570.077 141.362L570.46 142.286ZM513.659 142.286L513.276 143.209L513.281 143.212L513.659 142.286ZM491.947 127.553L491.211 128.23L491.218 128.237L491.225 128.245L491.947 127.553ZM478.183 104.483L477.241 104.82L477.243 104.824L478.183 104.483ZM478.183 44.9682L479.123 45.3089L479.125 45.3046L478.183 44.9682ZM491.947 21.8989L491.225 21.2066L491.218 21.2145L491.947 21.8989ZM513.659 7.16553L513.281 6.23997L513.276 6.24204L513.659 7.16553ZM570.46 7.16553L570.077 8.08904L570.082 8.09108L570.46 7.16553ZM592.173 21.8989L591.444 22.5834L591.451 22.5911L592.173 21.8989ZM606.131 44.9682L605.189 45.3046L605.19 45.3089L606.131 44.9682ZM501.028 74.6288C501.028 82.9812 502.072 90.3916 504.179 96.8454L506.08 96.2246C504.052 90.0129 503.028 82.8192 503.028 74.6288H501.028ZM504.185 96.8628C506.415 103.29 509.378 108.703 513.091 113.078L514.616 111.785C511.091 107.631 508.239 102.446 506.074 96.2072L504.185 96.8628ZM513.091 113.078C516.802 117.453 521.187 120.777 526.24 123.037L527.056 121.212C522.287 119.078 518.142 115.94 514.616 111.785L513.091 113.078ZM526.24 123.037C531.28 125.292 536.589 126.42 542.157 126.42V124.42C536.868 124.42 531.838 123.351 527.056 121.212L526.24 123.037ZM542.157 126.42C547.724 126.42 553.033 125.292 558.074 123.037L557.257 121.212C552.476 123.351 547.445 124.42 542.157 124.42V126.42ZM558.074 123.037C563.127 120.777 567.511 117.453 571.223 113.078L569.698 111.785C566.172 115.94 562.026 119.078 557.257 121.212L558.074 123.037ZM571.223 113.078C574.94 108.698 577.84 103.278 579.941 96.8454L578.04 96.2246C576.005 102.457 573.218 107.636 569.698 111.785L571.223 113.078ZM579.935 96.8628C582.176 90.4032 583.286 82.9866 583.286 74.6288H581.286C581.286 82.8137 580.199 90.0012 578.045 96.2072L579.935 96.8628ZM583.286 74.6288C583.286 66.2717 582.176 58.9169 579.933 52.5826L578.048 53.2503C580.198 59.3231 581.286 66.4432 581.286 74.6288H583.286ZM579.941 52.6061C577.84 46.1731 574.94 40.7538 571.223 36.373L569.698 37.6669C573.218 41.816 576.005 46.9944 578.04 53.2269L579.941 52.6061ZM571.223 36.373C567.511 31.9988 563.127 28.6747 558.074 26.4142L557.257 28.2398C562.026 30.3734 566.172 33.5114 569.698 37.6669L571.223 36.373ZM558.074 26.4142C553.033 24.1591 547.724 23.0314 542.157 23.0314V25.0314C547.445 25.0314 552.476 26.1007 557.257 28.2398L558.074 26.4142ZM542.157 23.0314C536.589 23.0314 531.28 24.1591 526.24 26.4142L527.056 28.2398C531.838 26.1007 536.868 25.0314 542.157 25.0314V23.0314ZM526.24 26.4142C521.187 28.6747 516.802 31.9988 513.091 36.373L514.616 37.6669C518.142 33.5114 522.287 30.3734 527.056 28.2398L526.24 26.4142ZM513.091 36.373C509.378 40.7488 506.415 46.1618 504.185 52.5887L506.074 53.2443C508.239 47.0057 511.091 41.821 514.616 37.6669L513.091 36.373ZM504.181 52.6003C502.071 58.9286 501.028 66.2771 501.028 74.6288H503.028C503.028 66.4378 504.052 59.3114 506.078 53.2327L504.181 52.6003ZM609.977 74.6288C609.977 85.3851 608.377 95.2211 605.189 104.147L607.072 104.82C610.347 95.6518 611.977 85.5848 611.977 74.6288H609.977ZM605.19 104.143C602.003 112.941 597.419 120.512 591.444 126.868L592.901 128.238C599.075 121.67 603.797 113.86 607.071 104.824L605.19 104.143ZM591.444 126.868C585.603 133.09 578.487 137.922 570.082 141.36L570.839 143.212C579.493 139.671 586.853 134.681 592.902 128.237L591.444 126.868ZM570.077 141.362C561.815 144.794 552.513 146.52 542.157 146.52V148.52C552.737 148.52 562.305 146.756 570.844 143.209L570.077 141.362ZM542.157 146.52C531.801 146.52 522.432 144.794 514.038 141.36L513.281 143.212C521.946 146.756 531.576 148.52 542.157 148.52V146.52ZM514.043 141.362C505.765 137.924 498.644 133.09 492.669 126.86L491.225 128.245C497.399 134.681 504.753 139.669 513.276 143.209L514.043 141.362ZM492.683 126.876C486.835 120.519 482.313 112.946 479.123 104.143L477.243 104.824C480.515 113.856 485.169 121.663 491.211 128.23L492.683 126.876ZM479.125 104.147C475.937 95.2211 474.337 85.3851 474.337 74.6288H472.337C472.337 85.5848 473.967 95.6518 477.241 104.82L479.125 104.147ZM474.337 74.6288C474.337 63.8723 475.937 54.1027 479.123 45.3089L477.243 44.6276C473.967 53.6689 472.337 63.6731 472.337 74.6288H474.337ZM479.125 45.3046C482.314 36.3734 486.835 28.8058 492.676 22.5833L491.218 21.2145C485.169 27.6576 480.514 35.4695 477.241 44.6319L479.125 45.3046ZM492.669 22.5911C498.644 16.3616 505.765 11.5276 514.043 8.08903L513.276 6.24204C504.753 9.78247 497.399 14.7706 491.225 21.2067L492.669 22.5911ZM514.038 8.09108C522.432 4.657 531.801 2.93131 542.157 2.93131V0.931313C531.576 0.931313 521.946 2.69511 513.281 6.23999L514.038 8.09108ZM542.157 2.93131C552.513 2.93131 561.815 4.65709 570.077 8.08903L570.844 6.24204C562.305 2.69501 552.737 0.931313 542.157 0.931313V2.93131ZM570.082 8.09108C578.487 11.5296 585.603 16.3615 591.444 22.5833L592.902 21.2145C586.853 14.7708 579.493 9.7804 570.839 6.23999L570.082 8.09108ZM591.451 22.5911C597.419 28.8128 602.001 36.3779 605.189 45.3046L607.072 44.6319C603.798 35.465 599.075 27.6505 592.894 21.2067L591.451 22.5911ZM605.19 45.3089C608.377 54.1027 609.977 63.8723 609.977 74.6288H611.977C611.977 63.6731 610.347 53.6689 607.071 44.6276L605.19 45.3089ZM1.19357 312.497H0.193567V313.497H1.19357V312.497ZM1.19357 261.512V260.512H0.193567V261.512H1.19357ZM18.0594 256.472L18.7802 257.165L18.0594 256.472ZM26.0076 241.932L25.057 241.622L26.0076 241.932ZM30.4664 219.057L29.4731 218.942L29.4723 218.949L29.4715 218.956L30.4664 219.057ZM32.5989 188.815L33.5983 188.849L33.5984 188.845L32.5989 188.815ZM33.9559 143.451V142.451H32.9854L32.9564 143.422L33.9559 143.451ZM128.947 143.451H129.947V142.451H128.947V143.451ZM128.947 261.512H127.947V262.512H128.947V261.512ZM147.364 261.512H148.364V260.512H147.364V261.512ZM147.364 312.497V313.497H148.364V312.497H147.364ZM123.132 312.497H122.132V313.497H123.132V312.497ZM123.132 284H124.132V283H123.132V284ZM25.4261 284V283H24.4261V284H25.4261ZM25.4261 312.497V313.497H26.4261V312.497H25.4261ZM101.225 261.512V262.512H102.225V261.512H101.225ZM101.225 165.939H102.225V164.939H101.225V165.939ZM60.7086 165.939V164.939H59.747L59.7094 165.9L60.7086 165.939ZM59.5454 195.6L60.5445 195.643L60.5447 195.639L59.5454 195.6ZM57.2191 219.445L56.2332 219.277L56.2317 219.286L56.2303 219.295L57.2191 219.445ZM52.9542 237.667L53.8981 237.998L53.9005 237.991L52.9542 237.667ZM46.7507 251.238L45.8932 250.723L45.8868 250.734L45.8806 250.745L46.7507 251.238ZM39.384 261.512L38.6455 260.838L37.1168 262.512H39.384V261.512ZM2.19357 312.497V261.512H0.193567V312.497H2.19357ZM1.19357 262.512H5.84621V260.512H1.19357V262.512ZM5.84621 262.512C11.0131 262.512 15.3497 260.733 18.7802 257.165L17.3386 255.779C14.3071 258.931 10.5016 260.512 5.84621 260.512V262.512ZM18.7802 257.165C22.1506 253.66 24.8623 248.662 26.9583 242.243L25.057 241.622C23.0173 247.869 20.4302 252.563 17.3386 255.779L18.7802 257.165ZM26.9583 242.243C29.0544 235.823 30.5517 228.124 31.4613 219.158L29.4715 218.956C28.5718 227.825 27.0965 235.376 25.057 241.622L26.9583 242.243ZM31.4598 219.172C32.4975 210.222 33.2099 200.114 33.5983 188.849L31.5995 188.78C31.2125 200.004 30.5032 210.057 29.4731 218.942L31.4598 219.172ZM33.5984 188.845L34.9555 143.481L32.9564 143.422L31.5993 188.785L33.5984 188.845ZM33.9559 144.451H128.947V142.451H33.9559V144.451ZM127.947 143.451V261.512H129.947V143.451H127.947ZM128.947 262.512H147.364V260.512H128.947V262.512ZM146.364 261.512V312.497H148.364V261.512H146.364ZM147.364 311.497H123.132V313.497H147.364V311.497ZM124.132 312.497V284H122.132V312.497H124.132ZM123.132 283H25.4261V285H123.132V283ZM24.4261 284V312.497H26.4261V284H24.4261ZM25.4261 311.497H1.19357V313.497H25.4261V311.497ZM102.225 261.512V165.939H100.225V261.512H102.225ZM101.225 164.939H60.7086V166.939H101.225V164.939ZM59.7094 165.9L58.5462 195.561L60.5447 195.639L61.7078 165.978L59.7094 165.9ZM58.5463 195.557C58.1599 204.574 57.3877 212.479 56.2332 219.277L58.205 219.612C59.3769 212.711 60.1555 204.719 60.5445 195.643L58.5463 195.557ZM56.2303 219.295C55.2033 226.099 53.794 232.113 52.0078 237.344L53.9005 237.991C55.7331 232.624 57.1671 226.489 58.2079 219.594L56.2303 219.295ZM52.0103 237.337C50.2189 242.456 48.1781 246.915 45.8932 250.723L47.6082 251.752C49.9759 247.806 52.0708 243.219 53.898 237.998L52.0103 237.337ZM45.8806 250.745C43.7166 254.564 41.304 257.926 38.6455 260.838L40.1225 262.187C42.8921 259.153 45.3906 255.666 47.6207 251.731L45.8806 250.745ZM39.384 262.512H101.225V260.512H39.384V262.512ZM168.155 143.451V142.451H167.155V143.451H168.155ZM241.241 145.196L241.053 146.178L241.063 146.18L241.073 146.182L241.241 145.196ZM257.525 151.012L257.014 151.872L257.027 151.88L257.041 151.887L257.525 151.012ZM269.35 162.256L268.501 162.784L268.51 162.797L268.518 162.811L269.35 162.256ZM272.452 189.784L271.503 189.468L271.499 189.48L271.496 189.493L272.452 189.784ZM268.769 198.12L267.911 197.606L268.769 198.12ZM263.535 205.099L262.805 204.415L262.804 204.417L263.535 205.099ZM258.107 209.752L257.566 208.91L256.054 209.882L257.677 210.654L258.107 209.752ZM265.861 214.404L265.268 215.209L265.291 215.227L265.316 215.243L265.861 214.404ZM272.646 220.802L273.446 220.202L272.646 220.802ZM277.299 230.107L276.347 230.413L276.35 230.423L277.299 230.107ZM274.585 261.9L273.712 261.411L273.708 261.418L274.585 261.9ZM262.953 274.695L263.503 275.53L263.51 275.525L263.518 275.52L262.953 274.695ZM245.699 281.868L245.914 282.844L245.921 282.843L245.929 282.841L245.699 281.868ZM168.155 284H167.155V285H168.155V284ZM195.877 262.288H194.877V263.288H195.877V262.288ZM244.73 257.247L245.373 258.014H245.373L244.73 257.247ZM244.536 227.587L243.891 228.351L243.899 228.357L243.906 228.363L244.536 227.587ZM195.877 222.353V221.353H194.877V222.353H195.877ZM195.877 201.416H194.877V202.416H195.877V201.416ZM239.884 196.763L239.246 195.993L239.239 195.998L239.233 196.004L239.884 196.763ZM239.884 169.816L240.521 169.046L239.884 169.816ZM195.877 165.164V164.164H194.877V165.164H195.877ZM168.155 144.451H222.824V142.451H168.155V144.451ZM222.824 144.451C228.965 144.451 235.041 145.027 241.053 146.178L241.429 144.214C235.292 143.039 229.09 142.451 222.824 142.451V144.451ZM241.073 146.182C247.039 147.198 252.348 149.098 257.014 151.872L258.036 150.152C253.138 147.24 247.591 145.263 241.409 144.21L241.073 146.182ZM257.041 151.887C261.802 154.518 265.618 158.147 268.501 162.784L270.2 161.728C267.137 156.802 263.07 152.934 258.009 150.137L257.041 151.887ZM268.518 162.811C271.483 167.257 273.003 172.993 273.003 180.091H275.003C275.003 172.714 273.422 166.56 270.182 161.701L268.518 162.811ZM273.003 180.091C273.003 183.347 272.502 186.471 271.503 189.468L273.401 190.1C274.47 186.894 275.003 183.556 275.003 180.091H273.003ZM271.496 189.493C270.614 192.39 269.419 195.093 267.911 197.606L269.626 198.635C271.221 195.977 272.481 193.124 273.409 190.075L271.496 189.493ZM267.911 197.606C266.395 200.133 264.692 202.402 262.805 204.415L264.264 205.783C266.254 203.66 268.041 201.276 269.626 198.635L267.911 197.606ZM262.804 204.417C261.038 206.308 259.291 207.801 257.566 208.91L258.647 210.593C260.54 209.376 262.412 207.767 264.266 205.781L262.804 204.417ZM257.677 210.654C260.332 211.919 262.863 213.437 265.268 215.209L266.454 213.599C263.948 211.753 261.309 210.169 258.536 208.849L257.677 210.654ZM265.316 215.243C267.798 216.856 269.974 218.906 271.846 221.402L273.446 220.202C271.44 217.528 269.094 215.313 266.406 213.566L265.316 215.243ZM271.846 221.402C273.707 223.883 275.212 226.882 276.347 230.413L278.251 229.801C277.059 226.095 275.462 222.889 273.446 220.202L271.846 221.402ZM276.35 230.423C277.471 233.785 278.043 237.809 278.043 242.514H280.043C280.043 237.655 279.453 233.407 278.247 229.791L276.35 230.423ZM278.043 242.514C278.043 250.011 276.582 256.295 273.712 261.411L275.457 262.389C278.532 256.907 280.043 250.267 280.043 242.514H278.043ZM273.708 261.418C270.941 266.449 267.171 270.597 262.388 273.869L263.518 275.52C268.557 272.072 272.541 267.69 275.461 262.382L273.708 261.418ZM262.403 273.859C257.604 277.017 251.965 279.366 245.47 280.894L245.929 282.841C252.617 281.267 258.48 278.835 263.503 275.53L262.403 273.859ZM245.485 280.891C239.099 282.296 232.322 283 225.15 283V285C232.453 285 239.376 284.283 245.914 282.844L245.485 280.891ZM225.15 283H168.155V285H225.15V283ZM169.155 284V143.451H167.155V284H169.155ZM195.877 263.288H226.507V261.288H195.877V263.288ZM226.507 263.288C234.76 263.288 241.11 261.589 245.373 258.014L244.088 256.481C240.338 259.626 234.539 261.288 226.507 261.288V263.288ZM245.373 258.014C249.658 254.419 251.74 249.196 251.74 242.514H249.74C249.74 248.756 247.815 253.355 244.088 256.481L245.373 258.014ZM251.74 242.514C251.74 235.7 249.591 230.405 245.167 226.811L243.906 228.363C247.753 231.489 249.74 236.146 249.74 242.514H251.74ZM245.181 226.822C240.784 223.113 234.106 221.353 225.344 221.353V223.353C233.9 223.353 240.017 225.082 243.891 228.351L245.181 226.822ZM225.344 221.353H195.877V223.353H225.344V221.353ZM194.877 222.353V262.288H196.877V222.353H194.877ZM195.877 202.416H224.569V200.416H195.877V202.416ZM224.569 202.416C231.308 202.416 236.676 200.83 240.534 197.522L239.233 196.004C235.854 198.9 231.012 200.416 224.569 200.416V202.416ZM240.521 197.533C244.559 194.192 246.506 189.218 246.506 182.805H244.506C244.506 188.799 242.704 193.131 239.246 195.993L240.521 197.533ZM246.506 182.805C246.506 176.997 244.533 172.366 240.521 169.046L239.246 170.587C242.73 173.47 244.506 177.498 244.506 182.805H246.506ZM240.521 169.046C236.543 165.753 231.187 164.164 224.569 164.164V166.164C230.875 166.164 235.729 167.676 239.246 170.587L240.521 169.046ZM224.569 164.164H195.877V166.164H224.569V164.164ZM194.877 165.164V201.416H196.877V165.164H194.877ZM302.759 284H301.759V285H302.759V284ZM302.759 143.451V142.451H301.759V143.451H302.759ZM328.931 143.451H329.931V142.451H328.931V143.451ZM328.931 245.81H327.931V249.201L329.771 246.352L328.931 245.81ZM395.037 143.451V142.451H394.492L394.197 142.909L395.037 143.451ZM421.208 143.451H422.208V142.451H421.208V143.451ZM421.208 284V285H422.208V284H421.208ZM395.037 284H394.037V285H395.037V284ZM395.037 181.642H396.037V178.25L394.197 181.099L395.037 181.642ZM328.931 284V285H329.475L329.771 284.543L328.931 284ZM303.759 284V143.451H301.759V284H303.759ZM302.759 144.451H328.931V142.451H302.759V144.451ZM327.931 143.451V245.81H329.931V143.451H327.931ZM329.771 246.352L395.877 143.994L394.197 142.909L328.09 245.267L329.771 246.352ZM395.037 144.451H421.208V142.451H395.037V144.451ZM420.208 143.451V284H422.208V143.451H420.208ZM421.208 283H395.037V285H421.208V283ZM396.037 284V181.642H394.037V284H396.037ZM394.197 181.099L328.09 283.457L329.771 284.543L395.877 182.184L394.197 181.099ZM328.931 283H302.759V285H328.931V283ZM432.493 284L431.658 283.449L430.635 285H432.493V284ZM481.345 209.945L482.18 210.496L482.556 209.927L482.163 209.369L481.345 209.945ZM434.431 143.451V142.451H432.502L433.614 144.028L434.431 143.451ZM465.449 143.451L466.277 142.891L465.979 142.451H465.449V143.451ZM510.618 210.139L509.79 210.7L510.088 211.139H510.618V210.139ZM510.812 210.139V211.139H511.812V210.139H510.812ZM510.812 143.451V142.451H509.812V143.451H510.812ZM538.534 143.451H539.534V142.451H538.534V143.451ZM538.534 210.139H537.534V211.139H538.534V210.139ZM538.728 210.139V211.139H539.258L539.556 210.7L538.728 210.139ZM583.897 143.451V142.451H583.367L583.069 142.891L583.897 143.451ZM614.333 143.451L615.156 144.02L616.241 142.451H614.333V143.451ZM568.195 210.139L567.372 209.57L566.987 210.127L567.361 210.691L568.195 210.139ZM617.047 284V285H618.908L617.881 283.448L617.047 284ZM585.642 284L584.809 284.554L585.106 285H585.642V284ZM538.728 213.435L539.561 212.881L539.264 212.435H538.728V213.435ZM538.534 213.435V212.435H537.534V213.435H538.534ZM538.534 284V285H539.534V284H538.534ZM510.812 284H509.812V285H510.812V284ZM510.812 213.435H511.812V212.435H510.812V213.435ZM510.618 213.435V212.435H510.083L509.787 212.88L510.618 213.435ZM463.51 284V285H464.045L464.342 284.555L463.51 284ZM433.327 284.551L482.18 210.496L480.511 209.395L431.658 283.449L433.327 284.551ZM482.163 209.369L435.248 142.875L433.614 144.028L480.528 210.522L482.163 209.369ZM434.431 144.451H465.449V142.451H434.431V144.451ZM464.621 144.012L509.79 210.7L511.446 209.579L466.277 142.891L464.621 144.012ZM510.618 211.139H510.812V209.139H510.618V211.139ZM511.812 210.139V143.451H509.812V210.139H511.812ZM510.812 144.451H538.534V142.451H510.812V144.451ZM537.534 143.451V210.139H539.534V143.451H537.534ZM538.534 211.139H538.728V209.139H538.534V211.139ZM539.556 210.7L584.725 144.012L583.069 142.891L537.9 209.579L539.556 210.7ZM583.897 144.451H614.333V142.451H583.897V144.451ZM613.511 142.883L567.372 209.57L569.017 210.708L615.156 144.02L613.511 142.883ZM567.361 210.691L616.213 284.552L617.881 283.448L569.029 209.588L567.361 210.691ZM617.047 283H585.642V285H617.047V283ZM586.475 283.446L539.561 212.881L537.895 213.989L584.809 284.554L586.475 283.446ZM538.728 212.435H538.534V214.435H538.728V212.435ZM537.534 213.435V284H539.534V213.435H537.534ZM538.534 283H510.812V285H538.534V283ZM511.812 284V213.435H509.812V284H511.812ZM510.812 212.435H510.618V214.435H510.812V212.435ZM509.787 212.88L462.679 283.445L464.342 284.555L511.45 213.99L509.787 212.88ZM463.51 283H432.493V285H463.51V283ZM87.3174 282.452V281.452H86.3174V282.452H87.3174ZM189.675 282.452H190.675V281.452H189.675V282.452ZM189.675 304.939V305.939H190.675V304.939H189.675ZM115.039 304.939V303.939H114.039V304.939H115.039ZM115.039 339.834H114.039V340.834H115.039V339.834ZM185.604 339.834H186.604V338.834H185.604V339.834ZM185.604 362.322V363.322H186.604V362.322H185.604ZM115.039 362.322V361.322H114.039V362.322H115.039ZM115.039 400.512H114.039V401.512H115.039V400.512ZM189.675 400.512H190.675V399.512H189.675V400.512ZM189.675 423V424H190.675V423H189.675ZM87.3174 423H86.3174V424H87.3174V423ZM87.3174 283.452H189.675V281.452H87.3174V283.452ZM188.675 282.452V304.939H190.675V282.452H188.675ZM189.675 303.939H115.039V305.939H189.675V303.939ZM114.039 304.939V339.834H116.039V304.939H114.039ZM115.039 340.834H185.604V338.834H115.039V340.834ZM184.604 339.834V362.322H186.604V339.834H184.604ZM185.604 361.322H115.039V363.322H185.604V361.322ZM114.039 362.322V400.512H116.039V362.322H114.039ZM115.039 401.512H189.675V399.512H115.039V401.512ZM188.675 400.512V423H190.675V400.512H188.675ZM189.675 422H87.3174V424H189.675V422ZM88.3174 423V282.452H86.3174V423H88.3174ZM332.608 282.452H333.608V281.452H332.608V282.452ZM332.608 423V424H333.608V423H332.608ZM304.886 423H303.886V424H304.886V423ZM304.886 362.322H305.886V361.322H304.886V362.322ZM241.881 362.322V361.322H240.881V362.322H241.881ZM241.881 423V424H242.881V423H241.881ZM214.159 423H213.159V424H214.159V423ZM214.159 282.452V281.452H213.159V282.452H214.159ZM241.881 282.452H242.881V281.452H241.881V282.452ZM241.881 339.834H240.881V340.834H241.881V339.834ZM304.886 339.834V340.834H305.886V339.834H304.886ZM304.886 282.452V281.452H303.886V282.452H304.886ZM331.608 282.452V423H333.608V282.452H331.608ZM332.608 422H304.886V424H332.608V422ZM305.886 423V362.322H303.886V423H305.886ZM304.886 361.322H241.881V363.322H304.886V361.322ZM240.881 362.322V423H242.881V362.322H240.881ZM241.881 422H214.159V424H241.881V422ZM215.159 423V282.452H213.159V423H215.159ZM214.159 283.452H241.881V281.452H214.159V283.452ZM240.881 282.452V339.834H242.881V282.452H240.881ZM241.881 340.834H304.886V338.834H241.881V340.834ZM305.886 339.834V282.452H303.886V339.834H305.886ZM304.886 283.452H332.608V281.452H304.886V283.452ZM362.394 423H361.394V424H362.394V423ZM362.394 282.452V281.452H361.394V282.452H362.394ZM388.565 282.452H389.565V281.452H388.565V282.452ZM388.565 384.81H387.565V388.201L389.405 385.352L388.565 384.81ZM454.671 282.452V281.452H454.127L453.831 281.909L454.671 282.452ZM480.843 282.452H481.843V281.452H480.843V282.452ZM480.843 423V424H481.843V423H480.843ZM454.671 423H453.671V424H454.671V423ZM454.671 320.642H455.671V317.25L453.831 320.099L454.671 320.642ZM388.565 423V424H389.11L389.405 423.543L388.565 423ZM363.394 423V282.452H361.394V423H363.394ZM362.394 283.452H388.565V281.452H362.394V283.452ZM387.565 282.452V384.81H389.565V282.452H387.565ZM389.405 385.352L455.511 282.994L453.831 281.909L387.725 384.267L389.405 385.352ZM454.671 283.452H480.843V281.452H454.671V283.452ZM479.843 282.452V423H481.843V282.452H479.843ZM480.843 422H454.671V424H480.843V422ZM455.671 423V320.642H453.671V423H455.671ZM453.831 320.099L387.725 422.457L389.405 423.543L455.511 321.184L453.831 320.099ZM388.565 422H362.394V424H388.565V422ZM506.085 282.452V281.452H505.085V282.452H506.085ZM608.443 282.452H609.443V281.452H608.443V282.452ZM608.443 304.939V305.939H609.443V304.939H608.443ZM533.807 304.939V303.939H532.807V304.939H533.807ZM533.807 339.834H532.807V340.834H533.807V339.834ZM604.372 339.834H605.372V338.834H604.372V339.834ZM604.372 362.322V363.322H605.372V362.322H604.372ZM533.807 362.322V361.322H532.807V362.322H533.807ZM533.807 400.512H532.807V401.512H533.807V400.512ZM608.443 400.512H609.443V399.512H608.443V400.512ZM608.443 423V424H609.443V423H608.443ZM506.085 423H505.085V424H506.085V423ZM506.085 283.452H608.443V281.452H506.085V283.452ZM607.443 282.452V304.939H609.443V282.452H607.443ZM608.443 303.939H533.807V305.939H608.443V303.939ZM532.807 304.939V339.834H534.807V304.939H532.807ZM533.807 340.834H604.372V338.834H533.807V340.834ZM603.372 339.834V362.322H605.372V339.834H603.372ZM604.372 361.322H533.807V363.322H604.372V361.322ZM532.807 362.322V400.512H534.807V362.322H532.807ZM533.807 401.512H608.443V399.512H533.807V401.512ZM607.443 400.512V423H609.443V400.512H607.443ZM608.443 422H506.085V424H608.443V422ZM507.085 423V282.452H505.085V423H507.085Z" fill="#262626"/>
</svg>
