<svg xmlns="http://www.w3.org/2000/svg" fill-rule="evenodd" stroke-linejoin="round" stroke-miterlimit="2" clip-rule="evenodd" viewBox="0 0 646 434"><path fill-rule="nonzero" d="M299.829.055c-3.823.128-7.76.554-11.467 1.242-21.139 3.904-36.665 16.648-43.007 35.301-1.411 4.166-2.317 8.435-2.763 13.054-.08.817-.16 1.621-.182 1.79l-.033.297h30.614l.041-.156c.025-.087.047-.479.047-.877 0-2.121.383-4.687 1.039-6.943.77-2.661 2.338-5.639 4.167-7.942.749-.939 2.864-3.046 3.836-3.822 4.997-3.985 11.656-6.207 18.613-6.207 6.556-.007 12.103 1.547 16.025 4.484.79.595 2.176 1.918 2.782 2.675 1.44 1.776 2.594 4.241 3.134 6.665 1.141 5.194.116 10.07-2.876 13.649-3.093 3.701-8.213 6.139-14.669 6.983-2.357.304-2.418.311-12.642.338l-9.907.027v26.365l11.042.027c11.709.027 11.548.027 14.209.372 9.103 1.188 15.107 5.004 17.504 11.136 1.743 4.45 1.534 10.947-.507 15.702-1.62 3.775-4.429 6.733-8.32 8.732-3.179 1.641-6.55 2.553-11.163 3.012-1.573.162-6.382.182-7.908.041-6.599-.622-11.852-2.54-16.027-5.863-5.327-4.234-8.542-10.38-9.737-18.592l-.19-1.337-15.209-.013c-8.359-.014-15.228.006-15.256.033-.054.054-.019.331.298 2.898 1.641 13.29 6.599 24.305 14.634 32.558 3.1 3.187 6.362 5.72 10.427 8.091l.98.574h-15.412V291.35h33.208c31.828 0 35.604-.02 38.912-.216 19.613-1.134 33.357-6.908 41.587-17.478.738-.939 2.195-3.113 2.798-4.173 3.41-5.957 5.321-13.014 5.82-21.462.102-1.696.102-6.125 0-7.761-.554-9.062-2.762-16.316-6.806-22.334-3.709-5.517-9.07-9.907-15.804-12.918-6.341-2.842-13.837-4.605-22.88-5.376-4.181-.358-3.465-.35-24.948-.378l-20.117-.021v-28.505h77.792v-26.373l-13.034-.02-13.027-.02.776-.419c5.531-2.958 10.684-7.287 14.155-11.886 4.883-6.47 7.502-13.77 8.158-22.725.107-1.452.102-5.538-.006-7.058-.595-8.455-2.817-14.972-6.976-20.442-2.493-3.283-5.694-6.058-9.618-8.341-.986-.574-3.195-1.688-4.099-2.066-.317-.129-.581-.257-.581-.277 0-.02.102-.101.229-.176 1.203-.689 3.842-2.579 5.357-3.849 1.08-.898 3.099-2.877 4.044-3.958 4.585-5.227 7.301-11.413 8.124-18.504.378-3.255.317-6.794-.176-10.144-2.666-18.268-17.597-30.674-40.628-33.74-4.592-.614-9.488-.844-14.377-.675zm5.423 1.695c4.315.128 7.61.439 11.345 1.067 21.293 3.593 34.767 15.742 36.711 33.112.345 3.079.331 5.801-.039 8.793-.358 2.931-.999 5.491-2.027 8.084-1.572 3.991-3.789 7.354-6.968 10.589-2.851 2.911-6.032 5.254-10.138 7.497-.918.499-.945.52-.744.587.116.034.711.25 1.317.48 4.822 1.782 8.86 4.173 12.116 7.172 5.558 5.112 8.794 11.994 9.78 20.793.256 2.263.311 3.627.27 6.686-.047 3.749-.251 5.734-.912 8.928-2.856 13.852-12.413 24.313-27.399 29.979-.581.223-1.127.432-1.201.466-.088.034 6.61.061 16.146.067h16.297v22.976l-38.913.02-38.915.02v31.836l21.024.047c11.562.027 21.232.068 21.491.096.248.019 1.221.086 2.16.146 13.757.873 24.515 4.195 31.951 9.86 2.614 1.986 5.165 4.608 6.955 7.12 3.641 5.112 5.911 11.488 6.721 18.828.264 2.397.297 3.005.336 6.084.041 3.242-.025 5.107-.27 7.599-1.405 14.309-7.563 24.596-18.592 31.052-7.549 4.415-17.478 6.982-29.829 7.698-3.235.19-7.543.217-38.204.217h-32.073V146.05h21.524l-1.209-.486c-17.396-6.976-28.195-21.665-30.878-41.986l-.182-1.398-.041-.304 13.562.02 13.568.014.094.567c1.344 8.462 4.957 15 10.711 19.349 4.37 3.316 9.807 5.247 16.498 5.875 1.547.142 6.613.122 8.193-.04 2.221-.223 3.89-.5 5.672-.932 7.295-1.783 12.427-5.687 15.054-11.434 2.141-4.693 2.62-11.021 1.215-15.918-2.275-7.894-9.467-12.71-20.706-13.844-2.228-.223-3.518-.25-12.918-.25h-9.522V62.315l9.131-.027c9.772-.027 9.764-.027 12.391-.412 5.214-.75 9.651-2.519 12.907-5.147.851-.688 2.247-2.113 2.823-2.883 3.065-4.086 4.004-9.111 2.768-14.729-.73-3.303-2.377-6.335-4.715-8.652-4.314-4.281-11.284-6.544-19.597-6.354-5.012.108-9.618 1.222-13.865 3.349-8.26 4.133-13.474 11.373-14.534 20.166a46.308 46.308 0 00-.182 1.796l-.047.615h-27.074v-.189c0-.108.066-.743.14-1.405 1.71-14.5 8.673-26.845 19.823-35.158 9.59-7.152 21.989-11.116 36.023-11.528 2.613-.081 2.512-.081 4.977-.007z"/><path fill-rule="nonzero" d="M281.959 245.278l.019 21.362 18.363.02c18.613.019 20.214.006 22.591-.243 10.589-1.087 17.357-5.875 19.808-14 1.424-4.742 1.358-11.149-.182-15.776-1.277-3.85-3.668-6.875-7.07-8.929-3.52-2.127-8.213-3.363-14.19-3.727-.736-.041-8.28-.068-20.26-.068l-19.099-.006.02 21.367zm39.177-19.585c9.064.534 14.952 3.101 18.084 7.882.535.81 1.319 2.43 1.669 3.43.777 2.217 1.135 4.682 1.141 7.827 0 3.966-.593 6.889-1.97 9.753-3.095 6.388-9.665 9.813-19.789 10.312-.851.047-8.442.075-18.991.075h-17.564v-39.359h18.079c11.791 0 18.517.027 19.341.08zM.003 2.385v430.93h31.694l.02-33.93.014-33.935 25.143 33.927 25.136 33.938h32.734c31.113 0 32.741-.008 32.781-.123.054-.127 9.57-27.527 9.874-28.438l.175-.513h53.44l.257.73c.142.397 2.404 6.921 5.037 14.506 2.628 7.578 4.79 13.789 4.809 13.803.014.021 7.753.027 17.187.013l17.154-.013-5.435-14.54c-2.986-7.996-15.325-41.006-27.419-73.355-12.096-32.349-22.009-58.878-22.037-58.944-.041-.121-.845-.121-15.466-.121h-15.418l-.094.229c-.088.203-53.001 142.268-53.17 142.748-.068.195-.074.195-.196.074-.27-.292-53.697-72.668-53.71-72.762 0-.055 11.386-14.757 25.312-32.674l25.312-32.578h9.542l9.536-.007 4.957-14.304a9152.678 9152.678 0 015.059-14.573l.101-.27 26.703.02 26.704.019 5.043 14.534 5.046 14.54 17.181.014c13.736.02 17.173 0 17.154-.067-.022-.048-12.381-33.125-27.474-73.497l-27.432-73.411h-15.432l-15.432-.006-.067.162c-.041.087-11.94 32.031-26.44 70.985l-26.372 70.816-10.245.021-10.245.02-24.555 32.828-24.664 32.977c-.088.121-.101-6.943-.101-55.573l-.007-55.71 12.426-.034c12.265-.033 13.447-.054 17.465-.303 15.033-.925 26.777-4.087 35.422-9.524 4.227-2.66 7.671-5.787 10.461-9.488 3.977-5.288 6.544-11.805 7.611-19.349.405-2.848.574-5.401.574-8.718-.007-19.618-6.909-33.267-20.706-40.966-8.057-4.498-18.471-7.03-32.16-7.82-4.282-.25-5.511-.27-18.207-.297l-12.886-.034V98.837l13.21-.034c13.5-.027 13.662-.027 17.957-.33 16.073-1.142 28.297-4.897 36.948-11.36 1.668-1.249 2.695-2.141 4.255-3.701 2.006-2.005 3.235-3.498 4.673-5.679 3.478-5.254 5.68-11.637 6.524-18.863.459-3.984.513-9.353.142-13.689-1.236-14.209-6.443-24.636-15.803-31.653-6.652-4.991-15.337-8.206-26.501-9.826-3.964-.568-7.219-.858-13.432-1.182-1.114-.061-9.874-.095-30.613-.108L.003 2.385zm56.972 1.776C67.2 4.444 74.676 5.343 81.51 7.099c11.988 3.086 20.49 8.779 25.812 17.295 3.019 4.822 5.058 10.765 5.984 17.417.479 3.438.607 5.484.607 9.685 0 3.721-.067 4.923-.425 7.759-.973 7.733-3.539 14.284-7.685 19.646-7.429 9.61-20.031 15.384-37.941 17.404-2.418.27-4.62.445-8.651.689-.851.054-6.193.094-15.263.108l-13.953.033v48.915l11.542.007c15.499 0 19.342.095 25.474.642 16.458 1.458 27.966 5.909 35.672 13.797 2.451 2.512 4.126 4.795 5.828 7.928 3.606 6.659 5.45 15.169 5.443 25.137-.014 14.35-4.37 25.062-13.291 32.686-4.444 3.795-10.495 6.929-17.424 9.009-6.334 1.898-13.385 3.06-21.793 3.58-3.876.243-5.389.27-18.315.303l-13.136.034v58.998c0 55.257.007 58.991.122 58.972.061-.014 11.737-15.561 25.94-34.558l25.832-34.53 10.407-.041 10.414-.033 26.419-70.945 26.419-70.945 14.264-.02 14.256-.021.533 1.439c.298.79 12.366 33.071 26.818 71.734a92900.886 92900.886 0 0126.278 70.364c0 .035-6.43.055-15.33.041l-15.324-.014-5.044-14.54-5.045-14.534h-55.858l-4.957 14.284a5390.948 5390.948 0 01-5.045 14.542l-.095.248-9.353.035-9.354.034-25.973 33.401c-14.324 18.418-25.96 33.445-25.947 33.505.014.061 12.352 16.796 27.426 37.191 15.067 20.401 27.52 37.258 27.669 37.461l.27.372H99.299l-16.438-.008-26.345-35.555c-14.486-19.558-26.372-35.552-26.413-35.538-.047.014-.081 11.413-.087 35.563l-.021 35.538H1.705V4.086l26.392.007c15.412 0 27.433.027 28.878.068zm169.201 355.656L253 431.578l-15.324.013c-8.428.014-15.33.014-15.344 0-.012-.013-2.281-6.53-5.044-14.485-2.756-7.956-5.045-14.5-5.073-14.547-.08-.128-55.748-.135-55.829-.006-.027.047-2.31 6.591-5.065 14.54-2.763 7.954-5.032 14.473-5.052 14.493-.013.013-6.517.019-14.459.005l-14.425-.013 26.73-71.782 26.73-71.782 14.256.021 14.249.02 26.826 71.762z"/><path fill-rule="nonzero" d="M29.995 26.278v48.868l14.061-.02c14.959-.027 14.635-.02 17.816-.378 5.193-.574 9.67-1.837 12.939-3.64 5.268-2.911 8.449-7.47 9.57-13.696.783-4.35.587-9.806-.5-14.108-2.215-8.732-8.185-13.906-18.396-15.952-1.993-.398-4.214-.675-7.476-.939-.716-.054-5.18-.087-14.52-.108l-13.494-.027zm27.831 1.837c1.885.149 4.012.372 5.248.554 10.933 1.614 17.059 6.497 19.213 15.297 1 4.065 1.141 9.441.358 13.452-.594 3.053-1.736 5.68-3.39 7.794-.507.655-1.675 1.843-2.411 2.458-3.343 2.81-8.482 4.64-15.114 5.376-3.141.351-2.945.351-16.897.378l-13.136.02V27.98l12.535.027c8.543.02 12.872.054 13.594.108zM29.995 168.242v48.935h12.251c14.25-.006 15.905-.039 19.693-.466 13.061-1.451 20.22-6.786 22.307-16.613 1.053-4.97.729-11.582-.791-16.296-2.991-9.245-10.38-14.047-23.427-15.229-2.945-.27-3.356-.277-16.755-.304l-13.278-.027zm25.778 1.783c8.51.331 14.088 1.655 18.471 4.363 2.066 1.276 4.011 3.154 5.349 5.173.553.824 1.56 2.823 1.911 3.789 1.121 3.066 1.614 6.24 1.621 10.319.007 4.464-.635 7.698-2.114 10.717-2.803 5.693-8.53 9.111-17.478 10.408-4.18.607-6.348.681-20.794.681H31.697v-45.524h11.15c6.132 0 11.947.033 12.926.074zM159.162 208.925c-5.424 15.498-9.867 28.25-9.881 28.324-.02.135.162.135 19.727.135 10.86 0 19.761-.021 19.774-.048.02-.04-19.571-56.154-19.747-56.553-.007-.027-4.457 12.636-9.873 28.142zm18.599 1.939l8.637 24.717-17.336.013c-9.536.014-17.35.006-17.37-.013-.02-.02 3.87-11.205 8.645-24.86 5.956-17.025 8.698-24.778 8.732-24.697.027.074 3.944 11.251 8.692 24.84zM184.23 322.943c-.108.27-19.713 56.336-19.713 56.378 0 .019 8.901.027 19.787.027 18.816 0 19.794 0 19.761-.121-.019-.069-4.382-12.556-9.698-27.744a76317.931 76317.931 0 01-9.86-28.19c-.196-.567-.196-.567-.277-.35zm8.773 29.802c4.768 13.636 8.671 24.821 8.671 24.854 0 .027-7.82.047-17.383.047-15.107 0-17.377-.008-17.356-.102.06-.25 17.329-49.604 17.363-49.604.02 0 3.937 11.163 8.705 24.805zM154.339 2.479c-.02.048-12.318 33.079-27.337 73.403-15.013 40.318-27.298 73.356-27.298 73.41 0 .081 2.573.095 16.256.074l16.255-.013 5.045-14.54 5.038-14.534h53.447l5.045 14.534 5.044 14.54 17.167.013c9.449.014 17.175 0 17.175-.02 0-.027-12.358-33.105-27.46-73.504L185.263 2.385h-15.445c-12.298 0-15.458.02-15.479.094zm29.776 1.736c.338.864 53.582 143.335 53.582 143.362 0 .02-6.902.033-15.338.033h-15.336l-5.032-14.533-5.037-14.533-27.932.013-27.933.02-5.038 14.52-5.038 14.513h-14.452c-8.293 0-14.453-.02-14.439-.06.013-.034 12.041-32.322 26.723-71.756l26.697-71.701h14.263c13.52 0 14.27 0 14.31.122z"/><path fill-rule="nonzero" d="M159.135 67.022c-5.437 15.546-9.867 28.283-9.854 28.297.021.02 8.922.027 19.781.013l19.747-.013-9.84-28.155c-5.416-15.479-9.866-28.209-9.9-28.277-.034-.088-3.06 8.476-9.934 28.135zm18.632 1.877l8.638 24.718-8.672.013c-4.768.014-12.588.014-17.383 0l-8.712-.013 8.685-24.846c6.247-17.856 8.705-24.805 8.746-24.711.034.074 3.944 11.251 8.698 24.839zM452.591 141.843c-5.051.243-9.13.723-13.278 1.553-12.419 2.499-23.293 7.854-32.118 15.824-1.911 1.722-4.472 4.396-6.213 6.49-9.409 11.312-15.149 26.27-16.567 43.168-.29 3.424-.325 4.437-.325 8.866 0 4.431.035 5.445.325 8.861 1.352 16.134 6.564 30.363 15.236 41.595 11.318 14.669 28.196 23.515 48.327 25.345 3.046.27 4.255.324 8.084.318 3.817 0 5.051-.048 8.017-.318 19.781-1.81 36.272-10.271 47.652-24.461 9.13-11.386 14.642-26.202 15.986-43.006.424-5.376.41-11.615-.041-17.018-.945-11.326-3.782-21.76-8.36-30.776-7.937-15.62-20.849-26.824-37.367-32.416-6.883-2.33-14.022-3.633-21.949-3.998-1.352-.061-6.274-.081-7.409-.027zm9.186 1.83c16.76 1.169 30.652 6.713 41.81 16.681.991.885 3.701 3.593 4.585 4.586 10.252 11.467 16.336 26.588 17.809 44.263.257 3.132.284 3.936.284 8.576 0 5.017-.055 6.341-.426 10.035-2.074 20.693-10.407 37.609-24.211 49.138-9.232 7.713-21.105 12.744-34.18 14.499-5.76.771-12.128.947-18.052.501-16.159-1.23-30.134-6.943-40.958-16.762-1.352-1.223-3.804-3.702-4.911-4.971-9.191-10.502-14.951-23.96-16.983-39.676-1.061-8.213-1.049-17.707.033-25.846 1.647-12.399 5.55-23.225 11.717-32.504a62.409 62.409 0 0114.608-15.452c7.407-5.545 16.559-9.576 26.251-11.575 4.327-.892 8.266-1.358 13.648-1.621 1.283-.068 7.489.027 8.976.128z"/><path fill-rule="nonzero" d="M453.693 166.122c-16.675 1.073-29.534 11.69-35.321 29.154-2.897 8.752-3.952 19.518-2.972 30.304.945 10.345 3.884 19.434 8.605 26.593 1.702 2.58 3.173 4.384 5.354 6.565 3.121 3.107 6.167 5.281 10.036 7.159 9.42 4.564 20.991 4.971 30.849 1.08 5.775-2.283 10.961-6.079 15.046-11.034 5.418-6.558 9.051-15.068 10.692-25.009.708-4.288 1.033-8.408 1.033-13.19 0-13.796-3.113-25.568-9.13-34.55-3.917-5.842-8.963-10.332-14.871-13.237-4.194-2.066-8.483-3.268-13.298-3.727-1.398-.135-4.687-.196-6.023-.108zm4.321 1.701c5.983.338 11.244 1.858 16.107 4.647 6.363 3.66 11.447 9.171 15.053 16.343 2.181 4.329 3.668 8.692 4.707 13.824.912 4.47 1.33 8.632 1.412 13.898.169 11.827-1.919 22.092-6.186 30.459-2.005 3.923-4.329 7.2-7.193 10.136-4.079 4.167-8.583 7.032-13.973 8.869-5.726 1.95-12.102 2.429-18.363 1.377-7.36-1.237-14.113-4.795-19.395-10.21-6.118-6.282-10.224-14.771-12.19-25.24-1.742-9.265-1.634-20.597.277-29.7 1.884-8.956 5.465-16.486 10.604-22.314.978-1.108 3.14-3.201 4.22-4.086a35.077 35.077 0 0115.493-7.327 38.634 38.634 0 019.427-.676zM525.805 144.349v26.379h44.181V291.35l15.863-.02 15.864-.014.022-60.294.019-60.294h44.248v-26.379H525.805zm118.563 1.701v22.976l-22.177.02-22.18.02-.014 60.287-.019 60.296h-28.29V169.026h-44.181V146.05h116.861z"/></svg>