<svg xmlns="http://www.w3.org/2000/svg" fill="none" viewBox="0 0 363 1775"><path stroke="#FF5000" stroke-dasharray="2 2" stroke-opacity=".5" d="m-253.354 327.029 764.383-764.383m-764.383 867.765 764.383-764.382m-764.383 867.764 764.383-764.382m-764.383 867.765 764.383-764.383m-764.383 867.765L511.029-23.824M-253.354 843.94 511.029 79.558m-764.383 867.765L511.029 182.94m-764.383 867.77 764.383-764.387m-764.383 867.767 764.383-764.385m-764.383 867.765 764.383-764.383m-764.383 867.763 764.383-764.38m-764.383 867.76 764.383-764.378m-764.383 867.768 764.383-764.386M-253.354 1671l764.383-764.383m-764.383 867.763L511.029 1010m-764.383 867.76 764.383-764.38m-764.383 867.77 764.383-764.39m-764.383 867.77 764.383-764.38m-764.383 867.76 764.383-764.38m-764.383 867.76 764.383-764.38m-764.383 867.77 764.383-764.39m-764.383 867.77 764.383-764.38"/></svg>