<svg xmlns="http://www.w3.org/2000/svg" fill="none" viewBox="0 0 120 114"><path fill="#DFDDDF" d="M98.997 7.758c-.348-.01-9.886-1.075-21.205-2.375-11.34-1.292-25.72-2.937-31.953-3.64C39.592 1.035 34.302.403 34.104.355c-.213-.054-.475-.029-.6.07C32.81 1.01.592 36.525.598 36.712c-.004.132 1.582 6.71 3.527 14.61 1.938 7.914 5.197 21.305 7.25 29.753s3.8 15.528 3.87 15.725c.134.324 1.759.896 22.641 8.102 12.371 4.268 23.149 8.01 23.954 8.293.79.277 1.485.464 1.543.404.058-.06 8.91-6.205 19.668-13.675 10.766-7.45 23.26-16.112 27.775-19.24 4.516-3.128 8.26-5.77 8.302-5.87.041-.1-.005-.354-.109-.548-.098-.209-1.75-5.858-3.686-12.563-1.916-6.714-6.174-21.459-9.433-32.787-3.258-11.329-5.947-20.711-5.991-20.847-.098-.292-.126-.304-.912-.31Zm-.664 1.603c-.106.258-1.72 3.464-3.56 7.097-8.956 17.658-14.98 29.57-15.032 29.699-.036.086-.123.134-.209.098-.114-.047-5.269-5.218-21.459-21.566-3.204-3.24-9.617-9.702-14.257-14.374-4.626-4.667-8.374-8.534-8.31-8.608.058-.06 9.174.932 20.275 2.192 11.087 1.253 25.13 2.86 31.189 3.54 6.058.68 11.144 1.278 11.287 1.337.206.069.23.213.076.585Zm3.768 10.098c1.478 5.14 5.518 19.157 8.975 31.138 3.452 11.996 6.335 21.962 6.391 22.152.069.197.075.384-.006.418-.141.058.355.398-30.844-21.663-3.279-2.33-6.011-4.318-6.047-4.433-.065-.128 3.271-6.847 9.15-18.45 5.086-10.054 9.29-18.342 9.331-18.442.042-.1.135-.163.206-.133.086.035 1.353 4.267 2.844 9.413Zm-45.793 4.834c12.207 12.318 22.217 22.45 22.25 22.532.034.08-.186.207-.478.305-.292.097-8.207 2.119-17.611 4.497a9130.747 9130.747 0 0 0-22.7 5.727c-3.091.783-10.77 2.719-17.082 4.314-6.293 1.587-11.47 2.83-11.504 2.75-.04-.067 5.026-12.946 11.242-28.603C32.085 6.445 33.945 1.832 34.059 1.88c.029.012 10.056 10.101 22.249 22.413ZM31.339 5.734c-.42 1.017-5.719 14.337-11.769 29.593-6.055 15.27-11.076 27.799-11.163 27.847-.081.033-1.606-5.882-3.403-13.167L1.74 36.747l8.895-9.733c4.885-5.356 11.666-12.78 15.049-16.494 3.377-3.7 6.205-6.721 6.277-6.692.071.03-.215.884-.622 1.906Zm67.615 55.709c10.145 7.17 18.488 13.108 18.53 13.209.042.101-.244.385-.635.642-.392.258-12.311 8.504-26.478 18.335-14.163 9.817-25.884 17.911-26.037 17.998-.385.159-.5.682 2.065-9.443 1.207-4.816 4.768-18.923 7.894-31.33 3.111-12.415 5.721-22.605 5.774-22.65.052-.045.179-.027.26.058.09.07 8.466 6.005 18.627 13.181Zm-21.805-5.91c-2.39 9.458-11.318 44.906-12.96 51.422-.687 2.751-1.304 5.011-1.365 5.036-.06.026-8.49-7.239-18.739-16.146S21.862 76.528 17.457 72.708c-4.386-3.829-7.981-7.012-7.98-7.095.01-.147 69.122-17.631 69.365-17.53.1.041-.523 2.802-1.693 7.45ZM15.362 72.176c3.193 2.781 14.612 12.71 25.364 22.06 10.759 9.336 19.583 17.066 19.63 17.153.043.101-.408.015-.99-.159-1.926-.613-43.054-14.862-43.087-14.943-.02-.075-5.995-24.688-6.64-27.42-.417-1.75-.435-1.908-.22-1.82.071.03 2.751 2.348 5.943 5.129Z"/></svg>