<svg xmlns="http://www.w3.org/2000/svg" viewBox="0 0 28 28">
  <path
      fill="#000"
      d="M9.153 20.214L7.916 21.45l1.237 1.238 1.238-1.238-1.238-1.237zM6.679 17.74L5.44 18.976l1.238 1.237 1.237-1.237-1.237-1.238z"
    />
  <path
      fill="#000"
      d="M16.223 18.911L9.09 11.776l4.186-4.185-7.47-7.47L0 5.096v8.438l4.204 4.205L5.442 16.5 1.75 12.81V5.9l3.962-3.396L10.8 7.591l-4.186 4.186 9.61 9.609 4.184-4.186 5.088 5.087-3.397 3.963H15.19l-3.561-3.561-1.237 1.237L14.466 28h8.438l4.975-5.804-7.47-7.47-4.186 4.185zM26.25 14H28C27.99 6.272 21.728.01 14 0v1.75c6.762.007 12.243 5.488 12.25 12.25z"
    />
  <path
      fill="#000"
      d="M21.875 14h1.75A9.636 9.636 0 0014 4.375v1.75A7.884 7.884 0 0121.875 14zM17.5 10.5h-1.75v1.75h1.75V10.5z"
    />
</svg>