<svg xmlns="http://www.w3.org/2000/svg" viewBox="0 0 247 368">
  <path
      d="M63.706 364.051c.822.572 4.462 2.935 7.561 3.449-1.55-2.056-4.649-8.075-5.682-11.822-1.55-4.112-2.196-6.645-2.582-8.224-24.278-99.203 22.492-137.751 41.628-153.051-1.615 64.562 32.238 112.444 33.788 115.014l2.066 3.084c8.781-4.112 32.72-17.133 42.283-23.644-2.673 25.888-8.707 56.736-11.29 64.251-1.033 3.006-2.583 7.196-5.165 11.822 2.582-1.028 9.208-5.14 11.88-7.196 2.139-1.646 48.461-34.79 64.657-100.66 16.38-66.391-27.465-126.041-31.081-131.157-3.616-5.115-10.331-11.822-10.331-11.822s1.052 10.575 1.207 12.312c1.82 32.889-5.913 65.615-22.283 94.273 2.992-17.426 4.524-43.079 1.573-80.465-7.537-94.18-93.602-135.042-94.476-135.43-3.612-1.64-6.203-2.98-9.993-4.285 2.066 3.084 2.766 7.196 3.042 9.334 4.987 38.684-4.093 55.772-28.37 101.437-9.83 18.417-21.984 41.351-36.565 71.982-51.99 109.317 47.115 180.113 48.133 180.798zM24.385 187.433c14.488-30.457 26.642-53.279 36.37-71.645 22.704-42.721 33.15-62.354 30.405-97.88 20.71 12.264 75.125 51.122 80.75 123.012 5.049 64.357-.511 84.2-3.015 94.995-2.503 10.794-4.132 13.878-4.132 13.878s8.781-6.01 16.529-14.906c7.749-8.897 29.62-49.723 31.183-90.993 12.277 22.464 31.506 67.035 20.709 111.075-10.653 43.334-37.614 75.109-53.274 90.624 4.359-17.947 10.68-50.054 11.713-59.306.73-6.531 1.55-9.766 1.034-17.476-3.1 4.626-6.716 7.71-9.298 9.766-4.857 3.867-25.43 17.911-39.775 23.644-5.165-5.654-33.39-60.283-28.609-117.18.26-3.097.716-6.695 2.265-9.779-4.132 1.542-8.733 4.628-9.597 5.129-.73.45-83.258 48.841-52.905 162.951-23.245-30.841-66.119-81.213-30.281-155.909h-.072z"
    />
</svg>