<svg width="123" height="512" fill="none" xmlns="http://www.w3.org/2000/svg"><g clip-path="url(#clip0_22:682)"><path fill="#fff" d="M86.063-49v704h-108V-49z"/><path fill-rule="evenodd" clip-rule="evenodd" d="M78.018-24.384l3.47 9.205 7.247 3.21-3.323 7.195 3.457 9.17 9.19-19.901-20.04-8.879zM99.37-63.158L74.807-36.187l12.61 5.966 13.53-17.918-1.578-15.02zm31.212 82.763l-36.255-4.04 5.532-12.807 21.991 4.525 8.732 12.322zm-3.889-45.9L99.66-33.772l-5.394 6.75 15.447 7.129-6.894 15.553 8.507 1.508 15.366-23.463zm45.14 68.791l-3.471-9.205-7.246-3.21 3.322-7.195-3.457-9.17-9.19 19.902 20.042 8.878zm-21.352 38.775l24.563-26.972-12.611-5.966-13.529 17.918 1.577 15.02zM119.27-1.493l36.255 4.04-5.533 12.807-21.991-4.525-8.731-12.322zm3.888 45.9l27.032 7.478 5.394-6.75-15.447-7.13 6.894-15.553-8.507-1.508-15.366 23.463zm2.343-86.771l3.471 9.205 7.246 3.21-3.322 7.195 3.457 9.17 9.19-19.901-20.042-8.879zm21.352-38.774L122.29-54.166l12.611 5.965 13.529-17.917-1.577-15.02zm31.211 82.763l-36.255-4.04 5.533-12.806 21.991 4.524 8.731 12.322zm-3.888-45.9l-27.032-7.477-5.394 6.75 15.447 7.129-6.894 15.553 8.507 1.508 15.366-23.463zM73.997 117.897l3.47 9.205 7.247 3.21-3.323 7.195 3.457 9.169 9.19-19.901-20.041-8.878zm21.35-38.775l-24.561 26.972 12.61 5.966 13.53-17.918-1.578-15.02zm31.213 82.764l-36.256-4.04 5.533-12.807 21.991 4.525 8.732 12.322zm-3.889-45.9l-27.032-7.477-5.394 6.749 15.447 7.13-6.894 15.553 8.507 1.508 15.366-23.463zm45.14 68.791l-3.471-9.205-7.246-3.21 3.323-7.195-3.457-9.169-9.191 19.9 20.042 8.879zm-21.351 38.774l24.562-26.971-12.611-5.966-13.529 17.918 1.578 15.019zm-31.212-82.763l36.255 4.04-5.532 12.807-21.991-4.525-8.732-12.322zm3.889 45.9l27.032 7.477 5.394-6.749-15.447-7.13 6.894-15.553-8.507-1.508-15.366 23.463zm7.798-126.541l-3.471-9.205-7.246-3.21 3.323-7.196-3.457-9.169-9.19 19.901 20.041 8.879zM105.584 98.92l24.562-26.972-12.611-5.965L104.006 83.9l1.578 15.02zM74.372 16.158l36.255 4.04-5.532 12.806-21.991-4.524-8.732-12.322zm3.889 45.9l27.032 7.477 5.394-6.75-15.447-7.13 6.894-15.553-8.507-1.507L78.26 62.058zm43.219 37.859l3.471 9.205 7.246 3.21-3.323 7.195 3.457 9.169 9.191-19.901-20.042-8.878zm21.351-38.775l-24.562 26.972 12.611 5.966 13.529-17.918-1.578-15.02zm31.212 82.764l-36.255-4.04 5.532-12.807 21.991 4.525 8.732 12.322zm-3.889-45.9l-27.032-7.477-5.394 6.749 15.447 7.13-6.894 15.553 8.507 1.508 15.366-23.463zM-13.479 11.444l3.47 9.205 7.247 3.21-3.323 7.195 3.457 9.17 9.19-19.901-20.041-8.879zM7.872-27.33L-16.69-.358l12.61 5.965L9.45-12.31 7.872-27.33zm31.212 82.763l-36.255-4.04L8.36 38.587l21.991 4.524 8.732 12.322zm-3.889-45.9L8.163 2.056 2.77 8.806l15.447 7.13-6.894 15.552 8.507 1.508L35.195 9.533zm45.14 68.791l-3.47-9.205-7.246-3.21 3.322-7.195-3.457-9.169-9.19 19.9 20.041 8.88zM58.985 117.1l24.561-26.972-12.61-5.965-13.53 17.917 1.578 15.02zM27.772 34.335l36.255 4.04-5.533 12.807-21.99-4.525-8.733-12.322zm3.888 45.9l27.032 7.478 5.394-6.75-15.447-7.13 6.894-15.553-8.507-1.508L31.66 80.236zm2.344-86.771l3.471 9.205 7.246 3.21-3.322 7.195 3.457 9.17 9.19-19.902-20.042-8.878zm21.352-38.775L30.793-18.339l12.611 5.966 13.53-17.918-1.578-15.02zm31.211 82.764l-36.255-4.04 5.533-12.807 21.99 4.525 8.732 12.322zm-3.888-45.9l-27.032-7.478-5.394 6.75L65.7-2.045l-6.895 15.553 8.508 1.508L82.679-8.447zM-17.5 153.725l3.47 9.205 7.246 3.21-3.322 7.195 3.457 9.169 9.19-19.9-20.041-8.879zm21.35-38.774l-24.562 26.971 12.611 5.966L5.43 129.97l-1.58-15.019zm31.212 82.763l-36.255-4.04 5.533-12.807 21.99 4.525 8.733 12.322zm-3.888-45.9l-27.032-7.477-5.394 6.749 15.447 7.13L7.3 173.769l8.507 1.508 15.366-23.463z" fill="#262626"/><path fill-rule="evenodd" clip-rule="evenodd" d="M73.567 222.576l-3.47-9.205-7.247-3.21 3.323-7.195-3.458-9.17-9.19 19.901 20.042 8.879zM52.216 261.35l24.562-26.972-12.61-5.965-13.53 17.917 1.578 15.02zm-31.212-82.763l36.255 4.04-5.532 12.806-21.991-4.524-8.732-12.322zm3.888 45.9l27.033 7.477 5.394-6.749-15.447-7.13 6.894-15.553-8.508-1.508-15.366 23.463zM35.438 95.974l-3.47-9.205-7.247-3.21 3.323-7.195-3.457-9.17-9.19 19.902 20.041 8.878zM14.087 134.75l24.562-26.972-12.61-5.966-13.53 17.918 1.578 15.02zm-31.212-82.764l36.255 4.04-5.532 12.807-21.991-4.525-8.732-12.322zm3.889 45.9l27.032 7.478 5.394-6.75-15.447-7.13 6.894-15.553-8.507-1.508-15.366 23.463zm43.219 37.859l3.47 9.204 7.247 3.211-3.323 7.195 3.457 9.169 9.19-19.901-20.041-8.878zM51.334 96.97l-24.562 26.972 12.61 5.965 13.53-17.917-1.578-15.02zm31.212 82.763l-36.256-4.04 5.533-12.806 21.991 4.524 8.732 12.322zm-3.889-45.9l-27.032-7.477-5.394 6.75 15.447 7.129-6.894 15.554 8.507 1.508 15.366-23.464zM69.06 260.835l3.47 9.205 7.247 3.21-3.323 7.195 3.458 9.169 9.19-19.901-20.042-8.878zm21.351-38.775L65.85 249.032l12.61 5.966 13.53-17.918-1.578-15.02zm31.212 82.764l-36.255-4.04 5.532-12.807 21.991 4.525 8.732 12.322zm-3.889-45.9l-27.032-7.477-5.394 6.749 15.447 7.13-6.894 15.553 8.507 1.508 15.366-23.463zm45.14 68.791l-3.471-9.205-7.246-3.21 3.322-7.195-3.457-9.169-9.19 19.9 20.042 8.879zm-21.352 38.774l24.563-26.971-12.611-5.966-13.529 17.918 1.577 15.019zm-31.211-82.763l36.255 4.04-5.533 12.807-21.991-4.525-8.731-12.322zm3.888 45.9l27.032 7.477 5.394-6.749-15.447-7.13 6.894-15.553-8.507-1.508-15.366 23.463zm7.799-126.542l-3.471-9.205-7.246-3.21 3.322-7.195-3.457-9.169-9.19 19.901 20.042 8.878zm-21.352 38.775l24.563-26.972-12.611-5.966-13.53 17.918 1.578 15.02zm-31.211-82.764l36.255 4.04-5.533 12.807-21.99-4.525-8.732-12.322zm3.888 45.9l27.032 7.477 5.394-6.749-15.447-7.13 6.894-15.553-8.507-1.508-15.366 23.463zm43.22 37.859l3.471 9.205 7.246 3.21-3.322 7.196 3.457 9.169 9.19-19.901-20.042-8.879zm21.352-38.774l-24.563 26.972 12.611 5.965 13.529-17.917-1.577-15.02zm31.211 82.763l-36.255-4.04 5.533-12.806 21.991 4.524 8.731 12.322zm-3.888-45.9l-27.032-7.477-5.394 6.75 15.447 7.129-6.894 15.553 8.507 1.508 15.366-23.463zm-188.441 55.59l3.47 9.205 7.247 3.21-3.323 7.195 3.457 9.169 9.19-19.9-20.041-8.879zm21.351-38.774l-24.562 26.971 12.61 5.966 13.53-17.918-1.578-15.019zm31.212 82.763l-36.256-4.04 5.533-12.807 21.991 4.525 8.732 12.322zm-3.889-45.9l-27.032-7.477-5.394 6.749 15.447 7.13-6.894 15.553 8.507 1.508 15.366-23.463zm45.139 68.791l-3.47-9.204-7.247-3.211 3.323-7.195-3.457-9.169-9.19 19.901 20.041 8.878zm-21.35 38.775l24.56-26.972-12.61-5.965-13.53 17.917 1.578 15.02zm-31.213-82.763l36.256 4.039-5.533 12.807-21.991-4.524-8.732-12.322zm3.889 45.9l27.032 7.477 5.394-6.75-15.447-7.129 6.894-15.554-8.507-1.508-15.366 23.464zm7.798-126.543l-3.47-9.205-7.247-3.21 3.323-7.195-3.457-9.169-9.19 19.901 20.041 8.878zm-21.35 38.775l24.561-26.972-12.61-5.966-13.53 17.918 1.578 15.02zm-31.213-82.764l36.256 4.04-5.533 12.807-21.991-4.525-8.732-12.322zm3.889 45.901l27.032 7.477 5.394-6.75-15.447-7.13 6.894-15.553-8.507-1.508-15.366 23.464zm43.22 37.859l3.471 9.205 7.246 3.21-3.323 7.195 3.458 9.169 9.19-19.901-20.042-8.878zm21.351-38.775L21.05 266.75l12.611 5.965 13.53-17.917-1.579-15.02zm31.212 82.764l-36.255-4.04 5.532-12.807 21.992 4.525 8.731 12.322zm-3.888-45.901l-27.033-7.477-5.393 6.75 15.447 7.129-6.895 15.554 8.508 1.508 15.366-23.464zm-8.812 127.131l3.47 9.205 7.246 3.21-3.322 7.196 3.457 9.169 9.19-19.901-20.041-8.879zm21.35-38.774L60.912 391.97l12.611 5.965 13.53-17.917-1.578-15.02zm31.212 82.763l-36.255-4.04 5.533-12.806 21.991 4.524 8.731 12.322zm-3.888-45.9l-27.032-7.477-5.394 6.749 15.447 7.13-6.894 15.553 8.507 1.508 15.366-23.463zm45.14 68.792l-3.471-9.205-7.246-3.21 3.323-7.195-3.457-9.169-9.191 19.9 20.042 8.879zm-21.351 38.774l24.562-26.971-12.611-5.966-13.529 17.918 1.578 15.019zm-31.212-82.763l36.255 4.04-5.532 12.807-21.991-4.525-8.732-12.322zm3.889 45.9l27.032 7.477 5.394-6.749-15.447-7.13 6.894-15.553-8.507-1.508-15.366 23.463zm7.798-126.542l-3.471-9.205-7.246-3.21 3.323-7.195-3.457-9.169-9.19 19.901 20.041 8.878zM95.71 384.797l24.562-26.972-12.611-5.966-13.529 17.918 1.578 15.02zm-31.212-82.764l36.255 4.04-5.532 12.807-21.991-4.525-8.732-12.322zm3.889 45.9l27.032 7.477 5.394-6.749-15.447-7.13 6.894-15.553-8.507-1.508-15.366 23.463zm43.219 37.859l3.471 9.205 7.246 3.211-3.323 7.195 3.457 9.169 9.19-19.901-20.041-8.879zm21.351-38.774l-24.562 26.972 12.611 5.965 13.529-17.917-1.578-15.02zm31.212 82.763l-36.255-4.04 5.532-12.806 21.991 4.524 8.732 12.322zm-3.889-45.9l-27.032-7.477-5.394 6.75 15.447 7.129-6.894 15.553 8.507 1.508 15.366-23.463zm-184.908 53.748l3.471 9.205 7.246 3.21-3.322 7.196 3.457 9.169 9.19-19.901-20.041-8.879zm21.352-38.774l-24.563 26.972 12.611 5.965 13.53-17.917-1.578-15.02zm31.212 82.763l-36.256-4.04 5.533-12.806 21.99 4.524 8.733 12.322zm-3.889-45.9l-27.032-7.477-5.394 6.749 15.447 7.13-6.894 15.553 8.507 1.508 15.366-23.463zm45.14 68.792l-3.47-9.205-7.247-3.211 3.323-7.195-3.457-9.169-9.19 19.901 20.041 8.879zm-21.351 38.774l24.562-26.972-12.61-5.965-13.53 17.917 1.578 15.02zm-31.212-82.763l36.255 4.04-5.532 12.806-21.991-4.524-8.732-12.322zm3.889 45.9l27.032 7.477 5.394-6.75-15.447-7.129 6.894-15.553-8.507-1.508-15.366 23.463z" fill="#262626"/><path fill-rule="evenodd" clip-rule="evenodd" d="M28.311 379.879l-3.47-9.205-7.247-3.21 3.323-7.195-3.457-9.169L8.27 371l20.041 8.879zM6.96 418.653l24.562-26.971-12.61-5.966-13.53 17.918 1.578 15.019zm-31.212-82.763l36.255 4.04-5.532 12.807-21.991-4.525-8.732-12.322zm3.889 45.9l27.032 7.477 5.394-6.749-15.447-7.13 6.894-15.553-8.507-1.508-15.366 23.463zm43.219 37.859l3.47 9.205 7.247 3.21-3.323 7.195 3.457 9.169 9.19-19.901-20.041-8.878zm21.351-38.775l-24.562 26.972 12.61 5.966 13.53-17.918-1.578-15.02zm31.212 82.764l-36.255-4.04 5.532-12.807 21.991 4.525 8.732 12.322zm-3.889-45.9l-27.032-7.477-5.394 6.749 15.447 7.13-6.894 15.553 8.507 1.508 15.366-23.463zm-8.81 127.131l3.47 9.204 7.246 3.211-3.323 7.195 3.458 9.169 9.19-19.901-20.042-8.878zm21.35-38.775l-24.562 26.972 12.611 5.965 13.53-17.917-1.579-15.02zm31.212 82.763l-36.255-4.039 5.532-12.807 21.992 4.524 8.731 12.322zm-3.888-45.9l-27.033-7.477-5.393 6.75 15.447 7.129-6.895 15.554 8.508 1.508 15.366-23.464zm4.263-55.839l-3.471-9.205-7.246-3.21 3.323-7.195-3.458-9.169-9.19 19.901 20.042 8.878zm-21.351 38.775l24.562-26.972-12.611-5.966-13.53 17.918 1.579 15.02zm-31.212-82.764l36.255 4.04-5.533 12.807-21.99-4.525-8.732-12.322zm3.888 45.901l27.033 7.477 5.393-6.75-15.447-7.13 6.895-15.553-8.508-1.508-15.366 23.464zm43.221 37.858l3.47 9.205 7.247 3.21-3.323 7.196 3.457 9.169 9.19-19.901-20.041-8.879zm21.351-38.774l-24.562 26.972 12.61 5.965 13.53-17.917-1.578-15.02zm31.212 82.763l-36.256-4.04 5.533-12.806 21.991 4.524 8.732 12.322zm-3.889-45.9l-27.032-7.477-5.394 6.749 15.447 7.13-6.894 15.553 8.507 1.508 15.366-23.463z" fill="#262626"/></g><defs><clipPath id="clip0_22:682"><path fill="#fff" transform="rotate(90 61.5 61.5)" d="M0 0h512v123H0z"/></clipPath></defs></svg>