<svg xmlns="http://www.w3.org/2000/svg" fill="none" viewBox="0 0 70 70"><path fill="#fff" d="M69.944 0H0v69.944h69.944V0Zm-2.098 2.098v65.748H2.098V2.098h65.748Z"/><path fill="#fff" d="M41.972 55.281h-13.99v3.497h13.99v-3.497Zm-24.898-6.758C12.16 44.158 13.56 34.48 13.12 30.031c1.859 1.782 5.583 2.189 8.124 4.67-4.73-7.421 1.006-17.419 5.99-19.56-.594 2.912.345 5.447 1.547 7.81 1.908-3.353 5.17-6.107 7.905-8.756-.502 1.223-.603 2.658-.59 4.154 3.468-2.846 7.545-5.25 8.338-7.548-1.03 5.16-.08 7.586 1.389 15.14 2.148-2.025 4.266-3.999 4.94-6.187 3.309 8.246 5.793 17.85-.371 24.545 3.043-.991 5.027-4.233 5.93-7.86-.351 2.348 1.625 8.334-.017 12.734-1.324 3.596-5.743 5.591-10.293 5.694 1.205-2.013 2.304-3.853 3.19-4.58-1.912 1.433-3.625 2.55-5.214 2.73 1.478-3.328 1.63-7.546 1.852-11.258-.54 1.076-1.454 1.982-2.415 2.87.173-3.47-.134-6.726.79-8.896-1.144 2.312-2.932 3.729-4.987 5.254-1.007-3.263-2.514-6.726-2.215-10.95-1.288 4.706-4.868 7.349-5.448 11.232-.56-.841-1.034-1.695-1.247-2.598-.333 1.743-.72 3.592-.92 5.437-1.611-1.194-3.22-2.318-4.187-3.65.534 2.89-.26 5.796.534 8.77-.814-.383-1.482-.764-1.876-1.162.755 1.727.979 3.111 1.215 4.2-1.137-.255-2.327-.84-3.665-2.057.393 1.891 1.026 3.507 1.83 4.861-3.283.064-7.263-1.237-10.26-8.257 1.528 1.068 2.85 1.547 4.085 1.71Z"/></svg>