<svg xmlns="http://www.w3.org/2000/svg" fill="none" viewBox="0 0 70 70"><g fill="#fff" clip-path="url(#a)"><path d="M69.944 0H0v69.944h69.944V0Zm-2.098 2.098v65.748H2.098V2.098h65.748Z"/><path d="M10.731 12.374v24.802c0 1.42.611 2.772 1.677 3.71l8.39 7.391a2.99 2.99 0 0 1 1.013 2.243v12.63h10.814V44.39c0-1.794-.892-3.47-2.381-4.47l-13.197-8.87-2.434 3.6.793.534 7.394 5.092-.794 1.153-7.393-5.093L12.599 35l3.81-5.395-2.06-17.23H10.731Zm46.671 0H55.3l-1.75 18.076 3.15 4.55-8.752 6.429-.794-1.153L54.95 35l-2.45-3.5-12.789 8.42a5.386 5.386 0 0 0-2.382 4.47v18.76h10.815V50.52c0-.859.37-1.676 1.013-2.243l8.39-7.39a4.943 4.943 0 0 0 1.676-3.71V12.373h-1.82Zm-21.726 9.838v14.2l12.297-7.1V15.114l-12.297 7.1Zm-1.399 0-12.296-7.099v14.2l12.296 7.099v-14.2Zm-11.597-8.31 12.297-7.1 12.297 7.1-12.297 7.1-12.297-7.1Z"/></g><defs><clipPath id="a"><path fill="#fff" d="M0 0h70v70H0z"/></clipPath></defs></svg>