<svg width="87" height="114" fill="none" xmlns="http://www.w3.org/2000/svg"><g clip-path="url(#clip0_379:2)"><path fill-rule="evenodd" clip-rule="evenodd" d="M31.434 27.183H29.97l-1.319-2.08 8.646-18.45V4.482l-.909-2.767L38.761 0l2.374 1.715-.908 2.767v2.136l8.646 18.485-1.32 2.08h-1.465v9.665l5.188 4.365 2.637-5.265 3.664-8.44-.938-2.826 2.55-1.85 2.579 1.85-.909 2.77 3.664 8.496 3.487 6.96.06 12.03-.03 21.752c0 2.986.703 5.931 2.052 8.596.498.999.908 1.79.908 1.79l-1.847-.917a19.115 19.115 0 00-8.528-2.004H38.761c-7.972 0-15.21-3.185-20.516-8.347h-.029v-.05c-5.422-5.303-8.763-12.674-8.763-20.82V41.791h-.03l.03-1.46v-6.063l3.43-6.834 3.78-8.739-.967-2.96 2.55-1.845 2.55 1.846-.968 2.96 3.781 8.738 3.429 6.834v6.152l4.396-3.693v-9.545zM65.11 67.814l-5.832-11.415H41.663l-2.902 5.706v22.05-2.922h21.864c1.73 0 3.43.199 5.1.593a21.654 21.654 0 01-.616-5.142v-8.87zm-18.053 4.999v8.42h-2.931v-9.11l3.487-6.959h7.679l3.488 6.96v9.11h-2.931v-8.421l-2.374-4.727H49.43l-2.373 4.727zm-25.909 1.683a26.253 26.253 0 0014.683 6.573V63.706H21.147v10.79zm-286.251-5.306c.733 0 1.406.123 2.022.371.615.246 1.173.617 1.7 1.11.586.556.996 1.207 1.289 1.958.294.75.44 1.584.44 2.492 0 .625-.059 1.216-.205 1.768a5.966 5.966 0 01-.645 1.563 5.007 5.007 0 01-1.934 1.913c-.792.46-1.7.687-2.667.687a5.58 5.58 0 01-2.023-.371 5.078 5.078 0 01-1.699-1.075 5.626 5.626 0 01-1.29-1.966c-.293-.757-.439-1.599-.439-2.519 0-.914.146-1.75.439-2.5.293-.752.704-1.4 1.29-1.95a4.983 4.983 0 011.699-1.107 5.468 5.468 0 012.023-.374zm109.114 0a5.36 5.36 0 012.022.371 5.115 5.115 0 011.7 1.11c.586.556.996 1.207 1.289 1.958.293.75.44 1.584.44 2.492 0 .625-.059 1.216-.205 1.768a5.966 5.966 0 01-.645 1.563 5.007 5.007 0 01-1.934 1.913c-.792.46-1.7.687-2.667.687a5.58 5.58 0 01-2.023-.371 5.082 5.082 0 01-1.7-1.075 5.638 5.638 0 01-1.289-1.966c-.293-.757-.44-1.599-.44-2.519 0-.914.147-1.75.44-2.5.293-.752.733-1.4 1.289-1.95a5.292 5.292 0 011.7-1.107 5.58 5.58 0 012.023-.374zm64.829 0c.733 0 1.407.123 2.022.371a5.102 5.102 0 011.7 1.11 5.334 5.334 0 011.319 1.958c.293.75.44 1.584.44 2.492a6.87 6.87 0 01-.235 1.768 5.946 5.946 0 01-.645 1.563 5.002 5.002 0 01-1.934 1.913c-.791.46-1.67.687-2.667.687a5.579 5.579 0 01-2.023-.371 4.68 4.68 0 01-1.67-1.075 5.32 5.32 0 01-1.319-1.966c-.293-.757-.44-1.599-.44-2.519 0-.914.147-1.75.44-2.5.293-.752.733-1.4 1.29-1.95a5.277 5.277 0 011.7-1.107 5.58 5.58 0 012.022-.374zm-143.67 11.205c-.557.193-1.143.339-1.7.438-.586.102-1.172.155-1.729.155a6.656 6.656 0 01-1.553-.175 5.586 5.586 0 01-1.319-.5c-.909-.517-1.612-1.236-2.14-2.16a6.02 6.02 0 01-.791-3.032c0-1.756.557-3.167 1.641-4.24 1.055-1.072 2.491-1.609 4.25-1.609.498 0 1.026.05 1.583.146.556.093 1.142.24 1.758.43v2.591h-.938l-.264-1.528-.234-.307a5.32 5.32 0 00-.938-.327 4.111 4.111 0 00-.938-.108c-1.289 0-2.286.432-3.048 1.3-.733.868-1.114 2.045-1.114 3.538 0 1.584.381 2.828 1.173 3.731.791.9 1.846 1.353 3.253 1.353.234 0 .469-.018.703-.056.264-.035.498-.09.762-.166l.264-.263.411-1.876h.908v2.665zm23.417-10.916v.69l-.967.082-.293.24v9.278l.293.24.967.082v.69h-4.103v-.69l1.055-.082.264-.24v-9.518h-2.667c-.03.43-.059.885-.088 1.367-.059.482-.088.961-.147 1.437-.058.48-.117.935-.176 1.368a9.872 9.872 0 01-.146 1.133 24.916 24.916 0 01-.44 1.856 12.38 12.38 0 01-.703 1.753c-.293.528-.616.964-.997 1.308-.381.342-.791.515-1.26.515-.117 0-.234-.015-.351-.038a1.342 1.342 0 01-.381-.143.948.948 0 01-.293-.31c-.088-.135-.118-.313-.118-.538 0-.26.059-.47.205-.634.147-.163.293-.274.499-.33l1.26.742c.176-.26.351-.534.498-.826.176-.296.322-.623.44-.988.146-.365.263-.777.381-1.239.117-.462.205-.987.322-1.58.059-.36.146-.944.234-1.748.118-.803.206-1.735.264-2.798l-.264-.226-1.465-.163v-.69h8.177zm107.004 0v.69l-1.055.082-.264.24v4.122h1.231c.117 0 .263-.018.469-.05.205-.035.41-.129.586-.29a1.95 1.95 0 00.557-.616c.146-.248.263-.438.293-.575l.732-1.622c.118-.245.235-.496.381-.748.147-.251.294-.479.469-.678a2.07 2.07 0 01.557-.5 1.42 1.42 0 01.762-.195c.352 0 .616.088.85.263.205.175.323.43.323.766 0 .213-.06.4-.177.558a.826.826 0 01-.41.353l-1.201-.739c-.176.225-.323.415-.381.573l-.967 2.159c-.235.537-.499.917-.762 1.142-.293.225-.557.38-.792.468v.035c.352.07.674.192.967.365.264.172.499.356.674.546.088.123.206.301.381.535.147.236.323.613.557 1.136l.997 2.22.44.29 1.172.082v.69h-3.195v-.503l-1.143-2.951c-.234-.593-.498-1.075-.85-1.45-.351-.37-.85-.557-1.494-.557h-1.026v4.45l.264.239 1.055.082v.69h-4.104v-.69l.968-.082.293-.24V70.49l-.293-.24-.968-.081v-.69h4.104zm97.302.69l-.967.082-.293.24v9.278l.293.24.967.082v.69h-4.015v-.69l.967-.082.293-.24v-4.145l-.996-.033c-.498 0-.909.112-1.26.337-.352.225-.645.65-.909 1.282l-1.202 3.068v.502h-3.136v-.69l1.173-.081.44-.29.937-2.006c.117-.237.235-.48.381-.734.117-.251.264-.488.44-.707.176-.219.38-.409.615-.57.206-.163.498-.277.791-.341v-.041a4.408 4.408 0 01-1.025-.167 2.761 2.761 0 01-.997-.476 2.815 2.815 0 01-.732-.85 2.79 2.79 0 01-.293-1.265c0-.707.146-1.265.468-1.677a2.895 2.895 0 011.056-.93 4.16 4.16 0 011.318-.394 8.84 8.84 0 011.114-.082h4.572v.69zm-221.334-.83h1.114l4.044 10.544 1.026.208v.69h-3.839v-.69l1.025-.082.147-.24-1.231-3.216h-3.986l-1.201 3.216.175.24 1.085.082v.69h-3.312v-.69l.967-.208 3.986-10.544zm112.25.83l-.967.082-.293.24v9.278l.293.24.967.082v.69h-4.015v-.69l.967-.082.293-.24v-4.145l-.997-.033c-.498 0-.908.112-1.26.337-.352.225-.645.65-.879 1.282l-1.231 3.068v.502h-3.136v-.69l1.172-.081.469-.29.909-2.006c.117-.237.234-.48.381-.734a3.5 3.5 0 01.439-.707c.176-.219.381-.409.616-.57a2.18 2.18 0 01.791-.341v-.041a4.416 4.416 0 01-1.026-.167 3.02 3.02 0 01-.996-.476 2.815 2.815 0 01-.733-.85 2.789 2.789 0 01-.293-1.265c0-.707.176-1.265.469-1.677a2.76 2.76 0 011.084-.93c.411-.207.85-.338 1.29-.394.44-.055.821-.082 1.114-.082h4.572v.69zm-78.223-.69v.69l-1.055.082-.294.24v7.625l6.038-7.29v-.336l-.293-.24-1.055-.081v-.69h4.103v.69l-.938.082-.293.24v9.278l.293.24.938.082v.69h-4.103v-.69l1.055-.082.293-.24v-7.797l-6.038 7.295v.502l.294.24 1.055.082v.69h-4.103v-.69l.967-.082.293-.24V70.49l-.293-.24-.967-.081v-.69h4.103zm150.936 0h4.103v.675l-1.026.097-.293.24v3.973h5.803V70.49l-.293-.24-1.026-.096v-.675h4.104v.675l-.968.097-.293.24v9.278l.293.24.968.082v.69h-4.104v-.69l1.026-.082.293-.24v-4.531h-5.803v4.531l.293.24 1.026.082v.69h-4.103v-.69l.967-.082.293-.24V70.49l-.293-.24-.967-.096v-.675zm-7.386-.14h1.114l4.045 10.544 1.025.208v.69h-3.84v-.69l1.056-.082.117-.24-1.23-3.216h-3.986l-1.202 3.216.176.24 1.084.082v.69h-3.312v-.69l.997-.208 3.956-10.544zm-6.213.14v.69l-.967.082-.293.24v9.278l.293.24.967.082v.69h-4.103v-.69l1.055-.082.264-.24v-9.518h-5.481v9.518l.293.24 1.055.082v.69h-4.103v-.69l.967-.082.293-.24V70.49l-.293-.24-.967-.081v-.69h11.02zm-221.275 0v.69l-1.055.082-.293.24v4.122h1.26c.117 0 .263-.018.469-.05.205-.035.38-.129.586-.29a1.95 1.95 0 00.557-.616c.146-.248.234-.438.293-.575l.732-1.622c.118-.245.235-.496.381-.748.118-.251.294-.479.44-.678.176-.201.381-.368.586-.5a1.42 1.42 0 01.762-.195c.352 0 .616.088.821.263.234.175.352.43.352.766 0 .213-.059.4-.176.558a.828.828 0 01-.411.353l-1.201-.739c-.205.225-.323.415-.381.573l-.968 2.159c-.234.537-.498.917-.791 1.142a2.62 2.62 0 01-.762.468v.035c.352.07.674.192.967.365.264.172.499.356.645.546.117.123.235.301.381.535.147.236.352.613.586 1.136l.997 2.22.44.29 1.172.082v.69h-3.224v-.503l-1.114-2.951a5.03 5.03 0 00-.85-1.45c-.351-.37-.85-.557-1.494-.557h-1.055v4.45l.293.239 1.055.082v.69h-4.104v-.69l.967-.082.294-.24V70.49l-.294-.24-.967-.081v-.69h4.104zm93.346 0h4.103v.675l-1.026.097-.293.24v3.973h5.803V70.49l-.293-.24-1.026-.096v-.675h4.103v.675l-.967.097-.293.24v9.278l.293.24.967.082v.69h-4.103v-.69l1.026-.082.293-.24v-4.531h-5.803v4.531l.293.24 1.026.082v.69h-4.103v-.69l.967-.082.293-.24V70.49l-.293-.24-.967-.096v-.675zm-24.736 0h9.554v2.592h-.938l-.234-1.563-.235-.257h-2.579v9.518l.264.24 1.143.082v.69h-4.396v-.69l1.113-.082.294-.24v-9.518h-2.58l-.234.257-.235 1.563h-.937v-2.592zm-47.772 0h4.103v.675l-1.055.097-.294.24v3.973h5.804V70.49l-.294-.24-1.025-.096v-.675h4.103v.675l-.967.097-.294.24v9.278l.294.24.967.082v.69h-4.103v-.69l1.025-.082.294-.24v-4.531h-5.804v4.531l.294.24 1.055.082v.69h-4.103v-.69l.937-.082.294-.24V70.49l-.294-.24-.937-.096v-.675zm231.474 0v.69l-1.055.082-.293.24v7.625l6.008-7.29v-.336l-.264-.24-1.055-.081v-.69h4.104v.69l-.968.082-.293.24v9.278l.293.24.968.082v.69h-4.104v-.69l1.055-.082.264-.24v-7.797l-6.008 7.295v.502l.293.24 1.055.082v.69h-4.103v-.69l.938-.082.293-.24V70.49l-.293-.24-.938-.081v-.69h4.103zm-122.361 0h4.308c1.29 0 2.257.225 2.902.675.645.447.967 1.134.967 2.054 0 .637-.205 1.172-.615 1.601-.411.43-1.026.757-1.847.976.997.009 1.759.251 2.316.728.556.473.82 1.13.82 1.969 0 1.07-.381 1.887-1.113 2.451-.762.567-1.847.847-3.283.847h-4.455v-.69l.938-.081.293-.24V70.49l-.293-.24-.938-.096v-.675zm-23.153 10.612l.967-.082.293-.24V70.49l-.293-.24-1.084-.081v-.69h8.089v3.068h-.88l-.293-2.025-.234-.271h-3.781v9.518l.293.24 1.173.082v.69h-4.25v-.69zm38.452-10.752h1.084l4.074 10.544.997.208v.69h-3.84v-.69l1.055-.082.118-.24-1.202-3.216h-3.986l-1.202 3.216.176.24 1.085.082v.69h-3.312v-.69l.967-.208 3.986-10.544zM-83.63 80.78v-.69l1.026-.13.293-.322V70.49l-.205-.24-1.114-.096v-.675h3.576v.453l3.194 8.456 3.195-8.392v-.517h3.634v.675l-1.085.097-.205.24v9.278l.205.24 1.085.082v.69h-4.045v-.69l1.114-.082.147-.24v-9.5L-76.8 80.78h-.733l-3.84-10.34v9.198l.294.321 1.026.132v.69h-3.576zm-181.475-10.675c-1.114 0-2.023.45-2.697 1.352-.674.903-.996 2.124-.996 3.664 0 1.537.322 2.758.996 3.67.674.908 1.583 1.364 2.697 1.364s2.022-.456 2.667-1.37c.674-.912 1.026-2.133 1.026-3.664 0-1.53-.352-2.75-1.026-3.655-.645-.909-1.553-1.361-2.667-1.361zm109.114 0c-1.114 0-2.023.45-2.697 1.352-.674.903-.996 2.124-.996 3.664 0 1.537.322 2.758.996 3.67.674.908 1.583 1.364 2.697 1.364 1.113 0 2.022-.456 2.696-1.37.644-.912.996-2.133.996-3.664 0-1.53-.352-2.75-.996-3.655-.674-.909-1.583-1.361-2.696-1.361zm64.829 0c-1.114 0-2.022.45-2.697 1.352-.644.903-.996 2.124-.996 3.664 0 1.537.352 2.758 1.026 3.67.645.908 1.553 1.364 2.667 1.364 1.114 0 2.022-.456 2.696-1.37.674-.912.997-2.133.997-3.664 0-1.53-.323-2.75-.997-3.655-.674-.909-1.582-1.361-2.696-1.361zm-54.484 9.837l1.143.05c1.143 0 1.993-.19 2.521-.573.527-.38.791-.988.791-1.82 0-.763-.235-1.333-.703-1.704-.469-.374-1.143-.56-2.081-.56-.235 0-.469.011-.762.029-.264.02-.586.046-.909.078v4.5zm95.046-8.835l-1.67 4.671h3.4l-1.73-4.671zm-82.267 0l-1.642 4.671h3.4l-1.758-4.671zm-95.31 0l-1.671 4.671h3.4l-1.729-4.671zm261.075 1.361h-2.93v2.922h2.93v-2.922zm-42.76-2.217h-1.025c-.323 0-.704.023-1.114.067a2.2 2.2 0 00-1.085.418c-.38.274-.615.593-.732.952-.088.36-.147.672-.147.94 0 .194.03.416.088.667.03.251.176.49.381.716.176.225.498.415.88.573.41.154.937.233 1.611.233l1.143-.032v-4.534zm-109.084 0h-1.026c-.322 0-.674.023-1.114.067-.41.044-.762.184-1.084.418-.381.274-.615.593-.733.952-.088.36-.146.672-.146.94 0 .194.029.416.088.667.058.251.176.49.381.716.205.225.498.415.879.573.41.154.938.233 1.612.233l1.143-.032v-4.534zm-26.7 4.344l.645.018c1.055 0 1.846-.19 2.344-.564.499-.377.763-.967.763-1.774 0-.686-.235-1.2-.704-1.542-.469-.342-1.172-.514-2.081-.514l-.967.05v4.326zm158.03-32.783v13.126a26.026 26.026 0 005.832 16.475V60.785h17.907l3.752-7.307h10.55v-4.383H27.039v11.687h-2.93V41.893l-11.724-.081zm14.654 24.813h-2.93v2.922h2.93v-2.922zm5.862 0h-2.931v2.922h2.93v-2.922zm15.62-4.383h5.862v-2.921h-5.861v2.922zm-281.825-37.218c2.257 0 4.338.385 6.301 1.157 1.935.768 3.693 1.925 5.305 3.465a16.87 16.87 0 014.044 6.112c.909 2.346 1.378 4.938 1.378 7.78 0 1.952-.205 3.792-.674 5.522a19.213 19.213 0 01-1.993 4.876c-1.495 2.55-3.517 4.543-6.038 5.972-2.52 1.429-5.304 2.145-8.323 2.145-2.257 0-4.367-.386-6.331-1.157a15.58 15.58 0 01-5.275-3.363c-1.788-1.73-3.136-3.775-4.074-6.139-.908-2.36-1.377-4.98-1.377-7.856 0-2.86.469-5.46 1.377-7.806a16.948 16.948 0 014.015-6.086c1.583-1.522 3.341-2.673 5.334-3.454 1.964-.78 4.074-1.168 6.331-1.168zm202.518 1.747c2.228-.701 4.162-1.128 5.774-1.27 1.641-.147 2.902-.22 3.84-.22 1.435 0 2.93.108 4.425.321 1.465.213 2.843.637 4.044 1.271a7.942 7.942 0 012.96 2.682c.792 1.157 1.173 2.676 1.173 4.558a7.04 7.04 0 01-.47 2.53 7.764 7.764 0 01-1.435 2.376 9.578 9.578 0 01-2.345 1.94c-.938.555-1.993.996-3.194 1.32v.102c1.348.07 2.579.33 3.693.783 1.113.456 2.11 1.05 2.93 1.785a7.998 7.998 0 011.934 2.633c.47 1.02.675 2.11.675 3.275 0 1.677-.294 3.208-.938 4.596-.645 1.387-1.7 2.585-3.165 3.593-.733.532-1.583.973-2.52 1.324a22.72 22.72 0 01-5.686 1.335c-.939.093-1.789.14-2.55.14-.323 0-.792-.02-1.466-.064a48.853 48.853 0 01-2.316-.216 35.225 35.225 0 01-2.96-.488 29.722 29.722 0 01-3.458-.926v-9.244h2.96l.792 6.036.674.897a9.37 9.37 0 002.344 1.002c.82.24 1.876.359 3.166.359 1.406 0 2.696-.175 3.897-.526 1.202-.35 2.228-.85 3.107-1.502a7.074 7.074 0 002.081-2.39c.528-.94.762-2.027.762-3.26 0-1.712-.322-3.059-.967-4.043-.645-.985-1.436-1.73-2.345-2.235a8.043 8.043 0 00-2.872-.95 20.871 20.871 0 00-2.608-.193c-.82 0-1.583.047-2.286.143a15.17 15.17 0 00-2.257.5v-3.158c.176 0 .557.017 1.143.052.586.032 1.172.05 1.758.05 1.055 0 2.14-.094 3.224-.284 1.085-.187 2.11-.666 3.048-1.437.909-.736 1.554-1.551 1.905-2.451.381-.9.557-1.853.557-2.863 0-1.268-.205-2.33-.645-3.185-.44-.856-.996-1.549-1.729-2.08a6.518 6.518 0 00-2.345-1.131 10.736 10.736 0 00-2.637-.333c-.938 0-1.817.088-2.696.257-.85.172-1.73.453-2.638.847l-.792.874-.586 5.008h-2.96v-8.14zm-141.499 0c2.228-.701 4.133-1.128 5.774-1.27 1.641-.147 2.901-.22 3.839-.22 1.436 0 2.902.108 4.396.321 1.495.213 2.843.637 4.074 1.271a7.94 7.94 0 012.96 2.682c.762 1.157 1.173 2.676 1.173 4.558 0 .839-.176 1.683-.499 2.53-.293.847-.791 1.64-1.406 2.376-.645.736-1.437 1.382-2.345 1.94-.938.555-1.993.996-3.195 1.32v.102c1.319.07 2.55.33 3.693.783a10.484 10.484 0 012.931 1.785 7.516 7.516 0 011.905 2.633 7.74 7.74 0 01.704 3.275c0 1.677-.323 3.208-.938 4.596-.645 1.387-1.7 2.585-3.166 3.593-.762.532-1.582.973-2.52 1.324a22.716 22.716 0 01-5.686 1.335 26.01 26.01 0 01-2.579.14c-.293 0-.791-.02-1.436-.064a45.489 45.489 0 01-2.315-.216 35.766 35.766 0 01-2.99-.488 30.988 30.988 0 01-3.429-.926v-9.244h2.96l.792 6.036.674.897a9.668 9.668 0 002.315 1.002c.85.24 1.905.359 3.165.359 1.407 0 2.726-.175 3.927-.526 1.173-.35 2.228-.85 3.107-1.502.879-.651 1.583-1.446 2.081-2.39.498-.94.762-2.027.762-3.26 0-1.712-.322-3.059-.967-4.043-.674-.985-1.436-1.73-2.345-2.235a8.036 8.036 0 00-2.872-.95c-1.026-.129-1.876-.193-2.638-.193-.791 0-1.553.047-2.257.143-.703.094-1.465.26-2.256.5v-3.158c.176 0 .557.017 1.114.052.586.032 1.172.05 1.758.05 1.055 0 2.14-.094 3.224-.284 1.114-.187 2.11-.666 3.077-1.437.909-.736 1.524-1.551 1.905-2.451.381-.9.557-1.853.557-2.863 0-1.268-.234-2.33-.644-3.185a6.02 6.02 0 00-1.73-2.08 6.642 6.642 0 00-2.374-1.131 10.504 10.504 0 00-2.608-.333c-.938 0-1.847.088-2.697.257-.849.172-1.729.453-2.637.847l-.821.874-.557 5.008h-2.96v-8.14zm-8.118 33.228a35.011 35.011 0 01-5.305 1.373 30.963 30.963 0 01-5.334.473c-1.729 0-3.37-.178-4.865-.537-1.524-.36-2.902-.883-4.132-1.566-2.843-1.61-5.071-3.857-6.683-6.74-1.612-2.887-2.432-6.04-2.432-9.464 0-5.478 1.67-9.89 5.041-13.238 3.341-3.345 7.766-5.02 13.276-5.02 1.583 0 3.253.15 4.982.45a42.03 42.03 0 015.452 1.348v8.09h-2.931l-.82-4.777-.674-.95a16.598 16.598 0 00-2.961-1.028 13.242 13.242 0 00-2.96-.333c-3.956 0-7.122 1.353-9.466 4.058-2.345 2.703-3.517 6.384-3.517 11.04 0 4.947 1.231 8.83 3.663 11.647 2.433 2.816 5.832 4.221 10.141 4.221.732 0 1.494-.055 2.256-.166a14.263 14.263 0 002.316-.526l.821-.821 1.289-5.855h2.843v8.32zm245.542-10.38l-.644-.524H53.356v4.383h7.709l4.073 7.929V49.618zM-55.318 25.484h3.488l12.661 32.921 3.165.64v2.16H-47.99v-2.16l3.282-.254.381-.745-3.81-10.042h-12.456l-3.751 10.042.527.745 3.43.254v2.16h-10.317v-2.16l3.019-.64 12.367-32.92zm-72.947 0h3.458l12.661 32.921 3.166.64v2.16h-11.988v-2.16l3.283-.254.381-.745-3.81-10.042h-12.456l-3.751 10.042.556.745 3.4.254v2.16h-10.316v-2.16l3.048-.64 12.368-32.92zm35.902.439v2.156l-3.253.257-.908.745v12.864h3.839c.38 0 .879-.053 1.495-.155.644-.102 1.23-.4 1.846-.897a6.144 6.144 0 001.729-1.928c.469-.769.791-1.367.938-1.797l2.286-5.057a32.23 32.23 0 011.172-2.338c.41-.785.88-1.493 1.407-2.118a8.595 8.595 0 011.788-1.554c.674-.41 1.465-.617 2.403-.617 1.055 0 1.905.275 2.609.824.674.547 1.025 1.341 1.025 2.387a3.15 3.15 0 01-.498 1.747 3.254 3.254 0 01-1.319 1.102l-3.78-2.311c-.557.704-.939 1.297-1.173 1.785-.205.488-.44 1.049-.733 1.683l-2.256 5.057c-.762 1.68-1.554 2.87-2.462 3.57-.88.702-1.7 1.19-2.403 1.464v.102c1.113.222 2.11.605 2.99 1.143.878.54 1.552 1.11 2.08 1.709.322.377.703.932 1.172 1.668.498.736 1.085 1.917 1.788 3.544l3.107 6.933 1.407.9 3.634.254v2.16h-9.994v-1.567l-3.547-9.22c-.703-1.847-1.582-3.354-2.667-4.517-1.084-1.166-2.608-1.747-4.63-1.747h-3.253v13.892l.908.745 3.253.254v2.16h-12.807v-2.16l2.989-.254.908-.745V29.082l-.908-.745-2.989-.257v-2.156h12.807zm-189.535 33.122l3.019-.254.909-.745V29.082l-.909-.745-3.429-.257v-2.156h25.322V35.5h-2.755l-.938-6.317-.732-.847h-11.811v29.71l.879.745 3.751.254v2.16h-13.306v-2.16zm48.593-31.17c-3.546 0-6.331 1.408-8.441 4.221-2.081 2.817-3.136 6.63-3.136 11.441 0 4.795 1.055 8.61 3.166 11.453 2.11 2.84 4.923 4.263 8.411 4.263 3.488 0 6.243-1.426 8.353-4.278 2.081-2.848 3.136-6.66 3.136-11.438 0-4.777-1.055-8.58-3.136-11.415-2.11-2.83-4.865-4.248-8.353-4.248zM16.78 46.172v5.844h2.93v-5.844h-2.93zm36.576-2.576v2.576h7.591l-6.3-5.159-1.29 2.583zm-9.407-4.728h-3.722v7.304h10.111v-1.93l-6.39-5.374zm-16.911 5.373v1.931h10.258V38.87h-3.869l-6.39 5.373zm29.63-5.373l8.412 6.922v-2.194l-2.374-4.728h-6.038zm-111.165-7.862l-5.187 14.585h10.638l-5.45-14.585zm-72.947 0l-5.217 14.585h10.638l-5.421-14.585zm139.828 3.95v3.933l9.29.067-8-6.582-1.29 2.582zm3.282-4.727l8.441 6.921v-2.194l-2.374-4.727h-6.067zm27.491-3.047h-8.792v8.765h8.792v-8.765zm13.951 8.765h4.22l-2.11-4.876-2.11 4.876zm-40.973-8.64h4.22l-2.11-4.902-2.11 4.903zm16.12-3.047h12.983l-6.477-13.85-6.506 13.85z" fill="#012336"/></g><path d="M5.47 110.346c.23 0 .443.038.637.115.194.075.379.19.536.342.175.17.314.371.406.603.092.231.139.486.139.767 0 .193-.019.375-.065.545-.046.171-.11.331-.203.481a1.566 1.566 0 01-.61.59c-.25.14-.536.211-.84.211a1.77 1.77 0 01-.638-.114 1.611 1.611 0 01-.536-.332 1.724 1.724 0 01-.406-.606 2.084 2.084 0 01-.14-.775c0-.282.047-.539.14-.77.092-.231.221-.432.406-.6.157-.151.333-.265.536-.341a1.71 1.71 0 01.637-.116zm34.395 0c.23 0 .443.038.637.115.194.075.379.19.536.342.185.17.314.371.406.603.093.231.139.486.139.767 0 .193-.018.375-.065.545-.046.171-.11.331-.203.481a1.566 1.566 0 01-.61.59c-.25.14-.535.211-.84.211a1.81 1.81 0 01-.638-.114 1.612 1.612 0 01-.536-.332 1.724 1.724 0 01-.406-.606 2.086 2.086 0 01-.139-.775c0-.282.047-.539.139-.77a1.59 1.59 0 01.406-.6c.157-.151.333-.265.536-.341a1.75 1.75 0 01.638-.116zm20.435 0c.231 0 .444.038.638.115.194.075.379.19.536.342.184.17.314.371.406.603.102.231.148.486.148.767 0 .193-.028.375-.074.545-.046.171-.11.331-.203.481a1.566 1.566 0 01-.61.59 1.68 1.68 0 01-.84.211c-.222 0-.435-.038-.638-.114a1.485 1.485 0 01-.527-.332 1.632 1.632 0 01-.415-.606 2.086 2.086 0 01-.139-.775c0-.282.046-.539.139-.77a1.7 1.7 0 01.406-.6c.157-.151.342-.265.536-.341.203-.077.416-.116.637-.116zm-45.287 3.452c-.176.058-.36.103-.536.135-.185.031-.36.046-.545.046-.176 0-.333-.017-.49-.053a1.764 1.764 0 01-.415-.155 1.737 1.737 0 01-.675-.665 1.813 1.813 0 01-.25-.933c0-.541.176-.976.509-1.306.341-.331.794-.495 1.348-.495.158 0 .324.014.5.044.175.029.36.074.554.133v.798h-.305l-.074-.471-.074-.094a1.743 1.743 0 00-.296-.102 1.417 1.417 0 00-.295-.032c-.407 0-.72.133-.961.4-.23.267-.351.63-.351 1.089 0 .489.12.871.37 1.149.24.278.582.417 1.016.417a1.54 1.54 0 00.462-.068l.092-.081.13-.578h.286v.822zm7.381-3.363v.213l-.304.025-.093.074v2.858l.093.073.304.025v.213h-1.293v-.213l.323-.025.093-.073v-2.932h-.841c-.01.131-.018.272-.028.42-.018.15-.027.297-.046.444-.018.147-.037.287-.055.42-.019.134-.037.25-.047.35a7.57 7.57 0 01-.138.572 3.821 3.821 0 01-.222.54 1.516 1.516 0 01-.314.402.58.58 0 01-.508.148.451.451 0 01-.12-.045.297.297 0 01-.093-.095.295.295 0 01-.037-.166c0-.08.019-.144.065-.195a.317.317 0 01.157-.102l.398.228c.055-.079.11-.164.157-.254.055-.09.101-.192.138-.305.046-.111.083-.239.12-.38.037-.143.065-.304.102-.487.018-.112.037-.291.074-.538.037-.248.064-.536.083-.863l-.083-.069-.462-.05v-.213h2.577zm.527 0h3.012v.798h-.296l-.074-.482-.074-.078h-.813v2.932l.093.073.35.025v.213h-1.385v-.213l.351-.025.092-.073v-2.932h-.813l-.073.078-.074.482h-.296v-.798zm63.876.213l-.305.025-.093.074v2.858l.093.073.305.025v.213H85.53v-.213l.305-.025.092-.073v-1.277l-.323-.011a.711.711 0 00-.388.105c-.111.069-.203.2-.286.395l-.38.945v.154h-.988v-.213l.37-.025.138-.088.296-.619c.037-.072.074-.148.11-.225a1.68 1.68 0 01.149-.218.926.926 0 01.194-.177.613.613 0 01.25-.105v-.012a1.367 1.367 0 01-.324-.051.857.857 0 01-.545-.409.837.837 0 01-.093-.389c0-.218.046-.39.148-.517a.905.905 0 01.333-.286c.138-.065.268-.105.406-.121a3.17 3.17 0 01.36-.026h1.442v.213zm-24.122 3.268v-.213l.323-.04.093-.099v-2.817l-.065-.074-.351-.03v-.208h1.127v.139l1.007 2.605 1.007-2.584v-.16h1.136v.208l-.332.03-.065.074v2.858l.065.073.332.025v.213h-1.265v-.213l.35-.025.047-.073v-2.927l-1.257 3.238h-.23l-1.21-3.184v2.832l.091.099.324.04v.213h-1.127zm12.657-3.481h1.293v.208l-.323.03-.093.074v1.224h1.83v-1.224l-.093-.074-.323-.03v-.208h1.293v.208l-.305.03-.092.074v2.858l.092.073.305.025v.213h-1.293v-.213l.323-.025.093-.073v-1.397h-1.83v1.397l.093.073.323.025v.213h-1.293v-.213l.305-.025.092-.073v-2.858l-.093-.074-.304-.03v-.208zm-2.328-.044h.35l1.275 3.249.324.063v.213h-1.21v-.213l.323-.025.046-.073-.388-.991h-1.256l-.38.991.056.073.342.025v.213h-1.044v-.213l.314-.063 1.248-3.249zm-1.96.044v.213l-.304.025-.092.074v2.858l.092.073.305.025v.213H69.75v-.213l.324-.025.092-.073v-2.932H68.44v2.932l.092.073.333.025v.213H67.57v-.213l.305-.025.093-.073v-2.858l-.093-.074-.305-.025v-.213h3.474zm-69.75 0v.213l-.333.025-.093.074v1.269h.398a.909.909 0 00.148-.016.392.392 0 00.184-.088.605.605 0 00.176-.19c.046-.076.074-.136.092-.177l.231-.499c.037-.077.074-.153.12-.231a.87.87 0 01.324-.362.448.448 0 01.24-.062c.101 0 .194.028.259.082.073.054.11.133.11.235a.278.278 0 01-.055.173.265.265 0 01-.13.109l-.378-.228a.567.567 0 00-.12.176l-.305.665c-.074.165-.157.283-.25.352a.95.95 0 01-.24.144v.01c.111.023.213.061.305.114a.824.824 0 01.203.168.999.999 0 01.12.165c.056.073.111.189.185.349l.314.685.139.088.37.025v.213H2.29v-.154l-.35-.91a1.554 1.554 0 00-.269-.446c-.11-.115-.268-.172-.47-.172H.867v1.371l.093.073.332.025v.213H0v-.213l.305-.025.083-.073v-2.858l-.083-.074-.305-.025v-.213h1.293zm54.83 0v.213l-.332.025-.083.074v1.269h.388a.906.906 0 00.148-.016.356.356 0 00.184-.088.605.605 0 00.176-.19c.046-.076.083-.136.092-.177l.231-.499c.037-.077.074-.153.12-.231.047-.078.093-.147.148-.209a.636.636 0 01.176-.153.448.448 0 01.24-.062.43.43 0 01.268.082.293.293 0 01.101.235.278.278 0 01-.055.173.265.265 0 01-.13.109l-.378-.228a.794.794 0 00-.12.176l-.305.665c-.074.165-.157.283-.25.352a.815.815 0 01-.24.144v.01a.94.94 0 01.305.114.825.825 0 01.203.168c.037.037.074.092.13.165.046.073.101.189.175.349l.314.685.139.088.37.025v.213h-1.007v-.154l-.36-.91a1.373 1.373 0 00-.269-.446c-.11-.115-.268-.172-.47-.172h-.324v1.371l.083.073.332.025v.213h-1.293v-.213l.305-.025.092-.073v-2.858l-.092-.074-.305-.025v-.213h1.293zm-25.396 0h1.284v.208l-.323.03-.093.074v1.224h1.83v-1.224l-.093-.074-.323-.03v-.208h1.293v.208l-.305.03-.092.074v2.858l.092.073.305.025v.213H33.01v-.213l.323-.025.092-.073v-1.397h-1.829v1.397l.093.073.323.025v.213h-1.284v-.213l.295-.025.093-.073v-2.858l-.093-.074-.295-.03v-.208zm-13.701-.044h.35l1.276 3.249.323.063v.213h-1.21v-.213l.323-.025.046-.073-.388-.991h-1.256l-.379.991.056.073.341.025v.213h-1.044v-.213l.315-.063 1.247-3.249zm25.23.044h1.358c.407 0 .712.069.915.208.203.138.305.35.305.633a.68.68 0 01-.194.493c-.13.132-.323.232-.582.3.314.003.554.078.73.225.175.146.258.348.258.606 0 .33-.12.582-.35.755-.24.174-.592.261-1.035.261h-1.405v-.213l.296-.025.092-.073v-2.858l-.092-.074-.296-.03v-.208zm-34.395 0h1.284v.208l-.323.03-.092.074v1.224h1.829v-1.224l-.083-.074-.333-.03v-.208h1.293v.208l-.304.03-.093.074v2.858l.093.073.304.025v.213h-1.293v-.213l.333-.025.083-.073v-1.397H8.73v1.397l.093.073.323.025v.213H7.862v-.213l.296-.025.092-.073v-2.858l-.092-.074-.296-.03v-.208zm72.967 0v.213l-.333.025-.092.074v2.349l1.903-2.246v-.103l-.093-.074-.332-.025v-.213h1.293v.213l-.305.025-.092.074v2.858l.092.073.305.025v.213h-1.293v-.213l.332-.025.093-.073v-2.403l-1.903 2.248v.155l.092.073.333.025v.213h-1.294v-.213l.296-.025.092-.073v-2.858l-.092-.074-.296-.025v-.213h1.294zm-53.076 0v.213l-.333.025-.083.074v2.349l1.894-2.246v-.103l-.092-.074-.333-.025v-.213h1.293v.213l-.295.025-.093.074v2.858l.093.073.296.025v.213h-1.294v-.213l.333-.025.092-.073v-2.403l-1.894 2.248v.155l.083.073.333.025v.213h-1.294v-.213l.305-.025.093-.073v-2.858l-.093-.074-.305-.025v-.213h1.294zm19.318-.044h.36l1.275 3.249.314.063v.213h-1.21v-.213l.332-.025.037-.073-.379-.991h-1.256l-.379.991.056.073.342.025v.213h-1.044v-.213l.305-.063 1.247-3.249zm5.34.257l-.305.025-.083.074v2.858l.083.073.305.025v.213h-1.266v-.213l.305-.025.092-.073v-1.277l-.314-.011a.722.722 0 00-.397.105c-.111.069-.203.2-.287.395l-.378.945v.154h-.989v-.213l.37-.025.148-.088.286-.619c.037-.072.074-.148.12-.225a1.02 1.02 0 01.139-.218.926.926 0 01.194-.177.674.674 0 01.249-.105v-.012a1.365 1.365 0 01-.323-.051.858.858 0 01-.545-.409.838.838 0 01-.084-.389c0-.218.047-.39.139-.517a.864.864 0 01.342-.286c.13-.065.268-.105.406-.121a3.02 3.02 0 01.351-.026h1.442v.213zm-17.452 3.055l.305-.025.092-.073v-2.858l-.092-.074-.342-.025v-.213h2.56v.945h-.287l-.093-.623-.074-.084h-1.191v2.932l.092.073.379.025v.213h-1.349v-.213zm-29.49-3.076c-.35 0-.637.14-.85.417-.212.278-.314.654-.314 1.129 0 .473.102.85.314 1.13.213.28.5.421.85.421a.989.989 0 00.841-.422c.213-.281.323-.658.323-1.129s-.11-.847-.323-1.126a.992.992 0 00-.84-.42zm34.396 0c-.352 0-.638.14-.85.417-.213.278-.315.654-.315 1.129 0 .473.102.85.315 1.13.212.28.498.421.85.421.35 0 .637-.141.85-.422.203-.281.314-.658.314-1.129s-.111-.847-.314-1.126a1.02 1.02 0 00-.85-.42zm20.435 0c-.35 0-.637.14-.85.417-.212.278-.314.654-.314 1.129 0 .473.111.85.324 1.13.212.28.49.421.84.421.352 0 .638-.141.85-.422.213-.281.315-.658.315-1.129s-.102-.847-.315-1.126a1.02 1.02 0 00-.85-.42zm-17.174 3.031l.36.015c.36 0 .628-.059.795-.176.166-.118.25-.304.25-.562 0-.234-.075-.409-.223-.524-.138-.115-.36-.172-.665-.172a6.192 6.192 0 00-.517.033v1.386zm-26.016-2.721l-.527 1.439h1.072l-.545-1.439zm30.053 0l-.526 1.439h1.071l-.545-1.439zm25.924 0l-.527 1.439h1.072l-.545-1.439zm-21.545-.264h-.323c-.102 0-.222.007-.351.021a.687.687 0 00-.342.129.577.577 0 00-.231.292 1.256 1.256 0 00-.046.291c0 .058.01.127.027.205.01.077.056.151.12.22.065.07.158.128.278.176.13.048.295.073.508.073l.36-.011v-1.396zm34.386 0h-.323c-.102 0-.222.007-.351.021a.687.687 0 00-.342.129.577.577 0 00-.23.292 1.256 1.256 0 00-.047.291c0 .058.01.127.028.205a.404.404 0 00.12.22.62.62 0 00.277.176c.13.048.296.073.508.073l.36-.011v-1.396zm-42.802 1.338l.203.005c.333 0 .582-.058.74-.174.156-.115.23-.297.23-.545 0-.212-.065-.37-.212-.475-.148-.107-.37-.159-.656-.159l-.305.015v1.333zM15.493 97c.711 0 1.367.119 1.987.356a5.19 5.19 0 011.672 1.068 5.19 5.19 0 011.274 1.882 6.44 6.44 0 01.435 2.397c0 .601-.074 1.168-.213 1.701a5.85 5.85 0 01-.628 1.502 5.02 5.02 0 01-1.903 1.839c-.795.44-1.672.66-2.624.66a5.598 5.598 0 01-2.005-.356 4.979 4.979 0 01-1.653-1.036 5.314 5.314 0 01-1.285-1.891c-.286-.727-.434-1.534-.434-2.419 0-.881.148-1.682.434-2.405a5.209 5.209 0 012.938-2.938 5.55 5.55 0 012.005-.36zm16.676 10.773c-.545.184-1.109.326-1.672.423a10.01 10.01 0 01-1.682.146 6.721 6.721 0 01-1.533-.166 5.167 5.167 0 01-1.303-.482 5.385 5.385 0 01-2.106-2.077 5.774 5.774 0 01-.767-2.914c0-1.688.526-3.047 1.589-4.078 1.053-1.03 2.448-1.546 4.185-1.546a9.44 9.44 0 011.57.139c.546.092 1.118.23 1.719.415v2.491h-.924l-.259-1.47-.212-.293a5.313 5.313 0 00-.933-.317 4.27 4.27 0 00-.933-.103c-1.257 0-2.245.417-2.984 1.25-.74.833-1.11 1.967-1.11 3.401 0 1.524.389 2.719 1.156 3.587.767.867 1.838 1.301 3.196 1.301a5.108 5.108 0 001.442-.214l.258-.253.407-1.803h.896v2.563zm47.264-10.235c.703-.216 1.303-.346 1.82-.391a14.75 14.75 0 011.21-.068c.454 0 .915.034 1.387.1.47.065.896.195 1.284.39.379.196.693.471.933.827.24.356.37.824.37 1.404 0 .259-.056.518-.158.779-.092.261-.25.505-.443.732a3.207 3.207 0 01-.74.597 4.067 4.067 0 01-1.006.407v.031c.416.022.804.102 1.164.242.351.14.656.323.924.549.258.227.462.498.6.811.148.314.222.65.222 1.009 0 .516-.102.988-.296 1.415-.203.428-.535.797-.997 1.108-.24.163-.5.299-.795.407a7.288 7.288 0 01-1.792.411 8.338 8.338 0 01-.813.044 9.01 9.01 0 01-.453-.019 16.088 16.088 0 01-.73-.068 10.195 10.195 0 01-2.023-.435v-2.848h.933l.24 1.859.222.277c.222.132.471.235.73.308.268.074.6.111.998.111a4.52 4.52 0 001.238-.162c.37-.108.702-.262.979-.462.277-.201.499-.446.656-.736.157-.29.24-.625.24-1.005 0-.527-.102-.942-.305-1.245a2.173 2.173 0 00-.739-.689 2.559 2.559 0 00-.905-.292 6.798 6.798 0 00-.832-.06 4.755 4.755 0 00-1.423.198v-.972c.056 0 .176.005.352.016.184.01.37.015.554.015.332 0 .674-.029 1.025-.086a2.13 2.13 0 00.961-.444c.287-.227.48-.478.6-.755a2.19 2.19 0 00.176-.882c0-.39-.074-.717-.203-.98a1.864 1.864 0 00-.545-.642 2.1 2.1 0 00-.748-.347 3.343 3.343 0 00-.823-.103c-.295 0-.573.027-.85.079-.268.053-.545.14-.831.26l-.259.27-.175 1.542h-.934v-2.507zm-44.705 0c.702-.216 1.303-.346 1.82-.391a14.77 14.77 0 011.21-.068c.453 0 .915.034 1.386.1.471.065.896.195 1.284.39.379.196.693.471.933.827.24.356.37.824.37 1.404 0 .259-.056.518-.157.779-.093.261-.25.505-.444.732a3.209 3.209 0 01-.739.597 4.07 4.07 0 01-1.007.407v.031c.416.022.804.102 1.164.242.351.14.656.323.924.549.259.227.462.498.6.811.148.314.222.65.222 1.009 0 .516-.101.988-.295 1.415-.204.428-.536.797-.998 1.108a3.59 3.59 0 01-.795.407 7.278 7.278 0 01-1.792.411 8.492 8.492 0 01-.813.044 9.01 9.01 0 01-.453-.019 16.105 16.105 0 01-.73-.068 10.189 10.189 0 01-2.023-.435v-2.848h.933l.24 1.859.222.277c.222.132.462.235.73.308.268.074.6.111.998.111.443 0 .86-.054 1.229-.162a3.16 3.16 0 00.988-.462c.277-.201.5-.446.656-.736.157-.29.24-.625.24-1.005 0-.527-.101-.942-.304-1.245a2.171 2.171 0 00-.74-.689 2.56 2.56 0 00-.905-.292 6.793 6.793 0 00-.831-.06 4.752 4.752 0 00-1.423.198v-.972c.055 0 .166.005.35.016.186.01.37.015.555.015.342 0 .675-.029 1.017-.086.35-.059.665-.206.97-.444.286-.227.49-.478.6-.755a2.19 2.19 0 00.176-.882c0-.39-.065-.717-.213-.98a1.747 1.747 0 00-.536-.642 2.1 2.1 0 00-.748-.347 3.398 3.398 0 00-.822-.103c-.296 0-.573.027-.85.079-.268.053-.545.14-.832.26l-.258.27-.176 1.542h-.933v-2.507zm36.973-.396h1.1l3.981 10.14.998.198v.664h-3.77v-.664l1.026-.079.12-.229-1.2-3.093h-3.918l-1.183 3.093.167.229 1.08.079v.664h-3.26v-.664l.96-.198 3.899-10.14zm-23.097 0h1.09l3.991 10.14.998.198v.664h-3.778v-.664l1.035-.079.12-.229-1.201-3.093h-3.927l-1.182 3.093.166.229 1.08.079v.664h-3.251v-.664l.96-.198 3.9-10.14zM.176 107.48l.951-.079.287-.229V98.25l-.287-.23-1.08-.079v-.664h7.981v2.95H7.16l-.305-1.946-.222-.26H2.901v9.151l.286.229 1.183.079v.664H.176v-.664zm62.01-10.203v.664l1.025.08.286.229v3.962h-1.22c-.12 0-.277-.016-.47-.047a1.213 1.213 0 01-.574-.277 2.055 2.055 0 01-.554-.593 5.356 5.356 0 01-.296-.554l-.71-1.558c-.112-.237-.241-.477-.37-.72a3.601 3.601 0 00-.453-.652 2.294 2.294 0 00-.564-.479 1.417 1.417 0 00-.748-.19c-.332 0-.61.085-.822.254-.213.168-.324.414-.324.735a.935.935 0 00.564.878l1.201-.711c.176.216.296.398.36.549.065.15.148.323.24.518l.712 1.558c.23.517.49.883.767 1.099.286.216.536.367.757.451v.032a2.758 2.758 0 00-.933.352 2.643 2.643 0 00-.656.526 4.658 4.658 0 00-.379.514c-.147.227-.332.59-.554 1.091l-.988 2.136-.444.277-1.145.079v.664h3.16v-.482l1.117-2.84c.222-.569.499-1.033.84-1.391.333-.359.823-.538 1.451-.538h1.035v4.279l-.286.229-1.026.079v.664h4.028v-.664l-.942-.079-.277-.229V98.25l.277-.23.942-.079v-.664h-4.028zm-46.693.601c-1.118 0-2.005.434-2.66 1.302-.656.866-.98 2.041-.98 3.523 0 1.476.324 2.652.989 3.527.665.876 1.552 1.313 2.651 1.313 1.09 0 1.968-.439 2.633-1.317.656-.878.989-2.052.989-3.523 0-1.472-.333-2.643-.989-3.516-.665-.872-1.543-1.309-2.633-1.309zm33.37.965l-1.645 4.492h3.354l-1.709-4.492zm23.097 0l-1.636 4.492h3.345l-1.71-4.492z" fill="#012336"/><defs><clipPath id="clip0_379:2"><path fill="#fff" transform="translate(7)" d="M0 0h64v87H0z"/></clipPath></defs></svg>