<svg xmlns="http://www.w3.org/2000/svg" fill="none" viewBox="0 0 105 105"><path fill="#fff" d="M30.726 21.137a36.207 36.207 0 00-4.972 4.106 37.966 37.966 0 00-10.14 17.335c-1.125 4.216-1.517 8.334-1.2 12.619.214 2.784.613 5.052 1.364 7.674.922 3.239 1.857 5.42 3.65 8.528 1.778 3.079 3.248 5.045 5.55 7.422 1.878 1.934 3.66 3.442 5.877 4.948 7.164 4.892 15.63 7.175 24.237 6.534 2.01-.157 2.925-.277 4.82-.665 5.543-1.12 10.746-3.474 15.328-6.918 7.783-5.868 13.03-14.582 14.61-24.29.486-2.974.605-5.793.373-8.9-.151-1.92-.276-2.86-.649-4.697a37.996 37.996 0 00-9.913-18.845c-1.944-1.998-3.645-3.431-5.971-5.014a37.998 37.998 0 00-26.018-6.286c-6.031.742-11.982 3.007-16.946 6.45zm-.69.993c-.017.037-.075.08-.136.088-.079.008-.066-.018.014-.073.076-.044.126-.055.121-.015zm7.283-4.205a.336.336 0 01-.188.108c-.057.015-.027-.03.078-.09.097-.057.151-.06.11-.018zm-7.7 4.547c-.068.059-.612.55-1.204 1.086-.732.664-1.114.968-1.194.94-.084-.016.184-.292.853-.855a95.734 95.734 0 001.067-.904c.055-.05.208-.157.354-.241.14-.08.196-.095.124-.026zm8.721-5.016c.177-.065.299-.08.269-.034-.03.045-.272.157-.537.245-.53.176-.293-.008.268-.211zm-3.8 2.352a6 6 0 00.107.459l.088.33-1.206.742c-.988.608-1.222.734-1.32.678a3.432 3.432 0 00-.479-.187c-.195-.064-.362-.144-.374-.165-.036-.063.554-.44 1.936-1.266 1.042-.611 1.23-.702 1.248-.591zm2.488-1.325c.538-.227 1.033-.401 1.087-.386.066.017.079.038.03.066-.049.029-.195.308-.331.619l-.247.57-.712.28c-.383.157-.942.396-1.237.53l-.523.236-.104-.293c-.204-.579-.188-.616.471-.922.319-.156 1.032-.466 1.566-.7zm-5.627 3.63c.268.077.512.178.532.213.02.035-.108.183-.285.313-.179.14-.6.504-.942.813l-.626.575-.627.056c-.34.038-.764.078-.935.103l-.319.044.486-.447c.54-.497 1.83-1.577 2.074-1.736.09-.052.337-.027.642.066zm9.23-5.469c1.058-.341 2.329-.684 2.669-.723.272-.027.265-.023-.184.245-.358.216-.726.336-1.655.529-.659.148-1.327.31-1.49.367-.324.113-.529.065-.292-.072.084-.049.507-.2.953-.346zm-.097.651c.674-.185 1.275-.318 1.33-.304.055.015-.041.154-.22.313-.17.154-.52.514-.785.797l-.466.51-1.035.254c-.568.143-1.09.268-1.165.283-.168.032-.009-.385.354-.947.29-.465.24-.437 1.987-.906zM26.749 25.18c.008.014-.126.184-.302.379-.168.19-.595.724-.942 1.185-.582.763-.701.878-1.295 1.25-.366.22-.663.382-.658.342-.001-.083.975-1.241 1.7-2.031.358-.393.728-.718 1.021-.887.251-.145.464-.259.476-.238zm1.73-.609c.308-.047.712-.104.884-.11l.328-.013-.382.434c-.212.243-.528.63-.698.867l-.31.43-.763.255c-.42.14-1.01.36-1.308.486l-.546.231.323-.455c.452-.633 1.459-1.772 1.703-1.912.111-.065.455-.161.77-.213zm6.373-3.595c.052.09.559 1.628.55 1.66-.006.023-.237.203-.507.395l-.487.347-.803-.521c-.44-.294-.808-.546-.816-.56-.012-.021.076-.11.2-.2.253-.191 1.854-1.153 1.863-1.121zm1.823-.867c.358-.151.658-.26.675-.231.011.02-.046.323-.133.67-.08.344-.179.819-.223 1.049l-.076.415-.544.25c-.495.22-.549.223-.637.07-.097-.167-.476-1.258-.51-1.48-.022-.117.09-.181 1.448-.743zm-3.454 2.904c.405.25.747.489.771.53.024.042-.148.244-.384.445l-.429.369-.575-.095c-.31-.054-.865-.114-1.235-.142-.365-.021-.678-.064-.7-.088-.013-.02.215-.254.513-.51.288-.259.593-.519.657-.584.076-.062.253-.174.397-.247.24-.13.289-.111.985.322zm12.26-7.514c.61-.12 3.243-.34 3.222-.263-.002.029-.35.183-.765.349a9.397 9.397 0 00-1.085.487 1.13 1.13 0 01-.697.16c-.207-.02-.84-.006-1.405.013-.568.031-1.061.046-1.087.034-.154-.042 1.336-.68 1.817-.78zm-6.623 3.852c1.195-.328 1.195-.328.598.537-.286.406-.645.976-.798 1.259l-.286.518-.456.096c-.249.051-.488.087-.532.075-.044-.012.029-.48.153-1.054.16-.705.286-1.066.397-1.13.091-.053.509-.183.924-.301zm5.56-2.7l1.307-.086-.846.563c-.465.306-1.088.74-1.377.962-.529.39-.55.401-1.005.385a12.96 12.96 0 00-1.007.043c-.623.063-.622.034.143-.686l.658-.631c.358-.346.845-.469 2.127-.55zm-13.791 7.777c.777.025 2.147.209 2.162.284.006.043-.109.23-.253.415l-.272.334-.834.1c-.469.058-1.172.176-1.578.261-.89.198-.987.19-.773-.083a50.672 50.672 0 011.108-1.317c.014-.008.212-.002.44.006zm-6.191 3.844c.008.014-.083.196-.194.39-.114.205-.384.75-.59 1.214-.383.834-.396.86-1.104 1.436-.392.32-.923.784-1.183 1.026a7.007 7.007 0 01-.486.43c-.036-.063.47-1.07.993-1.967.654-1.12.98-1.457 2.419-2.474.066-.047.132-.076.145-.055zm2.529-1.238c.468-.187.878-.33.908-.31.037.015-.114.381-.333.824l-.393.784-1.61.947c-.887.522-1.613.923-1.609.883 0-.13.355-.818.81-1.61.5-.855.413-.796 2.227-1.518zm14.59-8.145c.475-.032.864-.034.855-.001-.013.026-.445.452-.968.93-.512.482-1.116 1.062-1.332 1.299l-.386.427-.406.02c-.22.007-.415-.01-.431-.038-.045-.077 1.52-2.42 1.667-2.505.07-.04.517-.103 1.002-.132zM30 26.173c1.427-.266 1.91-.331 1.954-.255.016.028-.04.19-.13.354l-.155.312-1.004.338c-.558.192-1.425.526-1.942.74-.517.216-.962.38-.99.378-.049-.02.193-.502.549-1.126.108-.183.266-.376.342-.42.084-.049.7-.19 1.376-.321zm17.368-9.47c.974.125 1.733.281 1.715.347-.009.033-.325.178-.705.324-.377.152-1.237.547-1.92.876l-1.236.612-.578-.131a6.123 6.123 0 00-.824-.156c-.138-.013-.245-.054-.236-.087.037-.114 1.814-1.27 2.44-1.585.592-.295.617-.3 1.344-.2zm-11.72 6.488c.122.227.618 1.52.607 1.581-.009.033-.34-.203-.738-.521a81.24 81.24 0 00-.773-.631c-.03-.02.142-.156.386-.297.376-.218.458-.237.519-.132zm1.139-.685c.029.002.01.486-.038 1.062-.048.576-.113.994-.146.938-.1-.174-.614-1.419-.644-1.55-.016-.093.073-.163.375-.3.218-.09.42-.16.453-.15zm12.374-6.978c.44-.142.908-.264 1.034-.271.517-.02 3.22.426 3.193.525-.006.022-.47.15-1.032.289-.554.134-1.377.368-1.83.517-.753.24-.85.25-1.226.114-.22-.077-.783-.198-1.235-.272l-.826-.126.565-.261c.309-.142.919-.373 1.358-.515zm-14.695 8.318c.007.014.345.293.747.618l.727.583-1.095-.287c-.605-.162-1.105-.32-1.12-.347-.033-.056.183-.245.526-.471.108-.072.206-.11.215-.096zm9.446-4.887l.837.13-.85.555c-1.21.801-2.72 1.84-2.867 1.99-.143.138-.847.061-.802-.085.037-.114 1.686-1.717 2.334-2.268.268-.229.498-.426.505-.43.003-.011.384.038.843.108zm-23.026 12.82c-.232.71-.849 1.91-1.238 2.396-.265.33-.494.592-.516.586-.088-.024 1.54-2.868 1.707-2.983.03-.027.06-.025.047 0zm17.155-9.644c.013.038-.138.404-.326.82a38.37 38.37 0 00-.487 1.088c-.075.192-.145.28-.147.197a14.27 14.27 0 01.124-1.493l.07-.44.38-.117c.205-.063.384-.091.386-.055zm-3.76 2.857c.538.126.993.254 1.013.289.02.035-.241.065-.573.07-.335-.001-.9.019-1.252.036-.36.022-.642 0-.63-.045.024-.07.34-.474.429-.545.023-.023.476.069 1.014.195zm4.747-3.047c.303-.007.328.006.22.124-.063.083-.433.538-.822 1.023-.382.48-.723.872-.745.866-.055-.014.848-1.91.94-1.963.04-.024.224-.046.407-.05zM26.86 28.961c.105.004.118.043.065.176-.031.092-.096.446-.145.78-.074.563-.103.626-.368.78-.341.196-1.895 1.418-2.734 2.153-.33.283-.609.491-.615.448-.031-.167.27-1.641.411-1.992.134-.347.216-.431.829-.85.966-.66 2.405-1.5 2.557-1.495zm2.434-1.145c1.123-.454 2.211-.822 2.243-.766.016.028-.008.162-.05.298-.076.24-.163.299-2.203 1.514-1.17.694-2.136 1.242-2.148 1.221-.012-.02.048-.352.122-.739l.153-.701.543-.25a29.3 29.3 0 011.34-.577zm4.41-2.083c.882-.035 1.327-.004.963.058-.417.082-2.217.537-2.308.59-.174.1-.195-.065-.043-.3.163-.281.252-.304 1.389-.348zm-10.83 6.402c-.075.415-.155.954-.176 1.207-.033.41-.076.48-.494.898a32.318 32.318 0 00-2.037 2.235c-.212.262-.399.453-.419.418-.104-.18.506-2.762.74-3.111.222-.342 2.01-2.043 2.436-2.335.055-.032.03.28-.05.688zm29.61-17.272c1.012-.083 2.438.005 3.805.247 1.063.184 1.337.305.674.298-.195 0-.876.06-1.518.124-1.003.114-1.252.1-1.806-.054-.36-.108-.963-.252-1.354-.333-.39-.08-.687-.16-.652-.18.027-.016.41-.061.852-.102zM40.19 21.98l.267.06-.964.825c-.535.458-1.003.84-1.041.852-.093.017 1.24-1.635 1.413-1.754.03-.027.182-.021.325.017zm-6.773 4.495c.526-.136.957-.227.944-.2-.006.021-.286.164-.624.303-.345.144-.906.394-1.257.56l-.635.3.063-.277c.075-.322.082-.326 1.51-.686zM45.86 19.58c.305.158.57.312.594.354.024.041-.107.136-.336.222a56.519 56.519 0 00-3.384 1.544c-.983.503-.983.503-1.222.362-.134-.07-.243-.147-.23-.155.08-.138 1.875-1.342 2.805-1.888l1.218-.723.555.284zm2.512-1.813a20.635 20.635 0 011.173-.463c.248-.087.812.135 1.684.662.658.4.765.311-.842.747-.788.213-3.296 1.02-3.45 1.109-.013.008-.13-.065-.261-.165a3.447 3.447 0 00-.559-.355c-.18-.101-.34-.203-.356-.231-.04-.07 1.503-.84 2.611-1.304zm-7.2 4.51c.097.056.166.127.164.156-.013.026-.546.343-1.19.707l-1.177.65.75-.646c1.002-.857 1.246-.998 1.453-.866zM19.704 34.886c-.024.135-.103.514-.173.843-.067.335-.14.87-.17 1.203-.034.568-.076.657-.633 1.462-.333.47-.787 1.197-1.029 1.615-.239.408-.453.745-.475.74-.022-.007.037-.468.14-1.03.202-1.212.591-2.421.994-3.108.258-.438 1.281-1.901 1.365-1.95.014-.008.005.09-.019.225zm11.706-6.768c.04.005.086.117.105.246.037.192-.013.268-.362.516a52.623 52.623 0 00-2.809 2.234c-.51.435-.966.79-1.003.774-.099-.026-.26-.853-.214-1.111.03-.175.142-.286.576-.565.854-.549 3.63-2.114 3.707-2.094zm20.03-11.425c1.556-.443 2.727-.654 3.035-.554.562.168 2.359 1.155 2.471 1.35.013.021-.398.082-.921.142-.964.102-3.485.517-3.631.601-.042.024-.269-.095-.513-.26a8.791 8.791 0 00-.873-.547c-.242-.13-.488-.266-.551-.294-.153-.088.015-.167.983-.438zM33.258 27.18c.58-.25 1.069-.45 1.09-.444.023.006-.515.363-1.189.79-.674.425-1.248.766-1.274.753-.033-.008-.06-.104-.06-.216-.007-.237.063-.277 1.433-.883zm-6.493 3.87c.005.09.067.407.125.699l.115.537-.784.768a66.496 66.496 0 00-1.788 1.877c-.55.607-1.019 1.1-1.048 1.098-.08-.027-.318-1.163-.347-1.648-.022-.424-.01-.45.407-.839.752-.694 2.63-2.224 3.098-2.522.17-.108.203-.099.222.03zm15.073-8.229c.084.082.147.175.141.197-.009.033-.494.239-1.082.476-.588.238-1.175.493-1.307.57-.146.084-.246.104-.246.04.003-.059.475-.368 1.172-.77l1.164-.673.158.16zm1.921-1.211c1.687-.797 2.974-1.336 3.128-1.295.055.014.256.251.45.52l.339.492-1.051.272c-1.08.289-3.345.984-3.944 1.218-.328.125-.35.119-.486-.118-.173-.3-.312-.201 1.564-1.09zm-9.633 5.868c-.232.208-.718.656-1.09.992-.37.343-.703.619-.742.614-.036.002-.117-.072-.173-.17-.088-.153-.063-.205.259-.437.507-.377.98-.686 1.613-1.053l.547-.325-.414.379zm-2.237 1.71c.08.139.087.247.019.323-.058.06-.568.578-1.121 1.149a52.138 52.138 0 00-1.757 1.915c-.411.479-.778.858-.81.849-.045-.012-.228-.25-.422-.537l-.345-.516.87-.763c1.228-1.061 3.202-2.6 3.377-2.618.036-.002.124.086.189.198zm9.377-5.442c.863-.34.974-.34.927.013-.023.152-.111.194-1.096.419-1.774.42-1.763.423-1.181.143.27-.128.877-.395 1.35-.575zM22.683 34.363c.012.02.031.214.04.423.013.215.102.675.198 1.019.1.35.172.653.17.664-.006.022-.297.403-.649.857-.344.45-.976 1.335-1.404 1.962-.416.63-.778 1.165-.804 1.199-.136.199-.483-1.255-.529-2.203l-.025-.608.543-.685c.539-.692 2.172-2.499 2.343-2.606.055-.033.105-.043.117-.022zm25.898-14.72c1.072-.35 2.22-.678 3.14-.903.334-.081.418-.064.65.145.142.132.446.514.68.853l.415.624-.358.04c-1.224.149-2.957.415-3.93.614-.64.13-1.17.194-1.21.142-.308-.389-.683-1.055-.613-1.095.049-.028.6-.216 1.226-.42zm-14.134 8.31c-.286.34-.69.834-.894 1.091-.204.258-.403.493-.452.521-.111.064-.434-.14-.397-.254.027-.08.553-.57 1.611-1.506.582-.522.636-.46.132.147zm6.298-3.322c.771-.194 1.413-.305 1.442-.256.024.042.014.187-.03.305-.065.224-.09.229-1.502.31-.787.037-1.406.06-1.364.036.037-.032.698-.208 1.454-.395zm-5.43 3.053c-.114.223-.419.789-.664 1.265-.257.473-.489.877-.51.889-.028.016-.197.011-.372-.018l-.324-.045.171-.22c.563-.715 1.777-2.186 1.84-2.222.041-.024-.025.135-.142.35zm9-5.03c.704-.23 1.753-.538 2.335-.689l1.058-.276.16.308c.133.247.256 1.04.172 1.088-.014.008-.419.047-.896.09-.857.077-3.52.454-4.164.594-.35.071-.375.059-.432-.28-.04-.265-.167-.21 1.767-.835zm11.65-6.819a22.1 22.1 0 011.776-.078c.973-.004 1.115.016 1.87.342.836.353 2.455 1.322 2.336 1.39-.041.025-.178.03-.32.01-.404-.056-2.648-.079-3.384-.035-.658.036-.669.033-1.238-.39-.317-.226-.871-.575-1.235-.755-.368-.186-.635-.358-.6-.378.035-.02.396-.07.794-.106zM40.641 25.37c1.296-.088 1.3-.081 1.205.14-.186.451-.254.463-1.407.284-.607-.086-1.248-.181-1.418-.203l-.306-.047.314-.051c.172-.025.893-.08 1.612-.123zm-4.883 3.117l-.363 1.352-.37.036c-.21.02-.391.013-.404-.008-.032-.055.027-.163.797-1.565.335-.611.633-1.127.654-1.139.027-.016-.117.588-.314 1.324zm1.745-.905c.231.497.457 1.017.509 1.155l.093.243-.421.187c-.232.097-.458.172-.502.16-.04-.004-.099-.62-.132-1.354-.033-.733-.032-1.328-.006-1.315.029.002.234.422.459.924zm.882-.324c1.047.993 1.047.993.454 1.335-.404.234-.346.302-.927-.978-.394-.86-.53-1.208-.488-1.233.014-.008.445.385.96.876zm1.019-.44c.5.222.935.445.96.487.023.042-.066.177-.2.282a6.326 6.326 0 00-.356.317c-.082.084-.198.012-.569-.34a94.47 94.47 0 00-.975-.933l-.512-.485.372.13c.199.07.776.313 1.28.542zm.65-.71c.622.096 1.157.187 1.184.218.065.046-.423.7-.51.676-.07-.025-2.23-.98-2.364-1.051-.164-.091.279-.05 1.69.158zM36.69 28.2c.047 1.208.036 1.27-.174 1.373a2.475 2.475 0 01-.475.144l-.246.04.368-1.374c.2-.765.393-1.397.42-1.413.036-.02.087.536.107 1.23zm-4.128 1.575c.131.082.251.162.26.176.011.02-.11.212-.279.42-.396.536-1.706 2.518-2.231 3.378l-.437.708-.318-.132c-.344-.145-1.015-.566-1-.621.06-.184 3.42-3.832 3.724-4.045.024-.023.157.03.28.116zM27.6 33.205c.201.302.355.584.344.628-.005.04-.329.478-.717.98a52.816 52.816 0 00-1.558 2.163l-.858 1.267-.19-.151c-.106-.087-.389-.481-.629-.881l-.43-.728.824-.94c.904-1.042 2.453-2.642 2.692-2.79.14-.08.185-.05.521.452zm16.561-9.255c1.814-.304 3.823-.526 3.883-.421.06.104-.234 1.445-.332 1.5-.042.025-.645.01-1.35-.037-.702-.04-1.858-.079-2.576-.082l-1.295-.005.047-.306c.026-.164.081-.326.137-.358.045-.035.722-.166 1.486-.291zm9.305-5.567c.99-.2 1.913-.325 3.035-.424l.936-.086.407.415c.223.225.625.745.892 1.158l.484.742-.25-.014c-.64-.03-2.52-.003-3.757.06l-1.373.069-.5-.752c-.272-.409-.552-.796-.62-.85-.166-.126-.124-.15.746-.318zM33.606 30.165c.207.038.37.094.36.108-.006.023-.154.33-.32.687-.371.79-1.131 2.612-1.406 3.375-.186.516-.213.55-.443.553-.133.012-.544-.057-.917-.14l-.68-.146.757-1.217c.648-1.034 2.134-3.21 2.241-3.281.021-.013.203.012.408.061zM16.89 40.364c-.056.45-.097.91-.097 1.022.006.172-.318 1.01-1.044 2.683-.083.178-.087.171-.057-.115.067-.624 1.12-4.307 1.259-4.387.02-.012-.005.346-.06.797zm2.503-1.445c.048.39.17.988.28 1.324.104.34.206.661.223.707.01.05-.163.41-.385.798-.226.382-.717 1.334-1.089 2.106-.372.772-.69 1.411-.705 1.42-.062.035-.341-1.011-.435-1.672-.212-1.382-.18-1.763.234-2.54.364-.675 1.655-2.768 1.753-2.824.028-.016.082.287.124.68zm30.534-17.666c2.472-.452 3.593-.57 3.694-.396.177.306.44 1.761.377 2.086-.003.01-.518.02-1.143 0a67.587 67.587 0 00-2.767.037l-1.627.048-.074-.515c-.035-.286-.095-.567-.131-.63-.07-.136-.055-.256.043-.313.027-.016.762-.16 1.628-.317zm-6.567 4.014c1.031-.001 3.345.094 3.9.154l.348.04-.143.316c-.201.44-.694 1.357-.757 1.393-.028.016-.664-.137-1.412-.337a49.837 49.837 0 00-2.349-.575l-.979-.215.17-.35c.093-.192.187-.367.215-.384.024-.023.477-.043 1.007-.042zm-8.481 4.98l.443-.005-.195.967c-.192.938-.512 2.896-.548 3.363-.028.211-.051.234-.327.272-.535.087-1.76.124-1.795.062-.069-.119 1.77-4.533 1.923-4.621.028-.017.254-.027.499-.038zm-11.254 7.101c.157.272.44.666.629.863.335.355.347.376.246.555-.056.097-.418.742-.799 1.418a69.79 69.79 0 00-1.174 2.2c-.253.528-.502.95-.557.935-.172-.04-.96-1.034-1.317-1.654l-.342-.592.68-1.061c.695-1.08 2.095-3.002 2.255-3.095.07-.04.182.09.38.431zm5.86-2.649c.102.034.177.083.171.105-.006.022-.274.54-.595 1.143-.328.607-.869 1.681-1.205 2.386-.34.716-.632 1.321-.655 1.344-.057.08-1.082-.425-1.639-.81l-.482-.334.938-1.387a43.736 43.736 0 011.6-2.251l.673-.863.501.305c.28.164.59.329.692.362zm14.166-7.882c1.01.235 2.045.5 2.321.592l.493.161-.29.382c-.162.204-.484.595-.72.861l-.426.488-.197-.1c-.108-.059-.75-.413-1.42-.787-.679-.37-1.45-.789-1.717-.913-.26-.129-.485-.26-.5-.287-.037-.063.385-.668.534-.764.052-.04.92.128 1.922.367zM61.04 15.98c1.218.18 2.431.51 3.287.898.764.34 2.357 1.296 2.266 1.348-.028.017-.41-.05-.853-.157-.439-.1-1.306-.25-1.924-.338-1.095-.158-1.132-.174-1.688-.605-.51-.402-1.057-.737-1.759-1.084-.14-.067-.228-.137-.2-.153.028-.016.423.025.87.091zM36.302 30.04l.49-.116.094 1.014c.048.567.147 1.494.217 2.067l.138 1.044-.317.174c-.417.213-1.869.53-1.933.42-.1-.175.628-4.385.768-4.466a4.34 4.34 0 01.543-.137zm4.983-2.348c.205.114.809.435 1.34.713 1.55.815 2.115 1.166 2.016 1.27-.154.182-.72.684-1.26 1.117l-.54.433-1.444-1.488-1.438-1.492.24-.195c.131-.113.261-.225.295-.263.23-.263.43-.285.791-.095zm-3.397 1.795l.412-.173.135.33c.075.18.445.998.83 1.825l.699 1.5-.475.256c-.468.252-1.857.84-1.877.805-.06-.104-.462-3.987-.426-4.166a.243.243 0 01.152-.171c.082-.02.325-.113.55-.206zm22.279-11.683c1.682.032 2.383.12 2.611.322.45.409 1.106 1.238 1.484 1.893.221.383.384.697.363.71-.014.007-.693-.074-1.5-.184s-1.932-.24-2.505-.282l-1.035-.07-.41-.711c-.366-.634-.8-1.21-1.136-1.518-.096-.084 0-.111.546-.148a29.202 29.202 0 011.582-.012zM39.81 28.645c.551.537 2.542 2.601 2.594 2.692.089.153-.197.383-1.214.97l-.864.5-.117-.203a45.018 45.018 0 01-.835-1.784c-.398-.866-.742-1.606-.758-1.634-.016-.028.212-.197.512-.37.495-.285.552-.3.682-.17zm9.531-5.27c1.056-.071 3.618-.092 4.22-.049l.438.035-.04.478c-.017.26-.123.833-.23 1.275-.154.619-.238.797-.353.79-.08-.01-.747-.118-1.494-.253a55.749 55.749 0 00-2.518-.385c-.65-.08-1.192-.166-1.208-.194-.017-.028.032-.25.1-.504.074-.257.133-.606.14-.787.007-.18.023-.33.044-.341.014-.008.423-.04.901-.065zm5.625-2.765c1.128-.075 3.733-.102 4.112-.042l.294.043.178.613c.198.666.367 1.748.332 2.121l-.015.232-.78-.126c-.811-.135-3.453-.412-4.23-.438l-.466-.018-.053-.657c-.04-.358-.132-.871-.216-1.13-.084-.257-.127-.493-.092-.513.035-.02.458-.06.936-.085zM16.891 43.438c.089.701.273 1.422.556 2.234.034.091-.135.7-.363 1.352a43.382 43.382 0 00-.684 2.131c-.145.52-.282.944-.304.938-.066-.018-.36-1.121-.465-1.739-.192-1.17-.176-2.108.067-2.927.21-.697.987-2.78 1.05-2.817.014-.008.08.363.143.828zm13.807-8.361c.343.08.756.167.912.18l.286.029-.304.872c-.16.482-.51 1.613-.762 2.511-.26.903-.5 1.663-.527 1.68-.16.092-2.614-.358-2.695-.498-.076-.132 2.211-4.75 2.43-4.904.013-.008.305.047.66.13zm-10.208 6.98c.301.523.731 1.073 1.268 1.618.093.095.07.248-.144.715-.335.74-.915 2.246-1.314 3.424-.203.581-.343.886-.41.85-.254-.15-1.08-1.226-1.51-1.97l-.478-.83.443-.97c.605-1.335 1.618-3.331 1.735-3.418.028-.016.213.24.41.581zm4.767-2.947c.17.134.648.415 1.053.617l.733.367-.245.606c-.394.961-.955 2.483-1.298 3.564-.176.547-.34 1.004-.361 1.016-.021.012-.346-.116-.724-.288-.893-.404-2.077-1.215-2.048-1.39.055-.339 2.345-4.614 2.53-4.712.021-.012.178.083.36.22zm23.919-13.494c1.231.153 2.872.403 3.658.572l.536.109-.341.745c-.347.767-.988 1.926-1.1 1.99-.035.02-.38-.095-.78-.255-.831-.347-2.05-.785-3.242-1.175-.78-.255-.836-.288-.755-.437.053-.086.246-.476.436-.855.186-.386.378-.73.427-.758.052-.039.573-.005 1.161.064zm-16.366 9.69c.281.005.777-.021 1.104-.052l.58-.056-.056.497c-.038.272-.126 1.392-.206 2.477-.075 1.094-.136 2.002-.142 2.024-.014.073-1.732.22-2.54.221h-.818l.487-1.75c.415-1.437 1-3.307 1.054-3.357.007-.004.248-.004.537-.004zM64.68 18.233c.456.081 1.278.266 1.83.402.843.22 1.054.311 1.319.576.65.628.97 1.038 1.547 1.94l.586.934-1.555-.44a52.3 52.3 0 00-2.38-.613l-.832-.17-.562-.957c-.357-.602-.716-1.11-.973-1.38a8.092 8.092 0 01-.429-.467c-.032-.056.55.017 1.45.175zm-16.644 9.805c.64.206 1.73.599 2.431.863l1.273.482-.34.456c-.423.588-1.51 1.893-1.773 2.13l-.209.185-1.191-.808a81.409 81.409 0 00-2.044-1.319c-.587-.357-.822-.538-.764-.599.677-.79.95-1.124 1.146-1.395.13-.177.25-.34.271-.352.02-.012.568.146 1.2.357zm7.396-4.623c1.235.095 3.192.312 3.899.443l.568.099-.056.627c-.05.623-.516 2.712-.613 2.769-.028.016-1.243-.286-2.705-.677l-2.652-.698.187-.675c.1-.373.213-.95.248-1.276.035-.326.09-.618.131-.642.035-.02.483 0 .993.03zm5.377-2.76c1.12.087 2.368.239 3.34.393.536.09.684.153.791.324.28.47.648 2.264.638 3.133l-.004.346-1.282-.337a50.405 50.405 0 00-3.604-.817l-.427-.08-.043-.67c-.043-.654-.3-2-.425-2.217-.032-.056-.04-.117-.018-.128.027-.017.49.013 1.034.052zM36.128 34.84c.536-.134 1.023-.257 1.08-.27.063-.02.153.329.267 1.025.092.578.269 1.609.392 2.29.131.677.22 1.266.209 1.31-.035.15-3.034.944-3.475.92-.112 0-.115-.361-.035-1.606.157-2.431.273-3.343.443-3.386a46.69 46.69 0 001.119-.283zm9.866-4.498c1.19.725 3.18 2.046 3.172 2.097-.047.176-2.854 2.558-2.961 2.518-.015-.01-.506-.553-1.09-1.21a224.563 224.563 0 00-1.529-1.7c-.261-.276-.467-.52-.464-.53.006-.022.276-.262.596-.53.326-.272.748-.636.938-.82.184-.181.358-.347.38-.359.016-.019.445.226.958.534zM67.91 18.143c1.194.556 2.449 1.215 2.432 1.3-.013.025-.111-.001-.227-.056-.108-.058-.72-.28-1.352-.491-.928-.32-1.262-.48-1.746-.85-.328-.247-.62-.478-.657-.512-.123-.115.468.12 1.55.61zM28 40.368c.29.084.917.204 1.404.276l.873.128-.26 1.237c-.155.684-.371 1.886-.49 2.66-.127.78-.247 1.425-.271 1.448-.176.13-3.597-.515-3.701-.696-.08-.14 1.684-5.05 1.855-5.158.041-.024.311.025.59.105zm11.162-6.583l.997-.446.167.386c.1.221.541 1.146.982 2.071.448.921.805 1.7.803 1.729-.035.132-3.434 1.602-3.606 1.562-.059-.022-.409-1.9-.7-3.74l-.145-.928.254-.09c.138-.052.704-.295 1.248-.544zm3.724-1.937c.235.199 3.01 3.315 2.995 3.37-.044.165-3.24 2.13-3.398 2.082-.028-.001-.446-.838-.925-1.843a107.564 107.564 0 00-.975-2.028l-.113-.195 1.11-.734c.61-.408 1.12-.749 1.13-.764.003-.01.089.042.176.112zM15.338 48.7c.104.535.283 1.23.399 1.544.203.56.202.608-.023 1.908a36.81 36.81 0 00-.298 2.011c-.035.374-.075.675-.097.67-.044-.012-.288-.967-.411-1.63-.163-.863-.204-1.851-.13-2.945.062-.908.275-2.47.345-2.51.014-.009.111.418.215.952zm2.627-1.888c.314.543.964 1.394 1.467 1.912l.426.432-.41 1.657c-.23.904-.48 2.033-.557 2.496-.095.575-.178.818-.25.775-.373-.23-1.092-1.152-1.671-2.155l-.63-1.076.29-1.106c.309-1.172.965-3.223 1.059-3.286.027-.016.156.142.276.35zm4.547-2.523c.472.35 1.424.887 1.994 1.134l.518.221-.462 1.808c-.254.992-.526 2.18-.607 2.636-.088.46-.194.855-.236.879-.208.139-2.762-1.275-3.288-1.817-.139-.143-.104-.293.336-1.559.586-1.657 1.287-3.437 1.387-3.504.017-.02.181.072.358.202zm33.146-17.474c1 .25 2.18.571 2.628.72l.813.265-.372.837c-.619 1.407-1.462 2.86-1.624 2.805-.048-.019-.664-.313-1.37-.65a80.174 80.174 0 00-2.34-1.09c-.58-.25-1.057-.496-1.045-.54.012-.044.226-.446.477-.897.25-.451.543-1.038.657-1.308.11-.277.24-.52.288-.547.042-.025.893.162 1.888.405zm-24.133 13.96a11.6 11.6 0 001.134-.032c.205-.015.606-.061.896-.09l.527-.053-.019 1.255c-.009.693-.011 1.865.001 2.61.026 1.22.013 1.358-.17 1.445-.346.172-3.91.372-4.168.233-.138-.078.794-5.242.96-5.338.036-.02.41-.032.84-.03zm37.876-21.272c1.181.451 2.218.911 2.59 1.152.487.313 1.494 1.478 2.13 2.467.333.513.587.952.559.968-.021.012-.365-.133-.751-.319-.776-.378-2.301-1.04-3.016-1.296l-.446-.16-.579-1.004c-.325-.546-.784-1.228-1.025-1.517-.488-.572-.52-.628-.478-.652.013-.008.47.155 1.016.36zm-8.131 4.685c1.127.213 4.228 1.014 4.28 1.104.049.084-.016.874-.116 1.554-.115.782-.577 2.525-.681 2.585-.05.028-.45-.102-.894-.292a82.549 82.549 0 00-2.291-.878c-.822-.297-1.604-.588-1.733-.635l-.233-.097.275-1.134c.154-.619.294-1.406.32-1.746.031-.334.061-.62.075-.628.02-.012.465.066.998.167zm6.146-2.425c.986.258 2.002.553 2.271.649l.48.187.182.508c.358 1.056.741 3.538.553 3.647-.035.02-.348-.087-.7-.246-.71-.314-2.683-1.042-3.632-1.35l-.591-.187-.046-.707c-.057-.887-.217-1.807-.443-2.457-.144-.427-.142-.503-.012-.504.09-.005.964.205 1.938.46zm-13.568 8.549c2.331 1.06 3.11 1.474 3.035 1.62-.278.531-2.82 3.597-2.942 3.546a62.584 62.584 0 01-1.25-.94c-.66-.502-1.559-1.172-2-1.484-.44-.312-.815-.607-.843-.656-.024-.042.236-.396.584-.792.352-.389.862-1.018 1.132-1.387l.49-.664.287.094c.155.06.836.354 1.507.663zM26.444 46.059a19.65 19.65 0 002.742.452c.018-.001-.04.654-.13 1.45-.082.79-.2 2.019-.244 2.732-.044.712-.11 1.307-.137 1.323-.265.153-4.365-.638-4.498-.868-.028-.048.045-.583.164-1.18.24-1.162.973-4.11 1.029-4.143.02-.012.503.1 1.074.234zm9.01-5.722a28.369 28.369 0 001.812-.451c.784-.22.944-.248.966-.13.044.253.776 3.582.934 4.225.1.416.11.642.04.682-.362.21-4.016 1.14-4.57 1.162-.155.006-.17-.05-.188-.727-.057-2.336-.024-4.5.074-4.557.035-.02.447-.11.932-.204zm-17.51 13.584c.28.293.56.568.617.619.068.053.06.475-.012 1.074-.125 1.039-.231 2.577-.23 3.384-.006.264-.048.465-.096.446-.05-.008-.365-.328-.701-.7-.737-.81-1.837-2.618-1.844-3.032-.007-.48.191-2.293.357-3.262l.171-.99.613.964c.37.576.817 1.173 1.125 1.497zm3.076-3.894c.426.302 1.194.731 1.698.96.504.23.927.431.94.452.012.021-.061.555-.156 1.195-.1.634-.23 1.777-.306 2.545-.154 1.761-.119 1.63-.422 1.507-1.01-.382-3.073-1.588-3.582-2.083-.092-.096-.08-.381.058-1.204.184-1.082.855-3.847.939-3.895.02-.012.399.224.831.523zm28.791-17.162c.39.258 2.998 2.199 3.472 2.585.208.167.366.327.36.35-.06.219-3.732 3.37-3.875 3.332-.033-.008-.474-.515-.987-1.13a149.188 149.188 0 00-1.621-1.906c-.477-.551-.673-.828-.626-.874.045-.035.478-.397.973-.794.485-.4 1.084-.923 1.33-1.158.612-.613.633-.626.974-.405zM39.764 39.03c.44-.171 1.177-.504 1.647-.738l.857-.43.27.485c.147.269.662 1.29 1.14 2.278l.874 1.789-.49.246c-1.245.644-4.15 1.857-4.34 1.818-.073-.013-.623-2.269-.992-4.052-.185-.916-.19-.94.022-1.007.124-.044.582-.216 1.012-.39zm6.531-3.4c.22.236 2.828 3.337 2.993 3.558.153.2.15.21-.22.489-.206.156-1.224.809-2.26 1.444-1.628.996-1.904 1.146-1.956 1.055-.141-.244-1.836-3.695-2.007-4.07l-.172-.412.958-.563a36.929 36.929 0 001.588-1l.786-.537c.103-.079.194-.066.29.036zm13.793-7.517c1.874.655 4.443 1.66 4.5 1.758.124.216-1.937 4.276-2.267 4.476-.042.025-.56-.243-1.143-.594-.92-.564-2.902-1.696-3.468-1.982-.189-.086-.18-.12.141-.658.398-.647 1.284-2.413 1.452-2.862.065-.177.128-.325.153-.33.02-.013.304.075.632.192zm-45.052 27.05c.2.638.254.988.245 1.569-.015.408-.005 1.052.017 1.43.019.37.023.683.002.695-.042.024-.36-1.752-.42-2.386-.135-1.408-.187-2.159-.15-2.143.022.006.163.38.306.836zm51.989-29.457c1.332.456 2.055.726 3.069 1.163l.862.366-.038.626c-.07.959-.265 2.02-.594 3.222l-.299 1.092-.41-.228c-.671-.374-3.345-1.737-3.938-2.008l-.548-.241.297-1.175c.324-1.227.46-1.956.497-2.665.011-.238.042-.442.07-.458.028-.016.491.125 1.032.305zM72 23.296c.403.167 1.237.55 1.847.848l1.114.545.162.474c.407 1.14.737 2.871.728 3.805l-.01.415-.7-.405c-1.071-.616-2.76-1.498-3.32-1.742l-.496-.216-.018-.611c-.014-.781-.218-2.067-.431-2.807-.098-.315-.19-.634-.205-.709-.03-.15.084-.113 1.33.403zm-41.893 23.25c.543.039 2.47-.052 3.25-.15.387-.056.725-.065.745-.03.02.035.069.73.121 1.546.053.815.147 1.977.209 2.583.072.608.111 1.143.1 1.205-.059.266-5.226.556-5.375.298-.125-.216.355-5.341.508-5.43.042-.024.246-.04.442-.023zm44.467-24.41c1.206.817 2.03 1.52 2.759 2.364.48.558 1.555 2.13 1.478 2.174-.02.012-.474-.274-1.012-.642a39.342 39.342 0 00-1.72-1.096l-.748-.442-.796-1.314c-.44-.73-.907-1.427-1.03-1.56-.414-.412-.07-.248 1.069.516zM58.729 32.76c1.442.792 3.23 1.86 3.286 1.957.06.104-.335.676-1.384 1.997-.892 1.128-2.132 2.522-2.22 2.498-.022-.005-.56-.456-1.192-1.002a94.264 94.264 0 00-2-1.678c-.47-.379-.866-.726-.886-.761-.024-.042.335-.5.798-1.018a32.981 32.981 0 001.497-1.849c.59-.796.672-.88.823-.828.085.035.662.342 1.278.684zM27.578 52.306c.6.072 1.104.125 1.119.134.018 0 .016.576.004 1.28-.016.696-.01 1.929.008 2.735.02.806.017 1.477-.011 1.493-.154.088-2.57-.3-3.816-.621l-1.468-.37.124-1.427c.065-.79.201-2.002.307-2.704l.187-1.269 1.223.316c.674.168 1.717.365 2.323.433zm-10.523 6.466c.19.215.536.591.778.832l.44.442.08 1.459a38.7 38.7 0 00.16 2.257c.06.44.055.786.011.775-.055-.015-.366-.328-.695-.705-.467-.52-.754-.92-1.265-1.805l-.651-1.128-.116-.909a30.656 30.656 0 01-.144-2.1l-.03-1.18.547.836c.294.461.699 1.017.884 1.226zm4.862-2.074c1.092.475 1.126.502 1.11.716-.045.518-.04 2.78-.002 3.763.03.632.048 1.16.042 1.183-.044.294-3.317-1.494-4.178-2.279-.226-.213-.243-.259-.234-.84.016-.938.112-2.331.228-3.355l.1-.921 1.01.67c.556.367 1.417.845 1.924 1.063zM36.84 45.732c.643-.157 1.47-.384 1.849-.5.375-.124.703-.183.727-.142.028.05.23.769.442 1.603.219.83.527 1.943.681 2.468.158.53.28 1 .268 1.043-.04.19-5.454 1.58-5.802 1.492-.11-.03-.369-2.666-.476-4.88l-.027-.579.588-.107a29.031 29.031 0 001.75-.398zm18.082-8.972c1.452 1.178 3.21 2.726 3.168 2.797-.108.201-1.837 1.794-3.04 2.786-1.136.944-1.714 1.343-1.779 1.231a98 98 0 00-1.623-2.053 148.144 148.144 0 01-1.606-2.027c-.02-.035.243-.27.592-.536.737-.575 2.79-2.364 2.977-2.602.295-.375.387-.344 1.312.404zm11.616-5.99c1.682.82 3.224 1.64 3.288 1.75.06.105-.482 1.403-1.043 2.508-.426.84-1.501 2.696-1.585 2.744-.02.012-.385-.233-.797-.543-.418-.306-1.434-1.02-2.261-1.583-.827-.563-1.494-1.042-1.49-1.053l.514-.863c.58-.976 1.21-2.203 1.545-3.038.128-.325.263-.607.29-.623.029-.016.722.299 1.539.7zM41.495 44.214a48.604 48.604 0 002.14-.929c.567-.272 1.049-.485 1.078-.483.044.012 1.308 2.459 2.068 4.017l.356.714-.948.482c-1.42.728-4.763 2.118-4.96 2.065-.055-.014-.233-.627-.928-3.152l-.545-2.007.313-.134c.172-.072.813-.33 1.425-.572zm9.654-2.722c.783.97 1.528 1.905 1.664 2.077l.23.303-.247.199c-.543.443-2.936 1.964-4.077 2.595l-1.225.68-.24-.447c-.638-1.202-1.99-3.867-2.076-4.096l-.102-.257 1.508-.88c.833-.49 1.779-1.073 2.104-1.298a9.05 9.05 0 01.815-.536l.22-.118 1.426 1.778zm21.384-13.507c1.29.64 3.183 1.73 3.263 1.869.193.334-.325 3.54-.772 4.81-.118.329-.228.588-.254.575a67.998 67.998 0 01-1.713-1.148c-.924-.618-1.914-1.254-2.19-1.41l-.511-.29.35-1.326c.201-.73.416-1.838.494-2.46.079-.62.16-1.14.18-1.153.021-.012.54.227 1.153.533zM77.083 26c.635.423 1.373.944 1.656 1.161l.511.402.247.75c.14.42.317 1.08.401 1.467.177.837.337 2.611.253 2.66-.039.013-.502-.323-1.036-.749a34.173 34.173 0 00-1.911-1.395l-.94-.628-.091-1.173c-.085-1.048-.339-2.406-.59-3.162l-.096-.279.223.095c.122.05.743.434 1.374.85zM29.77 52.462c1.018.025 2.69-.057 3.785-.188.555-.07 1.02-.116 1.032-.113.018 0 .097.539.183 1.204.13.947.554 3.646.658 4.18.03.133-.635.237-2.563.375-1.504.116-3.634.129-3.694.024-.1-.174-.174-5.435-.076-5.492.007-.003.317.003.675.01zM79.31 26.154c1.153 1.192 1.882 2.052 2.355 2.774l.437.676-.912-.839a50.058 50.058 0 00-1.272-1.123c-.321-.251-.432-.41-.883-1.273-.285-.542-.51-.979-.488-.973.022.006.367.345.763.758zM24.151 57.526c.98.298 2.087.523 3.416.684l1.21.148.07.831c.09 1.202.32 3.225.425 3.842.05.296.088.572.07.62-.044.23-3.597-.339-5.078-.812l-.824-.267-.047-1.032c-.085-2.013-.048-4.106.064-4.17.035-.02.345.05.694.156zm39.4-21.837c1.352.892 3.254 2.255 3.334 2.394.06.105-.712 1.229-1.594 2.342-.577.723-2.367 2.74-2.5 2.817-.062.037-.211-.045-.369-.204-.51-.514-1.596-1.559-2.639-2.527-.584-.545-1.05-1-1.045-1.022.01-.015.36-.421.787-.89.868-.975 1.825-2.15 2.417-2.993.215-.32.422-.588.453-.615.028-.016.552.294 1.156.698zm-43.986 25.34a16.363 16.363 0 002.955 1.59l.576.226.143 1.31c.079.716.21 1.7.297 2.188.086.489.173 1.024.204 1.192l.043.3-.577-.243c-1.315-.54-2.87-1.445-3.844-2.248-.28-.228-.281-.246-.413-1.182-.113-.808-.337-3.707-.288-3.735.006-.004.416.27.904.601zm-2.083 2.958c.248.284.626.697.851.91l.402.391.175.93c.102.517.319 1.423.484 2.015.161.585.258 1.058.214 1.046-.048-.018-.317-.29-.602-.608-.384-.439-.7-.906-1.262-1.864-.788-1.365-.965-1.848-1.44-3.895l-.177-.772.454.657c.25.368.66.902.9 1.19zm18.23-12.03c.971-.17 2.755-.606 3.927-.958.68-.207 1.255-.371 1.277-.365.022.006.31.842.626 1.858.328 1.018.704 2.185.852 2.601.2.572.23.769.146.817-.495.286-6.332 1.733-6.644 1.644-.099-.027-.269-.932-.601-3.118-.357-2.404-.357-2.357-.179-2.386.086-.012.35-.053.597-.094zm35.766-18.458c.619.395 1.595 1.04 2.163 1.427l1.034.712-.141.416c-.393 1.156-1.696 3.728-2.509 4.96l-.313.487-.727-.63c-.402-.344-1.335-1.106-2.074-1.71-.742-.593-1.35-1.097-1.365-1.125-.012-.02.228-.457.537-.97.645-1.087 1.425-2.634 1.831-3.62.157-.388.316-.694.36-.682.043.012.586.34 1.204.735zm-11.93 7.297c1.37 1.262 2.901 2.755 2.89 2.8-.021.076-1.57 1.546-2.485 2.344-1.024.898-2.941 2.423-3.018 2.402-.03-.002-.424-.508-.879-1.118-.454-.61-1.19-1.58-1.632-2.151-.441-.572-.799-1.062-.79-1.095.006-.022.493-.434 1.072-.897 1.063-.847 2.656-2.24 3.234-2.834.513-.528.42-.558 1.608.549zm17.826-9.948a59.083 59.083 0 011.928 1.44c.851.67.851.67.863.98.022.971-.516 3.92-.931 5.051l-.186.516-.952-.844a54.323 54.323 0 00-1.917-1.614c-.534-.426-.982-.799-.998-.827-.016-.028.107-.507.272-1.058.331-1.101.639-2.709.708-3.715.023-.348.063-.65.09-.665.021-.012.528.318 1.123.736zm3.302-2.055c.778.72 1.55 1.51 1.934 1.966.257.317.646 1.392.884 2.481.19.875.382 2.77.276 2.748-.037-.016-.366-.346-.725-.742-.37-.4-1.072-1.1-1.572-1.563l-.9-.836-.066-1.096c-.054-1.074-.336-2.658-.568-3.285-.072-.172-.1-.333-.072-.349.028-.016.393.293.809.676zM43.058 49.805a43.314 43.314 0 002.27-.976c2.284-1.068 2.037-.98 2.12-.74.04.116.428.885.867 1.71.427.82.794 1.52.807 1.559.009.031.187.356.389.722l.371.659-.425.245c-1.227.709-5.96 2.717-6.368 2.702-.13 0-.29-.455-1.241-3.454l-.56-1.758.247-.087c.142-.044.826-.309 1.523-.582zm10.96-4.664c1.872 2.439 2.571 3.391 2.557 3.464-.034.15-2.015 1.452-4.158 2.745l-2.186 1.317-.12-.209c-.069-.118-.627-1.198-1.243-2.393a286.147 286.147 0 00-1.16-2.266c-.032-.056.662-.512 2.287-1.497 1.28-.776 2.528-1.562 2.776-1.742.242-.177.475-.32.508-.312.04.005.374.406.738.893zM29.883 58.377c1.017.054 2.904-.041 4.344-.204.79-.094 1.29-.114 1.309-.05.014.057.15.694.297 1.417.151.712.414 1.86.581 2.535.17.681.306 1.254.304 1.282-.007.07-2.034.293-3.352.376-1.531.085-3.439.08-3.564-.024-.136-.107-.745-5.282-.626-5.35.014-.008.328.005.707.018zm-3.309 5.375a25.93 25.93 0 002.044.288c.554.042.814.106.83.199.022.07.153.748.288 1.496.146.752.38 1.834.526 2.409.153.57.243 1.048.222 1.06-.114.076-2.612-.275-3.697-.512-1.165-.247-2.515-.638-2.576-.742-.108-.188-.536-2.942-.651-4.139l-.07-.813.917.269c.507.153 1.479.372 2.167.485zm-6.717 2.402c.882.642 1.926 1.228 3.044 1.716l1.025.44.111.594c.113.549.542 2.066.934 3.26.09.283.133.536.096.567-.083.067-1.643-.64-2.454-1.11-.343-.192-.99-.636-1.449-.965-.657-.494-.844-.673-.926-.896-.34-.909-1.102-3.952-1.007-3.997.02-.012.305.158.626.391zm48.04-27.346c.518.397 3.129 2.569 3.453 2.873.126.123.106.2-.159.594-.628.957-1.834 2.49-3.023 3.826-.687.759-1.28 1.407-1.328 1.435-.056.032-.372-.258-.832-.764-.409-.451-1.225-1.318-1.817-1.942-.6-.62-1.104-1.155-1.132-1.204-.025-.041.26-.401.633-.802.891-.951 2.266-2.627 2.933-3.58.3-.414.581-.78.619-.811.049-.029.34.138.653.375zm-30.67 18.896a48.317 48.317 0 004.613-1.186c.65-.209.897-.249.945-.165.036.063.345.887.69 1.84.343.963.751 2.056.9 2.443.153.377.26.723.244.76-.162.299-7.232 2.058-7.474 1.864-.053-.044-.21-.557-.35-1.136-.428-1.805-.927-4.118-.885-4.142.014-.008.608-.138 1.317-.278zM19.351 69.558l.666.702.357.909c.196.5.505 1.213.685 1.573.177.372.276.64.216.6-.43-.262-2.1-2.912-2.795-4.423-.299-.646-.291-.65-.05-.361.139.16.555.608.92 1zm56.576-32.925c1.004.805 2.826 2.4 2.915 2.553.225.39-2.787 6.328-3.152 6.195-.044-.012-.4-.354-.777-.75a68.705 68.705 0 00-1.679-1.668c-.532-.52-1.033-1.001-1.106-1.08-.1-.109-.047-.242.323-.855.89-1.453 1.82-3.271 2.304-4.526.119-.31.248-.552.285-.536.04.005.44.312.887.667zm4.82-3.145c.074.079.48.476.903.872.421.407 1.086 1.092 1.476 1.526l.703.783-.072.906c-.089 1.23-.447 3.072-.799 4.185-.164.504-.31.913-.32.91-.022-.006-.262-.276-.53-.595-.26-.323-.99-1.12-1.61-1.774l-1.126-1.179.351-1.178c.381-1.288.652-2.67.746-3.812.03-.398.081-.743.098-.762.028-.017.107.04.18.119zM63.414 44.547c.913.921 3.084 3.281 3.066 3.347-.056.209-2.923 2.793-4.516 4.057-1.649 1.314-1.57 1.258-1.625 1.161-.029-.049-.697-.982-1.492-2.084-.797-1.09-1.498-2.08-1.558-2.184-.105-.18-.085-.21.277-.485 1.302-.965 4.034-3.332 4.86-4.218.106-.107.22-.2.265-.218.043-.006.37.27.723.624zm21.5-10.667c.94 1.5 1.16 2.042 1.456 3.553.185.933.338 2.34.254 2.388-.027.017-.295-.35-.6-.814a25.13 25.13 0 00-1.177-1.652l-.632-.805-.07-1.167a17.665 17.665 0 00-.294-2.153c-.12-.544-.23-1.056-.245-1.131-.044-.253.486.472 1.308 1.781zM44.591 55.552c1.501-.57 2.981-1.21 4.08-1.77.462-.23.956-.469 1.1-.525l.276-.103.864 1.61a218.85 218.85 0 011.28 2.428l.402.808-.48.278c-1.353.78-6.702 3.042-7.02 2.974-.061-.01-.235-.375-.427-.886-.514-1.356-1.475-3.987-1.494-4.116-.026-.142.008-.163 1.419-.698zm-13.586 8.615c.953.025 3.526-.123 4.717-.28.573-.072 1.06-.13 1.077-.13.022.005.237.699.482 1.542.245.843.596 1.95.771 2.462.179.519.315.98.31 1.02-.028.145-3.694.507-5.133.51-.959-.003-2.223-.035-2.275-.06-.108-.06-.88-3.44-1.105-4.861l-.044-.254.278.016c.156.012.564.027.922.035zM56.97 49.064c.073.079.717.97 1.437 1.975.713 1.01 1.386 1.95 1.491 2.084.21.297.243.26-1.06 1.189-1.032.725-5.762 3.558-5.848 3.506-.08-.057-1.83-3.3-2.284-4.246l-.3-.616 2.544-1.534c1.406-.848 2.744-1.686 2.989-1.874.803-.603.891-.645 1.03-.484zm-29 20.245c.724.112 2.241.276 2.518.274.12-.004.186.144.398.866.294.992.91 2.782 1.159 3.39.096.232.158.42.137.432-.02.012-.368-.01-.775-.055-1.875-.19-4.028-.618-5.184-1.028l-.597-.213-.24-.706a37.544 37.544 0 01-1.047-3.696c-.016-.075.513.02 1.428.253.801.196 1.791.414 2.203.483zm-6.91 1.732c.751.607 2.458 1.535 3.746 2.027.506.2.559.244.674.54.247.637 1.064 2.423 1.372 2.988.174.317.284.588.249.608-.112.065-1.669-.652-2.552-1.183-.47-.285-1.15-.738-1.495-1.013l-.643-.502-.634-1.194c-.686-1.285-1.262-2.606-1.122-2.556.047.018.232.144.406.285zM71.95 42.218c1.892 1.797 3.583 3.533 3.55 3.636-.053.15-1.53 2.165-2.164 2.949-.698.867-2.635 3.035-2.788 3.123-.063.037-.246-.136-.554-.525a96.674 96.674 0 00-1.636-1.963c-.64-.754-1.198-1.416-1.235-1.479-.044-.077.143-.333.618-.83.959-1.027 2.522-2.924 3.28-3.993.36-.505.687-.935.736-.964.037-.03.132-.011.193.046zM39.018 63.331c1.425-.284 4.087-.985 5.203-1.37.272-.092.517-.168.55-.16.035-.001.189.328.35.737.157.401.613 1.513 1.013 2.462l.727 1.726-.222.1c-.572.265-4.19 1.24-5.88 1.583-1.737.353-1.87.365-1.988.21-.14-.18-.598-1.568-1.224-3.715-.308-1.048-.34-1.233-.212-1.252.079-.008.83-.155 1.683-.321zm41.057-22.943a39.697 39.697 0 011.585 1.732c.67.774.824.992.8 1.127-.03.157-.563 1.44-1.007 2.41-.552 1.201-2.134 3.917-2.266 3.882-.033-.009-.363-.404-.737-.875-.594-.754-1.948-2.359-2.325-2.754-.111-.112-.087-.2.166-.598.85-1.298 2.024-3.546 2.592-4.96.15-.384.314-.711.357-.717.046-.018.42.324.835.753zm5.043-2.066c.42.583.943 1.36 1.16 1.735.386.67.391.694.358 1.28-.057 1.045-.363 2.8-.712 4.08-.19.685-.368 1.262-.396 1.278-.035.02-.338-.409-.683-.943a30.07 30.07 0 00-1.263-1.816l-.63-.834.438-1.591c.395-1.426.676-2.935.743-3.977.018-.243.055-.356.126-.314.056.033.442.525.859 1.102zm-17.823 10.42c.863.978 2.906 3.486 2.895 3.548-.034.103-1.784 1.755-2.925 2.757a65.429 65.429 0 01-3.298 2.675l-.306.242-.443-.654c-.241-.354-.917-1.347-1.506-2.206-.577-.855-1.053-1.583-1.045-1.616.01-.033.456-.403.99-.813 1.26-.988 3.095-2.576 4.154-3.606.464-.453.877-.832.923-.849.05-.01.299.227.561.522zm-45.2 26.068c.02.082-.019.048-.087-.07-.08-.122-.09-.19-.049-.149a.54.54 0 01.136.22zm65.078-36.663c.86 2.086 1.283 3.607 1.395 5.056l.05.585-.18-.408c-.1-.22-.453-.946-.781-1.61l-.606-1.211-.039-.888a16.62 16.62 0 00-.16-1.663c-.073-.432-.112-.772-.09-.766.018 0 .202.413.411.905zm-54.992 31.5c1.177.026 4.399-.172 5.575-.34.411-.06.76-.067.785-.026.024.042.21.51.404 1.04.33.877 1.314 3.272 1.41 3.44.073.125-.18.187-1.257.317a45.75 45.75 0 01-5.068.269c-1.136-.004-1.362-.04-1.446-.187-.21-.362-1.527-4.19-1.52-4.435-.002-.101-.038-.099 1.117-.078zm14.434-8.53a65.156 65.156 0 005.037-2.173 24.05 24.05 0 011.172-.547c.066.018 2.535 4.666 2.52 4.721-.023.088-2.304 1.192-3.938 1.903-1.448.631-4.014 1.611-4.135 1.579-.077-.02-.444-.85-1.36-3.08-.742-1.8-.75-1.814-.585-1.9.07-.04.648-.262 1.29-.502zM29.406 74.324c.536.09 1.43.206 1.98.259.933.084 1.025.115 1.094.316.084.258.836 1.85 1.427 3.05l.43.857-.828-.08a25.253 25.253 0 01-4.297-.779l-1.429-.382-.618-1.167a35.237 35.237 0 01-.892-1.835c-.488-1.167-.577-1.097.88-.73.699.18 1.718.4 2.254.49zM60.5 54.003c.44.535 2.812 4.097 2.791 4.174-.107.313-5.636 3.84-7.033 4.479l-.516.233-.555-.961a122.46 122.46 0 01-1.297-2.344l-.74-1.394 1.952-1.127c1.687-.974 4.444-2.733 4.486-2.869.013-.026.172-.136.36-.245.35-.201.353-.194.552.053zM25.397 76.906a31.82 31.82 0 001.374.61l.672.262.808 1.223c.444.673.95 1.403 1.125 1.627.172.216.313.413.307.435-.016.084-1.58-.676-2.406-1.174-1.563-.937-2.335-1.662-3.533-3.301-.875-1.195-.876-1.213.088-.59.476.31 1.175.715 1.565.908zM76.362 46.74c.68.76 1.738 2.044 2.142 2.6.165.22.345.45.402.502.226.231-2.726 4.035-4.823 6.23l-.32.333-.218-.283c-.117-.155-.468-.649-.782-1.08a59.13 59.13 0 00-1.287-1.747c-.396-.524-.71-.973-.7-1.017.01-.033.28-.338.599-.67 1.309-1.388 3.377-3.938 4.157-5.132.125-.202.245-.364.256-.36.022.005.276.285.574.624zm7.2-2.225c.283.376.801 1.145 1.159 1.7l.648 1.01-.31.8c-.47 1.182-1.62 3.472-2.358 4.688l-.657 1.066-.504-.759a313.06 313.06 0 00-1.29-1.911c-.656-.977-.769-1.172-.713-1.27.035-.066.422-.717.857-1.46.877-1.491 1.45-2.64 2.005-3.963.425-1.035.338-1.04 1.164.099zm-40.575 23.76a57.282 57.282 0 002.816-.789 40.785 40.785 0 011.218-.369c.018-.001.372.742.794 1.65.422.908.914 1.952 1.091 2.324.276.574.303.67.179.695-.082.02-.41.126-.74.232-1.732.573-4.556 1.284-6.407 1.62-.603.115-1.12.2-1.131.197-.091-.013-1.875-4.454-1.865-4.645.002-.03.55-.16 1.213-.282a59.71 59.71 0 002.832-.632zm44.482-26.09c.565 1.123 1.163 2.626 1.175 2.954.023.442-.085 1.526-.256 2.535-.164.986-.735 3.201-.812 3.18-.029-.001-.267-.495-.53-1.096a25.013 25.013 0 00-.89-1.78l-.403-.715.298-.934c.361-1.128.706-2.72.852-3.965.063-.502.124-.927.145-.939.014-.008.211.333.42.76zM70.654 52.821c.823 1.039 2.822 3.777 2.809 3.85-.015.055-1.269 1.28-2.09 2.032-1.167 1.083-4.172 3.542-4.639 3.812-.097.056-.218-.088-.864-1.127-.418-.66-1.035-1.631-1.376-2.158l-.62-.962 1.305-1.023c1.443-1.139 3.457-2.897 4.5-3.925.377-.376.704-.695.728-.718.028-.016.131.082.247.22zM34.16 74.718c1.462.02 3.539-.102 5.142-.303l1.267-.156.346.73c.194.398.651 1.304 1.022 2.01.377.702.67 1.322.658 1.366-.07.264-5.893.626-7.543.473l-.293-.026-.507-.99c-.506-.989-1.11-2.276-1.326-2.828-.073-.19-.08-.298-.014-.299.057.004.62.014 1.248.023zm-2.46 4.141c.612.093 1.512.205 1.995.251l.88.077.68 1.066c.379.59.897 1.359 1.159 1.7.259.352.465.66.459.682-.024.088-2.445-.242-3.667-.493-1.68-.35-2.656-.687-2.967-1.018-.355-.39-1.554-2.047-1.876-2.604l-.277-.48 1.252.316c.692.186 1.751.41 2.362.503zm19.107-13.186c1.442-.61 3.666-1.633 4.252-1.972.223-.128.452-.214.508-.182.052.026.631 1.03 1.287 2.23l1.183 2.178-.418.24c-1.533.886-7.673 3.484-8.007 3.388-.121-.032-2.173-4.327-2.171-4.533.002-.029.487-.235 1.076-.454a61.183 61.183 0 002.29-.895zm12.974-6.84c.334.448 2.55 3.915 2.534 3.97-.076.286-7.622 5.005-7.867 4.933-.06-.022-.653-1.017-1.32-2.22l-1.204-2.184 2.686-1.625c1.475-.89 3.091-1.906 3.582-2.263 1.452-1.043 1.307-.987 1.59-.611zM28.747 81.085c.263.117.692.297.961.392.417.159.572.283 1.143.9.366.393.884.92 1.148 1.168.27.243.489.46.483.483-.041.154-2.216-1.118-3.317-1.93-.574-.431-2.257-1.865-2.322-1.994-.017-.028.3.133.699.358.41.227.95.501 1.205.623zm60.52-36.01c.184.897.145 1.087-.086.365-.133-.424-.215-1.24-.126-1.217.021.005.12.385.213.852zm-9.94 5.367c.127.122 1.246 1.77 1.981 2.916l.493.774-.597.865c-1.503 2.177-4.586 5.787-4.784 5.604-.043-.04-.529-.818-1.085-1.733-.563-.91-1.107-1.757-1.212-1.891l-.191-.234.658-.695c1.454-1.555 3.046-3.496 4.082-4.986.531-.77.514-.752.656-.62zm6.779-1.814c.257.51.646 1.345.872 1.865l.402.938-.173.49c-.417 1.225-1.628 3.634-2.757 5.493l-.353.566-.136-.349a61.37 61.37 0 00-.93-1.915l-.785-1.571.536-.858c.964-1.55 2.206-3.986 2.603-5.134.07-.2.157-.388.192-.408.035-.02.259.352.529.883zm3.215-1.336c.503 2.143.517 2.86.115 5.172-.189 1.075-.553 2.39-.641 2.367-.033-.008-.144-.344-.236-.746a22.246 22.246 0 00-.465-1.626l-.291-.891.448-1.67c.245-.913.507-2.133.588-2.7.075-.563.164-1.004.191-.974.03.02.16.503.29 1.068zM46.596 72.916a60.469 60.469 0 002.317-.688l.52-.179.13.324c.076.18.561 1.116 1.088 2.093.523.97.925 1.78.897 1.795-.035.02-.633.208-1.334.427-1.734.537-4.057 1.117-5.72 1.426l-1.386.253-.423-.732c-.434-.752-1.65-3.162-1.685-3.337-.018-.064.685-.246 1.886-.485a60.458 60.458 0 003.71-.897zm-10.333 6.328c1.35.02 4.08-.145 5.597-.334l1.044-.138.843 1.362c.47.75.978 1.534 1.15 1.75.16.215.27.403.241.419-.027.016-.553.087-1.162.16-1.553.19-3.972.315-5.359.28l-1.18-.034-.467-.613c-.724-.966-1.964-2.823-1.908-2.855a28.45 28.45 0 011.2.003zm37.843-21.635c.221.318.776 1.214 1.233 1.99l.839 1.42-.907.877a83.045 83.045 0 01-2.105 1.94c-1.2 1.045-3.78 3.111-3.864 3.095-.026-.013-.6-.927-1.261-2.04l-1.221-2.035.23-.133c.746-.43 4.35-3.477 5.74-4.866.375-.365.733-.71.803-.75.094-.064.182.024.513.502zm-41.92 24.667c1.292.322 2.84.59 4.12.696.909.079.983.11 1.326.544.261.323 1.792 1.928 1.996 2.089.209.167.036.174-1.014.046-1.398-.168-3.073-.51-4.08-.839-.706-.224-.948-.353-1.415-.743-.467-.39-2.182-2.057-2.136-2.074.007-.004.544.122 1.203.28zM51.349 71.36c1.347-.5 4.152-1.71 5.317-2.3.438-.224.978-.48 1.206-.584l.407-.18 1.146 2.033 1.15 2.04-.703.377c-1.865 1.002-5.229 2.452-7.498 3.223l-.427.145-.622-1.174c-.341-.639-.834-1.59-1.099-2.096l-.477-.923.212-.067c.114-.028.74-.25 1.388-.494zm15.391-7.902c.13.176.689 1.08 1.228 2.013l.985 1.707-.22.182c-.973.794-5.179 3.473-6.71 4.265l-1.102.57-1.179-2.04-1.178-2.041 2.119-1.224c1.993-1.15 4.015-2.43 5.054-3.206.801-.592.726-.577 1.003-.226zm15.732-8.005c.454.787.997 1.904 1.27 2.62.108.281.088.311-.564 1.226-.37.52-.994 1.354-1.393 1.854-.777.988-2.917 3.43-3.105 3.54-.084.047-.137.004-.208-.215-.055-.145-.473-.981-.947-1.85l-.844-1.575 1.392-1.565c1.399-1.57 2.506-2.951 3.356-4.167.25-.357.468-.67.503-.69.024-.023.27.355.54.822zm5.562-1.892c.553 2.02.554 2.039.17 3.031-.177.465-.589 1.362-.898 1.986-.559 1.14-1.79 3.29-1.867 3.27-.022-.005-.14-.373-.264-.813a30.43 30.43 0 00-.558-1.721 19.984 19.984 0 01-.323-.947c-.004-.007.266-.441.58-.958.98-1.605 2.112-3.828 2.517-4.945.086-.254.15-.337.21-.28.04.052.235.664.433 1.377zm-42.41 24.69a51.499 51.499 0 004.8-1.249l1.363-.424.765 1.211 1.122 1.767.365.552-.37.148c-1.331.527-7.358 2-7.92 1.944-.229-.026-.593-.512-1.68-2.234l-.797-1.268.567-.095a47.222 47.222 0 001.785-.353zm-11.892 6.782c.261.211.27.225.084.146a2.69 2.69 0 01-.518-.286l-.322-.204.238.058c.131.035.363.162.518.286zm56.226-31.906c-.022 1.797-.32 4.114-.645 5.129-.112.352-.111.37-.24-1.078-.048-.613-.117-1.15-.14-1.192-.029-.049.112-.594.305-1.226.2-.635.417-1.513.502-1.962.078-.444.169-.803.19-.797.023.006.039.517.028 1.127zM39.184 83.113a45.28 45.28 0 005.219-.329l1.051-.142.616.777c.34.426.836 1.013 1.11 1.31.28.293.51.578.535.638.064.223-3.922.546-6.088.497-1.177-.027-1.188-.03-1.55-.35-.811-.73-2.343-2.353-2.267-2.397.014-.008.638-.006 1.374-.004zm-1.33 2.801c.47.073 1.2.162 1.632.201.772.066.783.069 1.438.591.37.288.91.692 1.21.89.304.205.546.381.536.396-.01.062-1.618-.162-2.706-.388-1.949-.398-2.88-.77-4.477-1.8l-.803-.52 1.158.25c.64.142 1.547.315 2.013.38zm38.958-23.875c.382.661 1.533 2.96 1.518 3.015-.02.077-2.15 2.087-3.01 2.852-.822.716-3.504 2.897-3.748 3.037-.07.04-2.082-3.525-2.053-3.635.01-.033.456-.403.997-.817 1.854-1.442 4.582-3.816 5.441-4.758.434-.473.4-.482.855.306zM53.53 75.944a66.312 66.312 0 005.505-2.361l1.752-.845 1.071 1.806 1.07 1.807-.85.426a66.709 66.709 0 01-3.881 1.776c-1.562.66-3.639 1.441-3.748 1.412-.066-.018-1.712-2.514-2.206-3.353-.092-.16-.085-.164 1.287-.668zm30.552-17.026c.112.195.677 1.93.89 2.718l.187.71-.519.727a44.403 44.403 0 01-3.23 4.047c-.673.75-1.231 1.361-1.253 1.355-.033-.009-.18-.36-.332-.784-.223-.595-.96-2.436-1.02-2.54-.009-.014.31-.365.692-.781 1.464-1.57 3.491-4.078 4.164-5.135.293-.457.331-.488.42-.317zM69.996 69c.451.798.901 1.625.99 1.843l.16.39-.76.551c-1.783 1.29-6.238 4.038-6.937 4.275l-.259.084-1.004-1.789-1.005-1.788 2.68-1.603c1.476-.89 3.12-1.922 3.652-2.304a51.572 51.572 0 011.313-.897l.34-.215.83 1.453zm18.759-11.277c.108 1.75.061 2.167-.348 3.164-.651 1.593-2.215 4.567-2.384 4.516-.029-.002-.093-.42-.148-.917-.06-.505-.161-1.18-.224-1.515-.075-.403-.079-.651-.001-.742.483-.595 2.111-3.635 2.683-4.995.139-.322.276-.569.303-.538.034.027.087.489.119 1.027zM48.462 82.056c1.566-.347 3.589-.883 4.837-1.297.495-.156.913-.286.935-.28.022.006.39.499.826 1.093.429.597.91 1.239 1.055 1.425l.276.333-.37.148c-1.162.467-5.243 1.495-7.071 1.789-.608.09-.724.083-.848-.068-.085-.1-.417-.465-.734-.821-.718-.793-1.47-1.725-1.455-1.78.009-.032.28-.096.611-.148a37.628 37.628 0 001.938-.394zm-6.405 4.181c1.323.007 3.704-.151 5.042-.33l1.073-.136.44.424c.249.238.773.678 1.155.987.39.304.702.57.696.592-.018.066-2.417.29-3.704.346a32.13 32.13 0 01-2.213.014c-.904-.035-.93-.048-1.648-.488-.824-.509-1.97-1.352-1.9-1.392.02-.012.5-.02 1.059-.017zm36.717-20.205c.36.785 1.052 2.69 1.015 2.804-.027.081-1.333 1.346-2.516 2.419-.666.617-2.75 2.32-3.501 2.885l-.494.369-.126-.234c-.068-.119-.428-.84-.798-1.592l-.672-1.358 1.442-1.14c1.57-1.24 3.376-2.812 4.449-3.868.98-.975.898-.955 1.201-.285zM40.851 88.14c.085.034.747.135 1.473.217 1.183.134 1.41.19 2.171.558.538.256.76.397.615.388-.903-.082-4.672-1.074-4.49-1.178.041-.024.143-.009.23.015zm15.154-8.313c2.074-.77 5.47-2.276 6.586-2.92l.495-.286.269.467c.145.25.576.95.95 1.55l.693 1.087-.526.248c-.29.14-.999.474-1.56.742-1.973.945-5.884 2.525-6.111 2.47-.15-.034-2.15-2.725-2.117-2.846.008-.033.092-.081.18-.105.097-.027.605-.209 1.141-.407zm29.343-16.43c.055.256.144.957.191 1.57l.099 1.105-.588.85c-.325.466-.889 1.228-1.264 1.705-.704.89-2.727 3.18-2.793 3.163-.021-.006-.102-.322-.185-.691a24.68 24.68 0 00-.342-1.429l-.203-.755 1.073-1.168c1.41-1.548 3.236-3.828 3.733-4.673.06-.09.12-.162.142-.156.022.006.082.222.137.479zm3.267-1.682c-.061.602-.593 2.562-.887 3.26-.56 1.3-1.483 3.114-1.789 3.486-.06.072-.068-.118-.024-.525.037-.355.07-.876.071-1.165-.003-.472.043-.6.46-1.278a28.57 28.57 0 001.726-3.16c.237-.509.439-.932.453-.94.007-.004.004.137-.01.322zm-16.74 10.78c.625 1.245 1.036 2.15 1.013 2.238-.053.198-2.13 1.574-4.69 3.098-2.384 1.423-2.862 1.69-2.938 1.622-.047-.048-.477-.728-.956-1.51l-.865-1.433 1.952-1.127c1.875-1.082 4.032-2.449 5.037-3.187.266-.2.592-.425.72-.508l.243-.159.483.966zM50.261 85.382c1.781-.36 3.628-.831 5.06-1.296 1.355-.438 1.337-.437 1.629-.076.215.275 1.309 1.445 1.576 1.7.142.132.103.145-1.878.722-1.584.46-3.54.92-4.786 1.128-.76.132-.793.123-1.172-.131-.463-.318-2.066-1.678-2.017-1.706.021-.012.74-.167 1.588-.34zm-4.64 3.134c1.265.003 2.68-.09 4.173-.273 1.213-.152 1.253-.147 1.591.085.195.128.65.386 1.019.573.364.18.637.347.595.371-.125.072-2.674.262-3.75.28-1.784.017-2.162-.025-3.075-.352-1.04-.384-1.606-.624-1.543-.66.02-.012.47-.021.99-.024zm34.362-19.133c.1.174.5 1.783.588 2.354.081.51.205.356-1.611 2.055-1.15 1.082-3.135 2.748-3.97 3.331l-.515.363-.051-.203c-.036-.11-.273-.697-.533-1.308l-.474-1.11.341-.263c1.811-1.37 3.928-3.177 5.273-4.502.425-.422.793-.783.828-.803.024-.023.084.016.124.086zm5.59-1.843c-.13 1.561-.207 1.847-.72 2.599-.829 1.22-3.472 4.419-3.618 4.373-.03-.002-.078-.503-.128-1.106-.066-1.048-.063-1.106.172-1.344 1.097-1.126 3.125-3.569 3.949-4.75.156-.23.316-.434.351-.454.035-.02.028.29-.006.682zM58.64 82.942c1.869-.707 5.328-2.25 6.332-2.829.178-.094.28.034 1.241 1.522l.473.74-1.028.537c-1.29.662-3.458 1.607-5.077 2.216-1.478.547-1.585.571-1.762.377-.073-.079-.498-.54-.937-1.01a35.062 35.062 0 01-.837-.92c-.016-.028.056-.08.166-.115.107-.024.749-.264 1.43-.518zm14.604-7.577c.055.145.283.7.51 1.238.224.549.394 1.036.383 1.098-.05.205-1.88 1.429-4.472 2.99l-2.618 1.568-.463-.69a35.126 35.126 0 01-.762-1.222l-.305-.53 1.139-.602c1.077-.566 4.221-2.54 5.359-3.354.284-.201.654-.461.821-.558l.306-.195.102.257zM53.114 87.683a40.927 40.927 0 004.623-1.201l1.196-.375.434.38c.24.206.592.495.784.635.203.143.382.29.402.325.084.147-3.197 1.047-5.29 1.447-.937.18-1.453.235-1.608.176-.742-.286-2.101-1.016-2.004-1.072.028-.016.69-.157 1.463-.315zM86.017 69.16c-.01.08-.122.303-.24.501-.16.27-.202.311-.181.17.022-.106.114-.317.216-.478.218-.349.234-.368.205-.193zM50.975 89.837c.503-.03 1.35-.11 1.875-.181.77-.1 1.062-.093 1.563.035.341.092.581.185.54.21-.203.116-4.464.19-4.888.081-.216-.052.005-.087.91-.145zm29.793-16.216c.072 1.445.112 1.338-.956 2.354-1.553 1.463-4.385 3.85-4.538 3.81-.044-.013-.633-1.837-.611-1.896.006-.022.57-.478 1.255-1.013 1.315-1.038 3.067-2.56 3.99-3.473.861-.841.806-.856.86.218zm4.128-2.829c.032.056-.424 1.053-.71 1.571-.375.671-1.35 1.977-2.383 3.196-.455.532-.84.977-.86.99-.021.011.008-.275.062-.65l.11-.677.823-.893c.87-.939 2.36-2.737 2.657-3.205.174-.278.273-.38.301-.332zm-24.29 14.72a66.752 66.752 0 005.1-2.21c.63-.309 1.16-.55 1.182-.544.051.008.893 1.176 1.069 1.464.084.147.064.177-.242.307-.175.082-.841.393-1.472.701-1.11.54-4.006 1.737-4.77 1.974-.348.108-.41.097-.823-.184-.62-.413-1.312-1.017-1.228-1.065.014-.008.55-.206 1.185-.443zm-5.17 3.729c.77-.13 3.197-.74 4.475-1.135.634-.19 1.165-.348 1.172-.352.151.052 1.111.557 1.103.59-.024.088-2.557.77-3.929 1.051-1.478.305-2.316.334-3.109.104-.403-.12-.366-.15.288-.258zm18.936-10.97c.117.202.523 1.695.49 1.798-.095.351-6.323 4.18-6.528 4.019-.053-.044-.32-.41-.593-.819l-.495-.745 1.996-1.162c1.799-1.038 4.449-2.726 4.488-2.85.006-.023.137-.117.29-.206.224-.129.296-.133.352-.035zm6.23-2.232c-.02.16-.13.53-.236.814-.184.487-.274.605-1.117 1.398-.9.854-2.427 2.172-3.092 2.677a9.28 9.28 0 00-.516.41l-.176.147-.08-.623-.077-.615.428-.321c1.284-.964 3.222-2.613 4.278-3.65.303-.295.574-.535.599-.54.018-.001.015.14-.01.303zM62.874 87.073c1.523-.582 4.542-1.935 5.281-2.362.084-.048.19.021.349.217.128.158.295.35.372.436l.15.145-.83.415c-2.154 1.066-5.092 2.224-5.454 2.145-.255-.057-1.095-.417-1.14-.494-.016-.028.04-.06.122-.08.082-.019.597-.205 1.15-.422zm12.144-6.25c.104.823.076.904-.4 1.254-1.316.973-4.529 2.957-5.087 3.15-.208.074-.271.045-.466-.196a9.647 9.647 0 00-.345-.404c-.13-.13-.116-.137 1.974-1.363 1.153-.675 2.515-1.535 3.03-1.898 1.407-1.007 1.242-.94 1.294-.543zm-9.064 6.515c.71-.299 1.75-.768 2.3-1.04.935-.456 1.182-.543 1.144-.4-.044.165-4.459 2.064-4.925 2.11l-.215.03.198-.076c.11-.036.785-.314 1.498-.624zm10.831-6.337c-.719.639-1.406 1.156-1.38 1.039.026-.1 1.398-1.216 1.747-1.417.118-.069-.045.1-.367.378zm-1.999 1.545c-.202.358-4.865 3.227-5.067 3.12-.055-.033.437-.354 1.43-.937a47.113 47.113 0 002.184-1.335c1.012-.696 1.541-1.001 1.453-.848z"/></svg>